<?xml version="1.0" encoding="utf-8"?>
<!-- Generator: Adobe Illustrator 17.0.0, SVG Export Plug-In . SVG Version: 6.00 Build 0)  -->
<!DOCTYPE svg PUBLIC "-//W3C//DTD SVG 1.1//EN" "http://www.w3.org/Graphics/SVG/1.1/DTD/svg11.dtd">
<svg version="1.1" id="Слой_1" xmlns="http://www.w3.org/2000/svg" xmlns:xlink="http://www.w3.org/1999/xlink" x="0px" y="0px"
	 width="3015.148px" height="52.605px" viewBox="0 0 3015.148 52.605" enable-background="new 0 0 3015.148 52.605"
	 xml:space="preserve">
<rect x="0" y="0" fill="#420041" width="3015.148" height="35.971"/>
<g>
	<path fill="#80517C" d="M819,31.643c0,11.576-9.386,20.963-20.964,20.963h-76.869c-11.579,0-20.965-9.387-20.965-20.963"/>
</g>
<g>
	<path fill="#80517C" d="M1031.584,31.643c0,11.576-9.386,20.963-20.964,20.963h-76.869c-11.579,0-20.965-9.387-20.965-20.963"/>
</g>
<g>
	<path fill="#80517C" d="M1244.168,31.643c0,11.576-9.386,20.963-20.964,20.963h-76.869c-11.579,0-20.965-9.387-20.965-20.963"/>
</g>
<g>
	<path fill="#80517C" d="M1456.752,31.643c0,11.576-9.386,20.963-20.964,20.963h-76.869c-11.579,0-20.965-9.387-20.965-20.963"/>
</g>
<g>
	<path fill="#80517C" d="M1669.336,31.643c0,11.576-9.386,20.963-20.964,20.963h-76.869c-11.579,0-20.965-9.387-20.965-20.963"/>
</g>
<g>
	<path fill="#80517C" d="M1881.92,31.643c0,11.576-9.386,20.963-20.964,20.963h-76.869c-11.579,0-20.965-9.387-20.965-20.963"/>
</g>
<g>
	<path fill="#80517C" d="M2094.504,31.643c0,11.576-9.386,20.963-20.964,20.963h-76.869c-11.579,0-20.965-9.387-20.965-20.963"/>
</g>
<g>
	<path fill="#80517C" d="M2307.088,31.643c0,11.576-9.386,20.963-20.964,20.963h-76.869c-11.579,0-20.965-9.387-20.965-20.963"/>
</g>
</svg>
