<?xml version="1.0" encoding="utf-8"?>
<!-- Generator: Adobe Illustrator 17.0.0, SVG Export Plug-In . SVG Version: 6.00 Build 0)  -->
<!DOCTYPE svg PUBLIC "-//W3C//DTD SVG 1.1//EN" "http://www.w3.org/Graphics/SVG/1.1/DTD/svg11.dtd">
<svg version="1.1" id="Слой_1" xmlns="http://www.w3.org/2000/svg" xmlns:xlink="http://www.w3.org/1999/xlink" x="0px" y="0px"
	 width="251.355px" height="96.231px" viewBox="0 0 251.355 96.231" enable-background="new 0 0 251.355 96.231"
	 xml:space="preserve">
<g>
	<g>
		<path fill="#666666" d="M219.734,79.793c0,9.078-3.977,16.438-8.883,16.438c-1.682,0.002-7.137,0-7.137,0
			s-1.747-10.469-1.747-16.438c0-6.938,1.747-16.438,1.747-16.438s5.979-0.002,7.137,0
			C215.757,63.355,219.734,70.715,219.734,79.793z"/>
		<ellipse fill="#333333" cx="203.714" cy="79.793" rx="8.884" ry="16.438"/>
		<ellipse fill="#666666" cx="203.713" cy="80.008" rx="5.234" ry="10.525"/>
	</g>
	<rect x="0" y="73.02" fill="#CC9933" width="123.173" height="5.557"/>
	<g>
		<path fill="#996633" d="M72.659,17.434h8.571l5.229,2.44h-7.861c-4.034,0-6.597,3.281-5.715,7.316l3.976,21.41h-7.844
			l-3.977-21.41C63.859,21.801,67.271,17.434,72.659,17.434z"/>
		<path fill="#CC9933" d="M78.976,17.434H127.1c5.388,0,10.71,4.367,11.889,9.756l3.977,21.41h-2.438H77.77h-2.438l-3.976-21.41
			C70.177,21.801,73.588,17.434,78.976,17.434z"/>
	</g>
	<path fill="#FFCC00" d="M65.783,69.854c0.001,0-8.237-37.918,111.712-37.918c23.333,0,39.678,1.684,51.626,6.91
		c11.948,5.229,5.624,10.817,5.624,10.817l5.52,5.5l5.241,14.691H65.783z"/>
	<path fill="#FFE600" d="M226.867,63.477c0,0-19.568-32.52-71.283-32.52c-42,0-102.239,36.561-103.59,37.053l177.339,1.844
		L226.867,63.477z"/>
	<polygon fill="#FFCC00" points="243.879,68.182 139.672,68.182 171.149,60.043 241.961,60.043 	"/>
	<g>
		<path fill="#999999" d="M222.485,53.832c0.936,6.365,6.165,11.525,11.682,11.525c5.517,0,9.23-5.16,8.295-11.525
			c-0.936-6.367-6.165-11.523-11.682-11.523S221.549,47.465,222.485,53.832z"/>
		<path fill="#F0F1F1" d="M233.794,62.811c4.167,0,6.964-4.027,6.237-8.979c-0.728-4.951-4.709-8.979-8.877-8.979
			c-4.167,0-6.965,4.027-6.237,8.979C225.644,58.783,229.626,62.811,233.794,62.811z"/>
		<path fill="none" stroke="#FFFFFF" stroke-width="3" stroke-linecap="round" stroke-miterlimit="10" d="M230.863,48.129
			c0,0-3.414,0.723-2.707,5.541"/>
	</g>
	<rect x="21.635" y="48.965" width="30.359" height="29.703"/>
	<rect x="94.105" y="48.965" width="30.359" height="29.703"/>
	<path fill="#FFCC00" d="M33.953,55.125c7.201-0.965,14.378,6.688,17.589,17.895h42.588c1.088-9.719,5.655-17.043,12.01-17.895
		c7.201-0.965,14.378,6.688,17.589,17.895h51.031l-4.456-11.475c0,0,0.686-15.371-6.5-19.209
		c-11.395-6.08-31.663-11.783-60.284-11.783c-15.63,0-27.888,1.383-27.888,1.383C12.832,35.191,0,73.02,0,73.02h21.943
		C23.031,63.301,27.598,55.977,33.953,55.125z"/>
	<g>
		<path fill="#999999" d="M152.055,53.832c0.936,6.365,6.166,11.525,11.682,11.525c5.516,0,9.23-5.16,8.294-11.525
			c-0.936-6.367-6.166-11.523-11.682-11.523C154.833,42.309,151.119,47.465,152.055,53.832z"/>
		<path fill="#F0F1F1" d="M163.363,62.811c4.166,0,6.965-4.027,6.237-8.979c-0.727-4.951-4.709-8.979-8.876-8.979
			c-4.166,0-6.964,4.027-6.237,8.979C155.214,58.783,159.196,62.811,163.363,62.811z"/>
		<path fill="none" stroke="#FFFFFF" stroke-width="3" stroke-linecap="round" stroke-miterlimit="10" d="M160.433,48.129
			c0,0-3.415,0.723-2.707,5.541"/>
	</g>
	<g>
		<path fill="#999999" d="M123.808,73.02c0,2.818,12.041,5.105,14.862,5.105h107.576c2.82,0,5.108-2.287,5.108-5.105l0,0
			c0-2.822-2.288-5.109-5.108-5.109H138.67C135.849,67.91,123.808,70.197,123.808,73.02L123.808,73.02z"/>
		<path fill="#CCCCCC" d="M251.355,73.02L251.355,73.02c0-2.822-2.288-5.109-5.108-5.109H138.67c-2.821,0-14.862,2.287-14.862,5.109
			l0,0"/>
	</g>
	<polygon fill="#FFFFFF" points="124.822,32.879 136.228,32.879 130.997,1.988 119.591,1.988 	"/>
	<polygon fill="#FFFFFF" points="143.658,32.879 148.072,32.879 142.841,1.988 138.428,1.988 	"/>
	<g>
		<path fill="#999999" d="M110.09,0h51.446c5.286,0,10.508,4.285,11.665,9.568l3.9,23.127h-2.392l-3.9-23.127
			c-0.865-3.957-4.789-7.176-8.747-7.176h-51.447c-3.958,0-6.473,3.219-5.607,7.176l3.9,23.127h-2.393l-3.9-23.127
			C101.458,4.285,104.805,0,110.09,0z"/>
		<path fill="#999999" d="M103.893,0h8.409l5.13,2.393h-7.712c-3.958,0-6.472,3.219-5.606,7.176l3.899,23.127h-7.694l-3.9-23.127
			C95.261,4.285,98.608,0,103.893,0z"/>
		<polygon fill="#999999" points="66.095,33.016 87.374,33.016 176.492,33.016 176.492,30.574 66.095,30.574 		"/>
	</g>
	<g>
		<path fill="#666666" d="M49.155,79.793c0,9.078-3.977,16.438-8.883,16.438c-1.681,0.002-7.137,0-7.137,0
			s-1.748-10.469-1.748-16.438c0-6.938,1.748-16.438,1.748-16.438s5.979-0.002,7.137,0C45.178,63.355,49.155,70.715,49.155,79.793z"
			/>
		<ellipse fill="#333333" cx="33.135" cy="79.793" rx="8.884" ry="16.438"/>
		<ellipse fill="#999999" cx="33.135" cy="80.008" rx="5.234" ry="10.525"/>
	</g>
	<g>
		<path fill="#666666" d="M121.737,79.793c0,9.078-3.977,16.438-8.883,16.438c-1.681,0.002-7.137,0-7.137,0
			s-1.747-10.469-1.747-16.438c0-6.938,1.747-16.438,1.747-16.438s5.979-0.002,7.137,0C117.76,63.355,121.737,70.715,121.737,79.793
			z"/>
		<ellipse fill="#333333" cx="105.717" cy="79.793" rx="8.884" ry="16.438"/>
		<ellipse fill="#999999" cx="105.716" cy="80.008" rx="5.234" ry="10.525"/>
	</g>
	<path fill="none" stroke="#CC9933" stroke-miterlimit="10" d="M66.001,32.695c0,0-13.488,26.525-7.771,43.834"/>
	<path fill="none" stroke="#CC9933" stroke-miterlimit="10" d="M91.736,33.229c0,0-13.958,25.992-8.241,43.301"/>
</g>
</svg>
