<?xml version="1.0" encoding="utf-8"?>
<!-- Generator: Adobe Illustrator 17.0.0, SVG Export Plug-In . SVG Version: 6.00 Build 0)  -->
<!DOCTYPE svg PUBLIC "-//W3C//DTD SVG 1.1//EN" "http://www.w3.org/Graphics/SVG/1.1/DTD/svg11.dtd">
<svg version="1.1" id="Слой_1" xmlns="http://www.w3.org/2000/svg" xmlns:xlink="http://www.w3.org/1999/xlink" x="0px" y="0px"
	 width="35.371px" height="53.333px" viewBox="0 0 35.371 53.333" enable-background="new 0 0 35.371 53.333" xml:space="preserve">
<g>
	<path fill="#CC9933" d="M0.009,53.333L0,25.082c-0.003-6.626,5.369-12,11.996-12.003l11.362-0.002
		c6.628-0.003,12.001,5.368,12.003,11.996l0.009,28.249L0.009,53.333z"/>
	<polygon fill="#CC9933" points="31.239,0 17.677,16.858 4.108,0.01 	"/>
	<rect x="11.728" y="9.585" width="11.898" height="3.493"/>
	<g>
		<g>
			<path fill="#FFCC00" d="M10.14,27.943c-0.002-3.497,2.212-6.001,5.982-6.564l-0.001-1.075c0-0.707,0.05-1.011,0.225-1.33
				c0.242-0.403,0.69-0.674,1.251-0.676c0.562-0.001,1.011,0.275,1.252,0.676c0.192,0.319,0.226,0.623,0.226,1.33l0,1.008
				c1.46,0.131,2.583,0.532,4.075,1.299c0.803,0.42,1.397,1.015,1.397,1.75c0,0.37-0.129,0.74-0.401,1.06
				c-0.257,0.306-0.594,0.498-1.059,0.498c-0.369-0.002-0.931-0.209-1.398-0.498c-1.057-0.642-1.956-0.962-3.046-1.076l0.002,6.917
				l0.93,0.144c2.085,0.322,3.24,0.802,4.236,1.699c1.22,1.122,1.862,2.693,1.863,4.685c0.001,3.723-2.662,6.111-6.592,6.612
				l0,1.703c0,0.707-0.033,1.011-0.225,1.332c-0.241,0.399-0.69,0.67-1.252,0.672c-0.561,0.002-1.01-0.271-1.252-0.673
				c-0.176-0.319-0.225-0.625-0.226-1.33l-0.001-1.653c-2.005-0.143-3.416-0.659-4.812-1.491c-1.188-0.707-1.622-1.187-1.622-2.022
				c0-0.386,0.177-0.834,0.481-1.14c0.289-0.29,0.642-0.419,1.011-0.416c0.45,0,0.851,0.142,1.477,0.576
				c1.282,0.882,2.438,1.316,3.931,1.429l-0.002-7.157l-0.45-0.064c-1.845-0.27-3.241-0.849-4.317-1.844
				C10.687,31.279,10.141,29.804,10.14,27.943z M14.344,29.963c0.531,0.48,1.156,0.788,2.248,0.979l-0.002-6.563
				c-2.022,0.337-3.081,1.672-3.08,3.466C13.511,28.681,13.734,29.451,14.344,29.963z M21.343,35.514
				c-0.579-0.514-1.348-0.802-2.696-0.994l0.002,6.834c2.309-0.29,3.593-1.51,3.592-3.468C22.241,36.86,21.985,36.059,21.343,35.514
				z"/>
		</g>
	</g>
</g>
</svg>
