<?xml version="1.0" encoding="utf-8"?>
<!-- Generator: Adobe Illustrator 17.0.0, SVG Export Plug-In . SVG Version: 6.00 Build 0)  -->
<!DOCTYPE svg PUBLIC "-//W3C//DTD SVG 1.1//EN" "http://www.w3.org/Graphics/SVG/1.1/DTD/svg11.dtd">
<svg version="1.1" id="Слой_1" xmlns="http://www.w3.org/2000/svg" xmlns:xlink="http://www.w3.org/1999/xlink" x="0px" y="0px"
	 width="245.952px" height="101.047px" viewBox="0 0 245.952 101.047" enable-background="new 0 0 245.952 101.047"
	 xml:space="preserve">
<g>
	<g>
		<path fill="#FFFFFF" d="M24.856,82.633c-0.117,0.104-0.267,0.155-0.41,0.155c-0.208,0-0.357-0.104-0.604-0.384l-2.177-2.482
			h-0.312v1.963c0,0.318-0.02,0.436-0.098,0.592c-0.091,0.176-0.279,0.312-0.565,0.312c-0.286,0-0.475-0.136-0.565-0.312
			c-0.078-0.156-0.098-0.273-0.098-0.592v-4.889c0-0.318,0.02-0.436,0.098-0.591c0.091-0.176,0.28-0.312,0.565-0.312
			c0.286,0,0.475,0.137,0.565,0.312c0.078,0.155,0.098,0.272,0.098,0.591v1.769h0.312l1.989-2.288
			c0.247-0.279,0.396-0.384,0.604-0.384c0.143,0,0.292,0.052,0.41,0.156c0.156,0.137,0.208,0.272,0.208,0.429
			c0,0.183-0.065,0.338-0.306,0.599l-1.833,2.021l2.021,2.308c0.234,0.267,0.306,0.416,0.306,0.598
			C25.064,82.36,25.013,82.497,24.856,82.633z"/>
		<path fill="#FFFFFF" d="M26.572,84.543v-7.547c0-0.363,0.026-0.48,0.117-0.63c0.111-0.176,0.325-0.279,0.546-0.279
			c0.214,0,0.416,0.084,0.539,0.26c0.072,0.104,0.104,0.201,0.117,0.468c0.487-0.578,1.027-0.754,1.723-0.754
			c0.663,0,1.248,0.221,1.612,0.585c0.637,0.65,0.728,1.703,0.728,2.795c0,1.079-0.091,2.132-0.728,2.782
			c-0.364,0.364-0.937,0.592-1.6,0.592c-0.702,0-1.248-0.176-1.729-0.748v2.477c0,0.318-0.02,0.436-0.098,0.592
			c-0.091,0.176-0.28,0.312-0.565,0.312c-0.286,0-0.475-0.137-0.565-0.312C26.592,84.979,26.572,84.862,26.572,84.543z
			 M29.263,77.257c-1.203,0-1.372,1.007-1.372,2.177c0,1.171,0.169,2.185,1.372,2.185c1.196,0,1.365-1.014,1.365-2.185
			C30.628,78.264,30.459,77.257,29.263,77.257z"/>
		<path fill="#FFFFFF" d="M35.594,84.056c-0.13,0.37-0.273,0.618-0.481,0.819c-0.364,0.357-0.806,0.487-1.294,0.487
			c-0.228,0-0.475-0.032-0.611-0.155c-0.117-0.104-0.188-0.241-0.188-0.449c0-0.201,0.065-0.364,0.202-0.468
			c0.117-0.091,0.221-0.124,0.442-0.124c0.39,0,0.669-0.156,0.852-0.701l0.318-0.969l-1.846-5.369
			c-0.078-0.234-0.136-0.436-0.071-0.638c0.065-0.201,0.318-0.396,0.618-0.396c0.403,0,0.526,0.286,0.643,0.638l1.3,4.036
			l1.326-4.036c0.117-0.352,0.241-0.638,0.644-0.638c0.299,0,0.552,0.195,0.618,0.396c0.064,0.202,0.013,0.403-0.072,0.638
			L35.594,84.056z"/>
		<path fill="#FFFFFF" d="M42.094,77.341v4.544c0,0.318-0.02,0.436-0.098,0.592c-0.091,0.176-0.279,0.312-0.565,0.312
			s-0.475-0.136-0.565-0.312c-0.078-0.156-0.098-0.273-0.098-0.592v-4.544h-1.261c-0.286,0-0.41-0.02-0.54-0.091
			c-0.163-0.098-0.273-0.279-0.273-0.507s0.11-0.409,0.273-0.507c0.13-0.078,0.253-0.092,0.54-0.092h3.848
			c0.286,0,0.41,0.014,0.54,0.092c0.162,0.098,0.273,0.279,0.273,0.507s-0.111,0.409-0.273,0.507
			c-0.13,0.071-0.254,0.091-0.54,0.091H42.094z"/>
		<path fill="#FFFFFF" d="M46.956,82.159c-0.286,0.429-0.501,0.63-0.826,0.63c-0.208,0-0.364-0.071-0.475-0.182
			c-0.163-0.156-0.214-0.37-0.214-0.677v-4.934c0-0.318,0.02-0.436,0.098-0.591c0.091-0.176,0.279-0.312,0.565-0.312
			c0.286,0,0.475,0.137,0.565,0.312c0.078,0.155,0.098,0.272,0.098,0.591v3.562l2.567-3.835c0.286-0.436,0.5-0.637,0.825-0.637
			c0.202,0,0.364,0.071,0.475,0.182c0.156,0.163,0.208,0.37,0.208,0.676v4.94c0,0.318-0.02,0.436-0.098,0.592
			c-0.091,0.176-0.279,0.312-0.565,0.312s-0.475-0.136-0.565-0.312c-0.078-0.156-0.098-0.273-0.098-0.592v-3.568L46.956,82.159z"/>
		<path fill="#FFFFFF" d="M55.516,77.341v4.544c0,0.318-0.02,0.436-0.097,0.592c-0.091,0.176-0.28,0.312-0.566,0.312
			c-0.286,0-0.474-0.136-0.565-0.312c-0.078-0.156-0.097-0.273-0.097-0.592v-4.544h-1.262c-0.286,0-0.409-0.02-0.539-0.091
			c-0.163-0.098-0.273-0.279-0.273-0.507s0.111-0.409,0.273-0.507c0.13-0.078,0.253-0.092,0.539-0.092h3.849
			c0.286,0,0.409,0.014,0.539,0.092c0.163,0.098,0.273,0.279,0.273,0.507s-0.11,0.409-0.273,0.507
			c-0.13,0.071-0.253,0.091-0.539,0.091H55.516z"/>
		<path fill="#FFFFFF" d="M61.321,76.068c1.722,0,2.75,1.254,2.789,2.996c0.006,0.195-0.02,0.429-0.182,0.592
			c-0.169,0.169-0.39,0.169-0.585,0.169h-3.503c0,1.125,0.591,1.859,1.69,1.859c0.461,0,0.91-0.131,1.267-0.416
			c0.202-0.163,0.371-0.24,0.54-0.24c0.267,0,0.546,0.26,0.546,0.564c0,0.306-0.338,0.592-0.663,0.8
			c-0.416,0.273-1.014,0.423-1.723,0.423c-1.645,0-2.971-0.865-2.971-3.374C58.525,77.27,59.637,76.068,61.321,76.068z
			 M62.621,78.004c-0.221-0.494-0.676-0.832-1.3-0.832c-0.637,0-1.092,0.338-1.313,0.832c-0.13,0.286-0.156,0.494-0.169,0.897h2.964
			C62.777,78.499,62.751,78.291,62.621,78.004z"/>
		<path fill="#FFFFFF" d="M4.83,98.233c-0.117,0.104-0.267,0.156-0.41,0.156c-0.208,0-0.357-0.104-0.604-0.384l-2.177-2.483H1.326
			v1.963c0,0.319-0.02,0.436-0.098,0.592c-0.091,0.176-0.279,0.312-0.565,0.312c-0.286,0-0.475-0.137-0.565-0.312
			C0.02,97.92,0,97.804,0,97.485v-4.888c0-0.318,0.02-0.436,0.098-0.592c0.091-0.175,0.28-0.312,0.565-0.312
			c0.286,0,0.475,0.137,0.565,0.312c0.078,0.156,0.098,0.273,0.098,0.592v1.769h0.312l1.989-2.289
			c0.247-0.279,0.396-0.383,0.604-0.383c0.143,0,0.292,0.052,0.41,0.156c0.156,0.136,0.208,0.272,0.208,0.429
			c0,0.182-0.065,0.338-0.306,0.598l-1.833,2.021l2.021,2.308c0.234,0.267,0.306,0.416,0.306,0.599
			C5.038,97.96,4.986,98.096,4.83,98.233z"/>
		<path fill="#FFFFFF" d="M6.754,92.448c0.429-0.442,1.072-0.78,1.97-0.78c0.897,0,1.541,0.338,1.97,0.78
			c0.637,0.663,0.773,1.482,0.773,2.594s-0.137,1.931-0.773,2.594c-0.429,0.441-1.073,0.779-1.97,0.779
			c-0.897,0-1.541-0.338-1.97-0.779C6.11,96.972,5.98,96.153,5.98,95.042S6.11,93.111,6.754,92.448z M7.762,96.842
			c0.247,0.253,0.559,0.377,0.962,0.377c0.403,0,0.715-0.124,0.962-0.377c0.396-0.396,0.455-1.08,0.455-1.801
			c0-0.722-0.059-1.397-0.455-1.801c-0.247-0.254-0.559-0.377-0.962-0.377c-0.403,0-0.715,0.123-0.962,0.377
			c-0.396,0.403-0.455,1.079-0.455,1.801C7.307,95.762,7.365,96.446,7.762,96.842z"/>
		<path fill="#FFFFFF" d="M14.996,94.814c0,2.756-0.8,3.522-2.093,3.522c-0.208,0-0.338-0.025-0.461-0.091
			c-0.163-0.091-0.267-0.272-0.267-0.487c0-0.221,0.098-0.396,0.26-0.494c0.065-0.039,0.137-0.059,0.273-0.078
			c0.526-0.071,1.007-0.526,1.007-2.652v-1.976c0-0.201,0-0.436,0.188-0.624c0.189-0.188,0.422-0.188,0.624-0.188h2.886
			c0.201,0,0.436,0,0.624,0.188s0.188,0.423,0.188,0.624v4.927c0,0.319-0.02,0.436-0.098,0.592
			c-0.091,0.176-0.279,0.312-0.565,0.312s-0.475-0.137-0.565-0.312C16.92,97.92,16.9,97.804,16.9,97.485v-4.543h-1.904V94.814z"/>
		<path fill="#FFFFFF" d="M22.79,91.668c1.722,0,2.75,1.255,2.789,2.997c0.006,0.195-0.02,0.429-0.182,0.592
			c-0.169,0.168-0.39,0.168-0.585,0.168h-3.503c0,1.125,0.591,1.859,1.69,1.859c0.461,0,0.91-0.13,1.267-0.416
			c0.202-0.162,0.371-0.24,0.54-0.24c0.267,0,0.546,0.26,0.546,0.565s-0.338,0.592-0.663,0.8c-0.416,0.272-1.014,0.422-1.723,0.422
			c-1.645,0-2.971-0.864-2.971-3.373C19.994,92.87,21.106,91.668,22.79,91.668z M24.089,93.605c-0.221-0.494-0.676-0.832-1.3-0.832
			c-0.637,0-1.092,0.338-1.313,0.832c-0.13,0.286-0.156,0.493-0.169,0.896h2.964C24.246,94.098,24.22,93.891,24.089,93.605z"/>
		<path fill="#FFFFFF" d="M29.907,91.668c0.591,0,1.001,0.13,1.443,0.416c0.345,0.222,0.644,0.455,0.644,0.793
			c0,0.163-0.071,0.312-0.188,0.436c-0.098,0.098-0.253,0.169-0.409,0.169c-0.176,0-0.306-0.071-0.527-0.253
			c-0.332-0.267-0.598-0.364-0.962-0.364c-0.52,0-0.917,0.188-1.203,0.565s-0.396,0.845-0.396,1.612c0,0.76,0.11,1.234,0.396,1.605
			c0.286,0.383,0.683,0.572,1.203,0.572c0.364,0,0.63-0.111,0.962-0.371c0.221-0.176,0.351-0.254,0.527-0.254
			c0.156,0,0.312,0.078,0.409,0.176c0.117,0.124,0.188,0.267,0.188,0.436c0,0.332-0.312,0.579-0.644,0.793
			c-0.416,0.267-0.838,0.416-1.443,0.416c-1.495,0-2.925-0.903-2.925-3.373C26.981,92.571,28.412,91.668,29.907,91.668z"/>
		<path fill="#FFFFFF" d="M35.133,97.758c-0.286,0.43-0.5,0.631-0.826,0.631c-0.208,0-0.364-0.072-0.474-0.182
			c-0.163-0.156-0.215-0.371-0.215-0.677v-4.934c0-0.318,0.02-0.436,0.098-0.592c0.091-0.175,0.279-0.312,0.565-0.312
			s0.475,0.137,0.565,0.312c0.078,0.156,0.098,0.273,0.098,0.592v3.562l2.567-3.835c0.286-0.436,0.501-0.638,0.826-0.638
			c0.202,0,0.364,0.071,0.475,0.183c0.156,0.162,0.208,0.37,0.208,0.676v4.939c0,0.319-0.02,0.436-0.098,0.592
			c-0.091,0.176-0.28,0.312-0.565,0.312c-0.286,0-0.475-0.137-0.565-0.312c-0.078-0.156-0.098-0.272-0.098-0.592v-3.568
			L35.133,97.758z"/>
		<path fill="#FFFFFF" d="M45.956,98.233c-0.117,0.104-0.267,0.156-0.41,0.156c-0.208,0-0.357-0.104-0.604-0.384l-2.178-2.483
			h-0.312v1.963c0,0.319-0.02,0.436-0.098,0.592c-0.091,0.176-0.28,0.312-0.565,0.312c-0.286,0-0.475-0.137-0.565-0.312
			c-0.078-0.156-0.098-0.272-0.098-0.592v-4.888c0-0.318,0.02-0.436,0.098-0.592c0.091-0.175,0.279-0.312,0.565-0.312
			c0.286,0,0.475,0.137,0.565,0.312c0.078,0.156,0.098,0.273,0.098,0.592v1.769h0.312l1.989-2.289
			c0.247-0.279,0.396-0.383,0.604-0.383c0.143,0,0.292,0.052,0.41,0.156c0.156,0.136,0.208,0.272,0.208,0.429
			c0,0.182-0.065,0.338-0.306,0.598l-1.833,2.021l2.021,2.308c0.234,0.267,0.306,0.416,0.306,0.599
			C46.164,97.96,46.111,98.096,45.956,98.233z"/>
		<path fill="#FFFFFF" d="M47.879,92.448c0.429-0.442,1.073-0.78,1.97-0.78s1.541,0.338,1.969,0.78
			c0.637,0.663,0.773,1.482,0.773,2.594s-0.136,1.931-0.773,2.594c-0.429,0.441-1.072,0.779-1.969,0.779s-1.541-0.338-1.97-0.779
			c-0.644-0.663-0.773-1.482-0.773-2.594S47.236,93.111,47.879,92.448z M48.887,96.842c0.247,0.253,0.56,0.377,0.962,0.377
			s0.715-0.124,0.962-0.377c0.396-0.396,0.455-1.08,0.455-1.801c0-0.722-0.059-1.397-0.455-1.801
			c-0.247-0.254-0.559-0.377-0.962-0.377s-0.715,0.123-0.962,0.377c-0.396,0.403-0.455,1.079-0.455,1.801
			C48.432,95.762,48.49,96.446,48.887,96.842z"/>
		<path fill="#FFFFFF" d="M58.324,98.336c-0.201,0-0.435,0-0.624-0.188c-0.188-0.189-0.188-0.423-0.188-0.625v-4.966
			c0-0.201,0-0.436,0.188-0.624c0.189-0.188,0.423-0.188,0.624-0.188h2.373c1.209,0,2.002,0.688,2.002,1.769
			c0,0.662-0.325,1.131-0.936,1.423c0.657,0.293,1.04,0.787,1.04,1.541c0,1.138-0.773,1.858-2.008,1.858H58.324z M58.838,92.76
			v1.689h1.561c0.637,0,0.975-0.299,0.975-0.845c0-0.54-0.351-0.845-0.975-0.845H58.838z M58.838,97.323h1.638
			c0.624,0,1.001-0.363,1.001-0.936s-0.377-0.91-1.001-0.91h-1.638V97.323z"/>
		<path fill="#FFFFFF" d="M69.811,98.077c-0.091,0.176-0.28,0.312-0.566,0.312c-0.286,0-0.474-0.137-0.565-0.312
			c-0.078-0.156-0.098-0.272-0.098-0.592v-1.956h-2.639v1.956c0,0.319-0.02,0.436-0.098,0.592c-0.091,0.176-0.279,0.312-0.565,0.312
			c-0.286,0-0.475-0.137-0.565-0.312c-0.078-0.156-0.098-0.272-0.098-0.592v-4.888c0-0.318,0.02-0.436,0.098-0.592
			c0.091-0.175,0.28-0.312,0.565-0.312c0.286,0,0.475,0.137,0.565,0.312c0.078,0.156,0.098,0.273,0.098,0.592v1.774h2.639v-1.774
			c0-0.318,0.02-0.436,0.098-0.592c0.091-0.175,0.28-0.312,0.565-0.312c0.286,0,0.475,0.137,0.566,0.312
			c0.078,0.156,0.097,0.273,0.097,0.592v4.888C69.908,97.804,69.888,97.92,69.811,98.077z"/>
		<path fill="#FFFFFF" d="M73.528,97.758c-0.286,0.43-0.5,0.631-0.826,0.631c-0.208,0-0.364-0.072-0.475-0.182
			c-0.162-0.156-0.214-0.371-0.214-0.677v-4.934c0-0.318,0.02-0.436,0.098-0.592c0.091-0.175,0.279-0.312,0.565-0.312
			s0.475,0.137,0.565,0.312c0.078,0.156,0.098,0.273,0.098,0.592v3.562l2.568-3.835c0.286-0.436,0.5-0.638,0.825-0.638
			c0.201,0,0.364,0.071,0.475,0.183c0.156,0.162,0.208,0.37,0.208,0.676v4.939c0,0.319-0.02,0.436-0.098,0.592
			c-0.091,0.176-0.279,0.312-0.565,0.312s-0.475-0.137-0.565-0.312c-0.078-0.156-0.098-0.272-0.098-0.592v-3.568L73.528,97.758z"/>
		<path fill="#FFFFFF" d="M81.23,95.47c-0.247,0-0.345-0.013-0.462-0.078c-0.149-0.084-0.233-0.233-0.233-0.429
			s0.084-0.345,0.233-0.43c0.117-0.064,0.215-0.077,0.462-0.077h0.37c0.637,0,1.053-0.3,1.053-0.852
			c0-0.565-0.429-0.852-1.235-0.852c-0.494,0-0.773,0.097-1.15,0.325c-0.188,0.117-0.312,0.175-0.488,0.175
			c-0.13,0-0.253-0.058-0.344-0.155c-0.098-0.098-0.156-0.234-0.156-0.391c0-0.24,0.13-0.416,0.396-0.585
			c0.494-0.318,1.014-0.455,1.82-0.455c1.469,0,2.463,0.663,2.463,1.781c0,0.644-0.371,1.196-0.975,1.443
			c0.644,0.24,1.079,0.806,1.079,1.54c0,1.203-1.06,1.982-2.581,1.982c-0.897,0-1.423-0.156-1.969-0.514
			c-0.267-0.175-0.436-0.37-0.436-0.63c0-0.156,0.064-0.293,0.169-0.396c0.104-0.11,0.24-0.169,0.377-0.169
			c0.175,0,0.318,0.059,0.5,0.182c0.423,0.286,0.761,0.396,1.281,0.396c0.838,0,1.352-0.324,1.352-0.93
			c0-0.592-0.448-0.884-1.144-0.884H81.23z"/>
	</g>
</g>
<path fill="none" stroke="#FFFFFF" stroke-width="2.1323" stroke-miterlimit="10" d="M53.88,34.764
	c0,9.468-0.854,21.38-11.995,21.38c-11.142,0-11.995-11.912-11.995-21.38V32.1c0-9.468,5.371-14.127,11.995-14.127l0,0
	c6.624,0,11.995,4.659,11.995,14.127V34.764z"/>
<path fill="none" stroke="#FFFFFF" stroke-width="2.1323" stroke-linejoin="round" stroke-miterlimit="10" d="M54.129,31.977h-6.344
	c0,3.41-2.764,6.173-6.173,6.173c-3.41,0-6.173-2.763-6.173-6.173h-5.798"/>
<path fill="#FFD400" d="M44.169,32.171c0,1.261-1.022,2.283-2.283,2.283l0,0c-1.261,0-2.283-1.022-2.283-2.283v-5.598
	c0-1.261,1.022-2.283,2.283-2.283l0,0c1.261,0,2.283,1.022,2.283,2.283V32.171z"/>
<path fill="none" stroke="#FFFFFF" stroke-width="2.1323" stroke-miterlimit="10" d="M14.672,0c0,5.254,1.911,8.449,10.509,8.449
	c6.21,0,2.15,0,6.21,0c4.061,0,10.495-0.32,10.495,9.842"/>
<polyline fill="none" stroke="#FFD400" stroke-width="2.1323" stroke-linecap="round" stroke-miterlimit="10" points="45.28,43.615 
	41.886,47.009 38.491,43.614 "/>
<circle fill="none" stroke="#FFFFFF" stroke-width="2.1323" stroke-miterlimit="10" cx="202.802" cy="38.149" r="14.5"/>
<polygon fill="#FFD400" points="198.511,31.979 209.199,38.149 198.511,44.321 "/>
<g>
	<g>
		<path fill="#FFFFFF" d="M165.638,82.159c-0.287,0.429-0.501,0.63-0.826,0.63c-0.208,0-0.363-0.071-0.475-0.182
			c-0.162-0.156-0.215-0.37-0.215-0.677v-4.934c0-0.318,0.02-0.436,0.098-0.591c0.092-0.176,0.279-0.312,0.566-0.312
			c0.285,0,0.475,0.137,0.564,0.312c0.078,0.155,0.098,0.272,0.098,0.591v3.562l2.568-3.835c0.285-0.436,0.5-0.637,0.825-0.637
			c0.201,0,0.364,0.071,0.475,0.182c0.156,0.163,0.208,0.37,0.208,0.676v4.94c0,0.318-0.02,0.436-0.098,0.592
			c-0.091,0.176-0.279,0.312-0.565,0.312s-0.475-0.136-0.565-0.312c-0.078-0.156-0.098-0.273-0.098-0.592v-3.568L165.638,82.159z"/>
		<path fill="#FFFFFF" d="M173.619,79.213c0,2.756-0.8,3.523-2.093,3.523c-0.208,0-0.338-0.025-0.462-0.091
			c-0.162-0.091-0.267-0.273-0.267-0.487c0-0.222,0.098-0.396,0.26-0.494c0.065-0.039,0.137-0.059,0.273-0.078
			c0.526-0.072,1.008-0.526,1.008-2.652v-1.977c0-0.201,0-0.436,0.188-0.623c0.188-0.189,0.423-0.189,0.624-0.189h2.886
			c0.202,0,0.436,0,0.624,0.189c0.188,0.188,0.188,0.422,0.188,0.623v4.928c0,0.318-0.02,0.436-0.097,0.592
			c-0.092,0.176-0.28,0.312-0.566,0.312c-0.285,0-0.475-0.136-0.565-0.312c-0.077-0.156-0.097-0.273-0.097-0.592v-4.544h-1.905
			V79.213z"/>
		<path fill="#FFFFFF" d="M180.47,82.159c-0.285,0.429-0.5,0.63-0.825,0.63c-0.208,0-0.364-0.071-0.475-0.182
			c-0.162-0.156-0.214-0.37-0.214-0.677v-4.934c0-0.318,0.02-0.436,0.098-0.591c0.09-0.176,0.279-0.312,0.564-0.312
			c0.287,0,0.475,0.137,0.566,0.312c0.078,0.155,0.098,0.272,0.098,0.591v3.562l2.567-3.835c0.286-0.436,0.5-0.637,0.825-0.637
			c0.201,0,0.364,0.071,0.475,0.182c0.156,0.163,0.208,0.37,0.208,0.676v4.94c0,0.318-0.02,0.436-0.098,0.592
			c-0.091,0.176-0.279,0.312-0.565,0.312s-0.475-0.136-0.565-0.312c-0.078-0.156-0.098-0.273-0.098-0.592v-3.568L180.47,82.159z"/>
		<path fill="#FFFFFF" d="M190.396,82.737c-0.201,0-0.436,0-0.624-0.188s-0.188-0.423-0.188-0.624v-4.967
			c0-0.201,0-0.436,0.188-0.623c0.188-0.189,0.423-0.189,0.624-0.189h2.373c1.209,0,2.002,0.689,2.002,1.769
			c0,0.663-0.325,1.131-0.937,1.424c0.657,0.292,1.04,0.786,1.04,1.54c0,1.138-0.773,1.859-2.008,1.859H190.396z M190.909,77.16
			v1.69h1.561c0.637,0,0.975-0.299,0.975-0.846c0-0.539-0.352-0.845-0.975-0.845H190.909z M190.909,81.723h1.638
			c0.624,0,1.001-0.364,1.001-0.937c0-0.571-0.377-0.91-1.001-0.91h-1.638V81.723z"/>
		<path fill="#FFFFFF" d="M201.518,82.633c-0.117,0.104-0.267,0.155-0.41,0.155c-0.208,0-0.357-0.104-0.604-0.384l-2.178-2.482
			h-0.312v1.963c0,0.318-0.02,0.436-0.098,0.592c-0.091,0.176-0.279,0.312-0.565,0.312s-0.475-0.136-0.565-0.312
			c-0.078-0.156-0.098-0.273-0.098-0.592v-4.889c0-0.318,0.02-0.436,0.098-0.591c0.091-0.176,0.279-0.312,0.565-0.312
			s0.475,0.137,0.565,0.312c0.078,0.155,0.098,0.272,0.098,0.591v1.769h0.312l1.989-2.288c0.247-0.279,0.396-0.384,0.604-0.384
			c0.144,0,0.293,0.052,0.41,0.156c0.156,0.137,0.207,0.272,0.207,0.429c0,0.183-0.064,0.338-0.305,0.599l-1.833,2.021l2.021,2.308
			c0.233,0.267,0.306,0.416,0.306,0.598C201.726,82.36,201.673,82.497,201.518,82.633z"/>
		<path fill="#FFFFFF" d="M205.222,79.213c0,2.756-0.799,3.523-2.093,3.523c-0.208,0-0.338-0.025-0.462-0.091
			c-0.162-0.091-0.266-0.273-0.266-0.487c0-0.222,0.098-0.396,0.26-0.494c0.064-0.039,0.137-0.059,0.273-0.078
			c0.525-0.072,1.007-0.526,1.007-2.652v-1.977c0-0.201,0-0.436,0.188-0.623c0.188-0.189,0.423-0.189,0.624-0.189h2.886
			c0.202,0,0.436,0,0.625,0.189c0.188,0.188,0.188,0.422,0.188,0.623v4.928c0,0.318-0.02,0.436-0.097,0.592
			c-0.091,0.176-0.28,0.312-0.565,0.312c-0.286,0-0.475-0.136-0.566-0.312c-0.078-0.156-0.097-0.273-0.097-0.592v-4.544h-1.905
			V79.213z"/>
		<path fill="#FFFFFF" d="M211.787,82.477c-0.091,0.176-0.28,0.312-0.565,0.312c-0.286,0-0.475-0.136-0.565-0.312
			c-0.078-0.156-0.098-0.273-0.098-0.592v-4.889c0-0.318,0.02-0.436,0.098-0.591c0.091-0.176,0.279-0.312,0.565-0.312
			c0.285,0,0.475,0.137,0.565,0.312c0.078,0.155,0.098,0.272,0.098,0.591v1.795h1.183c0.053-0.793,0.24-1.418,0.754-1.943
			c0.43-0.442,1.072-0.78,1.97-0.78s1.54,0.338,1.97,0.78c0.637,0.662,0.773,1.481,0.773,2.593c0,1.112-0.137,1.931-0.773,2.594
			c-0.43,0.442-1.072,0.78-1.97,0.78s-1.54-0.338-1.97-0.78c-0.546-0.559-0.721-1.229-0.767-2.1h-1.17v1.95
			C211.885,82.204,211.865,82.321,211.787,82.477z M214.829,81.242c0.247,0.254,0.559,0.377,0.962,0.377s0.715-0.123,0.962-0.377
			c0.396-0.396,0.455-1.079,0.455-1.801s-0.059-1.397-0.455-1.8c-0.247-0.254-0.559-0.377-0.962-0.377s-0.715,0.123-0.962,0.377
			c-0.396,0.402-0.455,1.078-0.455,1.8S214.433,80.845,214.829,81.242z"/>
		<path fill="#FFFFFF" d="M223.851,76.997c0-0.318,0.02-0.436,0.098-0.591c0.092-0.176,0.279-0.312,0.565-0.312
			s0.475,0.137,0.565,0.312c0.078,0.155,0.098,0.272,0.098,0.591v4.889c0,0.318-0.02,0.436-0.098,0.592
			c-0.091,0.176-0.279,0.312-0.565,0.312s-0.474-0.136-0.565-0.312c-0.078-0.156-0.098-0.273-0.098-0.592v-1.586
			c-0.455,0.091-1.17,0.215-1.93,0.215c-1.1,0-1.893-0.618-1.893-1.834v-1.684c0-0.318,0.02-0.436,0.098-0.591
			c0.092-0.176,0.279-0.312,0.566-0.312c0.285,0,0.475,0.137,0.564,0.312c0.078,0.155,0.098,0.272,0.098,0.591v1.346
			c0,0.709,0.391,0.988,1.015,0.988c0.546,0,1.104-0.098,1.481-0.169V76.997z"/>
		<path fill="#FFFFFF" d="M228.798,82.159c-0.287,0.429-0.501,0.63-0.826,0.63c-0.208,0-0.363-0.071-0.475-0.182
			c-0.162-0.156-0.215-0.37-0.215-0.677v-4.934c0-0.318,0.02-0.436,0.098-0.591c0.092-0.176,0.279-0.312,0.566-0.312
			c0.285,0,0.475,0.137,0.564,0.312c0.078,0.155,0.098,0.272,0.098,0.591v3.562l2.568-3.835c0.285-0.436,0.5-0.637,0.825-0.637
			c0.201,0,0.364,0.071,0.475,0.182c0.156,0.163,0.208,0.37,0.208,0.676v4.94c0,0.318-0.02,0.436-0.098,0.592
			c-0.091,0.176-0.279,0.312-0.565,0.312s-0.475-0.136-0.565-0.312c-0.078-0.156-0.098-0.273-0.098-0.592v-3.568L228.798,82.159z"/>
		<path fill="#FFFFFF" d="M237.358,77.341v4.544c0,0.318-0.02,0.436-0.098,0.592c-0.092,0.176-0.279,0.312-0.566,0.312
			c-0.285,0-0.474-0.136-0.564-0.312c-0.078-0.156-0.098-0.273-0.098-0.592v-4.544h-1.262c-0.285,0-0.409-0.02-0.539-0.091
			c-0.162-0.098-0.273-0.279-0.273-0.507s0.111-0.409,0.273-0.507c0.13-0.078,0.254-0.092,0.539-0.092h3.849
			c0.286,0,0.409,0.014,0.539,0.092c0.163,0.098,0.273,0.279,0.273,0.507s-0.11,0.409-0.273,0.507
			c-0.13,0.071-0.253,0.091-0.539,0.091H237.358z"/>
		<path fill="#FFFFFF" d="M243.162,76.068c1.723,0,2.75,1.254,2.789,2.996c0.006,0.195-0.02,0.429-0.183,0.592
			c-0.169,0.169-0.39,0.169-0.585,0.169h-3.503c0,1.125,0.591,1.859,1.689,1.859c0.462,0,0.91-0.131,1.268-0.416
			c0.201-0.163,0.371-0.24,0.539-0.24c0.268,0,0.547,0.26,0.547,0.564c0,0.306-0.338,0.592-0.663,0.8
			c-0.416,0.273-1.015,0.423-1.723,0.423c-1.645,0-2.971-0.865-2.971-3.374C240.367,77.27,241.479,76.068,243.162,76.068z
			 M244.462,78.004c-0.221-0.494-0.676-0.832-1.3-0.832c-0.637,0-1.092,0.338-1.313,0.832c-0.129,0.286-0.155,0.494-0.168,0.897
			h2.964C244.618,78.499,244.593,78.291,244.462,78.004z"/>
		<path fill="#FFFFFF" d="M166.008,94.489h1.749V94.08c0-0.864-0.41-1.287-1.379-1.287c-0.526,0-0.877,0.149-1.261,0.441
			c-0.169,0.13-0.357,0.176-0.481,0.176c-0.136,0-0.285-0.059-0.383-0.176c-0.11-0.123-0.156-0.233-0.156-0.409
			c0-0.299,0.279-0.565,0.617-0.761c0.462-0.267,0.995-0.396,1.678-0.396c1.768,0,2.697,0.773,2.697,2.269v3.549
			c0,0.325-0.013,0.449-0.098,0.599c-0.098,0.182-0.312,0.306-0.565,0.306c-0.214,0-0.377-0.078-0.481-0.188
			c-0.077-0.091-0.136-0.195-0.148-0.475c-0.521,0.507-0.963,0.683-1.769,0.683c-0.825,0-1.378-0.188-1.774-0.599
			c-0.338-0.345-0.526-0.851-0.526-1.41C163.727,95.295,164.513,94.489,166.008,94.489z M166.262,97.31
			c0.474,0,0.864-0.052,1.202-0.377c0.208-0.195,0.293-0.494,0.293-0.981v-0.521h-1.561c-0.78,0-1.177,0.338-1.177,0.949
			C165.02,96.978,165.423,97.31,166.262,97.31z"/>
		<path fill="#FFFFFF" d="M171.942,98.336c-0.201,0-0.436,0-0.624-0.188c-0.188-0.189-0.188-0.423-0.188-0.625v-4.966
			c0-0.201,0-0.436,0.188-0.624s0.423-0.188,0.624-0.188h2.373c1.209,0,2.002,0.688,2.002,1.769c0,0.662-0.325,1.131-0.937,1.423
			c0.656,0.293,1.04,0.787,1.04,1.541c0,1.138-0.773,1.858-2.009,1.858H171.942z M172.456,92.76v1.689h1.56
			c0.638,0,0.976-0.299,0.976-0.845c0-0.54-0.352-0.845-0.976-0.845H172.456z M172.456,97.323h1.638
			c0.624,0,1.001-0.363,1.001-0.936s-0.377-0.91-1.001-0.91h-1.638V97.323z"/>
		<path fill="#FFFFFF" d="M180.737,92.942v4.543c0,0.319-0.02,0.436-0.098,0.592c-0.092,0.176-0.279,0.312-0.566,0.312
			c-0.285,0-0.474-0.137-0.564-0.312c-0.078-0.156-0.098-0.272-0.098-0.592v-4.543h-1.262c-0.285,0-0.409-0.02-0.539-0.092
			c-0.162-0.097-0.273-0.279-0.273-0.506c0-0.229,0.111-0.41,0.273-0.508c0.13-0.078,0.254-0.091,0.539-0.091h3.849
			c0.286,0,0.409,0.013,0.539,0.091c0.163,0.098,0.273,0.279,0.273,0.508c0,0.227-0.11,0.409-0.273,0.506
			c-0.13,0.072-0.253,0.092-0.539,0.092H180.737z"/>
		<path fill="#FFFFFF" d="M184.513,92.448c0.43-0.442,1.073-0.78,1.971-0.78c0.896,0,1.54,0.338,1.969,0.78
			c0.637,0.663,0.773,1.482,0.773,2.594s-0.137,1.931-0.773,2.594c-0.429,0.441-1.072,0.779-1.969,0.779
			c-0.897,0-1.541-0.338-1.971-0.779c-0.643-0.663-0.773-1.482-0.773-2.594S183.87,93.111,184.513,92.448z M185.521,96.842
			c0.247,0.253,0.56,0.377,0.963,0.377c0.402,0,0.715-0.124,0.961-0.377c0.396-0.396,0.455-1.08,0.455-1.801
			c0-0.722-0.059-1.397-0.455-1.801c-0.246-0.254-0.559-0.377-0.961-0.377c-0.403,0-0.716,0.123-0.963,0.377
			c-0.396,0.403-0.455,1.079-0.455,1.801C185.065,95.762,185.124,96.446,185.521,96.842z"/>
		<path fill="#FFFFFF" d="M192.255,98.077c-0.092,0.176-0.279,0.312-0.566,0.312c-0.285,0-0.475-0.137-0.564-0.312
			c-0.078-0.156-0.098-0.272-0.098-0.592v-4.927c0-0.201,0-0.436,0.188-0.624c0.189-0.188,0.423-0.188,0.625-0.188h3.659
			c0.202,0,0.436,0,0.624,0.188s0.188,0.423,0.188,0.624v4.927c0,0.319-0.02,0.436-0.098,0.592
			c-0.091,0.176-0.279,0.312-0.565,0.312s-0.475-0.137-0.565-0.312c-0.078-0.156-0.098-0.272-0.098-0.592v-4.543h-2.632v4.543
			C192.353,97.804,192.333,97.92,192.255,98.077z"/>
		<path fill="#FFFFFF" d="M198.416,100.144v-7.547c0-0.364,0.026-0.481,0.117-0.63c0.11-0.176,0.325-0.28,0.546-0.28
			c0.215,0,0.416,0.085,0.54,0.261c0.071,0.104,0.104,0.201,0.116,0.468c0.488-0.579,1.027-0.755,1.723-0.755
			c0.664,0,1.248,0.222,1.612,0.586c0.638,0.649,0.729,1.703,0.729,2.795c0,1.079-0.091,2.132-0.729,2.782
			c-0.364,0.364-0.936,0.591-1.599,0.591c-0.702,0-1.248-0.175-1.729-0.747v2.477c0,0.318-0.02,0.436-0.098,0.592
			c-0.091,0.175-0.279,0.312-0.565,0.312c-0.285,0-0.475-0.137-0.565-0.312C198.436,100.58,198.416,100.462,198.416,100.144z
			 M201.107,92.857c-1.202,0-1.372,1.008-1.372,2.178s0.17,2.185,1.372,2.185c1.196,0,1.365-1.015,1.365-2.185
			S202.304,92.857,201.107,92.857z"/>
		<path fill="#FFFFFF" d="M206.066,92.448c0.429-0.442,1.073-0.78,1.97-0.78c0.897,0,1.541,0.338,1.97,0.78
			c0.637,0.663,0.773,1.482,0.773,2.594s-0.137,1.931-0.773,2.594c-0.429,0.441-1.072,0.779-1.97,0.779
			c-0.896,0-1.541-0.338-1.97-0.779c-0.644-0.663-0.773-1.482-0.773-2.594S205.423,93.111,206.066,92.448z M207.074,96.842
			c0.247,0.253,0.56,0.377,0.962,0.377c0.403,0,0.715-0.124,0.962-0.377c0.396-0.396,0.455-1.08,0.455-1.801
			c0-0.722-0.059-1.397-0.455-1.801c-0.247-0.254-0.559-0.377-0.962-0.377c-0.402,0-0.715,0.123-0.962,0.377
			c-0.396,0.403-0.455,1.079-0.455,1.801C206.619,95.762,206.678,96.446,207.074,96.842z"/>
		<path fill="#FFFFFF" d="M215.167,91.668c0.592,0,1.001,0.13,1.443,0.416c0.344,0.222,0.643,0.455,0.643,0.793
			c0,0.163-0.071,0.312-0.188,0.436c-0.098,0.098-0.254,0.169-0.41,0.169c-0.176,0-0.306-0.071-0.526-0.253
			c-0.331-0.267-0.599-0.364-0.962-0.364c-0.521,0-0.917,0.188-1.203,0.565c-0.285,0.377-0.396,0.845-0.396,1.612
			c0,0.76,0.111,1.234,0.396,1.605c0.286,0.383,0.683,0.572,1.203,0.572c0.363,0,0.631-0.111,0.962-0.371
			c0.221-0.176,0.351-0.254,0.526-0.254c0.156,0,0.312,0.078,0.41,0.176c0.116,0.124,0.188,0.267,0.188,0.436
			c0,0.332-0.312,0.579-0.643,0.793c-0.416,0.267-0.839,0.416-1.443,0.416c-1.495,0-2.926-0.903-2.926-3.373
			C212.241,92.571,213.672,91.668,215.167,91.668z"/>
		<path fill="#FFFFFF" d="M221.433,96.537l-1.229-2.295v3.243c0,0.319-0.02,0.436-0.098,0.592c-0.091,0.176-0.279,0.312-0.565,0.312
			s-0.475-0.137-0.565-0.312c-0.078-0.156-0.098-0.272-0.098-0.592v-4.939c0-0.306,0.059-0.514,0.215-0.67
			c0.117-0.11,0.266-0.182,0.468-0.182c0.357,0,0.592,0.24,0.852,0.702l1.755,3.165l1.755-3.165
			c0.261-0.462,0.494-0.702,0.852-0.702c0.202,0,0.352,0.071,0.468,0.182c0.156,0.156,0.215,0.364,0.215,0.67v4.939
			c0,0.319-0.02,0.436-0.098,0.592c-0.091,0.176-0.279,0.312-0.565,0.312s-0.475-0.137-0.565-0.312
			c-0.078-0.156-0.098-0.272-0.098-0.592v-3.243l-1.229,2.295c-0.208,0.39-0.396,0.585-0.734,0.585S221.641,96.926,221.433,96.537z"
			/>
		<path fill="#FFFFFF" d="M228.03,92.448c0.429-0.442,1.072-0.78,1.97-0.78c0.896,0,1.54,0.338,1.97,0.78
			c0.637,0.663,0.773,1.482,0.773,2.594s-0.137,1.931-0.773,2.594c-0.43,0.441-1.073,0.779-1.97,0.779
			c-0.897,0-1.541-0.338-1.97-0.779c-0.644-0.663-0.773-1.482-0.773-2.594S227.387,93.111,228.03,92.448z M229.038,96.842
			c0.246,0.253,0.559,0.377,0.962,0.377c0.402,0,0.715-0.124,0.962-0.377c0.396-0.396,0.455-1.08,0.455-1.801
			c0-0.722-0.059-1.397-0.455-1.801c-0.247-0.254-0.56-0.377-0.962-0.377c-0.403,0-0.716,0.123-0.962,0.377
			c-0.396,0.403-0.455,1.079-0.455,1.801C228.583,95.762,228.642,96.446,229.038,96.842z"/>
		<path fill="#FFFFFF" d="M237.046,92.942v4.543c0,0.319-0.02,0.436-0.098,0.592c-0.091,0.176-0.279,0.312-0.565,0.312
			s-0.475-0.137-0.565-0.312c-0.078-0.156-0.098-0.272-0.098-0.592v-4.543h-1.262c-0.285,0-0.409-0.02-0.539-0.092
			c-0.162-0.097-0.273-0.279-0.273-0.506c0-0.229,0.111-0.41,0.273-0.508c0.13-0.078,0.254-0.091,0.539-0.091h3.849
			c0.286,0,0.409,0.013,0.54,0.091c0.162,0.098,0.272,0.279,0.272,0.508c0,0.227-0.11,0.409-0.272,0.506
			c-0.131,0.072-0.254,0.092-0.54,0.092H237.046z"/>
		<path fill="#FFFFFF" d="M240.393,100.144v-7.547c0-0.364,0.026-0.481,0.117-0.63c0.11-0.176,0.325-0.28,0.546-0.28
			c0.215,0,0.416,0.085,0.54,0.261c0.071,0.104,0.104,0.201,0.116,0.468c0.488-0.579,1.027-0.755,1.723-0.755
			c0.664,0,1.248,0.222,1.612,0.586c0.638,0.649,0.729,1.703,0.729,2.795c0,1.079-0.091,2.132-0.729,2.782
			c-0.364,0.364-0.936,0.591-1.599,0.591c-0.702,0-1.248-0.175-1.729-0.747v2.477c0,0.318-0.02,0.436-0.098,0.592
			c-0.091,0.175-0.279,0.312-0.565,0.312c-0.285,0-0.475-0.137-0.565-0.312C240.412,100.58,240.393,100.462,240.393,100.144z
			 M243.084,92.857c-1.202,0-1.372,1.008-1.372,2.178s0.17,2.185,1.372,2.185c1.196,0,1.365-1.015,1.365-2.185
			S244.28,92.857,243.084,92.857z"/>
	</g>
</g>
</svg>
