<?xml version="1.0" encoding="utf-8"?>
<!-- Generator: Adobe Illustrator 17.0.0, SVG Export Plug-In . SVG Version: 6.00 Build 0)  -->
<!DOCTYPE svg PUBLIC "-//W3C//DTD SVG 1.1//EN" "http://www.w3.org/Graphics/SVG/1.1/DTD/svg11.dtd">
<svg version="1.1" id="Слой_1" xmlns="http://www.w3.org/2000/svg" xmlns:xlink="http://www.w3.org/1999/xlink" x="0px" y="0px"
	 width="3000px" height="2000px" viewBox="0 0 3000 2000" enable-background="new 0 0 3000 2000" xml:space="preserve">
<rect x="-7.386" y="-7" width="3010.212" height="1889.214"/>
<g>
	<rect x="-7.427" y="1744.495" fill="#66DF99" width="3010.259" height="137.793"/>
	<rect x="-7.427" y="1717.66" fill="#33CC99" width="3010.259" height="51.88"/>
	<rect x="-7.427" y="1644.82" fill="#339999" width="3010.259" height="75.415"/>
	<rect x="-7.427" y="1557.776" fill="#336699" width="3010.259" height="97.519"/>
</g>
<polygon fill="#99EE99" points="1075.312,1890.005 1256.388,1576.375 1437.462,1890.005 "/>
<rect x="1254.539" y="-61" fill="#339999" width="3.699" height="1643.099"/>
<polygon fill="#339999" points="1232.594,1617.588 1256.388,1576.375 1280.183,1617.588 "/>
<polygon fill="#99EE99" points="1584.744,1890.005 1765.819,1576.375 1946.894,1890.005 "/>
<rect x="1763.97" y="-61" fill="#339999" width="3.699" height="1643.099"/>
<polygon fill="#339999" points="1742.025,1617.588 1765.82,1576.375 1789.614,1617.588 "/>
<g>
	<rect x="1569.598" y="1696.432" fill="#FFFFFF" width="10.253" height="185.184"/>
	<rect x="1460.295" y="1696.432" fill="#FFFFFF" width="10.253" height="185.184"/>
	<g>
		<rect x="1468.167" y="1710.464" fill="none" stroke="#FFFFFF" stroke-miterlimit="10" width="102.4" height="54.048"/>
		<line fill="none" stroke="#FFFFFF" stroke-miterlimit="10" x1="1477.203" y1="1710.464" x2="1477.203" y2="1764.512"/>
		<line fill="none" stroke="#FFFFFF" stroke-miterlimit="10" x1="1485.736" y1="1710.464" x2="1485.736" y2="1764.512"/>
		<line fill="none" stroke="#FFFFFF" stroke-miterlimit="10" x1="1494.27" y1="1710.464" x2="1494.27" y2="1764.512"/>
		<line fill="none" stroke="#FFFFFF" stroke-miterlimit="10" x1="1502.803" y1="1710.464" x2="1502.803" y2="1764.512"/>
		<line fill="none" stroke="#FFFFFF" stroke-miterlimit="10" x1="1511.336" y1="1710.464" x2="1511.336" y2="1764.512"/>
		<line fill="none" stroke="#FFFFFF" stroke-miterlimit="10" x1="1519.87" y1="1710.464" x2="1519.87" y2="1764.512"/>
		<line fill="none" stroke="#FFFFFF" stroke-miterlimit="10" x1="1528.404" y1="1710.464" x2="1528.404" y2="1764.512"/>
		<line fill="none" stroke="#FFFFFF" stroke-miterlimit="10" x1="1536.938" y1="1710.464" x2="1536.938" y2="1764.512"/>
		<line fill="none" stroke="#FFFFFF" stroke-miterlimit="10" x1="1545.472" y1="1710.464" x2="1545.472" y2="1764.512"/>
		<line fill="none" stroke="#FFFFFF" stroke-miterlimit="10" x1="1554.005" y1="1710.464" x2="1554.005" y2="1764.512"/>
		<g>
			<line fill="none" stroke="#FFFFFF" stroke-miterlimit="10" x1="1571.527" y1="1756.138" x2="1468.17" y2="1756.138"/>
			<line fill="none" stroke="#FFFFFF" stroke-miterlimit="10" x1="1571.527" y1="1746.775" x2="1468.17" y2="1746.775"/>
			<line fill="none" stroke="#FFFFFF" stroke-miterlimit="10" x1="1571.527" y1="1737.414" x2="1468.17" y2="1737.414"/>
			<line fill="none" stroke="#FFFFFF" stroke-miterlimit="10" x1="1571.527" y1="1728.053" x2="1468.17" y2="1728.053"/>
			<line fill="none" stroke="#FFFFFF" stroke-miterlimit="10" x1="1571.527" y1="1718.691" x2="1468.17" y2="1718.691"/>
		</g>
		<line fill="none" stroke="#FFFFFF" stroke-miterlimit="10" x1="1562.538" y1="1710.464" x2="1562.538" y2="1764.512"/>
	</g>
</g>
<g>
	<rect x="722.893" y="1695.931" fill="#99EE99" width="109.374" height="185.267"/>
	<rect x="731.435" y="1704.263" fill="#66DF99" width="93.076" height="176.935"/>
	<rect x="748.818" y="1721.981" fill="#33CC99" width="58.308" height="97.069"/>
	<rect x="748.818" y="1836.531" fill="#33CC99" width="58.308" height="31.189"/>
	<g>
		<circle fill="#666666" cx="742.132" cy="1828.082" r="6.523"/>
		<rect x="742.132" y="1825.945" fill="#666666" width="23.607" height="4.272"/>
	</g>
</g>
<g>
	<rect x="-9.54" y="1890.847" fill="#B5AEAD" width="3012.372" height="123.471"/>
	<rect x="-9.54" y="1882.161" fill="#CC6633" width="3012.372" height="19.045"/>
</g>
<g>
	<polygon fill="#7A7EDE" points="1024.07,1830.363 1004.46,1830.385 1004.456,1822.111 1024.066,1822.092 	"/>
	<path fill="#9999ED" d="M1032.518,1804.68c-0.013-0.016-0.022-0.025-0.035-0.041l0.061-6.402c0.006-0.627,0.425-1.17,1.026-1.348
		c1.474-0.439,2.548-1.805,2.546-3.422l-0.001-1.605c-0.002-1.279-0.548-2.688-1.69-3.029c-1.594-0.473-2.071-1.988-1.896-3.537
		l-0.078-4.637c-0.001-1.148,0.509-2.234,1.389-2.971c0.779-0.652,1.596-1.58,1.595-2.609l-0.004-3.303
		c-0.002-1.969-1.6-3.562-3.568-3.561l-17.665,0.018l-17.665,0.02c-1.968,0-3.563,1.6-3.561,3.568l0.004,3.303
		c0.001,1.029,0.819,1.957,1.6,2.605c0.882,0.736,1.394,1.82,1.396,2.967l-0.056,4.637c0.179,1.551-0.294,3.064-1.887,3.543
		c-1.142,0.342-1.685,1.752-1.684,3.031l0.002,1.607c0.002,1.615,1.078,2.979,2.553,3.414c0.602,0.18,1.022,0.721,1.029,1.348
		l0.074,6.4c-0.013,0.018-0.022,0.027-0.035,0.043c-2.248,0.393-3.956,2.348-3.954,4.707v0.188
		c0.008,7.715,6.267,13.961,13.979,13.951l8.27-0.008l8.269-0.01c7.712-0.006,13.958-6.266,13.95-13.979v-0.188
		C1036.479,1807.02,1034.766,1805.068,1032.518,1804.68z"/>
	<g>
		<path fill="#BDBFFF" d="M1018.088,1775.146l-20.89,0.021c-1.009,0.002-1.83-0.816-1.831-1.826c-0.001-1.01,0.817-1.83,1.827-1.83
			l20.889-0.021c1.01-0.002,1.831,0.816,1.831,1.826C1019.917,1774.326,1019.099,1775.146,1018.088,1775.146z"/>
	</g>
	<g>
		<path fill="#BDBFFF" d="M1019.949,1794.639l-22.723,0.025c-1.01,0.002-1.829-0.816-1.831-1.828c0-1.01,0.817-1.828,1.827-1.83
			l22.723-0.023c1.01-0.002,1.83,0.816,1.831,1.828C1021.777,1793.82,1020.96,1794.639,1019.949,1794.639z"/>
	</g>
	<g>
		<path fill="#BDBFFF" d="M1006.125,1811.289l-8.88,0.01c-1.011,0.002-1.831-0.816-1.831-1.826c-0.001-1.01,0.817-1.83,1.827-1.832
			l8.881-0.008c1.01-0.002,1.831,0.816,1.832,1.826C1007.953,1810.469,1007.135,1811.289,1006.125,1811.289z"/>
	</g>
	<path fill="#FFFFFF" d="M1033.46,1831.559l-1.096-0.959c-1.932-1.689-4.413-2.619-6.979-2.615l-23.118,0.021
		c-3.078,0.004-6.002,1.348-8.01,3.68l-0.053,0.062c-1.346,1.562-2.087,3.559-2.087,5.621l-0.005,43.58h44.517l-0.223-42.926
		C1036.398,1835.543,1035.326,1833.189,1033.46,1831.559z"/>
	<path fill="#BDBFFF" d="M1028.201,1863.004l-27.737,0.029l-0.038-18.459c-0.004-3,2.424-5.432,5.423-5.434l16.879-0.021
		c2.998,0,5.431,2.428,5.434,5.424L1028.201,1863.004z"/>
	<g>
		<g>
			<path fill="#68B1E1" d="M1008.782,1847.396l-4.52,0.004c-0.703,0-1.273-0.568-1.274-1.271v-0.025
				c-0.002-0.703,0.568-1.273,1.271-1.273l4.519-0.006c0.703,0,1.273,0.568,1.275,1.271v0.025
				C1010.054,1846.824,1009.484,1847.396,1008.782,1847.396z"/>
			<rect x="1005.077" y="1847.447" fill="#FFFFFF" width="2.9" height="6.072"/>
		</g>
		<g>
			<path fill="#F16623" d="M1024.331,1847.379l-4.519,0.006c-0.703,0.002-1.273-0.57-1.274-1.273v-0.025
				c0-0.701,0.568-1.272,1.272-1.274l4.519-0.004c0.703,0,1.273,0.568,1.274,1.271v0.023
				C1025.603,1846.809,1025.034,1847.379,1024.331,1847.379z"/>
			<rect x="1020.626" y="1847.432" fill="#FFFFFF" width="2.9" height="6.072"/>
		</g>
	</g>
</g>
</svg>
