<?xml version="1.0" encoding="utf-8"?>
<!-- Generator: Adobe Illustrator 17.0.0, SVG Export Plug-In . SVG Version: 6.00 Build 0)  -->
<!DOCTYPE svg PUBLIC "-//W3C//DTD SVG 1.1//EN" "http://www.w3.org/Graphics/SVG/1.1/DTD/svg11.dtd">
<svg version="1.1" id="Слой_1" xmlns="http://www.w3.org/2000/svg" xmlns:xlink="http://www.w3.org/1999/xlink" x="0px" y="0px"
	 width="60.829px" height="84.972px" viewBox="0 0 60.829 84.972" enable-background="new 0 0 60.829 84.972" xml:space="preserve">
<g>
	<g>
		<g>
			<g>
				<path fill="#FAFCFF" d="M44.813,49.486c-0.953,0.682-2.12,0.801-3.078,0.622c-0.973-0.197-1.786-0.776-2.256-1.661
					c-0.47-0.885-0.527-1.902-0.278-2.807c0.24-0.927,0.842-1.654,1.639-2.235c1.636-1.048,3.874-0.793,5.149,0.764
					C47.255,45.714,46.805,48.203,44.813,49.486z"/>
				<path fill="#FF8A33" d="M40.81,43.359c0,0,0.252-0.171,0.694-0.469c0.445-0.294,1.08-0.714,1.786-1.293
					c1.482-1.069,3.265-2.734,4.926-4.501c1.66-1.774,3.091-3.747,4.053-5.28c0.973-1.531,1.503-2.601,1.503-2.601
					c0.912-1.717,2.918-2.505,4.866-1.915c1.96,0.585,2.821,3.16,1.681,5.306c0,0-0.654,1.317-1.821,3.156
					c-1.157,1.845-2.868,4.196-4.845,6.314c-1.976,2.112-4.109,4.087-5.865,5.364c-0.844,0.684-1.594,1.188-2.121,1.536
					c-0.524,0.354-0.824,0.556-0.824,0.556"/>
			</g>
		</g>
	</g>
</g>
<g>
	<rect x="17.923" y="58.1" transform="matrix(1 -0.0039 0.0039 1 -0.2523 0.089)" fill="#5F6DF0" width="9.728" height="13.845"/>
	<path fill="#FFFFFF" d="M27.826,81.591l-9.906,0.038l0.013,3.342l12.344-0.048C29.888,83.015,27.826,81.591,27.826,81.591z"/>
	<rect x="17.969" y="71.945" transform="matrix(1 -0.0039 0.0039 1 -0.298 0.0892)" fill="#FF8A33" width="9.728" height="9.666"/>
</g>
<g>
	<rect x="29.173" y="58.1" transform="matrix(1 -0.0039 0.0039 1 -0.2522 0.1327)" fill="#5F6DF0" width="9.728" height="13.845"/>
	<path fill="#FFFFFF" d="M39.076,81.591l-9.906,0.038l0.013,3.342l12.344-0.048C41.138,83.015,39.076,81.591,39.076,81.591z"/>
	<rect x="29.219" y="71.945" transform="matrix(1 -0.0039 0.0039 1 -0.2979 0.1329)" fill="#FF8A33" width="9.728" height="9.666"/>
</g>
<g>
	<path fill="#FFFFFF" d="M11.958,55.256c0-8.092,7.297-15.416,16.302-15.416c9.002,0,16.302,7.324,16.302,15.416"/>
	<path fill="#5F6DF0" d="M44.562,55.275c0,7.668-7.3,13.885-16.302,13.885c-9.003,0-16.302-6.217-16.302-13.885"/>
</g>
<g>
	<path fill="#FF8A33" d="M31.654,40.15c0,0-0.27,4.252-3.299,4.252s-3.301-4.252-3.301-4.252v-5.805c0-1.64,1.478-2.973,3.301-2.973
		l0,0c1.822,0,3.299,1.333,3.299,2.973V40.15z"/>
	<g>
		<circle fill="#FF8A33" cx="28.697" cy="21.191" r="19.214"/>
		<path fill="#4D3333" d="M28.872,4.791l13.194,0.918C38.445,2.183,33.512,0,28.056,0C16.953,0,7.952,9,7.952,20.104
			c0,3.688,0.247,2.305,3.227,6.062l1.461-0.52c1.813,0.392,4.922,0.488,4.898-1.565c-0.138-12.36,2.45-18.394,10.291-19.29H28.872z
			"/>
		<path fill="#4D3333" d="M29.364,21.043c0,0.517-0.42,0.938-0.933,0.938c-0.52,0-0.937-0.42-0.937-0.938
			c0-0.514,0.417-0.932,0.937-0.932C28.944,20.111,29.364,20.529,29.364,21.043z"/>
		<path fill="#4D3333" d="M44.538,21.043c0,0.517-0.419,0.938-0.936,0.938c-0.517,0-0.936-0.42-0.936-0.938
			c0-0.514,0.419-0.932,0.936-0.932C44.119,20.111,44.538,20.529,44.538,21.043z"/>
		<path fill="#FF8A33" d="M19.628,24.002c0,2.439-1.978,4.418-4.419,4.418H9.542c-2.441,0-4.418-1.979-4.418-4.418l0,0
			c0-2.44,1.977-4.418,4.418-4.418h5.667C17.649,19.584,19.628,21.562,19.628,24.002L19.628,24.002z"/>
		<path fill="#4D3333" d="M41.927,5.67c3.802,4.318-0.286,7.094-4.863,6.513c-3.537-0.45-8.245-2.087-12.109-6.265
			C21.094,1.747,41.927,5.67,41.927,5.67z"/>
		<path fill="#4D3333" d="M17.643,23.273c0,1.096-0.888,1.983-1.981,1.983l0,0c-1.096,0-1.984-0.887-1.984-1.983v-5.166
			c0-1.094,0.888-1.984,1.984-1.984l0,0c1.093,0,1.981,0.891,1.981,1.984V23.273z"/>
		<path fill="#4D3333" d="M50.323,3.785L50.323,3.785c0,4.584-3.717,8.297-8.299,8.297h-2.372c-4.583,0-8.298-3.713-8.298-8.297l0,0
			"/>
		<path fill="#FF8A33" d="M45.045,1.91"/>
	</g>
</g>
<g>
	<g>
		<g>
			<g>
				<path fill="#FAFCFF" d="M36.603,49.029c-1.017,0.582-2.19,0.582-3.125,0.307c-0.948-0.295-1.698-0.953-2.076-1.881
					c-0.378-0.929-0.332-1.946,0.008-2.82c0.332-0.898,1.006-1.561,1.857-2.058C35,41.7,37.201,42.18,38.312,43.858
					C39.415,45.524,38.715,47.955,36.603,49.029z"/>
				<path fill="#FF8A33" d="M33.241,42.528c0,0,0.268-0.144,0.738-0.396c0.472-0.247,1.147-0.601,1.908-1.105
					c1.583-0.913,3.524-2.389,5.356-3.979c1.831-1.597,3.454-3.415,4.567-4.843c1.123-1.424,1.758-2.435,1.758-2.435
					c1.081-1.615,3.156-2.197,5.035-1.413c1.891,0.78,2.487,3.429,1.136,5.448c0,0-0.784,1.244-2.131,2.956
					c-1.338,1.719-3.278,3.884-5.459,5.792c-2.18,1.901-4.502,3.651-6.378,4.742c-0.909,0.595-1.706,1.02-2.266,1.313
					c-0.557,0.299-0.876,0.469-0.876,0.469"/>
			</g>
		</g>
	</g>
</g>
<path fill="#994733" d="M34.697,32.109c0,0.407-0.329,0.734-0.735,0.734h-4.871c-0.406,0-0.735-0.327-0.735-0.734l0,0
	c0-0.406,0.329-0.736,0.735-0.736h4.871C34.368,31.373,34.697,31.703,34.697,32.109L34.697,32.109z"/>
</svg>
