<?xml version="1.0" encoding="utf-8"?>
<!-- Generator: Adobe Illustrator 17.0.0, SVG Export Plug-In . SVG Version: 6.00 Build 0)  -->
<!DOCTYPE svg PUBLIC "-//W3C//DTD SVG 1.1//EN" "http://www.w3.org/Graphics/SVG/1.1/DTD/svg11.dtd">
<svg version="1.1" id="Слой_1" xmlns="http://www.w3.org/2000/svg" xmlns:xlink="http://www.w3.org/1999/xlink" x="0px" y="0px"
	 width="60.908px" height="88.398px" viewBox="20.794 0 60.908 88.398" enable-background="new 20.794 0 60.908 88.398"
	 xml:space="preserve">
<path fill="#FFFFFF" d="M22.784,47.126c0,0,0.329-0.213,0.905-0.584c0.578-0.365,1.447-0.781,2.473-1.326
	c2.083-0.979,4.932-2.096,7.839-2.765c5.809-1.436,11.684-1.45,11.684-1.45c2.428-0.049,4.354,1.756,4.148,3.788
	c-0.207,2.022-1.934,3.542-4.017,3.584c0,0-0.319-0.003-0.878,0.025c-0.56,0.017-1.358,0.054-2.314,0.136
	c-1.91,0.156-4.442,0.493-6.88,1.081c-2.452,0.565-4.731,1.478-6.371,2.238c-0.786,0.428-1.472,0.745-1.908,1.021
	c-0.43,0.282-0.676,0.443-0.676,0.443"/>
<path fill="#FFFFFF" d="M78.554,36.494c0,0-0.918,1.297-2.296,3.243c-0.75,0.942-1.683,2.015-2.685,3.156
	c-1.132,1.062-2.238,2.269-3.629,3.26c-2.636,2.095-5.853,3.661-8.482,4.31c-0.664,0.14-1.272,0.268-1.811,0.382
	c-0.548,0.079-1.035,0.117-1.432,0.16c-0.397,0.042-0.711,0.068-0.928,0.061c-0.216,0.001-0.332,0.002-0.332,0.002
	c-1.515,0.06-2.895-0.592-3.694-1.428c-0.81-0.866-1.087-1.974-0.674-2.906c0.416-0.93,1.057-1.669,1.799-2.185
	c0.754-0.544,1.554-0.809,2.461-0.854c0.001-0.015,0.272,0.036,0.759-0.038c0.243-0.025,0.538-0.056,0.877-0.092
	c0.338-0.072,0.72-0.154,1.136-0.243c1.661-0.414,3.84-1.441,5.81-3.002c1.023-0.706,1.901-1.69,2.787-2.501
	c0.808-0.931,1.565-1.803,2.192-2.577c1.169-1.651,1.949-2.752,1.949-2.752"/>
<path fill="#FF8A33" d="M76.57,70.367c-0.56-0.605-1.295-1.512-2.303-2.513c-2.02-1.99-5.083-4.459-8.769-6.045
	c-1.812-0.837-3.796-1.334-5.662-1.671c-1.887-0.253-3.677-0.341-5.21-0.182c-3.069,0.231-5.065,1.085-5.298,1.175l0.084,0.194
	c-0.025-0.027-0.052-0.057-0.076-0.084c-0.901-0.991-1.641-1.817-2.235-2.4c-0.57-0.58-0.896-0.912-0.896-0.912l-6.85,7.077
	c0,0,0.269,0.276,0.741,0.759c0.463,0.45,1.167,1.236,2.007,2.162c0.835,0.933,1.832,1.985,2.86,3.175
	c1.009,1.22,2.086,2.52,3.163,3.821c1.063,1.314,2.186,2.57,3.135,3.848c0.95,1.276,1.837,2.467,2.598,3.488
	c1.522,2.041,2.537,3.402,2.537,3.402l7.969-5.79c0,0-1.058-1.418-2.643-3.546c-0.793-1.063-1.719-2.304-2.71-3.633
	c-0.729-0.979-1.562-1.96-2.397-2.958c0.539,0.016,1.112,0.066,1.71,0.136c1.052,0.215,2.185,0.461,3.276,0.985
	c2.203,0.945,4.285,2.569,5.745,4.008c0.728,0.723,1.285,1.427,1.704,1.866c0.422,0.439,0.625,0.75,0.625,0.75l7.714-6.126
	C77.389,71.353,77.132,70.973,76.57,70.367z"/>
<path fill="#FFFFFF" d="M77.475,71.284l-7.855,6.238l1.708,2.313l10.374-6.973c-0.812-0.786-1.883-1.199-2.734-1.393
	C78.115,71.273,77.475,71.284,77.475,71.284z"/>
<path fill="#FFFFFF" d="M64.454,79.805l-8.115,5.896l2.013,2.697l10.216-7.202C67.039,79.792,64.454,79.805,64.454,79.805z"/>
<path fill="#FF8A33" d="M26.76,53.271c-0.394,0.266-0.849,0.408-1.287,0.51c-0.426,0.115-0.881,0.142-1.341,0.093
	c-0.917-0.102-1.867-0.502-2.545-1.241c-0.678-0.738-0.931-1.704-0.722-2.722c0.103-0.508,0.319-1.025,0.638-1.516
	c0.324-0.48,0.786-0.871,1.313-1.223c1.048-0.728,2.269-0.875,3.267-0.654c1,0.21,1.797,0.84,2.218,1.762
	c0.412,0.903,0.394,1.914,0.113,2.815C28.122,51.991,27.53,52.721,26.76,53.271z"/>
<path fill="#FF8A33" d="M72.409,32.52c1.115-1.891,3.469-2.66,5.245-1.728c1.776,0.933,2.165,3.475,0.854,5.672
	c-1.498,2.124-3.971,2.826-5.566,1.517C71.438,36.744,71.157,34.268,72.409,32.52z"/>
<path fill="#FFFFFF" d="M34.58,54.453c0-7.668,7.297-14.61,16.301-14.61c9.002,0,16.302,6.942,16.302,14.61"/>
<path fill="#5F6DF0" d="M67.183,54.145c0,8.294-7.3,15.017-16.302,15.017c-9.003,0-16.301-6.723-16.301-15.017"/>
<g>
	<path fill="#FF8A33" d="M54.276,40.154l-3.299,4.25l-3.3-4.25v-5.806c0-1.641,1.476-2.971,3.3-2.971l0,0
		c1.821,0,3.299,1.33,3.299,2.971V40.154z"/>
	<g>
		<path fill="#FF8A33" d="M70.532,21.196c0,10.61-8.602,19.212-19.212,19.212c-10.611,0-19.216-8.602-19.216-19.212
			S40.709,1.979,51.32,1.979C61.93,1.98,70.532,10.586,70.532,21.196z"/>
		<path fill="#4D3333" d="M51.494,4.795l13.193,0.917C61.068,2.183,56.133,0,50.679,0C39.575,0,30.573,9.002,30.573,20.106
			c0,3.69,0.247,2.305,3.226,6.063l1.463-0.518c1.813,0.389,4.921,0.487,4.896-1.569C40.02,11.725,42.608,5.69,50.45,4.795H51.494z"
			/>
		<circle fill="#4D3333" cx="51.05" cy="21.048" r="0.935"/>
		<circle fill="#4D3333" cx="66.223" cy="21.048" r="0.935"/>
		<path fill="#FF8A33" d="M42.248,24.004c0,2.44-1.977,4.418-4.418,4.418h-5.667c-2.441,0-4.416-1.978-4.416-4.418l0,0
			c0-2.438,1.976-4.415,4.416-4.415h5.667C40.272,19.589,42.248,21.566,42.248,24.004L42.248,24.004z"/>
		<path fill="#4D3333" d="M64.548,5.674c3.802,4.317-0.287,7.093-4.861,6.512c-3.537-0.45-8.247-2.087-12.109-6.265
			C43.717,1.749,64.548,5.674,64.548,5.674z"/>
		<path fill="#4D3333" d="M40.265,23.274c0,1.098-0.889,1.983-1.982,1.983l0,0c-1.095,0-1.981-0.886-1.981-1.983v-5.165
			c0-1.094,0.886-1.983,1.981-1.983l0,0c1.094,0,1.982,0.889,1.982,1.983V23.274z"/>
		<path fill="#4D3333" d="M72.944,3.788L72.944,3.788c0,4.583-3.717,8.298-8.298,8.298h-2.372c-4.583,0-8.299-3.715-8.299-8.298l0,0
			"/>
		<path fill="#FF8A33" d="M67.665,1.916"/>
	</g>
</g>
<path fill="#994733" d="M61.992,32.101c0,1.457-1.181,2.638-2.637,2.638h-6.101c-1.457,0-2.637-1.181-2.637-2.638l0,0
	c0-1.456,1.181-2.637,2.637-2.637h6.101C60.811,29.465,61.992,30.645,61.992,32.101L61.992,32.101z"/>
<path fill="#5F6DF0" d="M51.261,78.771c0.082,0.11,0.16,0.215,0.241,0.324l8.515-5.056c-0.326-0.438-0.659-0.884-1.004-1.347
	c-0.729-0.979-1.562-1.96-2.397-2.958c0.539,0.016,1.112,0.066,1.71,0.136c1.052,0.215,2.185,0.461,3.276,0.985
	c0.495,0.212,0.982,0.463,1.46,0.734l6.39-7.633c-1.21-0.794-2.534-1.537-3.953-2.147c-1.812-0.837-3.796-1.334-5.662-1.671
	c-1.887-0.253-3.677-0.341-5.21-0.182c-3.069,0.231-5.065,1.085-5.298,1.175l0.084,0.194c-0.025-0.027-0.052-0.057-0.076-0.084
	c-0.901-0.991-1.641-1.817-2.235-2.4c-0.57-0.58-0.896-0.912-0.896-0.912l-6.85,7.077c0,0,0.269,0.276,0.741,0.759
	c0.463,0.45,1.167,1.236,2.007,2.162c0.835,0.933,1.832,1.985,2.86,3.175c1.009,1.22,2.086,2.52,3.163,3.821
	C49.189,76.237,50.312,77.493,51.261,78.771z"/>
<path fill="#FF8A33" d="M34.58,42.316c-0.193,0.045-0.386,0.087-0.579,0.135c-2.907,0.669-5.756,1.786-7.839,2.765
	c-1.026,0.545-1.895,0.961-2.473,1.326c-0.576,0.371-0.905,0.584-0.905,0.584l4.005,6.191c0,0,0.246-0.161,0.676-0.443
	c0.436-0.276,1.122-0.593,1.908-1.021c1.377-0.638,3.206-1.381,5.207-1.938V42.316z"/>
<g>
	<path fill="#FF8A33" d="M72.361,32.49c0,0-0.78,1.101-1.949,2.752c-0.627,0.774-1.384,1.646-2.192,2.577
		c-0.886,0.811-1.764,1.795-2.787,2.501c-0.019,0.015-0.04,0.029-0.059,0.044c1.537,1.864,3.361,4.097,4.64,5.734
		c1.357-0.981,2.447-2.162,3.559-3.205c1.002-1.141,1.935-2.214,2.685-3.156c1.378-1.946,2.296-3.243,2.296-3.243L72.361,32.49z"/>
</g>
</svg>
