<?xml version="1.0" encoding="utf-8"?>
<!-- Generator: Adobe Illustrator 17.0.0, SVG Export Plug-In . SVG Version: 6.00 Build 0)  -->
<!DOCTYPE svg PUBLIC "-//W3C//DTD SVG 1.1//EN" "http://www.w3.org/Graphics/SVG/1.1/DTD/svg11.dtd">
<svg version="1.1" id="Слой_1" xmlns="http://www.w3.org/2000/svg" xmlns:xlink="http://www.w3.org/1999/xlink" x="0px" y="0px"
	 width="66.259px" height="89.349px" viewBox="0 0 66.259 89.349" enable-background="new 0 0 66.259 89.349" xml:space="preserve">
<g>
	
		<rect x="25.179" y="61.951" transform="matrix(-1 -0.0026 0.0026 -1 59.9025 137.828)" fill="#FF33FF" width="9.727" height="13.846"/>
	<path fill="#FFFFFF" d="M25.014,85.98l9.906,0.027l-0.009,3.342l-12.344-0.033C22.954,87.407,25.014,85.98,25.014,85.98z"/>
	
		<rect x="25.146" y="75.797" transform="matrix(-1 -0.0027 0.0027 -1 59.8013 161.341)" fill="#FF8A33" width="9.728" height="9.666"/>
</g>
<g>
	
		<rect x="36.179" y="61.951" transform="matrix(-1 -0.0026 0.0026 -1 81.9025 137.8572)" fill="#FF33FF" width="9.727" height="13.846"/>
	<path fill="#FFFFFF" d="M36.014,85.98l9.906,0.027l-0.009,3.342l-12.344-0.033C33.954,87.407,36.014,85.98,36.014,85.98z"/>
	
		<rect x="36.146" y="75.797" transform="matrix(-1 -0.0027 0.0027 -1 81.8013 161.3709)" fill="#FF8A33" width="9.728" height="9.666"/>
</g>
<g>
	<path fill="#FFFFFF" d="M52.025,55.256c0-8.092-7.297-15.416-16.302-15.416c-9.002,0-16.302,7.324-16.302,15.416"/>
	<path fill="#FF33FF" d="M19.421,55.275c0,7.668,7.3,13.885,16.302,13.885c9.003,0,16.302-6.217,16.302-13.885"/>
</g>
<g>
	<path fill="#FF8A33" d="M32.329,40.15c0,0,0.27,4.252,3.299,4.252c3.029,0,3.301-4.252,3.301-4.252v-5.805
		c0-1.641-1.478-2.973-3.301-2.973l0,0c-1.822,0-3.299,1.332-3.299,2.973V40.15z"/>
	<g>
		<circle fill="#FF8A33" cx="35.286" cy="21.191" r="19.214"/>
		<path fill="#4D3333" d="M35.111,4.791L21.917,5.709C25.538,2.182,30.471,0,35.927,0c11.103,0,20.104,9,20.104,20.104
			c0,3.688-0.246,2.305-3.227,6.062l-1.461-0.52c-1.813,0.391-3.922,0.488-3.898-1.566c0.139-12.359-3.45-18.393-11.291-19.289
			H35.111z"/>
		<path fill="#FF8A33" d="M44.356,24.002c0,2.439,1.978,4.418,4.418,4.418h5.667c2.441,0,4.418-1.979,4.418-4.418l0,0
			c0-2.44-1.977-4.418-4.418-4.418h-5.667C46.334,19.584,44.356,21.562,44.356,24.002L44.356,24.002z"/>
		<path fill="#FF8A33" d="M18.938,1.91"/>
		<path fill="#4D3333" d="M31.735,15.189c0,0.901,0.484,1.632,1.082,1.632h6.042c0.598,0,1.082-0.731,1.082-1.632l0,0
			c0-0.903-0.484-1.634-1.082-1.634h-6.042C32.219,13.556,31.735,14.286,31.735,15.189L31.735,15.189z"/>
		<path fill="#4D3333" d="M15.342,15.189c0,0.901,0.484,1.632,1.082,1.632h6.042c0.598,0,1.082-0.731,1.082-1.632l0,0
			c0-0.903-0.484-1.634-1.082-1.634h-6.042C15.826,13.556,15.342,14.286,15.342,15.189L15.342,15.189z"/>
		<circle fill="#FFFFFF" cx="35.554" cy="21.19" r="5.071"/>
		<circle fill="#FFFFFF" cx="19.445" cy="21.19" r="5.072"/>
		<path fill="#4D3333" d="M34.619,21.043c0,0.517,0.42,0.938,0.933,0.938c0.52,0,0.937-0.42,0.937-0.938
			c0-0.514-0.417-0.932-0.937-0.932C35.039,20.111,34.619,20.529,34.619,21.043z"/>
		<path fill="#4D3333" d="M17.973,21.043c0,0.517,0.419,0.938,0.936,0.938s0.936-0.42,0.936-0.938c0-0.514-0.419-0.932-0.936-0.932
			S17.973,20.529,17.973,21.043z"/>
	</g>
</g>
<g>
	<g>
		<g>
			<g>
				<g>
					<path fill="#FAFCFF" d="M18.408,45.396c1.275-1.557,3.513-1.812,5.149-0.764c0.797,0.581,1.399,1.308,1.639,2.235
						c0.249,0.905,0.192,1.922-0.278,2.807s-1.283,1.464-2.256,1.661c-0.958,0.179-2.125,0.06-3.078-0.622
						C17.592,49.43,17.142,46.941,18.408,45.396z"/>
					<path fill="#FF8A33" d="M19.554,50.759c0,0-0.3-0.202-0.824-0.556c-0.527-0.348-1.277-0.852-2.121-1.536
						c-1.756-1.277-3.889-3.252-5.865-5.364c-1.977-2.118-3.688-4.469-4.845-6.314c-1.167-1.839-1.821-3.156-1.821-3.156
						c-1.14-2.146-0.279-4.721,1.681-5.306c1.948-0.59,3.954,0.198,4.866,1.915c0,0,0.53,1.07,1.503,2.601
						c0.962,1.533,2.393,3.506,4.053,5.28c1.661,1.767,3.444,3.432,4.926,4.501c0.706,0.579,1.341,0.999,1.786,1.293
						c0.442,0.298,0.694,0.469,0.694,0.469"/>
				</g>
			</g>
		</g>
	</g>
	<g>
		<g>
			<g>
				<g>
					<path fill="#FAFCFF" d="M26.085,45.085c1.111-1.678,3.312-2.158,5.045-1.281c0.851,0.497,1.525,1.16,1.857,2.058
						c0.34,0.874,0.386,1.891,0.008,2.82c-0.378,0.928-1.128,1.586-2.076,1.881c-0.935,0.275-2.108,0.275-3.125-0.307
						C25.682,49.182,24.982,46.751,26.085,45.085z"/>
					<path fill="#FF8A33" d="M27.768,50.304c0,0-0.319-0.17-0.876-0.469c-0.56-0.293-1.357-0.718-2.266-1.313
						c-1.876-1.091-4.198-2.841-6.378-4.742c-2.181-1.908-4.121-4.073-5.459-5.792c-1.347-1.712-2.131-2.956-2.131-2.956
						c-1.351-2.019-0.755-4.668,1.136-5.448c1.879-0.784,3.954-0.202,5.035,1.413c0,0,0.635,1.011,1.758,2.435
						c1.113,1.428,2.736,3.246,4.567,4.843c1.832,1.59,3.773,3.066,5.356,3.979c0.761,0.504,1.436,0.858,1.908,1.105
						c0.47,0.252,0.738,0.396,0.738,0.396"/>
				</g>
			</g>
		</g>
	</g>
</g>
</svg>
