<?xml version="1.0" encoding="utf-8"?>
<!-- Generator: Adobe Illustrator 17.0.0, SVG Export Plug-In . SVG Version: 6.00 Build 0)  -->
<!DOCTYPE svg PUBLIC "-//W3C//DTD SVG 1.1//EN" "http://www.w3.org/Graphics/SVG/1.1/DTD/svg11.dtd">
<svg version="1.1" id="Слой_1" xmlns="http://www.w3.org/2000/svg" xmlns:xlink="http://www.w3.org/1999/xlink" x="0px" y="0px"
	 width="57.377px" height="102.601px" viewBox="0 0 57.377 102.601" enable-background="new 0 0 57.377 102.601"
	 xml:space="preserve">
<g>
	
		<line fill="none" stroke="#0C0000" stroke-width="11" stroke-linecap="round" stroke-miterlimit="10" x1="13.919" y1="16.577" x2="14.398" y2="52.03"/>
	<ellipse fill="#993333" cx="15.684" cy="13.876" rx="4.661" ry="5.216"/>
</g>
<g>
	
		<line fill="none" stroke="#0C0000" stroke-width="11" stroke-linecap="round" stroke-miterlimit="10" x1="43.083" y1="16.577" x2="43.561" y2="52.03"/>
	<ellipse fill="#993333" cx="44.847" cy="13.876" rx="4.661" ry="5.216"/>
</g>
<g>
	<g>
		<path fill="none" stroke="#0C0000" stroke-width="9" stroke-miterlimit="10" d="M17.993,102.228c0,0,0-1.527,0-6.35
			c0-7.861,8.525-6.784,8.525-6.784"/>
	</g>
	<path fill="#993333" d="M11.102,102.601L11.102,102.601c0-2.332,1.889-4.221,4.22-4.221h4.963c2.33,0,4.219,1.889,4.219,4.219l0,0"
		/>
</g>
<g>
	<g>
		<path fill="none" stroke="#0C0000" stroke-width="9" stroke-miterlimit="10" d="M42.356,102.228c0,0,0-1.527,0-6.35
			c-0.001-7.861-7.95-6.784-7.95-6.784"/>
	</g>
	<path fill="#993333" d="M50.102,102.601L50.102,102.601c0-2.332-2.743-4.221-5.074-4.221h-4.962c-2.331,0-3.366,1.889-3.366,4.219
		l0,0"/>
</g>
<g>
	<polygon fill="#0C0000" points="45.857,69.113 36.344,69.113 36.344,59.6 	"/>
	<polygon fill="#0C0000" points="45.857,74.137 36.344,74.137 36.344,64.625 	"/>
	<polygon fill="#0C0000" points="45.857,79.162 36.344,79.162 36.344,69.65 	"/>
	<polygon fill="#0C0000" points="45.857,84.188 36.344,84.188 36.344,74.674 	"/>
	<polygon fill="#0C0000" points="45.857,88.555 36.344,88.555 36.344,79.043 	"/>
</g>
<g>
	<polygon fill="#0C0000" points="14.43,74.01 23.943,74.01 23.943,64.496 	"/>
	<polygon fill="#0C0000" points="14.43,79.033 23.943,79.033 23.943,69.521 	"/>
	<polygon fill="#0C0000" points="14.43,84.059 23.943,84.059 23.943,74.547 	"/>
	<polygon fill="#0C0000" points="14.43,89.084 23.943,89.084 23.943,79.57 	"/>
</g>
<path fill="#993333" d="M21.695,85.617c0,4.682,3.795,8.477,8.476,8.477l0,0c4.681,0,8.476-3.795,8.476-8.475V74.563
	c0-4.684-3.794-8.477-8.477-8.477l0,0c-4.681,0-8.476,3.795-8.476,8.477V85.617z"/>
<g>
	<g>
		<circle fill="#993333" cx="7.842" cy="51.691" r="7.842"/>
		<circle fill="#0C0000" cx="7.841" cy="51.691" r="5.298"/>
	</g>
	<g>
		<path fill="#993333" d="M45.847,51.863c0,9.598-7.778,17.373-17.371,17.373c-9.594,0-17.375-7.775-17.375-17.373
			c0-9.596,7.781-17.375,17.375-17.375C38.069,34.488,45.847,42.268,45.847,51.863z"/>
	</g>
	<path fill="#CC6633" d="M41.6,67.352c0,5.582-4.527,10.111-10.11,10.111H16.252c-5.583,0-10.11-4.529-10.11-10.111v-1.529
		c0-5.584,4.527-10.111,10.11-10.111H31.49c5.583,0,10.11,4.527,10.11,10.111V67.352z"/>
	<g>
		<g>
			<path d="M20.774,51.135c0,0.801-0.647,1.451-1.445,1.451c-0.804,0-1.453-0.65-1.453-1.451c0-0.795,0.648-1.445,1.453-1.445
				C20.127,49.689,20.774,50.34,20.774,51.135z"/>
			<path d="M29.865,51.135c0,0.801-0.648,1.451-1.448,1.451c-0.8,0-1.45-0.65-1.45-1.451c0-0.795,0.651-1.445,1.45-1.445
				C29.217,49.689,29.865,50.34,29.865,51.135z"/>
		</g>
		<rect x="17.857" y="46.843" fill="#0C0000" width="12.286" height="2.703"/>
	</g>
	<rect x="17.777" y="55.465" fill="#0C0000" width="4.654" height="2.553"/>
	<rect x="25.211" y="55.465" fill="#0C0000" width="4.654" height="2.553"/>
	<g>
		<circle fill="#993333" cx="49.535" cy="51.691" r="7.842"/>
		<circle fill="#0C0000" cx="49.535" cy="51.691" r="5.297"/>
	</g>
	<polygon fill="#0C0000" points="22.112,39.244 31.625,39.244 31.625,29.732 	"/>
</g>
</svg>
