<?xml version="1.0" encoding="utf-8"?>
<!-- Generator: Adobe Illustrator 17.0.0, SVG Export Plug-In . SVG Version: 6.00 Build 0)  -->
<!DOCTYPE svg PUBLIC "-//W3C//DTD SVG 1.1//EN" "http://www.w3.org/Graphics/SVG/1.1/DTD/svg11.dtd">
<svg version="1.1" id="Слой_1" xmlns="http://www.w3.org/2000/svg" xmlns:xlink="http://www.w3.org/1999/xlink" x="0px" y="0px"
	 width="94.128px" height="106.144px" viewBox="0 0 94.128 106.144" enable-background="new 0 0 94.128 106.144"
	 xml:space="preserve">
<path fill="#999900" d="M26.647,106.144V53.38c0-17.754,14.39-32.143,32.143-32.143l0,0c17.753,0,32.143,14.389,32.143,32.143
	c0,0,0,25.502,0,35.452c0,9.949-9.075,17.312-24.703,17.312C50.603,106.144,26.647,106.144,26.647,106.144z"/>
<rect x="45.378" y="37.318" fill="#FF3399" width="48.75" height="64.087"/>
<rect x="49.271" y="40.129" fill="#FFFFFF" width="5.981" height="4.098"/>
<rect x="58.194" y="40.129" fill="#FFFFFF" width="5.983" height="4.098"/>
<rect x="67.118" y="40.129" fill="#FFFFFF" width="5.982" height="4.098"/>
<rect x="76.042" y="40.129" fill="#FFFFFF" width="5.981" height="4.098"/>
<rect x="84.743" y="40.129" fill="#FFFFFF" width="5.982" height="4.098"/>
<rect x="49.271" y="93.045" fill="#FFFFFF" width="5.981" height="4.099"/>
<rect x="58.194" y="93.045" fill="#FFFFFF" width="5.983" height="4.099"/>
<rect x="67.118" y="93.045" fill="#FFFFFF" width="5.982" height="4.099"/>
<rect x="76.042" y="93.045" fill="#FFFFFF" width="5.981" height="4.099"/>
<rect x="84.743" y="93.045" fill="#FFFFFF" width="5.982" height="4.099"/>
<rect x="49.271" y="44.227" fill="#0C0000" width="41.455" height="48.818"/>
<path fill="#999900" d="M26.57,63.512C26.57,83.159,0,81.621,0,106.144h40.99C40.99,106.144,26.57,43.863,26.57,63.512z"/>
<rect x="45.744" y="8.998" fill="#999900" width="3.892" height="19.026"/>
<rect x="60.656" y="8.998" fill="#999900" width="3.892" height="19.026"/>
<circle fill="#999900" cx="47.69" cy="7.697" r="5.186"/>
<circle fill="#0C0000" cx="49.636" cy="7.697" r="1.481"/>
<circle fill="#999900" cx="62.602" cy="7.697" r="5.186"/>
<circle fill="#0C0000" cx="64.176" cy="7.697" r="1.481"/>
</svg>
