<?xml version="1.0" encoding="utf-8"?>
<!-- Generator: Adobe Illustrator 17.0.0, SVG Export Plug-In . SVG Version: 6.00 Build 0)  -->
<!DOCTYPE svg PUBLIC "-//W3C//DTD SVG 1.1//EN" "http://www.w3.org/Graphics/SVG/1.1/DTD/svg11.dtd">
<svg version="1.1" id="Слой_1" xmlns="http://www.w3.org/2000/svg" xmlns:xlink="http://www.w3.org/1999/xlink" x="0px" y="0px"
	 width="3000px" height="2000px" viewBox="0 0 3000 2000" enable-background="new 0 0 3000 2000" xml:space="preserve">
<rect x="-64.956" y="-113.184" width="3335.148" height="2266.217"/>
<g>
	<path fill="#330033" d="M1767.449,1211.676c0,7.7-6.3,14-14,14h-518.646c-7.7,0-14-6.3-14-14v-111.493c0-7.7,6.3-14,14-14h518.646
		c7.7,0,14,6.3,14,14V1211.676z"/>
	<path fill="none" stroke="#663386" stroke-width="13" stroke-miterlimit="10" d="M1767.449,1211.676c0,7.7-6.3,14-14,14h-518.646
		c-7.7,0-14-6.3-14-14v-111.493c0-7.7,6.3-14,14-14h518.646c7.7,0,14,6.3,14,14V1211.676z"/>
</g>
<g>
	<path fill="#330033" d="M1093.643,1216.875c0,4.84-3.96,8.801-8.801,8.801H971.28c-4.84,0-8.801-3.96-8.801-8.801v-121.892
		c0-4.84,3.96-8.801,8.801-8.801h113.562c4.84,0,8.801,3.96,8.801,8.801V1216.875z"/>
	<path fill="none" stroke="#663386" stroke-width="13" stroke-miterlimit="10" d="M1093.643,1216.875c0,4.84-3.96,8.801-8.801,8.801
		H971.28c-4.84,0-8.801-3.96-8.801-8.801v-121.892c0-4.84,3.96-8.801,8.801-8.801h113.562c4.84,0,8.801,3.96,8.801,8.801V1216.875z"
		/>
</g>
<g>
	<path fill="#330033" d="M2037.397,1216.875c0,4.84-3.96,8.801-8.801,8.801h-113.562c-4.84,0-8.801-3.96-8.801-8.801v-121.892
		c0-4.84,3.96-8.801,8.801-8.801h113.562c4.84,0,8.801,3.96,8.801,8.801V1216.875z"/>
	<path fill="none" stroke="#663386" stroke-width="13" stroke-miterlimit="10" d="M2037.397,1216.875c0,4.84-3.96,8.801-8.801,8.801
		h-113.562c-4.84,0-8.801-3.96-8.801-8.801v-121.892c0-4.84,3.96-8.801,8.801-8.801h113.562c4.84,0,8.801,3.96,8.801,8.801V1216.875
		z"/>
</g>
<g>
	<path fill="#330033" d="M1235.344,1477.161c7.7,0,14-6.3,14-14v-104.494c0-7.7-6.3-14-14-14H665.52c-7.7,0-14-6.3-14-14v-93.991
		c0-7.7,6.3-14,14-14h154.965c7.7,0,14-6.3,14-14v-111.493c0-7.7-6.3-14-14-14H-81c-7.7,0-14,6.3-14,14v44.75c0,7.7-4.5,14-10,14
		s-10,6.3-10,14v481.998c0,7.7,5.4,14,12,14s12,6.3,12,14v40.745c0,7.7,6.3,14,14,14h897.485c7.7,0,14-6.3,14-14v-109.493
		c0-7.7-6.3-14-14-14H665.52c-7.7,0-14-6.3-14-14v-92.021c0-7.7,6.3-14,14-14H1235.344z"/>
	<path fill="none" stroke="#663386" stroke-width="13" stroke-miterlimit="10" d="M1235.344,1477.161c7.7,0,14-6.3,14-14v-104.494
		c0-7.7-6.3-14-14-14H665.52c-7.7,0-14-6.3-14-14v-93.991c0-7.7,6.3-14,14-14h154.965c7.7,0,14-6.3,14-14v-111.493
		c0-7.7-6.3-14-14-14H-81c-7.7,0-14,6.3-14,14v44.75c0,7.7-4.5,14-10,14s-10,6.3-10,14v481.998c0,7.7,5.4,14,12,14s12,6.3,12,14
		v40.745c0,7.7,6.3,14,14,14h897.485c7.7,0,14-6.3,14-14v-109.493c0-7.7-6.3-14-14-14H665.52c-7.7,0-14-6.3-14-14v-92.021
		c0-7.7,6.3-14,14-14H1235.344z"/>
</g>
<g>
	<path fill="#330033" d="M562.521,579.726c0-7.7,6.3-14,14-14H2513c7.7,0,14,6.3,14,14v371.549c0,7.7-6.3,14-14,14H576.521
		c-7.7,0-14-6.3-14-14V579.726z"/>
	<path fill="none" stroke="#663386" stroke-width="13" stroke-miterlimit="10" d="M562.521,579.726c0-7.7,6.3-14,14-14H2513
		c7.7,0,14,6.3,14,14v371.549c0,7.7-6.3,14-14,14H576.521c-7.7,0-14-6.3-14-14V579.726z"/>
</g>
<g>
	<path fill="#330033" d="M-27,565.726h2550c7.7,0,14,6.3,14,14v371.549c0,7.7-6.3,14-14,14H-27"/>
	<path fill="none" stroke="#663386" stroke-width="13" stroke-miterlimit="10" d="M-27,565.726h2550c7.7,0,14,6.3,14,14v371.549
		c0,7.7-6.3,14-14,14H-27"/>
</g>
<g>
	<path fill="#330033" d="M573,565.726h1960.479c7.7,0,14,6.3,14,14v371.549c0,7.7-6.3,14-14,14H573"/>
	<path fill="none" stroke="#663386" stroke-width="13" stroke-miterlimit="10" d="M573,565.726h1960.479c7.7,0,14,6.3,14,14v371.549
		c0,7.7-6.3,14-14,14H573"/>
</g>
<g>
	<path fill="#330033" d="M583.521,565.726H2544c7.7,0,14,6.3,14,14v371.549c0,7.7-6.3,14-14,14H583.521"/>
	<path fill="none" stroke="#663386" stroke-width="13" stroke-miterlimit="10" d="M583.521,565.726H2544c7.7,0,14,6.3,14,14v371.549
		c0,7.7-6.3,14-14,14H583.521"/>
</g>
<g>
	<path fill="#330033" d="M594,565.726h1960.479c7.7,0,14,6.3,14,14v371.549c0,7.7-6.3,14-14,14H594"/>
	<path fill="none" stroke="#663386" stroke-width="13" stroke-miterlimit="10" d="M594,565.726h1960.479c7.7,0,14,6.3,14,14v371.549
		c0,7.7-6.3,14-14,14H594"/>
</g>
<g>
	<path fill="#330033" d="M604.521,565.726H2565c7.7,0,14,6.3,14,14v371.549c0,7.7-6.3,14-14,14H604.521"/>
	<path fill="none" stroke="#663386" stroke-width="13" stroke-miterlimit="10" d="M604.521,565.726H2565c7.7,0,14,6.3,14,14v371.549
		c0,7.7-6.3,14-14,14H604.521"/>
</g>
<g>
	<path fill="#330033" d="M615,565.726h1960.479c7.7,0,14,6.3,14,14v371.549c0,7.7-6.3,14-14,14H615"/>
	<path fill="none" stroke="#663386" stroke-width="13" stroke-miterlimit="10" d="M615,565.726h1960.479c7.7,0,14,6.3,14,14v371.549
		c0,7.7-6.3,14-14,14H615"/>
</g>
<g>
	<path fill="#330033" d="M625.521,565.726H2586c7.7,0,14,6.3,14,14v371.549c0,7.7-6.3,14-14,14H625.521"/>
	<path fill="none" stroke="#663386" stroke-width="13" stroke-miterlimit="10" d="M625.521,565.726H2586c7.7,0,14,6.3,14,14v371.549
		c0,7.7-6.3,14-14,14H625.521"/>
</g>
<g>
	<path fill="#330033" d="M636,565.726h1960.479c7.7,0,14,6.3,14,14v371.549c0,7.7-6.3,14-14,14H636"/>
	<path fill="none" stroke="#663386" stroke-width="13" stroke-miterlimit="10" d="M636,565.726h1960.479c7.7,0,14,6.3,14,14v371.549
		c0,7.7-6.3,14-14,14H636"/>
</g>
<g>
	<path fill="#330033" d="M646.521,565.726H2607c7.7,0,14,6.3,14,14v371.549c0,7.7-6.3,14-14,14H646.521"/>
	<path fill="none" stroke="#663386" stroke-width="13" stroke-miterlimit="10" d="M646.521,565.726H2607c7.7,0,14,6.3,14,14v371.549
		c0,7.7-6.3,14-14,14H646.521"/>
</g>
<g>
	<path fill="#330033" d="M657,565.726h1960.479c7.7,0,14,6.3,14,14v371.549c0,7.7-6.3,14-14,14H657"/>
	<path fill="none" stroke="#663386" stroke-width="13" stroke-miterlimit="10" d="M657,565.726h1960.479c7.7,0,14,6.3,14,14v371.549
		c0,7.7-6.3,14-14,14H657"/>
</g>
<g>
	<path fill="#330033" d="M667.521,565.726H2628c7.7,0,14,6.3,14,14v371.549c0,7.7-6.3,14-14,14H667.521"/>
	<path fill="none" stroke="#663386" stroke-width="13" stroke-miterlimit="10" d="M667.521,565.726H2628c7.7,0,14,6.3,14,14v371.549
		c0,7.7-6.3,14-14,14H667.521"/>
</g>
<g>
	<path fill="#330033" d="M678,565.726h1960.479c7.7,0,14,6.3,14,14v371.549c0,7.7-6.3,14-14,14H678"/>
	<path fill="none" stroke="#663386" stroke-width="13" stroke-miterlimit="10" d="M678,565.726h1960.479c7.7,0,14,6.3,14,14v371.549
		c0,7.7-6.3,14-14,14H678"/>
</g>
<g>
	<path fill="#330033" d="M1410.521,565.726H3371c7.7,0,14,6.3,14,14v371.549c0,7.7-6.3,14-14,14H1410.521"/>
	<path fill="none" stroke="#663386" stroke-width="13" stroke-miterlimit="10" d="M1410.521,565.726H3371c7.7,0,14,6.3,14,14
		v371.549c0,7.7-6.3,14-14,14H1410.521"/>
</g>
<g>
	<path fill="#663386" d="M-160.203-27.125c0-7.7,6.3-14,14-14h3351.249c7.7,0,14,6.3,14,14v931.673c0,7.7-6.3,14-14,14H-146.203
		c-7.7,0-14-6.3-14-14V-27.125z"/>
</g>
<g>
	<path fill="#330033" d="M1388.903,1353.468c0-4.84,3.96-8.801,8.801-8.801h204.539c4.84,0,8.801,3.96,8.801,8.801v114.893
		c0,4.84-3.96,8.801-8.801,8.801h-204.539c-4.84,0-8.801-3.96-8.801-8.801V1353.468z"/>
	<path fill="none" stroke="#663386" stroke-width="13" stroke-miterlimit="10" d="M1388.903,1353.468c0-4.84,3.96-8.801,8.801-8.801
		h204.539c4.84,0,8.801,3.96,8.801,8.801v114.893c0,4.84-3.96,8.801-8.801,8.801h-204.539c-4.84,0-8.801-3.96-8.801-8.801V1353.468z
		"/>
</g>
<g>
	<g>
		<g>
			<circle fill="#FFFFFF" cx="1327.236" cy="1027.675" r="7.513"/>
			<circle fill="#FFE600" cx="1324.264" cy="1027.675" r="7.514"/>
		</g>
		<g>
			<circle fill="#FFFFFF" cx="1412.642" cy="1027.675" r="7.513"/>
			<circle fill="#FFE600" cx="1409.67" cy="1027.675" r="7.514"/>
		</g>
		<g>
			<circle fill="#FFFFFF" cx="1241.829" cy="1027.675" r="7.514"/>
			<circle fill="#FFE600" cx="1238.857" cy="1027.675" r="7.513"/>
		</g>
		<g>
			<circle fill="#FFFFFF" cx="1156.422" cy="1027.675" r="7.514"/>
			<circle fill="#FFE600" cx="1153.45" cy="1027.675" r="7.513"/>
		</g>
		<g>
			<circle fill="#FFFFFF" cx="1071.016" cy="1027.675" r="7.514"/>
			<circle fill="#FFE600" cx="1068.043" cy="1027.675" r="7.513"/>
		</g>
		<g>
			<circle fill="#FFFFFF" cx="985.609" cy="1027.675" r="7.514"/>
			<circle fill="#FFE600" cx="982.637" cy="1027.675" r="7.513"/>
		</g>
		<g>
			<circle fill="#FFFFFF" cx="900.202" cy="1027.675" r="7.514"/>
			<circle fill="#FFE600" cx="897.23" cy="1027.675" r="7.513"/>
		</g>
		<g>
			<circle fill="#FFFFFF" cx="814.796" cy="1027.675" r="7.514"/>
			<circle fill="#FFE600" cx="811.824" cy="1027.675" r="7.513"/>
		</g>
		<g>
			<circle fill="#FFFFFF" cx="729.389" cy="1027.675" r="7.513"/>
			<circle fill="#FFE600" cx="726.417" cy="1027.675" r="7.513"/>
		</g>
	</g>
	<g>
		<g>
			<circle fill="#FFFFFF" cx="1753.423" cy="1287.145" r="7.514"/>
			<circle fill="#FFE600" cx="1750.451" cy="1287.145" r="7.513"/>
		</g>
		<g>
			<circle fill="#FFFFFF" cx="1668.016" cy="1287.145" r="7.514"/>
			<circle fill="#FFE600" cx="1665.044" cy="1287.145" r="7.513"/>
		</g>
		<g>
			<circle fill="#FFFFFF" cx="1582.609" cy="1287.145" r="7.514"/>
			<circle fill="#FFE600" cx="1579.637" cy="1287.145" r="7.513"/>
		</g>
		<g>
			<circle fill="#FFFFFF" cx="1497.203" cy="1287.145" r="7.514"/>
			<circle fill="#FFE600" cx="1494.23" cy="1287.145" r="7.513"/>
		</g>
		<g>
			<circle fill="#FFFFFF" cx="1411.796" cy="1287.145" r="7.514"/>
			<circle fill="#FFE600" cx="1408.824" cy="1287.145" r="7.513"/>
		</g>
		<g>
			<circle fill="#FFFFFF" cx="1326.39" cy="1287.145" r="7.514"/>
			<circle fill="#FFE600" cx="1323.417" cy="1287.145" r="7.513"/>
		</g>
		<g>
			<circle fill="#FFFFFF" cx="1240.983" cy="1287.145" r="7.513"/>
			<circle fill="#FFE600" cx="1238.011" cy="1287.145" r="7.513"/>
		</g>
	</g>
	<g>
		<circle fill="#FFFFFF" cx="1327.236" cy="1027.675" r="7.513"/>
		<circle fill="#FFE600" cx="1324.264" cy="1027.675" r="7.514"/>
	</g>
	<g>
		<circle fill="#FFFFFF" cx="1412.642" cy="1027.675" r="7.513"/>
		<circle fill="#FFE600" cx="1409.67" cy="1027.675" r="7.514"/>
	</g>
	<g>
		<circle fill="#FFFFFF" cx="1241.829" cy="1027.675" r="7.514"/>
		<circle fill="#FFE600" cx="1238.857" cy="1027.675" r="7.513"/>
	</g>
	<g>
		<circle fill="#FFFFFF" cx="1156.422" cy="1027.675" r="7.514"/>
		<circle fill="#FFE600" cx="1153.45" cy="1027.675" r="7.513"/>
	</g>
	<g>
		<circle fill="#FFFFFF" cx="1071.016" cy="1027.675" r="7.514"/>
		<circle fill="#FFE600" cx="1068.043" cy="1027.675" r="7.513"/>
	</g>
	<g>
		<circle fill="#FFFFFF" cx="2186.969" cy="1027.675" r="7.513"/>
		<circle fill="#FFE600" cx="2183.997" cy="1027.675" r="7.514"/>
	</g>
	<g>
		<circle fill="#FFFFFF" cx="2272.375" cy="1027.675" r="7.513"/>
		<circle fill="#FFE600" cx="2269.403" cy="1027.675" r="7.514"/>
	</g>
	<g>
		<circle fill="#FFFFFF" cx="2101.562" cy="1027.675" r="7.514"/>
		<circle fill="#FFE600" cx="2098.59" cy="1027.675" r="7.513"/>
	</g>
	<g>
		<circle fill="#FFFFFF" cx="2016.155" cy="1027.675" r="7.514"/>
		<circle fill="#FFE600" cx="2013.183" cy="1027.675" r="7.513"/>
	</g>
	<g>
		<circle fill="#FFFFFF" cx="1930.749" cy="1027.675" r="7.514"/>
		<circle fill="#FFE600" cx="1927.776" cy="1027.675" r="7.513"/>
	</g>
	<g>
		<g>
			<circle fill="#FFFFFF" cx="1070.55" cy="1287.145" r="7.513"/>
			<circle fill="#FFE600" cx="1073.522" cy="1287.145" r="7.514"/>
		</g>
		<g>
			<circle fill="#FFFFFF" cx="985.144" cy="1287.145" r="7.514"/>
			<circle fill="#FFE600" cx="988.116" cy="1287.145" r="7.513"/>
		</g>
	</g>
	<g>
		<g>
			<circle fill="#FFFFFF" cx="811.822" cy="1287.145" r="7.513"/>
			<circle fill="#FFE600" cx="814.794" cy="1287.145" r="7.514"/>
		</g>
		<g>
			<circle fill="#FFFFFF" cx="726.416" cy="1287.145" r="7.514"/>
			<circle fill="#FFE600" cx="729.388" cy="1287.145" r="7.513"/>
		</g>
	</g>
	<g>
		<g>
			<circle fill="#FFFFFF" cx="2269.403" cy="1287.145" r="7.513"/>
			<circle fill="#FFE600" cx="2272.375" cy="1287.145" r="7.514"/>
		</g>
		<g>
			<circle fill="#FFFFFF" cx="2183.997" cy="1287.145" r="7.514"/>
			<circle fill="#FFE600" cx="2186.969" cy="1287.145" r="7.513"/>
		</g>
	</g>
	<g>
		<g>
			<circle fill="#FFFFFF" cx="1154.936" cy="1287.145" r="7.514"/>
			<circle fill="#FFE600" cx="1154.936" cy="1284.172" r="7.513"/>
		</g>
		<g>
			<circle fill="#FFFFFF" cx="1154.936" cy="1201.738" r="7.514"/>
			<circle fill="#FFE600" cx="1154.936" cy="1198.766" r="7.514"/>
		</g>
		<g>
			<circle fill="#FFFFFF" cx="1154.936" cy="1116.331" r="7.514"/>
			<circle fill="#FFE600" cx="1154.936" cy="1113.359" r="7.513"/>
		</g>
	</g>
	<g>
		<g>
			<circle fill="#FFFFFF" cx="900.202" cy="1287.145" r="7.514"/>
			<circle fill="#FFE600" cx="900.202" cy="1284.172" r="7.513"/>
		</g>
		<g>
			<circle fill="#FFFFFF" cx="900.202" cy="1201.738" r="7.514"/>
			<circle fill="#FFE600" cx="900.202" cy="1198.766" r="7.514"/>
		</g>
		<g>
			<circle fill="#FFFFFF" cx="900.202" cy="1116.331" r="7.514"/>
			<circle fill="#FFE600" cx="900.202" cy="1113.359" r="7.513"/>
		</g>
	</g>
	<g>
		<g>
			<circle fill="#FFFFFF" cx="2014.669" cy="1287.145" r="7.513"/>
			<circle fill="#FFE600" cx="2017.641" cy="1287.145" r="7.514"/>
		</g>
		<g>
			<circle fill="#FFFFFF" cx="1929.263" cy="1287.145" r="7.514"/>
			<circle fill="#FFE600" cx="1932.235" cy="1287.145" r="7.513"/>
		</g>
	</g>
	<g>
		<g>
			<circle fill="#FFFFFF" cx="2099.055" cy="1287.145" r="7.514"/>
			<circle fill="#FFE600" cx="2099.055" cy="1284.172" r="7.513"/>
		</g>
		<g>
			<circle fill="#FFFFFF" cx="2099.055" cy="1201.738" r="7.514"/>
			<circle fill="#FFE600" cx="2099.055" cy="1198.766" r="7.514"/>
		</g>
		<g>
			<circle fill="#FFFFFF" cx="2099.055" cy="1116.331" r="7.514"/>
			<circle fill="#FFE600" cx="2099.055" cy="1113.359" r="7.513"/>
		</g>
	</g>
	<g>
		<g>
			<circle fill="#FFFFFF" cx="1844.321" cy="1287.145" r="7.514"/>
			<circle fill="#FFE600" cx="1844.321" cy="1284.172" r="7.513"/>
		</g>
		<g>
			<circle fill="#FFFFFF" cx="1844.321" cy="1201.738" r="7.514"/>
			<circle fill="#FFE600" cx="1844.321" cy="1198.766" r="7.514"/>
		</g>
		<g>
			<circle fill="#FFFFFF" cx="1844.321" cy="1116.331" r="7.514"/>
			<circle fill="#FFE600" cx="1844.321" cy="1113.359" r="7.513"/>
		</g>
	</g>
</g>
<g>
	<g>
		<g>
			<circle fill="#FFFFFF" cx="1327.236" cy="1537.194" r="7.513"/>
			<circle fill="#FFE600" cx="1324.264" cy="1537.194" r="7.514"/>
		</g>
		<g>
			<circle fill="#FFFFFF" cx="1412.642" cy="1537.194" r="7.513"/>
			<circle fill="#FFE600" cx="1409.67" cy="1537.194" r="7.514"/>
		</g>
		<g>
			<circle fill="#FFFFFF" cx="1241.829" cy="1537.194" r="7.514"/>
			<circle fill="#FFE600" cx="1238.857" cy="1537.194" r="7.513"/>
		</g>
		<g>
			<circle fill="#FFFFFF" cx="1156.422" cy="1537.194" r="7.514"/>
			<circle fill="#FFE600" cx="1153.45" cy="1537.194" r="7.513"/>
		</g>
		<g>
			<circle fill="#FFFFFF" cx="1071.016" cy="1537.194" r="7.514"/>
			<circle fill="#FFE600" cx="1068.043" cy="1537.194" r="7.513"/>
		</g>
		<g>
			<circle fill="#FFFFFF" cx="985.609" cy="1537.194" r="7.514"/>
			<circle fill="#FFE600" cx="982.637" cy="1537.194" r="7.513"/>
		</g>
		<g>
			<circle fill="#FFFFFF" cx="900.202" cy="1537.194" r="7.514"/>
			<circle fill="#FFE600" cx="897.23" cy="1537.194" r="7.513"/>
		</g>
		<g>
			<circle fill="#FFFFFF" cx="814.796" cy="1537.194" r="7.514"/>
			<circle fill="#FFE600" cx="811.824" cy="1537.194" r="7.513"/>
		</g>
		<g>
			<circle fill="#FFFFFF" cx="729.389" cy="1537.194" r="7.513"/>
			<circle fill="#FFE600" cx="726.417" cy="1537.194" r="7.513"/>
		</g>
	</g>
	<g>
		<circle fill="#FFFFFF" cx="1327.236" cy="1537.194" r="7.513"/>
		<circle fill="#FFE600" cx="1324.264" cy="1537.194" r="7.514"/>
	</g>
	<g>
		<circle fill="#FFFFFF" cx="1412.642" cy="1537.194" r="7.513"/>
		<circle fill="#FFE600" cx="1409.67" cy="1537.194" r="7.514"/>
	</g>
	<g>
		<circle fill="#FFFFFF" cx="1241.829" cy="1537.194" r="7.514"/>
		<circle fill="#FFE600" cx="1238.857" cy="1537.194" r="7.513"/>
	</g>
	<g>
		<circle fill="#FFFFFF" cx="1156.422" cy="1537.194" r="7.514"/>
		<circle fill="#FFE600" cx="1153.45" cy="1537.194" r="7.513"/>
	</g>
	<g>
		<circle fill="#FFFFFF" cx="1071.016" cy="1537.194" r="7.514"/>
		<circle fill="#FFE600" cx="1068.043" cy="1537.194" r="7.513"/>
	</g>
	<g>
		<g>
			<circle fill="#FFFFFF" cx="2186.969" cy="1537.194" r="7.513"/>
			<circle fill="#FFE600" cx="2183.997" cy="1537.194" r="7.514"/>
		</g>
		<g>
			<circle fill="#FFFFFF" cx="2272.375" cy="1537.194" r="7.513"/>
			<circle fill="#FFE600" cx="2269.403" cy="1537.194" r="7.514"/>
		</g>
		<g>
			<circle fill="#FFFFFF" cx="2101.562" cy="1537.194" r="7.514"/>
			<circle fill="#FFE600" cx="2098.59" cy="1537.194" r="7.513"/>
		</g>
		<g>
			<circle fill="#FFFFFF" cx="2016.155" cy="1537.194" r="7.514"/>
			<circle fill="#FFE600" cx="2013.183" cy="1537.194" r="7.513"/>
		</g>
		<g>
			<circle fill="#FFFFFF" cx="1930.749" cy="1537.194" r="7.514"/>
			<circle fill="#FFE600" cx="1927.776" cy="1537.194" r="7.513"/>
		</g>
		<g>
			<circle fill="#FFFFFF" cx="1845.342" cy="1537.194" r="7.514"/>
			<circle fill="#FFE600" cx="1842.37" cy="1537.194" r="7.513"/>
		</g>
		<g>
			<circle fill="#FFFFFF" cx="1759.935" cy="1537.194" r="7.514"/>
			<circle fill="#FFE600" cx="1756.963" cy="1537.194" r="7.513"/>
		</g>
		<g>
			<circle fill="#FFFFFF" cx="1674.529" cy="1537.194" r="7.514"/>
			<circle fill="#FFE600" cx="1671.557" cy="1537.194" r="7.513"/>
		</g>
		<g>
			<circle fill="#FFFFFF" cx="1589.123" cy="1537.194" r="7.513"/>
			<circle fill="#FFE600" cx="1586.15" cy="1537.194" r="7.514"/>
		</g>
		<g>
			<circle fill="#FFFFFF" cx="1498.622" cy="1542.194" r="7.514"/>
			<circle fill="#FFE600" cx="1495.65" cy="1542.194" r="7.513"/>
		</g>
	</g>
	<g>
		<circle fill="#FFFFFF" cx="2186.969" cy="1537.194" r="7.513"/>
		<circle fill="#FFE600" cx="2183.997" cy="1537.194" r="7.514"/>
	</g>
	<g>
		<circle fill="#FFFFFF" cx="2272.375" cy="1537.194" r="7.513"/>
		<circle fill="#FFE600" cx="2269.403" cy="1537.194" r="7.514"/>
	</g>
	<g>
		<circle fill="#FFFFFF" cx="2272.861" cy="1456.605" r="7.513"/>
		<circle fill="#FFE600" cx="2269.889" cy="1456.605" r="7.513"/>
	</g>
	<g>
		<circle fill="#FFFFFF" cx="2272.861" cy="1372.227" r="7.513"/>
		<circle fill="#FFE600" cx="2269.889" cy="1372.227" r="7.513"/>
	</g>
	<g>
		<circle fill="#FFFFFF" cx="2101.562" cy="1537.194" r="7.514"/>
		<circle fill="#FFE600" cx="2098.59" cy="1537.194" r="7.513"/>
	</g>
	<g>
		<circle fill="#FFFFFF" cx="2016.155" cy="1537.194" r="7.514"/>
		<circle fill="#FFE600" cx="2013.183" cy="1537.194" r="7.513"/>
	</g>
	<g>
		<circle fill="#FFFFFF" cx="1930.749" cy="1537.194" r="7.514"/>
		<circle fill="#FFE600" cx="1927.776" cy="1537.194" r="7.513"/>
	</g>
	<g>
		<g>
			<circle fill="#FFFFFF" cx="1665.044" cy="1459.605" r="7.514"/>
			<circle fill="#FFE600" cx="1665.044" cy="1456.633" r="7.513"/>
		</g>
		<g>
			<circle fill="#FFFFFF" cx="1665.044" cy="1374.199" r="7.514"/>
			<circle fill="#FFE600" cx="1665.044" cy="1371.227" r="7.514"/>
		</g>
	</g>
	<g>
		<g>
			<circle fill="#FFFFFF" cx="1327.236" cy="1459.605" r="7.514"/>
			<circle fill="#FFE600" cx="1327.236" cy="1456.633" r="7.513"/>
		</g>
		<g>
			<circle fill="#FFFFFF" cx="1327.236" cy="1374.199" r="7.514"/>
			<circle fill="#FFE600" cx="1327.236" cy="1371.227" r="7.514"/>
		</g>
	</g>
	<g>
		<g>
			<circle fill="#FFFFFF" cx="1498.82" cy="1730.875" r="7.514"/>
			<circle fill="#FFE600" cx="1498.82" cy="1727.903" r="7.513"/>
		</g>
		<g>
			<circle fill="#FFFFFF" cx="1498.82" cy="1645.469" r="7.514"/>
			<circle fill="#FFE600" cx="1498.82" cy="1642.496" r="7.514"/>
		</g>
	</g>
	<g>
		<g>
			<circle fill="#FFFFFF" cx="1498.82" cy="1808.019" r="7.514"/>
			<circle fill="#FFE600" cx="1498.82" cy="1805.046" r="7.514"/>
		</g>
	</g>
</g>
<g>
	<path fill="#FFFFFF" d="M1470.806,1156.277c0,12.931-10.485,23.422-23.42,23.422c-12.936,0-23.424-10.491-23.424-23.422
		c0-12.94,10.488-23.425,23.424-23.425C1460.321,1132.853,1470.806,1143.337,1470.806,1156.277z"/>
	<path fill="#FFE600" d="M1465.976,1156.277c0,12.931-10.488,23.422-23.424,23.422c-12.935,0-23.423-10.491-23.423-23.422
		c0-12.94,10.489-23.425,23.423-23.425C1455.488,1132.853,1465.976,1143.337,1465.976,1156.277z"/>
</g>
<g>
	<path fill="#330033" d="M2030.044,1732.36c7.7,0,14-6.3,14-14v-107.178c0-7.7-6.3-14-14-14h-445.897c-7.7,0-14,6.3-14,14v259.09
		c0,7.7-6.3,14-14,14h-113.96c-7.7,0-14-6.3-14-14v-259.09c0-7.7-6.3-14-14-14H976.479c-7.7,0-14,6.3-14,14v107.179
		c0,7.7,6.3,14,14,14h311.841c7.7,0,14,6.3,14,14v123.796c0,7.7-6.3,14-14,14H-101c-7.7,0-14,6.3-14,14v111.492c0,7.7,6.3,14,14,14
		h3392c7.7,0,14-6.3,14-14v-111.492c0-7.7-6.3-14-14-14H1710.273c-7.7,0-14-6.3-14-14V1746.36c0-7.7,6.3-14,14-14H2030.044z"/>
	<path fill="none" stroke="#663386" stroke-width="13" stroke-miterlimit="10" d="M2030.044,1732.36c7.7,0,14-6.3,14-14v-107.178
		c0-7.7-6.3-14-14-14h-445.897c-7.7,0-14,6.3-14,14v259.09c0,7.7-6.3,14-14,14h-113.96c-7.7,0-14-6.3-14-14v-259.09
		c0-7.7-6.3-14-14-14H976.479c-7.7,0-14,6.3-14,14v107.179c0,7.7,6.3,14,14,14h311.841c7.7,0,14,6.3,14,14v123.796
		c0,7.7-6.3,14-14,14H-101c-7.7,0-14,6.3-14,14v111.492c0,7.7,6.3,14,14,14h3392c7.7,0,14-6.3,14-14v-111.492c0-7.7-6.3-14-14-14
		H1710.273c-7.7,0-14-6.3-14-14V1746.36c0-7.7,6.3-14,14-14H2030.044z"/>
</g>
<g>
	<g>
		<g>
			<circle fill="#FFFFFF" cx="1159.423" cy="1809.416" r="7.513"/>
			<circle fill="#FFE600" cx="1156.451" cy="1809.416" r="7.514"/>
		</g>
		<g>
			<circle fill="#FFFFFF" cx="1244.83" cy="1809.416" r="7.513"/>
			<circle fill="#FFE600" cx="1241.857" cy="1809.416" r="7.514"/>
		</g>
		<g>
			<circle fill="#FFFFFF" cx="1074.017" cy="1809.416" r="7.514"/>
			<circle fill="#FFE600" cx="1071.044" cy="1809.416" r="7.513"/>
		</g>
		<g>
			<circle fill="#FFFFFF" cx="988.61" cy="1809.416" r="7.514"/>
			<circle fill="#FFE600" cx="985.638" cy="1809.416" r="7.513"/>
		</g>
		<g>
			<circle fill="#FFFFFF" cx="903.203" cy="1809.416" r="7.514"/>
			<circle fill="#FFE600" cx="900.231" cy="1809.416" r="7.513"/>
		</g>
		<g>
			<circle fill="#FFFFFF" cx="817.796" cy="1809.416" r="7.514"/>
			<circle fill="#FFE600" cx="814.824" cy="1809.416" r="7.513"/>
		</g>
		<g>
			<circle fill="#FFFFFF" cx="732.39" cy="1809.416" r="7.514"/>
			<circle fill="#FFE600" cx="729.417" cy="1809.416" r="7.513"/>
		</g>
		<g>
			<circle fill="#FFFFFF" cx="646.983" cy="1809.416" r="7.514"/>
			<circle fill="#FFE600" cx="644.011" cy="1809.416" r="7.513"/>
		</g>
		<g>
			<circle fill="#FFFFFF" cx="561.577" cy="1809.416" r="7.513"/>
			<circle fill="#FFE600" cx="558.605" cy="1809.416" r="7.513"/>
		</g>
	</g>
	<g>
		<circle fill="#FFFFFF" cx="1074.017" cy="1809.416" r="7.514"/>
		<circle fill="#FFE600" cx="1071.044" cy="1809.416" r="7.513"/>
	</g>
	<g>
		<circle fill="#FFFFFF" cx="988.61" cy="1809.416" r="7.514"/>
		<circle fill="#FFE600" cx="985.638" cy="1809.416" r="7.513"/>
	</g>
	<g>
		<circle fill="#FFFFFF" cx="903.203" cy="1809.416" r="7.514"/>
		<circle fill="#FFE600" cx="900.231" cy="1809.416" r="7.513"/>
	</g>
</g>
<g>
	<g>
		<g>
			<circle fill="#FFFFFF" cx="2366.782" cy="1811.416" r="7.513"/>
			<circle fill="#FFE600" cx="2363.81" cy="1811.416" r="7.514"/>
		</g>
		<g>
			<circle fill="#FFFFFF" cx="2452.188" cy="1811.416" r="7.513"/>
			<circle fill="#FFE600" cx="2449.216" cy="1811.416" r="7.514"/>
		</g>
		<g>
			<circle fill="#FFFFFF" cx="2281.375" cy="1811.416" r="7.514"/>
			<circle fill="#FFE600" cx="2278.403" cy="1811.416" r="7.513"/>
		</g>
		<g>
			<circle fill="#FFFFFF" cx="2195.969" cy="1811.416" r="7.514"/>
			<circle fill="#FFE600" cx="2192.997" cy="1811.416" r="7.513"/>
		</g>
		<g>
			<circle fill="#FFFFFF" cx="2110.562" cy="1811.416" r="7.514"/>
			<circle fill="#FFE600" cx="2107.59" cy="1811.416" r="7.513"/>
		</g>
		<g>
			<circle fill="#FFFFFF" cx="2025.155" cy="1811.416" r="7.514"/>
			<circle fill="#FFE600" cx="2022.183" cy="1811.416" r="7.513"/>
		</g>
		<g>
			<circle fill="#FFFFFF" cx="1939.749" cy="1811.416" r="7.514"/>
			<circle fill="#FFE600" cx="1936.776" cy="1811.416" r="7.513"/>
		</g>
		<g>
			<circle fill="#FFFFFF" cx="1854.342" cy="1811.416" r="7.514"/>
			<circle fill="#FFE600" cx="1851.37" cy="1811.416" r="7.513"/>
		</g>
		<g>
			<circle fill="#FFFFFF" cx="1768.936" cy="1811.416" r="7.513"/>
			<circle fill="#FFE600" cx="1765.964" cy="1811.416" r="7.513"/>
		</g>
	</g>
	<g>
		<circle fill="#FFFFFF" cx="2281.375" cy="1811.416" r="7.514"/>
		<circle fill="#FFE600" cx="2278.403" cy="1811.416" r="7.513"/>
	</g>
	<g>
		<circle fill="#FFFFFF" cx="2195.969" cy="1811.416" r="7.514"/>
		<circle fill="#FFE600" cx="2192.997" cy="1811.416" r="7.513"/>
	</g>
	<g>
		<circle fill="#FFFFFF" cx="2110.562" cy="1811.416" r="7.514"/>
		<circle fill="#FFE600" cx="2107.59" cy="1811.416" r="7.513"/>
	</g>
</g>
<g>
	<g>
		<circle fill="#FFFFFF" cx="902.203" cy="1623.982" r="7.514"/>
		<circle fill="#FFE600" cx="899.23" cy="1623.982" r="7.513"/>
	</g>
	<g>
		<circle fill="#FFFFFF" cx="902.203" cy="1710.361" r="7.514"/>
		<circle fill="#FFE600" cx="899.23" cy="1710.361" r="7.513"/>
	</g>
</g>
<g>
	<g>
		<circle fill="#FFFFFF" cx="2097.534" cy="1623.982" r="7.514"/>
		<circle fill="#FFE600" cx="2094.562" cy="1623.982" r="7.513"/>
	</g>
	<g>
		<circle fill="#FFFFFF" cx="2097.534" cy="1710.361" r="7.514"/>
		<circle fill="#FFE600" cx="2094.562" cy="1710.361" r="7.513"/>
	</g>
</g>
<g>
	<path fill="#330033" d="M3334,1167.946c-1.65,0-3-6.3-3-14v-53.764c0-7.7-6.3-14-14-14H2190.109c-7.7,0-14,6.3-14,14v111.493
		c0,7.7,6.3,14,14,14h137.671c7.7,0,14,6.3,14,14v90.993c0,7.7-6.3,14-14,14h-552.845c-7.7,0-14,6.3-14,14l0,104.494
		c0,7.7,6.3,14,14,14h552.844c7.7,0,14,6.3,14,14v92.02c0,7.7-6.3,14-14,14h-153.253c-7.7,0-14,6.3-14,14v109.493
		c0,7.7,6.3,14,14,14H3322c7.7,0,14-6.3,14-14v-52.778c0-7.7,0.225-14,0.5-14s0.5-6.3,0.5-14v-457.951
		C3337,1174.246,3335.65,1167.946,3334,1167.946z"/>
	<path fill="none" stroke="#663386" stroke-width="13" stroke-miterlimit="10" d="M3334,1167.946c-1.65,0-3-6.3-3-14v-53.764
		c0-7.7-6.3-14-14-14H2190.109c-7.7,0-14,6.3-14,14v111.493c0,7.7,6.3,14,14,14h137.671c7.7,0,14,6.3,14,14v90.993
		c0,7.7-6.3,14-14,14h-552.845c-7.7,0-14,6.3-14,14l0,104.494c0,7.7,6.3,14,14,14h552.844c7.7,0,14,6.3,14,14v92.02
		c0,7.7-6.3,14-14,14h-153.253c-7.7,0-14,6.3-14,14v109.493c0,7.7,6.3,14,14,14H3322c7.7,0,14-6.3,14-14v-52.778
		c0-7.7,0.225-14,0.5-14s0.5-6.3,0.5-14v-457.951C3337,1174.246,3335.65,1167.946,3334,1167.946z"/>
</g>
<path fill="#FFE600" d="M1256.894,1835.553c-0.795,0-1.59-0.245-2.266-0.736l-12.771-9.278l-12.771,9.278
	c-0.675,0.491-1.471,0.736-2.266,0.736c-0.795,0-1.59-0.245-2.266-0.736c-1.351-0.981-1.916-2.722-1.4-4.309l4.878-15.013
	l-12.771-9.278c-1.351-0.981-1.917-2.722-1.4-4.31c0.516-1.588,1.996-2.663,3.666-2.663h15.785l4.878-15.013
	c0.516-1.589,1.996-2.664,3.666-2.664s3.15,1.075,3.666,2.664l4.878,15.013h15.785c1.67,0,3.15,1.075,3.666,2.663
	c0.516,1.588-0.049,3.328-1.4,4.31l-12.771,9.278l4.878,15.013c0.516,1.588-0.049,3.328-1.4,4.309
	C1258.484,1835.308,1257.688,1835.553,1256.894,1835.553z"/>
</svg>
