<?xml version="1.0" encoding="utf-8"?>
<!-- Generator: Adobe Illustrator 17.0.0, SVG Export Plug-In . SVG Version: 6.00 Build 0)  -->
<!DOCTYPE svg PUBLIC "-//W3C//DTD SVG 1.1//EN" "http://www.w3.org/Graphics/SVG/1.1/DTD/svg11.dtd">
<svg version="1.1" id="Слой_1" xmlns="http://www.w3.org/2000/svg" xmlns:xlink="http://www.w3.org/1999/xlink" x="0px" y="0px"
	 width="123.573px" height="108.891px" viewBox="0 0 123.573 108.891" enable-background="new 0 0 123.573 108.891"
	 xml:space="preserve">
<g>
	<g>
		<path fill="#999900" d="M26.647,108.891V53.615c0-17.754,14.39-32.143,32.143-32.143l0,0c17.753,0,32.143,14.389,32.143,32.143
			c0,0,0,28.014,0,37.964c0,9.949-9.075,17.312-24.703,17.312C50.603,108.891,26.647,108.891,26.647,108.891z"/>
	</g>
	<path fill="#999900" d="M26.999,73.88C26.999,93.527,0,84.368,0,108.891h40.99C40.99,108.891,26.999,54.231,26.999,73.88z"/>
	<rect x="45.378" y="72.241" fill="#CCCC00" width="45.554" height="3.277"/>
	<rect x="45.378" y="81.091" fill="#CCCC00" width="45.554" height="3.277"/>
	<rect x="45.378" y="89.94" fill="#CCCC00" width="45.554" height="3.277"/>
	<polygon fill="#CCCC00" points="85.729,102.067 45.378,102.067 45.378,98.788 88.331,98.788 	"/>
	<rect x="49.444" y="6.486" fill="#999900" width="3.893" height="19.026"/>
	<rect x="64.356" y="6.486" fill="#999900" width="3.893" height="19.026"/>
	<circle fill="#999900" cx="51.39" cy="5.185" r="5.186"/>
	<circle fill="#0C0000" cx="53.337" cy="5.185" r="1.481"/>
	<circle fill="#999900" cx="66.302" cy="5.185" r="5.186"/>
	<circle fill="#0C0000" cx="67.877" cy="5.185" r="1.481"/>
	<g>
		<g>
			<rect x="65.133" y="49.917" fill="#FF3399" width="28.995" height="24.384"/>
			<rect x="70.685" y="54.825" fill="#0C0000" width="15.986" height="14.566"/>
		</g>
	</g>
	<g>
		<g>
			<g>
				<rect x="96.719" y="62.525" fill="#813333" width="23.512" height="9.727"/>
				<path d="M120.231,72.363v-9.906h3.342v12.345C121.663,74.421,120.231,72.363,120.231,72.363z"/>
			</g>
			<g>
				<rect x="96.719" y="51.168" fill="#813333" width="23.512" height="9.729"/>
				<path d="M120.231,61.007v-9.906h3.342v12.345C121.663,63.062,120.231,61.007,120.231,61.007z"/>
			</g>
			<g>
				<path fill="#663399" d="M88.164,45.806c-7.668,0-14.609,7.297-14.609,16.303c0,9.002,6.941,16.302,14.609,16.302"/>
				<path fill="#813333" d="M88.991,78.41c7.668,0,13.885-7.3,13.885-16.302c0-9.004-6.217-16.303-13.885-16.303"/>
				<rect x="72.684" y="57.683" fill="#FFFFFF" width="19.557" height="8.85"/>
				<g>
					<path fill="#663399" d="M92.241,66.532c8.525,0.131,7.055,11.878,7.055,11.878H87.791c0,0-11.543-8.718-11.543-11.878
						C101.42,66.532,77.594,66.532,92.241,66.532z"/>
				</g>
				<g>
					<path fill="#663399" d="M92.241,57.683c8.525-0.13,7.055-11.877,7.055-11.877H87.791c0,0-11.543,8.717-11.543,11.877
						C101.42,57.683,77.594,57.683,92.241,57.683z"/>
				</g>
			</g>
		</g>
	</g>
</g>
</svg>
