<?xml version="1.0" encoding="utf-8"?>
<!-- Generator: Adobe Illustrator 17.0.0, SVG Export Plug-In . SVG Version: 6.00 Build 0)  -->
<!DOCTYPE svg PUBLIC "-//W3C//DTD SVG 1.1//EN" "http://www.w3.org/Graphics/SVG/1.1/DTD/svg11.dtd">
<svg version="1.1" id="Слой_1" xmlns="http://www.w3.org/2000/svg" xmlns:xlink="http://www.w3.org/1999/xlink" x="0px" y="0px"
	 width="90.933px" height="110.935px" viewBox="0 0 90.933 110.935" enable-background="new 0 0 90.933 110.935"
	 xml:space="preserve">
<g>
	<g>
		<rect x="40.491" y="6.486" fill="#999900" width="3.893" height="19.026"/>
		<rect x="55.403" y="6.486" fill="#999900" width="3.893" height="19.026"/>
		<circle fill="#999900" cx="42.437" cy="5.186" r="5.186"/>
		<circle fill="#0C0000" cx="44.383" cy="5.186" r="1.481"/>
		<circle fill="#999900" cx="57.349" cy="5.186" r="5.186"/>
		<circle fill="#0C0000" cx="58.924" cy="5.186" r="1.481"/>
	</g>
	<g>
		<path fill="#999900" d="M26.647,110.935V55.659c0-17.754,14.39-32.143,32.143-32.143l0,0c17.753,0,32.143,14.389,32.143,32.143
			c0,0,0,28.014,0,37.964c0,9.949-9.075,17.312-24.703,17.312C50.603,110.935,26.647,110.935,26.647,110.935z"/>
	</g>
	<g>
		<g>
			<rect x="29.508" y="21.34" fill="#FF3399" width="59.552" height="19.167"/>
			<rect x="35.059" y="26.248" fill="#0C0000" width="48.542" height="9.35"/>
		</g>
	</g>
	<g>
		<g>
			<g>
				<rect x="60.986" y="12.471" fill="#813333" width="9.728" height="23.512"/>
				<path d="M70.824,12.471h-9.906V9.129h12.345C72.881,11.039,70.824,12.471,70.824,12.471z"/>
			</g>
			<g>
				<rect x="49.628" y="12.471" fill="#813333" width="9.729" height="23.512"/>
				<path d="M59.467,12.471h-9.906V9.129h12.345C61.523,11.039,59.467,12.471,59.467,12.471z"/>
			</g>
		</g>
	</g>
	<path fill="#999900" d="M26.999,75.924C26.999,95.571,0,86.412,0,110.935h40.99C40.99,110.935,26.999,56.275,26.999,75.924z"/>
	<rect x="45.378" y="74.285" fill="#CCCC00" width="45.554" height="3.277"/>
	<rect x="45.378" y="83.135" fill="#CCCC00" width="45.554" height="3.277"/>
	<rect x="45.378" y="91.984" fill="#CCCC00" width="45.554" height="3.277"/>
	<polygon fill="#CCCC00" points="85.729,104.111 45.378,104.111 45.378,100.832 88.33,100.832 	"/>
</g>
</svg>
