<?xml version="1.0" encoding="utf-8"?>
<!-- Generator: Adobe Illustrator 17.0.0, SVG Export Plug-In . SVG Version: 6.00 Build 0)  -->
<!DOCTYPE svg PUBLIC "-//W3C//DTD SVG 1.1//EN" "http://www.w3.org/Graphics/SVG/1.1/DTD/svg11.dtd">
<svg version="1.1" id="Слой_1" xmlns="http://www.w3.org/2000/svg" xmlns:xlink="http://www.w3.org/1999/xlink" x="0px" y="0px"
	 width="90.933px" height="114.763px" viewBox="0 0 90.933 114.763" enable-background="new 0 0 90.933 114.763"
	 xml:space="preserve">
<g>
	<g>
		<path fill="#999900" d="M26.647,114.763v-64.56c0-17.754,14.39-32.142,32.143-32.142l0,0c17.753,0,32.143,14.389,32.143,32.142
			c0,0,0,37.298,0,47.248c0,9.949-9.075,17.312-24.703,17.312C50.603,114.763,26.647,114.763,26.647,114.763z"/>
	</g>
	<g>
		<g>
			<rect x="63.782" y="17.584" fill="#FF3399" width="24.697" height="19.167"/>
			<rect x="69.333" y="22.492" fill="#0C0000" width="13.688" height="9.35"/>
		</g>
	</g>
	<path fill="#999900" d="M26.999,79.752C26.999,99.399,0,90.24,0,114.763h40.99C40.99,114.763,26.999,60.104,26.999,79.752z"/>
	<rect x="45.378" y="78.113" fill="#CCCC00" width="45.554" height="3.277"/>
	<rect x="45.378" y="86.963" fill="#CCCC00" width="45.554" height="3.277"/>
	<rect x="45.378" y="95.813" fill="#CCCC00" width="45.554" height="3.277"/>
	<polygon fill="#CCCC00" points="85.729,107.939 45.378,107.939 45.378,104.66 88.33,104.66 	"/>
	<rect x="41.868" y="6.486" fill="#999900" width="3.893" height="19.026"/>
	<rect x="56.78" y="6.486" fill="#999900" width="3.892" height="19.026"/>
	<circle fill="#999900" cx="43.814" cy="5.186" r="5.186"/>
	<circle fill="#0C0000" cx="45.761" cy="5.186" r="1.481"/>
	<circle fill="#999900" cx="58.726" cy="5.186" r="5.186"/>
	<circle fill="#0C0000" cx="60.301" cy="5.186" r="1.481"/>
</g>
</svg>
