<?xml version="1.0" encoding="utf-8"?>
<!-- Generator: Adobe Illustrator 17.0.0, SVG Export Plug-In . SVG Version: 6.00 Build 0)  -->
<!DOCTYPE svg PUBLIC "-//W3C//DTD SVG 1.1//EN" "http://www.w3.org/Graphics/SVG/1.1/DTD/svg11.dtd">
<svg version="1.1" id="Слой_1" xmlns="http://www.w3.org/2000/svg" xmlns:xlink="http://www.w3.org/1999/xlink" x="0px" y="0px"
	 width="94.129px" height="96.891px" viewBox="0 0 94.129 96.891" enable-background="new 0 0 94.129 96.891" xml:space="preserve">
<g>
	<g>
		<path fill="#999900" d="M26.647,96.891V53.615c0-17.754,14.39-32.143,32.143-32.143l0,0c17.752,0,32.143,14.389,32.143,32.143
			c0,0,0,16.014,0,25.964c0,9.949-9.075,17.312-24.703,17.312C50.603,96.891,26.647,96.891,26.647,96.891z"/>
	</g>
	<path fill="#999900" d="M26.999,61.88C26.999,81.527,0,72.368,0,96.891h40.99C40.99,96.891,26.999,42.231,26.999,61.88z"/>
	<rect x="45.379" y="60.241" fill="#CCCC00" width="45.554" height="3.277"/>
	<rect x="45.379" y="69.091" fill="#CCCC00" width="45.554" height="3.277"/>
	<rect x="45.379" y="77.94" fill="#CCCC00" width="45.554" height="3.277"/>
	<polygon fill="#CCCC00" points="85.729,90.067 45.379,90.067 45.379,86.788 88.331,86.788 	"/>
	<rect x="48.444" y="6.486" fill="#999900" width="3.892" height="19.026"/>
	<rect x="63.357" y="6.486" fill="#999900" width="3.893" height="19.026"/>
	<circle fill="#999900" cx="50.39" cy="5.185" r="5.186"/>
	<circle fill="#0C0000" cx="52.337" cy="5.185" r="1.481"/>
	<circle fill="#999900" cx="65.302" cy="5.185" r="5.186"/>
	<circle fill="#0C0000" cx="66.877" cy="5.185" r="1.481"/>
	<g>
		<g>
			<rect x="51.856" y="41.122" fill="#FF3399" width="42.273" height="6.683"/>
		</g>
	</g>
</g>
</svg>
