<?xml version="1.0" encoding="utf-8"?>
<!-- Generator: Adobe Illustrator 17.0.0, SVG Export Plug-In . SVG Version: 6.00 Build 0)  -->
<!DOCTYPE svg PUBLIC "-//W3C//DTD SVG 1.1//EN" "http://www.w3.org/Graphics/SVG/1.1/DTD/svg11.dtd">
<svg version="1.1" id="Слой_1" xmlns="http://www.w3.org/2000/svg" xmlns:xlink="http://www.w3.org/1999/xlink" x="0px" y="0px"
	 width="1807.655px" height="270.456px" viewBox="0 0 1807.655 270.456" enable-background="new 0 0 1807.655 270.456"
	 xml:space="preserve">
<g>
	<g>
		<g>
			<path fill="#996633" d="M112.259,118.781c-11.597-6.089-26.175-9.049-44.568-9.049H44.224V58.626h68.283
				c4.873,0,8.824-3.951,8.824-8.824V38.668c0-4.873-3.951-8.824-8.824-8.824H23.152c-4.873,0-8.824,3.951-8.824,8.824v185.664
				c0,4.873,3.951,8.824,8.824,8.824h48.436c22.391,0,40.642-6.835,52.78-19.765c10.427-11.106,16.169-26.696,16.169-43.896
				C140.537,146.031,130.758,128.495,112.259,118.781z M110.085,169.495c0,13.654-4.873,21.171-8.961,25.072
				c-0.025,0.024-0.051,0.049-0.077,0.074c-9.954,9.731-24.124,9.731-34.471,9.731H44.224v-65.858H64.35
				c10.859,0,22.087,0,31.348,4.607C105.782,148.371,110.085,156.262,110.085,169.495z"/>
			<path fill="#996633" d="M319.543,28.419c-0.98-0.354-1.993-0.525-2.996-0.525c-2.574,0-5.08,1.128-6.789,3.186L192.872,171.787
				V38.668c0-4.873-3.951-8.824-8.824-8.824h-12.249c-4.873,0-8.824,3.951-8.824,8.824v190.396c0,3.718,2.33,7.036,5.826,8.299
				c0.98,0.355,1.993,0.525,2.996,0.525c2.574,0,5.08-1.128,6.789-3.186L295.475,93.995v130.337c0,4.873,3.951,8.824,8.824,8.824
				h12.247c4.873,0,8.824-3.951,8.824-8.824V36.718C325.37,33.001,323.04,29.682,319.543,28.419z"/>
			<path fill="#996633" d="M461.371,119.871c9.952-9.97,15.431-23.306,15.431-38.337c0-16.259-5.583-30.033-16.148-39.839
				c-10.203-9.662-23.195-14.358-39.718-14.358c-32.458,0-49.414,16.686-57.924,30.686c-2.258,3.715-1.474,8.522,1.849,11.326
				l8.907,7.517c1.603,1.353,3.622,2.081,5.69,2.081c0.439,0,0.88-0.033,1.319-0.1c2.513-0.38,4.74-1.825,6.111-3.965
				c8.088-12.624,18.77-18.761,32.655-18.761c9.271,0,15.796,2.376,20.535,7.479c4.213,4.564,6.271,10.438,6.271,17.935
				c0,8.538-2.99,15.814-8.648,21.043c-5.111,4.725-12.135,7.434-19.272,7.434h-16.701c-4.873,0-8.824,3.951-8.824,8.824v11.134
				c0,4.873,3.951,8.824,8.824,8.824h16.701c13.108,0,23.734,3.063,30.731,8.861c6.631,5.494,9.993,13.405,9.993,23.512
				c0,16.683-7.698,24.864-12.288,28.256c-0.017,0.013-0.033,0.024-0.05,0.037c-5.963,4.474-17.698,7.977-26.716,7.977
				c-15.318,0-35.507-8.846-43.636-28.266c-0.932-2.227-2.735-3.974-4.99-4.835c-1.016-0.389-2.084-0.582-3.149-0.582
				c-1.299,0-2.596,0.287-3.793,0.857l-11.691,5.567c-4.354,2.074-6.237,7.259-4.228,11.644
				c5.698,12.431,14.438,23.038,25.277,30.677c12.919,9.104,28.185,13.719,45.375,13.719c4.535,0,28.042-0.645,45.552-13.379
				c7.461-5.444,24.789-21.362,24.789-51.673C489.607,148.512,479.119,130.005,461.371,119.871z"/>
			<path fill="#996633" d="M657.82,29.843h-12.248c-4.873,0-8.824,3.951-8.824,8.824v69.95h-94.81v-69.95
				c0-4.873-3.951-8.824-8.824-8.824h-12.248c-4.873,0-8.824,3.951-8.824,8.824v185.664c0,4.873,3.951,8.824,8.824,8.824h12.248
				c4.873,0,8.824-3.951,8.824-8.824V137.4h94.81v86.932c0,4.873,3.951,8.824,8.824,8.824h12.248c4.873,0,8.824-3.951,8.824-8.824
				V38.668C666.644,33.794,662.693,29.843,657.82,29.843z"/>
			<path fill="#996633" d="M797.004,29.843h-89.075c-4.873,0-8.824,3.951-8.824,8.824v185.664c0,4.873,3.951,8.824,8.824,8.824
				h89.075c4.873,0,8.824-3.951,8.824-8.824v-11.135c0-4.873-3.951-8.824-8.824-8.824H729v-67.25h66.333
				c4.873,0,8.824-3.951,8.824-8.824v-11.135c0-4.873-3.951-8.824-8.824-8.824H729V58.626h68.003c4.873,0,8.824-3.951,8.824-8.824
				V38.668C805.828,33.794,801.877,29.843,797.004,29.843z"/>
			<path fill="#996633" d="M923.38,27.336c-28.227,0-54.654,10.795-74.413,30.396c-19.812,19.654-30.724,46-30.724,74.185
				c0,27.734,10.696,53.791,30.117,73.368c19.788,19.947,46.627,30.932,75.576,30.932c25.117,0,49.136-8.988,67.634-25.311
				c1.898-1.675,2.986-4.085,2.986-6.616v-16.145c0-3.637-2.232-6.901-5.62-8.222c-1.041-0.405-2.127-0.603-3.202-0.603
				c-2.423,0-4.795,0.999-6.5,2.854c-21.538,23.439-48.197,25.262-55.855,25.262c-17.607,0-36.32-7.127-50.059-19.062
				c-11.234-9.761-24.625-27.381-24.625-55.899c0-20.645,7.562-39.86,21.294-54.106c13.828-14.347,32.69-22.247,53.111-22.247
				c21.409,0,41.788,9.521,55.91,26.121c1.71,2.01,4.185,3.106,6.723,3.106c1.019,0,2.049-0.177,3.044-0.543
				c3.471-1.276,5.778-4.583,5.778-8.281V60.377c0-2.419-0.993-4.732-2.748-6.398C983.374,45.968,959.82,27.336,923.38,27.336z"/>
			<path fill="#996633" d="M1247.113,204.373h-12.332V38.668c0-4.873-3.95-8.824-8.824-8.824h-12.248
				c-4.873,0-8.824,3.951-8.824,8.824v165.705h-93.139V38.668c0-4.873-3.95-8.824-8.824-8.824h-12.249
				c-4.873,0-8.824,3.951-8.824,8.824v185.664c0,4.873,3.95,8.824,8.824,8.824h135.923v28.477c0,4.873,3.95,8.823,8.824,8.823
				h11.691c4.873,0,8.824-3.95,8.824-8.823v-48.436C1255.937,208.324,1251.986,204.373,1247.113,204.373z"/>
			<path fill="#996633" d="M1365.139,29.843h-89.075c-4.873,0-8.824,3.951-8.824,8.824v185.664c0,4.873,3.95,8.824,8.824,8.824
				h89.075c4.873,0,8.824-3.951,8.824-8.824v-11.135c0-4.873-3.95-8.824-8.824-8.824h-68.003v-67.25h66.333
				c4.873,0,8.824-3.951,8.824-8.824v-11.135c0-4.873-3.95-8.824-8.824-8.824h-66.333V58.626h68.003
				c4.873,0,8.824-3.951,8.824-8.824V38.668C1373.963,33.794,1370.012,29.843,1365.139,29.843z"/>
			<path fill="#996633" d="M1542.176,29.843h-12.248c-4.873,0-8.824,3.951-8.824,8.824v69.95h-94.809v-69.95
				c0-4.873-3.95-8.824-8.824-8.824h-12.248c-4.873,0-8.824,3.951-8.824,8.824v185.664c0,4.873,3.95,8.824,8.824,8.824h12.248
				c4.873,0,8.824-3.951,8.824-8.824V137.4h94.809v86.932c0,4.873,3.951,8.824,8.824,8.824h12.248c4.873,0,8.824-3.951,8.824-8.824
				V38.668C1551,33.794,1547.049,29.843,1542.176,29.843z"/>
			<path fill="#996633" d="M1679.69,29.843H1571.13c-4.873,0-8.824,3.951-8.824,8.824v11.134c0,4.873,3.951,8.824,8.824,8.824
				h39.333v165.706c0,4.873,3.951,8.824,8.824,8.824h12.248c4.873,0,8.824-3.951,8.824-8.824V58.626h39.333
				c4.873,0,8.824-3.951,8.824-8.824V38.668C1688.514,33.794,1684.563,29.843,1679.69,29.843z"/>
			<path fill="#996633" d="M1788.715,44.204c-11.281-9.395-26.553-14.36-44.164-14.36h-35.908c-4.873,0-8.824,3.951-8.824,8.824
				v185.664c0,4.873,3.951,8.824,8.824,8.824h12.248c4.873,0,8.824-3.951,8.824-8.824v-79.416h15.116
				c18.134,0,33.641-5.227,44.844-15.118c11.763-10.384,17.98-25.148,17.98-42.697C1807.655,69.354,1801.105,54.521,1788.715,44.204
				z M1745.386,116.133h-15.671V58.626h13.723c12.61,0,33.765,3.735,33.765,28.755
				C1777.203,105.384,1765.309,116.133,1745.386,116.133z"/>
		</g>
	</g>
	<g>
		
			<line fill="none" stroke="#000000" stroke-width="10.9752" stroke-miterlimit="10" x1="100.624" y1="11.331" x2="100.624" y2="183.631"/>
		
			<line fill="none" stroke="#000000" stroke-width="10.9752" stroke-miterlimit="10" x1="374.873" y1="188.32" x2="374.873" y2="24.737"/>
		
			<line fill="none" stroke="#000000" stroke-width="10.9752" stroke-miterlimit="10" x1="759.068" y1="11.331" x2="759.068" y2="201.726"/>
		
			<line fill="none" stroke="#000000" stroke-width="10.9752" stroke-miterlimit="10" x1="1569.402" y1="201.726" x2="1569.402" y2="11.331"/>
		
			<line fill="none" stroke="#000000" stroke-width="10.9752" stroke-miterlimit="10" x1="1657.203" y1="11.331" x2="1657.203" y2="201.726"/>
		
			<line fill="none" stroke="#000000" stroke-width="10.9752" stroke-miterlimit="10" x1="1773.472" y1="58.905" x2="1773.472" y2="204.726"/>
		
			<line fill="none" stroke="#000000" stroke-width="10.9752" stroke-miterlimit="10" x1="1343.654" y1="11.331" x2="1343.654" y2="201.726"/>
		
			<line fill="none" stroke="#000000" stroke-width="10.9752" stroke-miterlimit="10" x1="164.719" y1="42.684" x2="298.262" y2="42.684"/>
		
			<line fill="none" stroke="#000000" stroke-width="10.9752" stroke-miterlimit="10" x1="298.262" y1="168.123" x2="164.719" y2="168.123"/>
		
			<line fill="none" stroke="#000000" stroke-width="10.9752" stroke-miterlimit="10" x1="505.831" y1="42.684" x2="639.373" y2="42.684"/>
		
			<line fill="none" stroke="#000000" stroke-width="10.9752" stroke-miterlimit="10" x1="1394.018" y1="42.684" x2="1527.561" y2="42.684"/>
		
			<line fill="none" stroke="#000000" stroke-width="10.9752" stroke-miterlimit="10" x1="1087.486" y1="42.684" x2="1221.028" y2="42.684"/>
		
			<line fill="none" stroke="#000000" stroke-width="10.9752" stroke-miterlimit="10" x1="639.373" y1="168.123" x2="505.831" y2="168.123"/>
		
			<line fill="none" stroke="#000000" stroke-width="10.9752" stroke-miterlimit="10" x1="955.22" y1="24.141" x2="955.22" y2="188.916"/>
		
			<line fill="none" stroke="#000000" stroke-width="10.9752" stroke-miterlimit="10" x1="1394.018" y1="169.32" x2="1527.561" y2="169.32"/>
	</g>
	<g>
		<g>
			<path fill="#FFFFFF" d="M8.824,201.407c-2.437,0-4.412-1.976-4.412-4.412V11.331c0-2.437,1.976-4.412,4.412-4.412h89.354
				c2.437,0,4.412,1.976,4.412,4.412v11.134c0,2.437-1.976,4.412-4.412,4.412H25.484v59.931h27.878
				c56.562,0,68.435,30.1,68.435,55.351c0,28.643-16.954,59.249-64.537,59.249H8.824z M52.249,181.448
				c10.479,0,26.316,0,37.555-10.989c4.75-4.533,10.365-13.087,10.365-28.301c0-14.936-5.189-24.287-16.827-30.32
				c-10.146-5.072-22.458-5.072-33.321-5.072H25.484v74.683H52.249z"/>
			<path fill="#FFCC00" d="M98.178,11.331v11.134H21.072v68.755h32.29c22.547,0,64.023,4.453,64.023,50.939
				c0,27.837-16.701,54.837-60.125,54.837H8.824V11.331H98.178 M21.072,185.86h31.177c10.855,0,28.114,0,40.64-12.247
				c6.124-5.845,11.692-15.866,11.692-31.455c0-13.917-4.177-26.444-19.208-34.237c-11.135-5.567-23.938-5.567-35.352-5.567H21.072
				V185.86 M98.178,2.507H8.824C3.951,2.507,0,6.457,0,11.331v185.664c0,4.873,3.951,8.824,8.824,8.824h48.435
				c22.391,0,40.642-6.834,52.78-19.764c10.427-11.107,16.169-26.696,16.169-43.897c0-23.464-9.778-41-28.278-50.714
				c-11.597-6.089-26.175-9.049-44.568-9.049H29.896V31.288h68.283c4.873,0,8.824-3.951,8.824-8.824V11.331
				C107.002,6.457,103.051,2.507,98.178,2.507L98.178,2.507z M29.896,111.177h20.125c10.86,0,22.089,0,31.35,4.608
				c10.083,5.25,14.386,13.141,14.386,26.373c0,13.654-4.873,21.171-8.961,25.072c-0.026,0.025-0.051,0.049-0.077,0.074
				c-9.953,9.732-24.124,9.732-34.471,9.732H29.896V111.177L29.896,111.177z"/>
		</g>
		<g>
			<path fill="#FFFFFF" d="M157.469,206.138c-0.501,0-1.007-0.086-1.498-0.263c-1.749-0.631-2.914-2.291-2.914-4.149V11.331
				c0-2.437,1.976-4.412,4.412-4.412h12.249c2.437,0,4.412,1.976,4.412,4.412v145.334L298.824,6.562
				c0.854-1.029,2.107-1.593,3.395-1.593c0.501,0,1.008,0.085,1.498,0.263c1.749,0.631,2.914,2.291,2.914,4.149v187.613
				c0,2.437-1.976,4.412-4.412,4.412H289.97c-2.437,0-4.412-1.976-4.412-4.412V54.442L160.864,204.545
				C160.009,205.574,158.756,206.138,157.469,206.138z"/>
			<path fill="#FFCC00" d="M302.217,9.381v187.613H289.97V42.227l-132.5,159.499V11.331h12.249v157.55L302.217,9.381 M302.219,0.557
				c-2.574,0-5.079,1.128-6.789,3.186L178.543,144.45V11.331c0-4.873-3.951-8.824-8.824-8.824H157.47
				c-4.873,0-8.824,3.951-8.824,8.824v190.396c0,3.717,2.33,7.036,5.826,8.299c0.98,0.354,1.993,0.525,2.996,0.525
				c2.574,0,5.079-1.128,6.789-3.186L281.146,66.658v130.337c0,4.873,3.951,8.824,8.824,8.824h12.247
				c4.873,0,8.824-3.951,8.824-8.824V9.381c0-3.717-2.33-7.036-5.826-8.299C304.235,0.728,303.221,0.557,302.219,0.557
				L302.219,0.557z"/>
		</g>
		<g>
			<path fill="#FFFFFF" d="M404.937,204.469c-29.725,0-54.638-15.635-66.642-41.823c-1.005-2.191-0.063-4.784,2.114-5.821
				l11.691-5.567c0.599-0.285,1.247-0.429,1.897-0.429c0.533,0,1.067,0.097,1.575,0.291c1.127,0.431,2.029,1.305,2.495,2.418
				c8.908,21.28,30.973,30.973,47.706,30.973c10.007,0,22.63-3.809,29.363-8.859c5.282-3.904,14.102-13.204,14.102-31.822
				c0-23.377-16.451-36.785-45.136-36.785h-16.701c-2.437,0-4.412-1.976-4.412-4.412V91.498c0-2.437,1.976-4.412,4.412-4.412h16.701
				c15.673,0,32.331-11.526,32.331-32.889c0-8.658-2.439-15.51-7.458-20.947c-5.623-6.054-13.175-8.878-23.758-8.878
				c-15.294,0-27.531,6.996-36.37,20.793c-0.686,1.07-1.799,1.792-3.055,1.982c-0.22,0.033-0.44,0.05-0.66,0.05
				c-1.035,0-2.044-0.364-2.845-1.041l-8.907-7.517c-1.662-1.402-2.054-3.806-0.925-5.663c7.921-13.031,23.747-28.565,54.154-28.565
				c15.358,0,27.368,4.312,36.717,13.181c9.766,9.043,14.737,21.371,14.737,36.604c0,16.272-6.611,29.962-18.82,39.389
				c19.731,8.485,31.625,27.004,31.625,50.243c0,28.287-16.062,43.062-22.967,48.101
				C431.489,203.865,409.232,204.469,404.937,204.469z"/>
			<path fill="#FFCC00" d="M406.608,8.824c9.742,0,22.825,1.671,33.681,11.97c7.516,6.96,13.361,17.537,13.361,33.403
				c0,20.042-10.855,33.403-24.496,40.64c24.496,6.125,37.301,25.889,37.301,48.992c0,22.268-10.856,37.021-21.155,44.537
				c-15.31,11.134-36.466,11.691-40.362,11.691c-33.124,0-53.444-19.207-62.631-39.249l11.691-5.567
				c10.021,23.94,34.238,33.682,51.775,33.682c10.577,0,24.217-3.896,32.011-9.742c6.402-4.733,15.866-15.311,15.866-35.352
				c0-25.887-18.649-41.197-49.548-41.197h-16.701V91.498h16.701c18.371,0,36.743-13.64,36.743-37.301
				c0-8.073-1.948-16.702-8.629-23.939c-7.237-7.793-16.701-10.298-27-10.298c-13.64,0-28.672,5.011-40.085,22.825l-8.907-7.517
				C364.854,21.072,380.163,8.824,406.608,8.824 M406.608,0c-32.457,0-49.414,16.686-57.924,30.685
				c-2.259,3.716-1.474,8.523,1.849,11.327l8.907,7.517c1.602,1.352,3.622,2.08,5.69,2.08c0.439,0,0.88-0.033,1.319-0.099
				c2.513-0.38,4.74-1.825,6.111-3.965c8.088-12.624,18.77-18.761,32.655-18.761c9.271,0,15.796,2.376,20.534,7.479
				c4.214,4.565,6.271,10.438,6.271,17.935c0,8.538-2.99,15.814-8.648,21.043c-5.111,4.724-12.136,7.434-19.272,7.434h-16.701
				c-4.873,0-8.824,3.951-8.824,8.824v11.134c0,4.873,3.951,8.824,8.824,8.824h16.701c13.108,0,23.734,3.064,30.731,8.862
				c6.631,5.494,9.993,13.405,9.993,23.512c0,16.682-7.698,24.864-12.287,28.256c-0.017,0.012-0.033,0.025-0.05,0.037
				c-5.963,4.473-17.698,7.977-26.716,7.977c-15.318,0-35.507-8.845-43.636-28.265c-0.932-2.227-2.735-3.974-4.99-4.836
				c-1.016-0.388-2.084-0.581-3.149-0.581c-1.3,0-2.596,0.287-3.794,0.857l-11.691,5.567c-4.354,2.074-6.237,7.259-4.228,11.643
				c5.698,12.43,14.438,23.038,25.277,30.676c12.919,9.104,28.185,13.72,45.375,13.72c4.535,0,28.042-0.645,45.552-13.379
				c7.462-5.445,24.789-21.362,24.789-51.673c0-22.653-10.488-41.16-28.236-51.295c9.952-9.97,15.431-23.306,15.431-38.337
				c0-16.261-5.585-30.037-16.153-39.843C436.119,4.695,423.128,0,406.608,0L406.608,0z"/>
		</g>
		<g>
			<path fill="#FFFFFF" d="M631.244,201.407c-2.437,0-4.412-1.976-4.412-4.412v-91.344H523.199v91.344
				c0,2.437-1.976,4.412-4.412,4.412h-12.248c-2.437,0-4.412-1.976-4.412-4.412V11.331c0-2.437,1.976-4.412,4.412-4.412h12.248
				c2.437,0,4.412,1.976,4.412,4.412v74.362h103.633V11.331c0-2.437,1.976-4.412,4.412-4.412h12.248
				c2.437,0,4.412,1.976,4.412,4.412v185.664c0,2.437-1.976,4.412-4.412,4.412H631.244z"/>
			<path fill="#FFCC00" d="M643.492,11.331v185.664h-12.248v-95.756H518.787v95.756h-12.248V11.331h12.248v78.774h112.457V11.331
				H643.492 M643.492,2.507h-12.248c-4.873,0-8.824,3.951-8.824,8.824v69.951h-94.81V11.331c0-4.873-3.951-8.824-8.824-8.824
				h-12.248c-4.873,0-8.824,3.951-8.824,8.824v185.664c0,4.873,3.951,8.824,8.824,8.824h12.248c4.873,0,8.824-3.951,8.824-8.824
				v-86.932h94.81v86.932c0,4.873,3.951,8.824,8.824,8.824h12.248c4.873,0,8.824-3.951,8.824-8.824V11.331
				C652.315,6.457,648.365,2.507,643.492,2.507L643.492,2.507z"/>
		</g>
		<g>
			<path fill="#FFFFFF" d="M693.6,201.407c-2.437,0-4.412-1.976-4.412-4.412V11.331c0-2.437,1.976-4.412,4.412-4.412h89.075
				c2.437,0,4.412,1.976,4.412,4.412v11.134c0,2.437-1.976,4.412-4.412,4.412H710.26v58.538h70.745c2.437,0,4.412,1.976,4.412,4.412
				v11.135c0,2.437-1.976,4.412-4.412,4.412H710.26v76.074h72.415c2.437,0,4.412,1.976,4.412,4.412v11.135
				c0,2.437-1.976,4.412-4.412,4.412H693.6z"/>
			<path fill="#FFCC00" d="M782.675,11.331v11.134h-76.827v67.362h75.157v11.135h-75.157v84.898h76.827v11.135H693.6V11.331H782.675
				 M782.675,2.507H693.6c-4.873,0-8.824,3.951-8.824,8.824v185.664c0,4.873,3.951,8.824,8.824,8.824h89.075
				c4.873,0,8.824-3.951,8.824-8.824V185.86c0-4.873-3.951-8.824-8.824-8.824h-68.003v-67.251h66.333
				c4.873,0,8.824-3.951,8.824-8.824V89.827c0-4.873-3.951-8.824-8.824-8.824h-66.333V31.288h68.003
				c4.873,0,8.824-3.951,8.824-8.824V11.331C791.499,6.457,787.548,2.507,782.675,2.507L782.675,2.507z"/>
		</g>
		<g>
			<path fill="#FFFFFF" d="M909.607,204.469c-27.763,0-53.49-10.522-72.443-29.628c-18.596-18.745-28.837-43.698-28.837-70.261
				c0-27,10.448-52.233,29.419-71.053c18.927-18.776,44.25-29.116,71.306-29.116c34.854,0,57.34,17.784,65.39,25.43
				c0.877,0.833,1.374,1.989,1.374,3.199v16.146c0,1.849-1.153,3.502-2.889,4.141c-0.498,0.183-1.013,0.271-1.522,0.271
				c-1.27,0-2.507-0.548-3.361-1.553c-14.962-17.587-36.564-27.674-59.27-27.674c-44.197,0-78.818,35.477-78.818,80.766
				c0,54.748,46.253,79.373,79.096,79.373c8.112,0,36.349-1.924,59.103-26.688c0.853-0.927,2.039-1.427,3.25-1.427
				c0.538,0,1.08,0.099,1.601,0.302c1.694,0.66,2.811,2.292,2.811,4.11v16.146c0,1.266-0.544,2.471-1.493,3.309
				C956.631,195.873,933.648,204.469,909.607,204.469z"/>
			<path fill="#FFCC00" d="M909.051,8.824c35.352,0,56.785,18.93,62.353,24.217v16.146c-15.866-18.65-38.692-29.227-62.631-29.227
				c-47.6,0-83.229,38.135-83.229,85.178c0,55.113,45.929,83.785,83.508,83.785c18.649,0,43.424-7.515,62.353-28.114v16.146
				c-18.929,16.702-41.754,23.103-61.796,23.103c-55.672,0-96.869-43.701-96.869-95.477C812.739,51.135,855.606,8.824,909.051,8.824
				 M909.051,0c-28.227,0-54.654,10.795-74.413,30.396c-19.812,19.654-30.724,46-30.724,74.185
				c0,27.735,10.696,53.791,30.117,73.368c19.787,19.947,46.628,30.932,75.576,30.932c25.116,0,49.136-8.989,67.634-25.311
				c1.898-1.675,2.986-4.085,2.986-6.616v-16.146c0-3.637-2.231-6.901-5.62-8.222c-1.041-0.406-2.127-0.602-3.202-0.603
				c-2.423,0-4.795,0.999-6.499,2.854c-21.538,23.439-48.197,25.261-55.855,25.261c-17.607,0-36.321-7.126-50.059-19.062
				c-11.234-9.76-24.625-27.381-24.625-55.899c0-20.645,7.562-39.86,21.294-54.106c13.828-14.347,32.691-22.248,53.112-22.248
				c21.409,0,41.788,9.521,55.91,26.121c1.71,2.01,4.185,3.107,6.723,3.107c1.02,0,2.049-0.177,3.044-0.543
				c3.471-1.277,5.778-4.583,5.778-8.281V33.041c0-2.419-0.993-4.732-2.748-6.398C969.045,18.632,945.492,0,909.051,0L909.051,0z"/>
		</g>
		<g>
			<path fill="#FFFFFF" d="M1221.094,238.708c-2.437,0-4.412-1.976-4.412-4.412v-32.889h-140.335c-2.437,0-4.412-1.976-4.412-4.412
				V11.331c0-2.437,1.976-4.412,4.412-4.412h12.248c2.437,0,4.412,1.976,4.412,4.412v170.117h101.963V11.331
				c0-2.437,1.976-4.412,4.412-4.412h12.247c2.437,0,4.412,1.976,4.412,4.412v170.117h16.743c2.437,0,4.412,1.976,4.412,4.412
				v48.436c0,2.437-1.976,4.412-4.412,4.412H1221.094z"/>
			<path fill="#FFCC00" d="M1211.629,11.331V185.86h21.155v48.436h-11.691v-37.301h-144.747V11.331h12.249V185.86h110.787V11.331
				H1211.629 M1211.629,2.507h-12.248c-4.873,0-8.824,3.951-8.824,8.824v165.706h-93.139V11.331c0-4.873-3.951-8.824-8.824-8.824
				h-12.249c-4.873,0-8.824,3.951-8.824,8.824v185.664c0,4.873,3.951,8.824,8.824,8.824h135.923v28.477
				c0,4.873,3.951,8.824,8.824,8.824h11.691c4.873,0,8.824-3.951,8.824-8.824V185.86c0-4.873-3.951-8.824-8.824-8.824h-12.332
				V11.331C1220.453,6.457,1216.502,2.507,1211.629,2.507L1211.629,2.507z"/>
		</g>
		<g>
			<path fill="#FFFFFF" d="M1261.735,201.407c-2.437,0-4.412-1.976-4.412-4.412V11.331c0-2.437,1.976-4.412,4.412-4.412h89.075
				c2.437,0,4.412,1.976,4.412,4.412v11.134c0,2.437-1.976,4.412-4.412,4.412h-72.415v58.538h70.744
				c2.437,0,4.412,1.976,4.412,4.412v11.135c0,2.437-1.976,4.412-4.412,4.412h-70.744v76.074h72.415
				c2.437,0,4.412,1.976,4.412,4.412v11.135c0,2.437-1.976,4.412-4.412,4.412H1261.735z"/>
			<path fill="#FFCC00" d="M1350.81,11.331v11.134h-76.827v67.362h75.157v11.135h-75.157v84.898h76.827v11.135h-89.075V11.331
				H1350.81 M1350.81,2.507h-89.075c-4.873,0-8.824,3.951-8.824,8.824v185.664c0,4.873,3.95,8.824,8.824,8.824h89.075
				c4.873,0,8.824-3.951,8.824-8.824V185.86c0-4.873-3.95-8.824-8.824-8.824h-68.003v-67.251h66.333
				c4.873,0,8.824-3.951,8.824-8.824V89.827c0-4.873-3.95-8.824-8.824-8.824h-66.333V31.288h68.003c4.873,0,8.824-3.951,8.824-8.824
				V11.331C1359.634,6.457,1355.684,2.507,1350.81,2.507L1350.81,2.507z"/>
		</g>
		<g>
			<path fill="#FFFFFF" d="M1515.599,201.407c-2.437,0-4.412-1.976-4.412-4.412v-91.344h-103.632v91.344
				c0,2.437-1.976,4.412-4.412,4.412h-12.248c-2.437,0-4.412-1.976-4.412-4.412V11.331c0-2.437,1.976-4.412,4.412-4.412h12.248
				c2.437,0,4.412,1.976,4.412,4.412v74.362h103.632V11.331c0-2.437,1.976-4.412,4.412-4.412h12.249
				c2.437,0,4.412,1.976,4.412,4.412v185.664c0,2.437-1.976,4.412-4.412,4.412H1515.599z"/>
			<path fill="#FFCC00" d="M1527.847,11.331v185.664h-12.248v-95.756h-112.457v95.756h-12.248V11.331h12.248v78.774h112.457V11.331
				H1527.847 M1527.847,2.507h-12.248c-4.873,0-8.824,3.951-8.824,8.824v69.951h-94.809V11.331c0-4.873-3.951-8.824-8.824-8.824
				h-12.248c-4.873,0-8.824,3.951-8.824,8.824v185.664c0,4.873,3.95,8.824,8.824,8.824h12.248c4.873,0,8.824-3.951,8.824-8.824
				v-86.932h94.809v86.932c0,4.873,3.951,8.824,8.824,8.824h12.248c4.873,0,8.824-3.951,8.824-8.824V11.331
				C1536.671,6.457,1532.72,2.507,1527.847,2.507L1527.847,2.507z"/>
		</g>
		<g>
			<path fill="#FFFFFF" d="M1604.957,201.407c-2.437,0-4.412-1.976-4.412-4.412V26.876h-43.743c-2.437,0-4.412-1.976-4.412-4.412
				V11.331c0-2.437,1.976-4.412,4.412-4.412h108.56c2.437,0,4.412,1.976,4.412,4.412v11.134c0,2.437-1.976,4.412-4.412,4.412
				h-43.743v170.118c0,2.437-1.976,4.412-4.412,4.412H1604.957z"/>
			<path fill="#FFCC00" d="M1665.362,11.331v11.134h-48.156v174.53h-12.248V22.464h-48.156V11.331H1665.362 M1665.362,2.507
				h-108.561c-4.873,0-8.824,3.951-8.824,8.824v11.134c0,4.873,3.95,8.824,8.824,8.824h39.332v165.706
				c0,4.873,3.951,8.824,8.824,8.824h12.248c4.873,0,8.824-3.951,8.824-8.824V31.288h39.333c4.873,0,8.824-3.951,8.824-8.824V11.331
				C1674.186,6.457,1670.235,2.507,1665.362,2.507L1665.362,2.507z"/>
		</g>
		<g>
			<path fill="#FFFFFF" d="M1694.314,201.407c-2.437,0-4.412-1.976-4.412-4.412V11.331c0-2.437,1.976-4.412,4.412-4.412h35.908
				c16.566,0,30.861,4.612,41.341,13.338c11.352,9.452,17.352,23.113,17.352,39.506c0,32.441-22.929,53.403-58.413,53.403h-19.528
				v83.828c0,2.437-1.976,4.412-4.412,4.412H1694.314z M1731.058,93.208c22.347,0,36.229-12.708,36.229-33.164
				c0-21.078-13.915-33.167-38.178-33.167h-18.135v66.331H1731.058z"/>
			<path fill="#FFCC00" d="M1730.222,11.331c30.341,0,54.28,16.7,54.28,48.433c0,30.898-21.99,48.991-54.001,48.991h-23.939v88.24
				h-12.248V11.331H1730.222 M1706.562,97.62h24.495c24.217,0,40.641-14.195,40.641-37.576c0-23.104-15.588-37.579-42.589-37.579
				h-22.547V97.62 M1730.222,2.507h-35.908c-4.873,0-8.824,3.951-8.824,8.824v185.664c0,4.873,3.951,8.824,8.824,8.824h12.248
				c4.873,0,8.824-3.951,8.824-8.824v-79.416h15.116c18.134,0,33.641-5.228,44.844-15.118
				c11.763-10.384,17.981-25.149,17.981-42.697c0-17.746-6.549-32.579-18.94-42.897C1763.105,7.472,1747.833,2.507,1730.222,2.507
				L1730.222,2.507z M1715.386,31.288h13.723c12.61,0,33.765,3.736,33.765,28.755c0,18.004-11.894,28.752-31.817,28.752h-15.671
				V31.288L1715.386,31.288z"/>
		</g>
	</g>
</g>
</svg>
