<?xml version="1.0" encoding="utf-8"?>
<!-- Generator: Adobe Illustrator 17.0.0, SVG Export Plug-In . SVG Version: 6.00 Build 0)  -->
<!DOCTYPE svg PUBLIC "-//W3C//DTD SVG 1.1//EN" "http://www.w3.org/Graphics/SVG/1.1/DTD/svg11.dtd">
<svg version="1.1" id="Слой_1" xmlns="http://www.w3.org/2000/svg" xmlns:xlink="http://www.w3.org/1999/xlink" x="0px" y="0px"
	 width="100.638px" height="100.639px" viewBox="0 0 100.638 100.639" enable-background="new 0 0 100.638 100.639"
	 xml:space="preserve">
<g>
	<polygon fill="#FFFFFF" points="30.934,96.76 30.969,69.566 3.773,69.451 23.027,50.244 3.878,30.934 31.075,30.969 31.189,3.772 
		50.395,23.025 69.706,3.877 69.671,31.072 96.865,31.188 77.612,50.393 96.761,69.703 69.567,69.67 69.452,96.865 50.246,77.611 	
		"/>
	<polygon fill="#FF9900" points="49.569,100.639 39.5,75.375 14.207,85.369 24.952,60.387 0,49.568 25.263,39.5 15.268,14.209 
		40.251,24.951 51.069,0 61.138,25.26 86.429,15.268 75.687,40.252 100.638,51.068 75.377,61.139 85.37,86.432 60.387,75.688 	"/>
	<rect x="32.586" y="32.586" fill="#FFE600" width="35.467" height="35.465"/>
	
		<rect x="36.726" y="36.726" transform="matrix(0.7071 0.7071 -0.7071 0.7071 50.3183 -20.8429)" fill="#FF9900" width="27.185" height="27.185"/>
</g>
</svg>
