<?xml version="1.0" encoding="utf-8"?>
<!-- Generator: Adobe Illustrator 17.0.0, SVG Export Plug-In . SVG Version: 6.00 Build 0)  -->
<!DOCTYPE svg PUBLIC "-//W3C//DTD SVG 1.1//EN" "http://www.w3.org/Graphics/SVG/1.1/DTD/svg11.dtd">
<svg version="1.1" id="Слой_1" xmlns="http://www.w3.org/2000/svg" xmlns:xlink="http://www.w3.org/1999/xlink" x="0px" y="0px"
	 width="133.354px" height="83.213px" viewBox="0 0 133.354 83.213" enable-background="new 0 0 133.354 83.213"
	 xml:space="preserve">
<g>
	<g>
		<circle cx="90.162" cy="22.1" r="7.938"/>
		<g>
			<circle cx="94.026" cy="34.633" r="7.938"/>
			<ellipse cx="80.03" cy="34.633" rx="16.712" ry="7.939"/>
			<circle cx="65.407" cy="35.051" r="7.938"/>
		</g>
	</g>
	<g>
		<g>
			<g>
				<path fill="#FF8A33" d="M100.046,45.17c0.529,0.35,0.992,0.742,1.323,1.218c0.322,0.491,0.542,1.009,0.649,1.517
					c0.217,1.02-0.029,1.989-0.702,2.731c-0.674,0.742-1.622,1.146-2.541,1.252c-0.461,0.051-0.917,0.025-1.346-0.088
					c-0.437-0.104-0.896-0.242-1.291-0.507c-0.776-0.546-1.37-1.276-1.667-2.169c-0.286-0.9-0.31-1.912,0.097-2.817
					c0.416-0.924,1.208-1.56,2.206-1.774C97.77,44.309,98.993,44.446,100.046,45.17z"/>
				<path fill="#CC66FF" d="M96.109,51.34c0,0-0.247-0.16-0.68-0.44c-0.436-0.277-1.126-0.589-1.916-1.013
					c-1.645-0.753-3.929-1.657-6.384-2.207c-2.441-0.576-4.973-0.901-6.882-1.047c-0.955-0.077-1.753-0.111-2.313-0.124
					c-0.559-0.025-0.878-0.021-0.878-0.021c-2.08-0.032-3.812-1.544-4.029-3.565c-0.221-2.031,1.689-3.845,4.116-3.807
					c0,0,5.869-0.016,11.685,1.388c2.91,0.657,5.766,1.756,7.857,2.725c1.03,0.539,1.901,0.956,2.483,1.315
					c0.578,0.37,0.909,0.581,0.909,0.581"/>
			</g>
		</g>
	</g>
	<g>
		<g>
			<g>
				<path fill="#FF8A33" d="M44.311,34.575c-1.321-2.193-0.948-4.743,0.821-5.687c1.769-0.944,4.128-0.185,5.253,1.703
					c1.262,1.746,0.993,4.224-0.503,5.472C48.296,37.38,45.823,36.694,44.311,34.575z"/>
				<path fill="#CC66FF" d="M50.431,30.559c0,0,0.786,1.099,1.964,2.746c0.628,0.776,1.394,1.64,2.205,2.571
					c0.892,0.805,1.774,1.789,2.801,2.489c1.977,1.554,4.159,2.569,5.817,2.975c0.415,0.086,0.796,0.165,1.134,0.235
					c0.337,0.034,0.632,0.064,0.874,0.088c0.242,0.029,0.432,0.048,0.56,0.037c0.128-0.001,0.197-0.002,0.197-0.002
					c0.903,0.043,1.697,0.301,2.451,0.845c0.738,0.512,1.379,1.252,1.797,2.181c0.423,0.927,0.159,2.035-0.639,2.902
					c-0.788,0.84-2.157,1.495-3.668,1.444c0,0-0.115,0-0.331-0.001c-0.217,0.008-0.53-0.012-0.926-0.055
					c-0.396-0.04-0.881-0.08-1.43-0.151c-0.538-0.111-1.146-0.237-1.809-0.373c-2.627-0.634-5.85-2.181-8.497-4.263
					c-1.395-0.986-2.511-2.185-3.646-3.244c-1.012-1.134-1.945-2.208-2.704-3.145c-1.388-1.941-2.314-3.235-2.314-3.235"/>
			</g>
		</g>
	</g>
	<g>
		<path d="M48.291,21.849c0.537-1.748,2.389-2.73,4.137-2.193l0,0c1.748,0.537,2.73,2.389,2.193,4.137l-4.727,15.392
			c-0.537,1.748-2.389,2.73-4.137,2.193l0,0c-1.748-0.537-2.729-2.389-2.193-4.137L48.291,21.849z"/>
		<circle cx="48.032" cy="38.683" r="4.695"/>
		<circle cx="53.359" cy="21.336" r="4.695"/>
	</g>
	<g>
		<circle fill="#FF8A33" cx="72.353" cy="19.742" r="18.886"/>
		<g>
			<circle fill="#5C3639" cx="74.412" cy="27.969" r="0.919"/>
			<circle fill="#5C3639" cx="60.037" cy="27.969" r="0.919"/>
		</g>
		<path d="M85.728,32.068c0-1.734-0.225-3.418-0.646-5.021c-2.22-8.436-9.901-14.658-19.035-14.658
			c-4.789,0-9.176,1.713-12.588,4.555C54.794,7.373,62.99,0,72.928,0C83.798,0,92.61,8.812,92.61,19.684
			c0,6.08-2.762,11.516-7.096,15.125C85.641,33.912,85.728,33.002,85.728,32.068z"/>
	</g>
	<path d="M81.43,10.156c5.314,4.266,8.006,10.527,7.768,16.596c-5.873,1.549-12.882-0.471-18.197-4.736
		c-5.317-4.266-9.178-10.652-9.037-14.219C67.837,6.252,76.112,5.893,81.43,10.156z"/>
	<g>
		<path fill="#FF8A33" d="M56.392,79.406l9.848,0.223c0,0-0.026-0.371,0.045-0.975c0.068-0.604,0.087-1.502,0.23-2.518
			c0.294-2.027,0.973-4.58,2.157-6.664c0.552-1.076,1.307-1.957,2.016-2.762c0.769-0.738,1.518-1.4,2.237-1.82
			c1.417-0.926,2.425-1.107,1.986-1.01l-2.332-9.57c-0.239,0.068-2.347,0.594-4.932,2.264c-1.318,0.799-2.691,1.949-4.043,3.291
			c-1.283,1.396-2.564,2.99-3.503,4.752c-1.979,3.49-2.929,7.309-3.337,10.115c-0.198,1.406-0.235,2.574-0.316,3.393
			C56.365,78.947,56.392,79.406,56.392,79.406z"/>
		<path d="M56.28,79.402l10.028,0.227l0.036,2.875l-12.479,0.709c0.172-1.117,0.776-2.092,1.337-2.76
			C55.764,79.781,56.28,79.402,56.28,79.402z"/>
	</g>
	<g>
		<path fill="#FF8A33" d="M70.892,79.186l9.85-0.139c0,0-0.175-6.965,0.371-13.871c0.11-1.729,0.31-3.439,0.448-5.055
			c0.196-1.594,0.365-3.094,0.555-4.35c0.191-1.26,0.352-2.305,0.487-2.996c0.123-0.645,0.193-1.014,0.193-1.014l-9.619-2.121
			c0,0-0.025,0.127-0.074,0.363c-0.042,0.225-0.104,0.555-0.184,0.975c-0.16,0.822-0.339,1.977-0.548,3.359
			c-0.209,1.385-0.392,2.992-0.603,4.717c-0.15,1.725-0.361,3.564-0.479,5.404C70.708,71.82,70.893,79.186,70.892,79.186z"/>
		<path d="M70.781,79.186l10.029-0.141l0.049,3.445l-12.492,0.432C68.723,80.787,70.781,79.186,70.781,79.186z"/>
	</g>
	<g>
		<rect x="62.911" y="43.779" fill="#CC66FF" width="21.386" height="12.809"/>
		<circle fill="#CC66FF" cx="72.931" cy="45.4" r="8.516"/>
	</g>
	
		<rect x="69.472" y="34.764" transform="matrix(0.7072 0.707 -0.707 0.7072 48.4848 -40.4148)" fill="#FF8A33" width="7.124" height="7.126"/>
	<g>
		<rect x="0" y="56.588" fill="#B57666" width="133.354" height="5.227"/>
		<rect x="7.373" y="61.105" fill="#993333" width="119.408" height="13.922"/>
		<rect x="6.973" y="61.105" fill="#993333" width="4.438" height="21.602"/>
		<rect x="122.343" y="61.105" fill="#993333" width="4.438" height="21.602"/>
	</g>
	<g>
		<rect x="10.816" y="41.217" width="16.337" height="5.779"/>
		<rect x="10.816" y="38.328" width="3.007" height="5.779"/>
		<rect x="24.145" y="38.328" width="3.008" height="5.779"/>
		<path d="M6.066,56.891c0-7.24,5.87-13.111,13.112-13.111s13.112,5.871,13.112,13.111"/>
		<circle fill="#999999" cx="19.178" cy="49.557" r="5.449"/>
		<circle fill="#FFFFFF" cx="19.178" cy="49.557" r="2.866"/>
	</g>
	<g>
		<g>
			<rect x="80.859" y="53.916" fill="#FFFFFF" width="27.645" height="2.975"/>
			<path fill="#FFFFFF" d="M126.537,56.734H95.252c-0.558,0-0.913-0.451-0.791-1.01l4.318-19.875c0.121-0.557,0.672-1.01,1.23-1.01
				h31.286c0.557,0,0.911,0.453,0.79,1.01l-4.318,19.875C127.645,56.283,127.095,56.734,126.537,56.734z"/>
		</g>
	</g>
</g>
</svg>
