<?xml version="1.0" encoding="utf-8"?>
<!-- Generator: Adobe Illustrator 17.0.0, SVG Export Plug-In . SVG Version: 6.00 Build 0)  -->
<!DOCTYPE svg PUBLIC "-//W3C//DTD SVG 1.1//EN" "http://www.w3.org/Graphics/SVG/1.1/DTD/svg11.dtd">
<svg version="1.1" id="Слой_1" xmlns="http://www.w3.org/2000/svg" xmlns:xlink="http://www.w3.org/1999/xlink" x="0px" y="0px"
	 width="78.822px" height="118.133px" viewBox="0 0 78.822 118.133" enable-background="new 0 0 78.822 118.133"
	 xml:space="preserve">
<g>
	<g>
		<polygon fill="#0C0000" points="45.856,74.816 36.344,74.816 36.344,65.303 		"/>
		<polygon fill="#0C0000" points="45.856,79.84 36.344,79.84 36.344,70.328 		"/>
		<polygon fill="#0C0000" points="45.856,84.865 36.344,84.865 36.344,75.354 		"/>
		<polygon fill="#0C0000" points="45.856,89.891 36.344,89.891 36.344,80.379 		"/>
		<polygon fill="#0C0000" points="45.856,94.26 36.344,94.26 36.344,84.746 		"/>
	</g>
	<g>
		<polygon fill="#0C0000" points="14.43,79.713 23.943,79.713 23.943,70.199 		"/>
		<polygon fill="#0C0000" points="14.43,84.736 23.943,84.736 23.943,75.225 		"/>
		<polygon fill="#0C0000" points="14.43,89.762 23.943,89.762 23.943,80.25 		"/>
		<polygon fill="#0C0000" points="14.43,94.787 23.943,94.787 23.943,85.275 		"/>
	</g>
	<g>
		<line fill="none" stroke="#0C0000" stroke-width="9" stroke-miterlimit="10" x1="38.124" y1="117.76" x2="38.124" y2="91.973"/>
	</g>
	<path fill="#993333" d="M31.232,118.133L31.232,118.133c0-2.332,1.889-4.221,4.22-4.221h4.962c2.331,0,4.219,1.889,4.219,4.219l0,0
		"/>
	<g>
		<path fill="none" stroke="#0C0000" stroke-width="9" stroke-miterlimit="10" d="M18.641,109.477c0,0,0-1.527,0-6.348
			c0-7.863,5.877-10.109,5.877-10.109"/>
	</g>
	<path fill="#993333" d="M21.695,91.322c0,4.682,3.794,8.475,8.476,8.477l0,0c4.68,0,8.475-3.795,8.476-8.477l-0.001-11.057
		c0-4.682-3.794-8.475-8.476-8.477l0,0c-4.681,0.002-8.476,3.795-8.476,8.477L21.695,91.322L21.695,91.322z"/>
	<path fill="#993333" d="M11.749,109.85L11.749,109.85c0-2.33,1.889-4.219,4.22-4.219h4.962c2.33-0.002,4.219,1.887,4.219,4.219l0,0
		"/>
	<g>
		
			<line fill="none" stroke="#0C0000" stroke-width="11" stroke-linecap="round" stroke-miterlimit="10" x1="20.111" y1="7.916" x2="20.589" y2="49.484"/>
		<ellipse fill="#993333" cx="21.876" cy="5.215" rx="4.661" ry="5.215"/>
	</g>
	<g>
		<path fill="none" stroke="#0C0000" stroke-width="11" stroke-linecap="round" stroke-miterlimit="10" d="M63.04,92.359
			c0-14.988-12.15-27.137-27.137-27.137"/>
		<circle fill="#993333" cx="62.275" cy="95.773" r="4.661"/>
	</g>
	<g>
		<g>
			<circle fill="#993333" cx="7.842" cy="57.395" r="7.842"/>
			<circle fill="#0C0000" cx="7.842" cy="57.395" r="5.297"/>
		</g>
		<g>
			<circle fill="#993333" cx="28.474" cy="57.566" r="17.373"/>
		</g>
		<path fill="#CC6633" d="M41.6,73.057c0,5.582-4.527,10.109-10.11,10.109H16.253c-5.584,0-10.111-4.527-10.111-10.109v-1.531
			c0-5.584,4.527-10.109,10.111-10.109H31.49c5.583,0,10.11,4.525,10.11,10.109V73.057z"/>
		<g>
			<g>
				<path d="M20.774,56.84c0,0.801-0.647,1.449-1.445,1.449c-0.804,0-1.452-0.648-1.452-1.449c0-0.797,0.648-1.445,1.452-1.445
					C20.128,55.395,20.774,56.043,20.774,56.84z"/>
				<path d="M29.865,56.84c0,0.801-0.648,1.449-1.448,1.449c-0.799,0-1.45-0.648-1.45-1.449c0-0.797,0.651-1.445,1.45-1.445
					C29.217,55.395,29.865,56.043,29.865,56.84z"/>
			</g>
			<rect x="17.858" y="50.689" fill="#0C0000" width="12.286" height="2.705"/>
		</g>
		<rect x="17.777" y="61.17" fill="#0C0000" width="4.654" height="2.553"/>
		<rect x="25.211" y="61.17" fill="#0C0000" width="4.654" height="2.553"/>
		<g>
			<circle fill="#993333" cx="49.535" cy="57.396" r="7.842"/>
			<circle fill="#0C0000" cx="49.535" cy="57.396" r="5.297"/>
		</g>
		<polygon fill="#0C0000" points="26.146,42.389 35.659,42.389 35.659,32.877 		"/>
		<polygon fill="#0C0000" points="20.415,42.389 29.928,42.389 29.928,32.877 		"/>
	</g>
</g>
</svg>
