<?xml version="1.0" encoding="utf-8"?>
<!-- Generator: Adobe Illustrator 17.0.0, SVG Export Plug-In . SVG Version: 6.00 Build 0)  -->
<!DOCTYPE svg PUBLIC "-//W3C//DTD SVG 1.1//EN" "http://www.w3.org/Graphics/SVG/1.1/DTD/svg11.dtd">
<svg version="1.1" id="Слой_1" xmlns="http://www.w3.org/2000/svg" xmlns:xlink="http://www.w3.org/1999/xlink" x="0px" y="0px"
	 width="4749.64px" height="2000px" viewBox="0 0 4749.64 2000" enable-background="new 0 0 4749.64 2000" xml:space="preserve">
<path d="M-40.401-4.632v1900.473h4792.317V-4.632H-40.401z M1970.82,1703.5c-65.446,0-118.5-53.054-118.5-118.5
	s53.054-118.5,118.5-118.5s118.5,53.054,118.5,118.5S2036.266,1703.5,1970.82,1703.5z M2367.304,1703.5
	c-65.446,0-118.5-53.054-118.5-118.5s53.054-118.5,118.5-118.5c65.446,0,118.5,53.054,118.5,118.5S2432.75,1703.5,2367.304,1703.5z
	 M2779.304,1703.5c-65.446,0-118.5-53.054-118.5-118.5s53.054-118.5,118.5-118.5c65.446,0,118.5,53.054,118.5,118.5
	S2844.75,1703.5,2779.304,1703.5z"/>
<rect x="0.415" y="1721.078" fill="#990054" width="4758.634" height="141.207"/>
<rect x="0.415" y="1791.682" fill="#CC0066" width="4749.225" height="141.207"/>
<rect x="0.415" y="1849.669" fill="#FF0000" width="4767.634" height="113.736"/>
<rect x="2636.417" y="1960.741" fill="#FFDB00" width="2125.632" height="39.259"/>
<rect x="2636.417" y="1938.966" fill="#FF9900" width="2131.583" height="23.949"/>
<rect x="2636.417" y="1902.107" fill="#FF6600" width="2125.583" height="38.949"/>
<path fill="#FFDB00" d="M3094.2,1964.121c0-3.733,4.167-6.761,9.308-6.761s9.307,3.027,9.307,6.761"/>
<rect x="1426.071" y="1960.741" fill="#FFDB00" width="1261.632" height="39.259"/>
<rect x="1426.071" y="1938.966" fill="#FF9900" width="1261.632" height="23.949"/>
<rect x="1426.071" y="1902.107" fill="#FF6600" width="1261.632" height="38.949"/>
<path fill="#FF9900" d="M1810.563,1941.856c0-4.05,4.519-7.332,10.093-7.332s10.093,3.282,10.093,7.332"/>
<rect x="4.621" y="1960.741" fill="#FFDB00" width="1472.737" height="39.259"/>
<rect x="4.621" y="1938.966" fill="#FF9900" width="1472.737" height="23.949"/>
<rect x="4.621" y="1902.107" fill="#FF6600" width="1472.737" height="38.949"/>
<g>
	<path fill="#330000" d="M869.775,1695.526v284.845h29.824v-121.754c0-72.225,58.55-130.775,130.774-130.775
		s130.774,58.551,130.774,130.775v121.754h29.824v-284.845H869.775z"/>
	<path fill="#330000" d="M1186.378,1695.526v284.845h29.824v-121.754c0-72.225,58.55-130.775,130.774-130.775
		s130.774,58.551,130.774,130.775v121.754h29.824v-284.845H1186.378z"/>
	<path fill="#330000" d="M1502.98,1695.526v284.845h29.824v-121.754c0-72.225,58.55-130.775,130.774-130.775
		s130.773,58.551,130.773,130.775v121.754h29.824v-284.845H1502.98z"/>
	<path fill="#330000" d="M1819.583,1695.526v284.845h29.824v-121.754c0-72.225,58.55-130.775,130.774-130.775
		c72.224,0,130.774,58.551,130.774,130.775v121.754h29.824v-284.845H1819.583z"/>
	<path fill="#330000" d="M2136.187,1695.526v284.845h29.824v-121.754c0-72.225,58.55-130.775,130.774-130.775
		s130.774,58.551,130.774,130.775v121.754h29.824v-284.845H2136.187z"/>
	<path fill="#330000" d="M2452.789,1695.526v284.845h29.824v-121.754c0-72.225,58.55-130.775,130.774-130.775
		c72.225,0,130.773,58.551,130.773,130.775v121.754h29.824v-284.845H2452.789z"/>
	<path fill="#330000" d="M2769.392,1695.526v284.845h29.824v-121.754c0-72.225,58.55-130.775,130.774-130.775
		s130.774,58.551,130.774,130.775v121.754h29.824v-284.845H2769.392z"/>
	<path fill="#330000" d="M3085.995,1695.526v284.845h29.824v-121.754c0-72.225,58.55-130.775,130.774-130.775
		s130.773,58.551,130.773,130.775v121.754h29.824v-284.845H3085.995z"/>
	<path fill="#330000" d="M3402.598,1695.526v284.845h29.824v-121.754c0-72.225,58.55-130.775,130.774-130.775
		s130.774,58.551,130.774,130.775v121.754h29.824v-284.845H3402.598z"/>
	<path fill="#330000" d="M3719.2,1695.526v284.845h29.824v-121.754c0-72.225,58.55-130.775,130.774-130.775
		s130.774,58.551,130.774,130.775v121.754h29.824v-284.845H3719.2z"/>
	<path fill="#330000" d="M4035.804,1695.526v284.845h29.824v-121.754c0-72.225,58.55-130.775,130.774-130.775
		s130.773,58.551,130.773,130.775v121.754H4357v-284.845H4035.804z"/>
</g>
<path fill="#330000" d="M4352.775,1695.526v284.845h29.824v-121.754c0-72.225,58.55-130.775,130.774-130.775
	s130.774,58.551,130.774,130.775v121.754h29.824v-284.845H4352.775z"/>
<path fill="#330000" d="M4669.378,1695.526v284.845h29.824v-121.754c0-72.225,58.55-130.775,130.774-130.775
	s130.774,58.551,130.774,130.775v121.754h29.824v-284.845H4669.378z"/>
<path fill="#330000" d="M-80.627,1695.526v284.845h29.824v-121.754c0-72.225,58.55-130.775,130.774-130.775
	s130.774,58.551,130.774,130.775v121.754h29.824v-284.845H-80.627z"/>
<path fill="#330000" d="M235.975,1695.526v284.845h29.824v-121.754c0-72.225,58.55-130.775,130.774-130.775
	s130.774,58.551,130.774,130.775v121.754h29.824v-284.845H235.975z"/>
<path fill="#330000" d="M552.579,1695.526v284.845h29.824v-121.754c0-72.225,58.55-130.775,130.774-130.775
	c72.225,0,130.773,58.551,130.773,130.775v121.754h29.824v-284.845H552.579z"/>
<g>
	<g>
		<rect x="1285.626" y="1505.055" fill="#CCCCCC" width="109.374" height="185.267"/>
		<rect x="1294.167" y="1513.387" fill="#B4B3B1" width="93.077" height="176.935"/>
	</g>
	<g>
		<rect x="1301.117" y="1622.56" fill="#CCCCCC" width="23.607" height="4.271"/>
	</g>
	<g>
		<rect x="1184.794" y="1505.055" fill="#CCCCCC" width="109.373" height="185.267"/>
		<rect x="1192.55" y="1513.387" fill="#B4B3B1" width="93.076" height="176.935"/>
	</g>
	<g>
		<rect x="1251.482" y="1622.56" fill="#CCCCCC" width="23.608" height="4.271"/>
	</g>
</g>
<g>
	<rect x="3512.626" y="1503.055" fill="#CCCCCC" width="109.373" height="185.267"/>
	<rect x="3521.167" y="1511.387" fill="#B4B3B1" width="93.077" height="176.935"/>
	<g>
		<rect x="3531.865" y="1633.07" fill="#CCCCCC" width="23.607" height="4.272"/>
	</g>
</g>
<rect x="0" y="1688.055" fill="#AD7633" width="4749.64" height="13.143"/>
<g>
	<path fill="#CCCCCC" d="M1625.722,1350.407V1690h1361.273v-339.593H1625.722z M1960.924,1678.398
		c-50.349,0-91.165-40.816-91.165-91.165c0-50.349,40.816-91.165,91.165-91.165s91.165,40.816,91.165,91.165
		C2052.089,1637.582,2011.273,1678.398,1960.924,1678.398z M2367.304,1674.669c-47.838,0-86.618-38.78-86.618-86.618
		s38.78-86.618,86.618-86.618s86.618,38.78,86.618,86.618S2415.142,1674.669,2367.304,1674.669z M2771.392,1678.398
		c-50.349,0-91.165-40.816-91.165-91.165c0-50.349,40.816-91.165,91.165-91.165c50.349,0,91.165,40.816,91.165,91.165
		C2862.557,1637.582,2821.741,1678.398,2771.392,1678.398z"/>
	<path fill="#999999" d="M1633.627,1350.407V1690h1346.335v-339.593H1633.627z M1960.924,1678.398
		c-50.349,0-91.165-40.816-91.165-91.165c0-50.349,40.816-91.165,91.165-91.165s91.165,40.816,91.165,91.165
		C2052.089,1637.582,2011.273,1678.398,1960.924,1678.398z M2367.304,1674.669c-47.838,0-86.618-38.78-86.618-86.618
		s38.78-86.618,86.618-86.618s86.618,38.78,86.618,86.618S2415.142,1674.669,2367.304,1674.669z M2771.392,1678.398
		c-50.349,0-91.165-40.816-91.165-91.165c0-50.349,40.816-91.165,91.165-91.165c50.349,0,91.165,40.816,91.165,91.165
		C2862.557,1637.582,2821.741,1678.398,2771.392,1678.398z"/>
	<polygon fill="#B0B1AE" points="1632.605,1628.515 1876.21,1353.251 1804.647,1353.251 1632.923,1548.2 	"/>
	<rect x="1632.605" y="1350.407" fill="#CCCCCC" width="1354.39" height="5.689"/>
	<g>
		<path fill="#B0B1AE" d="M2453.922,1588.051c0,7.476-0.947,14.731-2.728,21.651l226.123-256.451h-51.5l-178.259,202.168
			C2451.658,1565.491,2453.922,1576.506,2453.922,1588.051z"/>
		<path fill="#B0B1AE" d="M2367.304,1674.669c-7.721,0-15.203-1.016-22.327-2.911l-14.457,16.396h51.5l17.269-19.585
			C2389.393,1672.504,2378.602,1674.669,2367.304,1674.669z"/>
	</g>
	<g>
		<path fill="#B0B1AE" d="M1872.023,1607.495l-71.12,80.658h51.5l38.022-43.121
			C1881.611,1634.295,1875.204,1621.509,1872.023,1607.495z"/>
		<path fill="#B0B1AE" d="M1969.886,1496.507c14.441,1.409,27.892,6.189,39.561,13.54l138.254-156.796h-51.5L1969.886,1496.507z"/>
	</g>
	<path fill="#B0B1AE" d="M2042.259,1628.447c-7.026,13.837-17.476,25.641-30.239,34.295l-22.407,25.412h29.809l295.298-334.903
		h-29.809L2042.259,1628.447z"/>
	<g>
		<path fill="#B0B1AE" d="M2829.703,1517.157l144.523-163.906h-29.81l-133.751,151.69
			C2817.53,1508.223,2823.919,1512.339,2829.703,1517.157z"/>
		<path fill="#B0B1AE" d="M2694.67,1636.492l-45.552,51.662h29.81l30.243-34.299
			C2703.653,1648.699,2698.773,1642.87,2694.67,1636.492z"/>
	</g>
</g>
<g>
	<g>
		<path fill="#737373" d="M1961.504,1494.078c-51.686,0-93.585,41.899-93.585,93.585s41.899,93.585,93.585,93.585
			s93.585-41.899,93.585-93.585S2013.19,1494.078,1961.504,1494.078z M1961.504,1674.281c-47.838,0-86.618-38.78-86.618-86.618
			c0-47.838,38.78-86.618,86.618-86.618s86.618,38.78,86.618,86.618C2048.122,1635.501,2009.342,1674.281,1961.504,1674.281z"/>
		<g>
			<rect x="2061.29" y="1513.582" fill="#B8B8B8" width="84.038" height="24.195"/>
			<rect x="2061.29" y="1636.547" fill="#B8B8B8" width="84.038" height="24.197"/>
			<rect x="2068.256" y="1513.582" fill="#858585" width="84.038" height="147.162"/>
			<circle fill="#858585" cx="2154.874" cy="1587.164" r="93.584"/>
			<path fill="#C4C4C4" d="M2241.492,1587.164c0,47.837-38.779,86.615-86.618,86.615c-47.837,0-86.618-38.778-86.618-86.615
				c0-47.84,38.78-86.618,86.618-86.618C2202.712,1500.546,2241.492,1539.324,2241.492,1587.164z"/>
		</g>
		<g>
			<g>
				<rect x="2133.027" y="1513.582" fill="#B0B0B0" width="7.011" height="147.162"/>
				<g>
					<rect x="2129.522" y="1513.582" fill="#ECE9E6" width="3.505" height="147.162"/>
				</g>
			</g>
			<g>
				<rect x="2153.122" y="1513.582" fill="#B0B0B0" width="7.011" height="147.162"/>
				<g>
					<rect x="2149.616" y="1513.582" fill="#ECE9E6" width="3.506" height="147.162"/>
				</g>
			</g>
			<g>
				<rect x="2173.215" y="1513.582" fill="#B0B0B0" width="7.011" height="147.162"/>
				<g>
					<rect x="2169.71" y="1513.582" fill="#ECE9E6" width="3.505" height="147.162"/>
				</g>
			</g>
		</g>
		<g>
			<g>
				<rect x="2080.571" y="1565.316" fill="#B0B0B0" width="147.162" height="7.01"/>
				<g>
					<rect x="2080.571" y="1561.812" fill="#ECE9E6" width="147.162" height="3.505"/>
				</g>
			</g>
			<g>
				<rect x="2080.571" y="1585.41" fill="#B0B0B0" width="147.162" height="7.012"/>
				<g>
					<rect x="2080.571" y="1581.904" fill="#ECE9E6" width="147.162" height="3.506"/>
				</g>
			</g>
			<g>
				<rect x="2080.571" y="1605.504" fill="#B0B0B0" width="147.162" height="7.01"/>
				<g>
					<rect x="2080.571" y="1601.999" fill="#ECE9E6" width="147.162" height="3.505"/>
				</g>
			</g>
		</g>
		<circle fill="#B0B0B0" cx="2154.874" cy="1587.162" r="44.344"/>
		<circle fill="#919191" cx="2154.874" cy="1587.596" r="32.402"/>
		<rect x="2061.29" y="1513.582" fill="#FFFFFF" width="2.72" height="24.195"/>
		<rect x="2061.29" y="1636.548" fill="#FFFFFF" width="2.72" height="24.195"/>
	</g>
	<path fill="#737373" d="M2367.304,1494.078c-51.686,0-93.585,41.899-93.585,93.585s41.899,93.585,93.585,93.585
		s93.585-41.899,93.585-93.585S2418.99,1494.078,2367.304,1494.078z M2367.304,1674.281c-47.838,0-86.618-38.78-86.618-86.618
		c0-47.838,38.78-86.618,86.618-86.618s86.618,38.78,86.618,86.618C2453.922,1635.501,2415.142,1674.281,2367.304,1674.281z"/>
	<g>
		<rect x="2467.09" y="1513.582" fill="#B8B8B8" width="84.039" height="24.195"/>
		<rect x="2467.09" y="1636.547" fill="#B8B8B8" width="84.039" height="24.197"/>
		<rect x="2474.056" y="1513.582" fill="#858585" width="84.038" height="147.162"/>
		<circle fill="#858585" cx="2560.674" cy="1587.164" r="93.585"/>
		<path fill="#C4C4C4" d="M2647.292,1587.164c0,47.837-38.779,86.615-86.618,86.615c-47.837,0-86.618-38.778-86.618-86.615
			c0-47.84,38.78-86.618,86.618-86.618C2608.513,1500.546,2647.292,1539.324,2647.292,1587.164z"/>
	</g>
	<g>
		<g>
			<rect x="2538.828" y="1513.582" fill="#B0B0B0" width="7.011" height="147.162"/>
			<g>
				<rect x="2535.322" y="1513.582" fill="#ECE9E6" width="3.506" height="147.162"/>
			</g>
		</g>
		<g>
			<rect x="2558.922" y="1513.582" fill="#B0B0B0" width="7.011" height="147.162"/>
			<g>
				<rect x="2555.416" y="1513.582" fill="#ECE9E6" width="3.506" height="147.162"/>
			</g>
		</g>
		<g>
			<rect x="2579.016" y="1513.582" fill="#B0B0B0" width="7.011" height="147.162"/>
			<g>
				<rect x="2575.51" y="1513.582" fill="#ECE9E6" width="3.506" height="147.162"/>
			</g>
		</g>
	</g>
	<g>
		<g>
			<rect x="2486.372" y="1565.316" fill="#B0B0B0" width="147.162" height="7.01"/>
			<g>
				<rect x="2486.372" y="1561.812" fill="#ECE9E6" width="147.162" height="3.505"/>
			</g>
		</g>
		<g>
			<rect x="2486.372" y="1585.41" fill="#B0B0B0" width="147.162" height="7.012"/>
			<g>
				<rect x="2486.372" y="1581.904" fill="#ECE9E6" width="147.162" height="3.506"/>
			</g>
		</g>
		<g>
			<rect x="2486.372" y="1605.504" fill="#B0B0B0" width="147.162" height="7.01"/>
			<g>
				<rect x="2486.372" y="1601.999" fill="#ECE9E6" width="147.162" height="3.505"/>
			</g>
		</g>
	</g>
	<circle fill="#B0B0B0" cx="2560.675" cy="1587.162" r="44.344"/>
	<circle fill="#919191" cx="2560.674" cy="1587.596" r="32.402"/>
	<rect x="2467.09" y="1513.582" fill="#FFFFFF" width="2.72" height="24.195"/>
	<rect x="2467.09" y="1636.548" fill="#FFFFFF" width="2.72" height="24.195"/>
	<g>
		<path fill="#737373" d="M2771.304,1494.078c-51.686,0-93.585,41.899-93.585,93.585s41.899,93.585,93.585,93.585
			s93.585-41.899,93.585-93.585S2822.99,1494.078,2771.304,1494.078z M2771.304,1674.281c-47.838,0-86.618-38.78-86.618-86.618
			c0-47.838,38.78-86.618,86.618-86.618s86.618,38.78,86.618,86.618C2857.922,1635.501,2819.142,1674.281,2771.304,1674.281z"/>
		<g>
			<rect x="2871.09" y="1513.582" fill="#CCCCCC" width="84.039" height="24.195"/>
			<rect x="2871.09" y="1636.547" fill="#CCCCCC" width="84.039" height="24.197"/>
			<rect x="2878.056" y="1513.582" fill="#858585" width="84.038" height="147.162"/>
			<circle fill="#858585" cx="2964.674" cy="1587.164" r="93.585"/>
			<path fill="#C4C4C4" d="M3051.292,1587.164c0,47.837-38.779,86.615-86.618,86.615c-47.837,0-86.618-38.778-86.618-86.615
				c0-47.84,38.78-86.618,86.618-86.618C3012.513,1500.546,3051.292,1539.324,3051.292,1587.164z"/>
		</g>
		<g>
			<g>
				<rect x="2942.828" y="1513.582" fill="#B0B0B0" width="7.011" height="147.162"/>
				<g>
					<rect x="2939.322" y="1513.582" fill="#ECE9E6" width="3.505" height="147.162"/>
				</g>
			</g>
			<g>
				<rect x="2962.922" y="1513.582" fill="#B0B0B0" width="7.011" height="147.162"/>
				<g>
					<rect x="2959.416" y="1513.582" fill="#ECE9E6" width="3.506" height="147.162"/>
				</g>
			</g>
			<g>
				<rect x="2983.016" y="1513.582" fill="#B0B0B0" width="7.011" height="147.162"/>
				<g>
					<rect x="2979.51" y="1513.582" fill="#ECE9E6" width="3.505" height="147.162"/>
				</g>
			</g>
		</g>
		<g>
			<g>
				<rect x="2890.372" y="1565.316" fill="#B0B0B0" width="147.162" height="7.01"/>
				<g>
					<rect x="2890.372" y="1561.812" fill="#ECE9E6" width="147.162" height="3.505"/>
				</g>
			</g>
			<g>
				<rect x="2890.372" y="1585.41" fill="#B0B0B0" width="147.162" height="7.012"/>
				<g>
					<rect x="2890.372" y="1581.904" fill="#ECE9E6" width="147.162" height="3.506"/>
				</g>
			</g>
			<g>
				<rect x="2890.372" y="1605.504" fill="#B0B0B0" width="147.162" height="7.01"/>
				<g>
					<rect x="2890.372" y="1601.999" fill="#ECE9E6" width="147.162" height="3.505"/>
				</g>
			</g>
		</g>
		<circle fill="#B0B0B0" cx="2964.675" cy="1587.162" r="44.344"/>
		<circle fill="#919191" cx="2964.674" cy="1587.596" r="32.402"/>
		<rect x="2871.09" y="1513.582" fill="#FFFFFF" width="2.72" height="24.195"/>
		<rect x="2871.09" y="1636.548" fill="#FFFFFF" width="2.72" height="24.195"/>
	</g>
</g>
</svg>
