<?xml version="1.0" encoding="utf-8"?>
<!-- Generator: Adobe Illustrator 17.0.0, SVG Export Plug-In . SVG Version: 6.00 Build 0)  -->
<!DOCTYPE svg PUBLIC "-//W3C//DTD SVG 1.1//EN" "http://www.w3.org/Graphics/SVG/1.1/DTD/svg11.dtd">
<svg version="1.1" id="Слой_1" xmlns="http://www.w3.org/2000/svg" xmlns:xlink="http://www.w3.org/1999/xlink" x="0px" y="0px"
	 width="135.025px" height="84.381px" viewBox="0 0 135.025 84.381" enable-background="new 0 0 135.025 84.381"
	 xml:space="preserve">
<path fill="#FF8A33" d="M84.369,1.141"/>
<path fill="#993333" d="M104.178,5.135c0,2.834-2.299,5.135-5.134,5.135H84.98c-2.836,0-5.135-2.301-5.135-5.135l0,0
	C79.845,2.299,82.144,0,84.98,0h14.064C101.878,0,104.178,2.299,104.178,5.135L104.178,5.135z"/>
<g>
	<g>
		<path fill="#333333" d="M76.096,80.574l9.848,0.223c0.001,0-0.026-0.371,0.045-0.975c0.069-0.604,0.087-1.502,0.231-2.518
			c0.294-2.027,0.972-4.58,2.157-6.664c0.552-1.076,1.307-1.957,2.016-2.762c0.769-0.738,1.518-1.4,2.237-1.82
			c1.417-0.926,2.425-1.107,1.986-1.01l-2.332-9.57c-0.24,0.068-2.347,0.594-4.933,2.264c-1.318,0.799-2.691,1.949-4.042,3.291
			c-1.284,1.396-2.565,2.99-3.503,4.752c-1.979,3.49-2.929,7.309-3.337,10.115c-0.199,1.406-0.236,2.574-0.317,3.393
			C76.071,80.115,76.097,80.574,76.096,80.574z"/>
		<path d="M75.986,80.57l10.027,0.227l0.037,2.875l-12.479,0.709c0.173-1.117,0.777-2.092,1.338-2.76
			C75.469,80.949,75.986,80.57,75.986,80.57z"/>
	</g>
	<g>
		<path fill="#333333" d="M90.597,80.354l9.849-0.139c0.001,0-0.174-6.965,0.372-13.871c0.11-1.729,0.31-3.44,0.447-5.055
			c0.197-1.594,0.366-3.094,0.556-4.35c0.191-1.26,0.352-2.305,0.487-2.996c0.123-0.645,0.192-1.014,0.192-1.014l-9.618-2.121
			c0,0-0.026,0.127-0.075,0.363c-0.043,0.225-0.104,0.555-0.183,0.975c-0.161,0.822-0.339,1.977-0.549,3.359
			c-0.208,1.385-0.391,2.992-0.602,4.717c-0.151,1.725-0.362,3.564-0.48,5.404C90.413,72.988,90.597,80.354,90.597,80.354z"/>
		<path d="M90.486,80.354l10.03-0.141l0.048,3.445L88.073,84.09C88.427,81.955,90.486,80.354,90.486,80.354z"/>
	</g>
	<g>
		<g>
			<g>
				<g>
					<path fill="#FF8A33" d="M123.787,60.27c0.079,0.29,0.13,0.579,0.156,0.862c0.003,0.286-0.026,0.566-0.074,0.835
						c-0.098,0.539-0.287,1.034-0.553,1.454c-0.531,0.844-1.365,1.376-2.362,1.481c-0.997,0.105-1.967-0.208-2.719-0.729
						c-0.376-0.262-0.697-0.58-0.94-0.944c-0.122-0.182-0.224-0.375-0.304-0.58c-0.106-0.197-0.191-0.404-0.251-0.622
						c-0.262-0.864-0.016-1.794,0.33-2.58c0.39-0.797,1.079-1.529,2.003-1.918c0.925-0.388,1.926-0.327,2.823,0.161
						C122.833,58.161,123.454,59.113,123.787,60.27z"/>
					<path fill="#666666" d="M116.686,62.041c0,0-0.074-0.27-0.205-0.742c-0.064-0.236-0.141-0.524-0.23-0.853
						c-0.1-0.325-0.262-0.67-0.409-1.06c-0.532-1.584-1.644-3.511-2.988-5.261c-1.354-1.748-3.031-3.255-4.406-4.231
						c-0.698-0.472-1.272-0.881-1.705-1.114c-0.423-0.25-0.665-0.392-0.665-0.392c-1.583-0.883-2.304-2.866-1.732-4.817
						c0.568-1.968,3.143-2.836,5.299-1.636c0,0,0.319,0.187,0.877,0.514c0.567,0.314,1.327,0.839,2.241,1.466
						c1.804,1.285,4.046,3.281,5.886,5.652c1.836,2.362,3.326,5.023,4.063,7.141c0.2,0.524,0.404,0.999,0.544,1.431
						c0.121,0.437,0.227,0.817,0.315,1.131c0.172,0.628,0.27,0.987,0.27,0.987"/>
				</g>
			</g>
		</g>
		<g>
			<g>
				<g>
					<path fill="#FF8A33" d="M70.983,58.509c-2.289-0.026-3.955-1.809-3.744-3.784c0.212-2.012,1.89-3.505,3.729-3.479
						c0.928-0.035,1.784,0.369,2.461,0.984c0.668,0.586,1.169,1.446,1.277,2.443c0.108,0.997-0.223,1.947-0.9,2.679
						C73.133,58.057,72.118,58.474,70.983,58.509z"/>
					<path fill="#666666" d="M70.967,51.191c0,0,0.287-0.009,0.791-0.023c0.499-0.037,1.231,0.02,2.075-0.108
						c1.709-0.139,3.945-0.529,6.083-1.182c2.126-0.687,4.115-1.673,5.495-2.554c1.395-0.868,2.195-1.582,2.195-1.582
						c1.348-1.088,3.356-1,5.025,0.165c1.691,1.165,1.604,3.957-0.313,5.506c0,0-1.114,0.987-2.968,2.144
						c-1.841,1.177-4.453,2.469-7.191,3.345c-2.744,0.847-5.559,1.331-7.667,1.502c-1.056,0.145-1.929,0.097-2.544,0.136
						c-0.614,0.016-0.964,0.025-0.964,0.025"/>
				</g>
			</g>
		</g>
	</g>
	<g>
		<path fill="#666666" d="M117.454,53.678c0-7.666-7.297-14.609-16.301-14.609c-9.002,0-16.301,6.943-16.301,14.609"/>
		<path fill="#333333" d="M84.852,54.506c0,7.666,7.3,13.883,16.301,13.883c9.003,0,16.301-6.217,16.301-13.883"/>
		<rect x="96.73" y="38.197" fill="#FFFFFF" width="8.848" height="19.559"/>
		<g>
			<path fill="#666666" d="M96.729,57.756c-0.133,8.523-11.878,7.053-11.878,7.053V53.307c0,0,8.715-11.545,11.878-11.545
				C96.729,66.936,96.729,43.109,96.729,57.756z"/>
		</g>
		<g>
			<path fill="#666666" d="M105.577,57.756c0.13,8.523,11.877,7.053,11.877,7.053V53.307c0,0-8.718-11.545-11.877-11.545
				C105.577,66.936,105.577,43.109,105.577,57.756z"/>
		</g>
	</g>
	<path fill="#FF8A33" d="M97.759,39.379l3.299,4.254l3.3-4.254v-5.805c0-1.641-1.477-2.971-3.3-2.971l0,0
		c-1.822,0-3.299,1.33-3.299,2.971V39.379z"/>
	<path fill="#FF8A33" d="M81.503,20.422c0,10.611,8.602,19.213,19.212,19.213c10.611,0,19.216-8.602,19.216-19.213
		s-8.604-19.217-19.216-19.217C90.104,1.205,81.503,9.811,81.503,20.422z"/>
	<path fill="#993333" d="M100.541,4.022L89.79,4.613C92.509,2.393,96.752,0,102.206,0c11.104,0,19.256,8.229,19.256,19.334
		c0,3.689-0.247,2.303-3.227,6.062l-1.463-0.518c-1.812,0.389-4.921,0.486-4.896-1.57c0.139-12.359-2.449-18.393-10.291-19.287
		H100.541z"/>
	<path fill="#FF8A33" d="M109.786,23.232c0,2.438,1.977,4.414,4.418,4.414h5.668c2.44,0,4.416-1.977,4.416-4.414l0,0
		c0-2.439-1.976-4.418-4.416-4.418h-5.668C111.763,18.815,109.786,20.793,109.786,23.232L109.786,23.232z"/>
	<path fill="#993333" d="M111.77,22.502c0,1.096,0.889,1.98,1.982,1.98l0,0c1.096,0,1.981-0.885,1.981-1.98v-5.166
		c0-1.096-0.886-1.982-1.981-1.982l0,0c-1.094,0-1.982,0.887-1.982,1.982V22.502z"/>
	<rect x="79.962" y="15.949" fill="#FFFFFF" width="11.698" height="9.447"/>
	<rect x="94.945" y="15.949" fill="#FFFFFF" width="11.698" height="9.447"/>
	<g>
		<rect x="0" y="57.756" fill="#B57666" width="135.025" height="5.227"/>
		<rect x="6.572" y="62.273" fill="#993333" width="121.08" height="13.922"/>
		<rect x="123.614" y="62.273" fill="#993333" width="4.438" height="21.602"/>
		<rect x="6.572" y="62.273" fill="#993333" width="4.438" height="21.602"/>
	</g>
	<g>
		<g>
			<path fill="#FFFFFF" d="M65.608,48.305H18.485c-0.84,0-1.522-0.68-1.522-1.521V16.85c0-0.84,0.682-1.521,1.522-1.521h47.123
				c0.84,0,1.521,0.682,1.521,1.521v29.934C67.128,47.625,66.448,48.305,65.608,48.305z"/>
			<path fill="#E7ECEC" d="M44.35,32.533h-4.61c-0.696,0-1.279,0.527-1.349,1.221l-4.051,22.975h15.411L45.7,33.754
				C45.631,33.061,45.047,32.533,44.35,32.533z"/>
			<path fill="#E7ECEC" d="M48.785,55.799c0.508,0,0.92,0.412,0.92,0.92v0.02c0,0.51-0.413,0.92-0.92,0.92H35.309
				c-0.509,0-0.921-0.41-0.921-0.92v-0.02c0-0.508,0.412-0.92,0.921-0.92"/>
			<circle fill="#FFFFFF" cx="42.046" cy="44.357" r="2.413"/>
		</g>
	</g>
</g>
</svg>
