<?xml version="1.0" encoding="utf-8"?>
<!-- Generator: Adobe Illustrator 17.0.0, SVG Export Plug-In . SVG Version: 6.00 Build 0)  -->
<!DOCTYPE svg PUBLIC "-//W3C//DTD SVG 1.1//EN" "http://www.w3.org/Graphics/SVG/1.1/DTD/svg11.dtd">
<svg version="1.1" id="Слой_1" xmlns="http://www.w3.org/2000/svg" xmlns:xlink="http://www.w3.org/1999/xlink" x="0px" y="0px"
	 width="54.676px" height="86.809px" viewBox="0 0 54.676 86.809" enable-background="new 0 0 54.676 86.809" xml:space="preserve">
<g>
	
		<rect x="33.895" y="59.118" transform="matrix(0.707 -0.7072 0.7072 0.707 -38.7649 48.1746)" fill="#813333" width="9.73" height="23.511"/>
	<path d="M50.588,75.67l-7.005,7.006l2.363,2.361l8.729-8.729C53.057,75.229,50.588,75.67,50.588,75.67z"/>
	
		<rect x="17.82" y="59.136" transform="matrix(0.707 0.7072 -0.7072 0.707 56.7806 4.7274)" fill="#813333" width="9.731" height="23.509"/>
	<path d="M17.892,82.721l-7.006-7.004l-2.363,2.361l8.728,8.73C18.331,85.188,17.892,82.721,17.892,82.721z"/>
	<path fill="#813333" d="M47.058,55.336c0,7.666-7.3,13.883-16.302,13.883c-9.003,0-16.303-6.217-16.303-13.883"/>
</g>
<g>
	<path fill="#663399" d="M14.299,54.449c0-7.668,7.297-14.609,16.302-14.609c9.002,0,16.302,6.941,16.302,14.609"/>
	<path fill="#813333" d="M46.903,55.275c0,7.668-7.3,13.885-16.302,13.885c-9.003,0-16.302-6.217-16.302-13.885"/>
	<rect x="26.175" y="38.969" fill="#FFFFFF" width="8.849" height="19.557"/>
	<g>
		<path fill="#663399" d="M35.024,58.525c0.132,8.525,11.878,7.055,11.878,7.055V54.076c0,0-8.718-11.543-11.878-11.543
			C35.024,67.705,35.024,43.879,35.024,58.525z"/>
	</g>
	<g>
		<path fill="#663399" d="M26.175,58.525c-0.13,8.525-11.876,7.055-11.876,7.055V54.076c0,0,8.716-11.543,11.876-11.543
			C26.175,67.705,26.175,43.879,26.175,58.525z"/>
	</g>
</g>
<g>
	<path fill="#FF8A33" d="M33.995,40.15l-3.299,4.252l-3.301-4.252v-5.805c0-1.641,1.477-2.973,3.301-2.973l0,0
		c1.822,0,3.299,1.332,3.299,2.973V40.15z"/>
	<g>
		<circle fill="#FF8A33" cx="31.037" cy="21.191" r="19.214"/>
		<path fill="#4D3333" d="M31.212,4.791l13.194,0.918C40.786,2.182,35.852,0,30.396,0C19.293,0,10.292,9,10.292,20.104
			c0,3.688,0.247,2.305,3.227,6.062l1.461-0.52c1.813,0.391,4.922,0.488,4.898-1.566c-0.139-12.359,2.45-18.393,10.29-19.289H31.212
			z"/>
		<path fill="#4D3333" d="M31.705,21.043c0,0.518-0.42,0.938-0.933,0.938c-0.519,0-0.937-0.42-0.937-0.938
			c0-0.514,0.418-0.932,0.937-0.932C31.285,20.111,31.705,20.529,31.705,21.043z"/>
		<path fill="#4D3333" d="M46.878,21.043c0,0.518-0.419,0.938-0.936,0.938c-0.517,0-0.935-0.42-0.935-0.938
			c0-0.514,0.419-0.932,0.935-0.932C46.459,20.111,46.878,20.529,46.878,21.043z"/>
		<path fill="#FF8A33" d="M21.968,24.002c0,2.439-1.978,4.418-4.418,4.418h-5.667c-2.441,0-4.418-1.979-4.418-4.418l0,0
			c0-2.44,1.977-4.418,4.418-4.418h5.667C19.99,19.584,21.968,21.562,21.968,24.002L21.968,24.002z"/>
		<path fill="#4D3333" d="M44.267,5.67c3.802,4.318-0.286,7.094-4.863,6.512c-3.537-0.449-8.245-2.086-12.109-6.264
			C23.435,1.746,44.267,5.67,44.267,5.67z"/>
		<path fill="#4D3333" d="M19.983,23.274c0,1.096-0.888,1.982-1.98,1.982l0,0c-1.096,0-1.984-0.887-1.984-1.982v-5.166
			c0-1.094,0.888-1.984,1.984-1.984l0,0c1.093,0,1.98,0.891,1.98,1.984V23.274z"/>
		<path fill="#4D3333" d="M52.663,3.785L52.663,3.785c0,4.584-3.717,8.297-8.299,8.297h-2.372c-4.583,0-8.298-3.713-8.298-8.297l0,0
			"/>
		<path fill="#FF8A33" d="M47.385,1.91"/>
	</g>
</g>
<g>
	<g>
		<g>
			<g>
				<path fill="none" stroke="#4D3333" stroke-width="2.539" stroke-miterlimit="10" d="M12.624,78.117
					c-1.954,0.09-3.609-2.285-3.7-4.236l-0.19-4.127c-0.091-1.951,1.42-3.607,3.37-3.699l1.329-0.061
					c1.951-0.088,3.607,1.42,3.698,3.371l0.19,4.127c0.09,1.951-1.418,4.473-3.372,4.561L12.624,78.117z"/>
				<path fill="#4D3333" d="M25.56,84.443c0.004,1.145-0.921,2.076-2.065,2.08L2.143,86.611C1,86.617,0.067,85.695,0.062,84.549
					L0,72.242c-0.005-1.143,0.918-2.076,2.062-2.08l21.353-0.09c1.146-0.006,2.077,0.92,2.081,2.062L25.56,84.443z"/>
			</g>
		</g>
	</g>
	<g>
		<g>
			<g>
				<path fill="#FF8A33" d="M17.152,65.5c-0.101,0.801-0.44,1.522-1.115,2.082c-0.657,0.556-1.565,0.957-2.567,1.003
					c-1.002,0.045-1.911-0.298-2.569-0.946c-0.639-0.643-1.114-1.592-0.997-2.621c0.118-2.101,2.076-3.456,4.026-3.063
					C15.913,62.352,17.229,63.923,17.152,65.5z"/>
				<path fill="#663399" d="M9.849,65.014c0,0,0.026-0.318,0.072-0.875c0.024-0.278,0.052-0.616,0.085-1.004
					c0.061-0.384,0.13-0.818,0.206-1.291c0.259-1.9,0.923-4.382,1.827-6.762c0.905-2.383,2.099-4.637,3.137-6.235
					c1.027-1.605,1.826-2.609,1.826-2.609c1.288-1.693,3.799-1.812,5.156-0.284c1.351,1.523,1.655,3.509,0.675,4.796
					c0,0-0.621,0.783-1.437,2.055c-0.826,1.264-1.767,3.059-2.479,4.932c-0.707,1.873-1.234,3.809-1.428,5.293
					c-0.061,0.369-0.116,0.707-0.166,1.007c-0.024,0.303-0.044,0.567-0.061,0.785c-0.036,0.435-0.056,0.683-0.056,0.683"/>
			</g>
		</g>
	</g>
	<g>
		<g>
			<g>
				<path fill="#FF8A33" d="M51.297,64.992c0.122,1.031-0.344,1.984-0.981,2.632c-0.655,0.653-1.561,1.003-2.563,0.963
					c-1.002-0.04-1.912-0.438-2.573-0.993c-0.68-0.558-1.022-1.28-1.128-2.082c-0.089-1.579,1.219-3.158,3.2-3.565
					C49.199,61.546,51.167,62.888,51.297,64.992z"/>
				<path fill="#663399" d="M43.997,65.517c0,0-0.022-0.249-0.061-0.684c-0.019-0.218-0.041-0.482-0.067-0.786
					c-0.051-0.3-0.109-0.638-0.172-1.007c-0.203-1.484-0.745-3.419-1.463-5.288c-0.722-1.869-1.676-3.655-2.509-4.913
					c-0.822-1.266-1.447-2.042-1.447-2.042c-0.985-1.28-0.689-3.26,0.658-4.787c1.347-1.538,3.854-1.436,5.15,0.246
					c0,0,0.803,0.997,1.84,2.594c1.048,1.589,2.252,3.836,3.173,6.212c0.919,2.373,1.597,4.854,1.869,6.754
					c0.079,0.473,0.151,0.907,0.215,1.291c0.035,0.388,0.066,0.726,0.091,1.005c0.049,0.557,0.077,0.876,0.077,0.876"/>
			</g>
		</g>
	</g>
</g>
<path fill="#994733" d="M37.038,32.109c0,0.406-0.329,0.734-0.735,0.734h-4.871c-0.406,0-0.735-0.328-0.735-0.734l0,0
	c0-0.406,0.329-0.736,0.735-0.736h4.871C36.709,31.373,37.038,31.703,37.038,32.109L37.038,32.109z"/>
</svg>
