<?xml version="1.0" encoding="utf-8"?>
<!-- Generator: Adobe Illustrator 17.0.0, SVG Export Plug-In . SVG Version: 6.00 Build 0)  -->
<!DOCTYPE svg PUBLIC "-//W3C//DTD SVG 1.1//EN" "http://www.w3.org/Graphics/SVG/1.1/DTD/svg11.dtd">
<svg version="1.1" id="Слой_1" xmlns="http://www.w3.org/2000/svg" xmlns:xlink="http://www.w3.org/1999/xlink" x="0px" y="0px"
	 width="101.222px" height="75.414px" viewBox="0 0 101.222 75.414" enable-background="new 0 0 101.222 75.414"
	 xml:space="preserve">
<g>
	<g>
		
			<line fill="none" stroke="#0C0000" stroke-width="11" stroke-linecap="round" stroke-miterlimit="10" x1="7.917" y1="34.553" x2="49.484" y2="34.074"/>
		<ellipse fill="#993333" cx="5.216" cy="32.788" rx="5.216" ry="4.661"/>
	</g>
	<g>
		<g>
			<path fill="none" stroke="#0C0000" stroke-width="9" stroke-miterlimit="10" d="M51.207,75.041c0,0,0-1.527,0-6.35
				c0-7.861,5.877-10.107,5.877-10.107"/>
		</g>
		<path fill="#993333" d="M44.315,75.414L44.315,75.414c0.001-2.332,1.889-4.221,4.22-4.221h4.962c2.331,0,4.219,1.889,4.219,4.219
			l0,0"/>
	</g>
	<g>
		<g>
			<path fill="none" stroke="#0C0000" stroke-width="9" stroke-miterlimit="10" d="M70.85,75.041c0,0,0-1.527,0-6.35
				c0-7.861-5.877-10.107-5.877-10.107"/>
		</g>
		<path fill="#993333" d="M77.742,75.414L77.742,75.414c0-2.332-1.889-4.221-4.22-4.221h-4.962c-2.33,0-4.219,1.889-4.219,4.219l0,0
			"/>
	</g>
	<g>
		<polygon fill="#0C0000" points="76.423,39.381 66.91,39.381 66.91,29.867 		"/>
		<polygon fill="#0C0000" points="76.423,44.404 66.91,44.404 66.91,34.893 		"/>
		<polygon fill="#0C0000" points="76.423,49.43 66.91,49.43 66.91,39.918 		"/>
		<polygon fill="#0C0000" points="76.423,54.455 66.91,54.455 66.91,44.941 		"/>
		<polygon fill="#0C0000" points="76.423,58.822 66.91,58.822 66.91,49.311 		"/>
	</g>
	<g>
		<polygon fill="#0C0000" points="44.997,44.277 54.509,44.277 54.509,34.764 		"/>
		<polygon fill="#0C0000" points="44.997,49.301 54.509,49.301 54.509,39.789 		"/>
		<polygon fill="#0C0000" points="44.997,54.326 54.509,54.326 54.509,44.814 		"/>
		<polygon fill="#0C0000" points="44.997,59.352 54.509,59.352 54.509,49.838 		"/>
	</g>
	<path fill="#993333" d="M52.261,55.885c0,4.682,3.795,8.477,8.477,8.477l0,0c4.68,0,8.476-3.795,8.476-8.475V44.83
		c0-4.684-3.794-8.477-8.477-8.477l0,0c-4.681,0-8.476,3.795-8.476,8.477V55.885z"/>
	<g>
		<path fill="none" stroke="#0C0000" stroke-width="11" stroke-linecap="round" stroke-miterlimit="10" d="M95.722,58.803
			c-0.001-14.99-12.15-27.139-27.137-27.139"/>
		<circle fill="#993333" cx="94.957" cy="62.217" r="4.662"/>
	</g>
	<g>
		<g>
			<circle fill="#993333" cx="38.408" cy="21.959" r="7.842"/>
			<circle fill="#0C0000" cx="38.408" cy="21.959" r="5.298"/>
		</g>
		<g>
			<circle fill="#993333" cx="59.041" cy="22.131" r="17.373"/>
		</g>
		<path fill="#CC6633" d="M72.167,37.619c0,5.582-4.527,10.111-10.11,10.111H46.818c-5.583,0-10.11-4.529-10.11-10.111V36.09
			c0-5.584,4.527-10.111,10.11-10.111h15.238c5.582,0,10.11,4.527,10.11,10.111V37.619z"/>
		<g>
			<g>
				<path d="M51.341,21.402c0,0.801-0.647,1.451-1.445,1.451c-0.804,0-1.453-0.65-1.453-1.451c0-0.795,0.648-1.445,1.453-1.445
					C50.693,19.957,51.341,20.607,51.341,21.402z"/>
				<path d="M60.431,21.402c0,0.801-0.648,1.451-1.448,1.451c-0.799,0-1.45-0.65-1.45-1.451c0-0.795,0.651-1.445,1.45-1.445
					C59.783,19.957,60.431,20.607,60.431,21.402z"/>
			</g>
			<rect x="48.423" y="14.811" fill="#0C0000" width="12.286" height="2.703"/>
		</g>
		<rect x="48.343" y="25.732" fill="#0C0000" width="4.654" height="2.553"/>
		<rect x="55.777" y="25.732" fill="#0C0000" width="4.654" height="2.553"/>
		<g>
			<circle fill="#993333" cx="80.102" cy="21.959" r="7.842"/>
			<circle fill="#0C0000" cx="80.102" cy="21.959" r="5.297"/>
		</g>
		<polygon fill="#0C0000" points="52.678,9.512 62.192,9.512 62.192,0 		"/>
	</g>
	<g>
		<g>
			<rect x="5.635" y="20.899" fill="#FF3300" width="11.536" height="31.498"/>
			<rect x="10.434" y="11.428" fill="#231F20" width="1.936" height="9.469"/>
		</g>
	</g>
</g>
</svg>
