<?xml version="1.0" encoding="utf-8"?>
<!-- Generator: Adobe Illustrator 17.0.0, SVG Export Plug-In . SVG Version: 6.00 Build 0)  -->
<!DOCTYPE svg PUBLIC "-//W3C//DTD SVG 1.1//EN" "http://www.w3.org/Graphics/SVG/1.1/DTD/svg11.dtd">
<svg version="1.1" id="Слой_1" xmlns="http://www.w3.org/2000/svg" xmlns:xlink="http://www.w3.org/1999/xlink" x="0px" y="0px"
	 width="49.763px" height="33.916px" viewBox="0 0 49.763 33.916" enable-background="new 0 0 49.763 33.916" xml:space="preserve">
<g>
	<path fill="#FFFFFF" d="M49.763,23.916c0,5.5-4.5,10-10,10H10c-5.5,0-10-4.5-10-10V10C0,4.5,4.5,0,10,0h29.763c5.5,0,10,4.5,10,10
		V23.916z"/>
	<g>
		<path fill="#CC9933" d="M10.447,17.406c0-3.632,0.061-5.356,1.737-7.033c1.117-1.117,2.575-1.761,4.482-1.761
			c1.895,0,3.352,0.644,4.47,1.761c1.676,1.676,1.749,3.401,1.749,7.033c0,3.632-0.073,5.356-1.749,7.033
			c-1.117,1.117-2.575,1.761-4.47,1.761c-1.907,0-3.365-0.643-4.482-1.761C10.508,22.763,10.447,21.038,10.447,17.406z
			 M16.666,23.868c1.045,0,1.931-0.413,2.575-1.093c0.85-0.911,1.02-1.943,1.02-5.369s-0.17-4.47-1.02-5.381
			c-0.644-0.68-1.53-1.081-2.575-1.081c-1.057,0-1.943,0.4-2.575,1.081c-0.862,0.911-1.02,1.956-1.02,5.381s0.158,4.458,1.02,5.369
			C14.722,23.455,15.609,23.868,16.666,23.868z"/>
		<path fill="#CC9933" d="M29.198,25.556c-0.194,0.353-0.595,0.595-1.117,0.595c-0.523,0-0.923-0.243-1.117-0.595
			c-0.182-0.34-0.194-0.546-0.194-1.19V10.447c0-0.644,0.012-0.851,0.194-1.19c0.194-0.353,0.595-0.595,1.117-0.595
			c0.522,0,0.923,0.243,1.117,0.595c0.182,0.34,0.194,0.546,0.194,1.19v6.947l6.547-7.943c0.425-0.51,0.717-0.79,1.202-0.79
			c0.304,0,0.583,0.109,0.814,0.304C38.259,9.22,38.43,9.56,38.43,9.912c0,0.364-0.158,0.62-0.583,1.129l-3.68,4.446l4.737,8.32
			c0.304,0.535,0.401,0.753,0.413,1.081c0.012,0.425-0.194,0.814-0.644,1.081c-0.219,0.134-0.474,0.182-0.705,0.182
			c-0.656,0-0.959-0.461-1.299-1.069l-4.324-7.616l-2.951,3.547v3.352C29.393,25.01,29.381,25.216,29.198,25.556z"/>
	</g>
</g>
</svg>
