<?xml version="1.0" encoding="utf-8"?>
<!-- Generator: Adobe Illustrator 17.0.0, SVG Export Plug-In . SVG Version: 6.00 Build 0)  -->
<!DOCTYPE svg PUBLIC "-//W3C//DTD SVG 1.1//EN" "http://www.w3.org/Graphics/SVG/1.1/DTD/svg11.dtd">
<svg version="1.1" id="Слой_1" xmlns="http://www.w3.org/2000/svg" xmlns:xlink="http://www.w3.org/1999/xlink" x="0px" y="0px"
	 width="66.259px" height="89.349px" viewBox="0 0 66.259 89.349" enable-background="new 0 0 66.259 89.349" xml:space="preserve">
<g>
	<g>
		<g>
			<g>
				<path fill="#FAFCFF" d="M23.694,43.533c0.939-0.297,1.882-0.348,2.768,0.008c0.875,0.336,1.659,0.984,2.094,1.888
					c0.435,0.904,0.421,1.901,0.004,2.8c-0.422,0.875-1.207,1.746-2.321,2.108c-2.211,0.842-4.484-0.269-4.979-2.206
					C20.762,46.18,21.883,44.229,23.694,43.533z"/>
				<path fill="#FF8A33" d="M26.26,50.387c0,0-0.34,0.121-0.935,0.333c-0.593,0.217-1.442,0.524-2.492,0.797
					c-2.068,0.656-4.921,1.204-7.794,1.543c-2.878,0.336-5.787,0.319-7.961,0.158c-2.175-0.149-3.625-0.405-3.625-0.405
					c-2.406-0.356-3.976-2.577-3.291-4.504c0.683-1.917,2.512-3.063,4.438-2.779c0,0,1.178,0.208,2.989,0.333
					c1.807,0.136,4.245,0.151,6.658-0.133c2.408-0.291,4.805-0.736,6.542-1.297c0.883-0.226,1.599-0.486,2.098-0.671
					c0.501-0.178,0.788-0.28,0.788-0.28"/>
			</g>
		</g>
	</g>
</g>
<g>
	
		<rect x="25.179" y="61.951" transform="matrix(-1 -0.0026 0.0026 -1 59.9025 137.828)" fill="#FF33FF" width="9.727" height="13.846"/>
	<path fill="#FFFFFF" d="M25.014,85.98l9.906,0.027l-0.009,3.342l-12.344-0.033C22.954,87.407,25.014,85.98,25.014,85.98z"/>
	
		<rect x="25.146" y="75.797" transform="matrix(-1 -0.0027 0.0027 -1 59.8013 161.341)" fill="#FF8A33" width="9.728" height="9.666"/>
</g>
<g>
	
		<rect x="36.179" y="61.951" transform="matrix(-1 -0.0026 0.0026 -1 81.9025 137.8572)" fill="#FF33FF" width="9.727" height="13.846"/>
	<path fill="#FFFFFF" d="M36.014,85.98l9.906,0.027l-0.009,3.342l-12.344-0.033C33.954,87.407,36.014,85.98,36.014,85.98z"/>
	
		<rect x="36.146" y="75.797" transform="matrix(-1 -0.0027 0.0027 -1 81.8013 161.3709)" fill="#FF8A33" width="9.728" height="9.666"/>
</g>
<g>
	<path fill="#FFFFFF" d="M52.025,55.256c0-8.092-7.297-15.416-16.302-15.416c-9.002,0-16.302,7.324-16.302,15.416"/>
	<path fill="#FF33FF" d="M19.421,55.275c0,7.668,7.3,13.885,16.302,13.885c9.003,0,16.302-6.217,16.302-13.885"/>
</g>
<g>
	<path fill="#FF8A33" d="M32.329,40.15c0,0,0.27,4.252,3.299,4.252c3.029,0,3.301-4.252,3.301-4.252v-5.805
		c0-1.641-1.478-2.973-3.301-2.973l0,0c-1.822,0-3.299,1.332-3.299,2.973V40.15z"/>
	<g>
		<circle fill="#FF8A33" cx="35.286" cy="21.191" r="19.214"/>
		<path fill="#4D3333" d="M35.111,4.791L21.917,5.709C25.538,2.182,30.471,0,35.927,0c11.103,0,20.104,9,20.104,20.104
			c0,3.688-0.246,2.305-3.227,6.062l-1.461-0.52c-1.813,0.391-3.922,0.488-3.898-1.566c0.139-12.359-3.45-18.393-11.291-19.289
			H35.111z"/>
		<path fill="#FF8A33" d="M44.356,24.002c0,2.439,1.978,4.418,4.418,4.418h5.667c2.441,0,4.418-1.979,4.418-4.418l0,0
			c0-2.44-1.977-4.418-4.418-4.418h-5.667C46.334,19.584,44.356,21.562,44.356,24.002L44.356,24.002z"/>
		<path fill="#FF8A33" d="M18.938,1.91"/>
		<path fill="#4D3333" d="M31.735,15.189c0,0.901,0.484,1.632,1.082,1.632h6.042c0.598,0,1.082-0.731,1.082-1.632l0,0
			c0-0.903-0.484-1.634-1.082-1.634h-6.042C32.219,13.556,31.735,14.286,31.735,15.189L31.735,15.189z"/>
		<path fill="#4D3333" d="M15.342,15.189c0,0.901,0.484,1.632,1.082,1.632h6.042c0.598,0,1.082-0.731,1.082-1.632l0,0
			c0-0.903-0.484-1.634-1.082-1.634h-6.042C15.826,13.556,15.342,14.286,15.342,15.189L15.342,15.189z"/>
		<circle fill="#FFFFFF" cx="35.554" cy="21.19" r="5.071"/>
		<circle fill="#FFFFFF" cx="19.445" cy="21.19" r="5.072"/>
		<path fill="#4D3333" d="M34.619,21.043c0,0.517,0.42,0.938,0.933,0.938c0.52,0,0.937-0.42,0.937-0.938
			c0-0.514-0.417-0.932-0.937-0.932C35.039,20.111,34.619,20.529,34.619,21.043z"/>
		<path fill="#4D3333" d="M17.973,21.043c0,0.517,0.419,0.938,0.936,0.938s0.936-0.42,0.936-0.938c0-0.514-0.419-0.932-0.936-0.932
			S17.973,20.529,17.973,21.043z"/>
	</g>
</g>
<g>
	<g>
		<g>
			<g>
				<path fill="#FAFCFF" d="M46.301,49.711c-0.794-0.581-1.393-1.312-1.631-2.237c-0.247-0.904-0.187-1.92,0.284-2.805
					c0.472-0.885,1.284-1.463,2.256-1.659c0.956-0.177,2.122-0.059,3.072,0.625c1.987,1.285,2.434,3.775,1.166,5.32
					C50.169,50.51,47.933,50.759,46.301,49.711z"/>
				<path fill="#FF8A33" d="M50.311,43.588c0,0,0.299,0.203,0.822,0.557c0.526,0.35,1.275,0.853,2.117,1.539
					c1.752,1.28,3.881,3.257,5.853,5.373c1.973,2.122,3.679,4.479,4.834,6.328c1.166,1.843,1.817,3.163,1.817,3.163
					c1.135,2.151,0.272,4.73-1.687,5.317c-1.95,0.582-3.956-0.215-4.865-1.937c0,0-0.529-1.073-1.499-2.607
					c-0.959-1.537-2.388-3.513-4.044-5.291c-1.658-1.77-3.434-3.44-4.914-4.509c-0.705-0.579-1.337-1.002-1.782-1.295
					c-0.44-0.299-0.692-0.47-0.692-0.47"/>
			</g>
		</g>
	</g>
</g>
</svg>
