<?xml version="1.0" encoding="utf-8"?>
<!-- Generator: Adobe Illustrator 17.0.0, SVG Export Plug-In . SVG Version: 6.00 Build 0)  -->
<!DOCTYPE svg PUBLIC "-//W3C//DTD SVG 1.1//EN" "http://www.w3.org/Graphics/SVG/1.1/DTD/svg11.dtd">
<svg version="1.1" id="Слой_1" xmlns="http://www.w3.org/2000/svg" xmlns:xlink="http://www.w3.org/1999/xlink" x="0px" y="0px"
	 width="57.377px" height="102.601px" viewBox="0 0 57.377 102.601" enable-background="new 0 0 57.377 102.601"
	 xml:space="preserve">
<g>
	
		<line fill="none" stroke="#0C0000" stroke-width="11" stroke-linecap="round" stroke-miterlimit="10" x1="13.919" y1="7.917" x2="14.398" y2="49.484"/>
	<ellipse fill="#993333" cx="15.684" cy="5.216" rx="4.661" ry="5.216"/>
</g>
<g>
	
		<line fill="none" stroke="#0C0000" stroke-width="11" stroke-linecap="round" stroke-miterlimit="10" x1="43.083" y1="7.917" x2="43.561" y2="49.484"/>
	<ellipse fill="#993333" cx="44.847" cy="5.216" rx="4.661" ry="5.216"/>
</g>
<g>
	<g>
		<path fill="none" stroke="#0C0000" stroke-width="9" stroke-miterlimit="10" d="M20.641,102.228c0,0,0-1.527,0-6.35
			c0-7.861,5.878-10.107,5.878-10.107"/>
	</g>
	<path fill="#993333" d="M13.749,102.601L13.749,102.601c0.001-2.332,1.889-4.221,4.22-4.221h4.963c2.33,0,4.219,1.889,4.219,4.219
		l0,0"/>
</g>
<g>
	<g>
		<path fill="none" stroke="#0C0000" stroke-width="9" stroke-miterlimit="10" d="M40.284,102.228c0,0,0-1.527,0-6.35
			c-0.001-7.861-5.877-10.107-5.877-10.107"/>
	</g>
	<path fill="#993333" d="M47.175,102.601L47.175,102.601c0-2.332-1.889-4.221-4.22-4.221h-4.962c-2.331,0-4.219,1.889-4.219,4.219
		l0,0"/>
</g>
<g>
	<polygon fill="#0C0000" points="45.857,66.567 36.344,66.567 36.344,57.054 	"/>
	<polygon fill="#0C0000" points="45.857,71.591 36.344,71.591 36.344,62.079 	"/>
	<polygon fill="#0C0000" points="45.857,76.616 36.344,76.616 36.344,67.104 	"/>
	<polygon fill="#0C0000" points="45.857,81.642 36.344,81.642 36.344,72.128 	"/>
	<polygon fill="#0C0000" points="45.857,86.009 36.344,86.009 36.344,76.497 	"/>
</g>
<g>
	<polygon fill="#0C0000" points="14.43,71.464 23.943,71.464 23.943,61.95 	"/>
	<polygon fill="#0C0000" points="14.43,76.487 23.943,76.487 23.943,66.976 	"/>
	<polygon fill="#0C0000" points="14.43,81.513 23.943,81.513 23.943,72.001 	"/>
	<polygon fill="#0C0000" points="14.43,86.538 23.943,86.538 23.943,77.024 	"/>
</g>
<path fill="#993333" d="M21.695,83.071c0,4.682,3.795,8.477,8.476,8.477l0,0c4.681,0,8.476-3.795,8.476-8.475V72.017
	c0-4.684-3.794-8.477-8.477-8.477l0,0c-4.681,0-8.476,3.795-8.476,8.477L21.695,83.071L21.695,83.071z"/>
<g>
	<circle fill="#993333" cx="7.842" cy="49.145" r="7.842"/>
	<circle fill="#0C0000" cx="7.841" cy="49.145" r="5.298"/>
</g>
<g>
	<path fill="#993333" d="M45.847,49.317c0,9.598-7.778,17.373-17.371,17.373c-9.594,0-17.375-7.775-17.375-17.373
		c0-9.596,7.781-17.375,17.375-17.375C38.069,31.942,45.847,39.722,45.847,49.317z"/>
</g>
<path fill="#CC6633" d="M41.6,64.806c0,5.582-4.527,10.111-10.11,10.111H16.252c-5.583,0-10.11-4.529-10.11-10.111v-1.529
	c0-5.584,4.527-10.111,10.11-10.111H31.49c5.583,0,10.11,4.527,10.11,10.111V64.806z"/>
<g>
	<g>
		<path d="M20.774,48.589c0,0.801-0.647,1.451-1.445,1.451c-0.804,0-1.453-0.65-1.453-1.451c0-0.795,0.648-1.445,1.453-1.445
			C20.127,47.144,20.774,47.794,20.774,48.589z"/>
		<path d="M29.865,48.589c0,0.801-0.648,1.451-1.448,1.451s-1.45-0.65-1.45-1.451c0-0.795,0.651-1.445,1.45-1.445
			C29.217,47.144,29.865,47.794,29.865,48.589z"/>
	</g>
	<rect x="17.857" y="41.997" fill="#0C0000" width="12.286" height="2.703"/>
</g>
<rect x="17.777" y="52.919" fill="#0C0000" width="4.654" height="2.553"/>
<rect x="25.211" y="52.919" fill="#0C0000" width="4.654" height="2.553"/>
<g>
	<circle fill="#993333" cx="49.535" cy="49.145" r="7.842"/>
	<circle fill="#0C0000" cx="49.535" cy="49.145" r="5.297"/>
</g>
<polygon fill="#0C0000" points="22.112,36.698 31.625,36.698 31.625,27.187 "/>
</svg>
