<?xml version="1.0" encoding="utf-8"?>
<!-- Generator: Adobe Illustrator 17.0.0, SVG Export Plug-In . SVG Version: 6.00 Build 0)  -->
<!DOCTYPE svg PUBLIC "-//W3C//DTD SVG 1.1//EN" "http://www.w3.org/Graphics/SVG/1.1/DTD/svg11.dtd">
<svg version="1.1" id="Слой_1" xmlns="http://www.w3.org/2000/svg" xmlns:xlink="http://www.w3.org/1999/xlink" x="0px" y="0px"
	 width="94.734px" height="89.857px" viewBox="0 0 94.734 89.857" enable-background="new 0 0 94.734 89.857" xml:space="preserve">
<g>
	<g>
		<rect x="37.325" y="63.004" fill="#813333" width="9.728" height="23.512"/>
		<path d="M47.163,86.516h-9.906v3.342h12.344C49.22,87.947,47.163,86.516,47.163,86.516z"/>
	</g>
	<g>
		<rect x="25.968" y="63.004" fill="#813333" width="9.73" height="23.512"/>
		<path d="M35.807,86.516h-9.906v3.342h12.344C37.862,87.947,35.807,86.516,35.807,86.516z"/>
	</g>
	<g>
		<path fill="#663399" d="M20.606,54.449c0-7.668,7.297-14.609,16.302-14.609c9.002,0,16.302,6.941,16.302,14.609"/>
		<path fill="#813333" d="M53.21,55.275c0,7.668-7.3,13.885-16.302,13.885c-9.003,0-16.302-6.217-16.302-13.885"/>
		<rect x="32.482" y="38.969" fill="#FFFFFF" width="8.849" height="19.557"/>
		<g>
			<path fill="#663399" d="M41.332,58.525c0.132,8.525,11.878,7.055,11.878,7.055V54.076c0,0-8.718-11.543-11.878-11.543
				C41.332,67.705,41.332,43.879,41.332,58.525z"/>
		</g>
		<g>
			<path fill="#663399" d="M32.482,58.525c-0.13,8.525-11.876,7.055-11.876,7.055V54.076c0,0,8.716-11.543,11.876-11.543
				C32.482,67.705,32.482,43.879,32.482,58.525z"/>
		</g>
	</g>
	<g>
		<path fill="#FF8A33" d="M40.302,40.15l-3.299,4.252l-3.301-4.252v-5.805c0-1.641,1.478-2.973,3.301-2.973l0,0
			c1.822,0,3.299,1.332,3.299,2.973V40.15z"/>
		<g>
			<circle fill="#FF8A33" cx="37.345" cy="21.191" r="19.214"/>
			<path fill="#4D3333" d="M37.52,4.791l13.194,0.918C47.093,2.182,42.159,0,36.703,0C25.6,0,16.599,9,16.599,20.104
				c0,3.688,0.247,2.305,3.227,6.062l1.461-0.52c1.813,0.391,4.922,0.488,4.898-1.566c-0.139-12.359,2.45-18.393,10.291-19.289
				H37.52z"/>
			<path fill="#4D3333" d="M38.012,21.043c0,0.517-0.42,0.938-0.933,0.938c-0.519,0-0.937-0.42-0.937-0.938
				c0-0.514,0.417-0.932,0.937-0.932C37.592,20.111,38.012,20.529,38.012,21.043z"/>
			<path fill="#4D3333" d="M53.186,21.043c0,0.517-0.419,0.938-0.936,0.938s-0.936-0.42-0.936-0.938
				c0-0.514,0.419-0.932,0.936-0.932S53.186,20.529,53.186,21.043z"/>
			<path fill="#FF8A33" d="M28.275,24.002c0,2.439-1.978,4.418-4.418,4.418H18.19c-2.441,0-4.418-1.979-4.418-4.418l0,0
				c0-2.44,1.977-4.418,4.418-4.418h5.667C26.297,19.584,28.275,21.562,28.275,24.002L28.275,24.002z"/>
			<path fill="#4D3333" d="M50.574,5.67c3.802,4.318-0.286,7.094-4.863,6.512c-3.537-0.449-8.245-2.086-12.109-6.264
				C29.742,1.746,50.574,5.67,50.574,5.67z"/>
			<path fill="#4D3333" d="M26.291,23.273c0,1.096-0.888,1.983-1.98,1.983l0,0c-1.096,0-1.984-0.887-1.984-1.983v-5.166
				c0-1.094,0.888-1.984,1.984-1.984l0,0c1.093,0,1.98,0.891,1.98,1.984V23.273z"/>
			<path fill="#4D3333" d="M58.97,3.785L58.97,3.785c0,4.584-3.717,8.297-8.299,8.297H48.3c-4.583,0-8.298-3.713-8.298-8.297l0,0"/>
			<path fill="#FF8A33" d="M53.692,1.91"/>
		</g>
	</g>
	<g>
		<g>
			<g>
				<g>
					<path fill="#FF8A33" d="M4.183,38.731c-0.629-0.877-0.691-1.976-0.45-2.885c0.256-0.923,0.89-1.701,1.809-2.17
						c0.919-0.47,1.939-0.564,2.819-0.384c0.9,0.172,1.579,0.671,2.088,1.363c0.899,1.421,0.513,3.527-1.076,4.865
						C7.806,40.841,5.361,40.576,4.183,38.731z"/>
					<path fill="#663399" d="M10.496,34.623c0,0,0.148,0.22,0.408,0.604c0.129,0.193,0.286,0.427,0.466,0.695
						c0.191,0.26,0.426,0.539,0.67,0.852c0.942,1.281,2.424,2.808,4.019,4.202c1.6,1.393,3.374,2.585,4.764,3.356
						c1.385,0.784,2.348,1.202,2.348,1.202c1.544,0.72,2.242,2.671,1.741,4.707c-0.495,2.044-2.866,3.138-4.88,2.201
						c0,0-1.229-0.535-2.961-1.515c-1.738-0.967-3.947-2.451-5.953-4.193c-2.003-1.74-3.852-3.672-5.045-5.273
						c-0.307-0.393-0.589-0.754-0.838-1.073c-0.227-0.335-0.425-0.628-0.588-0.869c-0.325-0.483-0.511-0.758-0.511-0.758"/>
				</g>
			</g>
		</g>
		<g>
			<g>
				<g>
					<path fill="#FF8A33" d="M63.459,31.958c0.493-0.722,1.141-1.272,2.022-1.543c0.87-0.269,1.911-0.294,2.873,0.08
						c0.962,0.375,1.651,1.113,1.953,2.079c0.294,0.954,0.26,2.166-0.405,3.177c-0.31,0.515-0.698,0.95-1.124,1.283
						c-0.444,0.321-0.959,0.516-1.454,0.617c-1.001,0.198-1.988-0.05-2.783-0.708c-0.794-0.659-1.271-1.577-1.447-2.463
						c-0.091-0.447-0.086-0.877-0.025-1.3C63.109,32.744,63.233,32.332,63.459,31.958z"/>
					<path fill="#663399" d="M69.951,35.779c0,0-0.193,0.318-0.531,0.876c-0.312,0.576-0.883,1.308-1.56,2.193
						c-0.64,0.92-1.577,1.813-2.512,2.836c-1.02,0.923-2.102,1.921-3.289,2.76c-2.34,1.734-4.887,3.081-6.844,3.94
						c-0.984,0.418-1.81,0.754-2.401,0.953c-0.585,0.215-0.924,0.326-0.924,0.326c-2.248,0.753-4.576-0.538-4.893-2.619
						c-0.313-2.068,0.74-3.993,2.501-4.582c0,0,0.272-0.089,0.743-0.263c0.477-0.159,1.139-0.431,1.931-0.767
						c1.572-0.691,3.593-1.767,5.386-3.097c0.919-0.643,1.719-1.4,2.492-2.085c0.675-0.767,1.396-1.413,1.845-2.091
						c0.488-0.649,0.922-1.171,1.135-1.595c0.243-0.404,0.382-0.635,0.382-0.635"/>
				</g>
			</g>
		</g>
		<g>
			<g>
				<g>
					<path fill="#FF8A33" d="M67.072,53.685c1.37,1.144,1.298,3.298-0.085,4.737c-1.396,1.453-3.397,1.821-4.511,0.888
						c-0.58-0.45-0.85-1.184-0.856-2.016c-0.017-0.808,0.24-1.735,0.813-2.558c0.573-0.823,1.37-1.377,2.226-1.583
						C65.496,52.964,66.375,53.14,67.072,53.685z"/>
					<path fill="#663399" d="M62.441,59.352c0,0-0.179-0.14-0.493-0.384c-0.32-0.234-0.746-0.62-1.31-0.992
						c-1.105-0.782-2.615-1.763-4.202-2.547c-1.585-0.786-3.226-1.388-4.462-1.727c-1.239-0.35-2.054-0.458-2.054-0.458
						c-1.316-0.231-2.183-1.851-2.347-3.877c-0.175-2.048,1.631-3.739,3.554-3.396c0,0,1.171,0.162,2.821,0.628
						c1.656,0.453,3.781,1.238,5.782,2.233c2.003,0.993,3.86,2.195,5.203,3.15c0.688,0.459,1.197,0.912,1.583,1.197
						c0.377,0.295,0.592,0.464,0.592,0.464"/>
				</g>
			</g>
		</g>
	</g>
	<path fill="#994733" d="M43.345,32.109c0,0.406-0.329,0.734-0.735,0.734h-4.871c-0.406,0-0.735-0.328-0.735-0.734l0,0
		c0-0.406,0.329-0.736,0.735-0.736h4.871C43.016,31.373,43.345,31.703,43.345,32.109L43.345,32.109z"/>
	<path d="M9.39,40.752c0,1.828-1.482,3.311-3.311,3.311l0,0c-1.829,0-3.312-1.482-3.312-3.311V24.65
		c0-1.828,1.482-3.311,3.312-3.311l0,0c1.828,0,3.311,1.483,3.311,3.311V40.752z"/>
	<circle cx="4.695" cy="24.584" r="4.695"/>
	<circle cx="4.695" cy="42.73" r="4.695"/>
</g>
<path fill="#FFFFFF" d="M63.227,23.048c10.141,2.567,25.121-9.885,25.121-9.885l6.386,16.227c0,0-14.501,13.672-25.123,9.884
	L63.227,23.048z"/>
</svg>
