<?xml version="1.0" encoding="utf-8"?>
<!-- Generator: Adobe Illustrator 17.0.0, SVG Export Plug-In . SVG Version: 6.00 Build 0)  -->
<!DOCTYPE svg PUBLIC "-//W3C//DTD SVG 1.1//EN" "http://www.w3.org/Graphics/SVG/1.1/DTD/svg11.dtd">
<svg version="1.1" id="Слой_1" xmlns="http://www.w3.org/2000/svg" xmlns:xlink="http://www.w3.org/1999/xlink" x="0px" y="0px"
	 width="266.716px" height="94.347px" viewBox="0 0 266.716 94.347" enable-background="new 0 0 266.716 94.347"
	 xml:space="preserve">
<g>
	<g>
		<rect x="122.455" y="0" width="12.261" height="94.347"/>
		<rect x="132.414" y="27.026" width="13.399" height="6.131"/>
		<rect x="130.915" y="69.723" width="13.399" height="6.131"/>
		<rect x="112.316" y="47.174" width="13.398" height="6.131"/>
		<polyline fill="none" stroke="#000000" stroke-width="5" stroke-miterlimit="10" points="78.946,34.157 98.457,34.157 
			113.927,49.628 104.797,58.759 86.833,58.759 78.795,66.797 		"/>
		<polyline fill="none" stroke="#000000" stroke-width="5" stroke-miterlimit="10" points="157.704,89.108 142.234,73.638 
			151.364,64.507 169.328,64.507 		"/>
		<polyline fill="none" stroke="#000000" stroke-width="5" stroke-miterlimit="10" points="177.291,46.411 157.78,46.411 
			142.309,30.941 151.44,21.81 169.404,21.81 		"/>
		<polyline fill="none" stroke="#000000" stroke-width="5" stroke-miterlimit="10" points="123.826,20.446 113.98,30.291 
			106.849,23.16 96.624,33.385 		"/>
		<polyline fill="none" stroke="#000000" stroke-width="5" stroke-miterlimit="10" points="39.083,50.239 46.841,57.997 
			64.254,57.997 74.347,47.904 86.017,59.574 		"/>
		<polyline fill="none" stroke="#000000" stroke-width="5" stroke-miterlimit="10" points="48.893,34.157 58.448,24.603 
			71.967,24.603 81.73,34.366 		"/>
		<polyline fill="none" stroke="#000000" stroke-width="5" stroke-miterlimit="10" points="94.67,72.788 101.955,80.073 
			109.297,72.731 123.826,72.731 132.414,55.686 141.236,55.686 146.775,50.146 		"/>
		<polyline fill="none" stroke="#000000" stroke-width="5" stroke-miterlimit="10" points="151.733,40.364 159.37,32.728 
			181.509,32.728 190.587,23.65 203.219,36.283 		"/>
		<polyline fill="none" stroke="#000000" stroke-width="5" stroke-miterlimit="10" points="96.662,73.78 82.664,73.78 76.504,79.94 
			62.315,65.751 55.393,72.673 		"/>
		<polyline fill="none" stroke="#000000" stroke-width="5" stroke-miterlimit="10" points="155.781,65.11 165.086,74.416 
			180.251,74.416 189.616,65.051 189.616,51.069 199.339,51.069 208.778,51.069 218.531,41.316 		"/>
		<polyline fill="none" stroke="#000000" stroke-width="5" stroke-miterlimit="10" points="215.7,78.34 204.583,78.34 
			190.455,64.212 		"/>
	</g>
	<polyline fill="none" stroke="#000000" stroke-width="5" stroke-miterlimit="10" points="27.602,65.685 36.923,75.006 
		44.218,75.006 	"/>
	<polyline fill="none" stroke="#000000" stroke-width="5" stroke-miterlimit="10" points="1.768,27.419 11.37,37.021 23.289,37.021 
		30.012,30.298 37.823,38.108 	"/>
	<line fill="none" stroke="#000000" stroke-width="5" stroke-miterlimit="10" x1="12.702" y1="59.574" x2="3.468" y2="68.808"/>
	<polyline fill="none" stroke="#000000" stroke-width="5" stroke-miterlimit="10" points="226.716,23.65 235.234,32.169 
		240.536,26.867 	"/>
	<polyline fill="none" stroke="#000000" stroke-width="5" stroke-miterlimit="10" points="218.007,68.283 226.716,59.574 
		235.329,68.188 242.761,60.757 259.863,77.859 	"/>
	<line fill="none" stroke="#000000" stroke-width="5" stroke-miterlimit="10" x1="241.578" y1="51.069" x2="266.716" y2="51.069"/>
</g>
</svg>
