<?xml version="1.0" encoding="utf-8"?>
<!-- Generator: Adobe Illustrator 17.0.0, SVG Export Plug-In . SVG Version: 6.00 Build 0)  -->
<!DOCTYPE svg PUBLIC "-//W3C//DTD SVG 1.1//EN" "http://www.w3.org/Graphics/SVG/1.1/DTD/svg11.dtd">
<svg version="1.1" id="Слой_1" xmlns="http://www.w3.org/2000/svg" xmlns:xlink="http://www.w3.org/1999/xlink" x="0px" y="0px"
	 width="182.983px" height="94.347px" viewBox="0 0 182.983 94.347" enable-background="new 0 0 182.983 94.347"
	 xml:space="preserve">
<g>
	<rect x="85.139" y="0" width="12.261" height="94.347"/>
	<rect x="95.098" y="27.026" width="13.398" height="6.131"/>
	<rect x="93.599" y="69.723" width="13.398" height="6.131"/>
	<rect x="75" y="47.174" width="13.399" height="6.131"/>
	<polyline fill="none" stroke="#000000" stroke-width="5" stroke-miterlimit="10" points="41.63,34.157 61.141,34.157 
		76.612,49.628 67.481,58.759 49.518,58.759 41.479,66.797 	"/>
	<polyline fill="none" stroke="#000000" stroke-width="5" stroke-miterlimit="10" points="120.389,89.108 104.918,73.638 
		114.049,64.507 132.012,64.507 	"/>
	<polyline fill="none" stroke="#000000" stroke-width="5" stroke-miterlimit="10" points="139.975,46.411 120.464,46.411 
		104.994,30.941 114.125,21.81 132.088,21.81 	"/>
	<polyline fill="none" stroke="#000000" stroke-width="5" stroke-miterlimit="10" points="86.51,20.446 76.665,30.291 69.533,23.16 
		59.308,33.385 	"/>
	<polyline fill="none" stroke="#000000" stroke-width="5" stroke-miterlimit="10" points="1.768,50.239 9.525,57.997 26.939,57.997 
		37.032,47.904 48.702,59.574 	"/>
	<polyline fill="none" stroke="#000000" stroke-width="5" stroke-miterlimit="10" points="11.578,34.157 21.132,24.603 
		34.651,24.603 44.415,34.366 	"/>
	<polyline fill="none" stroke="#000000" stroke-width="5" stroke-miterlimit="10" points="57.354,72.788 64.639,80.073 
		71.981,72.731 86.51,72.731 95.098,55.686 103.92,55.686 109.459,50.146 	"/>
	<polyline fill="none" stroke="#000000" stroke-width="5" stroke-miterlimit="10" points="114.417,40.364 122.054,32.728 
		144.194,32.728 153.271,23.65 165.904,36.283 	"/>
	<polyline fill="none" stroke="#000000" stroke-width="5" stroke-miterlimit="10" points="59.347,73.78 45.349,73.78 39.188,79.94 
		24.999,65.751 18.077,72.673 	"/>
	<polyline fill="none" stroke="#000000" stroke-width="5" stroke-miterlimit="10" points="118.465,65.11 127.771,74.416 
		142.935,74.416 152.3,65.051 152.3,51.069 162.023,51.069 171.462,51.069 181.215,41.316 	"/>
	<polyline fill="none" stroke="#000000" stroke-width="5" stroke-miterlimit="10" points="178.384,78.34 167.267,78.34 
		153.139,64.212 	"/>
</g>
</svg>
