<?xml version="1.0" encoding="utf-8"?>
<!-- Generator: Adobe Illustrator 17.0.0, SVG Export Plug-In . SVG Version: 6.00 Build 0)  -->
<!DOCTYPE svg PUBLIC "-//W3C//DTD SVG 1.1//EN" "http://www.w3.org/Graphics/SVG/1.1/DTD/svg11.dtd">
<svg version="1.1" id="Слой_1" xmlns="http://www.w3.org/2000/svg" xmlns:xlink="http://www.w3.org/1999/xlink" x="0px" y="0px"
	 width="61.085px" height="89.857px" viewBox="0 0 61.085 89.857" enable-background="new 0 0 61.085 89.857" xml:space="preserve">
<g>
	<rect x="32.572" y="63.004" fill="#813333" width="9.728" height="23.512"/>
	<path d="M42.41,86.516h-9.906v3.342h12.344C44.467,87.947,42.41,86.516,42.41,86.516z"/>
</g>
<g>
	<rect x="21.215" y="63.004" fill="#813333" width="9.73" height="23.512"/>
	<path d="M31.054,86.516h-9.906v3.342h12.344C33.109,87.947,31.054,86.516,31.054,86.516z"/>
</g>
<g>
	<path fill="#663399" d="M15.853,54.449c0-7.668,7.297-14.609,16.302-14.609c9.002,0,16.302,6.941,16.302,14.609"/>
	<path fill="#813333" d="M48.457,55.275c0,7.668-7.3,13.885-16.302,13.885c-9.003,0-16.302-6.217-16.302-13.885"/>
	<rect x="27.729" y="38.969" fill="#FFFFFF" width="8.849" height="19.557"/>
	<g>
		<path fill="#663399" d="M36.579,58.525c0.132,8.525,11.878,7.055,11.878,7.055V54.076c0,0-8.718-11.543-11.878-11.543
			C36.579,67.705,36.579,43.879,36.579,58.525z"/>
	</g>
	<g>
		<path fill="#663399" d="M27.729,58.525c-0.13,8.525-11.876,7.055-11.876,7.055V54.076c0,0,8.716-11.543,11.876-11.543
			C27.729,67.705,27.729,43.879,27.729,58.525z"/>
	</g>
</g>
<g>
	<path fill="#FF8A33" d="M35.549,40.15l-3.299,4.252l-3.301-4.252v-5.805c0-1.641,1.478-2.973,3.301-2.973l0,0
		c1.822,0,3.299,1.332,3.299,2.973V40.15z"/>
	<g>
		<circle fill="#FF8A33" cx="32.592" cy="21.191" r="19.214"/>
		<path fill="#4D3333" d="M32.767,4.791L45.96,5.709C42.34,2.182,37.406,0,31.95,0C20.847,0,11.846,9,11.846,20.104
			c0,3.688,0.247,2.305,3.227,6.062l1.461-0.52c1.813,0.391,4.922,0.488,4.898-1.566c-0.139-12.359,2.45-18.392,10.291-19.289
			H32.767z"/>
		<path fill="#4D3333" d="M33.259,21.043c0,0.518-0.42,0.938-0.933,0.938c-0.52,0-0.937-0.42-0.937-0.938
			c0-0.514,0.417-0.932,0.937-0.932C32.839,20.111,33.259,20.529,33.259,21.043z"/>
		<path fill="#4D3333" d="M48.433,21.043c0,0.518-0.419,0.938-0.936,0.938c-0.517,0-0.936-0.42-0.936-0.938
			c0-0.514,0.419-0.932,0.936-0.932C48.013,20.111,48.433,20.529,48.433,21.043z"/>
		<path fill="#FF8A33" d="M23.522,24.002c0,2.44-1.978,4.418-4.418,4.418h-5.667c-2.441,0-4.418-1.979-4.418-4.418l0,0
			c0-2.439,1.977-4.418,4.418-4.418h5.667C21.544,19.584,23.522,21.562,23.522,24.002L23.522,24.002z"/>
		<path fill="#4D3333" d="M45.821,5.67c3.802,4.318-0.286,7.094-4.863,6.512c-3.537-0.449-8.245-2.086-12.109-6.264
			C24.989,1.746,45.821,5.67,45.821,5.67z"/>
		<path fill="#4D3333" d="M21.538,23.273c0,1.096-0.888,1.982-1.98,1.982l0,0c-1.096,0-1.984-0.887-1.984-1.982v-5.166
			c0-1.094,0.888-1.984,1.984-1.984l0,0c1.093,0,1.98,0.891,1.98,1.984V23.273z"/>
		<path fill="#4D3333" d="M54.217,3.785L54.217,3.785c0,4.584-3.717,8.297-8.299,8.297h-2.371c-4.583,0-8.298-3.713-8.298-8.297l0,0
			"/>
		<path fill="#FF8A33" d="M48.939,1.91"/>
	</g>
</g>
<g>
	<g>
		<g>
			<path fill="#FF8A33" d="M2.706,31.792c-0.27-1.045,0.069-2.092,0.622-2.853c0.572-0.769,1.444-1.264,2.471-1.371
				c1.026-0.106,2.012,0.174,2.767,0.66c0.777,0.486,1.23,1.196,1.455,2.025c0.325,1.65-0.795,3.474-2.76,4.148
				C5.323,35.068,3.139,33.938,2.706,31.792z"/>
			<path fill="#663399" d="M10.077,30.241c0,0,0.059,0.258,0.162,0.711c0.051,0.226,0.113,0.501,0.184,0.816
				c0.085,0.311,0.202,0.656,0.317,1.037c0.416,1.535,1.246,3.494,2.23,5.37c0.989,1.877,2.212,3.629,3.23,4.85
				c1.009,1.231,1.755,1.969,1.755,1.969c1.18,1.229,1.126,3.3-0.077,5.018c-1.2,1.727-3.806,1.891-5.345,0.29
				c0,0-0.953-0.943-2.214-2.482c-1.272-1.53-2.795-3.711-4.037-6.06c-1.239-2.345-2.266-4.815-2.8-6.739
				c-0.144-0.478-0.277-0.915-0.394-1.303c-0.091-0.395-0.17-0.739-0.235-1.022c-0.129-0.567-0.202-0.892-0.202-0.892"/>
		</g>
	</g>
</g>
<g>
	<g>
		<g>
			<path fill="#FF8A33" d="M53.367,29.712c0.263-0.834,0.725-1.547,1.49-2.061c0.755-0.509,1.745-0.833,2.773-0.753
				c1.029,0.081,1.902,0.589,2.47,1.426c0.557,0.828,0.874,1.999,0.53,3.159c-0.148,0.582-0.394,1.111-0.706,1.553
				c-0.333,0.435-0.769,0.771-1.214,1.01c-0.901,0.479-1.918,0.526-2.869,0.125c-0.951-0.401-1.672-1.143-2.096-1.94
				c-0.216-0.402-0.336-0.815-0.399-1.237C53.258,30.565,53.258,30.135,53.367,29.712z"/>
			<path fill="#663399" d="M60.685,31.496c0,0-0.093,0.361-0.255,0.992c-0.132,0.642-0.468,1.507-0.861,2.55
				c-0.347,1.066-0.986,2.191-1.587,3.44c-0.71,1.178-1.458,2.446-2.353,3.592c-1.74,2.335-3.789,4.36-5.416,5.748
				c-0.822,0.684-1.515,1.244-2.023,1.606c-0.499,0.374-0.791,0.579-0.791,0.579c-1.935,1.37-4.537,0.806-5.44-1.095
				c-0.896-1.89-0.444-4.036,1.071-5.109c0,0,0.235-0.163,0.635-0.466c0.41-0.29,0.966-0.742,1.628-1.291
				c1.306-1.115,2.93-2.729,4.263-4.52c0.694-0.881,1.242-1.836,1.784-2.716c0.425-0.929,0.928-1.756,1.163-2.534
				c0.28-0.762,0.545-1.387,0.627-1.854c0.116-0.457,0.183-0.719,0.183-0.719"/>
		</g>
	</g>
</g>
<g>
	<g>
		<g>
			<path fill="#FF8A33" d="M7.241,67.939c-0.388,0.783-0.954,1.417-1.79,1.807c-0.824,0.387-1.852,0.555-2.856,0.316
				c-1.004-0.238-1.789-0.875-2.221-1.79c-0.422-0.904-0.556-2.11-0.037-3.202c0.236-0.553,0.56-1.037,0.936-1.426
				c0.396-0.379,0.879-0.643,1.355-0.812c0.964-0.334,1.976-0.225,2.854,0.318c0.877,0.543,1.476,1.387,1.773,2.24
				c0.152,0.43,0.206,0.857,0.204,1.284C7.48,67.113,7.414,67.538,7.241,67.939z"/>
			<path fill="#663399" d="M0.285,65.049c0,0,0.147-0.342,0.405-0.94c0.229-0.614,0.694-1.417,1.243-2.387
				c0.507-1,1.312-2.013,2.098-3.155c0.883-1.055,1.817-2.193,2.878-3.187c2.078-2.04,4.415-3.725,6.236-4.845
				c0.917-0.549,1.688-0.996,2.246-1.275c0.55-0.293,0.871-0.451,0.871-0.451c2.123-1.056,4.607-0.098,5.207,1.919
				c0.595,2.005-0.182,4.057-1.845,4.883c0,0-0.257,0.125-0.699,0.363c-0.45,0.223-1.069,0.584-1.807,1.025
				c-1.462,0.901-3.315,2.245-4.908,3.809c-0.821,0.764-1.51,1.623-2.181,2.408C9.465,64.07,8.84,64.81,8.489,65.543
				c-0.394,0.71-0.752,1.287-0.905,1.736c-0.185,0.434-0.291,0.682-0.291,0.682"/>
		</g>
	</g>
</g>
<g>
	<g>
		<g>
			<path fill="#FF8A33" d="M60.809,61.731c0.445,0.938,0.307,1.99-0.089,2.807c-0.412,0.828-1.159,1.449-2.121,1.731
				c-0.962,0.282-1.952,0.196-2.755-0.119c-0.823-0.312-1.377-0.887-1.734-1.613c-0.589-1.468,0.147-3.382,1.894-4.4
				C57.719,59.135,60.013,59.779,60.809,61.731z"/>
			<path fill="#663399" d="M54.059,64.56c0,0-0.1-0.229-0.276-0.629c-0.087-0.2-0.193-0.444-0.314-0.723
				c-0.144-0.268-0.307-0.57-0.484-0.9c-0.666-1.342-1.798-3.002-3.075-4.544c-1.281-1.541-2.756-2.928-3.946-3.854
				c-1.183-0.937-2.024-1.473-2.024-1.473c-1.342-0.899-1.694-2.869-0.905-4.747c0.785-1.887,3.193-2.592,4.959-1.411
				c0,0,1.08,0.688,2.572,1.871c1.5,1.171,3.359,2.916,4.991,4.874c1.629,1.955,3.064,4.09,3.928,5.803
				c0.226,0.423,0.432,0.811,0.616,1.155c0.157,0.356,0.294,0.667,0.407,0.923c0.224,0.513,0.352,0.805,0.352,0.805"/>
		</g>
	</g>
</g>
<path fill="#994733" d="M38.592,32.109c0,0.406-0.329,0.734-0.735,0.734h-4.871c-0.406,0-0.735-0.328-0.735-0.734l0,0
	c0-0.406,0.329-0.736,0.735-0.736h4.871C38.263,31.373,38.592,31.703,38.592,32.109L38.592,32.109z"/>
</svg>
