<?xml version="1.0" encoding="utf-8"?>
<!-- Generator: Adobe Illustrator 17.0.0, SVG Export Plug-In . SVG Version: 6.00 Build 0)  -->
<!DOCTYPE svg PUBLIC "-//W3C//DTD SVG 1.1//EN" "http://www.w3.org/Graphics/SVG/1.1/DTD/svg11.dtd">
<svg version="1.1" id="Слой_1" xmlns="http://www.w3.org/2000/svg" xmlns:xlink="http://www.w3.org/1999/xlink" x="0px" y="0px"
	 width="57.588px" height="89.857px" viewBox="0 0 57.588 89.857" enable-background="new 0 0 57.588 89.857" xml:space="preserve">
<g>
	<rect x="23.554" y="63.004" fill="#813333" width="9.728" height="23.512"/>
	<path d="M33.392,86.516h-9.906v3.342H35.83C35.449,87.947,33.392,86.516,33.392,86.516z"/>
</g>
<g>
	<rect x="12.196" y="63.004" fill="#813333" width="9.73" height="23.512"/>
	<path d="M22.036,86.516H12.13v3.342h12.344C24.091,87.947,22.036,86.516,22.036,86.516z"/>
</g>
<g>
	<path fill="#663399" d="M6.834,54.449c0-7.668,7.297-14.609,16.302-14.609c9.002,0,16.302,6.941,16.302,14.609"/>
	<path fill="#813333" d="M39.438,55.275c0,7.668-7.3,13.885-16.302,13.885c-9.004,0-16.302-6.217-16.302-13.885"/>
	<rect x="18.711" y="38.969" fill="#FFFFFF" width="8.849" height="19.557"/>
	<g>
		<path fill="#663399" d="M27.56,58.525c0.132,8.525,11.878,7.055,11.878,7.055V54.076c0,0-8.718-11.543-11.878-11.543
			C27.56,67.705,27.56,43.879,27.56,58.525z"/>
	</g>
	<g>
		<path fill="#663399" d="M18.711,58.525C18.581,67.05,6.834,65.58,6.834,65.58V54.076c0,0,8.716-11.543,11.877-11.543
			C18.711,67.705,18.711,43.879,18.711,58.525z"/>
	</g>
</g>
<g>
	<path fill="#FF8A33" d="M26.53,40.15l-3.299,4.252L19.93,40.15v-5.805c0-1.641,1.478-2.973,3.301-2.973l0,0
		c1.822,0,3.299,1.332,3.299,2.973V40.15z"/>
	<g>
		<circle fill="#FF8A33" cx="23.573" cy="21.191" r="19.214"/>
		<path fill="#4D3333" d="M23.748,4.791l13.194,0.918C33.321,2.182,28.388,0,22.932,0C11.829,0,2.828,9,2.828,20.104
			c0,3.688,0.247,2.305,3.227,6.062l1.461-0.52c1.813,0.391,4.922,0.488,4.898-1.566c-0.139-12.359,2.45-18.392,10.29-19.289
			C22.704,4.791,23.748,4.791,23.748,4.791z"/>
		<path fill="#4D3333" d="M24.24,21.043c0,0.518-0.42,0.938-0.933,0.938c-0.52,0-0.937-0.42-0.937-0.938
			c0-0.514,0.417-0.932,0.937-0.932C23.82,20.111,24.24,20.529,24.24,21.043z"/>
		<path fill="#4D3333" d="M39.414,21.043c0,0.518-0.419,0.938-0.936,0.938s-0.936-0.42-0.936-0.938c0-0.514,0.419-0.932,0.936-0.932
			S39.414,20.529,39.414,21.043z"/>
		<path fill="#FF8A33" d="M14.503,24.002c0,2.44-1.978,4.418-4.418,4.418H4.418C1.977,28.42,0,26.441,0,24.002l0,0
			c0-2.439,1.977-4.418,4.418-4.418h5.667C12.525,19.584,14.503,21.562,14.503,24.002L14.503,24.002z"/>
		<path fill="#4D3333" d="M36.803,5.67c3.802,4.318-0.286,7.094-4.863,6.512c-3.537-0.449-8.245-2.086-12.109-6.264
			C15.971,1.746,36.803,5.67,36.803,5.67z"/>
		<path fill="#4D3333" d="M12.519,23.273c0,1.096-0.888,1.982-1.981,1.982l0,0c-1.096,0-1.984-0.887-1.984-1.982v-5.166
			c0-1.094,0.888-1.984,1.984-1.984l0,0c1.093,0,1.981,0.891,1.981,1.984V23.273z"/>
		<path fill="#4D3333" d="M45.199,3.785L45.199,3.785c0,4.584-3.717,8.297-8.299,8.297h-2.371c-4.583,0-8.298-3.713-8.298-8.297l0,0
			"/>
		<path fill="#FF8A33" d="M39.921,1.91"/>
	</g>
</g>
<g>
	<g>
		<g>
			<path fill="#FF8A33" d="M56.239,51.099c0.879,0.551,1.329,1.512,1.435,2.415c0.098,0.92-0.199,1.845-0.858,2.6
				c-0.66,0.755-1.541,1.214-2.387,1.381c-0.862,0.179-1.637-0.008-2.329-0.428c-1.286-0.921-1.694-2.93-0.768-4.728
				C52.239,50.571,54.519,49.881,56.239,51.099z"/>
			<path fill="#663399" d="M52.069,57.113c0,0-0.207-0.139-0.571-0.382c-0.182-0.122-0.401-0.27-0.654-0.441
				c-0.266-0.148-0.565-0.316-0.892-0.498c-1.283-0.773-3.13-1.565-5.035-2.178c-1.908-0.611-3.898-0.987-5.399-1.128
				c-1.501-0.154-2.499-0.154-2.499-0.154c-1.615-0.036-2.971-1.509-3.315-3.516c-0.352-2.013,1.299-3.903,3.423-3.856
				c0,0,1.281,0,3.175,0.195c1.895,0.181,4.4,0.653,6.828,1.427c2.425,0.772,4.782,1.801,6.432,2.781
				c0.418,0.235,0.801,0.451,1.14,0.643c0.324,0.216,0.607,0.405,0.84,0.559c0.465,0.312,0.73,0.49,0.73,0.49"/>
		</g>
	</g>
</g>
<g>
	<g>
		<g>
			<path fill="#FF8A33" d="M29.748,55.854c0.769,0.698,1.042,1.722,0.987,2.63c-0.066,0.923-0.521,1.781-1.302,2.408
				c-0.783,0.627-1.73,0.924-2.593,0.939c-0.88,0.025-1.611-0.296-2.217-0.831c-1.103-1.133-1.152-3.183,0.076-4.79
				C25.904,54.63,28.269,54.352,29.748,55.854z"/>
			<path fill="#663399" d="M24.584,61.04c0,0-0.18-0.174-0.495-0.476c-0.157-0.152-0.348-0.337-0.566-0.549
				c-0.236-0.193-0.501-0.411-0.791-0.647c-1.127-0.987-2.806-2.091-4.573-3.031c-1.771-0.937-3.663-1.658-5.116-2.061
				c-1.45-0.416-2.432-0.592-2.432-0.592c-1.583-0.32-2.659-2.008-2.645-4.045c0.008-2.044,1.966-3.613,4.048-3.193
				c0,0,1.261,0.225,3.091,0.751c1.834,0.512,4.216,1.418,6.471,2.606c2.251,1.187,4.39,2.614,5.842,3.87
				c0.37,0.305,0.709,0.585,1.009,0.833c0.281,0.27,0.526,0.505,0.728,0.698c0.403,0.389,0.632,0.611,0.632,0.611"/>
		</g>
	</g>
</g>
<path fill="#994733" d="M29.573,32.109c0,0.406-0.329,0.734-0.735,0.734h-4.871c-0.406,0-0.735-0.328-0.735-0.734l0,0
	c0-0.406,0.329-0.736,0.735-0.736h4.871C29.244,31.373,29.573,31.703,29.573,32.109L29.573,32.109z"/>
</svg>
