<?xml version="1.0" encoding="utf-8"?>
<!-- Generator: Adobe Illustrator 17.0.0, SVG Export Plug-In . SVG Version: 6.00 Build 0)  -->
<!DOCTYPE svg PUBLIC "-//W3C//DTD SVG 1.1//EN" "http://www.w3.org/Graphics/SVG/1.1/DTD/svg11.dtd">
<svg version="1.1" id="Слой_1" xmlns="http://www.w3.org/2000/svg" xmlns:xlink="http://www.w3.org/1999/xlink" x="0px" y="0px"
	 width="51.362px" height="83.252px" viewBox="0 0 51.362 83.252" enable-background="new 0 0 51.362 83.252" xml:space="preserve">
<g>
	<path d="M17.87,80.045l-8.673-0.02l-0.007,3.227h10.806C19.667,81.41,17.87,80.045,17.87,80.045z"/>
	<rect x="9.197" y="64.346" fill="#FF8A33" width="8.577" height="15.68"/>
</g>
<g>
	<path d="M29.293,80.045l-8.674-0.02l-0.007,3.227h10.806C31.09,81.41,29.293,80.045,29.293,80.045z"/>
	<rect x="20.62" y="64.346" fill="#FF8A33" width="8.577" height="15.68"/>
</g>
<rect x="9.162" y="59.42" width="20.035" height="12.766"/>
<path d="M9.197,59.451L9.197,59.451c0-2.348,1.904-4.252,4.253-4.252h11.477c2.349,0,4.253,1.904,4.253,4.252l0,0"/>
<g>
	<g>
		<circle cx="36.704" cy="22.1" r="7.938"/>
		<g>
			<circle cx="40.568" cy="34.633" r="7.938"/>
			<ellipse cx="26.572" cy="34.633" rx="16.712" ry="7.939"/>
			<circle cx="11.949" cy="35.051" r="7.938"/>
		</g>
	</g>
	<g>
		<circle fill="#FF8A33" cx="18.895" cy="19.742" r="18.886"/>
		<g>
			<circle fill="#5C3639" cx="19.136" cy="24.115" r="0.919"/>
			<circle fill="#5C3639" cx="4.761" cy="24.115" r="0.919"/>
		</g>
		<path d="M32.27,32.068c0-1.734-0.225-3.418-0.647-5.021c-2.22-8.436-9.901-14.658-19.035-14.658
			c-4.789,0-9.176,1.713-12.588,4.555C1.336,7.373,9.532,0,19.47,0c10.87,0,19.683,8.812,19.683,19.684
			c0,6.08-2.762,11.516-7.096,15.125C32.183,33.912,32.27,33.002,32.27,32.068z"/>
	</g>
	<path d="M30.458,7.316c5.314,4.266,8.006,10.527,7.769,16.596c-5.873,1.549-12.882-0.471-18.197-4.736
		c-5.317-4.266-9.178-10.652-9.037-14.219C16.865,3.412,25.14,3.053,30.458,7.316z"/>
</g>
<g>
	<g>
		<g>
			<g>
				<path fill="#FF8A33" d="M7.615,63.536c-0.053,0.472-0.24,0.91-0.446,1.31C6.98,65.246,6.706,65.61,6.37,65.928
					c-0.673,0.632-1.593,1.095-2.595,1.133c-1.002,0.038-1.901-0.396-2.541-1.216c-0.319-0.408-0.573-0.908-0.741-1.469
					c-0.155-0.559-0.153-1.163-0.08-1.792c0.126-1.27,0.806-2.294,1.621-2.911c0.808-0.625,1.804-0.823,2.779-0.546
					c0.954,0.272,1.712,0.941,2.216,1.74C7.524,61.67,7.696,62.593,7.615,63.536z"/>
				<path fill="#CC66FF" d="M0.359,62.578c0,0,0.052-0.388,0.142-1.068c0.097-0.677,0.344-1.608,0.594-2.742
					c0.605-2.221,1.603-5.113,2.979-7.76c2.674-5.353,6.473-9.834,6.473-9.834c1.538-1.88,4.16-2.176,5.573-0.701
					c1.405,1.469,1.442,3.77,0.123,5.382c0,0-0.209,0.241-0.55,0.685c-0.35,0.437-0.84,1.069-1.397,1.85
					c-1.12,1.555-2.505,3.701-3.639,5.938c-1.16,2.233-1.943,4.56-2.428,6.3c-0.184,0.876-0.387,1.604-0.46,2.114
					c-0.064,0.51-0.101,0.802-0.101,0.802"/>
			</g>
		</g>
	</g>
	<g>
		<g>
			<g>
				<path fill="#FF8A33" d="M43.007,43.781c0.154-0.133,0.322-0.239,0.503-0.33c0.173-0.11,0.358-0.199,0.555-0.269
					c0.396-0.135,0.836-0.202,1.275-0.235c0.888-0.04,1.875,0.198,2.67,0.808c0.795,0.61,1.227,1.513,1.218,2.547
					c0.008,0.521-0.129,1.053-0.39,1.572c-0.127,0.261-0.282,0.519-0.462,0.768c-0.196,0.242-0.429,0.47-0.68,0.686
					c-0.996,0.872-2.319,1.221-3.38,1.039c-1.061-0.152-1.877-0.865-2.238-1.779c-0.377-0.948-0.341-1.893-0.187-2.748
					C42.063,44.999,42.397,44.319,43.007,43.781z"/>
				<path fill="#CC66FF" d="M47.732,49.37c0,0-0.078,0.066-0.225,0.191c-0.15,0.123-0.352,0.313-0.663,0.522
					c-0.304,0.211-0.674,0.468-1.098,0.762c-0.464,0.258-0.969,0.569-1.566,0.852c-1.195,0.567-2.722,1.064-4.412,1.258
					c-1.69,0.199-3.504,0.05-5.158-0.371c-3.342-0.844-5.983-2.592-7.779-3.956c-0.907-0.688-1.599-1.309-2.085-1.744
					c-0.473-0.445-0.743-0.699-0.743-0.699c-1.771-1.708-1.727-4.355-0.083-5.567c1.637-1.206,3.844-1.046,5.21,0.268
					c0,0,0.827,0.848,2.182,1.886c1.339,1.038,3.259,2.219,5.092,2.659c1.839,0.482,3.43,0.164,4.623-0.4
					c0.299-0.137,0.564-0.317,0.809-0.438c0.236-0.166,0.442-0.311,0.612-0.43c0.174-0.108,0.301-0.232,0.389-0.307
					c0.089-0.077,0.136-0.117,0.136-0.117"/>
			</g>
		</g>
	</g>
</g>
<g>
	<rect x="10.511" y="43.779" fill="#CC66FF" width="17.47" height="12.809"/>
	<circle fill="#CC66FF" cx="19.62" cy="45.4" r="8.516"/>
</g>
<rect x="16.014" y="34.764" transform="matrix(0.7072 0.707 -0.707 0.7072 32.831 -2.618)" fill="#FF8A33" width="7.124" height="7.126"/>
<rect x="43.249" y="41.041" fill="#FFFFFF" width="8.113" height="11.74"/>
</svg>
