<?xml version="1.0" encoding="utf-8"?>
<!-- Generator: Adobe Illustrator 17.0.0, SVG Export Plug-In . SVG Version: 6.00 Build 0)  -->
<!DOCTYPE svg PUBLIC "-//W3C//DTD SVG 1.1//EN" "http://www.w3.org/Graphics/SVG/1.1/DTD/svg11.dtd">
<svg version="1.1" id="Слой_1" xmlns="http://www.w3.org/2000/svg" xmlns:xlink="http://www.w3.org/1999/xlink" x="0px" y="0px"
	 width="57.067px" height="84.09px" viewBox="0 0 57.067 84.09" enable-background="new 0 0 57.067 84.09" xml:space="preserve">
<g>
	<path fill="#333333" d="M23.377,80.354l9.849-0.139c0.001,0-0.174-6.965,0.372-13.871c0.11-1.729,0.31-3.44,0.447-5.055
		c0.197-1.594,0.366-3.094,0.556-4.35c0.191-1.26,0.352-2.305,0.487-2.996c0.122-0.645,0.192-1.014,0.192-1.014l-9.618-2.121
		c0,0-0.026,0.127-0.075,0.363c-0.042,0.225-0.104,0.555-0.183,0.975c-0.161,0.822-0.339,1.977-0.549,3.359
		c-0.208,1.385-0.391,2.992-0.603,4.717c-0.15,1.725-0.361,3.564-0.479,5.404C23.193,72.988,23.377,80.354,23.377,80.354z"/>
	<path d="M23.266,80.354l10.029-0.141l0.049,3.445L20.852,84.09C21.207,81.955,23.266,80.354,23.266,80.354z"/>
</g>
<g>
	<path fill="#333333" d="M36.457,80.354l9.849-0.139c0.001,0-0.174-6.965,0.372-13.871c0.11-1.729,0.31-3.44,0.447-5.055
		c0.197-1.594,0.366-3.094,0.556-4.35c0.191-1.26,0.352-2.305,0.487-2.996c0.123-0.645,0.192-1.014,0.192-1.014l-9.618-2.121
		c0,0-0.025,0.127-0.074,0.363c-0.043,0.225-0.104,0.555-0.184,0.975c-0.16,0.822-0.339,1.977-0.549,3.359
		c-0.208,1.385-0.391,2.992-0.601,4.717c-0.151,1.725-0.362,3.564-0.48,5.404C36.273,72.988,36.457,80.354,36.457,80.354z"/>
	<path d="M36.346,80.354l10.03-0.141l0.048,3.445L33.933,84.09C34.287,81.955,36.346,80.354,36.346,80.354z"/>
</g>
<g>
	<g>
		<g>
			<g>
				<path fill="#FF8A33" d="M56.566,60.27c0.078,0.29,0.13,0.579,0.156,0.862c0.003,0.286-0.026,0.566-0.074,0.835
					c-0.098,0.539-0.287,1.034-0.553,1.454c-0.531,0.844-1.365,1.376-2.362,1.481c-0.997,0.105-1.967-0.208-2.719-0.729
					c-0.376-0.262-0.697-0.58-0.94-0.944c-0.122-0.182-0.224-0.375-0.304-0.58c-0.106-0.197-0.191-0.404-0.251-0.622
					c-0.262-0.864-0.016-1.794,0.33-2.58c0.39-0.797,1.079-1.529,2.003-1.918c0.925-0.388,1.926-0.327,2.823,0.161
					C55.613,58.161,56.234,59.113,56.566,60.27z"/>
				<path fill="#666666" d="M49.465,62.041c0,0-0.074-0.27-0.205-0.742c-0.064-0.236-0.141-0.524-0.23-0.853
					c-0.1-0.325-0.262-0.67-0.409-1.06c-0.532-1.584-1.644-3.511-2.988-5.261c-1.354-1.748-3.031-3.255-4.406-4.231
					c-0.698-0.472-1.272-0.881-1.705-1.114c-0.423-0.25-0.665-0.392-0.665-0.392c-1.583-0.883-2.304-2.866-1.732-4.817
					c0.568-1.968,3.143-2.836,5.299-1.636c0,0,0.319,0.187,0.877,0.514c0.567,0.314,1.327,0.839,2.241,1.466
					c1.804,1.285,4.046,3.281,5.886,5.652c1.836,2.362,3.326,5.023,4.063,7.141c0.2,0.524,0.404,0.999,0.544,1.431
					c0.121,0.437,0.227,0.817,0.315,1.131c0.172,0.628,0.27,0.987,0.27,0.987"/>
			</g>
		</g>
	</g>
	<g>
		<g>
			<g>
				<path fill="#FF8A33" d="M3.762,58.509c-2.289-0.026-3.955-1.809-3.744-3.784c0.212-2.012,1.89-3.505,3.729-3.479
					c0.929-0.035,1.784,0.369,2.461,0.984c0.668,0.586,1.169,1.446,1.277,2.443c0.108,0.997-0.223,1.947-0.9,2.679
					C5.912,58.057,4.897,58.474,3.762,58.509z"/>
				<path fill="#666666" d="M3.746,51.191c0,0,0.288-0.009,0.791-0.023c0.499-0.037,1.231,0.02,2.075-0.108
					c1.709-0.139,3.945-0.529,6.083-1.182c2.126-0.687,4.115-1.673,5.495-2.554c1.395-0.868,2.195-1.582,2.195-1.582
					c1.348-1.088,3.356-1,5.025,0.165c1.691,1.165,1.604,3.957-0.312,5.506c0,0-1.114,0.987-2.968,2.144
					c-1.841,1.177-4.453,2.469-7.191,3.345c-2.744,0.847-5.559,1.331-7.667,1.502c-1.056,0.145-1.929,0.097-2.544,0.136
					c-0.614,0.016-0.964,0.025-0.964,0.025"/>
			</g>
		</g>
	</g>
</g>
<g>
	<path fill="#666666" d="M50.233,53.678c0-7.666-7.297-14.609-16.301-14.609c-9.002,0-16.302,6.943-16.302,14.609"/>
	<path fill="#333333" d="M17.631,54.506c0,7.666,7.3,13.883,16.302,13.883c9.003,0,16.301-6.217,16.301-13.883"/>
	<rect x="29.509" y="38.197" fill="#FFFFFF" width="8.848" height="19.559"/>
	<g>
		<path fill="#666666" d="M29.509,57.756c-0.133,8.523-11.878,7.053-11.878,7.053V53.307c0,0,8.715-11.545,11.878-11.545
			C29.509,66.936,29.509,43.109,29.509,57.756z"/>
	</g>
	<g>
		<path fill="#666666" d="M38.356,57.756c0.13,8.523,11.877,7.053,11.877,7.053V53.307c0,0-8.718-11.545-11.877-11.545
			C38.356,66.936,38.356,43.109,38.356,57.756z"/>
	</g>
</g>
<g>
	<path fill="#FF8A33" d="M39.154,39.379l-3.299,4.254l-3.3-4.254v-5.805c0-1.641,1.477-2.971,3.3-2.971l0,0
		c1.821,0,3.299,1.33,3.299,2.971V39.379z"/>
	<g>
		<path fill="#FF8A33" d="M55.41,20.422c0,10.611-8.602,19.213-19.212,19.213c-10.611,0-19.216-8.602-19.216-19.213
			S25.587,1.205,36.198,1.205C46.809,1.205,55.41,9.811,55.41,20.422z"/>
		<path fill="#993333" d="M36.372,4.022l10.75,0.592C44.403,2.393,40.161,0,34.707,0C23.603,0,15.451,8.229,15.451,19.334
			c0,3.689,0.247,2.303,3.227,6.062l1.463-0.518c1.812,0.389,4.921,0.486,4.896-1.57C24.898,10.949,27.486,4.916,35.328,4.022
			H36.372z"/>
		<path fill="#FF8A33" d="M27.127,23.232c0,2.438-1.977,4.414-4.418,4.414h-5.668c-2.441,0-4.416-1.977-4.416-4.414l0,0
			c0-2.439,1.976-4.418,4.416-4.418h5.668C25.15,18.815,27.127,20.793,27.127,23.232L27.127,23.232z"/>
		<path fill="#993333" d="M25.144,22.502c0,1.096-0.889,1.98-1.982,1.98l0,0c-1.096,0-1.982-0.885-1.982-1.98v-5.166
			c0-1.096,0.886-1.982,1.982-1.982l0,0c1.094,0,1.982,0.887,1.982,1.982V22.502z"/>
		<path fill="#FF8A33" d="M52.544,1.141"/>
		<rect x="45.253" y="15.949" fill="#FFFFFF" width="11.698" height="9.447"/>
		<rect x="30.27" y="15.949" fill="#FFFFFF" width="11.698" height="9.447"/>
		<path fill="#4D3333" d="M36.863,22.143c0,0.518-0.418,0.936-0.933,0.936c-0.519,0-0.938-0.418-0.938-0.936
			c0-0.514,0.419-0.934,0.938-0.934C36.445,21.209,36.863,21.629,36.863,22.143z"/>
		<path fill="#4D3333" d="M52.037,22.143c0,0.518-0.419,0.936-0.934,0.936c-0.516,0-0.936-0.418-0.936-0.936
			c0-0.514,0.42-0.934,0.936-0.934C51.618,21.209,52.037,21.629,52.037,22.143z"/>
	</g>
	<path fill="#993333" d="M32.735,5.135c0,2.834,2.299,5.135,5.134,5.135h14.063c2.836,0,5.135-2.301,5.135-5.135l0,0
		C57.067,2.299,54.769,0,51.933,0L37.869,0C35.034,0,32.735,2.299,32.735,5.135L32.735,5.135z"/>
</g>
</svg>
