<?xml version="1.0" encoding="utf-8"?>
<!-- Generator: Adobe Illustrator 17.0.0, SVG Export Plug-In . SVG Version: 6.00 Build 0)  -->
<!DOCTYPE svg PUBLIC "-//W3C//DTD SVG 1.1//EN" "http://www.w3.org/Graphics/SVG/1.1/DTD/svg11.dtd">
<svg version="1.1" id="Слой_1" xmlns="http://www.w3.org/2000/svg" xmlns:xlink="http://www.w3.org/1999/xlink" x="0px" y="0px"
	 width="200.515px" height="47.867px" viewBox="0 0 200.515 47.867" enable-background="new 0 0 200.515 47.867"
	 xml:space="preserve">
<g>
	<rect x="0" y="21.749" fill="#B57666" width="200.515" height="5.227"/>
	<rect x="7.373" y="26.266" fill="#993333" width="186.57" height="13.922"/>
	<rect x="6.973" y="26.266" fill="#993333" width="4.438" height="21.601"/>
	<rect x="189.505" y="26.266" fill="#993333" width="4.438" height="21.601"/>
</g>
<g>
	<rect x="50.955" y="6.378" width="16.337" height="5.779"/>
	<rect x="50.955" y="3.489" width="3.007" height="5.779"/>
	<rect x="64.284" y="3.489" width="3.008" height="5.779"/>
	<path d="M46.205,22.051c0-7.24,5.87-13.111,13.112-13.111s13.112,5.871,13.112,13.111"/>
	<circle fill="#999999" cx="59.317" cy="14.717" r="5.449"/>
	<circle fill="#FFFFFF" cx="59.317" cy="14.717" r="2.866"/>
</g>
<g>
	<g>
		<rect x="113.864" y="19.077" fill="#FFFFFF" width="27.645" height="2.975"/>
		<path fill="#FFFFFF" d="M159.542,21.895h-31.285c-0.559,0-0.913-0.451-0.791-1.01l4.317-19.875c0.121-0.557,0.672-1.01,1.231-1.01
			h31.285c0.557,0,0.911,0.453,0.79,1.01l-4.317,19.875C160.649,21.444,160.099,21.895,159.542,21.895z"/>
	</g>
</g>
</svg>
