<?xml version="1.0" encoding="utf-8"?>
<!-- Generator: Adobe Illustrator 17.0.0, SVG Export Plug-In . SVG Version: 6.00 Build 0)  -->
<!DOCTYPE svg PUBLIC "-//W3C//DTD SVG 1.1//EN" "http://www.w3.org/Graphics/SVG/1.1/DTD/svg11.dtd">
<svg version="1.1" id="Слой_1" xmlns="http://www.w3.org/2000/svg" xmlns:xlink="http://www.w3.org/1999/xlink" x="0px" y="0px"
	 width="4749.64px" height="2000px" viewBox="0 0 4749.64 2000" enable-background="new 0 0 4749.64 2000" xml:space="preserve">
<rect x="-40.401" y="-4.632" width="4792.317" height="1900.473"/>
<rect x="0.415" y="1721.078" fill="#990054" width="4758.634" height="141.207"/>
<rect x="0.415" y="1791.682" fill="#CC0066" width="4749.225" height="141.207"/>
<rect x="0.415" y="1849.669" fill="#FF0000" width="4767.634" height="113.736"/>
<rect x="2636.417" y="1960.741" fill="#FFDB00" width="2125.632" height="39.259"/>
<rect x="2636.417" y="1938.966" fill="#FF9900" width="2131.583" height="23.949"/>
<rect x="2636.417" y="1902.107" fill="#FF6600" width="2125.583" height="38.949"/>
<path fill="#FFDB00" d="M3094.2,1964.121c0-3.733,4.167-6.761,9.308-6.761s9.307,3.027,9.307,6.761"/>
<rect x="1426.071" y="1960.741" fill="#FFDB00" width="1261.632" height="39.259"/>
<rect x="1426.071" y="1938.966" fill="#FF9900" width="1261.632" height="23.949"/>
<rect x="1426.071" y="1902.107" fill="#FF6600" width="1261.632" height="38.949"/>
<path fill="#FF9900" d="M1810.563,1941.856c0-4.05,4.519-7.332,10.093-7.332c5.574,0,10.093,3.282,10.093,7.332"/>
<rect x="4.621" y="1960.741" fill="#FFDB00" width="1472.737" height="39.259"/>
<rect x="4.621" y="1938.966" fill="#FF9900" width="1472.737" height="23.949"/>
<rect x="4.621" y="1902.107" fill="#FF6600" width="1472.737" height="38.949"/>
<g>
	<path fill="#330000" d="M869.775,1695.526v284.845h29.824v-121.754c0-72.225,58.55-130.775,130.774-130.775
		s130.774,58.551,130.774,130.775v121.754h29.824v-284.845H869.775z"/>
	<path fill="#330000" d="M1186.378,1695.526v284.845h29.824v-121.754c0-72.225,58.55-130.775,130.774-130.775
		s130.774,58.551,130.774,130.775v121.754h29.824v-284.845H1186.378z"/>
	<path fill="#330000" d="M1502.98,1695.526v284.845h29.824v-121.754c0-72.225,58.55-130.775,130.774-130.775
		s130.773,58.551,130.773,130.775v121.754h29.824v-284.845H1502.98z"/>
	<path fill="#330000" d="M1819.583,1695.526v284.845h29.824v-121.754c0-72.225,58.55-130.775,130.774-130.775
		s130.774,58.551,130.774,130.775v121.754h29.824v-284.845H1819.583z"/>
	<path fill="#330000" d="M2136.187,1695.526v284.845h29.824v-121.754c0-72.225,58.55-130.775,130.774-130.775
		s130.774,58.551,130.774,130.775v121.754h29.824v-284.845H2136.187z"/>
	<path fill="#330000" d="M2452.789,1695.526v284.845h29.824v-121.754c0-72.225,58.55-130.775,130.774-130.775
		c72.225,0,130.773,58.551,130.773,130.775v121.754h29.824v-284.845H2452.789z"/>
	<path fill="#330000" d="M2769.392,1695.526v284.845h29.824v-121.754c0-72.225,58.55-130.775,130.774-130.775
		s130.774,58.551,130.774,130.775v121.754h29.824v-284.845H2769.392z"/>
	<path fill="#330000" d="M3085.995,1695.526v284.845h29.824v-121.754c0-72.225,58.55-130.775,130.774-130.775
		s130.773,58.551,130.773,130.775v121.754h29.824v-284.845H3085.995z"/>
	<path fill="#330000" d="M3402.598,1695.526v284.845h29.824v-121.754c0-72.225,58.55-130.775,130.774-130.775
		s130.774,58.551,130.774,130.775v121.754h29.824v-284.845H3402.598z"/>
	<path fill="#330000" d="M3719.2,1695.526v284.845h29.824v-121.754c0-72.225,58.55-130.775,130.774-130.775
		s130.774,58.551,130.774,130.775v121.754h29.824v-284.845H3719.2z"/>
	<path fill="#330000" d="M4035.804,1695.526v284.845h29.824v-121.754c0-72.225,58.55-130.775,130.774-130.775
		s130.773,58.551,130.773,130.775v121.754H4357v-284.845H4035.804z"/>
</g>
<path fill="#330000" d="M4352.775,1695.526v284.845h29.824v-121.754c0-72.225,58.55-130.775,130.774-130.775
	s130.774,58.551,130.774,130.775v121.754h29.824v-284.845H4352.775z"/>
<path fill="#330000" d="M4669.378,1695.526v284.845h29.824v-121.754c0-72.225,58.55-130.775,130.774-130.775
	s130.774,58.551,130.774,130.775v121.754h29.824v-284.845H4669.378z"/>
<path fill="#330000" d="M-80.627,1695.526v284.845h29.824v-121.754c0-72.225,58.55-130.775,130.774-130.775
	s130.774,58.551,130.774,130.775v121.754h29.824v-284.845H-80.627z"/>
<path fill="#330000" d="M235.975,1695.526v284.845h29.824v-121.754c0-72.225,58.55-130.775,130.774-130.775
	s130.774,58.551,130.774,130.775v121.754h29.824v-284.845H235.975z"/>
<path fill="#330000" d="M552.579,1695.526v284.845h29.824v-121.754c0-72.225,58.55-130.775,130.774-130.775
	c72.225,0,130.773,58.551,130.773,130.775v121.754h29.824v-284.845H552.579z"/>
<g>
	<g>
		<rect x="1625.722" y="1350.019" fill="#CCCCCC" width="1361.273" height="339.593"/>
		<rect x="1633.627" y="1350.019" fill="#999999" width="1346.335" height="339.593"/>
		<polygon fill="#B0B1AE" points="1852.403,1687.766 1800.903,1687.766 2096.201,1352.863 2147.701,1352.863 		"/>
		<polygon fill="#B0B1AE" points="2019.422,1687.766 1989.613,1687.766 2284.911,1352.863 2314.72,1352.863 		"/>
		<polygon fill="#B0B1AE" points="2382.02,1687.766 2330.52,1687.766 2625.817,1352.863 2677.317,1352.863 		"/>
		<polygon fill="#B0B1AE" points="2678.928,1687.766 2649.118,1687.766 2944.416,1352.863 2974.226,1352.863 		"/>
		<polygon fill="#B0B1AE" points="1632.605,1628.127 1876.21,1352.863 1804.647,1352.863 1632.923,1547.812 		"/>
		<rect x="1632.605" y="1350.019" fill="#CCCCCC" width="1354.39" height="5.689"/>
	</g>
	<g>
		<g>
			<circle fill="#737373" cx="1961.504" cy="1587.663" r="93.585"/>
			<g>
				<defs>
					<circle id="SVGID_1_" cx="1961.504" cy="1587.663" r="86.618"/>
				</defs>
				<use xlink:href="#SVGID_1_"  overflow="visible"/>
				<clipPath id="SVGID_2_">
					<use xlink:href="#SVGID_1_"  overflow="visible"/>
				</clipPath>
			</g>
		</g>
		<g>
			<rect x="2061.29" y="1513.582" fill="#B8B8B8" width="84.038" height="24.195"/>
			<rect x="2061.29" y="1636.547" fill="#B8B8B8" width="84.038" height="24.197"/>
			<rect x="2068.256" y="1513.582" fill="#858585" width="84.038" height="147.162"/>
			<circle fill="#858585" cx="2154.874" cy="1587.164" r="93.584"/>
			<path fill="#C4C4C4" d="M2241.492,1587.164c0,47.837-38.779,86.615-86.618,86.615c-47.837,0-86.618-38.778-86.618-86.615
				c0-47.84,38.78-86.618,86.618-86.618C2202.712,1500.546,2241.492,1539.324,2241.492,1587.164z"/>
		</g>
		<g>
			<g>
				<rect x="2133.027" y="1513.582" fill="#B0B0B0" width="7.011" height="147.162"/>
				<g>
					<rect x="2129.522" y="1513.582" fill="#ECE9E6" width="3.505" height="147.162"/>
				</g>
			</g>
			<g>
				<rect x="2153.122" y="1513.582" fill="#B0B0B0" width="7.011" height="147.162"/>
				<g>
					<rect x="2149.616" y="1513.582" fill="#ECE9E6" width="3.506" height="147.162"/>
				</g>
			</g>
			<g>
				<rect x="2173.215" y="1513.582" fill="#B0B0B0" width="7.011" height="147.162"/>
				<g>
					<rect x="2169.71" y="1513.582" fill="#ECE9E6" width="3.505" height="147.162"/>
				</g>
			</g>
		</g>
		<g>
			<g>
				<rect x="2080.571" y="1565.316" fill="#B0B0B0" width="147.162" height="7.01"/>
				<g>
					<rect x="2080.571" y="1561.812" fill="#ECE9E6" width="147.162" height="3.505"/>
				</g>
			</g>
			<g>
				<rect x="2080.571" y="1585.41" fill="#B0B0B0" width="147.162" height="7.012"/>
				<g>
					<rect x="2080.571" y="1581.904" fill="#ECE9E6" width="147.162" height="3.506"/>
				</g>
			</g>
			<g>
				<rect x="2080.571" y="1605.504" fill="#B0B0B0" width="147.162" height="7.01"/>
				<g>
					<rect x="2080.571" y="1601.999" fill="#ECE9E6" width="147.162" height="3.505"/>
				</g>
			</g>
		</g>
		<circle fill="#B0B0B0" cx="2154.874" cy="1587.162" r="44.344"/>
		<circle fill="#919191" cx="2154.874" cy="1587.596" r="32.402"/>
		<rect x="2061.29" y="1513.582" fill="#FFFFFF" width="2.72" height="24.195"/>
		<rect x="2061.29" y="1636.548" fill="#FFFFFF" width="2.72" height="24.195"/>
	</g>
	<g>
		<g>
			<circle fill="#737373" cx="2367.304" cy="1587.663" r="93.585"/>
			<g>
				<defs>
					<circle id="SVGID_3_" cx="2367.304" cy="1587.663" r="86.618"/>
				</defs>
				<use xlink:href="#SVGID_3_"  overflow="visible"/>
				<clipPath id="SVGID_4_">
					<use xlink:href="#SVGID_3_"  overflow="visible"/>
				</clipPath>
			</g>
		</g>
		<g>
			<rect x="2467.09" y="1513.582" fill="#B8B8B8" width="84.039" height="24.195"/>
			<rect x="2467.09" y="1636.547" fill="#B8B8B8" width="84.039" height="24.197"/>
			<rect x="2474.056" y="1513.582" fill="#858585" width="84.038" height="147.162"/>
			<circle fill="#858585" cx="2560.674" cy="1587.164" r="93.585"/>
			<path fill="#C4C4C4" d="M2647.292,1587.164c0,47.837-38.779,86.615-86.618,86.615c-47.837,0-86.618-38.778-86.618-86.615
				c0-47.84,38.78-86.618,86.618-86.618C2608.513,1500.546,2647.292,1539.324,2647.292,1587.164z"/>
		</g>
		<g>
			<g>
				<rect x="2538.828" y="1513.582" fill="#B0B0B0" width="7.011" height="147.162"/>
				<g>
					<rect x="2535.322" y="1513.582" fill="#ECE9E6" width="3.506" height="147.162"/>
				</g>
			</g>
			<g>
				<rect x="2558.922" y="1513.582" fill="#B0B0B0" width="7.011" height="147.162"/>
				<g>
					<rect x="2555.416" y="1513.582" fill="#ECE9E6" width="3.506" height="147.162"/>
				</g>
			</g>
			<g>
				<rect x="2579.016" y="1513.582" fill="#B0B0B0" width="7.011" height="147.162"/>
				<g>
					<rect x="2575.51" y="1513.582" fill="#ECE9E6" width="3.506" height="147.162"/>
				</g>
			</g>
		</g>
		<g>
			<g>
				<rect x="2486.372" y="1565.316" fill="#B0B0B0" width="147.162" height="7.01"/>
				<g>
					<rect x="2486.372" y="1561.812" fill="#ECE9E6" width="147.162" height="3.505"/>
				</g>
			</g>
			<g>
				<rect x="2486.372" y="1585.41" fill="#B0B0B0" width="147.162" height="7.012"/>
				<g>
					<rect x="2486.372" y="1581.904" fill="#ECE9E6" width="147.162" height="3.506"/>
				</g>
			</g>
			<g>
				<rect x="2486.372" y="1605.504" fill="#B0B0B0" width="147.162" height="7.01"/>
				<g>
					<rect x="2486.372" y="1601.999" fill="#ECE9E6" width="147.162" height="3.505"/>
				</g>
			</g>
		</g>
		<circle fill="#B0B0B0" cx="2560.675" cy="1587.162" r="44.344"/>
		<circle fill="#919191" cx="2560.674" cy="1587.596" r="32.402"/>
		<rect x="2467.09" y="1513.582" fill="#FFFFFF" width="2.72" height="24.195"/>
		<rect x="2467.09" y="1636.548" fill="#FFFFFF" width="2.72" height="24.195"/>
	</g>
	<g>
		<circle fill="#737373" cx="2771.304" cy="1587.663" r="93.585"/>
		<g>
			<defs>
				<circle id="SVGID_5_" cx="2771.304" cy="1587.663" r="86.618"/>
			</defs>
			<use xlink:href="#SVGID_5_"  overflow="visible"/>
			<clipPath id="SVGID_6_">
				<use xlink:href="#SVGID_5_"  overflow="visible"/>
			</clipPath>
		</g>
		<g>
			<rect x="2871.09" y="1513.582" fill="#CCCCCC" width="84.039" height="24.195"/>
			<rect x="2871.09" y="1636.547" fill="#CCCCCC" width="84.039" height="24.197"/>
			<rect x="2878.056" y="1513.582" fill="#858585" width="84.038" height="147.162"/>
			<circle fill="#858585" cx="2964.674" cy="1587.164" r="93.585"/>
			<path fill="#C4C4C4" d="M3051.292,1587.164c0,47.837-38.779,86.615-86.618,86.615c-47.837,0-86.618-38.778-86.618-86.615
				c0-47.84,38.78-86.618,86.618-86.618C3012.513,1500.546,3051.292,1539.324,3051.292,1587.164z"/>
		</g>
		<g>
			<g>
				<rect x="2942.828" y="1513.582" fill="#B0B0B0" width="7.011" height="147.162"/>
				<g>
					<rect x="2939.322" y="1513.582" fill="#ECE9E6" width="3.505" height="147.162"/>
				</g>
			</g>
			<g>
				<rect x="2962.922" y="1513.582" fill="#B0B0B0" width="7.011" height="147.162"/>
				<g>
					<rect x="2959.416" y="1513.582" fill="#ECE9E6" width="3.506" height="147.162"/>
				</g>
			</g>
			<g>
				<rect x="2983.016" y="1513.582" fill="#B0B0B0" width="7.011" height="147.162"/>
				<g>
					<rect x="2979.51" y="1513.582" fill="#ECE9E6" width="3.505" height="147.162"/>
				</g>
			</g>
		</g>
		<g>
			<g>
				<rect x="2890.372" y="1565.316" fill="#B0B0B0" width="147.162" height="7.01"/>
				<g>
					<rect x="2890.372" y="1561.812" fill="#ECE9E6" width="147.162" height="3.505"/>
				</g>
			</g>
			<g>
				<rect x="2890.372" y="1585.41" fill="#B0B0B0" width="147.162" height="7.012"/>
				<g>
					<rect x="2890.372" y="1581.904" fill="#ECE9E6" width="147.162" height="3.506"/>
				</g>
			</g>
			<g>
				<rect x="2890.372" y="1605.504" fill="#B0B0B0" width="147.162" height="7.01"/>
				<g>
					<rect x="2890.372" y="1601.999" fill="#ECE9E6" width="147.162" height="3.505"/>
				</g>
			</g>
		</g>
		<circle fill="#B0B0B0" cx="2964.675" cy="1587.162" r="44.344"/>
		<circle fill="#919191" cx="2964.674" cy="1587.596" r="32.402"/>
		<rect x="2871.09" y="1513.582" fill="#FFFFFF" width="2.72" height="24.195"/>
		<rect x="2871.09" y="1636.548" fill="#FFFFFF" width="2.72" height="24.195"/>
	</g>
</g>
<g>
	<g>
		<rect x="1285.626" y="1505.055" fill="#CCCCCC" width="109.374" height="185.267"/>
		<rect x="1294.167" y="1513.387" fill="#B4B3B1" width="93.077" height="176.935"/>
	</g>
	<g>
		<rect x="1301.117" y="1622.56" fill="#CCCCCC" width="23.607" height="4.271"/>
	</g>
	<g>
		<rect x="1184.794" y="1505.055" fill="#CCCCCC" width="109.373" height="185.267"/>
		<rect x="1192.55" y="1513.387" fill="#B4B3B1" width="93.076" height="176.935"/>
	</g>
	<g>
		<rect x="1251.482" y="1622.56" fill="#CCCCCC" width="23.608" height="4.271"/>
	</g>
</g>
<g>
	<rect x="3512.626" y="1503.055" fill="#CCCCCC" width="109.373" height="185.267"/>
	<rect x="3521.167" y="1511.387" fill="#B4B3B1" width="93.077" height="176.935"/>
	<g>
		<rect x="3531.865" y="1633.07" fill="#CCCCCC" width="23.607" height="4.272"/>
	</g>
</g>
<rect x="0" y="1688.055" fill="#AD7633" width="4749.64" height="13.143"/>
</svg>
