<?xml version="1.0" encoding="utf-8"?>
<!-- Generator: Adobe Illustrator 17.0.0, SVG Export Plug-In . SVG Version: 6.00 Build 0)  -->
<!DOCTYPE svg PUBLIC "-//W3C//DTD SVG 1.1//EN" "http://www.w3.org/Graphics/SVG/1.1/DTD/svg11.dtd">
<svg version="1.1" id="Слой_1" xmlns="http://www.w3.org/2000/svg" xmlns:xlink="http://www.w3.org/1999/xlink" x="0px" y="0px"
	 width="173.235px" height="173.234px" viewBox="0 0 173.235 173.234" enable-background="new 0 0 173.235 173.234"
	 xml:space="preserve">
<g>
	<defs>
		<circle id="SVGID_1_" cx="86.618" cy="86.618" r="86.618"/>
	</defs>
	<use xlink:href="#SVGID_1_"  overflow="visible"/>
	<clipPath id="SVGID_2_">
		<use xlink:href="#SVGID_1_"  overflow="visible"/>
	</clipPath>
	<polygon clip-path="url(#SVGID_2_)" fill="#CC9933" points="35.422,166.331 1.01,166.331 5.96,155.813 30.473,155.813 	"/>
	<polygon clip-path="url(#SVGID_2_)" fill="#CC9933" points="24.498,166.331 35.422,166.331 30.473,155.813 24.498,155.813 	"/>
	<polygon clip-path="url(#SVGID_2_)" fill="#CC9933" points="31.421,157.829 30.473,155.813 5.96,155.813 5.011,157.829 	"/>
	<polygon clip-path="url(#SVGID_2_)" fill="#CC9933" points="69.834,166.331 35.422,166.331 40.372,155.813 64.884,155.813 	"/>
	<polygon clip-path="url(#SVGID_2_)" fill="#CC9933" points="58.909,166.331 69.834,166.331 64.884,155.813 58.909,155.813 	"/>
	<polygon clip-path="url(#SVGID_2_)" fill="#CC9933" points="65.833,157.829 64.884,155.813 40.372,155.813 39.423,157.829 	"/>
	<polygon clip-path="url(#SVGID_2_)" fill="#CC9933" points="104.246,166.331 69.834,166.331 74.784,155.813 99.296,155.813 	"/>
	<polygon clip-path="url(#SVGID_2_)" fill="#CC9933" points="93.321,166.331 104.246,166.331 99.296,155.813 93.321,155.813 	"/>
	<polygon clip-path="url(#SVGID_2_)" fill="#CC9933" points="100.245,157.829 99.296,155.813 74.784,155.813 73.835,157.829 	"/>
	<polygon clip-path="url(#SVGID_2_)" fill="#CC9933" points="52.628,155.813 18.216,155.813 23.166,145.296 47.679,145.296 	"/>
	<polygon clip-path="url(#SVGID_2_)" fill="#CC9933" points="41.703,155.813 52.628,155.813 47.679,145.296 41.703,145.296 	"/>
	<polygon clip-path="url(#SVGID_2_)" fill="#CC9933" points="48.627,147.312 47.679,145.296 23.166,145.296 22.217,147.312 	"/>
	<polygon clip-path="url(#SVGID_2_)" fill="#CC9933" points="87.04,155.813 52.628,155.813 57.578,145.296 82.091,145.296 	"/>
	<polygon clip-path="url(#SVGID_2_)" fill="#CC9933" points="76.115,155.813 87.04,155.813 82.091,145.296 76.115,145.296 	"/>
	<polygon clip-path="url(#SVGID_2_)" fill="#CC9933" points="83.039,147.312 82.091,145.296 57.578,145.296 56.629,147.312 	"/>
	<polygon clip-path="url(#SVGID_2_)" fill="#CC9933" points="-0.321,187.366 -34.733,187.366 -29.784,176.849 -5.271,176.849 	"/>
	<polygon clip-path="url(#SVGID_2_)" fill="#CC9933" points="-11.246,187.366 -0.321,187.366 -5.271,176.849 -11.246,176.849 	"/>
	<polygon clip-path="url(#SVGID_2_)" fill="#CC9933" points="-4.322,178.864 -5.271,176.849 -29.784,176.849 -30.732,178.864 	"/>
	<polygon clip-path="url(#SVGID_2_)" fill="#CC9933" points="34.091,187.366 -0.321,187.366 4.628,176.849 29.141,176.849 	"/>
	<polygon clip-path="url(#SVGID_2_)" fill="#CC9933" points="23.166,187.366 34.091,187.366 29.141,176.849 23.166,176.849 	"/>
	<polygon clip-path="url(#SVGID_2_)" fill="#CC9933" points="30.09,178.864 29.141,176.849 4.628,176.849 3.68,178.864 	"/>
	<polygon clip-path="url(#SVGID_2_)" fill="#CC9933" points="68.503,187.366 34.091,187.366 39.04,176.849 63.553,176.849 	"/>
	<polygon clip-path="url(#SVGID_2_)" fill="#CC9933" points="57.578,187.366 68.503,187.366 63.553,176.849 57.578,176.849 	"/>
	<polygon clip-path="url(#SVGID_2_)" fill="#CC9933" points="64.502,178.864 63.553,176.849 39.04,176.849 38.091,178.864 	"/>
	<polygon clip-path="url(#SVGID_2_)" fill="#CC9933" points="16.885,176.849 -17.527,176.849 -12.578,166.331 11.935,166.331 	"/>
	<polygon clip-path="url(#SVGID_2_)" fill="#CC9933" points="5.96,176.849 16.885,176.849 11.935,166.331 5.96,166.331 	"/>
	<polygon clip-path="url(#SVGID_2_)" fill="#CC9933" points="12.884,168.347 11.935,166.331 -12.578,166.331 -13.526,168.347 	"/>
	<polygon clip-path="url(#SVGID_2_)" fill="#CC9933" points="51.296,176.849 16.885,176.849 21.834,166.331 46.347,166.331 	"/>
	<polygon clip-path="url(#SVGID_2_)" fill="#CC9933" points="40.372,176.849 51.296,176.849 46.347,166.331 40.372,166.331 	"/>
	<polygon clip-path="url(#SVGID_2_)" fill="#CC9933" points="47.295,168.347 46.347,166.331 21.834,166.331 20.885,168.347 	"/>
	<polygon clip-path="url(#SVGID_2_)" fill="#CC9933" points="106.05,187.366 71.638,187.366 76.588,176.849 101.101,176.849 	"/>
	<polygon clip-path="url(#SVGID_2_)" fill="#CC9933" points="95.126,187.366 106.05,187.366 101.101,176.849 95.126,176.849 	"/>
	<polygon clip-path="url(#SVGID_2_)" fill="#CC9933" points="102.049,178.864 101.101,176.849 76.588,176.849 75.639,178.864 	"/>
	<polygon clip-path="url(#SVGID_2_)" fill="#CC9933" points="140.462,187.366 106.05,187.366 110.999,176.849 135.513,176.849 	"/>
	<polygon clip-path="url(#SVGID_2_)" fill="#CC9933" points="129.537,187.366 140.462,187.366 135.513,176.849 129.537,176.849 	"/>
	<polygon clip-path="url(#SVGID_2_)" fill="#CC9933" points="136.461,178.864 135.513,176.849 110.999,176.849 110.051,178.864 	"/>
	<polygon clip-path="url(#SVGID_2_)" fill="#CC9933" points="88.844,176.849 54.432,176.849 59.382,166.331 83.895,166.331 	"/>
	<polygon clip-path="url(#SVGID_2_)" fill="#CC9933" points="77.92,176.849 88.844,176.849 83.895,166.331 77.92,166.331 	"/>
	<polygon clip-path="url(#SVGID_2_)" fill="#CC9933" points="84.843,168.347 83.895,166.331 59.382,166.331 58.433,168.347 	"/>
	<polygon clip-path="url(#SVGID_2_)" fill="#CC9933" points="123.256,176.849 88.844,176.849 93.794,166.331 118.307,166.331 	"/>
	<polygon clip-path="url(#SVGID_2_)" fill="#CC9933" points="112.331,176.849 123.256,176.849 118.307,166.331 112.331,166.331 	"/>
	<polygon clip-path="url(#SVGID_2_)" fill="#CC9933" points="119.255,168.347 118.307,166.331 93.794,166.331 92.845,168.347 	"/>
	<polygon clip-path="url(#SVGID_2_)" fill="#CC9933" points="69.834,145.296 35.422,145.296 40.372,134.778 64.884,134.778 	"/>
	<polygon clip-path="url(#SVGID_2_)" fill="#CC9933" points="58.909,145.296 69.834,145.296 64.884,134.778 58.909,134.778 	"/>
	<polygon clip-path="url(#SVGID_2_)" fill="#CC9933" points="65.833,136.793 64.884,134.778 40.372,134.778 39.423,136.793 	"/>
	<polygon clip-path="url(#SVGID_2_)" fill="#CC9933" points="69.176,166.331 34.764,166.331 39.713,155.813 64.226,155.813 	"/>
	<polygon clip-path="url(#SVGID_2_)" fill="#CC9933" points="58.25,166.331 69.176,166.331 64.226,155.813 58.25,155.813 	"/>
	<polygon clip-path="url(#SVGID_2_)" fill="#CC9933" points="65.175,157.829 64.226,155.813 39.713,155.813 38.765,157.829 	"/>
	<polygon clip-path="url(#SVGID_2_)" fill="#CC9933" points="103.587,166.331 69.176,166.331 74.125,155.813 98.638,155.813 	"/>
	<polygon clip-path="url(#SVGID_2_)" fill="#CC9933" points="92.663,166.331 103.587,166.331 98.638,155.813 92.663,155.813 	"/>
	<polygon clip-path="url(#SVGID_2_)" fill="#CC9933" points="99.587,157.829 98.638,155.813 74.125,155.813 73.176,157.829 	"/>
	<polygon clip-path="url(#SVGID_2_)" fill="#CC9933" points="137.999,166.331 103.587,166.331 108.537,155.813 133.05,155.813 	"/>
	<polygon clip-path="url(#SVGID_2_)" fill="#CC9933" points="127.075,166.331 137.999,166.331 133.05,155.813 127.075,155.813 	"/>
	<polygon clip-path="url(#SVGID_2_)" fill="#CC9933" points="133.999,157.829 133.05,155.813 108.537,155.813 107.588,157.829 	"/>
	<polygon clip-path="url(#SVGID_2_)" fill="#CC9933" points="86.381,155.813 51.97,155.813 56.919,145.296 81.432,145.296 	"/>
	<polygon clip-path="url(#SVGID_2_)" fill="#CC9933" points="75.457,155.813 86.381,155.813 81.432,145.296 75.457,145.296 	"/>
	<polygon clip-path="url(#SVGID_2_)" fill="#CC9933" points="82.38,147.312 81.432,145.296 56.919,145.296 55.971,147.312 	"/>
	<polygon clip-path="url(#SVGID_2_)" fill="#CC9933" points="120.794,155.813 86.381,155.813 91.331,145.296 115.843,145.296 	"/>
	<polygon clip-path="url(#SVGID_2_)" fill="#CC9933" points="109.869,155.813 120.794,155.813 115.843,145.296 109.869,145.296 	"/>
	<polygon clip-path="url(#SVGID_2_)" fill="#CC9933" points="116.793,147.312 115.843,145.296 91.331,145.296 90.382,147.312 	"/>
	<polygon clip-path="url(#SVGID_2_)" fill="#CC9933" points="33.432,187.366 -0.98,187.366 3.97,176.849 28.482,176.849 	"/>
	<polygon clip-path="url(#SVGID_2_)" fill="#CC9933" points="22.507,187.366 33.432,187.366 28.482,176.849 22.507,176.849 	"/>
	<polygon clip-path="url(#SVGID_2_)" fill="#CC9933" points="29.431,178.864 28.482,176.849 3.97,176.849 3.021,178.864 	"/>
	<polygon clip-path="url(#SVGID_2_)" fill="#CC9933" points="67.843,187.366 33.432,187.366 38.381,176.849 62.895,176.849 	"/>
	<polygon clip-path="url(#SVGID_2_)" fill="#CC9933" points="56.919,187.366 67.843,187.366 62.895,176.849 56.919,176.849 	"/>
	<polygon clip-path="url(#SVGID_2_)" fill="#CC9933" points="63.843,178.864 62.895,176.849 38.381,176.849 37.433,178.864 	"/>
	<polygon clip-path="url(#SVGID_2_)" fill="#CC9933" points="102.256,187.366 67.843,187.366 72.794,176.849 97.306,176.849 	"/>
	<polygon clip-path="url(#SVGID_2_)" fill="#CC9933" points="91.331,187.366 102.256,187.366 97.306,176.849 91.331,176.849 	"/>
	<polygon clip-path="url(#SVGID_2_)" fill="#CC9933" points="98.255,178.864 97.306,176.849 72.794,176.849 71.844,178.864 	"/>
	<polygon clip-path="url(#SVGID_2_)" fill="#CC9933" points="50.638,176.849 16.226,176.849 21.176,166.331 45.688,166.331 	"/>
	<polygon clip-path="url(#SVGID_2_)" fill="#CC9933" points="39.713,176.849 50.638,176.849 45.688,166.331 39.713,166.331 	"/>
	<polygon clip-path="url(#SVGID_2_)" fill="#CC9933" points="46.637,168.347 45.688,166.331 21.176,166.331 20.227,168.347 	"/>
	<polygon clip-path="url(#SVGID_2_)" fill="#CC9933" points="85.05,176.849 50.638,176.849 55.587,166.331 80.101,166.331 	"/>
	<polygon clip-path="url(#SVGID_2_)" fill="#CC9933" points="74.125,176.849 85.05,176.849 80.101,166.331 74.125,166.331 	"/>
	<polygon clip-path="url(#SVGID_2_)" fill="#CC9933" points="81.049,168.347 80.101,166.331 55.587,166.331 54.639,168.347 	"/>
	<polygon clip-path="url(#SVGID_2_)" fill="#CC9933" points="139.803,187.366 105.392,187.366 110.341,176.849 134.854,176.849 	"/>
	<polygon clip-path="url(#SVGID_2_)" fill="#CC9933" points="128.878,187.366 139.803,187.366 134.854,176.849 128.878,176.849 	"/>
	<polygon clip-path="url(#SVGID_2_)" fill="#CC9933" points="135.803,178.864 134.854,176.849 110.341,176.849 109.393,178.864 	"/>
	<polygon clip-path="url(#SVGID_2_)" fill="#CC9933" points="174.215,187.366 139.803,187.366 144.753,176.849 169.266,176.849 	"/>
	<polygon clip-path="url(#SVGID_2_)" fill="#CC9933" points="163.291,187.366 174.215,187.366 169.266,176.849 163.291,176.849 	"/>
	<polygon clip-path="url(#SVGID_2_)" fill="#CC9933" points="170.214,178.864 169.266,176.849 144.753,176.849 143.804,178.864 	"/>
	<polygon clip-path="url(#SVGID_2_)" fill="#CC9933" points="122.598,176.849 88.186,176.849 93.135,166.331 117.648,166.331 	"/>
	<polygon clip-path="url(#SVGID_2_)" fill="#CC9933" points="111.673,176.849 122.598,176.849 117.648,166.331 111.673,166.331 	"/>
	<polygon clip-path="url(#SVGID_2_)" fill="#CC9933" points="118.597,168.347 117.648,166.331 93.135,166.331 92.187,168.347 	"/>
	<polygon clip-path="url(#SVGID_2_)" fill="#CC9933" points="157.009,176.849 122.598,176.849 127.547,166.331 152.06,166.331 	"/>
	<polygon clip-path="url(#SVGID_2_)" fill="#CC9933" points="146.085,176.849 157.009,176.849 152.06,166.331 146.085,166.331 	"/>
	<polygon clip-path="url(#SVGID_2_)" fill="#CC9933" points="153.008,168.347 152.06,166.331 127.547,166.331 126.598,168.347 	"/>
	<polygon clip-path="url(#SVGID_2_)" fill="#CC9933" points="103.587,145.296 69.176,145.296 74.125,134.778 98.638,134.778 	"/>
	<polygon clip-path="url(#SVGID_2_)" fill="#CC9933" points="92.663,145.296 103.587,145.296 98.638,134.778 92.663,134.778 	"/>
	<polygon clip-path="url(#SVGID_2_)" fill="#CC9933" points="99.587,136.793 98.638,134.778 74.125,134.778 73.176,136.793 	"/>
</g>
</svg>
