<?xml version="1.0" encoding="utf-8"?>
<!-- Generator: Adobe Illustrator 17.0.0, SVG Export Plug-In . SVG Version: 6.00 Build 0)  -->
<!DOCTYPE svg PUBLIC "-//W3C//DTD SVG 1.1//EN" "http://www.w3.org/Graphics/SVG/1.1/DTD/svg11.dtd">
<svg version="1.1" id="Слой_1" xmlns="http://www.w3.org/2000/svg" xmlns:xlink="http://www.w3.org/1999/xlink" x="0px" y="0px"
	 width="3000px" height="1500px" viewBox="0 0 3000 1500" enable-background="new 0 0 3000 1500" xml:space="preserve">
<g>
	<g>
		<path fill="#CC0099" d="M787.144,1379.744v-216.803c0-42.297,27.43-76.576,61.266-76.576h22.969
			c33.837,0,61.265,34.279,61.265,76.576v216.803"/>
		<rect x="787.144" y="1302.736" fill="#DF5399" width="145.5" height="78.738"/>
		<rect x="787.144" y="1346.031" fill="#DF4377" width="145.5" height="37.93"/>
	</g>
	<g>
		<path fill="#CC0099" d="M1000.336,1379.744v-216.803c0-42.297,27.43-76.576,61.266-76.576h22.969
			c33.837,0,61.265,34.279,61.265,76.576v216.803"/>
		<rect x="1000.336" y="1302.736" fill="#DF5399" width="145.5" height="78.738"/>
		<rect x="1000.336" y="1346.031" fill="#DF4377" width="145.5" height="37.93"/>
	</g>
	<g>
		<path fill="#CC0099" d="M1213.53,1379.744v-216.803c0-42.297,27.43-76.576,61.266-76.576h22.969
			c33.837,0,61.265,34.279,61.265,76.576v216.803"/>
		<rect x="1213.53" y="1302.736" fill="#DF5399" width="145.5" height="78.738"/>
		<rect x="1213.53" y="1346.031" fill="#DF4377" width="145.5" height="37.93"/>
	</g>
	<g>
		<path fill="#CC0099" d="M1426.723,1379.744v-216.803c0-42.297,27.43-76.576,61.266-76.576h22.969
			c33.837,0,61.265,34.279,61.265,76.576v216.803"/>
		<rect x="1426.723" y="1302.736" fill="#DF5399" width="145.5" height="78.738"/>
		<rect x="1426.723" y="1346.031" fill="#DF4377" width="145.5" height="37.93"/>
	</g>
	<g>
		<path fill="#CC0099" d="M1639.916,1379.744v-216.803c0-42.297,27.43-76.576,61.266-76.576h22.969
			c33.837,0,61.265,34.279,61.265,76.576v216.803"/>
		<rect x="1639.916" y="1302.736" fill="#DF5399" width="145.5" height="78.738"/>
		<rect x="1639.916" y="1346.031" fill="#DF4377" width="145.5" height="37.93"/>
	</g>
	<g>
		<path fill="#CC0099" d="M1853.109,1379.744v-216.803c0-42.297,27.43-76.576,61.266-76.576h22.969
			c33.837,0,61.265,34.279,61.265,76.576v216.803"/>
		<rect x="1853.109" y="1302.736" fill="#DF5399" width="145.5" height="78.738"/>
		<rect x="1853.109" y="1346.031" fill="#DF4377" width="145.5" height="37.93"/>
	</g>
	<g>
		<path fill="#CC0099" d="M2066.302,1379.744v-216.803c0-42.297,27.43-76.576,61.266-76.576h22.969
			c33.837,0,61.266,34.279,61.266,76.576v216.803"/>
		<rect x="2066.302" y="1302.736" fill="#DF5399" width="145.5" height="78.738"/>
		<rect x="2066.302" y="1346.031" fill="#DF4377" width="145.5" height="37.93"/>
	</g>
</g>
<g>
	<circle cx="1816.573" cy="1312.273" r="3.441"/>
	<circle cx="1832.652" cy="1312.273" r="3.44"/>
	<path d="M1820.014,1350.101c0,1.899-1.54,3.438-3.44,3.438c-1.9,0-3.442-1.539-3.442-3.438c0-1.902,1.542-3.443,3.442-3.443
		C1818.474,1346.658,1820.014,1348.199,1820.014,1350.101z"/>
	<path d="M1836.092,1350.101c0,1.899-1.539,3.438-3.439,3.438c-1.9,0-3.44-1.539-3.44-3.438c0-1.902,1.541-3.443,3.44-3.443
		C1834.553,1346.658,1836.092,1348.199,1836.092,1350.101z"/>
	<circle cx="1847.92" cy="1312.273" r="3.44"/>
	<path d="M1820.014,1325.824c0,1.896-1.54,3.439-3.44,3.439c-1.9,0-3.442-1.543-3.442-3.439c0-1.9,1.542-3.44,3.442-3.44
		C1818.474,1322.385,1820.014,1323.924,1820.014,1325.824z"/>
	<path d="M1851.36,1325.824c0,1.896-1.54,3.439-3.439,3.439c-1.901,0-3.441-1.543-3.441-3.439c0-1.9,1.54-3.44,3.441-3.44
		C1849.821,1322.385,1851.36,1323.924,1851.36,1325.824z"/>
	<circle cx="1847.92" cy="1371.5" r="3.44"/>
	<circle cx="1939.764" cy="1326.342" r="3.44"/>
	<path d="M1927.126,1364.17c0,1.902-1.541,3.443-3.439,3.443c-1.9,0-3.441-1.541-3.441-3.443c0-1.898,1.541-3.44,3.441-3.44
		C1925.585,1360.73,1927.126,1362.271,1927.126,1364.17z"/>
	<circle cx="1923.686" cy="1339.895" r="3.44"/>
	<circle cx="1939.764" cy="1339.895" r="3.44"/>
	<circle cx="1704.635" cy="1306.852" r="3.441"/>
	<circle cx="1704.635" cy="1320.402" r="3.441"/>
	<circle cx="1653.194" cy="1332.938" r="3.44"/>
	<circle cx="1669.272" cy="1332.938" r="3.439"/>
	<circle cx="1577.479" cy="1332.938" r="3.441"/>
	<path d="M1596.998,1353.494c0,1.902-1.542,3.443-3.441,3.443s-3.439-1.541-3.439-3.443c0-1.898,1.54-3.438,3.439-3.438
		S1596.998,1351.596,1596.998,1353.494z"/>
	<circle cx="1577.479" cy="1316.963" r="3.441"/>
	<circle cx="1593.558" cy="1316.963" r="3.44"/>
	<circle cx="1669.272" cy="1307.219" r="3.439"/>
	<circle cx="1669.272" cy="1292.775" r="3.439"/>
	<circle cx="1684.541" cy="1332.938" r="3.44"/>
	<path d="M1656.635,1369.342c0,1.902-1.541,3.441-3.441,3.441c-1.9,0-3.44-1.539-3.44-3.441c0-1.896,1.54-3.438,3.44-3.438
		C1655.094,1365.904,1656.635,1367.445,1656.635,1369.342z"/>
	<path d="M1672.711,1369.342c0,1.902-1.539,3.441-3.438,3.441c-1.899,0-3.44-1.539-3.44-3.441c0-1.896,1.541-3.438,3.44-3.438
		C1671.173,1365.904,1672.711,1367.445,1672.711,1369.342z"/>
	<circle cx="1684.541" cy="1346.49" r="3.44"/>
</g>
<g>
	<g>
		<rect x="2080.135" y="1302.461" width="20.772" height="34.383"/>
		<polygon points="2113.082,1336.844 2133.854,1336.844 2133.854,1269.514 2123.373,1260.66 2113.082,1269.514 		"/>
		<rect x="1959.744" y="1336.758" width="557.421" height="60.186"/>
		<rect x="2093.039" y="1321.453" width="119.76" height="37.471"/>
		<rect x="2142.448" y="1294.801" width="70.351" height="68.307"/>
		<polygon points="2019.968,1336.844 2056.497,1336.844 2056.497,1294.582 2037.722,1285.73 2019.968,1294.582 		"/>
		<path d="M2161.298,1293.781c0,9.01,7.304,16.311,16.311,16.311c9.009,0,16.312-7.301,16.312-16.311
			c0-9.014-7.304-16.314-16.312-16.314C2168.603,1277.467,2161.298,1284.768,2161.298,1293.781z"/>
		<path d="M2173.308,1297.113c0,2.377,1.926,4.303,4.301,4.303l0,0c2.378,0,4.303-1.926,4.303-4.303v-27.373
			c0-2.377-1.925-4.303-4.303-4.303l0,0c-2.375,0-4.301,1.926-4.301,4.303V1297.113z"/>
		<path d="M2204.194,1314.732c0,2.377,1.927,4.303,4.303,4.303l0,0c2.374,0,4.301-1.926,4.301-4.303v-27.373
			c0-2.379-1.927-4.305-4.301-4.305l0,0c-2.376,0-4.303,1.926-4.303,4.305V1314.732z"/>
		<path d="M2142.448,1315.49c0,2.377,1.927,4.303,4.302,4.303l0,0c2.378,0,4.303-1.926,4.303-4.303v-27.373
			c0-2.377-1.925-4.303-4.303-4.303l0,0c-2.375,0-4.302,1.926-4.302,4.303V1315.49z"/>
		<rect x="2224.113" y="1311.508" width="29.439" height="32.559"/>
		<rect x="2260.417" y="1289.303" width="51.228" height="64.287"/>
		<polygon points="2311.622,1289.303 2286.021,1279.049 2260.417,1289.303 		"/>
		<rect x="2320.001" y="1291.367" width="27.629" height="62.127"/>
		<rect x="2362.072" y="1312.09" width="45.194" height="44.643"/>
		<rect x="2374.134" y="1291.367" width="21.07" height="22.613"/>
		<path d="M2290.209,1284.467h-9.281v-14.885c0-2.467,2.002-4.471,4.47-4.471h0.298h0.042c2.469,0,4.471,2.004,4.471,4.471V1284.467
			z"/>
		<polygon points="2449.55,1381.309 2511.998,1381.309 2511.998,1313.98 2481.213,1291.601 2449.55,1313.98 		"/>
	</g>
	<g>
		<rect x="880.109" y="1302.461" width="20.771" height="34.383"/>
		<polygon points="913.057,1336.844 933.829,1336.844 933.829,1269.514 923.189,1264.201 913.057,1269.514 		"/>
		<rect x="625.211" y="1336.758" width="605.869" height="60.186"/>
		<rect x="893.013" y="1321.453" width="119.761" height="37.471"/>
		<rect x="942.424" y="1288.851" width="49.423" height="47.992"/>
		<polygon points="846.088,1336.844 882.617,1336.844 882.617,1294.582 864.226,1285.73 846.088,1294.582 		"/>
		<rect x="686.046" y="1289.285" width="28.733" height="47.559"/>
		<polygon points="638.988,1336.844 689.518,1336.844 689.518,1278.385 664.075,1266.141 638.988,1278.385 		"/>
		<polygon points="757.66,1374.447 808.191,1374.447 808.191,1315.99 782.75,1303.746 757.66,1315.99 		"/>
		<circle cx="967.254" cy="1288.135" r="11.461"/>
		<path d="M963.975,1290.479c0,1.67,1.351,3.02,3.021,3.02l0,0c1.669,0,3.023-1.35,3.023-3.02v-19.23
			c0-1.67-1.354-3.023-3.023-3.023l0,0c-1.67,0-3.021,1.354-3.021,3.023V1290.479z"/>
		<rect x="1020.839" y="1307.932" width="30.98" height="36.135"/>
		<rect x="1184.891" y="1271.312" width="4.64" height="29.533"/>
		<polygon points="1061.188,1350.014 1112.417,1350.014 1112.417,1259.91 1086.712,1245.748 1061.188,1259.91 		"/>
		<rect x="1122.362" y="1320.328" width="51.938" height="33.166"/>
		<rect x="1164.432" y="1312.09" width="45.192" height="44.643"/>
		<rect x="1176.492" y="1291.367" width="21.072" height="22.613"/>
		<path d="M1090.978,1255.072h-9.28v-14.887c0-2.463,2-4.465,4.468-4.465h0.298h0.044c2.468,0,4.47,2.002,4.47,4.465V1255.072z"/>
	</g>
	<g>
		<rect x="1284.821" y="1302.461" width="20.771" height="34.383"/>
		<polygon points="1317.769,1336.844 1338.542,1336.844 1338.542,1269.514 1328.386,1262.221 1317.769,1269.514 		"/>
		<rect x="1029.923" y="1336.758" width="605.868" height="60.186"/>
		<rect x="1297.725" y="1321.453" width="119.761" height="37.471"/>
		<rect x="1347.138" y="1288.851" width="49.422" height="47.992"/>
		<rect x="1250.8" y="1294.582" width="36.53" height="42.262"/>
		<circle cx="1371.965" cy="1288.135" r="11.461"/>
		<path d="M1368.688,1290.479c0,1.67,1.352,3.02,3.021,3.02l0,0c1.67,0,3.022-1.35,3.022-3.02v-19.23
			c0-1.67-1.353-3.023-3.022-3.023l0,0c-1.669,0-3.021,1.354-3.021,3.023V1290.479z"/>
		<rect x="1427.708" y="1307.932" width="161.873" height="36.135"/>
		<rect x="1589.604" y="1271.312" width="4.639" height="29.533"/>
		<polygon points="1465.901,1350.014 1517.129,1350.014 1517.129,1259.91 1491.339,1243.979 1465.901,1259.91 		"/>
		<rect x="1569.145" y="1312.09" width="45.191" height="44.643"/>
		<rect x="1581.205" y="1291.367" width="21.071" height="22.613"/>
		<path d="M1495.689,1255.072h-9.279v-14.887c0-2.463,2-4.465,4.468-4.465h0.298h0.043c2.469,0,4.47,2.002,4.47,4.465V1255.072z"/>
	</g>
	<g>
		<polygon points="553.881,1347.402 584.912,1347.402 584.912,1275.748 553.881,1246.447 		"/>
		<rect x="399.388" y="1306.969" width="26.553" height="34.379"/>
		<polygon points="436.309,1337.375 457.081,1337.375 457.081,1270.047 446.253,1262.967 436.309,1270.047 		"/>
		<rect x="328.46" y="1339.098" width="330.936" height="60.184"/>
		<rect x="414.258" y="1321.984" width="130.113" height="37.473"/>
		<rect x="592.293" y="1312.09" width="48.87" height="37.471"/>
		<g>
			<rect x="473.665" y="1283.152" width="44.285" height="60.947"/>
			<polygon points="473.665,1277.209 517.989,1277.209 517.95,1283.152 473.665,1283.152 			"/>
			<rect x="478.122" y="1244.604" width="35.607" height="35.188"/>
			<rect x="493.893" y="1194.072" width="3.304" height="47.191"/>
			<rect x="488.303" y="1215.932" width="14.066" height="57.609"/>
		</g>
	</g>
	<g>
		<rect x="1626.791" y="1302.461" width="20.773" height="34.383"/>
		<rect x="1659.739" y="1269.514" width="20.771" height="67.33"/>
		<rect x="1381.159" y="1336.758" width="596.603" height="60.186"/>
		<rect x="1639.695" y="1321.453" width="119.76" height="37.471"/>
		<rect x="1689.105" y="1296.398" width="64.574" height="62.699"/>
		<rect x="1566.624" y="1294.582" width="36.53" height="42.262"/>
		<path d="M1706.407,1295.465c0,8.268,6.705,14.971,14.974,14.971c8.269,0,14.972-6.703,14.972-14.971
			c0-8.271-6.704-14.977-14.972-14.977C1713.111,1280.488,1706.407,1287.193,1706.407,1295.465z"/>
		<path d="M1717.432,1298.523c0,2.182,1.767,3.949,3.949,3.949l0,0c2.182,0,3.948-1.768,3.948-3.949v-25.125
			c0-2.184-1.766-3.951-3.948-3.951l0,0c-2.182,0-3.949,1.768-3.949,3.951V1298.523z"/>
		<path d="M1745.782,1314.695c0,2.182,1.767,3.949,3.949,3.949l0,0c2.18,0,3.948-1.768,3.948-3.949v-25.127
			c0-2.182-1.768-3.949-3.948-3.949l0,0c-2.182,0-3.949,1.768-3.949,3.949V1314.695z"/>
		<path d="M1689.254,1315.391c0,2.182,1.769,3.947,3.948,3.947l0,0c2.181,0,3.949-1.766,3.949-3.947v-25.127
			c0-2.18-1.768-3.949-3.949-3.949l0,0c-2.179,0-3.948,1.77-3.948,3.949V1315.391z"/>
		<rect x="1770.771" y="1311.508" width="29.439" height="32.559"/>
		<rect x="1807.074" y="1289.303" width="51.228" height="64.287"/>
		<polygon points="1858.278,1289.303 1832.677,1279.049 1807.074,1289.303 		"/>
		<rect x="1866.657" y="1320.328" width="17.372" height="33.166"/>
		<rect x="1908.728" y="1312.09" width="45.195" height="44.643"/>
		<rect x="1920.79" y="1291.367" width="21.071" height="22.613"/>
		<path d="M1836.864,1284.467h-9.279v-14.885c0-2.467,2.001-4.471,4.469-4.471h0.296h0.043c2.47,0,4.471,2.004,4.471,4.471V1284.467
			z"/>
	</g>
	<g>
		<circle cx="1197.571" cy="1326.342" r="3.441"/>
		<path d="M1184.933,1364.17c0,1.902-1.54,3.443-3.441,3.443c-1.9,0-3.44-1.541-3.44-3.443c0-1.898,1.541-3.44,3.44-3.44
			C1183.393,1360.73,1184.933,1362.271,1184.933,1364.17z"/>
		<circle cx="1181.492" cy="1339.895" r="3.441"/>
		<circle cx="1197.571" cy="1339.895" r="3.441"/>
		<path d="M1041.298,1323.76c0,1.902-1.54,3.443-3.44,3.443c-1.9,0-3.44-1.541-3.44-3.443c0-1.896,1.54-3.438,3.44-3.438
			C1039.758,1320.322,1041.298,1321.863,1041.298,1323.76z"/>
		<circle cx="1037.858" cy="1337.314" r="3.44"/>
		<circle cx="1071.907" cy="1309.973" r="3.44"/>
		<circle cx="1100.566" cy="1309.973" r="3.44"/>
		<path d="M1075.347,1323.523c0,1.904-1.54,3.443-3.439,3.443c-1.901,0-3.44-1.539-3.44-3.443c0-1.898,1.54-3.438,3.44-3.438
			C1073.807,1320.086,1075.347,1321.625,1075.347,1323.523z"/>
		<circle cx="1086.402" cy="1309.973" r="3.44"/>
		<path d="M1089.843,1323.523c0,1.904-1.54,3.443-3.441,3.443c-1.899,0-3.44-1.539-3.44-3.443c0-1.898,1.541-3.438,3.44-3.438
			C1088.303,1320.086,1089.843,1321.625,1089.843,1323.523z"/>
		<circle cx="1071.907" cy="1279.955" r="3.44"/>
		<circle cx="1071.907" cy="1293.508" r="3.44"/>
		<circle cx="1086.402" cy="1279.955" r="3.44"/>
		<path d="M1089.843,1259.93c0,1.904-1.54,3.443-3.441,3.443c-1.899,0-3.44-1.539-3.44-3.443c0-1.896,1.541-3.436,3.44-3.436
			C1088.303,1256.494,1089.843,1258.033,1089.843,1259.93z"/>
		<path d="M1318.234,1357.226c0,1.902-1.541,3.443-3.441,3.443c-1.9,0-3.441-1.541-3.441-3.443c0-1.898,1.541-3.438,3.441-3.438
			C1316.693,1353.789,1318.234,1355.328,1318.234,1357.226z"/>
		<path d="M1346.893,1357.226c0,1.902-1.541,3.443-3.44,3.443c-1.902,0-3.44-1.541-3.44-3.443c0-1.898,1.538-3.438,3.44-3.438
			C1345.352,1353.789,1346.893,1355.328,1346.893,1357.226z"/>
		<circle cx="1314.793" cy="1370.779" r="3.441"/>
		<path d="M1332.729,1357.226c0,1.902-1.541,3.443-3.441,3.443c-1.899,0-3.439-1.541-3.439-3.443c0-1.898,1.54-3.438,3.439-3.438
			C1331.188,1353.789,1332.729,1355.328,1332.729,1357.226z"/>
		<path d="M1332.729,1307.287c0,1.9-1.541,3.443-3.441,3.443c-1.899,0-3.439-1.543-3.439-3.443c0-1.899,1.54-3.438,3.439-3.438
			C1331.188,1303.85,1332.729,1305.389,1332.729,1307.287z"/>
		<path d="M1332.729,1293.137c0,1.9-1.541,3.443-3.441,3.443c-1.899,0-3.439-1.543-3.439-3.443c0-1.898,1.54-3.438,3.439-3.438
			C1331.188,1289.699,1332.729,1291.238,1332.729,1293.137z"/>
		<circle cx="1329.289" cy="1370.779" r="3.44"/>
		<circle cx="1266.025" cy="1328.98" r="3.44"/>
		<circle cx="1266.025" cy="1342.533" r="3.44"/>
		<circle cx="1280.52" cy="1328.98" r="3.44"/>
		<path d="M1283.959,1308.955c0,1.904-1.539,3.443-3.439,3.443c-1.901,0-3.44-1.539-3.44-3.443c0-1.896,1.539-3.436,3.44-3.436
			C1282.42,1305.52,1283.959,1307.059,1283.959,1308.955z"/>
		<circle cx="986.418" cy="1349.85" r="3.44"/>
		<circle cx="1002.496" cy="1349.85" r="3.439"/>
		<circle cx="1017.763" cy="1349.85" r="3.44"/>
		<circle cx="1017.763" cy="1363.402" r="3.44"/>
	</g>
	<rect x="327.408" y="1374.941" width="2190.148" height="148.059"/>
</g>
<g>
	<g>
		<rect x="4227.727" y="1302.461" width="20.772" height="34.383"/>
		<polygon points="4260.674,1336.844 4281.446,1336.844 4281.446,1269.514 4270.965,1260.66 4260.674,1269.514 		"/>
		<rect x="4107.337" y="1336.758" width="557.421" height="60.186"/>
		<rect x="4240.631" y="1321.453" width="119.76" height="37.471"/>
		<rect x="4290.04" y="1294.801" width="70.351" height="68.307"/>
		<polygon points="4167.56,1336.844 4204.089,1336.844 4204.089,1294.582 4185.314,1285.73 4167.56,1294.582 		"/>
		<path d="M4308.891,1293.781c0,9.01,7.304,16.311,16.311,16.311c9.009,0,16.312-7.301,16.312-16.311
			c0-9.014-7.304-16.314-16.312-16.314C4316.195,1277.467,4308.891,1284.768,4308.891,1293.781z"/>
		<path d="M4320.9,1297.113c0,2.377,1.926,4.303,4.301,4.303l0,0c2.378,0,4.303-1.926,4.303-4.303v-27.373
			c0-2.377-1.925-4.303-4.303-4.303l0,0c-2.375,0-4.301,1.926-4.301,4.303V1297.113z"/>
		<path d="M4351.787,1314.732c0,2.377,1.927,4.303,4.303,4.303l0,0c2.374,0,4.301-1.926,4.301-4.303v-27.373
			c0-2.379-1.927-4.305-4.301-4.305l0,0c-2.376,0-4.303,1.926-4.303,4.305V1314.732z"/>
		<path d="M4290.04,1315.49c0,2.377,1.927,4.303,4.302,4.303l0,0c2.378,0,4.303-1.926,4.303-4.303v-27.373
			c0-2.377-1.925-4.303-4.303-4.303l0,0c-2.375,0-4.302,1.926-4.302,4.303V1315.49z"/>
		<rect x="4371.706" y="1311.508" width="29.439" height="32.559"/>
		<rect x="4408.009" y="1289.303" width="51.228" height="64.287"/>
		<polygon points="4459.214,1289.303 4433.613,1279.049 4408.009,1289.303 		"/>
		<rect x="4467.593" y="1291.367" width="27.629" height="62.127"/>
		<rect x="4509.665" y="1312.09" width="45.194" height="44.643"/>
		<rect x="4521.726" y="1291.367" width="21.07" height="22.613"/>
		<path d="M4437.801,1284.467h-9.281v-14.885c0-2.467,2.002-4.471,4.47-4.471h0.298h0.042c2.469,0,4.471,2.004,4.471,4.471V1284.467
			z"/>
		<polygon points="4597.143,1381.309 4659.59,1381.309 4659.59,1313.98 4628.805,1291.601 4597.143,1313.98 		"/>
	</g>
	<g>
		<rect x="3027.701" y="1302.461" width="20.771" height="34.383"/>
		<polygon points="3060.649,1336.844 3081.421,1336.844 3081.421,1269.514 3070.781,1264.201 3060.649,1269.514 		"/>
		<rect x="2772.803" y="1336.758" width="605.869" height="60.186"/>
		<rect x="3040.605" y="1321.453" width="119.761" height="37.471"/>
		<rect x="3090.016" y="1288.851" width="49.423" height="47.992"/>
		<polygon points="2993.681,1336.844 3030.209,1336.844 3030.209,1294.582 3011.818,1285.73 2993.681,1294.582 		"/>
		<rect x="2833.638" y="1289.285" width="28.733" height="47.559"/>
		<polygon points="2786.58,1336.844 2837.11,1336.844 2837.11,1278.385 2811.667,1266.141 2786.58,1278.385 		"/>
		<polygon points="2905.252,1374.447 2955.783,1374.447 2955.783,1315.99 2930.342,1303.746 2905.252,1315.99 		"/>
		<circle cx="3114.846" cy="1288.135" r="11.461"/>
		<path d="M3111.567,1290.479c0,1.67,1.351,3.02,3.021,3.02l0,0c1.669,0,3.023-1.35,3.023-3.02v-19.23
			c0-1.67-1.354-3.023-3.023-3.023l0,0c-1.67,0-3.021,1.354-3.021,3.023V1290.479z"/>
		<rect x="3168.431" y="1307.932" width="30.98" height="36.135"/>
		<rect x="3332.483" y="1271.312" width="4.64" height="29.533"/>
		<polygon points="3208.781,1350.014 3260.009,1350.014 3260.009,1259.91 3234.304,1245.748 3208.781,1259.91 		"/>
		<rect x="3269.954" y="1320.328" width="51.938" height="33.166"/>
		<rect x="3312.024" y="1312.09" width="45.192" height="44.643"/>
		<rect x="3324.084" y="1291.367" width="21.072" height="22.613"/>
		<path d="M3238.57,1255.072h-9.28v-14.887c0-2.463,2-4.465,4.468-4.465h0.298h0.044c2.468,0,4.47,2.002,4.47,4.465V1255.072z"/>
	</g>
	<g>
		<rect x="3432.414" y="1302.461" width="20.771" height="34.383"/>
		<polygon points="3465.361,1336.844 3486.134,1336.844 3486.134,1269.514 3475.979,1262.221 3465.361,1269.514 		"/>
		<rect x="3177.515" y="1336.758" width="605.868" height="60.186"/>
		<rect x="3445.317" y="1321.453" width="119.761" height="37.471"/>
		<rect x="3494.73" y="1288.851" width="49.422" height="47.992"/>
		<rect x="3398.393" y="1294.582" width="36.53" height="42.262"/>
		<circle cx="3519.558" cy="1288.135" r="11.461"/>
		<path d="M3516.28,1290.479c0,1.67,1.352,3.02,3.021,3.02l0,0c1.67,0,3.022-1.35,3.022-3.02v-19.23c0-1.67-1.353-3.023-3.022-3.023
			l0,0c-1.669,0-3.021,1.354-3.021,3.023V1290.479z"/>
		<rect x="3575.3" y="1307.932" width="161.873" height="36.135"/>
		<rect x="3737.196" y="1271.312" width="4.639" height="29.533"/>
		<polygon points="3613.493,1350.014 3664.721,1350.014 3664.721,1259.91 3638.931,1243.979 3613.493,1259.91 		"/>
		<rect x="3716.737" y="1312.09" width="45.191" height="44.643"/>
		<rect x="3728.797" y="1291.367" width="21.071" height="22.613"/>
		<path d="M3643.281,1255.072h-9.279v-14.887c0-2.463,2-4.465,4.468-4.465h0.298h0.043c2.469,0,4.47,2.002,4.47,4.465V1255.072z"/>
	</g>
	<g>
		<polygon points="2701.473,1347.402 2732.504,1347.402 2732.504,1275.748 2701.473,1246.447 		"/>
		<rect x="2546.98" y="1306.969" width="26.553" height="34.379"/>
		<polygon points="2583.901,1337.375 2604.673,1337.375 2604.673,1270.047 2593.845,1262.967 2583.901,1270.047 		"/>
		<rect x="2476.053" y="1339.098" width="330.936" height="60.184"/>
		<rect x="2561.85" y="1321.984" width="130.113" height="37.473"/>
		<rect x="2739.886" y="1312.09" width="48.87" height="37.471"/>
		<g>
			<rect x="2621.257" y="1283.152" width="44.285" height="60.947"/>
			<polygon points="2621.257,1277.209 2665.581,1277.209 2665.542,1283.152 2621.257,1283.152 			"/>
			<rect x="2625.714" y="1244.604" width="35.607" height="35.188"/>
			<rect x="2641.485" y="1194.072" width="3.304" height="47.191"/>
			<rect x="2635.895" y="1215.932" width="14.066" height="57.609"/>
		</g>
	</g>
	<g>
		<rect x="3774.383" y="1302.461" width="20.773" height="34.383"/>
		<rect x="3807.332" y="1269.514" width="20.771" height="67.33"/>
		<rect x="3528.751" y="1336.758" width="596.603" height="60.186"/>
		<rect x="3787.288" y="1321.453" width="119.76" height="37.471"/>
		<rect x="3836.697" y="1296.398" width="64.574" height="62.699"/>
		<rect x="3714.216" y="1294.582" width="36.53" height="42.262"/>
		<path d="M3853.999,1295.465c0,8.268,6.705,14.971,14.974,14.971c8.269,0,14.972-6.703,14.972-14.971
			c0-8.271-6.704-14.977-14.972-14.977C3860.704,1280.488,3853.999,1287.193,3853.999,1295.465z"/>
		<path d="M3865.024,1298.523c0,2.182,1.767,3.949,3.949,3.949l0,0c2.182,0,3.948-1.768,3.948-3.949v-25.125
			c0-2.184-1.766-3.951-3.948-3.951l0,0c-2.182,0-3.949,1.768-3.949,3.951V1298.523z"/>
		<path d="M3893.375,1314.695c0,2.182,1.767,3.949,3.949,3.949l0,0c2.18,0,3.948-1.768,3.948-3.949v-25.127
			c0-2.182-1.768-3.949-3.948-3.949l0,0c-2.182,0-3.949,1.768-3.949,3.949V1314.695z"/>
		<path d="M3836.847,1315.391c0,2.182,1.769,3.947,3.948,3.947l0,0c2.181,0,3.949-1.766,3.949-3.947v-25.127
			c0-2.18-1.768-3.949-3.949-3.949l0,0c-2.179,0-3.948,1.77-3.948,3.949V1315.391z"/>
		<rect x="3918.363" y="1311.508" width="29.439" height="32.559"/>
		<rect x="3954.666" y="1289.303" width="51.228" height="64.287"/>
		<polygon points="4005.871,1289.303 3980.269,1279.049 3954.666,1289.303 		"/>
		<rect x="4014.25" y="1320.328" width="17.372" height="33.166"/>
		<rect x="4056.32" y="1312.09" width="45.195" height="44.643"/>
		<rect x="4068.382" y="1291.367" width="21.071" height="22.613"/>
		<path d="M3984.457,1284.467h-9.279v-14.885c0-2.467,2.001-4.471,4.469-4.471h0.296h0.043c2.47,0,4.471,2.004,4.471,4.471V1284.467
			z"/>
	</g>
	<g>
		<circle cx="3345.163" cy="1326.342" r="3.441"/>
		<path d="M3332.525,1364.17c0,1.902-1.54,3.443-3.441,3.443c-1.9,0-3.44-1.541-3.44-3.443c0-1.898,1.541-3.44,3.44-3.44
			C3330.985,1360.73,3332.525,1362.271,3332.525,1364.17z"/>
		<circle cx="3329.085" cy="1339.895" r="3.441"/>
		<circle cx="3345.163" cy="1339.895" r="3.441"/>
		<path d="M3188.891,1323.76c0,1.902-1.54,3.443-3.44,3.443c-1.9,0-3.44-1.541-3.44-3.443c0-1.896,1.54-3.438,3.44-3.438
			C3187.351,1320.322,3188.891,1321.863,3188.891,1323.76z"/>
		<circle cx="3185.45" cy="1337.314" r="3.44"/>
		<circle cx="3219.5" cy="1309.973" r="3.44"/>
		<circle cx="3248.158" cy="1309.973" r="3.44"/>
		<path d="M3222.939,1323.523c0,1.904-1.54,3.443-3.439,3.443c-1.901,0-3.44-1.539-3.44-3.443c0-1.898,1.54-3.438,3.44-3.438
			C3221.399,1320.086,3222.939,1321.625,3222.939,1323.523z"/>
		<circle cx="3233.995" cy="1309.973" r="3.44"/>
		<path d="M3237.435,1323.523c0,1.904-1.54,3.443-3.441,3.443c-1.899,0-3.44-1.539-3.44-3.443c0-1.898,1.541-3.438,3.44-3.438
			C3235.896,1320.086,3237.435,1321.625,3237.435,1323.523z"/>
		<circle cx="3219.5" cy="1279.955" r="3.44"/>
		<circle cx="3219.5" cy="1293.508" r="3.44"/>
		<circle cx="3233.995" cy="1279.955" r="3.44"/>
		<path d="M3237.435,1259.93c0,1.904-1.54,3.443-3.441,3.443c-1.899,0-3.44-1.539-3.44-3.443c0-1.896,1.541-3.436,3.44-3.436
			C3235.896,1256.494,3237.435,1258.033,3237.435,1259.93z"/>
		<path d="M3465.826,1357.226c0,1.902-1.541,3.443-3.441,3.443c-1.9,0-3.441-1.541-3.441-3.443c0-1.898,1.541-3.438,3.441-3.438
			C3464.286,1353.789,3465.826,1355.328,3465.826,1357.226z"/>
		<path d="M3494.485,1357.226c0,1.902-1.541,3.443-3.44,3.443c-1.902,0-3.44-1.541-3.44-3.443c0-1.898,1.538-3.438,3.44-3.438
			C3492.944,1353.789,3494.485,1355.328,3494.485,1357.226z"/>
		<circle cx="3462.385" cy="1370.779" r="3.441"/>
		<path d="M3480.321,1357.226c0,1.902-1.541,3.443-3.441,3.443c-1.899,0-3.439-1.541-3.439-3.443c0-1.898,1.54-3.438,3.439-3.438
			C3478.781,1353.789,3480.321,1355.328,3480.321,1357.226z"/>
		<path d="M3480.321,1307.287c0,1.9-1.541,3.443-3.441,3.443c-1.899,0-3.439-1.543-3.439-3.443c0-1.899,1.54-3.438,3.439-3.438
			C3478.781,1303.85,3480.321,1305.389,3480.321,1307.287z"/>
		<path d="M3480.321,1293.137c0,1.9-1.541,3.443-3.441,3.443c-1.899,0-3.439-1.543-3.439-3.443c0-1.898,1.54-3.438,3.439-3.438
			C3478.781,1289.699,3480.321,1291.238,3480.321,1293.137z"/>
		<circle cx="3476.881" cy="1370.779" r="3.44"/>
		<circle cx="3413.617" cy="1328.98" r="3.44"/>
		<circle cx="3413.617" cy="1342.533" r="3.44"/>
		<circle cx="3428.112" cy="1328.98" r="3.44"/>
		<path d="M3431.552,1308.955c0,1.904-1.539,3.443-3.439,3.443c-1.901,0-3.44-1.539-3.44-3.443c0-1.896,1.539-3.436,3.44-3.436
			C3430.013,1305.52,3431.552,1307.059,3431.552,1308.955z"/>
		<circle cx="3134.01" cy="1349.85" r="3.44"/>
		<circle cx="3150.088" cy="1349.85" r="3.439"/>
		<circle cx="3165.355" cy="1349.85" r="3.44"/>
		<circle cx="3165.355" cy="1363.402" r="3.44"/>
	</g>
	<rect x="2475" y="1374.941" width="2190.148" height="148.059"/>
</g>
<g>
	<g>
		<rect x="-37.273" y="1302.461" width="20.772" height="34.383"/>
		<polygon points="-4.326,1336.844 16.446,1336.844 16.446,1269.514 5.965,1260.66 -4.326,1269.514 		"/>
		<rect x="-157.663" y="1336.758" width="557.421" height="60.186"/>
		<rect x="-24.369" y="1321.453" width="119.76" height="37.471"/>
		<rect x="25.04" y="1294.801" width="70.351" height="68.307"/>
		<polygon points="-97.44,1336.844 -60.911,1336.844 -60.911,1294.582 -79.686,1285.73 -97.44,1294.582 		"/>
		<path d="M43.891,1293.781c0,9.01,7.304,16.311,16.311,16.311c9.009,0,16.312-7.301,16.312-16.311
			c0-9.014-7.304-16.314-16.312-16.314C51.195,1277.467,43.891,1284.768,43.891,1293.781z"/>
		<path d="M55.9,1297.113c0,2.377,1.926,4.303,4.301,4.303l0,0c2.378,0,4.303-1.926,4.303-4.303v-27.373
			c0-2.377-1.925-4.303-4.303-4.303l0,0c-2.375,0-4.301,1.926-4.301,4.303V1297.113z"/>
		<path d="M86.787,1314.732c0,2.377,1.927,4.303,4.303,4.303l0,0c2.374,0,4.301-1.926,4.301-4.303v-27.373
			c0-2.379-1.927-4.305-4.301-4.305l0,0c-2.376,0-4.303,1.926-4.303,4.305V1314.732z"/>
		<path d="M25.04,1315.49c0,2.377,1.927,4.303,4.302,4.303l0,0c2.378,0,4.303-1.926,4.303-4.303v-27.373
			c0-2.377-1.925-4.303-4.303-4.303l0,0c-2.375,0-4.302,1.926-4.302,4.303V1315.49z"/>
		<rect x="106.705" y="1311.508" width="29.439" height="32.559"/>
		<rect x="143.009" y="1289.303" width="51.228" height="64.287"/>
		<polygon points="194.214,1289.303 168.613,1279.049 143.009,1289.303 		"/>
		<rect x="202.593" y="1291.367" width="27.629" height="62.127"/>
		<rect x="244.665" y="1312.09" width="45.194" height="44.643"/>
		<rect x="256.726" y="1291.367" width="21.07" height="22.613"/>
		<path d="M172.801,1284.467h-9.281v-14.885c0-2.467,2.002-4.471,4.47-4.471h0.298h0.043c2.469,0,4.471,2.004,4.471,4.471V1284.467z
			"/>
		<polygon points="332.143,1381.309 394.59,1381.309 394.59,1313.98 363.805,1291.601 332.143,1313.98 		"/>
	</g>
	<g>
		<rect x="-1237.299" y="1302.461" width="20.771" height="34.383"/>
		<polygon points="-1204.351,1336.844 -1183.579,1336.844 -1183.579,1269.514 -1194.219,1264.201 -1204.351,1269.514 		"/>
		<rect x="-1492.197" y="1336.758" width="605.869" height="60.186"/>
		<rect x="-1224.395" y="1321.453" width="119.761" height="37.471"/>
		<rect x="-1174.984" y="1288.851" width="49.423" height="47.992"/>
		<polygon points="-1271.319,1336.844 -1234.791,1336.844 -1234.791,1294.582 -1253.182,1285.73 -1271.319,1294.582 		"/>
		<rect x="-1431.362" y="1289.285" width="28.733" height="47.559"/>
		<polygon points="-1478.42,1336.844 -1427.89,1336.844 -1427.89,1278.385 -1453.333,1266.141 -1478.42,1278.385 		"/>
		<polygon points="-1359.748,1374.447 -1309.217,1374.447 -1309.217,1315.99 -1334.658,1303.746 -1359.748,1315.99 		"/>
		<circle cx="-1150.154" cy="1288.135" r="11.461"/>
		<path d="M-1153.433,1290.479c0,1.67,1.351,3.02,3.021,3.02l0,0c1.669,0,3.023-1.35,3.023-3.02v-19.23
			c0-1.67-1.354-3.023-3.023-3.023l0,0c-1.67,0-3.021,1.354-3.021,3.023V1290.479z"/>
		<rect x="-1096.569" y="1307.932" width="30.98" height="36.135"/>
		<rect x="-932.517" y="1271.312" width="4.64" height="29.533"/>
		<polygon points="-1056.219,1350.014 -1004.991,1350.014 -1004.991,1259.91 -1030.696,1245.748 -1056.219,1259.91 		"/>
		<rect x="-995.046" y="1320.328" width="51.938" height="33.166"/>
		<rect x="-952.976" y="1312.09" width="45.192" height="44.643"/>
		<rect x="-940.915" y="1291.367" width="21.072" height="22.613"/>
		<path d="M-1026.43,1255.072h-9.28v-14.887c0-2.463,2-4.465,4.468-4.465h0.298h0.044c2.468,0,4.47,2.002,4.47,4.465V1255.072z"/>
	</g>
	<g>
		<rect x="-832.586" y="1302.461" width="20.771" height="34.383"/>
		<polygon points="-799.639,1336.844 -778.866,1336.844 -778.866,1269.514 -789.021,1262.221 -799.639,1269.514 		"/>
		<rect x="-1087.485" y="1336.758" width="605.868" height="60.186"/>
		<rect x="-819.683" y="1321.453" width="119.761" height="37.471"/>
		<rect x="-770.27" y="1288.851" width="49.422" height="47.992"/>
		<rect x="-866.607" y="1294.582" width="36.53" height="42.262"/>
		<circle cx="-745.442" cy="1288.135" r="11.461"/>
		<path d="M-748.72,1290.479c0,1.67,1.352,3.02,3.021,3.02l0,0c1.67,0,3.022-1.35,3.022-3.02v-19.23c0-1.67-1.352-3.023-3.022-3.023
			l0,0c-1.669,0-3.021,1.354-3.021,3.023V1290.479z"/>
		<rect x="-689.7" y="1307.932" width="161.873" height="36.135"/>
		<rect x="-527.804" y="1271.312" width="4.639" height="29.533"/>
		<polygon points="-651.507,1350.014 -600.279,1350.014 -600.279,1259.91 -626.069,1243.979 -651.507,1259.91 		"/>
		<rect x="-548.263" y="1312.09" width="45.191" height="44.643"/>
		<rect x="-536.203" y="1291.367" width="21.071" height="22.613"/>
		<path d="M-621.719,1255.072h-9.279v-14.887c0-2.463,2-4.465,4.468-4.465h0.298h0.043c2.469,0,4.47,2.002,4.47,4.465V1255.072z"/>
	</g>
	<g>
		<polygon points="-1563.527,1347.402 -1532.496,1347.402 -1532.496,1275.748 -1563.527,1246.447 		"/>
		<rect x="-1718.02" y="1306.969" width="26.553" height="34.379"/>
		<polygon points="-1681.099,1337.375 -1660.327,1337.375 -1660.327,1270.047 -1671.155,1262.967 -1681.099,1270.047 		"/>
		<rect x="-1788.947" y="1339.098" width="330.936" height="60.184"/>
		<rect x="-1703.15" y="1321.984" width="130.113" height="37.473"/>
		<rect x="-1525.114" y="1312.09" width="48.87" height="37.471"/>
		<g>
			<rect x="-1643.743" y="1283.152" width="44.285" height="60.947"/>
			<polygon points="-1643.743,1277.209 -1599.419,1277.209 -1599.458,1283.152 -1643.743,1283.152 			"/>
			<rect x="-1639.286" y="1244.604" width="35.607" height="35.188"/>
			<rect x="-1623.515" y="1194.072" width="3.304" height="47.191"/>
			<rect x="-1629.105" y="1215.932" width="14.066" height="57.609"/>
		</g>
	</g>
	<g>
		<rect x="-490.617" y="1302.461" width="20.773" height="34.383"/>
		<rect x="-457.668" y="1269.514" width="20.771" height="67.33"/>
		<rect x="-736.249" y="1336.758" width="596.603" height="60.186"/>
		<rect x="-477.712" y="1321.453" width="119.76" height="37.471"/>
		<rect x="-428.303" y="1296.398" width="64.574" height="62.699"/>
		<rect x="-550.784" y="1294.582" width="36.53" height="42.262"/>
		<path d="M-411.001,1295.465c0,8.268,6.705,14.971,14.974,14.971c8.269,0,14.972-6.703,14.972-14.971
			c0-8.271-6.704-14.977-14.972-14.977C-404.296,1280.488-411.001,1287.193-411.001,1295.465z"/>
		<path d="M-399.976,1298.523c0,2.182,1.767,3.949,3.949,3.949l0,0c2.182,0,3.948-1.768,3.948-3.949v-25.125
			c0-2.184-1.766-3.951-3.948-3.951l0,0c-2.182,0-3.949,1.768-3.949,3.951V1298.523z"/>
		<path d="M-371.625,1314.695c0,2.182,1.767,3.949,3.949,3.949l0,0c2.18,0,3.948-1.768,3.948-3.949v-25.127
			c0-2.182-1.768-3.949-3.948-3.949l0,0c-2.182,0-3.949,1.768-3.949,3.949V1314.695z"/>
		<path d="M-428.153,1315.391c0,2.182,1.769,3.947,3.948,3.947l0,0c2.181,0,3.949-1.766,3.949-3.947v-25.127
			c0-2.18-1.768-3.949-3.949-3.949l0,0c-2.179,0-3.948,1.77-3.948,3.949V1315.391z"/>
		<rect x="-346.637" y="1311.508" width="29.439" height="32.559"/>
		<rect x="-310.334" y="1289.303" width="51.228" height="64.287"/>
		<polygon points="-259.129,1289.303 -284.731,1279.049 -310.334,1289.303 		"/>
		<rect x="-250.751" y="1320.328" width="17.372" height="33.166"/>
		<rect x="-208.68" y="1312.09" width="45.195" height="44.643"/>
		<rect x="-196.618" y="1291.367" width="21.071" height="22.613"/>
		<path d="M-280.543,1284.467h-9.279v-14.885c0-2.467,2.001-4.471,4.469-4.471h0.296h0.043c2.47,0,4.471,2.004,4.471,4.471V1284.467
			z"/>
	</g>
	<g>
		<circle cx="-919.837" cy="1326.342" r="3.441"/>
		<path d="M-932.475,1364.17c0,1.902-1.54,3.443-3.441,3.443c-1.9,0-3.44-1.541-3.44-3.443c0-1.898,1.541-3.44,3.44-3.44
			C-934.015,1360.73-932.475,1362.271-932.475,1364.17z"/>
		<circle cx="-935.915" cy="1339.895" r="3.441"/>
		<circle cx="-919.837" cy="1339.895" r="3.441"/>
		<path d="M-1076.109,1323.76c0,1.902-1.54,3.443-3.44,3.443c-1.9,0-3.44-1.541-3.44-3.443c0-1.896,1.54-3.438,3.44-3.438
			C-1077.649,1320.322-1076.109,1321.863-1076.109,1323.76z"/>
		<circle cx="-1079.55" cy="1337.314" r="3.44"/>
		<circle cx="-1045.5" cy="1309.973" r="3.44"/>
		<circle cx="-1016.842" cy="1309.973" r="3.44"/>
		<path d="M-1042.061,1323.523c0,1.904-1.54,3.443-3.439,3.443c-1.901,0-3.44-1.539-3.44-3.443c0-1.898,1.54-3.438,3.44-3.438
			C-1043.601,1320.086-1042.061,1321.625-1042.061,1323.523z"/>
		<circle cx="-1031.005" cy="1309.973" r="3.44"/>
		<path d="M-1027.565,1323.523c0,1.904-1.54,3.443-3.441,3.443c-1.899,0-3.44-1.539-3.44-3.443c0-1.898,1.541-3.438,3.44-3.438
			C-1029.104,1320.086-1027.565,1321.625-1027.565,1323.523z"/>
		<circle cx="-1045.5" cy="1279.955" r="3.44"/>
		<circle cx="-1045.5" cy="1293.508" r="3.44"/>
		<circle cx="-1031.005" cy="1279.955" r="3.44"/>
		<path d="M-1027.565,1259.93c0,1.904-1.54,3.443-3.441,3.443c-1.899,0-3.44-1.539-3.44-3.443c0-1.896,1.541-3.436,3.44-3.436
			C-1029.104,1256.494-1027.565,1258.033-1027.565,1259.93z"/>
		<path d="M-799.174,1357.226c0,1.902-1.541,3.443-3.441,3.443c-1.9,0-3.441-1.541-3.441-3.443c0-1.898,1.541-3.438,3.441-3.438
			C-800.714,1353.789-799.174,1355.328-799.174,1357.226z"/>
		<path d="M-770.515,1357.226c0,1.902-1.541,3.443-3.44,3.443c-1.902,0-3.44-1.541-3.44-3.443c0-1.898,1.538-3.438,3.44-3.438
			C-772.056,1353.789-770.515,1355.328-770.515,1357.226z"/>
		<circle cx="-802.615" cy="1370.779" r="3.441"/>
		<path d="M-784.679,1357.226c0,1.902-1.541,3.443-3.441,3.443c-1.899,0-3.439-1.541-3.439-3.443c0-1.898,1.54-3.438,3.439-3.438
			C-786.219,1353.789-784.679,1355.328-784.679,1357.226z"/>
		<path d="M-784.679,1307.287c0,1.9-1.541,3.443-3.441,3.443c-1.899,0-3.439-1.543-3.439-3.443c0-1.899,1.54-3.438,3.439-3.438
			C-786.219,1303.85-784.679,1305.389-784.679,1307.287z"/>
		<path d="M-784.679,1293.137c0,1.9-1.541,3.443-3.441,3.443c-1.899,0-3.439-1.543-3.439-3.443c0-1.898,1.54-3.438,3.439-3.438
			C-786.219,1289.699-784.679,1291.238-784.679,1293.137z"/>
		<circle cx="-788.119" cy="1370.779" r="3.44"/>
		<circle cx="-851.383" cy="1328.98" r="3.44"/>
		<circle cx="-851.383" cy="1342.533" r="3.44"/>
		<circle cx="-836.888" cy="1328.98" r="3.44"/>
		<path d="M-833.448,1308.955c0,1.904-1.539,3.443-3.439,3.443c-1.901,0-3.44-1.539-3.44-3.443c0-1.896,1.539-3.436,3.44-3.436
			C-834.987,1305.52-833.448,1307.059-833.448,1308.955z"/>
		<circle cx="-1130.99" cy="1349.85" r="3.44"/>
		<circle cx="-1114.912" cy="1349.85" r="3.439"/>
		<circle cx="-1099.645" cy="1349.85" r="3.44"/>
		<circle cx="-1099.645" cy="1363.402" r="3.44"/>
	</g>
	<rect x="-1790" y="1374.941" width="2190.148" height="148.059"/>
</g>
<rect x="721.09" y="-0.211" fill="#5C2B5C" width="68.996" height="1380.654"/>
<rect x="770.839" y="-0.211" fill="#80517C" width="8.585" height="1380.654"/>
<rect x="751.341" y="-0.211" fill="#80517C" width="8.585" height="1380.654"/>
<rect x="732.293" y="-0.211" fill="#80517C" width="8.586" height="1380.654"/>
<rect x="933.674" y="-0.211" fill="#5C2B5C" width="68.996" height="1380.654"/>
<rect x="983.423" y="-0.211" fill="#80517C" width="8.585" height="1380.654"/>
<rect x="963.925" y="-0.211" fill="#80517C" width="8.585" height="1380.654"/>
<rect x="944.335" y="-0.211" fill="#80517C" width="8.586" height="1380.654"/>
<rect x="1146.258" y="-0.211" fill="#5C2B5C" width="68.996" height="1380.654"/>
<rect x="1196.007" y="-0.211" fill="#80517C" width="8.585" height="1380.654"/>
<rect x="1176.509" y="-0.211" fill="#80517C" width="8.585" height="1380.654"/>
<rect x="1156.919" y="-0.211" fill="#80517C" width="8.586" height="1380.654"/>
<rect x="1358.842" y="-0.211" fill="#5C2B5C" width="68.996" height="1380.654"/>
<rect x="1408.591" y="-0.211" fill="#80517C" width="8.585" height="1380.654"/>
<rect x="1389.093" y="-0.211" fill="#80517C" width="8.585" height="1380.654"/>
<rect x="1369.503" y="-0.211" fill="#80517C" width="8.586" height="1380.654"/>
<rect x="1571.426" y="-0.211" fill="#5C2B5C" width="68.996" height="1380.654"/>
<rect x="1621.175" y="-0.211" fill="#80517C" width="8.585" height="1380.654"/>
<rect x="1601.677" y="-0.211" fill="#80517C" width="8.585" height="1380.654"/>
<rect x="1582.087" y="-0.211" fill="#80517C" width="8.586" height="1380.654"/>
<rect x="1784.01" y="-0.211" fill="#5C2B5C" width="68.996" height="1380.654"/>
<rect x="1833.759" y="-0.211" fill="#80517C" width="8.585" height="1380.654"/>
<rect x="1814.26" y="-0.211" fill="#80517C" width="8.585" height="1380.654"/>
<rect x="1794.671" y="-0.211" fill="#80517C" width="8.585" height="1380.654"/>
<rect x="1996.594" y="-0.211" fill="#5C2B5C" width="68.996" height="1380.654"/>
<rect x="2046.343" y="-0.211" fill="#80517C" width="8.585" height="1380.654"/>
<rect x="2026.844" y="-0.211" fill="#80517C" width="8.585" height="1380.654"/>
<rect x="2007.255" y="-0.211" fill="#80517C" width="8.585" height="1380.654"/>
<rect x="2209.178" y="-0.211" fill="#5C2B5C" width="68.996" height="1380.654"/>
<rect x="2258.927" y="-0.211" fill="#80517C" width="8.585" height="1380.654"/>
<rect x="2239.429" y="-0.211" fill="#80517C" width="8.585" height="1380.654"/>
<rect x="2219.839" y="-0.211" fill="#80517C" width="8.586" height="1380.654"/>
<rect x="-35.314" y="1388.496" fill="#666666" width="3056.473" height="111.504"/>
<rect x="-43" y="1379.744" fill="#999999" width="3084" height="17.199"/>
<rect x="1193.724" y="1379.219" fill="#999999" width="614" height="120.094"/>
<rect x="1209.404" y="1378.58" width="581.349" height="135.42"/>
<g>
	<polygon fill="#999999" points="1442.625,1476.441 1501.969,1398.572 1509.883,1398.572 1556.73,1476.441 	"/>
	<polygon fill="#666666" points="1450.539,1476.441 1509.883,1398.572 1569.228,1476.441 	"/>
</g>
</svg>
