<?xml version="1.0" encoding="utf-8"?>
<!-- Generator: Adobe Illustrator 17.0.0, SVG Export Plug-In . SVG Version: 6.00 Build 0)  -->
<!DOCTYPE svg PUBLIC "-//W3C//DTD SVG 1.1//EN" "http://www.w3.org/Graphics/SVG/1.1/DTD/svg11.dtd">
<svg version="1.1" id="Слой_1" xmlns="http://www.w3.org/2000/svg" xmlns:xlink="http://www.w3.org/1999/xlink" x="0px" y="0px"
	 width="55.984px" height="88.189px" viewBox="0 0 55.984 88.189" enable-background="new 0 0 55.984 88.189" xml:space="preserve">
<g>
	<g>
		<rect x="18.196" y="64.346" fill="#FF8A33" width="7.577" height="17.68"/>
	</g>
	<g>
		<rect x="27.619" y="64.346" fill="#FF8A33" width="7.577" height="17.68"/>
	</g>
	<rect x="16.602" y="59.42" fill="#FF6699" width="20.035" height="8.644"/>
	<path fill="#FF6699" d="M16.637,60.354L16.637,60.354c0-3.344,2.713-6.057,6.061-6.057h7.981c3.347,0,6.06,2.713,6.06,6.057l0,0"/>
	<g>
		<g>
			<circle fill="#FFDF00" cx="7.938" cy="20.441" r="7.938"/>
			<circle fill="#FFDF00" cx="13.876" cy="13.062" r="7.938"/>
			<circle fill="#FFDF00" cx="41.826" cy="28.732" r="7.938"/>
			<circle fill="#FFDF00" cx="40.826" cy="17.441" r="7.938"/>
			<g>
				<circle fill="#FFDF00" cx="8.938" cy="31.633" r="7.938"/>
				<ellipse fill="#FFDF00" cx="19.935" cy="36.633" rx="10.108" ry="7.939"/>
				<circle fill="#FFDF00" cx="35.558" cy="36.051" r="7.938"/>
			</g>
		</g>
		<g>
			<circle fill="#FF8A33" cx="27.612" cy="19.742" r="18.886"/>
			<g>
				<circle fill="#5C3639" cx="27.37" cy="24.115" r="0.919"/>
				<circle fill="#5C3639" cx="41.745" cy="24.115" r="0.919"/>
			</g>
			<path fill="#FFDF00" d="M14.237,32.068c0-1.734,0.225-3.418,0.646-5.021c2.22-8.436,9.901-14.658,19.035-14.658
				c4.789,0,9.176,1.713,12.588,4.555C45.17,7.373,36.974,0,27.037,0C16.167,0,7.354,8.812,7.354,19.684
				c0,6.08,2.762,11.516,7.096,15.125C14.323,33.912,14.237,33.002,14.237,32.068z"/>
		</g>
		<path fill="#FFDF00" d="M16.049,7.316c-5.314,4.266-8.006,10.527-7.768,16.596c5.873,1.549,12.882-0.471,18.197-4.736
			c5.317-4.266,9.178-10.652,9.037-14.219C29.642,3.412,21.366,3.053,16.049,7.316z"/>
	</g>
	<g>
		<g>
			<g>
				<g>
					<path fill="#FF8A33" d="M13.988,63.235c-0.144,0.995-0.405,1.899-0.995,2.593c-0.568,0.691-1.354,1.18-2.223,1.232
						c-0.869,0.052-1.661-0.369-2.237-1.15c-0.551-0.776-0.999-1.914-0.835-3.153c0.115-1.239,0.554-2.324,1.304-2.997
						c0.712-0.683,1.573-0.975,2.423-0.789c0.85,0.186,1.538,0.79,1.971,1.554C13.791,61.289,14.083,62.237,13.988,63.235z"/>
					<path fill="#FF8A33" d="M7.65,62.754c0,0,0.036-0.383,0.099-1.053c0.035-0.335,0.065-0.743,0.124-1.207
						c0.088-0.461,0.187-0.981,0.295-1.548c0.385-2.278,1.327-5.237,2.645-7.998c1.305-2.773,3.005-5.318,4.427-7.094
						c0.729-0.874,1.329-1.609,1.795-2.086c0.453-0.487,0.713-0.765,0.713-0.765c1.756-1.815,4.361-1.988,5.379-0.531
						c1.009,1.446,0.642,3.518-0.786,4.99c0,0-0.89,0.898-2.087,2.372c-1.184,1.482-2.592,3.594-3.657,5.859
						c-1.076,2.257-1.84,4.641-2.144,6.476c-0.089,0.456-0.171,0.875-0.243,1.246c-0.05,0.374-0.067,0.705-0.096,0.974
						c-0.051,0.541-0.08,0.849-0.08,0.849"/>
				</g>
			</g>
		</g>
		<g>
			<g>
				<g>
					<path fill="#FF8A33" d="M50.316,44.15c0.16-0.138,0.333-0.253,0.515-0.353c0.173-0.119,0.357-0.219,0.55-0.302
						c0.387-0.16,0.807-0.258,1.217-0.323c0.831-0.106,1.724,0.057,2.415,0.587c0.691,0.53,1.029,1.357,0.962,2.326
						c-0.021,0.488-0.179,0.99-0.449,1.484c-0.132,0.248-0.289,0.495-0.469,0.735c-0.195,0.232-0.424,0.452-0.669,0.662
						c-0.971,0.85-2.23,1.221-3.232,1.106c-1.002-0.086-1.767-0.69-2.079-1.481c-0.329-0.825-0.242-1.661-0.028-2.449
						C49.281,45.368,49.68,44.71,50.316,44.15z"/>
					<path fill="#FF8A33" d="M54.421,49.002c0,0-0.076,0.065-0.219,0.186c-0.146,0.119-0.343,0.306-0.645,0.508
						c-0.296,0.205-0.654,0.454-1.066,0.74c-0.45,0.249-0.94,0.551-1.517,0.824c-1.156,0.548-2.629,1.027-4.259,1.214
						c-1.63,0.192-3.381,0.048-4.987-0.361c-3.243-0.818-5.835-2.529-7.601-3.872c-0.891-0.676-1.574-1.289-2.052-1.717
						c-0.466-0.439-0.732-0.689-0.732-0.689c-1.743-1.683-1.847-4.167-0.42-5.219c1.421-1.047,3.478-0.724,4.87,0.616
						c0,0,0.84,0.862,2.223,1.924c1.368,1.06,3.335,2.279,5.266,2.746c1.936,0.513,3.68,0.177,4.95-0.428
						c0.319-0.146,0.6-0.335,0.859-0.464c0.249-0.174,0.466-0.327,0.645-0.452c0.183-0.114,0.315-0.243,0.408-0.321
						c0.093-0.08,0.142-0.122,0.142-0.122"/>
				</g>
			</g>
		</g>
	</g>
	<g>
		<rect x="20.055" y="43.127" fill="#FF6699" width="13.01" height="12.689"/>
		<path fill="#FF6699" d="M20.055,43.449c0,3.625,2.939,6.564,6.565,6.564c3.625,0,6.565-2.939,6.565-6.564
			c0-3.629-2.939-6.566-6.565-6.566C22.994,36.883,20.055,39.82,20.055,43.449z"/>
	</g>
	
		<rect x="23.368" y="34.764" transform="matrix(-0.7072 0.707 -0.707 -0.7072 73.0733 46.3905)" fill="#FF8A33" width="7.124" height="7.126"/>
	<path fill="#DF3366" d="M25.864,81.902v2.408c0,2.141-1.737,3.879-3.879,3.879l0,0c-2.142,0-3.879-1.738-3.879-3.879v-2.408"/>
	<path fill="#DF3366" d="M35.229,81.902v2.408c0,2.141-1.737,3.879-3.879,3.879l0,0c-2.142,0-3.879-1.738-3.879-3.879v-2.408"/>
</g>
</svg>
