<?xml version="1.0" encoding="utf-8"?>
<!-- Generator: Adobe Illustrator 17.0.0, SVG Export Plug-In . SVG Version: 6.00 Build 0)  -->
<!DOCTYPE svg PUBLIC "-//W3C//DTD SVG 1.1//EN" "http://www.w3.org/Graphics/SVG/1.1/DTD/svg11.dtd">
<svg version="1.1" id="Слой_1" xmlns="http://www.w3.org/2000/svg" xmlns:xlink="http://www.w3.org/1999/xlink" x="0px" y="0px"
	 width="206.466px" height="113.553px" viewBox="0 0 206.466 113.553" enable-background="new 0 0 206.466 113.553"
	 xml:space="preserve">
<g>
	<g>
		<path fill="#333333" d="M129.528,108.92l9.849-0.139c0,0-0.175-6.965,0.372-13.871c0.11-1.729,0.31-3.439,0.447-5.055
			c0.197-1.594,0.366-3.094,0.556-4.35c0.191-1.26,0.352-2.305,0.487-2.996c0.122-0.645,0.192-1.014,0.192-1.014l-9.618-2.121
			c0,0-0.026,0.127-0.075,0.363c-0.042,0.225-0.104,0.555-0.183,0.975c-0.161,0.822-0.339,1.977-0.549,3.359
			c-0.208,1.385-0.391,2.992-0.602,4.717c-0.151,1.725-0.361,3.564-0.48,5.404C129.344,101.555,129.528,108.92,129.528,108.92z"/>
		<path d="M129.417,108.92l10.03-0.141l0.048,3.445l-12.491,0.432C127.357,110.521,129.417,108.92,129.417,108.92z"/>
	</g>
	<g>
		<path fill="#333333" d="M142.118,108.92l9.849-0.139c0,0-0.175-6.965,0.372-13.871c0.11-1.729,0.31-3.439,0.447-5.055
			c0.197-1.594,0.366-3.094,0.556-4.35c0.191-1.26,0.352-2.305,0.487-2.996c0.123-0.645,0.192-1.014,0.192-1.014l-9.618-2.121
			c0,0-0.026,0.127-0.075,0.363c-0.042,0.225-0.104,0.555-0.183,0.975c-0.161,0.822-0.339,1.977-0.549,3.359
			c-0.208,1.385-0.391,2.992-0.602,4.717c-0.151,1.725-0.361,3.564-0.48,5.404C141.935,101.555,142.118,108.92,142.118,108.92z"/>
		<path d="M142.007,108.92l10.03-0.141l0.048,3.445l-12.491,0.432C139.948,110.521,142.007,108.92,142.007,108.92z"/>
	</g>
	<g>
		<g>
			<g>
				<g>
					<path fill="#FF8A33" d="M165.812,90.789c-0.002,0.354-0.031,0.7-0.084,1.031c-0.073,0.325-0.17,0.636-0.286,0.926
						c-0.23,0.583-0.539,1.085-0.943,1.464c-0.785,0.772-1.756,1.101-2.74,0.91c-0.984-0.191-1.806-0.828-2.347-1.617
						c-0.258-0.397-0.49-0.834-0.641-1.292c-0.073-0.229-0.125-0.465-0.152-0.706c-0.046-0.238-0.073-0.48-0.07-0.728
						c0.021-0.5,0.084-0.962,0.232-1.405c0.169-0.447,0.358-0.859,0.632-1.245c0.569-0.771,1.299-1.42,2.285-1.664
						c0.959-0.238,2.016,0.041,2.784,0.837c0.391,0.393,0.756,0.907,0.968,1.503C165.681,89.401,165.835,90.083,165.812,90.789z"/>
					<path fill="#666666" d="M158.493,90.778c0,0,0.001-0.076,0.002-0.22c-0.003-0.142,0.017-0.357-0.014-0.616
						c-0.019-0.262-0.041-0.579-0.068-0.943c-0.054-0.355-0.115-0.755-0.182-1.192c-0.204-0.847-0.446-1.833-0.91-2.802
						c-0.454-0.972-1.064-1.952-1.818-2.853c-1.496-1.814-3.574-3.273-5.278-4.162c-0.849-0.451-1.586-0.79-2.114-1.005
						c-0.522-0.226-0.832-0.333-0.832-0.333c-1.973-0.764-3.255-2.688-2.924-4.694c0.324-2.018,2.947-3.197,5.534-2.201
						c0,0,0.393,0.138,1.065,0.426c0.676,0.276,1.629,0.712,2.749,1.307c2.23,1.175,5.142,3.148,7.455,5.932
						c1.156,1.379,2.137,2.938,2.859,4.497c0.733,1.56,1.147,3.112,1.442,4.438c0.104,0.667,0.198,1.279,0.283,1.821
						c0.04,0.541,0.074,1.012,0.103,1.4c0.036,0.39,0.021,0.689,0.023,0.895c-0.001,0.206-0.002,0.315-0.002,0.315"/>
				</g>
			</g>
		</g>
		<g>
			<g>
				<g>
					<path fill="#FF8A33" d="M113.786,87.617c-2.314-0.487-3.688-2.523-3.112-4.433c0.581-1.928,2.543-3.12,4.371-2.72
						c0.926,0.115,1.705,0.63,2.281,1.371c0.568,0.733,0.939,1.6,0.899,2.617c-0.038,0.987-0.533,1.932-1.342,2.501
						C116.084,87.513,114.962,87.778,113.786,87.617z"/>
					<path fill="#666666" d="M115.054,80.41c0,0,0.286,0.036,0.787,0.1c0.499,0.053,1.219,0.186,2.068,0.252
						c1.675,0.036,3.945,0.111,5.946-0.501c2.025-0.534,3.792-1.545,4.937-2.521c0.605-0.451,0.997-0.954,1.317-1.253
						c0.278-0.34,0.437-0.535,0.437-0.535c1.024-1.236,2.945-1.677,4.883-1.025c0.962,0.324,1.631,1.197,1.823,2.242
						c0.2,1.056-0.094,2.323-0.924,3.358c0,0-0.256,0.31-0.705,0.852c-0.231,0.265-0.54,0.562-0.882,0.913
						c-0.335,0.36-0.748,0.727-1.221,1.105c-1.831,1.57-4.704,3.194-7.759,3.988c-3.061,0.883-6.113,0.807-8.343,0.734
						c-1.109-0.08-2.005-0.24-2.645-0.312c-0.636-0.086-0.999-0.135-0.999-0.135"/>
				</g>
			</g>
		</g>
	</g>
	<g>
		<path fill="#666666" d="M157.015,82.244c0-7.666-7.297-14.609-16.301-14.609c-9.002,0-16.302,6.943-16.302,14.609"/>
		<path fill="#333333" d="M124.412,83.072c0,7.666,7.3,13.883,16.302,13.883c9.003,0,16.301-6.217,16.301-13.883"/>
		<rect x="136.29" y="66.764" fill="#FFFFFF" width="8.848" height="19.559"/>
		<g>
			<path fill="#666666" d="M136.29,86.322c-0.133,8.523-11.878,7.053-11.878,7.053V81.873c0,0,8.715-11.545,11.878-11.545
				C136.29,95.502,136.29,71.676,136.29,86.322z"/>
		</g>
		<g>
			<path fill="#666666" d="M145.138,86.322c0.13,8.523,11.877,7.053,11.877,7.053V81.873c0,0-8.718-11.545-11.877-11.545
				C145.138,95.502,145.138,71.676,145.138,86.322z"/>
		</g>
	</g>
	<g>
		<path fill="#FF8A33" d="M137.319,67.945l3.299,4.254l3.3-4.254v-5.805c0-1.641-1.477-2.971-3.3-2.971l0,0
			c-1.821,0-3.299,1.33-3.299,2.971V67.945z"/>
		<g>
			<path fill="#FF8A33" d="M121.063,48.988c0,10.611,8.602,19.213,19.212,19.213c10.611,0,19.216-8.602,19.216-19.213
				s-8.604-19.217-19.216-19.217C129.665,29.772,121.063,38.377,121.063,48.988z"/>
			<path fill="#993333" d="M140.102,32.588l-10.751,0.592c2.719-2.221,6.961-4.613,12.415-4.613
				c11.105,0,19.256,8.229,19.256,19.334c0,3.689-0.247,2.303-3.227,6.062l-1.463-0.518c-1.812,0.389-4.921,0.486-4.896-1.57
				c0.139-12.359-2.449-18.392-10.291-19.287H140.102z"/>
			<path fill="#4D3333" d="M139.61,49.133c0,0.518,0.418,0.936,0.933,0.936c0.519,0,0.938-0.418,0.938-0.936
				c0-0.514-0.419-0.933-0.938-0.933C140.028,48.199,139.61,48.619,139.61,49.133z"/>
			<path fill="#4D3333" d="M124.437,49.133c0,0.518,0.419,0.936,0.935,0.936s0.936-0.418,0.936-0.936
				c0-0.514-0.42-0.933-0.936-0.933S124.437,48.619,124.437,49.133z"/>
			<path fill="#FF8A33" d="M149.347,51.799c0,2.438,1.977,4.414,4.418,4.414h5.668c2.441,0,4.416-1.977,4.416-4.414l0,0
				c0-2.439-1.975-4.418-4.416-4.418h-5.668C151.323,47.381,149.347,49.359,149.347,51.799L149.347,51.799z"/>
			<path fill="#993333" d="M142.141,62.649L142.141,62.649c0-3.174-2.573-5.75-5.752-5.75h-6.285c-3.179,0-5.746,2.576-5.746,5.75
				l0,0"/>
			<path fill="#FF8A33" d="M123.93,29.707"/>
		</g>
	</g>
</g>
<g>
	<rect x="73.113" y="87.434" fill="#B57666" width="133.353" height="5.227"/>
	<rect x="80.486" y="91.951" fill="#993333" width="119.408" height="13.922"/>
	<rect x="80.085" y="91.951" fill="#993333" width="4.438" height="21.602"/>
	<rect x="195.455" y="91.951" fill="#993333" width="4.438" height="21.602"/>
</g>
<g>
	<polygon fill="#7A7EDE" points="32.057,62.149 12.446,62.17 12.442,53.897 32.052,53.877 	"/>
	<path fill="#9999ED" d="M40.504,36.465c-0.013-0.016-0.022-0.025-0.035-0.041l0.061-6.402c0.006-0.627,0.425-1.17,1.026-1.348
		c1.474-0.44,2.548-1.805,2.546-3.422l-0.002-1.605c-0.002-1.279-0.548-2.688-1.69-3.029c-1.594-0.473-2.071-1.988-1.896-3.537
		l-0.078-4.637c-0.001-1.148,0.509-2.234,1.389-2.971c0.779-0.652,1.596-1.58,1.595-2.609l-0.004-3.303
		c-0.002-1.969-1.6-3.562-3.568-3.561L22.184,0.018L4.519,0.037c-1.968,0-3.563,1.6-3.56,3.568l0.003,3.303
		c0.002,1.029,0.819,1.957,1.6,2.605c0.882,0.736,1.395,1.82,1.396,2.967l-0.056,4.637c0.179,1.551-0.294,3.065-1.887,3.543
		c-1.142,0.342-1.685,1.752-1.684,3.031l0.002,1.608c0.002,1.615,1.078,2.978,2.553,3.414c0.602,0.18,1.022,0.721,1.029,1.348
		l0.074,6.4c-0.013,0.018-0.022,0.027-0.035,0.043C1.706,36.897-0.002,38.852,0,41.211v0.188C0.008,49.113,6.267,55.359,13.98,55.35
		l8.269-0.008l8.27-0.01c7.712-0.006,13.958-6.266,13.95-13.978v-0.188C44.466,38.805,42.752,36.854,40.504,36.465z"/>
	<g>
		<path fill="#BDBFFF" d="M26.075,6.932L5.185,6.953c-1.009,0.002-1.83-0.816-1.831-1.826c-0.001-1.01,0.817-1.83,1.827-1.83
			L26.07,3.275c1.01-0.002,1.831,0.816,1.831,1.826C27.903,6.111,27.085,6.932,26.075,6.932z"/>
	</g>
	<g>
		<path fill="#BDBFFF" d="M27.935,26.424L5.212,26.449c-1.01,0.002-1.83-0.816-1.831-1.828c0-1.01,0.817-1.828,1.827-1.83
			l22.723-0.024c1.01-0.002,1.83,0.816,1.831,1.828C29.764,25.606,28.946,26.424,27.935,26.424z"/>
	</g>
	<g>
		<path fill="#BDBFFF" d="M14.111,43.074l-8.88,0.01C4.22,43.086,3.4,42.268,3.399,41.258c0-1.01,0.817-1.83,1.827-1.832
			l8.881-0.008c1.01-0.002,1.831,0.816,1.832,1.826C15.939,42.254,15.121,43.074,14.111,43.074z"/>
	</g>
	<path fill="#FFFFFF" d="M41.447,63.344l-1.096-0.959c-1.932-1.689-4.413-2.619-6.979-2.615l-23.118,0.022
		c-3.078,0.004-6.002,1.348-8.01,3.68L2.19,63.533c-1.346,1.562-2.087,3.559-2.087,5.621l-0.005,43.58h44.517l-0.223-42.926
		C44.385,67.328,43.312,64.975,41.447,63.344z"/>
	<path fill="#BDBFFF" d="M36.187,94.789L8.45,94.818L8.412,76.359c-0.003-3,2.424-5.432,5.423-5.434l16.879-0.021
		c2.998,0,5.431,2.428,5.434,5.424L36.187,94.789z"/>
	<g>
		<g>
			<path fill="#68B1E1" d="M16.768,79.182l-4.52,0.004c-0.703,0-1.273-0.568-1.274-1.271v-0.025
				c-0.002-0.703,0.568-1.273,1.271-1.273l4.519-0.006c0.703,0,1.273,0.568,1.275,1.272v0.025
				C18.04,78.609,17.47,79.182,16.768,79.182z"/>
			<rect x="13.063" y="79.232" fill="#FFFFFF" width="2.9" height="6.072"/>
		</g>
		<g>
			<path fill="#F16623" d="M32.317,79.164l-4.519,0.006c-0.703,0.002-1.274-0.57-1.274-1.273v-0.025
				c0-0.701,0.568-1.271,1.271-1.273l4.52-0.004c0.703,0,1.273,0.568,1.274,1.271v0.023C33.589,78.594,33.02,79.164,32.317,79.164z"
				/>
			<rect x="28.612" y="79.217" fill="#FFFFFF" width="2.9" height="6.072"/>
		</g>
	</g>
</g>
</svg>
