<?xml version="1.0" encoding="utf-8"?>
<!-- Generator: Adobe Illustrator 17.0.0, SVG Export Plug-In . SVG Version: 6.00 Build 0)  -->
<!DOCTYPE svg PUBLIC "-//W3C//DTD SVG 1.1//EN" "http://www.w3.org/Graphics/SVG/1.1/DTD/svg11.dtd">
<svg version="1.1" id="Слой_1" xmlns="http://www.w3.org/2000/svg" xmlns:xlink="http://www.w3.org/1999/xlink" x="0px" y="0px"
	 width="155.977px" height="84.381px" viewBox="0 0 155.977 84.381" enable-background="new 0 0 155.977 84.381"
	 xml:space="preserve">
<g>
	<path fill="#333333" d="M67.142,80.574l9.848,0.223c0,0-0.026-0.371,0.045-0.975c0.069-0.604,0.087-1.502,0.23-2.518
		c0.294-2.027,0.972-4.58,2.157-6.664c0.552-1.076,1.307-1.957,2.016-2.762c0.768-0.738,1.517-1.4,2.237-1.82
		c1.417-0.926,2.425-1.107,1.986-1.01l-2.332-9.57c-0.24,0.068-2.347,0.594-4.933,2.264c-1.318,0.799-2.691,1.949-4.042,3.291
		c-1.284,1.396-2.565,2.99-3.503,4.752c-1.979,3.49-2.929,7.309-3.337,10.115c-0.2,1.406-0.236,2.574-0.317,3.393
		C67.117,80.115,67.143,80.574,67.142,80.574z"/>
	<path d="M67.032,80.57l10.027,0.227l0.037,2.875l-12.479,0.709c0.173-1.117,0.777-2.092,1.338-2.76
		C66.515,80.949,67.032,80.57,67.032,80.57z"/>
</g>
<g>
	<path fill="#333333" d="M81.643,80.354l9.849-0.139c0,0-0.175-6.965,0.372-13.871c0.11-1.729,0.31-3.44,0.447-5.055
		c0.197-1.594,0.366-3.094,0.556-4.35c0.191-1.26,0.352-2.305,0.487-2.996c0.123-0.645,0.192-1.014,0.192-1.014l-9.618-2.121
		c0,0-0.026,0.127-0.075,0.363c-0.043,0.225-0.104,0.555-0.183,0.975c-0.161,0.822-0.339,1.977-0.549,3.359
		c-0.208,1.385-0.391,2.992-0.602,4.717c-0.151,1.725-0.361,3.564-0.48,5.404C81.46,72.988,81.643,80.354,81.643,80.354z"/>
	<path d="M81.532,80.354l10.03-0.141l0.048,3.445L79.119,84.09C79.473,81.955,81.532,80.354,81.532,80.354z"/>
</g>
<g>
	<g>
		<g>
			<g>
				<path fill="#FF8A33" d="M112.553,52.708c0.222,0.624,0.258,1.247,0.216,1.826c-0.034,0.58-0.194,1.112-0.456,1.567
					c-0.503,0.914-1.32,1.506-2.312,1.649c-2.012,0.255-3.815-1.115-4.363-2.82c-0.271-0.88-0.212-1.756,0.098-2.605
					c0.311-0.838,0.887-1.676,1.735-2.188c0.868-0.523,1.885-0.574,2.857-0.111c0.502,0.225,0.934,0.585,1.325,1.042
					C112.06,51.525,112.352,52.085,112.553,52.708z"/>
				<path fill="#666666" d="M105.586,54.947c0,0-0.088-0.269-0.242-0.739c-0.192-0.44-0.43-1.099-0.82-1.789
					c-0.734-1.429-2.043-2.958-3.775-3.944c-1.722-1.008-3.905-1.43-5.606-1.504c-0.85-0.044-1.576-0.03-2.085,0.005
					c-0.508,0.022-0.801,0.06-0.801,0.06c-1.887,0.165-3.744-1.009-4.364-2.946c-0.632-1.942,1.045-4.156,3.664-4.393
					c0,0,0.39-0.049,1.084-0.081c0.691-0.045,1.687-0.068,2.896-0.006c2.395,0.112,5.779,0.688,8.855,2.457
					c3.093,1.725,5.461,4.579,6.602,6.817c0.62,1.117,0.979,2.08,1.259,2.75c0.224,0.675,0.353,1.06,0.353,1.06"/>
			</g>
		</g>
	</g>
	<g>
		<g>
			<g>
				<path fill="#FF8A33" d="M63.263,54.918c-0.224,0.462-0.482,0.902-0.806,1.286c-0.335,0.375-0.724,0.704-1.125,0.981
					c-0.825,0.536-1.84,0.804-2.817,0.579c-0.977-0.225-1.727-0.936-2.123-1.983c-0.211-0.523-0.301-1.122-0.259-1.765
					c0.027-0.643,0.156-1.33,0.472-2c0.148-0.336,0.317-0.653,0.502-0.947c0.203-0.29,0.433-0.554,0.665-0.792
					c0.234-0.237,0.478-0.446,0.726-0.624c0.267-0.171,0.539-0.311,0.807-0.418c1.061-0.443,2.134-0.292,2.919,0.332
					c0.785,0.624,1.188,1.543,1.372,2.492c0.041,0.235,0.063,0.47,0.063,0.701c0.015,0.244,0.013,0.489-0.013,0.728
					c-0.025,0.24-0.074,0.474-0.145,0.705C63.446,54.439,63.368,54.681,63.263,54.918z"/>
				<path fill="#666666" d="M56.553,51.995c0,0,0.173-0.419,0.519-1.141c0.379-0.717,0.919-1.741,1.747-2.906
					c0.854-1.141,1.935-2.464,3.391-3.601c1.429-1.153,3.155-2.146,4.962-2.817c3.638-1.371,7.368-1.446,9.993-1.228
					c1.322,0.116,2.404,0.279,3.152,0.422c0.75,0.136,1.172,0.235,1.172,0.235c2.821,0.611,4.448,3.065,3.627,4.935
					c-0.817,1.862-3.034,2.734-5.203,2.267c0,0-0.334-0.067-0.919-0.184c-0.585-0.111-1.424-0.236-2.42-0.326
					c-1.986-0.173-4.616-0.06-6.811,0.782c-2.217,0.8-3.917,2.34-4.953,3.81c-0.24,0.386-0.493,0.708-0.671,1.041
					c-0.181,0.332-0.338,0.621-0.468,0.859c-0.238,0.497-0.359,0.797-0.359,0.797"/>
			</g>
		</g>
	</g>
</g>
<g>
	<path fill="#666666" d="M103.13,53.678c0-7.666-7.297-14.609-16.301-14.609c-9.002,0-16.302,6.943-16.302,14.609"/>
	<path fill="#333333" d="M70.527,54.506c0,7.666,7.3,13.883,16.302,13.883c9.003,0,16.301-6.217,16.301-13.883"/>
	<rect x="82.405" y="38.197" fill="#FFFFFF" width="8.848" height="19.559"/>
	<g>
		<path fill="#666666" d="M82.405,57.756c-0.133,8.523-11.878,7.053-11.878,7.053V53.307c0,0,8.715-11.545,11.878-11.545
			C82.405,66.936,82.405,43.109,82.405,57.756z"/>
	</g>
	<g>
		<path fill="#666666" d="M91.253,57.756c0.13,8.523,11.877,7.053,11.877,7.053V53.307c0,0-8.718-11.545-11.877-11.545
			C91.253,66.936,91.253,43.109,91.253,57.756z"/>
	</g>
</g>
<path fill="#FF8A33" d="M83.435,39.379l3.299,4.254l3.3-4.254v-5.805c0-1.641-1.477-2.971-3.3-2.971l0,0
	c-1.821,0-3.299,1.33-3.299,2.971V39.379z"/>
<g>
	<path fill="#FF8A33" d="M67.179,20.422c0,10.611,8.602,19.213,19.212,19.213c10.611,0,19.216-8.602,19.216-19.213
		S97.002,1.205,86.391,1.205C75.78,1.205,67.179,9.811,67.179,20.422z"/>
	<path fill="#993333" d="M86.217,4.022l-10.75,0.592C78.185,2.393,82.428,0,87.882,0c11.104,0,19.256,8.229,19.256,19.334
		c0,3.689-0.247,2.303-3.227,6.062l-1.463-0.518c-1.812,0.389-4.921,0.486-4.896-1.57C97.69,10.949,95.103,4.916,87.261,4.022
		H86.217z"/>
	<path fill="#4D3333" d="M85.726,25.395c0,0.518,0.418,0.936,0.933,0.936c0.518,0,0.938-0.418,0.938-0.936
		c0-0.514-0.419-0.934-0.938-0.934C86.144,24.461,85.726,24.881,85.726,25.395z"/>
	<path fill="#4D3333" d="M70.552,25.395c0,0.518,0.419,0.936,0.935,0.936c0.516,0,0.936-0.418,0.936-0.936
		c0-0.514-0.42-0.934-0.936-0.934C70.971,24.461,70.552,24.881,70.552,25.395z"/>
	<path fill="#FF8A33" d="M95.462,23.232c0,2.438,1.977,4.414,4.418,4.414h5.668c2.44,0,4.416-1.977,4.416-4.414l0,0
		c0-2.439-1.976-4.418-4.416-4.418H99.88C97.438,18.815,95.462,20.793,95.462,23.232L95.462,23.232z"/>
	<path fill="#993333" d="M97.445,22.502c0,1.096,0.889,1.98,1.982,1.98l0,0c1.096,0,1.982-0.885,1.982-1.98v-5.166
		c0-1.096-0.886-1.982-1.982-1.982l0,0c-1.094,0-1.982,0.887-1.982,1.982V22.502z"/>
	<path fill="#FF8A33" d="M70.045,1.141"/>
</g>
<g>
	<g>
		<g>
			<path fill="none" stroke="#4D3333" stroke-width="2.539" stroke-miterlimit="10" d="M143.236,74.998
				c1.952,0.131,3.654-2.209,3.783-4.158l0.274-4.121c0.132-1.949-1.348-3.637-3.295-3.768l-1.326-0.086
				c-1.947-0.131-3.633,1.348-3.767,3.295l-0.273,4.121c-0.127,1.949,1.329,4.5,3.279,4.629L143.236,74.998z"/>
			<path fill="#4D3333" d="M130.176,81.062c-0.028,1.146,0.878,2.094,2.021,2.125l21.347,0.52c1.142,0.029,2.092-0.877,2.12-2.02
				l0.312-12.307c0.029-1.141-0.877-2.092-2.023-2.119l-21.344-0.523c-1.145-0.027-2.096,0.877-2.121,2.022L130.176,81.062z"/>
		</g>
	</g>
</g>
<path fill="#993333" d="M89.405,36.252L89.405,36.252c0-3.125-2.525-5.648-5.647-5.648h-6.616c-3.127,0-5.655,2.523-5.655,5.648l0,0
	"/>
<g>
	<rect x="0" y="57.756" fill="#B57666" width="120.701" height="5.227"/>
	<rect x="6.572" y="62.273" fill="#993333" width="106.755" height="13.922"/>
	<rect x="109.289" y="62.273" fill="#993333" width="4.438" height="21.602"/>
	<rect x="6.572" y="62.273" fill="#993333" width="4.438" height="21.602"/>
</g>
<g>
	<g>
		<path fill="#FFFFFF" d="M50.985,48.305H3.863c-0.84,0-1.522-0.68-1.522-1.521V16.85c0-0.84,0.682-1.521,1.522-1.521h47.122
			c0.84,0,1.521,0.682,1.521,1.521v29.934C52.506,47.625,51.825,48.305,50.985,48.305z"/>
		<path fill="#E7ECEC" d="M29.728,32.533h-4.61c-0.696,0-1.279,0.527-1.349,1.221l-4.051,22.975h15.411l-4.052-22.975
			C31.009,33.061,30.425,32.533,29.728,32.533z"/>
		<path fill="#E7ECEC" d="M34.162,55.799c0.508,0,0.92,0.412,0.92,0.92v0.02c0,0.51-0.413,0.92-0.92,0.92H20.686
			c-0.509,0-0.921-0.41-0.921-0.92v-0.02c0-0.508,0.412-0.92,0.921-0.92"/>
		<circle fill="#FFFFFF" cx="27.424" cy="44.357" r="2.413"/>
	</g>
</g>
</svg>
