<?xml version="1.0" encoding="utf-8"?>
<!-- Generator: Adobe Illustrator 17.0.0, SVG Export Plug-In . SVG Version: 6.00 Build 0)  -->
<!DOCTYPE svg PUBLIC "-//W3C//DTD SVG 1.1//EN" "http://www.w3.org/Graphics/SVG/1.1/DTD/svg11.dtd">
<svg version="1.1" id="Слой_1" xmlns="http://www.w3.org/2000/svg" xmlns:xlink="http://www.w3.org/1999/xlink" x="0px" y="0px"
	 width="101.222px" height="75.412px" viewBox="0 0 101.222 75.412" enable-background="new 0 0 101.222 75.412"
	 xml:space="preserve">
<line fill="none" stroke="#0C0000" stroke-width="11" stroke-linecap="round" stroke-miterlimit="10" x1="13.778" y1="50.357" x2="49.484" y2="34.074"/>
<ellipse fill="#993333" cx="10.432" cy="50.357" rx="5.216" ry="4.661"/>
<path fill="none" stroke="#0C0000" stroke-width="9" stroke-miterlimit="10" d="M51.207,75.039c0,0,0-1.527,0-6.348
	c0-7.863,5.877-10.109,5.877-10.109"/>
<path fill="#993333" d="M44.315,75.412L44.315,75.412c0-2.33,1.889-4.219,4.22-4.219h4.962c2.331-0.002,4.219,1.887,4.219,4.219l0,0
	"/>
<path fill="none" stroke="#0C0000" stroke-width="9" stroke-miterlimit="10" d="M70.85,75.039c0,0,0-1.527,0-6.348
	c0-7.863-5.877-10.109-5.877-10.109"/>
<path fill="#993333" d="M77.742,75.412L77.742,75.412c0-2.33-1.889-4.219-4.22-4.219H68.56c-2.331-0.002-4.219,1.887-4.219,4.219
	l0,0"/>
<polygon fill="#0C0000" points="76.423,39.379 66.91,39.379 66.91,29.865 "/>
<polygon fill="#0C0000" points="76.423,44.402 66.91,44.402 66.91,34.891 "/>
<polygon fill="#0C0000" points="76.423,49.428 66.91,49.428 66.91,39.916 "/>
<polygon fill="#0C0000" points="76.423,54.453 66.91,54.453 66.91,44.941 "/>
<polygon fill="#0C0000" points="76.423,58.822 66.91,58.822 66.91,49.309 "/>
<polygon fill="#0C0000" points="44.996,44.275 54.509,44.275 54.509,34.762 "/>
<polygon fill="#0C0000" points="44.996,49.299 54.509,49.299 54.509,39.787 "/>
<polygon fill="#0C0000" points="44.996,54.324 54.509,54.324 54.509,44.812 "/>
<polygon fill="#0C0000" points="44.996,59.35 54.509,59.35 54.509,49.838 "/>
<path fill="#993333" d="M52.262,55.885c0,4.682,3.794,8.475,8.476,8.476l0,0c4.681,0,8.476-3.795,8.477-8.476l-0.001-11.057
	c0-4.682-3.794-8.475-8.476-8.476l0,0c-4.681,0.002-8.476,3.795-8.476,8.476V55.885z"/>
<path fill="none" stroke="#0C0000" stroke-width="11" stroke-linecap="round" stroke-miterlimit="10" d="M95.722,58.801
	c-0.001-14.988-12.15-27.137-27.137-27.137"/>
<circle fill="#993333" cx="94.957" cy="62.215" r="4.662"/>
<circle fill="#993333" cx="38.408" cy="21.957" r="7.842"/>
<circle fill="#0C0000" cx="38.408" cy="21.957" r="5.297"/>
<circle fill="#993333" cx="59.041" cy="22.129" r="17.373"/>
<path fill="#CC6633" d="M72.166,37.619c0,5.582-4.527,10.109-10.11,10.109H46.819c-5.584,0-10.111-4.527-10.111-10.109v-1.531
	c0-5.584,4.527-10.109,10.111-10.109h15.238c5.583,0,10.11,4.525,10.11,10.109L72.166,37.619L72.166,37.619z"/>
<g>
	<path d="M51.341,21.402c0,0.801-0.647,1.449-1.445,1.449c-0.804,0-1.452-0.649-1.452-1.449c0-0.797,0.648-1.445,1.452-1.445
		C50.694,19.957,51.341,20.605,51.341,21.402z"/>
	<path d="M60.431,21.402c0,0.801-0.648,1.449-1.448,1.449c-0.799,0-1.45-0.649-1.45-1.449c0-0.797,0.651-1.445,1.45-1.445
		C59.783,19.957,60.431,20.605,60.431,21.402z"/>
</g>
<rect x="48.424" y="17.957" fill="#0C0000" width="12.286" height="2.703"/>
<rect x="48.343" y="25.732" fill="#0C0000" width="4.654" height="2.553"/>
<rect x="55.777" y="25.732" fill="#0C0000" width="4.654" height="2.553"/>
<circle fill="#993333" cx="80.102" cy="21.959" r="7.842"/>
<circle fill="#0C0000" cx="80.102" cy="21.959" r="5.297"/>
<polygon fill="#0C0000" points="52.679,9.512 62.191,9.512 62.191,0 "/>
<g>
	
		<rect x="12.497" y="33.024" transform="matrix(-0.8971 0.4419 -0.4419 -0.8971 56.2025 84.4563)" fill="#FF3300" width="11.536" height="31.5"/>
	
		<rect x="8.243" y="25.662" transform="matrix(-0.8971 0.4419 -0.4419 -0.8971 30.9062 53.5965)" fill="#231F20" width="1.935" height="9.471"/>
</g>
</svg>
