<?xml version="1.0" encoding="utf-8"?>
<!-- Generator: Adobe Illustrator 17.0.0, SVG Export Plug-In . SVG Version: 6.00 Build 0)  -->
<!DOCTYPE svg PUBLIC "-//W3C//DTD SVG 1.1//EN" "http://www.w3.org/Graphics/SVG/1.1/DTD/svg11.dtd">
<svg version="1.1" id="Слой_1" xmlns="http://www.w3.org/2000/svg" xmlns:xlink="http://www.w3.org/1999/xlink" x="0px" y="0px"
	 width="246.54px" height="514.89px" viewBox="0 0 246.54 514.89" enable-background="new 0 0 246.54 514.89" xml:space="preserve">
<g>
	<line fill="none" stroke="#ADAAAA" stroke-width="2" stroke-miterlimit="10" x1="88.025" y1="271.749" x2="88.025" y2="470.479"/>
	<line fill="none" stroke="#ADAAAA" stroke-width="2" stroke-miterlimit="10" x1="136.62" y1="271.749" x2="136.62" y2="470.479"/>
	
		<line fill="none" stroke="#ADAAAA" stroke-width="2" stroke-miterlimit="10" x1="113.206" y1="312.859" x2="113.206" y2="470.479"/>
	<path fill="#FFFFFF" d="M31.838,150.437c4.221-8.289,12.741-13.959,22.574-13.959c2.876,0,5.639,0.491,8.217,1.387
		c3.018-8.123,10.729-13.913,19.792-13.913c3.035,0,5.917,0.662,8.527,1.828c4.629-6.32,12.044-10.415,20.402-10.415
		c11.45,0,21.129,7.689,24.299,18.254c0.015,0,0.028,0,0.042,0c10.927,0,20.241,6.998,23.826,16.818H31.838z"/>
	<g>
		<g>
			<polygon fill="#FFCC00" points="59.144,243.287 64.969,248.932 53.499,249.112 			"/>
			<g>
				<path fill="#FF6600" d="M117.356,163.768c0.236,15.2-5.33,29.145-14.651,39.717c-10.548,11.959-42.747,42.714-42.747,42.714
					s-34.289-30.268-45.247-42.656C5.757,193.422,0.236,180.175,0.007,165.6c-0.505-32.402,25.353-59.082,57.757-59.587
					C90.169,105.504,116.849,131.363,117.356,163.768z"/>
			</g>
			<line fill="none" stroke="#ADAAAA" stroke-width="2" stroke-miterlimit="10" x1="56.81" y1="244.864" x2="61.699" y2="244.864"/>
		</g>
		<g>
			<polygon fill="#FFCC00" points="59.326,179.227 65.151,184.872 53.682,185.052 			"/>
			<g>
				<path fill="#6BD037" d="M117.538,99.708c0.236,15.201-5.33,29.145-14.651,39.717c-10.548,11.959-42.747,42.714-42.747,42.714
					s-34.289-30.268-45.247-42.655C5.939,129.362,0.418,116.115,0.189,101.54c-0.505-32.402,25.353-59.082,57.757-59.587
					C90.351,41.444,117.031,67.302,117.538,99.708z"/>
			</g>
			<path opacity="0.4" fill="none" stroke="#FFFFFF" stroke-width="11" stroke-linecap="round" stroke-miterlimit="10" d="
				M17.772,107.132c0-23.285,18.877-42.162,42.164-42.162"/>
			
				<line fill="none" stroke="#ADAAAA" stroke-width="2" stroke-miterlimit="10" x1="56.992" y1="180.804" x2="61.881" y2="180.804"/>
		</g>
		<g>
			<polygon fill="#FFCC00" points="188.321,215.22 194.145,220.864 182.676,221.044 			"/>
			<g>
				<path fill="#3B66CC" d="M246.533,135.7c0.236,15.2-5.33,29.145-14.651,39.717c-10.548,11.959-42.747,42.714-42.747,42.714
					s-34.289-30.268-45.247-42.656c-8.954-10.121-14.475-23.368-14.703-37.943c-0.505-32.403,25.353-59.082,57.757-59.586
					C219.346,77.437,246.025,103.296,246.533,135.7z"/>
			</g>
			<path opacity="0.4" fill="none" stroke="#FFFFFF" stroke-width="11" stroke-linecap="round" stroke-miterlimit="10" d="
				M146.767,143.125c0-23.287,18.877-42.163,42.163-42.163"/>
			
				<line fill="none" stroke="#ADAAAA" stroke-width="2" stroke-miterlimit="10" x1="185.987" y1="216.797" x2="190.876" y2="216.797"/>
		</g>
		<g>
			<polygon fill="#FFCC00" points="145.586,175.867 153.047,183.099 138.354,183.329 			"/>
			<g>
				<path fill="#FF0050" d="M220.159,73.997c0.304,19.473-6.827,37.336-18.769,50.88c-13.514,15.321-54.763,54.721-54.763,54.721
					s-43.927-38.776-57.965-54.646c-11.47-12.966-18.542-29.937-18.835-48.608C69.18,34.835,102.306,0.656,143.818,0.009
					C185.331-0.642,219.509,32.484,220.159,73.997z"/>
			</g>
			<path opacity="0.4" fill="none" stroke="#FFFFFF" stroke-width="11" stroke-linecap="round" stroke-miterlimit="10" d="
				M92.352,83.509c0-29.83,24.182-54.013,54.014-54.013"/>
			
				<line fill="none" stroke="#ADAAAA" stroke-width="2" stroke-miterlimit="10" x1="142.595" y1="177.888" x2="148.859" y2="177.888"/>
		</g>
		<g>
			<path fill="#FF80CC" d="M194.549,199.848c0,21.077-8.016,40.282-21.167,54.732c-14.878,16.349-60.175,58.278-60.175,58.278
				s-46.867-42.696-61.787-60.102c-12.191-14.224-19.556-32.705-19.556-52.909c0-44.925,36.419-81.343,81.343-81.343
				S194.549,154.924,194.549,199.848z"/>
		</g>
		<polygon fill="#FF80CC" points="113.205,304.283 124.822,315.9 101.589,315.9 		"/>
		<line fill="none" stroke="#ADAAAA" stroke-width="2" stroke-miterlimit="10" x1="108.729" y1="308.76" x2="118.343" y2="308.76"/>
		<path opacity="0.3" fill="none" stroke="#FFFFFF" stroke-width="11" stroke-linecap="round" stroke-miterlimit="10" d="
			M56.052,168.984c10.834-17.761,30.39-29.617,52.716-29.617"/>
		<g>
			<g>
				<polygon fill="#00B3EC" points="113.901,196.526 125.577,207.842 102.585,208.203 				"/>
				<g>
					<path fill="#00B3EC" d="M165.235,129.267c0.211,13.479-4.725,25.845-12.99,35.219c-9.354,10.605-37.907,37.878-37.907,37.878
						s-30.405-26.84-40.123-37.826c-7.939-8.973-12.835-20.722-13.038-33.646c-0.449-28.732,22.481-52.388,51.216-52.839
						C141.128,77.602,164.786,100.532,165.235,129.267z"/>
				</g>
				
					<line fill="none" stroke="#ADAAAA" stroke-width="2" stroke-miterlimit="10" x1="109.221" y1="199.688" x2="119.022" y2="199.688"/>
			</g>
			<path opacity="0.4" fill="none" stroke="#FFFFFF" stroke-width="11" stroke-linecap="round" stroke-miterlimit="10" d="
				M80.022,134.143c0-17.272,14.003-31.275,31.276-31.275"/>
		</g>
		<g>
			<path fill="none" stroke="#ADAAAA" stroke-width="2" stroke-miterlimit="10" d="M152.011,303.581
				c0,39.29-0.001,171.787-0.001,171.787"/>
			<polygon fill="#FF6600" points="152.225,304.244 162.392,314.098 142.372,314.412 			"/>
			<g>
				<path fill="#FF6600" d="M226.798,202.374c0.303,19.473-6.828,37.337-18.769,50.88c-13.514,15.321-54.763,54.721-54.763,54.721
					s-43.926-38.776-57.965-54.646c-11.47-12.965-18.542-29.937-18.835-48.608c-0.648-41.509,32.479-75.688,73.991-76.335
					C191.971,127.735,226.148,160.861,226.798,202.374z"/>
			</g>
			<path opacity="0.4" fill="none" stroke="#FFFFFF" stroke-width="11" stroke-linecap="round" stroke-miterlimit="10" d="
				M98.992,211.885c0-29.83,24.182-54.013,54.014-54.013"/>
			
				<line fill="none" stroke="#ADAAAA" stroke-width="2" stroke-miterlimit="10" x1="149.234" y1="306.265" x2="155.498" y2="306.265"/>
		</g>
		<g>
			<g>
				<path fill="none" stroke="#ADAAAA" stroke-width="2" stroke-miterlimit="10" d="M73.551,307.077
					c0,39.291-0.001,156.665-0.001,156.665"/>
				<polygon fill="#FFCC00" points="73.765,307.741 81.226,314.972 66.534,315.203 				"/>
				<g>
					<path fill="#FFCC00" d="M106.571,264.759c0.135,8.614-3.02,16.517-8.302,22.507c-5.978,6.778-24.225,24.206-24.225,24.206
						s-19.431-17.152-25.641-24.173c-5.074-5.734-8.202-13.242-8.332-21.502c-0.287-18.361,14.367-33.48,32.73-33.767
						C91.165,231.742,106.284,246.395,106.571,264.759z"/>
				</g>
				
					<line fill="none" stroke="#ADAAAA" stroke-width="2" stroke-miterlimit="10" x1="70.774" y1="309.761" x2="77.038" y2="309.761"/>
			</g>
			<path opacity="0.6" fill="none" stroke="#FFFFFF" stroke-width="11" stroke-linecap="round" stroke-miterlimit="10" d="
				M52.115,267.875c0-11.039,8.948-19.987,19.987-19.987"/>
		</g>
	</g>
	<g>
		<g>
			<rect x="116.231" y="468.487" fill="#813333" width="9.728" height="23.512"/>
			<path d="M126.069,491.999h-9.906v3.341h12.344C128.126,493.43,126.069,491.999,126.069,491.999z"/>
		</g>
		<g>
			<rect x="104.874" y="468.487" fill="#813333" width="9.73" height="23.512"/>
			<path d="M114.713,491.999h-9.906v3.341h12.344C116.768,493.43,114.713,491.999,114.713,491.999z"/>
		</g>
		<g>
			<path fill="#663399" d="M99.512,459.932c0-7.668,7.297-14.61,16.303-14.61c9.002,0,16.302,6.942,16.302,14.61"/>
			<path fill="#813333" d="M132.116,460.759c0,7.667-7.3,13.884-16.302,13.884c-9.003,0-16.303-6.217-16.303-13.884"/>
			<rect x="111.389" y="444.451" fill="#FFFFFF" width="8.849" height="19.557"/>
			<g>
				<path fill="#663399" d="M120.238,464.008c0.132,8.525,11.878,7.054,11.878,7.054v-11.504c0,0-8.718-11.542-11.878-11.542
					C120.238,473.188,120.238,449.362,120.238,464.008z"/>
			</g>
			<g>
				<path fill="#663399" d="M111.389,464.008c-0.13,8.525-11.877,7.054-11.877,7.054v-11.504c0,0,8.716-11.542,11.877-11.542
					C111.389,473.188,111.389,449.362,111.389,464.008z"/>
			</g>
		</g>
		<g>
			<path fill="#FF8A33" d="M119.208,445.633l-3.299,4.252l-3.301-4.252v-5.804c0-1.642,1.477-2.973,3.301-2.973l0,0
				c1.822,0,3.299,1.331,3.299,2.973V445.633z"/>
			<g>
				<circle fill="#FF8A33" cx="116.251" cy="426.675" r="19.214"/>
				<path fill="#4D3333" d="M116.426,410.274l13.194,0.918c-3.621-3.528-8.554-5.71-14.01-5.71c-11.103,0-20.104,9-20.104,20.103
					c0,3.689,0.247,2.305,3.227,6.064l1.461-0.52c1.813,0.392,4.922,0.489,4.898-1.566c-0.139-12.36,2.45-18.393,10.29-19.289
					H116.426z"/>
				<path fill="#4D3333" d="M116.918,426.526c0,0.518-0.42,0.937-0.933,0.937c-0.52,0-0.937-0.419-0.937-0.937
					c0-0.513,0.418-0.932,0.937-0.932C116.498,425.593,116.918,426.012,116.918,426.526z"/>
				<path fill="#4D3333" d="M132.092,426.526c0,0.518-0.419,0.937-0.936,0.937c-0.517,0-0.936-0.419-0.936-0.937
					c0-0.513,0.418-0.932,0.936-0.932C131.672,425.593,132.092,426.012,132.092,426.526z"/>
				<path fill="#FF8A33" d="M107.181,429.484c0,2.44-1.978,4.418-4.418,4.418h-5.667c-2.441,0-4.418-1.978-4.418-4.418l0,0
					c0-2.439,1.977-4.417,4.418-4.417h5.667C105.203,425.067,107.181,427.045,107.181,429.484L107.181,429.484z"/>
				<path fill="#4D3333" d="M129.48,411.152c3.802,4.319-0.286,7.095-4.863,6.512c-3.537-0.448-8.246-2.085-12.109-6.263
					C108.648,407.229,129.48,411.152,129.48,411.152z"/>
				<path fill="#4D3333" d="M105.197,428.756c0,1.097-0.888,1.983-1.98,1.983l0,0c-1.096,0-1.984-0.886-1.984-1.983v-5.166
					c0-1.094,0.888-1.983,1.984-1.983l0,0c1.093,0,1.98,0.89,1.98,1.983V428.756z"/>
				<path fill="#4D3333" d="M137.876,409.269L137.876,409.269c0,4.584-3.717,8.295-8.299,8.295h-2.372
					c-4.583,0-8.298-3.711-8.298-8.295l0,0"/>
				<path fill="#FF8A33" d="M132.599,407.393"/>
			</g>
		</g>
		<g>
			<g>
				<g>
					<g>
						<path fill="#FF8A33" d="M102.249,467.939c0.619,0.291,1.276,0.815,1.865,1.559c0.598,0.691,1.091,1.618,1.1,2.623
							c0.01,0.999-0.534,1.899-1.607,2.489c-1.065,0.522-2.724,0.704-4.438-0.092c-1.719-0.784-2.851-2.39-3.02-3.697
							c-0.118-0.65-0.005-1.243,0.227-1.706c0.23-0.463,0.587-0.798,1.032-1.028c0.912-0.462,1.912-0.448,2.758-0.467
							C101.021,467.633,101.632,467.649,102.249,467.939z"/>
						<path fill="#663399" d="M99.148,474.569c0,0-0.529-0.252-1.409-0.792c-0.859-0.582-2.079-1.561-3.072-3.097
							c-1-1.521-1.662-3.526-1.795-5.575c-0.153-2.059,0.195-4.149,0.883-6.061c1.342-3.863,4.144-6.929,6.644-8.601
							c1.242-0.857,2.386-1.397,3.195-1.73c0.402-0.178,0.724-0.3,0.948-0.366c0.223-0.073,0.341-0.112,0.341-0.112
							c1.565-0.54,3.128-0.327,4.174,0.219c1.061,0.609,1.627,1.509,1.63,2.525c0.003,1.017-0.49,1.97-1.139,2.666
							c-0.321,0.383-0.688,0.699-1.084,0.954c-0.386,0.292-0.821,0.464-1.273,0.637c0.007,0.016-0.296,0.057-0.758,0.28
							c-0.473,0.197-1.143,0.502-1.862,1.005c-1.448,0.957-3.116,2.802-3.867,4.984c-0.389,1.069-0.556,2.179-0.478,3.089
							c0.066,0.918,0.327,1.615,0.63,2.078c0.305,0.466,0.659,0.747,0.934,0.943c0.306,0.175,0.481,0.275,0.481,0.275"/>
					</g>
				</g>
			</g>
		</g>
		<g>
			<g>
				<g>
					<g>
						<path fill="#FF8A33" d="M144.644,440.891c0.28-0.467,0.645-0.846,1.042-1.174c0.386-0.339,0.825-0.599,1.291-0.775
							c0.93-0.35,1.967-0.368,2.866,0.076c0.899,0.444,1.482,1.283,1.677,2.32c0.098,0.517,0.099,1.082-0.001,1.66
							c-0.111,0.575-0.363,1.158-0.699,1.717c-0.645,1.128-1.755,1.877-2.754,2.175c-1.038,0.293-2.092,0.081-2.849-0.56
							c-0.773-0.654-1.149-1.57-1.25-2.534C143.847,442.792,144.104,441.849,144.644,440.891z"/>
						<path fill="#663399" d="M150.867,444.743c0,0-0.211,0.345-0.581,0.95c-0.429,0.589-0.988,1.448-1.77,2.439
							c-0.411,0.488-0.857,1.017-1.328,1.576c-0.535,0.528-1.098,1.085-1.681,1.661c-0.659,0.522-1.304,1.096-2.042,1.597
							c-0.758,0.477-1.499,1.008-2.339,1.382c-1.62,0.873-3.378,1.368-4.988,1.755c-0.804,0.155-1.582,0.277-2.314,0.379
							c-0.721,0.06-1.403,0.117-2.032,0.17c-1.23,0.036-2.257,0.063-2.945,0.03c-0.698-0.016-1.097-0.026-1.097-0.026
							c-2.599-0.121-4.442-1.975-4.252-3.992c0.192-2.036,2.276-3.48,4.541-3.375c0,0,0.342,0.008,0.941,0.021
							c0.609,0.031,1.436,0.003,2.429-0.022c0.479-0.04,0.998-0.083,1.547-0.129c0.53-0.074,1.078-0.167,1.641-0.266
							c1.081-0.276,2.212-0.573,3.202-1.125c2.031-0.989,3.772-2.674,4.94-4.217c0.594-0.748,1.042-1.45,1.382-1.902
							c0.305-0.502,0.479-0.788,0.479-0.788"/>
					</g>
				</g>
			</g>
		</g>
		<path fill="none" stroke="#FFFFFF" stroke-width="3" stroke-linecap="round" stroke-miterlimit="10" d="M118.908,436.052
			c0,0,4.113,3.662,8.995,0"/>
	</g>
	<g>
		<rect x="74.13" y="463.741" fill="#814B39" width="77.651" height="51.149"/>
		<rect x="74.13" y="473.957" fill="#D1772C" width="77.651" height="9.775"/>
		<g>
			<path fill="#FF9900" d="M63.481,492.083c0-2.758,1.048-5.273,2.771-7.166c1.947-2.141,7.878-9.55,7.878-9.55
				s6.136,7.51,8.09,9.789c1.596,1.862,2.56,4.283,2.56,6.927c0,5.883-4.768,10.65-10.649,10.65
				C68.249,502.734,63.481,497.966,63.481,492.083z"/>
		</g>
		<g>
			<path fill="#FF9900" d="M102.306,492.083c0-2.758,1.049-5.273,2.771-7.166c1.949-2.141,7.879-9.55,7.879-9.55
				s6.136,7.51,8.09,9.789c1.596,1.862,2.559,4.283,2.559,6.927c0,5.883-4.768,10.65-10.649,10.65
				C107.074,502.734,102.306,497.966,102.306,492.083z"/>
		</g>
		<g>
			<path fill="#FF9900" d="M141.132,492.083c0-2.758,1.049-5.273,2.771-7.166c1.949-2.141,7.879-9.55,7.879-9.55
				s6.136,7.51,8.09,9.789c1.595,1.862,2.56,4.283,2.56,6.927c0,5.883-4.768,10.65-10.649,10.65
				C145.9,502.734,141.132,497.966,141.132,492.083z"/>
		</g>
	</g>
</g>
</svg>
