<?xml version="1.0" encoding="utf-8"?>
<!-- Generator: Adobe Illustrator 17.0.0, SVG Export Plug-In . SVG Version: 6.00 Build 0)  -->
<!DOCTYPE svg PUBLIC "-//W3C//DTD SVG 1.1//EN" "http://www.w3.org/Graphics/SVG/1.1/DTD/svg11.dtd">
<svg version="1.1" id="Слой_1" xmlns="http://www.w3.org/2000/svg" xmlns:xlink="http://www.w3.org/1999/xlink" x="0px" y="0px"
	 width="3000px" height="2000px" viewBox="0 0 3000 2000" enable-background="new 0 0 3000 2000" xml:space="preserve">
<rect fill="#E7F6FD" width="3000" height="2000"/>
<path fill="#BCE6FB" d="M2317.375,1991.806v-19.016h-9.297v-15.974h-6.192v-15.46h-3.576v15.46h-6.475v15.974h-9.296v19.016h-19.042
	v-12.665h-13.389v12.665h-7.666v-59.24l-16.527-10.21v-4.993c0-1.899-1.542-3.442-3.445-3.442h-0.033h-0.23
	c-1.903,0-3.444,1.542-3.444,3.442v5.302l-15.81,9.901v59.24h-7.223v-22.221h-23.88v22.221h-6.218v-11.798h-16.13v-25.131h-10.151
	c0.011-0.184,0.028-0.366,0.028-0.553c0-4.142-2.856-7.609-6.704-8.563v-4.455c0-1.285-1.042-2.331-2.33-2.331
	s-2.329,1.045-2.329,2.331v4.557c-3.647,1.088-6.308,4.462-6.308,8.461c0,0.187,0.017,0.369,0.028,0.553h-10.332v25.131h-6.626
	v-40.039l-7.828-5.62l-8.184,5.62v40.039h-9.386v-14.64h-14.078v-6.075h-28.159v32.513h-15.202h-16.539v-19.016h-9.296v-15.974
	h-6.192v-15.46h-3.576v15.46h-6.475v15.974h-9.296v6.351h-32.429v12.665h-7.666v-59.24l-16.526-9.104v-6.099
	c0-1.899-1.543-3.442-3.445-3.442h-0.034h-0.23c-1.903,0-3.444,1.542-3.444,3.442v6.433l-15.81,8.77v59.24h-7.222v-22.221h-23.881
	v22.221h-6.217v-11.798h-16.132v-25.131h-10.15c0.011-0.184,0.028-0.366,0.028-0.553c0-4.142-2.856-7.609-6.703-8.563v-4.455
	c0-1.285-1.043-2.331-2.331-2.331c-1.287,0-2.329,1.045-2.329,2.331v4.557c-3.647,1.088-6.307,4.462-6.307,8.461
	c0,0.187,0.017,0.369,0.028,0.553h-10.333v25.131h-6.626v-40.039l-8.202-4.093l-7.81,4.093v40.039h-9.387v-14.64h-14.078v-6.075
	l-14.177-6.823l-13.981,6.823v32.513h-29.213v-16.01l-19.611-9.439l-19.34,9.439v16.01h-33.055v-36.596h-19.472v-8.402
	l-19.613-9.437l-19.338,9.437v25.983h-35.994v20.817h-7.69v-29.831l-23.92-22.588v52.419h-5.331v-13.191h-23.62v-11.262h-8.757
	v-14.326h-3.987v-10.923h-2.546v10.923h-4.31v14.326h-7.849v11.262h-16.219v-40.036l-8.347-5.458l-7.665,5.458v40.036h-7.992
	v-11.574h-20.469v0.452l-16.918-12.299l-24.407,17.25v17.56h-32.594v-19.016h-9.298v-15.974h-16.242v15.974h-9.297v19.016h-11.132
	v-34.99h-21.298v34.99h-6.441v-36.581h-0.019l-16.505-6.611v-8.593c0-1.899-1.544-3.446-3.447-3.446h-0.032h-0.229
	c-1.902,0-3.446,1.547-3.446,3.446v8.871l-15.811,6.332v36.581h-5.291v-19.466h-22.693v19.466h-8.722v-11.798v-5.181v-15.366v-5.736
	c0-1.832-1.485-3.317-3.315-3.317c-1.832,0-3.317,1.485-3.317,3.317v5.736h-7.958c0.016-0.261,0.04-0.52,0.04-0.785
	c0-5.797-3.925-10.662-9.258-12.119v-6.413c0-1.832-1.483-3.318-3.317-3.318c-1.831,0-3.315,1.486-3.315,3.318v6.412
	c-5.333,1.456-9.259,6.322-9.259,12.119c0,0.265,0.023,0.524,0.04,0.785h-7.937v-5.152c0-1.831-1.483-3.317-3.317-3.317
	c-1.83,0-3.316,1.486-3.316,3.317v5.152v15.948v4.598h-6.625v-40.039l-8.079-6.823l-7.933,6.823v40.039h-9.385v-14.64h-16.013
	v26.438h-18.221v-32.513l-14.472-6.823l-13.686,6.823v32.513h-32.534h-13.889h-4.487v-19.016h-9.299v-15.974h-16.242v15.974h-9.297
	v19.016h-19.04v-12.665h-13.391v12.665h-6.44v-36.581h-0.018l-16.507-6.611v-8.592c0-1.899-1.543-3.446-3.447-3.446h-0.033h-0.228
	c-1.902,0-3.445,1.547-3.445,3.446v8.871l-15.811,6.332v36.581h-5.291v-19.466h-22.693v19.466h-8.722v-11.798h-4.453v-5.21v-14.103
	v-5.267c0-1.682-1.362-3.043-3.043-3.043c-1.682,0-3.044,1.361-3.044,3.043v5.267h-7.305c0.015-0.24,0.036-0.478,0.036-0.721
	c0-5.321-3.603-9.788-8.498-11.125v-5.883c0-1.683-1.361-3.045-3.043-3.045s-3.044,1.362-3.044,3.045v5.883
	c-4.895,1.337-8.498,5.805-8.498,11.125c0,0.243,0.022,0.481,0.036,0.721h-7.171v-4.729c0-1.681-1.363-3.044-3.044-3.044
	c-1.68,0-3.044,1.364-3.044,3.044v4.729h-0.115v19.313h-6.625v-40.039H730.69v40.039h-9.386v-14.64h-16.013v26.438H687.07v-32.513
	h-28.159v32.513H515.948v46.392h445.999h13.889h350.328V2040h255.1v-1.802h285.618h155.061h459.243v-46.392H2317.375z"/>
<path fill="#BCE6FB" d="M632.959,1991.806v-19.016h-9.297v-15.974h-6.192v-15.46h-3.576v15.46h-6.475v15.974h-9.296v19.016h-19.042
	v-12.665h-13.389v12.665h-7.666v-59.24l-16.527-10.21v-4.993c0-1.899-1.542-3.442-3.445-3.442h-0.033h-0.23
	c-1.903,0-3.444,1.542-3.444,3.442v5.302l-15.81,9.901v59.24h-7.223v-22.221h-23.88v22.221h-6.218v-11.798h-16.13v-25.131h-10.151
	c0.011-0.184,0.028-0.366,0.028-0.553c0-4.142-2.856-7.609-6.704-8.563v-4.455c0-1.285-1.042-2.331-2.33-2.331
	s-2.329,1.045-2.329,2.331v4.557c-3.647,1.088-6.308,4.462-6.308,8.461c0,0.187,0.017,0.369,0.028,0.553h-10.332v25.131h-6.626
	v-40.039l-7.828-5.62l-8.184,5.62v40.039h-9.386v-14.64h-14.078v-6.075h-28.159v32.513h-15.202h-16.539v-19.016h-9.296v-15.974
	h-6.192v-15.46h-3.576v15.46h-6.475v15.974h-9.296v6.351h-32.429v12.665h-7.666v-59.24l-16.526-9.104v-6.099
	c0-1.899-1.543-3.442-3.445-3.442h-0.034h-0.23c-1.903,0-3.444,1.542-3.444,3.442v6.433l-15.81,8.77v59.24h-7.222v-22.221h-23.881
	v22.221h-6.217v-11.798h-16.132v-25.131h-10.15c0.011-0.184,0.028-0.366,0.028-0.553c0-4.142-2.856-7.609-6.703-8.563v-4.455
	c0-1.285-1.043-2.331-2.331-2.331c-1.287,0-2.329,1.045-2.329,2.331v4.557c-3.647,1.088-6.307,4.462-6.307,8.461
	c0,0.187,0.017,0.369,0.028,0.553h-10.333v25.131h-6.626v-40.039l-8.202-4.093l-7.81,4.093v40.039h-9.387v-14.64H68.915v-6.075
	l-14.177-6.823l-13.981,6.823v32.513H11.544v-16.01l-19.611-9.439l-19.34,9.439v16.01h-33.055v-36.596h-19.472v-8.402l-19.613-9.437
	l-19.338,9.437v25.983h-35.994v20.817h-7.69v-29.831l-23.92-22.588v52.419h-5.331v-13.191h-23.62v-11.262h-8.757v-14.326h-3.987
	v-10.923h-2.546v10.923h-4.31v14.326h-7.849v11.262h-16.219v-40.036l-8.347-5.458l-7.665,5.458v40.036h-7.992v-11.574h-20.469v0.452
	l-16.918-12.299l-24.407,17.25v17.56H-377.5v-19.016h-9.298v-15.974h-16.242v15.974h-9.297v19.016h-11.132v-34.99h-21.298v34.99
	h-6.441v-36.581h-0.019l-16.505-6.611v-8.593c0-1.899-1.544-3.446-3.447-3.446h-0.032h-0.229c-1.902,0-3.446,1.547-3.446,3.446
	v8.871l-15.811,6.332v36.581h-5.291v-19.466h-22.693v19.466h-8.722v-11.798v-5.181v-15.366v-5.736c0-1.832-1.485-3.317-3.315-3.317
	c-1.832,0-3.317,1.485-3.317,3.317v5.736h-7.958c0.016-0.261,0.04-0.52,0.04-0.785c0-5.797-3.925-10.662-9.258-12.119v-6.413
	c0-1.832-1.483-3.318-3.317-3.318c-1.831,0-3.315,1.486-3.315,3.318v6.412c-5.333,1.456-9.259,6.322-9.259,12.119
	c0,0.265,0.023,0.524,0.04,0.785h-7.937v-5.152c0-1.831-1.483-3.317-3.317-3.317c-1.83,0-3.316,1.486-3.316,3.317v5.152v15.948
	v4.598h-6.625v-40.039l-8.079-6.823l-7.933,6.823v40.039h-9.385v-14.64h-16.013v26.438h-18.221v-32.513l-14.472-6.823l-13.686,6.823
	v32.513h-32.534h-13.889h-4.487v-19.016h-9.299v-15.974h-16.242v15.974h-9.297v19.016h-19.04v-12.665h-13.391v12.665h-6.44v-36.581
	h-0.018l-16.507-6.611v-8.592c0-1.899-1.543-3.446-3.447-3.446h-0.033h-0.228c-1.902,0-3.445,1.547-3.445,3.446v8.871l-15.811,6.332
	v36.581h-5.291v-19.466h-22.693v19.466h-8.722v-11.798h-4.453v-5.21v-14.103v-5.267c0-1.682-1.362-3.043-3.043-3.043
	c-1.682,0-3.044,1.361-3.044,3.043v5.267h-7.305c0.015-0.24,0.036-0.478,0.036-0.721c0-5.321-3.603-9.788-8.498-11.125v-5.883
	c0-1.683-1.361-3.045-3.043-3.045s-3.044,1.362-3.044,3.045v5.883c-4.895,1.337-8.498,5.805-8.498,11.125
	c0,0.243,0.022,0.481,0.036,0.721h-7.171v-4.729c0-1.681-1.363-3.044-3.044-3.044c-1.68,0-3.044,1.364-3.044,3.044v4.729h-0.115
	v19.313h-6.625v-40.039h-16.011v40.039h-9.386v-14.64h-16.013v26.438h-18.221v-32.513h-28.159v32.513h-142.963v46.392h445.999
	h13.889h350.328V2040h255.1v-1.802h285.618h155.061H796.77v-46.392H632.959z"/>
<path fill="#BCE6FB" d="M3997.068,1991.806v-19.016h-9.297v-15.974h-6.192v-15.46h-3.576v15.46h-6.475v15.974h-9.296v19.016h-19.042
	v-12.665h-13.389v12.665h-7.666v-59.24l-16.527-10.21v-4.993c0-1.899-1.542-3.442-3.445-3.442h-0.033h-0.23
	c-1.903,0-3.444,1.542-3.444,3.442v5.302l-15.81,9.901v59.24h-7.223v-22.221h-23.88v22.221h-6.218v-11.798h-16.13v-25.131h-10.151
	c0.011-0.184,0.028-0.366,0.028-0.553c0-4.142-2.856-7.609-6.704-8.563v-4.455c0-1.285-1.042-2.331-2.33-2.331
	s-2.329,1.045-2.329,2.331v4.557c-3.647,1.088-6.308,4.462-6.308,8.461c0,0.187,0.017,0.369,0.028,0.553h-10.332v25.131h-6.626
	v-40.039l-7.828-5.62l-8.184,5.62v40.039h-9.386v-14.64h-14.078v-6.075h-28.159v32.513h-15.202h-16.539v-19.016h-9.296v-15.974
	h-6.192v-15.46h-3.576v15.46h-6.475v15.974h-9.296v6.351h-32.429v12.665h-7.666v-59.24l-16.526-9.104v-6.099
	c0-1.899-1.543-3.442-3.445-3.442h-0.034h-0.23c-1.903,0-3.444,1.542-3.444,3.442v6.433l-15.81,8.77v59.24h-7.222v-22.221h-23.881
	v22.221h-6.217v-11.798h-16.132v-25.131h-10.15c0.011-0.184,0.028-0.366,0.028-0.553c0-4.142-2.856-7.609-6.703-8.563v-4.455
	c0-1.285-1.043-2.331-2.331-2.331c-1.287,0-2.329,1.045-2.329,2.331v4.557c-3.647,1.088-6.307,4.462-6.307,8.461
	c0,0.187,0.017,0.369,0.028,0.553h-10.333v25.131h-6.626v-40.039l-8.202-4.093l-7.81,4.093v40.039h-9.387v-14.64h-14.078v-6.075
	l-14.177-6.823l-13.981,6.823v32.513h-29.213v-16.01l-19.611-9.439l-19.34,9.439v16.01h-33.055v-36.596h-19.472v-8.402
	l-19.613-9.437l-19.338,9.437v25.983h-35.994v20.817h-7.69v-29.831l-23.92-22.588v52.419h-5.331v-13.191h-23.62v-11.262h-8.757
	v-14.326h-3.987v-10.923h-2.546v10.923h-4.31v14.326h-7.849v11.262h-16.219v-40.036l-8.347-5.458l-7.665,5.458v40.036h-7.992
	v-11.574h-20.469v0.452l-16.918-12.299l-24.407,17.25v17.56h-32.594v-19.016h-9.298v-15.974h-16.242v15.974h-9.297v19.016h-11.132
	v-34.99h-21.298v34.99h-6.441v-36.581h-0.019l-16.505-6.611v-8.593c0-1.899-1.544-3.446-3.447-3.446h-0.032h-0.229
	c-1.902,0-3.446,1.547-3.446,3.446v8.871l-15.811,6.332v36.581h-5.291v-19.466h-22.693v19.466h-8.722v-11.798v-5.181v-15.366v-5.736
	c0-1.832-1.485-3.317-3.315-3.317c-1.832,0-3.317,1.485-3.317,3.317v5.736h-7.958c0.016-0.261,0.04-0.52,0.04-0.785
	c0-5.797-3.925-10.662-9.258-12.119v-6.413c0-1.832-1.483-3.318-3.317-3.318c-1.831,0-3.315,1.486-3.315,3.318v6.412
	c-5.333,1.456-9.259,6.322-9.259,12.119c0,0.265,0.023,0.524,0.04,0.785h-7.937v-5.152c0-1.831-1.483-3.317-3.317-3.317
	c-1.83,0-3.316,1.486-3.316,3.317v5.152v15.948v4.598h-6.625v-40.039l-8.079-6.823l-7.933,6.823v40.039h-9.385v-14.64h-16.013
	v26.438h-18.221v-32.513l-14.472-6.823l-13.686,6.823v32.513h-32.534h-13.889h-4.487v-19.016h-9.299v-15.974h-16.242v15.974h-9.297
	v19.016h-19.04v-12.665h-13.391v12.665h-6.44v-36.581h-0.018l-16.507-6.611v-8.592c0-1.899-1.543-3.446-3.447-3.446h-0.033h-0.228
	c-1.902,0-3.445,1.547-3.445,3.446v8.871l-15.811,6.332v36.581h-5.291v-19.466h-22.693v19.466h-8.722v-11.798h-4.453v-5.21v-14.103
	v-5.267c0-1.682-1.362-3.043-3.043-3.043c-1.682,0-3.044,1.361-3.044,3.043v5.267h-7.305c0.015-0.24,0.036-0.478,0.036-0.721
	c0-5.321-3.603-9.788-8.498-11.125v-5.883c0-1.683-1.361-3.045-3.043-3.045s-3.044,1.362-3.044,3.045v5.883
	c-4.895,1.337-8.498,5.805-8.498,11.125c0,0.243,0.022,0.481,0.036,0.721h-7.171v-4.729c0-1.681-1.363-3.044-3.044-3.044
	c-1.68,0-3.044,1.364-3.044,3.044v4.729h-0.115v19.313h-6.625v-40.039h-16.011v40.039h-9.386v-14.64h-16.013v26.438h-18.221v-32.513
	h-28.159v32.513h-142.963v46.392h445.999h13.889h350.328V2040h255.1v-1.802h285.618h155.061h459.243v-46.392H3997.068z"/>
<g>
	<g>
		<path fill="#0D4B9F" d="M1598.931,1629.616v-20.496h5.896v7.594h6.497v-7.594h5.896v20.496h-5.896v-9.149h-6.497v9.149H1598.931z"
			/>
		<path fill="#0D4B9F" d="M1578.71,1623.76c0-2.805,1.479-4.889,4.286-5.971c1.269-0.494,2.403-0.802,3.405-0.938
			c1.004-0.162,2.31-0.336,3.896-0.547v-0.69c0.118-2.973-1.605-3.48-3.663-3.521c-1.957,0-3.934,0.647-5.657,1.562l-0.385-3.698
			c2.377-0.877,4.848-1.309,7.376-1.309c1.585,0,2.957,0.174,4.077,0.528c2.264,0.7,3.479,2.43,3.732,4.519
			c0.062,0.454,0.083,1.161,0.083,2.078v12.806C1590.677,1630.54,1578.71,1631.877,1578.71,1623.76z M1590.335,1626.388v-7.283
			c-2.484,0.342-6.186,0.756-6.186,4.326C1584.149,1627.832,1588.849,1626.96,1590.335,1626.388z"/>
		<path fill="#0D4B9F" d="M1577.019,1614.755c-0.37-1.624-1.313-3.032-2.587-4.226c-2.05-1.957-9.167-3.521-12.611,1.62
			c-0.005-5.421,2.265-8.117,6.873-8.857c4.609-0.744,7.18-1.207,7.18-1.207l-0.475-4.413c0,0-4.696,0.669-8.611,1.565
			c-4.177,0.963-8.223,4.018-9.234,10.203c-0.643,3.968-0.562,10.928,0.619,14.131c1.375,3.725,4.155,6.537,9.24,6.537
			c6.984,0,10.177-4.292,10.177-10.966C1577.59,1617.83,1577.395,1616.38,1577.019,1614.755z M1569.854,1625.685
			c-0.566,0.781-1.364,1.17-2.403,1.17c-3.369,0-4.214-5.56-4.214-8.107c0-2.06,0.436-4.246,1.623-5.676
			c0.61-0.725,1.431-1.101,2.473-1.101c1.334,0,2.521,0.827,3.171,2.531c0.684,1.705,0.877,3.523,0.877,5.168
			C1571.38,1621.807,1571.036,1624.093,1569.854,1625.685z"/>
		<path fill="#0D4B9F" d="M1620.61,1629.616v-20.496h5.858v9.395l6.613-9.395h5.739l-6.695,9.143l7.338,11.353h-6.537l-6.458-10.222
			v10.222H1620.61z"/>
		<path fill="#0D4B9F" d="M1527.01,1630.064c-1.866,0-3.838-0.149-5.621-0.84l0.49-3.584c1.408,0.842,2.702,1.216,4.325,1.216
			c2.936,0.037,4.584-1.372,4.484-3.25c0-0.961-0.292-1.686-0.902-2.152c-0.588-0.492-1.272-0.766-2.052-0.824
			c-0.784-0.082-1.452-0.122-1.999-0.122h-1.453v-3.091h0.395c2.196,0,5.619-0.074,5.619-2.88c0.063-2.189-2.229-2.718-3.405-2.681
			c-1.859,0-3.349,0.436-4.972,1.313l-0.351-3.446c2.087-0.802,4.341-1.12,6.596-1.12c4.758-0.093,7.719,2.022,7.595,5.25
			c0.062,2.662-2.171,4.192-3.779,4.699c1.058,0.177,1.938,0.492,2.647,0.961c1.409,0.921,1.978,2.507,1.978,3.931
			c0,2.647-1.438,4.488-3.486,5.449C1531.081,1629.832,1528.808,1630.064,1527.01,1630.064z"/>
		<path fill="#0D4B9F" d="M1474.13,1630.064c-6.737,0-10.531-4.151-10.531-10.825c0-6.659,4.029-10.636,10.668-10.636
			c1.78,0,3.135,0.236,4.835,0.806l-0.705,3.722c-1.077-0.532-2.016-0.879-3.212-0.879c-3.974,0-5.656,3.287-5.656,6.854
			c0,3.576,1.642,7.221,5.695,7.221c1.196,0,2.234-0.273,3.329-0.802l0.392,3.778
			C1477.303,1629.832,1475.872,1630.064,1474.13,1630.064z"/>
		<path fill="#0D4B9F" d="M1544.938,1626.338c0,0,5.327,1.067,5.327-3.987c0-0.92-0.159-1.623-0.47-2.118
			c-0.628-1.017-1.978-1.21-3.408-1.21h-0.544h-0.299c-0.056,0-0.251,0.019-0.606,0.041L1544.938,1626.338L1544.938,1626.338z
			 M1539.125,1629.616v-20.496h5.812v6.452c1.253-0.052,2.034-0.071,2.369-0.071c2.721,0,4.703,0.469,5.937,1.406
			c1.484,1.103,2.451,3.053,2.401,5.171c-0.149,6.729-6.981,7.986-10.613,7.986
			C1541.175,1630.064,1539.125,1629.616,1539.125,1629.616z"/>
		<path fill="#0D4B9F" d="M1495.176,1618.713c2.446-0.768,3.679-2.333,3.679-4.706c0-1.02-0.246-1.856-0.68-2.528
			c-0.5-0.818-1.261-1.453-2.221-1.813c-1.903-0.867-4.454-1.063-6.726-1.063c-4.306,0-7.092,0.517-7.092,0.517v20.496
			c0,0,2.921,0.448,7.092,0.448c4.115,0,10.387-1.051,10.545-6.257c0.004-0.065,0.005-0.137,0.005-0.202
			C1499.875,1621.328,1498.468,1619.162,1495.176,1618.713z M1489.364,1620.822c0.531,0,1.135,0.022,1.858,0.062
			c0.727,0.037,1.328,0.273,1.858,0.706c0.527,0.411,0.805,1.091,0.805,2.049c0,2.24-1.963,3.088-4.562,3.088
			c-0.68,0-1.446-0.087-1.446-0.087v-5.818H1489.364z M1487.877,1617.634v-5.626c0,0,0.577-0.062,2.078-0.062
			c2.785,0,3.363,1.639,3.363,2.671c0,2.037-1.253,3.016-4.073,3.016L1487.877,1617.634L1487.877,1617.634z"/>
		<path fill="#0D4B9F" d="M1511.296,1608.603c-4.308,0-9.717,0.712-9.717,6.251c0,2.898,1.432,4.736,4.293,5.501l-5.464,9.26h6.07
			l4.403-8.185h1.72v8.185h5.781v-20.496C1518.383,1609.12,1515.6,1608.603,1511.296,1608.603z M1512.602,1617.985h-1.445
			c-2.815,0-3.993-0.932-3.993-3.219c0-2.388,1.819-2.948,3.299-2.948c1.431,0,2.14,0.14,2.14,0.14L1512.602,1617.985
			L1512.602,1617.985z"/>
		<path fill="#0D4B9F" d="M1368.786,1629.616v-28.311h21.613v28.311h-6.285v-24.337h-9.024v24.337H1368.786z"/>
		<path fill="#0D4B9F" d="M1393.854,1637.92v-28.277c5.139-1.039,19.089-3.965,19.089,8.539c0,3.309-0.899,6.186-2.601,8.145
			c-3.317,3.987-8.76,3.555-10.556,2.833v8.76H1393.854z M1407.132,1618.673c0-7.722-5.404-7.06-7.345-6.578v13.419
			C1400.568,1625.651,1407.132,1628.167,1407.132,1618.673z"/>
		<path fill="#0D4B9F" d="M1424.714,1630.064c-6.735,0-9.691-4.307-9.691-10.707c0-6.661,3.525-10.754,10.34-10.754
			c2.409,0,4.365,0.551,5.853,1.645c1.469,1.076,2.449,2.448,2.92,4.115c0.47,1.645,0.703,3.252,0.703,4.839
			C1434.838,1626.13,1431.919,1630.064,1424.714,1630.064L1424.714,1630.064z M1425.168,1626.814c1.724,0,2.876-1.368,3.343-3.19
			c0.471-1.86,0.514-3.157,0.514-4.56c0-1.962-0.217-3.429-0.788-4.938c-0.565-1.546-1.834-2.308-3.069-2.308
			c-1.706,0-2.899,1.234-3.449,2.898c-0.571,1.643-0.647,3.269-0.647,4.348C1421.072,1621.627,1421.642,1626.814,1425.168,1626.814
			L1425.168,1626.814z"/>
		<polygon fill="#0D4B9F" points="1436.094,1629.616 1438.229,1609.12 1445.044,1609.12 1449.255,1623.073 1453.5,1609.12 
			1460.274,1609.12 1462.234,1629.616 1456.793,1629.616 1455.655,1614.854 1451.169,1629.616 1446.476,1629.616 1441.95,1614.776 
			1440.836,1629.616 		"/>
	</g>
	<path fill="#0D4B9F" d="M1549.235,1518.431c0-12.125-9.826-21.952-21.952-21.952h-31.012c-10.006,0-18.541,6.744-21.132,16.067
		h37.488c14.42,0,20.54,6.708,20.54,22.451v35.576c9.305-2.588,16.067-11.154,16.067-21.121L1549.235,1518.431L1549.235,1518.431z"
		/>
	<path fill="#F16522" d="M1459.011,1564.688c0,12.13,9.831,21.951,21.954,21.951h31.012c10.012,0,18.544-6.739,21.131-16.066
		h-37.486c-14.421,0-20.543-6.706-20.543-22.451v-35.576c-9.301,2.59-16.068,11.158-16.068,21.126V1564.688z"/>
	<g>
		<path fill="#0D4B9F" d="M1521.827,1531.15v-0.095c1.737-0.549,4.057-1.999,4.057-5.804c0-4.283-3.479-6.248-8.377-6.248h-8.312
			v10.248h-4.896c-6.574,0-7.928,4.612-7.928,7.123c0,3.573,2.065,5.158,5.869,7.054c2.318,1.156,5.086,1.867,5.086,4.514
			c0,1.39-1.288,3.066-4.057,3.066h-5.155c0.772-1.326,1.093-2.775,1.093-4.034c0-1.641-0.58-8.218-9.732-8.218H1482v25.358h5.089
			v-11.051l2.062,2.065h13.926c6.499,0,9.597-3.35,9.597-7.346c0-1.417-0.257-2.555-0.708-3.479h5.218
			c8.056,0,9.929-3.997,9.929-7.126C1527.113,1533.99,1525.048,1531.633,1521.827,1531.15z M1489.474,1551.006h-2.385v-8.291h2.385
			c2.965,0,4.318,1.802,4.318,3.995C1493.792,1548.749,1492.569,1551.006,1489.474,1551.006z M1509.194,1535.279v6.149
			c-1.229-0.737-2.64-1.318-4.12-1.962c-1.613-0.711-3.351-1.614-3.351-3.648c0-1.033,0.644-2.57,3.739-2.57h2.056h1.676h1.996
			L1509.194,1535.279z M1514.284,1522.969h2.32c3.931,0,4.127,2.412,4.127,3.152c0,1.095-0.582,3.129-3.934,3.129h-2.514v-6.281
			H1514.284z M1517.184,1540.305h-2.899v-7.057h2.899c3.548,0,4.515,1.708,4.515,3.514
			C1521.699,1538.565,1520.407,1540.305,1517.184,1540.305z"/>
	</g>
</g>
<path fill="#FFFFFF" d="M1170.02,1541.055c5.308-10.423,16.022-17.554,28.387-17.554c3.617,0,7.091,0.618,10.333,1.745
	c3.795-10.216,13.493-17.496,24.888-17.496c3.817,0,7.44,0.833,10.724,2.298c5.821-7.946,15.145-13.097,25.656-13.097
	c14.399,0,26.57,9.669,30.556,22.954c0.019,0,0.035,0,0.053,0c13.742,0,25.454,8.799,29.961,21.149L1170.02,1541.055
	L1170.02,1541.055z"/>
<path fill="#FFFFFF" d="M1958.124,1541.055c5.308-10.423,16.022-17.554,28.387-17.554c3.617,0,7.091,0.618,10.333,1.745
	c3.795-10.216,13.493-17.496,24.888-17.496c3.817,0,7.44,0.833,10.724,2.298c5.821-7.946,15.145-13.097,25.656-13.097
	c14.399,0,26.57,9.669,30.556,22.954c0.019,0,0.035,0,0.053,0c13.742,0,25.454,8.799,29.961,21.149L1958.124,1541.055
	L1958.124,1541.055z"/>
<path fill="#FFFFFF" d="M1306.918,1541.055c2.871-5.637,8.665-9.493,15.352-9.493c1.956,0,3.835,0.334,5.588,0.944
	c2.052-5.524,7.296-9.462,13.459-9.462c2.064,0,4.024,0.451,5.799,1.243c3.148-4.297,8.19-7.083,13.875-7.083
	c7.787,0,14.368,5.229,16.524,12.413c0.01,0,0.019,0,0.028,0c7.431,0,13.765,4.759,16.203,11.438L1306.918,1541.055
	L1306.918,1541.055z"/>
<path fill="#FFFFFF" d="M2067.962,1541.055c4.221-8.289,12.741-13.959,22.574-13.959c2.876,0,5.639,0.491,8.217,1.388
	c3.018-8.124,10.729-13.913,19.792-13.913c3.035,0,5.917,0.662,8.527,1.827c4.629-6.319,12.044-10.415,20.402-10.415
	c11.45,0,21.128,7.689,24.299,18.254c0.015,0,0.028,0,0.042,0c10.927,0,20.241,6.997,23.826,16.818H2067.962z"/>
<path fill="#FFFFFF" d="M833.047,1541.055c4.221-8.289,12.741-13.959,22.574-13.959c2.877,0,5.639,0.491,8.217,1.388
	c3.018-8.124,10.729-13.913,19.792-13.913c3.035,0,5.917,0.662,8.527,1.827c4.629-6.319,12.044-10.415,20.402-10.415
	c11.45,0,21.128,7.689,24.299,18.254c0.015,0,0.028,0,0.042,0c10.927,0,20.241,6.997,23.826,16.818H833.047z"/>
<path fill="#FFFFFF" d="M1780.507,1541.055c4.221-8.289,12.741-13.959,22.574-13.959c2.876,0,5.639,0.491,8.217,1.388
	c3.018-8.124,10.729-13.913,19.792-13.913c3.035,0,5.917,0.662,8.527,1.827c4.629-6.319,12.044-10.415,20.402-10.415
	c11.45,0,21.128,7.689,24.299,18.254c0.015,0,0.028,0,0.042,0c10.927,0,20.241,6.997,23.826,16.818H1780.507z"/>
<g>
	<g>
		<g>
			<path fill="#0D4B9F" d="M1516.66,1875.191h-23.123c-0.793,0-1.433,0.642-1.433,1.434v23.121c0,0.792,0.638,1.434,1.432,1.434
				h12.448v-10.062h-3.388v-3.925h3.388v-2.893c0-3.355,2.051-5.184,5.045-5.184c1.433,0,2.667,0.108,3.024,0.157v3.507h-2.075
				c-1.631,0-1.945,0.773-1.945,1.911v2.502h3.883l-0.503,3.925h-3.38v10.062h6.624c0.793,0,1.434-0.641,1.434-1.434v-23.121
				C1518.09,1875.833,1517.45,1875.191,1516.66,1875.191z"/>
		</g>
		<g>
			<g>
				<path fill="#0D4B9F" d="M1432.553,1886.408c0.277-0.012,0.559-0.088,0.856-0.223c0.321-0.153,0.544-0.361,0.662-0.625
					c0.122-0.263,0.186-0.574,0.186-0.924c0-0.26-0.067-0.523-0.201-0.801c-0.132-0.27-0.336-0.468-0.614-0.59
					c-0.268-0.115-0.581-0.178-0.947-0.186c-0.359-0.014-0.9-0.019-1.616-0.019h-0.281v3.392h0.507
					C1431.792,1886.432,1432.277,1886.424,1432.553,1886.408z M1440.404,1874.325h-16.817c-3.011,0-5.454,2.438-5.454,5.452v16.818
					c0,3.011,2.443,5.454,5.454,5.454h16.817c3.012,0,5.449-2.443,5.449-5.454v-16.818
					C1445.857,1876.763,1443.416,1874.325,1440.404,1874.325z M1438.961,1893.319c-0.301,0.606-0.707,1.102-1.215,1.496
					c-0.604,0.475-1.269,0.812-1.989,1.013c-0.722,0.199-1.638,0.298-2.748,0.298h-6.416v-16.027h5.664
					c1.176,0,2.069,0.047,2.675,0.136c0.604,0.088,1.174,0.278,1.704,0.565c0.576,0.307,1.003,0.723,1.288,1.239
					c0.281,0.513,0.423,1.11,0.423,1.788c0,0.78-0.192,1.478-0.586,2.089c-0.391,0.607-0.929,1.058-1.621,1.342v0.086
					c0.991,0.212,1.784,0.633,2.381,1.276c0.595,0.644,0.894,1.509,0.894,2.599
					C1439.415,1892.016,1439.263,1892.717,1438.961,1893.319z M1434.063,1889.351c-0.243-0.094-0.578-0.148-1.006-0.16
					c-0.429-0.009-0.999-0.014-1.716-0.014h-0.744v4.014h0.213c1.049,0,1.774-0.007,2.179-0.021
					c0.401-0.015,0.808-0.111,1.226-0.289c0.366-0.161,0.633-0.391,0.801-0.699c0.17-0.301,0.255-0.647,0.255-1.037
					c0-0.498-0.102-0.881-0.3-1.163C1434.767,1889.705,1434.466,1889.491,1434.063,1889.351z"/>
			</g>
		</g>
		<g>
			<path fill="#0D4B9F" d="M1592.982,1879.48c-1.088,0.479-2.256,0.811-3.484,0.956c1.252-0.751,2.214-1.938,2.666-3.357
				c-1.172,0.698-2.472,1.2-3.849,1.471c-1.106-1.178-2.687-1.913-4.427-1.913c-3.354,0-6.065,2.715-6.065,6.062
				c0,0.474,0.051,0.94,0.156,1.381c-5.045-0.251-9.513-2.664-12.504-6.335c-0.519,0.895-0.819,1.939-0.819,3.051
				c0,2.103,1.071,3.961,2.697,5.047c-0.993-0.031-1.93-0.308-2.746-0.762c0,0.029,0,0.054,0,0.08c0,2.935,2.091,5.387,4.866,5.949
				c-0.512,0.133-1.048,0.21-1.601,0.21c-0.39,0-0.769-0.04-1.143-0.11c0.774,2.411,3.013,4.164,5.668,4.214
				c-2.077,1.626-4.692,2.595-7.533,2.595c-0.489,0-0.973-0.029-1.445-0.083c2.682,1.72,5.87,2.728,9.294,2.728
				c11.158,0,17.257-9.248,17.257-17.259c0-0.263-0.005-0.527-0.018-0.788C1591.14,1881.765,1592.167,1880.695,1592.982,1879.48z"/>
		</g>
	</g>
</g>
</svg>
