<?xml version="1.0" encoding="utf-8"?>
<!-- Generator: Adobe Illustrator 17.0.0, SVG Export Plug-In . SVG Version: 6.00 Build 0)  -->
<!DOCTYPE svg PUBLIC "-//W3C//DTD SVG 1.1//EN" "http://www.w3.org/Graphics/SVG/1.1/DTD/svg11.dtd">
<svg version="1.1" id="Слой_1" xmlns="http://www.w3.org/2000/svg" xmlns:xlink="http://www.w3.org/1999/xlink" x="0px" y="0px"
	 width="3000px" height="2000px" viewBox="0 0 3000 2000" enable-background="new 0 0 3000 2000" xml:space="preserve">
<rect x="0" y="0" width="3000" height="2000"/>
<rect x="0" y="1924.754" fill="#FF9900" width="3000" height="56.139"/>
<rect x="0" y="1853.805" fill="#FF6600" width="3000" height="72.574"/>
<rect x="0" y="1970.512" fill="#FFDB00" width="3000" height="35.647"/>
<g>
	<g>
		<path fill="#FFFFFF" d="M1608.771,1611.932v-23.236h6.685v8.609h7.365v-8.609h6.684v23.236h-6.684v-10.372h-7.365v10.372H1608.771
			z"/>
		<path fill="#FFFFFF" d="M1585.848,1605.294c0-3.179,1.678-5.542,4.858-6.77c1.438-0.56,2.725-0.909,3.861-1.064
			c1.139-0.183,2.618-0.38,4.416-0.62v-0.783c0.134-3.371-1.819-3.945-4.152-3.991c-2.218,0-4.46,0.734-6.412,1.77l-0.437-4.192
			c2.694-0.995,5.496-1.485,8.361-1.485c1.798,0,3.353,0.198,4.621,0.6c2.566,0.793,3.945,2.754,4.231,5.123
			c0.069,0.515,0.094,1.315,0.094,2.355v14.519C1599.415,1612.979,1585.848,1614.496,1585.848,1605.294z M1599.026,1608.273v-8.257
			c-2.815,0.388-7.012,0.857-7.012,4.904C1592.014,1609.909,1597.341,1608.922,1599.026,1608.273z"/>
		<path fill="#FFFFFF" d="M1583.931,1595.085c-0.42-1.842-1.489-3.437-2.934-4.791c-2.324-2.218-10.393-3.991-14.296,1.836
			c-0.007-6.146,2.567-9.202,7.792-10.041c5.225-0.844,8.139-1.369,8.139-1.369l-0.538-5.002c0,0-5.324,0.757-9.763,1.774
			c-4.734,1.092-9.321,4.554-10.468,11.566c-0.729,4.498-0.638,12.389,0.702,16.02c1.559,4.224,4.71,7.412,10.476,7.412
			c7.917,0,11.538-4.867,11.538-12.432C1584.58,1598.571,1584.356,1596.928,1583.931,1595.085z M1575.808,1607.477
			c-0.643,0.884-1.547,1.326-2.725,1.326c-3.819,0-4.777-6.304-4.777-9.191c0-2.334,0.493-4.813,1.84-6.435
			c0.691-0.822,1.622-1.248,2.804-1.248c1.512,0,2.858,0.938,3.595,2.87c0.775,1.932,0.994,3.995,0.994,5.859
			C1577.539,1603.08,1577.148,1605.672,1575.808,1607.477z"/>
		<path fill="#FFFFFF" d="M1633.347,1611.932v-23.236h6.643v10.651l7.497-10.651h6.507l-7.592,10.365l8.32,12.871h-7.411
			l-7.321-11.588v11.588H1633.347z"/>
		<path fill="#FFFFFF" d="M1527.238,1612.44c-2.116,0-4.352-0.169-6.372-0.952l0.555-4.064c1.597,0.955,3.063,1.378,4.903,1.378
			c3.328,0.042,5.197-1.555,5.084-3.684c0-1.09-0.331-1.913-1.022-2.44c-0.667-0.558-1.442-0.868-2.327-0.935
			c-0.888-0.092-1.646-0.138-2.266-0.138h-1.646v-3.504h0.447c2.489,0,6.37-0.084,6.37-3.265c0.07-2.482-2.527-3.081-3.86-3.039
			c-2.108,0-3.797,0.494-5.638,1.488l-0.397-3.906c2.365-0.909,4.921-1.27,7.478-1.27c5.394-0.106,8.751,2.292,8.609,5.951
			c0.07,3.019-2.462,4.753-4.284,5.328c1.199,0.201,2.198,0.557,3.001,1.088c1.598,1.044,2.242,2.843,2.242,4.457
			c0,3.001-1.63,5.088-3.952,6.177C1531.853,1612.176,1529.276,1612.44,1527.238,1612.44z"/>
		<path fill="#FFFFFF" d="M1467.29,1612.44c-7.637,0-11.938-4.706-11.938-12.271c0-7.549,4.566-12.058,12.095-12.058
			c2.019,0,3.554,0.268,5.481,0.913l-0.8,4.219c-1.22-0.602-2.284-0.997-3.641-0.997c-4.505,0-6.413,3.727-6.413,7.77
			c0,4.055,1.861,8.187,6.457,8.187c1.356,0,2.534-0.311,3.774-0.909l0.444,4.282
			C1470.886,1612.176,1469.264,1612.44,1467.29,1612.44z"/>
		<path fill="#FFFFFF" d="M1547.562,1608.217c0,0,6.039,1.209,6.039-4.521c0-1.043-0.18-1.84-0.533-2.401
			c-0.711-1.152-2.24-1.371-3.863-1.371h-0.617h-0.338c-0.064,0-0.285,0.021-0.688,0.046V1608.217z M1540.972,1611.932v-23.236h6.59
			v7.315c1.421-0.06,2.305-0.08,2.686-0.08c3.085,0,5.332,0.531,6.73,1.593c1.682,1.251,2.779,3.462,2.723,5.863
			c-0.171,7.629-7.914,9.053-12.033,9.053C1543.297,1612.44,1540.972,1611.932,1540.972,1611.932z"/>
		<path fill="#FFFFFF" d="M1491.148,1599.572c2.773-0.87,4.172-2.645,4.172-5.334c0-1.156-0.279-2.104-0.771-2.866
			c-0.567-0.927-1.429-1.646-2.517-2.056c-2.157-0.983-5.051-1.205-7.625-1.205c-4.882,0-8.041,0.585-8.041,0.585v23.236
			c0,0,3.312,0.508,8.041,0.508c4.665,0,11.774-1.192,11.955-7.093c0.005-0.074,0.006-0.156,0.006-0.229
			C1496.475,1602.537,1494.88,1600.08,1491.148,1599.572z M1484.56,1601.962c0.601,0,1.286,0.025,2.105,0.071
			c0.824,0.042,1.506,0.31,2.106,0.799c0.598,0.466,0.914,1.238,0.914,2.324c0,2.539-2.227,3.501-5.172,3.501
			c-0.771,0-1.64-0.1-1.64-0.1v-6.596H1484.56z M1482.875,1598.349v-6.378c0,0,0.654-0.071,2.355-0.071
			c3.157,0,3.812,1.858,3.812,3.029c0,2.31-1.42,3.42-4.616,3.42H1482.875z"/>
		<path fill="#FFFFFF" d="M1509.423,1588.111c-4.883,0-11.016,0.808-11.016,7.086c0,3.285,1.624,5.37,4.868,6.237l-6.195,10.498
			h6.882l4.991-9.279h1.95v9.279h6.554v-23.236C1517.458,1588.696,1514.303,1588.111,1509.423,1588.111z M1510.904,1598.747h-1.639
			c-3.191,0-4.527-1.058-4.527-3.648c0-2.708,2.062-3.342,3.74-3.342c1.622,0,2.426,0.158,2.426,0.158V1598.747z"/>
		<path fill="#FFFFFF" d="M1347.865,1611.932v-32.096h24.502v32.096h-7.126v-27.59h-10.23v27.59H1347.865z"/>
		<path fill="#FFFFFF" d="M1376.284,1621.346v-32.057c5.825-1.178,21.641-4.495,21.641,9.68c0,3.751-1.02,7.013-2.948,9.233
			c-3.761,4.52-9.932,4.03-11.967,3.211v9.932H1376.284z M1391.337,1599.527c0-8.754-6.127-8.003-8.327-7.457v15.213
			C1383.894,1607.438,1391.337,1610.29,1391.337,1599.527z"/>
		<path fill="#FFFFFF" d="M1411.269,1612.44c-7.636,0-10.987-4.882-10.987-12.138c0-7.551,3.995-12.191,11.722-12.191
			c2.73,0,4.948,0.625,6.636,1.865c1.665,1.219,2.775,2.775,3.311,4.664c0.532,1.866,0.796,3.687,0.796,5.486
			C1422.746,1607.98,1419.437,1612.44,1411.269,1612.44L1411.269,1612.44z M1411.783,1608.756c1.954,0,3.262-1.551,3.79-3.617
			c0.534-2.108,0.583-3.579,0.583-5.168c0-2.225-0.245-3.888-0.893-5.598c-0.642-1.753-2.08-2.617-3.48-2.617
			c-1.934,0-3.286,1.4-3.91,3.285c-0.646,1.863-0.733,3.705-0.733,4.929C1407.139,1602.876,1407.786,1608.756,1411.783,1608.756
			L1411.783,1608.756z"/>
		<polygon fill="#FFFFFF" points="1424.17,1611.932 1426.589,1588.696 1434.316,1588.696 1439.09,1604.515 1443.902,1588.696 
			1451.582,1588.696 1453.803,1611.932 1447.635,1611.932 1446.345,1595.197 1441.259,1611.932 1435.939,1611.932 
			1430.808,1595.108 1429.546,1611.932 		"/>
	</g>
	<path fill="#FFFFFF" d="M1552.433,1485.887c0-13.747-11.141-24.887-24.887-24.887h-35.156c-11.344,0-21.02,7.645-23.956,18.214
		h42.498c16.348,0,23.286,7.604,23.286,25.452v40.331c10.548-2.935,18.215-12.646,18.215-23.945V1485.887z"/>
	<path fill="#F16522" d="M1450.149,1538.326c0,13.751,11.146,24.885,24.888,24.885h35.158c11.35,0,21.022-7.64,23.955-18.213
		h-42.495c-16.35,0-23.289-7.603-23.289-25.452v-40.332c-10.545,2.937-18.217,12.649-18.217,23.95V1538.326z"/>
	<g>
		<path fill="#FFFFFF" d="M1521.362,1500.305v-0.108c1.969-0.622,4.6-2.266,4.6-6.58c0-4.854-3.945-7.082-9.498-7.082h-9.424v11.616
			h-5.55c-7.452,0-8.987,5.229-8.987,8.074c0,4.052,2.341,5.848,6.652,7.998c2.629,1.31,5.766,2.116,5.766,5.116
			c0,1.576-1.459,3.476-4.599,3.476h-5.844c0.876-1.503,1.239-3.145,1.239-4.572c0-1.86-0.657-9.316-11.033-9.316h-8.473v28.747
			h5.77v-12.528l2.337,2.342h15.787c7.368,0,10.88-3.797,10.88-8.328c0-1.606-0.291-2.896-0.803-3.945h5.916
			c9.133,0,11.256-4.529,11.256-8.078C1527.354,1503.524,1525.013,1500.854,1521.362,1500.305z M1484.684,1522.815h-2.703v-9.399
			h2.703c3.362,0,4.896,2.044,4.896,4.53C1489.58,1520.256,1488.193,1522.815,1484.684,1522.815z M1507.04,1504.986v6.971
			c-1.392-0.835-2.993-1.494-4.671-2.225c-1.827-0.805-3.799-1.829-3.799-4.135c0-1.17,0.729-2.913,4.239-2.913h2.331h1.899h2.264
			L1507.04,1504.986z M1512.811,1491.031h2.63c4.456,0,4.679,2.734,4.679,3.573c0,1.241-0.659,3.547-4.459,3.547h-2.85V1491.031z
			 M1516.098,1510.685h-3.287v-8.001h3.287c4.021,0,5.118,1.936,5.118,3.982C1521.216,1508.712,1519.752,1510.685,1516.098,1510.685
			z"/>
	</g>
</g>
<g>
	<g>
		<g>
			<path d="M1476.435,1874.808h-23.123c-0.793,0-1.433,0.642-1.433,1.434v23.121c0,0.792,0.638,1.434,1.432,1.434h12.448v-10.062
				h-3.388v-3.925h3.388v-2.893c0-3.355,2.051-5.184,5.045-5.184c1.433,0,2.667,0.108,3.024,0.157v3.507h-2.075
				c-1.631,0-1.945,0.772-1.945,1.911v2.502h3.883l-0.503,3.925h-3.38v10.062h6.624c0.793,0,1.434-0.641,1.434-1.434v-23.121
				C1477.865,1875.449,1477.225,1874.808,1476.435,1874.808z"/>
		</g>
		<g>
			<g>
				<path d="M1392.328,1886.024c0.277-0.012,0.559-0.088,0.856-0.223c0.321-0.153,0.544-0.361,0.662-0.625
					c0.122-0.263,0.186-0.574,0.186-0.924c0-0.26-0.067-0.523-0.201-0.801c-0.132-0.27-0.336-0.468-0.614-0.59
					c-0.268-0.115-0.581-0.178-0.947-0.186c-0.359-0.014-0.9-0.019-1.616-0.019h-0.281v3.392h0.507
					C1391.568,1886.048,1392.052,1886.041,1392.328,1886.024z M1400.179,1873.941h-16.817c-3.011,0-5.454,2.438-5.454,5.452v16.818
					c0,3.011,2.443,5.454,5.454,5.454h16.817c3.012,0,5.449-2.443,5.449-5.454v-16.818
					C1405.632,1876.379,1403.191,1873.941,1400.179,1873.941z M1398.737,1892.936c-0.301,0.606-0.707,1.102-1.215,1.497
					c-0.604,0.475-1.269,0.812-1.989,1.013c-0.722,0.199-1.638,0.298-2.748,0.298h-6.416v-16.027h5.664
					c1.176,0,2.069,0.047,2.675,0.136c0.604,0.088,1.174,0.278,1.704,0.565c0.576,0.307,1.003,0.723,1.288,1.239
					c0.281,0.513,0.423,1.11,0.423,1.788c0,0.78-0.192,1.478-0.586,2.089c-0.391,0.606-0.929,1.058-1.621,1.342v0.086
					c0.991,0.212,1.784,0.633,2.381,1.276c0.595,0.644,0.894,1.509,0.894,2.599
					C1399.19,1891.632,1399.038,1892.333,1398.737,1892.936z M1393.838,1888.967c-0.243-0.094-0.578-0.148-1.006-0.16
					c-0.429-0.009-0.999-0.014-1.716-0.014h-0.744v4.014h0.213c1.049,0,1.774-0.007,2.179-0.021
					c0.401-0.015,0.808-0.111,1.226-0.289c0.366-0.161,0.633-0.391,0.801-0.699c0.17-0.301,0.255-0.647,0.255-1.037
					c0-0.498-0.102-0.881-0.3-1.163C1394.542,1889.321,1394.241,1889.107,1393.838,1888.967z"/>
			</g>
		</g>
		<g>
			<path d="M1552.757,1879.097c-1.088,0.479-2.256,0.811-3.484,0.956c1.252-0.751,2.214-1.938,2.666-3.357
				c-1.172,0.698-2.472,1.2-3.849,1.471c-1.106-1.178-2.687-1.913-4.427-1.913c-3.354,0-6.065,2.715-6.065,6.062
				c0,0.474,0.051,0.94,0.156,1.381c-5.045-0.251-9.513-2.664-12.504-6.335c-0.519,0.895-0.819,1.939-0.819,3.051
				c0,2.103,1.071,3.961,2.697,5.047c-0.993-0.031-1.93-0.308-2.746-0.762c0,0.029,0,0.054,0,0.08c0,2.935,2.091,5.387,4.866,5.949
				c-0.512,0.133-1.048,0.21-1.601,0.21c-0.39,0-0.769-0.04-1.143-0.11c0.774,2.411,3.013,4.164,5.668,4.214
				c-2.077,1.626-4.692,2.595-7.533,2.595c-0.489,0-0.973-0.029-1.445-0.083c2.682,1.72,5.87,2.728,9.294,2.728
				c11.158,0,17.257-9.248,17.257-17.259c0-0.263-0.005-0.527-0.018-0.788C1550.915,1881.381,1551.942,1880.312,1552.757,1879.097z"
				/>
		</g>
		<g>
			<polygon points="1623.239,1876.449 1595.61,1876.449 1609.424,1889.8 			"/>
			<g>
				<polygon points="1624.23,1898.261 1624.23,1878.487 1613.999,1888.375 				"/>
				<g>
					<path d="M1595.87,1900.047h27.106l-10.527-10.174l-2.276,2.199c-0.209,0.202-0.479,0.302-0.749,0.302
						c-0.269,0-0.539-0.101-0.748-0.302l-2.276-2.201L1595.87,1900.047z"/>
					<polygon points="1604.849,1888.374 1594.619,1878.487 1594.619,1898.261 					"/>
				</g>
			</g>
		</g>
	</g>
</g>
</svg>
