<?xml version="1.0" encoding="utf-8"?>
<!-- Generator: Adobe Illustrator 17.0.0, SVG Export Plug-In . SVG Version: 6.00 Build 0)  -->
<!DOCTYPE svg PUBLIC "-//W3C//DTD SVG 1.1//EN" "http://www.w3.org/Graphics/SVG/1.1/DTD/svg11.dtd">
<svg version="1.1" id="Слой_1" xmlns="http://www.w3.org/2000/svg" xmlns:xlink="http://www.w3.org/1999/xlink" x="0px" y="0px"
	 width="3000px" height="2000px" viewBox="0 0 3000 2000" enable-background="new 0 0 3000 2000" xml:space="preserve">
<rect x="-23.308" y="-25" width="3062.077" height="2031.781"/>
<rect x="-39.04" y="1891.544" fill="#FFDB00" width="3077.808" height="9.845"/>
<rect x="-39.04" y="1869.77" fill="#FF9900" width="3077.808" height="23.949"/>
<rect x="-39.04" y="1832.91" fill="#FF6600" width="3077.808" height="38.949"/>
<rect x="-39.04" y="1761.667" fill="#FF0000" width="3077.808" height="72.76"/>
<rect x="-39.04" y="1658.308" fill="#990066" width="3077.808" height="105.145"/>
<rect x="1118.377" y="1640.884" transform="matrix(-0.7071 -0.7071 0.7071 -0.7071 750.8098 3596.5637)" fill="#FFDB00" width="3.801" height="3.801"/>
<rect x="1185.589" y="1673.137" transform="matrix(-0.7071 -0.7071 0.7071 -0.7071 842.7391 3699.1497)" fill="#FFDB00" width="3.8" height="3.801"/>
<rect x="1148.035" y="1553.051" transform="matrix(-0.7072 -0.707 0.707 -0.7072 863.8152 3467.6357)" fill="#FFDB00" width="3.8" height="3.801"/>
<rect x="1147.944" y="1751.766" transform="matrix(-0.7071 -0.7071 0.7071 -0.7071 722.8775 3806.7593)" fill="#FFDB00" width="3.801" height="3.801"/>
<rect x="1000.848" y="1708.873" transform="matrix(-0.7073 -0.707 0.707 -0.7073 502.2935 3629.1172)" fill="#FFDB00" width="3.376" height="3.377"/>
<rect x="1060.575" y="1737.382" transform="matrix(-0.7071 -0.7071 0.7071 -0.7071 583.6865 3719.9109)" fill="#FFDB00" width="3.375" height="3.376"/>
<rect x="1027.029" y="1630.688" transform="matrix(-0.707 -0.7072 0.7072 -0.707 601.5989 3513.9927)" fill="#FFDB00" width="3.376" height="3.376"/>
<rect x="1027.023" y="1807.185" transform="matrix(-0.707 -0.7072 0.7072 -0.707 476.7694 3815.2698)" fill="#FFDB00" width="3.376" height="3.376"/>
<rect x="1777.806" y="1708.905" transform="matrix(-0.7073 -0.707 0.707 -0.7073 1828.7383 4178.4473)" fill="#FFDB00" width="3.376" height="3.377"/>
<rect x="1837.493" y="1737.376" transform="matrix(-0.7071 -0.7071 0.7071 -0.7071 1909.9724 4269.2656)" fill="#FFDB00" width="3.375" height="3.376"/>
<rect x="1803.967" y="1630.712" transform="matrix(-0.707 -0.7072 0.7072 -0.707 1927.8203 4063.4895)" fill="#FFDB00" width="3.376" height="3.376"/>
<rect x="1803.964" y="1807.212" transform="matrix(-0.707 -0.7072 0.7072 -0.707 1802.9935 4364.7729)" fill="#FFDB00" width="3.376" height="3.376"/>
<rect x="1889.477" y="1696.292" transform="matrix(-0.7073 -0.707 0.707 -0.7073 2028.3054 4235.8604)" fill="#FFDB00" width="3.376" height="3.377"/>
<rect x="1949.157" y="1724.759" transform="matrix(-0.7071 -0.7071 0.7071 -0.7071 2109.5168 4326.6846)" fill="#FFDB00" width="3.375" height="3.376"/>
<rect x="1915.628" y="1618.098" transform="matrix(-0.707 -0.7072 0.7072 -0.707 2127.3481 4120.9253)" fill="#FFDB00" width="3.376" height="3.376"/>
<rect x="1915.625" y="1794.598" transform="matrix(-0.707 -0.7072 0.7072 -0.707 2002.5198 4422.2095)" fill="#FFDB00" width="3.376" height="3.376"/>
</svg>
