<?xml version="1.0" encoding="utf-8"?>
<!-- Generator: Adobe Illustrator 17.0.0, SVG Export Plug-In . SVG Version: 6.00 Build 0)  -->
<!DOCTYPE svg PUBLIC "-//W3C//DTD SVG 1.1//EN" "http://www.w3.org/Graphics/SVG/1.1/DTD/svg11.dtd">
<svg version="1.1" id="Слой_1" xmlns="http://www.w3.org/2000/svg" xmlns:xlink="http://www.w3.org/1999/xlink" x="0px" y="0px"
	 width="3000px" height="2000px" viewBox="0 0 3000 2000" enable-background="new 0 0 3000 2000" xml:space="preserve">
<rect fill="#E7F6FD" width="3000" height="2000"/>
<path fill="#BCE6FB" d="M2317.375,1991.806v-19.016h-9.297v-15.974h-6.192v-15.46h-3.576v15.46h-6.475v15.974h-9.296v19.016h-19.042
	v-12.665h-13.389v12.665h-7.666v-59.24l-16.527-10.21v-4.993c0-1.899-1.542-3.442-3.445-3.442h-0.033h-0.23
	c-1.903,0-3.444,1.542-3.444,3.442v5.302l-15.81,9.901v59.24h-7.223v-22.221h-23.88v22.221h-6.218v-11.798h-16.13v-25.131h-10.151
	c0.011-0.184,0.028-0.366,0.028-0.553c0-4.142-2.856-7.609-6.704-8.563v-4.455c0-1.285-1.042-2.331-2.33-2.331
	s-2.329,1.045-2.329,2.331v4.557c-3.647,1.088-6.308,4.462-6.308,8.461c0,0.187,0.017,0.369,0.028,0.553h-10.332v25.131h-6.626
	v-40.039l-7.828-5.62l-8.184,5.62v40.039h-9.386v-14.64h-14.078v-6.075h-28.159v32.513h-15.202h-16.539v-19.016h-9.296v-15.974
	h-6.192v-15.46h-3.576v15.46h-6.475v15.974h-9.296v6.351h-32.429v12.665h-7.666v-59.24l-16.526-9.104v-6.099
	c0-1.899-1.543-3.442-3.445-3.442h-0.034h-0.23c-1.903,0-3.444,1.542-3.444,3.442v6.433l-15.81,8.77v59.24h-7.222v-22.221h-23.881
	v22.221h-6.217v-11.798h-16.132v-25.131h-10.15c0.011-0.184,0.028-0.366,0.028-0.553c0-4.142-2.856-7.609-6.703-8.563v-4.455
	c0-1.285-1.043-2.331-2.331-2.331c-1.287,0-2.329,1.045-2.329,2.331v4.557c-3.647,1.088-6.307,4.462-6.307,8.461
	c0,0.187,0.017,0.369,0.028,0.553h-10.333v25.131h-6.626v-40.039l-8.202-4.093l-7.81,4.093v40.039h-9.387v-14.64h-14.078v-6.075
	l-14.177-6.823l-13.981,6.823v32.513h-29.213v-16.01l-19.611-9.439l-19.34,9.439v16.01h-33.055v-36.596h-19.472v-8.402
	l-19.613-9.437l-19.338,9.437v25.983h-35.994v20.817h-7.69v-29.831l-23.92-22.588v52.419h-5.331v-13.191h-23.62v-11.262h-8.757
	v-14.326h-3.987v-10.923h-2.546v10.923h-4.31v14.326h-7.849v11.262h-16.219v-40.036l-8.347-5.458l-7.665,5.458v40.036h-7.992
	v-11.574h-20.469v0.452l-16.918-12.299l-24.407,17.25v17.56h-32.594v-19.016h-9.298v-15.974h-16.242v15.974h-9.297v19.016h-11.132
	v-34.99h-21.298v34.99h-6.441v-36.581h-0.019l-16.505-6.611v-8.593c0-1.899-1.544-3.446-3.447-3.446h-0.032h-0.229
	c-1.902,0-3.446,1.547-3.446,3.446v8.871l-15.811,6.332v36.581h-5.291v-19.466h-22.693v19.466h-8.722v-11.798v-5.181v-15.366v-5.736
	c0-1.832-1.485-3.317-3.315-3.317c-1.832,0-3.317,1.485-3.317,3.317v5.736h-7.958c0.016-0.261,0.04-0.52,0.04-0.785
	c0-5.797-3.925-10.662-9.258-12.119v-6.413c0-1.832-1.483-3.318-3.317-3.318c-1.831,0-3.315,1.486-3.315,3.318v6.412
	c-5.333,1.456-9.259,6.322-9.259,12.119c0,0.265,0.023,0.524,0.04,0.785h-7.937v-5.152c0-1.831-1.483-3.317-3.317-3.317
	c-1.83,0-3.316,1.486-3.316,3.317v5.152v15.948v4.598h-6.625v-40.039l-8.079-6.823l-7.933,6.823v40.039h-9.385v-14.64h-16.013
	v26.438h-18.221v-32.513l-14.472-6.823l-13.686,6.823v32.513h-32.534h-13.889h-4.487v-19.016h-9.299v-15.974h-16.242v15.974h-9.297
	v19.016h-19.04v-12.665h-13.391v12.665h-6.44v-36.581h-0.018l-16.507-6.611v-8.592c0-1.899-1.543-3.446-3.447-3.446h-0.033h-0.228
	c-1.902,0-3.445,1.547-3.445,3.446v8.871l-15.811,6.332v36.581h-5.291v-19.466h-22.693v19.466h-8.722v-11.798h-4.453v-5.21v-14.103
	v-5.267c0-1.682-1.362-3.043-3.043-3.043c-1.682,0-3.044,1.361-3.044,3.043v5.267h-7.305c0.015-0.24,0.036-0.478,0.036-0.721
	c0-5.321-3.603-9.788-8.498-11.125v-5.883c0-1.683-1.361-3.045-3.043-3.045s-3.044,1.362-3.044,3.045v5.883
	c-4.895,1.337-8.498,5.805-8.498,11.125c0,0.243,0.022,0.481,0.036,0.721h-7.171v-4.729c0-1.681-1.363-3.044-3.044-3.044
	c-1.68,0-3.044,1.364-3.044,3.044v4.729h-0.115v19.313h-6.625v-40.039H730.69v40.039h-9.386v-14.64h-16.013v26.438H687.07v-32.513
	h-28.159v32.513H515.948v46.392h445.999h13.889h350.328V2040h255.1v-1.802h285.618h155.061h459.243v-46.392H2317.375z"/>
<path fill="#BCE6FB" d="M632.959,1991.806v-19.016h-9.297v-15.974h-6.192v-15.46h-3.576v15.46h-6.475v15.974h-9.296v19.016h-19.042
	v-12.665h-13.389v12.665h-7.666v-59.24l-16.527-10.21v-4.993c0-1.899-1.542-3.442-3.445-3.442h-0.033h-0.23
	c-1.903,0-3.444,1.542-3.444,3.442v5.302l-15.81,9.901v59.24h-7.223v-22.221h-23.88v22.221h-6.218v-11.798h-16.13v-25.131h-10.151
	c0.011-0.184,0.028-0.366,0.028-0.553c0-4.142-2.856-7.609-6.704-8.563v-4.455c0-1.285-1.042-2.331-2.33-2.331
	s-2.329,1.045-2.329,2.331v4.557c-3.647,1.088-6.308,4.462-6.308,8.461c0,0.187,0.017,0.369,0.028,0.553h-10.332v25.131h-6.626
	v-40.039l-7.828-5.62l-8.184,5.62v40.039h-9.386v-14.64h-14.078v-6.075h-28.159v32.513h-15.202h-16.539v-19.016h-9.296v-15.974
	h-6.192v-15.46h-3.576v15.46h-6.475v15.974h-9.296v6.351h-32.429v12.665h-7.666v-59.24l-16.526-9.104v-6.099
	c0-1.899-1.543-3.442-3.445-3.442h-0.034h-0.23c-1.903,0-3.444,1.542-3.444,3.442v6.433l-15.81,8.77v59.24h-7.222v-22.221h-23.881
	v22.221h-6.217v-11.798h-16.132v-25.131h-10.15c0.011-0.184,0.028-0.366,0.028-0.553c0-4.142-2.856-7.609-6.703-8.563v-4.455
	c0-1.285-1.043-2.331-2.331-2.331c-1.287,0-2.329,1.045-2.329,2.331v4.557c-3.647,1.088-6.307,4.462-6.307,8.461
	c0,0.187,0.017,0.369,0.028,0.553h-10.333v25.131h-6.626v-40.039l-8.202-4.093l-7.81,4.093v40.039h-9.387v-14.64H68.915v-6.075
	l-14.177-6.823l-13.981,6.823v32.513H11.544v-16.01l-19.611-9.439l-19.34,9.439v16.01h-33.055v-36.596h-19.472v-8.402l-19.613-9.437
	l-19.338,9.437v25.983h-35.994v20.817h-7.69v-29.831l-23.92-22.588v52.419h-5.331v-13.191h-23.62v-11.262h-8.757v-14.326h-3.987
	v-10.923h-2.546v10.923h-4.31v14.326h-7.849v11.262h-16.219v-40.036l-8.347-5.458l-7.665,5.458v40.036h-7.992v-11.574h-20.469v0.452
	l-16.918-12.299l-24.407,17.25v17.56H-377.5v-19.016h-9.298v-15.974h-16.242v15.974h-9.297v19.016h-11.132v-34.99h-21.298v34.99
	h-6.441v-36.581h-0.019l-16.505-6.611v-8.593c0-1.899-1.544-3.446-3.447-3.446h-0.032h-0.229c-1.902,0-3.446,1.547-3.446,3.446
	v8.871l-15.811,6.332v36.581h-5.291v-19.466h-22.693v19.466h-8.722v-11.798v-5.181v-15.366v-5.736c0-1.832-1.485-3.317-3.315-3.317
	c-1.832,0-3.317,1.485-3.317,3.317v5.736h-7.958c0.016-0.261,0.04-0.52,0.04-0.785c0-5.797-3.925-10.662-9.258-12.119v-6.413
	c0-1.832-1.483-3.318-3.317-3.318c-1.831,0-3.315,1.486-3.315,3.318v6.412c-5.333,1.456-9.259,6.322-9.259,12.119
	c0,0.265,0.023,0.524,0.04,0.785h-7.937v-5.152c0-1.831-1.483-3.317-3.317-3.317c-1.83,0-3.316,1.486-3.316,3.317v5.152v15.948
	v4.598h-6.625v-40.039l-8.079-6.823l-7.933,6.823v40.039h-9.385v-14.64h-16.013v26.438h-18.221v-32.513l-14.472-6.823l-13.686,6.823
	v32.513h-32.534h-13.889h-4.487v-19.016h-9.299v-15.974h-16.242v15.974h-9.297v19.016h-19.04v-12.665h-13.391v12.665h-6.44v-36.581
	h-0.018l-16.507-6.611v-8.592c0-1.899-1.543-3.446-3.447-3.446h-0.033h-0.228c-1.902,0-3.445,1.547-3.445,3.446v8.871l-15.811,6.332
	v36.581h-5.291v-19.466h-22.693v19.466h-8.722v-11.798h-4.453v-5.21v-14.103v-5.267c0-1.682-1.362-3.043-3.043-3.043
	c-1.682,0-3.044,1.361-3.044,3.043v5.267h-7.305c0.015-0.24,0.036-0.478,0.036-0.721c0-5.321-3.603-9.788-8.498-11.125v-5.883
	c0-1.683-1.361-3.045-3.043-3.045s-3.044,1.362-3.044,3.045v5.883c-4.895,1.337-8.498,5.805-8.498,11.125
	c0,0.243,0.022,0.481,0.036,0.721h-7.171v-4.729c0-1.681-1.363-3.044-3.044-3.044c-1.68,0-3.044,1.364-3.044,3.044v4.729h-0.115
	v19.313h-6.625v-40.039h-16.011v40.039h-9.386v-14.64h-16.013v26.438h-18.221v-32.513h-28.159v32.513h-142.963v46.392h445.999
	h13.889h350.328V2040h255.1v-1.802h285.618h155.061H796.77v-46.392H632.959z"/>
<path fill="#BCE6FB" d="M3997.068,1991.806v-19.016h-9.297v-15.974h-6.192v-15.46h-3.576v15.46h-6.475v15.974h-9.296v19.016h-19.042
	v-12.665h-13.389v12.665h-7.666v-59.24l-16.527-10.21v-4.993c0-1.899-1.542-3.442-3.445-3.442h-0.033h-0.23
	c-1.903,0-3.444,1.542-3.444,3.442v5.302l-15.81,9.901v59.24h-7.223v-22.221h-23.88v22.221h-6.218v-11.798h-16.13v-25.131h-10.151
	c0.011-0.184,0.028-0.366,0.028-0.553c0-4.142-2.856-7.609-6.704-8.563v-4.455c0-1.285-1.042-2.331-2.33-2.331
	s-2.329,1.045-2.329,2.331v4.557c-3.647,1.088-6.308,4.462-6.308,8.461c0,0.187,0.017,0.369,0.028,0.553h-10.332v25.131h-6.626
	v-40.039l-7.828-5.62l-8.184,5.62v40.039h-9.386v-14.64h-14.078v-6.075h-28.159v32.513h-15.202h-16.539v-19.016h-9.296v-15.974
	h-6.192v-15.46h-3.576v15.46h-6.475v15.974h-9.296v6.351h-32.429v12.665h-7.666v-59.24l-16.526-9.104v-6.099
	c0-1.899-1.543-3.442-3.445-3.442h-0.034h-0.23c-1.903,0-3.444,1.542-3.444,3.442v6.433l-15.81,8.77v59.24h-7.222v-22.221h-23.881
	v22.221h-6.217v-11.798h-16.132v-25.131h-10.15c0.011-0.184,0.028-0.366,0.028-0.553c0-4.142-2.856-7.609-6.703-8.563v-4.455
	c0-1.285-1.043-2.331-2.331-2.331c-1.287,0-2.329,1.045-2.329,2.331v4.557c-3.647,1.088-6.307,4.462-6.307,8.461
	c0,0.187,0.017,0.369,0.028,0.553h-10.333v25.131h-6.626v-40.039l-8.202-4.093l-7.81,4.093v40.039h-9.387v-14.64h-14.078v-6.075
	l-14.177-6.823l-13.981,6.823v32.513h-29.213v-16.01l-19.611-9.439l-19.34,9.439v16.01h-33.055v-36.596h-19.472v-8.402
	l-19.613-9.437l-19.338,9.437v25.983h-35.994v20.817h-7.69v-29.831l-23.92-22.588v52.419h-5.331v-13.191h-23.62v-11.262h-8.757
	v-14.326h-3.987v-10.923h-2.546v10.923h-4.31v14.326h-7.849v11.262h-16.219v-40.036l-8.347-5.458l-7.665,5.458v40.036h-7.992
	v-11.574h-20.469v0.452l-16.918-12.299l-24.407,17.25v17.56h-32.594v-19.016h-9.298v-15.974h-16.242v15.974h-9.297v19.016h-11.132
	v-34.99h-21.298v34.99h-6.441v-36.581h-0.019l-16.505-6.611v-8.593c0-1.899-1.544-3.446-3.447-3.446h-0.032h-0.229
	c-1.902,0-3.446,1.547-3.446,3.446v8.871l-15.811,6.332v36.581h-5.291v-19.466h-22.693v19.466h-8.722v-11.798v-5.181v-15.366v-5.736
	c0-1.832-1.485-3.317-3.315-3.317c-1.832,0-3.317,1.485-3.317,3.317v5.736h-7.958c0.016-0.261,0.04-0.52,0.04-0.785
	c0-5.797-3.925-10.662-9.258-12.119v-6.413c0-1.832-1.483-3.318-3.317-3.318c-1.831,0-3.315,1.486-3.315,3.318v6.412
	c-5.333,1.456-9.259,6.322-9.259,12.119c0,0.265,0.023,0.524,0.04,0.785h-7.937v-5.152c0-1.831-1.483-3.317-3.317-3.317
	c-1.83,0-3.316,1.486-3.316,3.317v5.152v15.948v4.598h-6.625v-40.039l-8.079-6.823l-7.933,6.823v40.039h-9.385v-14.64h-16.013
	v26.438h-18.221v-32.513l-14.472-6.823l-13.686,6.823v32.513h-32.534h-13.889h-4.487v-19.016h-9.299v-15.974h-16.242v15.974h-9.297
	v19.016h-19.04v-12.665h-13.391v12.665h-6.44v-36.581h-0.018l-16.507-6.611v-8.592c0-1.899-1.543-3.446-3.447-3.446h-0.033h-0.228
	c-1.902,0-3.445,1.547-3.445,3.446v8.871l-15.811,6.332v36.581h-5.291v-19.466h-22.693v19.466h-8.722v-11.798h-4.453v-5.21v-14.103
	v-5.267c0-1.682-1.362-3.043-3.043-3.043c-1.682,0-3.044,1.361-3.044,3.043v5.267h-7.305c0.015-0.24,0.036-0.478,0.036-0.721
	c0-5.321-3.603-9.788-8.498-11.125v-5.883c0-1.683-1.361-3.045-3.043-3.045s-3.044,1.362-3.044,3.045v5.883
	c-4.895,1.337-8.498,5.805-8.498,11.125c0,0.243,0.022,0.481,0.036,0.721h-7.171v-4.729c0-1.681-1.363-3.044-3.044-3.044
	c-1.68,0-3.044,1.364-3.044,3.044v4.729h-0.115v19.313h-6.625v-40.039h-16.011v40.039h-9.386v-14.64h-16.013v26.438h-18.221v-32.513
	h-28.159v32.513h-142.963v46.392h445.999h13.889h350.328V2040h255.1v-1.802h285.618h155.061h459.243v-46.392H3997.068z"/>
<g>
	<g>
		<g>
			<path fill="#0D4B9F" d="M1516.66,1875.191h-23.123c-0.793,0-1.433,0.642-1.433,1.434v23.121c0,0.792,0.638,1.434,1.432,1.434
				h12.448v-10.062h-3.388v-3.925h3.388v-2.893c0-3.355,2.051-5.184,5.045-5.184c1.433,0,2.667,0.108,3.024,0.157v3.507h-2.075
				c-1.631,0-1.945,0.773-1.945,1.911v2.502h3.883l-0.503,3.925h-3.38v10.062h6.624c0.793,0,1.434-0.641,1.434-1.434v-23.121
				C1518.09,1875.833,1517.45,1875.191,1516.66,1875.191z"/>
		</g>
		<g>
			<g>
				<path fill="#0D4B9F" d="M1432.553,1886.408c0.277-0.012,0.559-0.088,0.856-0.223c0.321-0.153,0.544-0.361,0.662-0.625
					c0.122-0.263,0.186-0.574,0.186-0.924c0-0.26-0.067-0.523-0.201-0.801c-0.132-0.27-0.336-0.468-0.614-0.59
					c-0.268-0.115-0.581-0.178-0.947-0.186c-0.359-0.014-0.9-0.019-1.616-0.019h-0.281v3.392h0.507
					C1431.792,1886.432,1432.277,1886.424,1432.553,1886.408z M1440.404,1874.325h-16.817c-3.011,0-5.454,2.438-5.454,5.452v16.818
					c0,3.011,2.443,5.454,5.454,5.454h16.817c3.012,0,5.449-2.443,5.449-5.454v-16.818
					C1445.857,1876.763,1443.416,1874.325,1440.404,1874.325z M1438.961,1893.319c-0.301,0.606-0.707,1.102-1.215,1.496
					c-0.604,0.475-1.269,0.812-1.989,1.013c-0.722,0.199-1.638,0.298-2.748,0.298h-6.416v-16.027h5.664
					c1.176,0,2.069,0.047,2.675,0.136c0.604,0.088,1.174,0.278,1.704,0.565c0.576,0.307,1.003,0.723,1.288,1.239
					c0.281,0.513,0.423,1.11,0.423,1.788c0,0.78-0.192,1.478-0.586,2.089c-0.391,0.607-0.929,1.058-1.621,1.342v0.086
					c0.991,0.212,1.784,0.633,2.381,1.276c0.595,0.644,0.894,1.509,0.894,2.599
					C1439.415,1892.016,1439.263,1892.717,1438.961,1893.319z M1434.063,1889.351c-0.243-0.094-0.578-0.148-1.006-0.16
					c-0.429-0.009-0.999-0.014-1.716-0.014h-0.744v4.014h0.213c1.049,0,1.774-0.007,2.179-0.021
					c0.401-0.015,0.808-0.111,1.226-0.289c0.366-0.161,0.633-0.391,0.801-0.699c0.17-0.301,0.255-0.647,0.255-1.037
					c0-0.498-0.102-0.881-0.3-1.163C1434.767,1889.705,1434.466,1889.491,1434.063,1889.351z"/>
			</g>
		</g>
		<g>
			<path fill="#0D4B9F" d="M1592.982,1879.48c-1.088,0.479-2.256,0.811-3.484,0.956c1.252-0.751,2.214-1.938,2.666-3.357
				c-1.172,0.698-2.472,1.2-3.849,1.471c-1.106-1.178-2.687-1.913-4.427-1.913c-3.354,0-6.065,2.715-6.065,6.062
				c0,0.474,0.051,0.94,0.156,1.381c-5.045-0.251-9.513-2.664-12.504-6.335c-0.519,0.895-0.819,1.939-0.819,3.051
				c0,2.103,1.071,3.961,2.697,5.047c-0.993-0.031-1.93-0.308-2.746-0.762c0,0.029,0,0.054,0,0.08c0,2.935,2.091,5.387,4.866,5.949
				c-0.512,0.133-1.048,0.21-1.601,0.21c-0.39,0-0.769-0.04-1.143-0.11c0.774,2.411,3.013,4.164,5.668,4.214
				c-2.077,1.626-4.692,2.595-7.533,2.595c-0.489,0-0.973-0.029-1.445-0.083c2.682,1.72,5.87,2.728,9.294,2.728
				c11.158,0,17.257-9.248,17.257-17.259c0-0.263-0.005-0.527-0.018-0.788C1591.14,1881.765,1592.167,1880.695,1592.982,1879.48z"/>
		</g>
	</g>
</g>
</svg>
