<?xml version="1.0" encoding="utf-8"?>
<!-- Generator: Adobe Illustrator 17.0.0, SVG Export Plug-In . SVG Version: 6.00 Build 0)  -->
<!DOCTYPE svg PUBLIC "-//W3C//DTD SVG 1.1//EN" "http://www.w3.org/Graphics/SVG/1.1/DTD/svg11.dtd">
<svg version="1.1" id="Слой_1" xmlns="http://www.w3.org/2000/svg" xmlns:xlink="http://www.w3.org/1999/xlink" x="0px" y="0px"
	 width="270.677px" height="141.441px" viewBox="0 0 270.677 141.441" enable-background="new 0 0 270.677 141.441"
	 xml:space="preserve">
<g>
	<g>
		<path fill="#0D4B9F" d="M230.145,133.137v-20.496h5.896v7.594h6.497v-7.594h5.896v20.496h-5.896v-9.149h-6.497v9.149H230.145z"/>
		<path fill="#0D4B9F" d="M209.924,127.281c0-2.805,1.479-4.889,4.286-5.971c1.269-0.494,2.403-0.802,3.405-0.938
			c1.004-0.162,2.31-0.336,3.896-0.547v-0.69c0.118-2.973-1.605-3.48-3.663-3.521c-1.957,0-3.934,0.647-5.657,1.562l-0.385-3.698
			c2.377-0.877,4.848-1.309,7.376-1.309c1.585,0,2.957,0.174,4.077,0.528c2.264,0.7,3.479,2.43,3.732,4.519
			c0.062,0.454,0.083,1.161,0.083,2.078V132.1C221.891,134.061,209.924,135.398,209.924,127.281z M221.549,129.909v-7.283
			c-2.484,0.342-6.186,0.756-6.186,4.326C215.363,131.353,220.063,130.481,221.549,129.909z"/>
		<path fill="#0D4B9F" d="M208.233,118.276c-0.37-1.624-1.313-3.032-2.587-4.226c-2.05-1.957-9.167-3.521-12.611,1.62
			c-0.005-5.421,2.265-8.117,6.873-8.857c4.609-0.744,7.18-1.207,7.18-1.207l-0.475-4.413c0,0-4.696,0.669-8.611,1.565
			c-4.177,0.963-8.223,4.018-9.234,10.203c-0.643,3.968-0.562,10.928,0.619,14.131c1.375,3.725,4.155,6.537,9.24,6.537
			c6.984,0,10.177-4.292,10.177-10.966C208.804,121.351,208.609,119.901,208.233,118.276z M201.068,129.206
			c-0.566,0.781-1.364,1.17-2.403,1.17c-3.369,0-4.214-5.56-4.214-8.107c0-2.06,0.436-4.246,1.623-5.676
			c0.61-0.725,1.431-1.101,2.473-1.101c1.334,0,2.521,0.827,3.171,2.531c0.684,1.705,0.877,3.523,0.877,5.168
			C202.594,125.328,202.25,127.614,201.068,129.206z"/>
		<path fill="#0D4B9F" d="M251.824,133.137v-20.496h5.858v9.395l6.613-9.395h5.739l-6.695,9.143l7.338,11.353h-6.537l-6.458-10.222
			v10.222H251.824z"/>
		<path fill="#0D4B9F" d="M158.224,133.585c-1.866,0-3.838-0.149-5.621-0.84l0.49-3.584c1.408,0.842,2.702,1.216,4.325,1.216
			c2.936,0.037,4.584-1.372,4.484-3.25c0-0.961-0.292-1.686-0.902-2.152c-0.588-0.492-1.272-0.766-2.052-0.824
			c-0.784-0.082-1.452-0.122-1.999-0.122h-1.453v-3.091h0.395c2.196,0,5.619-0.074,5.619-2.88c0.063-2.189-2.229-2.718-3.405-2.681
			c-1.859,0-3.349,0.436-4.972,1.313l-0.351-3.446c2.087-0.802,4.341-1.12,6.596-1.12c4.758-0.093,7.719,2.022,7.595,5.25
			c0.062,2.662-2.171,4.192-3.779,4.699c1.058,0.177,1.938,0.492,2.647,0.961c1.409,0.921,1.978,2.507,1.978,3.931
			c0,2.647-1.438,4.488-3.486,5.449C162.295,133.353,160.022,133.585,158.224,133.585z"/>
		<path fill="#0D4B9F" d="M105.344,133.585c-6.737,0-10.531-4.151-10.531-10.825c0-6.659,4.029-10.636,10.668-10.636
			c1.78,0,3.135,0.236,4.835,0.806l-0.705,3.722c-1.077-0.532-2.016-0.879-3.212-0.879c-3.974,0-5.656,3.287-5.656,6.854
			c0,3.576,1.642,7.221,5.695,7.221c1.196,0,2.234-0.273,3.329-0.802l0.392,3.778C108.517,133.353,107.086,133.585,105.344,133.585z
			"/>
		<path fill="#0D4B9F" d="M176.152,129.859c0,0,5.327,1.067,5.327-3.987c0-0.92-0.159-1.623-0.47-2.118
			c-0.628-1.017-1.978-1.21-3.408-1.21h-0.544h-0.299c-0.056,0-0.251,0.019-0.606,0.041L176.152,129.859L176.152,129.859z
			 M170.339,133.137v-20.496h5.812v6.452c1.253-0.052,2.034-0.071,2.369-0.071c2.721,0,4.703,0.469,5.937,1.406
			c1.484,1.103,2.451,3.053,2.401,5.171c-0.149,6.729-6.981,7.986-10.613,7.986C172.389,133.585,170.339,133.137,170.339,133.137z"
			/>
		<path fill="#0D4B9F" d="M126.39,122.234c2.446-0.768,3.679-2.333,3.679-4.706c0-1.02-0.246-1.856-0.68-2.528
			c-0.5-0.818-1.261-1.453-2.221-1.813c-1.903-0.867-4.454-1.063-6.726-1.063c-4.306,0-7.092,0.517-7.092,0.517v20.496
			c0,0,2.921,0.448,7.092,0.448c4.115,0,10.387-1.051,10.545-6.257c0.004-0.065,0.005-0.137,0.005-0.202
			C131.089,124.849,129.682,122.683,126.39,122.234z M120.578,124.343c0.531,0,1.135,0.022,1.858,0.062
			c0.727,0.037,1.328,0.273,1.858,0.706c0.527,0.411,0.805,1.091,0.805,2.049c0,2.24-1.963,3.088-4.562,3.088
			c-0.68,0-1.446-0.087-1.446-0.087v-5.818H120.578z M119.091,121.155v-5.626c0,0,0.577-0.062,2.078-0.062
			c2.785,0,3.363,1.639,3.363,2.671c0,2.037-1.253,3.016-4.073,3.016L119.091,121.155L119.091,121.155z"/>
		<path fill="#0D4B9F" d="M142.51,112.124c-4.308,0-9.717,0.712-9.717,6.251c0,2.898,1.432,4.736,4.293,5.501l-5.464,9.26h6.07
			l4.403-8.185h1.72v8.185h5.781V112.64C149.597,112.641,146.814,112.124,142.51,112.124z M143.816,121.506h-1.445
			c-2.815,0-3.993-0.932-3.993-3.219c0-2.388,1.819-2.948,3.299-2.948c1.431,0,2.14,0.14,2.14,0.14L143.816,121.506L143.816,121.506
			z"/>
		<path fill="#0D4B9F" d="M0,133.137v-28.311h21.613v28.311h-6.285V108.8H6.304v24.337H0z"/>
		<path fill="#0D4B9F" d="M25.068,141.441v-28.277c5.139-1.039,19.089-3.965,19.089,8.539c0,3.309-0.899,6.186-2.601,8.145
			c-3.317,3.987-8.76,3.555-10.556,2.833v8.76H25.068z M38.346,122.194c0-7.722-5.404-7.06-7.345-6.578v13.419
			C31.782,129.172,38.346,131.688,38.346,122.194z"/>
		<path fill="#0D4B9F" d="M55.928,133.585c-6.735,0-9.691-4.307-9.691-10.707c0-6.661,3.525-10.754,10.34-10.754
			c2.409,0,4.365,0.551,5.853,1.645c1.469,1.076,2.449,2.448,2.92,4.115c0.47,1.645,0.703,3.252,0.703,4.839
			C66.052,129.651,63.133,133.585,55.928,133.585L55.928,133.585z M56.382,130.335c1.724,0,2.876-1.368,3.343-3.19
			c0.471-1.86,0.514-3.157,0.514-4.56c0-1.962-0.217-3.429-0.788-4.938c-0.565-1.546-1.834-2.308-3.069-2.308
			c-1.706,0-2.899,1.234-3.449,2.898c-0.571,1.643-0.647,3.269-0.647,4.348C52.286,125.148,52.856,130.335,56.382,130.335
			L56.382,130.335z"/>
		<polygon fill="#0D4B9F" points="67.308,133.137 69.443,112.641 76.258,112.641 80.469,126.594 84.714,112.641 91.488,112.641 
			93.448,133.137 88.007,133.137 86.869,118.375 82.383,133.137 77.69,133.137 73.164,118.297 72.05,133.137 		"/>
	</g>
	<path fill="#0D4B9F" d="M180.449,21.952C180.449,9.827,170.623,0,158.497,0h-31.012c-10.006,0-18.541,6.744-21.132,16.067h37.488
		c14.42,0,20.54,6.708,20.54,22.451v35.576c9.305-2.588,16.067-11.154,16.067-21.121L180.449,21.952L180.449,21.952z"/>
	<path fill="#F16522" d="M90.225,68.209c0,12.13,9.831,21.951,21.954,21.951h31.012c10.012,0,18.544-6.739,21.131-16.066h-37.486
		c-14.421,0-20.543-6.706-20.543-22.451V16.067c-9.301,2.59-16.068,11.158-16.068,21.126V68.209z"/>
	<g>
		<path fill="#0D4B9F" d="M153.041,34.671v-0.095c1.737-0.549,4.057-1.999,4.057-5.804c0-4.283-3.479-6.248-8.377-6.248h-8.312
			v10.248h-4.896c-6.574,0-7.928,4.612-7.928,7.123c0,3.573,2.065,5.158,5.869,7.054c2.318,1.156,5.086,1.867,5.086,4.514
			c0,1.39-1.288,3.066-4.057,3.066h-5.155c0.772-1.326,1.093-2.775,1.093-4.034c0-1.641-0.58-8.218-9.732-8.218h-7.475v25.358h5.089
			V56.584l2.062,2.065h13.926c6.499,0,9.597-3.35,9.597-7.346c0-1.417-0.257-2.555-0.708-3.479h5.218
			c8.056,0,9.929-3.997,9.929-7.126C158.327,37.511,156.262,35.154,153.041,34.671z M120.688,54.527h-2.385v-8.291h2.385
			c2.965,0,4.318,1.802,4.318,3.995C125.006,52.27,123.783,54.527,120.688,54.527z M140.408,38.8v6.149
			c-1.229-0.737-2.64-1.318-4.12-1.962c-1.613-0.711-3.351-1.614-3.351-3.648c0-1.033,0.644-2.57,3.739-2.57h2.056h1.676h1.996
			L140.408,38.8z M145.498,26.49h2.32c3.931,0,4.127,2.412,4.127,3.152c0,1.095-0.582,3.129-3.934,3.129h-2.514V26.49H145.498z
			 M148.398,43.826h-2.899v-7.057h2.899c3.548,0,4.515,1.708,4.515,3.514C152.913,42.086,151.621,43.826,148.398,43.826z"/>
	</g>
</g>
</svg>
