<?xml version="1.0" encoding="utf-8"?>
<!-- Generator: Adobe Illustrator 17.0.0, SVG Export Plug-In . SVG Version: 6.00 Build 0)  -->
<!DOCTYPE svg PUBLIC "-//W3C//DTD SVG 1.1//EN" "http://www.w3.org/Graphics/SVG/1.1/DTD/svg11.dtd">
<svg version="1.1" id="Слой_1" xmlns="http://www.w3.org/2000/svg" xmlns:xlink="http://www.w3.org/1999/xlink" x="0px" y="0px"
	 width="125.232px" height="125.233px" viewBox="0 0 125.232 125.233" enable-background="new 0 0 125.232 125.233"
	 xml:space="preserve">
<path fill="#FFFFFF" d="M125.232,62.617c0,5.338-6.6,9.737-7.916,14.66c-1.361,5.094,2.115,12.195-0.466,16.655
	c-2.617,4.523-10.529,5.048-14.201,8.719c-3.671,3.671-4.195,11.584-8.719,14.201c-4.46,2.58-11.561-0.896-16.654,0.466
	c-4.923,1.315-9.322,7.915-14.66,7.915s-9.737-6.6-14.66-7.916c-5.094-1.361-12.195,2.115-16.655-0.465
	c-4.524-2.617-5.048-10.53-8.719-14.201s-11.584-4.196-14.201-8.72c-2.58-4.459,0.896-11.562-0.466-16.656
	C6.6,72.353,0,67.955,0,62.617s6.6-9.737,7.916-14.66c1.361-5.093-2.115-12.195,0.465-16.655c2.617-4.523,10.53-5.047,14.202-8.718
	C26.254,18.913,26.778,11,31.302,8.382c4.459-2.58,11.562,0.896,16.654-0.466C52.879,6.601,57.278,0.001,62.616,0
	c5.338,0,9.737,6.6,14.66,7.916c5.094,1.361,12.195-2.115,16.654,0.465c4.524,2.617,5.049,10.53,8.72,14.201
	c3.672,3.671,11.584,4.196,14.201,8.72c2.58,4.459-0.896,11.561,0.466,16.654C118.633,52.879,125.232,57.279,125.232,62.617z"/>
</svg>
