<?xml version="1.0" encoding="utf-8"?>
<!-- Generator: Adobe Illustrator 17.0.0, SVG Export Plug-In . SVG Version: 6.00 Build 0)  -->
<!DOCTYPE svg PUBLIC "-//W3C//DTD SVG 1.1//EN" "http://www.w3.org/Graphics/SVG/1.1/DTD/svg11.dtd">
<svg version="1.1" id="Слой_1" xmlns="http://www.w3.org/2000/svg" xmlns:xlink="http://www.w3.org/1999/xlink" x="0px" y="0px"
	 width="156.278px" height="156.278px" viewBox="0 0 156.278 156.278" enable-background="new 0 0 156.278 156.278"
	 xml:space="preserve">
<path fill="#F4FBFE" d="M156.12,93.431c-1.304,6.648-10.598,10.514-13.439,16.323c-2.939,6.012-0.345,15.704-4.647,20.628
	c-4.364,4.994-14.347,3.715-19.815,7.39c-5.468,3.676-8.054,13.402-14.326,15.557c-6.184,2.124-14.178-3.939-20.854-3.487
	c-6.452,0.437-13.542,7.581-20.189,6.277c-6.648-1.304-10.516-10.597-16.324-13.438c-6.012-2.939-15.704-0.345-20.628-4.646
	c-4.995-4.364-3.716-14.347-7.391-19.815c-3.676-5.469-13.401-8.054-15.557-14.327c-2.124-6.184,3.94-14.18,3.487-20.857
	C6,76.585-1.145,69.496,0.159,62.848C1.462,56.2,10.756,52.334,13.597,46.525c2.939-6.011,0.345-15.705,4.647-20.629
	c4.365-4.994,14.347-3.714,19.815-7.388c5.468-3.676,8.055-13.402,14.326-15.557c6.185-2.124,14.18,3.939,20.856,3.487
	c6.452-0.437,13.542-7.582,20.189-6.279c6.647,1.304,10.515,10.598,16.324,13.438c6.012,2.939,15.704,0.344,20.628,4.646
	c4.995,4.364,3.716,14.346,7.391,19.815c3.676,5.469,13.401,8.055,15.557,14.328c2.124,6.184-3.939,14.178-3.487,20.854
	C150.279,79.693,157.422,86.783,156.12,93.431z"/>
</svg>
