<?xml version="1.0" encoding="utf-8"?>
<!-- Generator: Adobe Illustrator 17.0.0, SVG Export Plug-In . SVG Version: 6.00 Build 0)  -->
<!DOCTYPE svg PUBLIC "-//W3C//DTD SVG 1.1//EN" "http://www.w3.org/Graphics/SVG/1.1/DTD/svg11.dtd">
<svg version="1.1" id="Слой_1" xmlns="http://www.w3.org/2000/svg" xmlns:xlink="http://www.w3.org/1999/xlink" x="0px" y="0px"
	 width="3000px" height="2000px" viewBox="0 0 3000 2000" enable-background="new 0 0 3000 2000" xml:space="preserve">
<rect x="-23.308" y="-25" width="3062.077" height="2031.781"/>
<rect x="-39.04" y="1891.544" fill="#FFDB00" width="3077.808" height="9.845"/>
<rect x="-39.04" y="1869.77" fill="#FF9900" width="3077.808" height="23.949"/>
<rect x="-39.04" y="1832.91" fill="#FF6600" width="3077.808" height="38.949"/>
<rect x="-39.04" y="1761.667" fill="#FF0000" width="3077.808" height="72.76"/>
<rect x="-39.04" y="1658.308" fill="#990066" width="3077.808" height="105.145"/>
<rect x="1118.373" y="1640.902" transform="matrix(0.7071 0.7071 -0.7071 0.7071 1489.7578 -310.987)" fill="#FFDB00" width="3.801" height="3.801"/>
<rect x="1185.585" y="1673.157" transform="matrix(0.7071 0.7071 -0.7071 0.7071 1532.2511 -349.0659)" fill="#FFDB00" width="3.8" height="3.801"/>
<rect x="1147.94" y="1553.056" transform="matrix(0.7072 0.707 -0.707 0.7072 1436.1224 -357.6505)" fill="#FFDB00" width="3.8" height="3.801"/>
<rect x="1147.94" y="1751.786" transform="matrix(0.7071 0.7071 -0.7071 0.7071 1576.824 -299.4171)" fill="#FFDB00" width="3.801" height="3.801"/>
<rect x="1000.874" y="1708.754" transform="matrix(0.7073 0.707 -0.707 0.7073 1502.7068 -208.046)" fill="#FFDB00" width="3.376" height="3.377"/>
<rect x="1060.57" y="1737.401" transform="matrix(0.7071 0.7071 -0.7071 0.7071 1540.8496 -241.762)" fill="#FFDB00" width="3.375" height="3.376"/>
<rect x="1027.133" y="1630.731" transform="matrix(0.707 0.7072 -0.7072 0.707 1455.7869 -249.3263)" fill="#FFDB00" width="3.376" height="3.376"/>
<rect x="1027.133" y="1807.236" transform="matrix(0.707 0.7072 -0.7072 0.707 1580.6055 -197.6186)" fill="#FFDB00" width="3.376" height="3.376"/>
<rect x="1777.797" y="1708.754" transform="matrix(0.7073 0.707 -0.707 0.7073 1730.1473 -757.2989)" fill="#FFDB00" width="3.376" height="3.377"/>
<rect x="1837.493" y="1737.401" transform="matrix(0.7071 0.7071 -0.7071 0.7071 1768.4053 -791.1299)" fill="#FFDB00" width="3.375" height="3.376"/>
<rect x="1804.057" y="1630.731" transform="matrix(0.707 0.7072 -0.7072 0.707 1683.4396 -798.7429)" fill="#FFDB00" width="3.376" height="3.376"/>
<rect x="1804.057" y="1807.236" transform="matrix(0.707 0.7072 -0.7072 0.707 1808.2609 -747.0325)" fill="#FFDB00" width="3.376" height="3.376"/>
<rect x="1889.462" y="1696.137" transform="matrix(0.7073 0.707 -0.707 0.7073 1753.9171 -839.9346)" fill="#FFDB00" width="3.376" height="3.377"/>
<rect x="1949.158" y="1724.784" transform="matrix(0.7071 0.7071 -0.7071 0.7071 1792.1897 -873.7841)" fill="#FFDB00" width="3.375" height="3.376"/>
<rect x="1915.722" y="1618.114" transform="matrix(0.707 0.7072 -0.7072 0.707 1707.2313 -881.4061)" fill="#FFDB00" width="3.376" height="3.376"/>
<rect x="1915.722" y="1794.62" transform="matrix(0.707 0.7072 -0.7072 0.707 1832.0526 -829.6959)" fill="#FFDB00" width="3.376" height="3.376"/>
<g>
	<rect x="1508.413" y="1877.902" fill="#813333" width="9.728" height="23.512"/>
	<path d="M1518.25,1901.414h-9.906v3.342h12.344C1520.308,1902.846,1518.25,1901.414,1518.25,1901.414z"/>
</g>
<g>
	<rect x="1497.055" y="1877.902" fill="#813333" width="9.73" height="23.512"/>
	<path d="M1506.895,1901.414h-9.906v3.342h12.344C1508.95,1902.846,1506.895,1901.414,1506.895,1901.414z"/>
</g>
<g>
	<path fill="#663399" d="M1491.693,1869.348c0-7.668,7.297-14.609,16.302-14.609c9.002,0,16.302,6.941,16.302,14.609"/>
	<path fill="#813333" d="M1524.297,1870.174c0,7.668-7.3,13.885-16.302,13.885c-9.003,0-16.302-6.217-16.302-13.885"/>
	<rect x="1503.57" y="1853.867" fill="#FFFFFF" width="8.849" height="19.557"/>
	<g>
		<path fill="#663399" d="M1512.419,1873.424c0.132,8.525,11.878,7.055,11.878,7.055v-11.504c0,0-8.718-11.543-11.878-11.543
			C1512.419,1882.604,1512.419,1858.777,1512.419,1873.424z"/>
	</g>
	<g>
		<path fill="#663399" d="M1503.57,1873.424c-0.13,8.525-11.876,7.055-11.876,7.055v-11.504c0,0,8.716-11.543,11.876-11.543
			C1503.57,1882.604,1503.57,1858.777,1503.57,1873.424z"/>
	</g>
</g>
<g>
	<path fill="#FF8A33" d="M1511.389,1855.049l-3.299,4.252l-3.301-4.252v-5.805c0-1.641,1.478-2.973,3.301-2.973l0,0
		c1.822,0,3.299,1.332,3.299,2.973V1855.049z"/>
	<g>
		<circle fill="#FF8A33" cx="1508.432" cy="1836.09" r="19.214"/>
		<path fill="#4D3333" d="M1508.607,1819.689l13.194,0.918c-3.621-3.527-8.554-5.709-14.01-5.709c-11.103,0-20.104,9-20.104,20.104
			c0,3.688,0.247,2.305,3.227,6.062l1.461-0.52c1.813,0.391,4.922,0.488,4.898-1.566c-0.139-12.359,2.45-18.393,10.291-19.289
			H1508.607z"/>
		<path fill="#4D3333" d="M1509.099,1835.941c0,0.518-0.42,0.938-0.933,0.938c-0.52,0-0.937-0.42-0.937-0.938
			c0-0.514,0.417-0.932,0.937-0.932C1508.679,1835.01,1509.099,1835.428,1509.099,1835.941z"/>
		<path fill="#4D3333" d="M1524.273,1835.941c0,0.518-0.419,0.938-0.936,0.938s-0.936-0.42-0.936-0.938
			c0-0.514,0.419-0.932,0.936-0.932S1524.273,1835.428,1524.273,1835.941z"/>
		<path fill="#FF8A33" d="M1499.362,1838.9c0,2.439-1.978,4.418-4.418,4.418h-5.667c-2.441,0-4.418-1.979-4.418-4.418l0,0
			c0-2.439,1.977-4.418,4.418-4.418h5.667C1497.384,1834.482,1499.362,1836.461,1499.362,1838.9L1499.362,1838.9z"/>
		<path fill="#4D3333" d="M1521.662,1820.568c3.802,4.318-0.286,7.094-4.863,6.512c-3.537-0.449-8.245-2.086-12.109-6.264
			C1500.83,1816.645,1521.662,1820.568,1521.662,1820.568z"/>
		<path fill="#4D3333" d="M1497.378,1838.172c0,1.096-0.888,1.983-1.98,1.983l0,0c-1.096,0-1.984-0.887-1.984-1.983v-5.166
			c0-1.094,0.888-1.984,1.984-1.984l0,0c1.093,0,1.98,0.891,1.98,1.984V1838.172z"/>
		<path fill="#4D3333" d="M1530.058,1818.684L1530.058,1818.684c0,4.584-3.717,8.297-8.299,8.297h-2.372
			c-4.583,0-8.298-3.713-8.298-8.297l0,0"/>
		<path fill="#FF8A33" d="M1524.78,1816.809"/>
	</g>
</g>
<g>
	<g>
		<g>
			<g>
				<path fill="none" stroke="#4D3333" stroke-width="2.539" stroke-miterlimit="10" d="M1490.018,1893.016
					c-1.954,0.09-3.609-2.285-3.7-4.236l-0.19-4.127c-0.091-1.951,1.42-3.607,3.37-3.699l1.329-0.061
					c1.951-0.088,3.607,1.42,3.698,3.371l0.19,4.127c0.09,1.951-1.418,4.473-3.372,4.56L1490.018,1893.016z"/>
				<path fill="#4D3333" d="M1502.955,1899.342c0.004,1.145-0.921,2.076-2.065,2.08l-21.352,0.088
					c-1.143,0.006-2.075-0.916-2.081-2.062l-0.062-12.307c-0.005-1.143,0.918-2.076,2.062-2.08l21.353-0.09
					c1.146-0.006,2.077,0.92,2.082,2.062L1502.955,1899.342z"/>
			</g>
		</g>
	</g>
	<g>
		<g>
			<g>
				<path fill="#FF8A33" d="M1494.547,1880.399c-0.101,0.801-0.44,1.522-1.115,2.082c-0.657,0.556-1.565,0.957-2.567,1.003
					c-1.002,0.045-1.911-0.298-2.57-0.946c-0.639-0.643-1.114-1.592-0.997-2.621c0.118-2.101,2.076-3.456,4.026-3.063
					C1493.308,1877.25,1494.623,1878.821,1494.547,1880.399z"/>
				<path fill="#663399" d="M1487.244,1879.912c0,0,0.026-0.318,0.072-0.875c0.024-0.278,0.052-0.616,0.085-1.004
					c0.061-0.384,0.13-0.818,0.206-1.291c0.259-1.9,0.923-4.382,1.827-6.762c0.905-2.382,2.099-4.637,3.137-6.235
					c1.027-1.605,1.826-2.609,1.826-2.609c1.287-1.693,3.799-1.812,5.156-0.284c1.351,1.523,1.655,3.509,0.675,4.796
					c0,0-0.621,0.783-1.437,2.055c-0.826,1.264-1.767,3.058-2.479,4.932c-0.707,1.873-1.234,3.809-1.428,5.293
					c-0.061,0.369-0.116,0.707-0.166,1.006c-0.024,0.303-0.044,0.567-0.061,0.785c-0.036,0.435-0.056,0.683-0.056,0.683"/>
			</g>
		</g>
	</g>
	<g>
		<g>
			<g>
				<path fill="#FF8A33" d="M1528.691,1879.891c0.122,1.031-0.344,1.984-0.981,2.632c-0.655,0.653-1.561,1.003-2.563,0.963
					c-1.002-0.04-1.912-0.438-2.573-0.993c-0.68-0.558-1.022-1.28-1.128-2.082c-0.089-1.579,1.219-3.158,3.2-3.565
					C1526.593,1876.444,1528.561,1877.787,1528.691,1879.891z"/>
				<path fill="#663399" d="M1521.392,1880.415c0,0-0.022-0.249-0.061-0.684c-0.019-0.218-0.041-0.482-0.067-0.786
					c-0.051-0.3-0.109-0.638-0.172-1.007c-0.203-1.484-0.745-3.419-1.463-5.287c-0.722-1.869-1.676-3.655-2.509-4.912
					c-0.822-1.266-1.447-2.042-1.447-2.042c-0.985-1.28-0.689-3.26,0.658-4.787c1.347-1.537,3.854-1.436,5.15,0.246
					c0,0,0.803,0.997,1.84,2.594c1.048,1.589,2.252,3.836,3.173,6.212c0.919,2.373,1.598,4.854,1.869,6.754
					c0.079,0.473,0.151,0.907,0.215,1.291c0.035,0.388,0.066,0.726,0.091,1.005c0.049,0.557,0.077,0.876,0.077,0.876"/>
			</g>
		</g>
	</g>
</g>
<path fill="#994733" d="M1514.432,1847.008c0,0.406-0.329,0.734-0.735,0.734h-4.871c-0.406,0-0.735-0.328-0.735-0.734l0,0
	c0-0.406,0.329-0.736,0.735-0.736h4.871C1514.103,1846.271,1514.432,1846.601,1514.432,1847.008L1514.432,1847.008z"/>
<g>
	
		<line fill="none" stroke="#0C0000" stroke-width="11" stroke-linecap="round" stroke-miterlimit="10" x1="1426.352" y1="1860.502" x2="1384.784" y2="1860.023"/>
	<ellipse fill="#632121" cx="1429.053" cy="1858.737" rx="5.216" ry="4.661"/>
</g>
<g>
	<g>
		<path fill="none" stroke="#0C0000" stroke-width="9" stroke-miterlimit="10" d="M1383.062,1900.988c0,0,0-1.527,0-6.348
			c0-7.863-5.877-10.109-5.877-10.109"/>
	</g>
	<path fill="#632121" d="M1389.953,1901.361L1389.953,1901.361c0-2.33-1.889-4.219-4.22-4.219h-4.963
		c-2.33-0.002-4.219,1.887-4.219,4.219l0,0"/>
</g>
<g>
	<g>
		<path fill="none" stroke="#0C0000" stroke-width="9" stroke-miterlimit="10" d="M1363.419,1900.988c0,0,0-1.527,0-6.348
			c0-7.863,5.877-10.109,5.877-10.109"/>
	</g>
	<path fill="#632121" d="M1356.527,1901.361L1356.527,1901.361c0-2.33,1.889-4.219,4.22-4.219h4.963
		c2.33-0.002,4.219,1.887,4.219,4.219l0,0"/>
</g>
<g>
	<polygon fill="#0C0000" points="1357.846,1865.328 1367.358,1865.328 1367.358,1855.814 	"/>
	<polygon fill="#0C0000" points="1357.846,1870.351 1367.358,1870.351 1367.358,1860.84 	"/>
	<polygon fill="#0C0000" points="1357.846,1875.377 1367.358,1875.377 1367.358,1865.865 	"/>
	<polygon fill="#0C0000" points="1357.846,1880.402 1367.358,1880.402 1367.358,1870.891 	"/>
	<polygon fill="#0C0000" points="1357.846,1884.771 1367.358,1884.771 1367.358,1875.258 	"/>
</g>
<g>
	<polygon fill="#0C0000" points="1389.272,1870.225 1379.76,1870.225 1379.76,1860.711 	"/>
	<polygon fill="#0C0000" points="1389.272,1875.248 1379.76,1875.248 1379.76,1865.736 	"/>
	<polygon fill="#0C0000" points="1389.272,1880.273 1379.76,1880.273 1379.76,1870.762 	"/>
	<polygon fill="#0C0000" points="1389.272,1885.299 1379.76,1885.299 1379.76,1875.787 	"/>
</g>
<path fill="#632121" d="M1382.007,1881.834c0,4.682-3.794,8.475-8.476,8.477l0,0c-4.681,0-8.476-3.795-8.477-8.477l0.001-11.057
	c0-4.682,3.794-8.475,8.476-8.477l0,0c4.681,0.002,8.476,3.795,8.476,8.477V1881.834z"/>
<g>
	<path fill="none" stroke="#0C0000" stroke-width="11" stroke-linecap="round" stroke-miterlimit="10" d="M1338.547,1884.75
		c0.001-14.988,12.149-27.137,27.137-27.137"/>
	<circle fill="#632121" cx="1339.312" cy="1888.164" r="4.662"/>
</g>
<g>
	<rect x="1395.861" y="1840.064" fill="#632121" width="7.841" height="7.841"/>
	<rect x="1346.326" y="1840.064" fill="#632121" width="7.841" height="7.841"/>
	<g>
		<circle fill="#632121" cx="1395.86" cy="1847.906" r="7.842"/>
		<circle fill="#0C0000" cx="1395.861" cy="1847.906" r="5.297"/>
	</g>
	<g>
		<circle fill="#632121" cx="1375.228" cy="1848.078" r="17.373"/>
	</g>
	<path fill="#CC6633" d="M1362.103,1863.568c0,5.582,4.527,10.109,10.109,10.109h15.238c5.583,0,10.11-4.527,10.11-10.109v-1.531
		c0-5.584-4.527-10.109-10.11-10.109h-15.238c-5.582,0-10.109,4.525-10.109,10.109V1863.568z"/>
	<g>
		<g>
			<path d="M1382.928,1847.351c0,0.801,0.647,1.449,1.445,1.449c0.804,0,1.452-0.648,1.452-1.449c0-0.797-0.648-1.445-1.452-1.445
				C1383.575,1845.906,1382.928,1846.555,1382.928,1847.351z"/>
			<path d="M1373.838,1847.351c0,0.801,0.647,1.449,1.448,1.449c0.799,0,1.45-0.648,1.45-1.449c0-0.797-0.651-1.445-1.45-1.445
				C1374.485,1845.906,1373.838,1846.555,1373.838,1847.351z"/>
		</g>
		<rect x="1373.559" y="1843.906" fill="#0C0000" width="12.286" height="2.703"/>
	</g>
	<rect x="1381.271" y="1851.682" fill="#0C0000" width="4.654" height="2.553"/>
	<rect x="1373.838" y="1851.682" fill="#0C0000" width="4.653" height="2.553"/>
	<g>
		<rect x="1362.009" y="1857.113" fill="#FF3399" width="37.475" height="13.818"/>
		<g>
			<rect x="1391.893" y="1859.273" fill="#FFFFFF" width="4.598" height="3.15"/>
			<rect x="1385.032" y="1859.273" fill="#FFFFFF" width="4.599" height="3.15"/>
			<rect x="1378.173" y="1859.273" fill="#FFFFFF" width="4.599" height="3.15"/>
			<rect x="1371.313" y="1859.273" fill="#FFFFFF" width="4.598" height="3.15"/>
			<rect x="1364.624" y="1859.273" fill="#FFFFFF" width="4.599" height="3.15"/>
		</g>
		<g>
			<rect x="1391.893" y="1865.621" fill="#FFFFFF" width="4.598" height="3.15"/>
			<rect x="1385.032" y="1865.621" fill="#FFFFFF" width="4.599" height="3.15"/>
			<rect x="1378.173" y="1865.621" fill="#FFFFFF" width="4.599" height="3.15"/>
			<rect x="1371.313" y="1865.621" fill="#FFFFFF" width="4.598" height="3.15"/>
			<rect x="1364.624" y="1865.621" fill="#FFFFFF" width="4.599" height="3.15"/>
		</g>
		<rect x="1364.624" y="1862.424" fill="#0C0000" width="31.866" height="3.197"/>
	</g>
	<g>
		<circle fill="#632121" cx="1354.167" cy="1847.908" r="7.842"/>
		<circle fill="#0C0000" cx="1354.167" cy="1847.908" r="5.297"/>
	</g>
	<polygon fill="#0C0000" points="1377.401,1835.461 1386.914,1835.461 1386.914,1825.949 	"/>
	<polygon fill="#0C0000" points="1374.053,1835.461 1364.54,1835.461 1364.54,1825.949 	"/>
</g>
<rect x="1423.835" y="1811.795" width="2.517" height="89.594"/>
<rect x="1434.011" y="1810.57" width="2.517" height="18.605"/>
<rect x="1414.404" y="1810.57" width="2.517" height="18.605"/>
<rect x="1414.404" y="1827.949" width="21.949" height="2.451"/>
</svg>
