<?xml version="1.0" encoding="utf-8"?>
<!-- Generator: Adobe Illustrator 17.0.0, SVG Export Plug-In . SVG Version: 6.00 Build 0)  -->
<!DOCTYPE svg PUBLIC "-//W3C//DTD SVG 1.1//EN" "http://www.w3.org/Graphics/SVG/1.1/DTD/svg11.dtd">
<svg version="1.1" id="Слой_1" xmlns="http://www.w3.org/2000/svg" xmlns:xlink="http://www.w3.org/1999/xlink" x="0px" y="0px"
	 width="3000px" height="286.721px" viewBox="-579.62 0 3000 286.721" enable-background="new -579.62 0 3000 286.721"
	 xml:space="preserve">
<rect x="-579.62" y="6.844" fill="#996633" width="3000" height="278.959"/>
<rect x="-579.62" y="-1" fill="#CC9933" width="3000" height="11.199"/>
<g>
	<rect x="-579.62" y="53.955" fill="#B68233" width="2999.931" height="42.219"/>
	<rect x="-414.572" y="53.955" fill="#B68233" width="99.888" height="42.219"/>
	<rect x="-300.01" y="53.955" fill="#B68233" width="99.888" height="42.219"/>
	<rect x="43.682" y="53.955" fill="#B68233" width="99.89" height="42.219"/>
	<rect x="-185.446" y="53.955" fill="#B68233" width="99.892" height="42.219"/>
	<rect x="-70.88" y="53.955" fill="#B68233" width="99.888" height="42.219"/>
	<rect x="272.813" y="53.955" fill="#B68233" width="99.89" height="42.219"/>
	<rect x="158.248" y="53.955" fill="#B68233" width="99.888" height="42.219"/>
	<rect x="501.942" y="53.955" fill="#B68233" width="99.886" height="42.219"/>
	<rect x="387.378" y="53.955" fill="#B68233" width="99.889" height="42.219"/>
	<rect x="616.506" y="53.955" fill="#B68233" width="99.889" height="42.219"/>
	<rect x="731.069" y="53.955" fill="#B68233" width="99.888" height="42.219"/>
	<rect x="845.635" y="53.955" fill="#B68233" width="99.888" height="42.219"/>
	<rect x="1189.326" y="53.955" fill="#B68233" width="99.891" height="42.219"/>
	<rect x="960.198" y="53.955" fill="#B68233" width="99.889" height="42.219"/>
	<rect x="1074.762" y="53.955" fill="#B68233" width="99.889" height="42.219"/>
	<rect x="1418.456" y="53.955" fill="#B68233" width="99.888" height="42.219"/>
	<rect x="1303.891" y="53.955" fill="#B68233" width="99.889" height="42.219"/>
	<rect x="-465.046" y="105.769" fill="#B68233" width="99.888" height="42.217"/>
	<rect x="-350.482" y="105.769" fill="#B68233" width="99.889" height="42.217"/>
	<rect x="-579.62" y="105.769" fill="#B68233" width="3000" height="42.217"/>
	<rect x="-235.918" y="105.769" fill="#B68233" width="99.888" height="42.217"/>
	<rect x="107.775" y="105.769" fill="#B68233" width="99.888" height="42.217"/>
	<rect x="-121.353" y="105.769" fill="#B68233" width="99.89" height="42.217"/>
	<rect x="-6.789" y="105.769" fill="#B68233" width="99.888" height="42.217"/>
	<rect x="336.904" y="105.769" fill="#B68233" width="99.889" height="42.217"/>
	<rect x="222.34" y="105.769" fill="#B68233" width="99.888" height="42.217"/>
	<rect x="566.032" y="105.769" fill="#B68233" width="99.889" height="42.217"/>
	<rect x="451.468" y="105.769" fill="#B68233" width="99.889" height="42.217"/>
	<rect x="680.599" y="105.769" fill="#B68233" width="99.888" height="42.217"/>
	<rect x="795.161" y="105.769" fill="#B68233" width="99.889" height="42.217"/>
	<rect x="909.726" y="105.769" fill="#B68233" width="99.89" height="42.217"/>
	<rect x="1253.418" y="105.769" fill="#B68233" width="99.89" height="42.217"/>
	<rect x="1024.291" y="105.769" fill="#B68233" width="99.889" height="42.217"/>
	<rect x="1138.854" y="105.769" fill="#B68233" width="99.889" height="42.217"/>
	<rect x="1367.983" y="105.769" fill="#B68233" width="99.889" height="42.217"/>
	<rect x="1535.885" y="53.955" fill="#B68233" width="99.889" height="42.219"/>
	<rect x="1650.448" y="53.955" fill="#B68233" width="99.888" height="42.219"/>
	<rect x="1994.14" y="53.955" fill="#B68233" width="99.89" height="42.219"/>
	<rect x="1765.013" y="53.955" fill="#B68233" width="99.888" height="42.219"/>
	<rect x="1879.576" y="53.955" fill="#B68233" width="99.889" height="42.219"/>
	<rect x="2223.271" y="53.955" fill="#B68233" width="99.888" height="42.219"/>
	<rect x="2108.705" y="53.955" fill="#B68233" width="99.89" height="42.219"/>
	<rect x="1485.413" y="105.769" fill="#B68233" width="99.888" height="42.217"/>
	<rect x="1599.976" y="105.769" fill="#B68233" width="99.889" height="42.217"/>
	<rect x="1714.54" y="105.769" fill="#B68233" width="99.887" height="42.217"/>
	<rect x="2058.233" y="105.769" fill="#B68233" width="99.889" height="42.217"/>
	<rect x="1829.105" y="105.769" fill="#B68233" width="99.889" height="42.217"/>
	<rect x="1943.668" y="105.769" fill="#B68233" width="99.89" height="42.217"/>
	<rect x="2172.798" y="105.769" fill="#B68233" width="99.888" height="42.217"/>
</g>
<g>
	<rect x="-579.62" y="157.246" fill="#B68233" width="2999.931" height="42.219"/>
	<rect x="-414.572" y="157.246" fill="#B68233" width="99.888" height="42.219"/>
	<rect x="-300.01" y="157.246" fill="#B68233" width="99.888" height="42.219"/>
	<rect x="43.682" y="157.246" fill="#B68233" width="99.89" height="42.219"/>
	<rect x="-185.446" y="157.246" fill="#B68233" width="99.892" height="42.219"/>
	<rect x="-70.88" y="157.246" fill="#B68233" width="99.888" height="42.219"/>
	<rect x="272.813" y="157.246" fill="#B68233" width="99.89" height="42.219"/>
	<rect x="158.248" y="157.246" fill="#B68233" width="99.888" height="42.219"/>
	<rect x="501.942" y="157.246" fill="#B68233" width="99.886" height="42.219"/>
	<rect x="387.378" y="157.246" fill="#B68233" width="99.889" height="42.219"/>
	<rect x="616.506" y="157.246" fill="#B68233" width="99.889" height="42.219"/>
	<rect x="731.069" y="157.246" fill="#B68233" width="99.888" height="42.219"/>
	<rect x="845.635" y="157.246" fill="#B68233" width="99.888" height="42.219"/>
	<rect x="1189.326" y="157.246" fill="#B68233" width="99.891" height="42.219"/>
	<rect x="960.198" y="157.246" fill="#B68233" width="99.889" height="42.219"/>
	<rect x="1074.762" y="157.246" fill="#B68233" width="99.889" height="42.219"/>
	<rect x="1418.456" y="157.246" fill="#B68233" width="99.888" height="42.219"/>
	<rect x="1303.891" y="157.246" fill="#B68233" width="99.889" height="42.219"/>
	<rect x="1535.885" y="157.246" fill="#B68233" width="99.889" height="42.219"/>
	<rect x="1650.448" y="157.246" fill="#B68233" width="99.888" height="42.219"/>
	<rect x="1994.14" y="157.246" fill="#B68233" width="99.89" height="42.219"/>
	<rect x="1765.013" y="157.246" fill="#B68233" width="99.888" height="42.219"/>
	<rect x="1879.576" y="157.246" fill="#B68233" width="99.889" height="42.219"/>
	<rect x="2223.271" y="157.246" fill="#B68233" width="99.888" height="42.219"/>
	<rect x="2108.705" y="157.246" fill="#B68233" width="99.89" height="42.219"/>
</g>
<g>
	<g>
		<g>
			<path fill="#996633" d="M26.677,134.127c-11.597-6.088-26.175-9.049-44.568-9.049h-23.466V73.973h68.283
				c4.873,0,8.824-3.951,8.824-8.824V54.014c0-4.873-3.951-8.824-8.824-8.824h-89.354c-4.873,0-8.824,3.951-8.824,8.824v185.664
				c0,4.873,3.951,8.824,8.824,8.824h48.436c22.391,0,40.642-6.834,52.78-19.764c10.427-11.107,16.169-26.697,16.169-43.896
				C54.955,161.377,45.177,143.842,26.677,134.127z M24.504,184.842c0,13.654-4.873,21.17-8.961,25.072
				c-0.025,0.023-0.051,0.049-0.077,0.074c-9.954,9.73-24.124,9.73-34.471,9.73h-22.353v-65.857h20.126
				c10.859,0,22.087,0,31.348,4.605C20.2,163.717,24.504,171.609,24.504,184.842z"/>
			<path fill="#996633" d="M233.962,43.766c-0.98-0.353-1.993-0.525-2.996-0.525c-2.574,0-5.08,1.129-6.789,3.186L107.29,187.133
				V54.014c0-4.873-3.951-8.824-8.824-8.824H86.218c-4.873,0-8.824,3.951-8.824,8.824V244.41c0,3.717,2.33,7.035,5.826,8.299
				c0.981,0.354,1.993,0.525,2.996,0.525c2.574,0,5.08-1.129,6.789-3.186l116.889-140.707v130.336c0,4.873,3.951,8.824,8.824,8.824
				h12.247c4.873,0,8.824-3.951,8.824-8.824V52.064C239.788,48.348,237.458,45.029,233.962,43.766z"/>
			<path fill="#996633" d="M375.79,135.217c9.952-9.969,15.431-23.305,15.431-38.336c0-16.26-5.583-30.033-16.148-39.84
				c-10.203-9.662-23.195-14.357-39.718-14.357c-32.458,0-49.414,16.686-57.924,30.686c-2.258,3.715-1.474,8.521,1.849,11.326
				l8.907,7.516c1.603,1.354,3.622,2.082,5.69,2.082c0.439,0,0.88-0.033,1.319-0.1c2.513-0.381,4.74-1.826,6.111-3.965
				c8.088-12.625,18.77-18.762,32.655-18.762c9.271,0,15.796,2.377,20.535,7.479c4.213,4.565,6.271,10.438,6.271,17.936
				c0,8.537-2.99,15.814-8.648,21.043c-5.111,4.725-12.135,7.434-19.271,7.434h-16.701c-4.873,0-8.824,3.951-8.824,8.824v11.133
				c0,4.873,3.951,8.824,8.824,8.824h16.701c13.108,0,23.734,3.064,30.731,8.861c6.631,5.494,9.993,13.406,9.993,23.512
				c0,16.684-7.698,24.865-12.288,28.256c-0.017,0.014-0.033,0.025-0.05,0.037c-5.963,4.475-17.698,7.979-26.716,7.979
				c-15.318,0-35.507-8.846-43.636-28.266c-0.932-2.227-2.735-3.975-4.99-4.836c-1.016-0.389-2.083-0.582-3.149-0.582
				c-1.299,0-2.596,0.287-3.794,0.857l-11.691,5.568c-4.354,2.074-6.238,7.258-4.228,11.643
				c5.698,12.432,14.439,23.039,25.277,30.678c12.919,9.104,28.185,13.719,45.375,13.719c4.535,0,28.042-0.645,45.552-13.379
				c7.461-5.445,24.789-21.363,24.789-51.674C404.026,163.859,393.538,145.352,375.79,135.217z"/>
			<path fill="#996633" d="M572.239,45.189h-12.248c-4.873,0-8.824,3.951-8.824,8.824v69.951h-94.81V54.014
				c0-4.873-3.951-8.824-8.824-8.824h-12.248c-4.873,0-8.824,3.951-8.824,8.824v185.664c0,4.873,3.951,8.824,8.824,8.824h12.248
				c4.873,0,8.824-3.951,8.824-8.824v-86.932h94.81v86.932c0,4.873,3.951,8.824,8.824,8.824h12.248c4.873,0,8.824-3.951,8.824-8.824
				V54.014C581.063,49.141,577.112,45.189,572.239,45.189z"/>
			<path fill="#996633" d="M711.423,45.189h-89.075c-4.873,0-8.824,3.951-8.824,8.824v185.664c0,4.873,3.951,8.824,8.824,8.824
				h89.075c4.873,0,8.824-3.951,8.824-8.824v-11.135c0-4.873-3.951-8.824-8.824-8.824h-68.003v-67.25h66.333
				c4.873,0,8.824-3.951,8.824-8.824V132.51c0-4.873-3.951-8.824-8.824-8.824h-66.333V73.973h68.003
				c4.873,0,8.824-3.951,8.824-8.824V54.014C720.246,49.141,716.296,45.189,711.423,45.189z"/>
			<path fill="#996633" d="M837.799,42.684c-28.227,0-54.654,10.795-74.413,30.396c-19.812,19.654-30.724,46-30.724,74.184
				c0,27.734,10.696,53.791,30.117,73.369c19.788,19.947,46.627,30.932,75.576,30.932c25.117,0,49.136-8.988,67.634-25.311
				c1.898-1.676,2.986-4.086,2.986-6.617v-16.145c0-3.637-2.232-6.902-5.62-8.223c-1.042-0.404-2.127-0.602-3.202-0.602
				c-2.423,0-4.795,0.998-6.5,2.854c-21.538,23.439-48.197,25.262-55.855,25.262c-17.607,0-36.32-7.127-50.059-19.062
				c-11.234-9.762-24.625-27.381-24.625-55.9c0-20.645,7.562-39.859,21.294-54.105c13.828-14.348,32.69-22.248,53.111-22.248
				c21.409,0,41.788,9.521,55.91,26.121c1.709,2.01,4.185,3.107,6.723,3.107c1.02,0,2.049-0.178,3.044-0.543
				c3.471-1.277,5.778-4.584,5.778-8.281V75.725c0-2.42-0.993-4.732-2.748-6.398C897.792,61.314,874.239,42.684,837.799,42.684z"/>
			<path fill="#996633" d="M1161.532,219.719H1149.2V54.014c0-4.873-3.95-8.824-8.824-8.824h-12.248
				c-4.873,0-8.824,3.951-8.824,8.824v165.705h-93.139V54.014c0-4.873-3.95-8.824-8.824-8.824h-12.248
				c-4.873,0-8.824,3.951-8.824,8.824v185.664c0,4.873,3.951,8.824,8.824,8.824h135.923v28.476c0,4.873,3.95,8.824,8.824,8.824
				h11.691c4.873,0,8.824-3.951,8.824-8.824v-48.435C1170.355,223.67,1166.405,219.719,1161.532,219.719z"/>
			<path fill="#996633" d="M1279.558,45.189h-89.075c-4.873,0-8.824,3.951-8.824,8.824v185.664c0,4.873,3.95,8.824,8.824,8.824
				h89.075c4.873,0,8.824-3.951,8.824-8.824v-11.135c0-4.873-3.95-8.824-8.824-8.824h-68.003v-67.25h66.333
				c4.873,0,8.824-3.951,8.824-8.824V132.51c0-4.873-3.95-8.824-8.824-8.824h-66.333V73.973h68.003c4.873,0,8.824-3.951,8.824-8.824
				V54.014C1288.381,49.141,1284.431,45.189,1279.558,45.189z"/>
			<path fill="#996633" d="M1456.594,45.189h-12.248c-4.873,0-8.824,3.951-8.824,8.824v69.951h-94.809V54.014
				c0-4.873-3.95-8.824-8.824-8.824h-12.248c-4.873,0-8.824,3.951-8.824,8.824v185.664c0,4.873,3.95,8.824,8.824,8.824h12.248
				c4.874,0,8.824-3.951,8.824-8.824v-86.932h94.809v86.932c0,4.873,3.951,8.824,8.824,8.824h12.248
				c4.873,0,8.824-3.951,8.824-8.824V54.014C1465.418,49.141,1461.468,45.189,1456.594,45.189z"/>
			<path fill="#996633" d="M1594.109,45.189h-108.561c-4.873,0-8.824,3.951-8.824,8.824v11.135c0,4.873,3.951,8.824,8.824,8.824
				h39.333v165.705c0,4.873,3.951,8.824,8.824,8.824h12.248c4.873,0,8.824-3.951,8.824-8.824V73.973h39.333
				c4.873,0,8.824-3.951,8.824-8.824V54.014C1602.933,49.141,1598.982,45.189,1594.109,45.189z"/>
			<path fill="#996633" d="M1703.134,59.551c-11.281-9.395-26.553-14.361-44.164-14.361h-35.908c-4.873,0-8.824,3.951-8.824,8.824
				v185.664c0,4.873,3.951,8.824,8.824,8.824h12.248c4.873,0,8.824-3.951,8.824-8.824v-79.416h15.116
				c18.134,0,33.641-5.227,44.844-15.117c11.763-10.385,17.98-25.148,17.98-42.697C1722.073,84.701,1715.524,69.867,1703.134,59.551
				z M1659.804,131.48h-15.671V73.973h13.723c12.61,0,33.765,3.734,33.765,28.754C1691.621,120.73,1679.727,131.48,1659.804,131.48z
				"/>
		</g>
	</g>
	<g>
		
			<line fill="none" stroke="#000000" stroke-width="10.9752" stroke-miterlimit="10" x1="15.043" y1="26.678" x2="15.043" y2="198.978"/>
		
			<line fill="none" stroke="#000000" stroke-width="10.9752" stroke-miterlimit="10" x1="289.292" y1="203.666" x2="289.292" y2="40.084"/>
		
			<line fill="none" stroke="#000000" stroke-width="10.9752" stroke-miterlimit="10" x1="673.487" y1="26.678" x2="673.487" y2="217.072"/>
		
			<line fill="none" stroke="#000000" stroke-width="10.9752" stroke-miterlimit="10" x1="1483.821" y1="217.072" x2="1483.821" y2="26.678"/>
		
			<line fill="none" stroke="#000000" stroke-width="10.9752" stroke-miterlimit="10" x1="1571.622" y1="26.678" x2="1571.622" y2="217.072"/>
		
			<line fill="none" stroke="#000000" stroke-width="10.9752" stroke-miterlimit="10" x1="1687.891" y1="74.252" x2="1687.891" y2="220.072"/>
		
			<line fill="none" stroke="#000000" stroke-width="10.9752" stroke-miterlimit="10" x1="1258.073" y1="26.678" x2="1258.073" y2="217.072"/>
		
			<line fill="none" stroke="#000000" stroke-width="10.9752" stroke-miterlimit="10" x1="79.138" y1="58.031" x2="212.68" y2="58.031"/>
		
			<line fill="none" stroke="#000000" stroke-width="10.9752" stroke-miterlimit="10" x1="212.68" y1="183.469" x2="79.138" y2="183.469"/>
		
			<line fill="none" stroke="#000000" stroke-width="10.9752" stroke-miterlimit="10" x1="420.249" y1="58.031" x2="553.792" y2="58.031"/>
		
			<line fill="none" stroke="#000000" stroke-width="10.9752" stroke-miterlimit="10" x1="1308.437" y1="58.031" x2="1441.979" y2="58.031"/>
		
			<line fill="none" stroke="#000000" stroke-width="10.9752" stroke-miterlimit="10" x1="1001.904" y1="58.031" x2="1135.447" y2="58.031"/>
		
			<line fill="none" stroke="#000000" stroke-width="10.9752" stroke-miterlimit="10" x1="553.792" y1="183.469" x2="420.249" y2="183.469"/>
		
			<line fill="none" stroke="#000000" stroke-width="10.9752" stroke-miterlimit="10" x1="869.639" y1="39.488" x2="869.639" y2="204.262"/>
		
			<line fill="none" stroke="#000000" stroke-width="10.9752" stroke-miterlimit="10" x1="1308.437" y1="184.666" x2="1441.979" y2="184.666"/>
	</g>
	<g>
		<g>
			<path fill="#FFFFFF" d="M-76.758,216.754c-2.437,0-4.412-1.976-4.412-4.412V26.677c0-2.437,1.976-4.412,4.412-4.412h89.354
				c2.437,0,4.412,1.976,4.412,4.412v11.133c0,2.437-1.976,4.412-4.412,4.412h-72.694v59.931h27.878
				c56.562,0,68.435,30.1,68.435,55.35c0,28.644-16.954,59.25-64.537,59.25H-76.758z M-33.333,196.795
				c10.479,0,26.315,0,37.555-10.99c4.75-4.533,10.365-13.085,10.365-28.301c0-14.935-5.189-24.286-16.827-30.32
				c-10.146-5.073-22.458-5.073-33.321-5.073h-24.537v74.684H-33.333z"/>
			<path fill="#FFCC00" d="M12.597,26.678v11.133h-77.106v68.756h32.29c22.547,0,64.023,4.453,64.023,50.938
				c0,27.838-16.701,54.838-60.125,54.838h-48.436V26.678H12.597 M-64.509,201.207h31.177c10.855,0,28.114,0,40.64-12.248
				c6.124-5.844,11.692-15.865,11.692-31.455c0-13.916-4.177-26.443-19.208-34.236c-11.135-5.568-23.938-5.568-35.352-5.568h-28.949
				V201.207 M12.597,17.854h-89.354c-4.873,0-8.824,3.95-8.824,8.824v185.664c0,4.873,3.951,8.824,8.824,8.824h48.436
				c22.391,0,40.642-6.834,52.78-19.764c10.427-11.107,16.169-26.697,16.169-43.897c0-23.464-9.778-41-28.278-50.713
				c-11.597-6.089-26.175-9.048-44.568-9.048h-23.466V46.634h68.283c4.873,0,8.824-3.951,8.824-8.824V26.678
				C21.421,21.804,17.47,17.854,12.597,17.854L12.597,17.854z M-55.686,126.523h20.125c10.86,0,22.089,0,31.35,4.609
				c10.083,5.25,14.386,13.141,14.386,26.372c0,13.655-4.873,21.171-8.96,25.071c-0.026,0.025-0.052,0.05-0.077,0.075
				c-9.954,9.733-24.124,9.733-34.471,9.733h-22.353V126.523L-55.686,126.523z"/>
		</g>
		<g>
			<path fill="#FFFFFF" d="M71.888,221.484c-0.501,0-1.007-0.086-1.498-0.263c-1.749-0.631-2.914-2.291-2.914-4.149V26.677
				c0-2.437,1.976-4.412,4.412-4.412h12.249c2.437,0,4.412,1.976,4.412,4.412V172.01L213.242,21.909
				c0.854-1.029,2.107-1.593,3.395-1.593c0.501,0,1.007,0.085,1.498,0.263c1.749,0.631,2.914,2.291,2.914,4.149v187.613
				c0,2.437-1.976,4.412-4.412,4.412h-12.247c-2.437,0-4.412-1.976-4.412-4.412V69.789L75.282,219.891
				C74.428,220.92,73.175,221.484,71.888,221.484z"/>
			<path fill="#FFCC00" d="M216.636,24.729v187.613h-12.247V57.574l-132.5,159.498V26.678h12.249v157.549L216.636,24.729
				 M216.638,15.904c-2.574,0-5.079,1.128-6.789,3.186L92.962,159.796V26.678c0-4.873-3.951-8.824-8.824-8.824H71.889
				c-4.873,0-8.824,3.951-8.824,8.824v190.395c0,3.717,2.33,7.036,5.826,8.299c0.98,0.354,1.993,0.525,2.996,0.525
				c2.574,0,5.08-1.128,6.789-3.186L195.565,82.005v130.337c0,4.873,3.95,8.824,8.824,8.824h12.247c4.873,0,8.824-3.951,8.824-8.824
				V24.729c0-3.718-2.33-7.036-5.826-8.299C218.653,16.075,217.64,15.904,216.638,15.904L216.638,15.904z"/>
		</g>
		<g>
			<path fill="#FFFFFF" d="M319.355,219.816c-29.725,0-54.638-15.635-66.641-41.824c-1.005-2.191-0.063-4.785,2.114-5.821
				l11.691-5.566c0.599-0.285,1.247-0.429,1.896-0.429c0.533,0,1.067,0.097,1.575,0.291c1.127,0.431,2.029,1.305,2.495,2.418
				c8.908,21.28,30.973,30.973,47.706,30.973c10.006,0,22.629-3.809,29.364-8.859c5.282-3.904,14.101-13.204,14.101-31.822
				c0-23.377-16.451-36.785-45.136-36.785H301.82c-2.437,0-4.412-1.976-4.412-4.412v-11.134c0-2.437,1.976-4.412,4.412-4.412h16.701
				c15.673,0,32.331-11.526,32.331-32.889c0-8.658-2.439-15.51-7.459-20.948c-5.622-6.053-13.174-8.876-23.758-8.876
				c-15.294,0-27.531,6.995-36.37,20.792c-0.686,1.07-1.799,1.792-3.055,1.982c-0.22,0.033-0.44,0.05-0.66,0.05
				c-1.035,0-2.044-0.364-2.845-1.04l-8.907-7.516c-1.662-1.402-2.054-3.806-0.925-5.664c7.921-13.032,23.746-28.566,54.154-28.566
				c15.357,0,27.368,4.312,36.717,13.182c9.765,9.042,14.737,21.369,14.737,36.604c0,16.272-6.611,29.963-18.82,39.39
				c19.73,8.484,31.625,27.004,31.625,50.242c0,28.287-16.062,43.062-22.967,48.101C345.906,219.212,323.65,219.816,319.355,219.816
				z"/>
			<path fill="#FFCC00" d="M321.027,24.17c9.742,0,22.825,1.672,33.681,11.971c7.516,6.959,13.361,17.537,13.361,33.402
				c0,20.043-10.855,33.404-24.496,40.641c24.496,6.125,37.301,25.889,37.301,48.992c0,22.268-10.856,37.021-21.155,44.537
				c-15.309,11.133-36.466,11.691-40.363,11.691c-33.124,0-53.444-19.207-62.63-39.25l11.691-5.566
				c10.021,23.94,34.238,33.682,51.776,33.682c10.577,0,24.217-3.896,32.011-9.742c6.402-4.733,15.866-15.311,15.866-35.352
				c0-25.887-18.649-41.197-49.548-41.197H301.82v-11.135h16.701c18.371,0,36.743-13.639,36.743-37.301
				c0-8.072-1.948-16.701-8.629-23.939c-7.238-7.793-16.701-10.297-27-10.297c-13.64,0-28.672,5.01-40.085,22.824l-8.907-7.516
				C279.272,36.418,294.581,24.17,321.027,24.17 M321.027,15.346c-32.459,0-49.415,16.687-57.924,30.686
				c-2.259,3.716-1.473,8.523,1.85,11.327l8.907,7.516c1.602,1.352,3.622,2.08,5.69,2.08c0.439,0,0.88-0.033,1.319-0.099
				c2.513-0.38,4.74-1.825,6.111-3.965c8.088-12.624,18.769-18.76,32.655-18.76c9.271,0,15.796,2.376,20.535,7.478
				c4.213,4.565,6.271,10.438,6.271,17.935c0,8.538-2.99,15.815-8.648,21.044c-5.111,4.724-12.135,7.433-19.272,7.433H301.82
				c-4.873,0-8.824,3.95-8.824,8.824v11.135c0,4.873,3.95,8.824,8.824,8.824h16.701c13.108,0,23.734,3.064,30.731,8.862
				c6.631,5.494,9.993,13.405,9.993,23.512c0,16.682-7.698,24.864-12.287,28.256c-0.016,0.012-0.033,0.025-0.049,0.037
				c-5.964,4.473-17.699,7.977-26.716,7.977c-15.318,0-35.507-8.845-43.636-28.265c-0.932-2.226-2.735-3.974-4.99-4.836
				c-1.016-0.388-2.084-0.581-3.15-0.581c-1.299,0-2.596,0.287-3.793,0.857l-11.691,5.566c-4.355,2.073-6.238,7.259-4.228,11.643
				c5.698,12.431,14.438,23.039,25.277,30.677c12.919,9.104,28.185,13.72,45.375,13.72c4.534,0,28.041-0.645,45.552-13.379
				c7.462-5.445,24.79-21.362,24.79-51.674c0-22.653-10.488-41.16-28.236-51.295c9.952-9.97,15.431-23.306,15.431-38.338
				c0-16.26-5.585-30.035-16.15-39.84C350.539,20.042,337.548,15.346,321.027,15.346L321.027,15.346z"/>
		</g>
		<g>
			<path fill="#FFFFFF" d="M545.662,216.754c-2.437,0-4.412-1.976-4.412-4.412v-91.343H437.617v91.343
				c0,2.437-1.976,4.412-4.412,4.412h-12.248c-2.437,0-4.412-1.976-4.412-4.412V26.677c0-2.437,1.976-4.412,4.412-4.412h12.248
				c2.437,0,4.412,1.976,4.412,4.412v74.362H541.25V26.677c0-2.437,1.976-4.412,4.412-4.412h12.248c2.437,0,4.412,1.976,4.412,4.412
				v185.664c0,2.437-1.976,4.412-4.412,4.412H545.662z"/>
			<path fill="#FFCC00" d="M557.91,26.678v185.664h-12.248v-95.756H433.205v95.756h-12.248V26.678h12.248v78.773h112.457V26.678
				H557.91 M557.91,17.854h-12.248c-4.873,0-8.824,3.95-8.824,8.824v69.95h-94.81v-69.95c0-4.873-3.95-8.824-8.824-8.824h-12.248
				c-4.873,0-8.824,3.95-8.824,8.824v185.664c0,4.873,3.951,8.824,8.824,8.824h12.248c4.873,0,8.824-3.951,8.824-8.824V125.41h94.81
				v86.932c0,4.873,3.951,8.824,8.824,8.824h12.248c4.873,0,8.824-3.951,8.824-8.824V26.678
				C566.734,21.804,562.784,17.854,557.91,17.854L557.91,17.854z"/>
		</g>
		<g>
			<path fill="#FFFFFF" d="M608.019,216.754c-2.437,0-4.412-1.976-4.412-4.412V26.677c0-2.437,1.976-4.412,4.412-4.412h89.075
				c2.437,0,4.412,1.976,4.412,4.412v11.133c0,2.437-1.976,4.412-4.412,4.412h-72.415v58.539h70.745
				c2.437,0,4.412,1.976,4.412,4.412v11.135c0,2.437-1.976,4.412-4.412,4.412h-70.745v76.074h72.415
				c2.437,0,4.412,1.976,4.412,4.412v11.135c0,2.437-1.976,4.412-4.412,4.412H608.019z"/>
			<path fill="#FFCC00" d="M697.094,26.678v11.133h-76.827v67.363h75.157v11.135h-75.157v84.898h76.827v11.135h-89.075V26.678
				H697.094 M697.094,17.854h-89.075c-4.873,0-8.824,3.95-8.824,8.824v185.664c0,4.873,3.951,8.824,8.824,8.824h89.075
				c4.873,0,8.824-3.951,8.824-8.824v-11.135c0-4.873-3.951-8.824-8.824-8.824h-68.003v-67.251h66.333
				c4.873,0,8.824-3.951,8.824-8.824v-11.135c0-4.873-3.95-8.824-8.824-8.824h-66.333V46.634h68.003
				c4.873,0,8.824-3.951,8.824-8.824V26.678C705.918,21.804,701.967,17.854,697.094,17.854L697.094,17.854z"/>
		</g>
		<g>
			<path fill="#FFFFFF" d="M824.027,219.816c-27.763,0-53.491-10.522-72.443-29.628c-18.597-18.745-28.838-43.698-28.838-70.261
				c0-27,10.448-52.233,29.419-71.053c18.928-18.776,44.251-29.117,71.306-29.117c34.851,0,57.34,17.784,65.391,25.43
				c0.877,0.833,1.374,1.99,1.374,3.199v16.146c0,1.849-1.153,3.502-2.889,4.141c-0.498,0.183-1.013,0.271-1.522,0.271
				c-1.27,0-2.507-0.548-3.361-1.553c-14.961-17.586-36.564-27.673-59.271-27.673c-44.197,0-78.817,35.477-78.817,80.766
				c0,54.748,46.253,79.373,79.096,79.373c8.112,0,36.349-1.925,59.104-26.688c0.853-0.927,2.038-1.427,3.25-1.427
				c0.538,0,1.08,0.099,1.601,0.302c1.694,0.66,2.811,2.292,2.811,4.11v16.146c0,1.266-0.544,2.471-1.493,3.309
				C871.05,211.219,848.067,219.816,824.027,219.816z"/>
			<path fill="#FFCC00" d="M823.47,24.17c35.352,0,56.785,18.93,62.353,24.217v16.146c-15.866-18.65-38.692-29.227-62.631-29.227
				c-47.6,0-83.23,38.135-83.23,85.178c0,55.113,45.929,83.785,83.508,83.785c18.649,0,43.424-7.516,62.353-28.115v16.146
				c-18.929,16.701-41.754,23.104-61.796,23.104c-55.672,0-96.869-43.701-96.869-95.477C727.157,66.482,770.025,24.17,823.47,24.17
				 M823.47,15.346c-28.227,0-54.654,10.795-74.413,30.396c-19.812,19.655-30.724,46.001-30.724,74.185
				c0,27.735,10.696,53.791,30.117,73.368c19.788,19.947,46.628,30.932,75.576,30.932c25.115,0,49.135-8.989,67.634-25.311
				c1.898-1.675,2.986-4.085,2.986-6.617v-16.146c0-3.637-2.231-6.901-5.62-8.222c-1.041-0.406-2.127-0.602-3.202-0.603
				c-2.423,0-4.795,0.999-6.499,2.854c-21.539,23.44-48.198,25.262-55.855,25.262c-17.607,0-36.321-7.126-50.059-19.062
				c-11.234-9.76-24.625-27.381-24.625-55.899c0-20.645,7.562-39.86,21.294-54.106c13.828-14.347,32.691-22.248,53.112-22.248
				c21.41,0,41.788,9.521,55.91,26.12c1.71,2.01,4.185,3.107,6.723,3.107c1.02,0,2.049-0.177,3.044-0.543
				c3.471-1.277,5.778-4.583,5.778-8.281V48.387c0-2.419-0.993-4.732-2.747-6.398C883.464,33.978,859.911,15.346,823.47,15.346
				L823.47,15.346z"/>
		</g>
		<g>
			<path fill="#FFFFFF" d="M1135.512,254.054c-2.437,0-4.412-1.976-4.412-4.412v-32.889H990.765c-2.437,0-4.412-1.976-4.412-4.412
				V26.677c0-2.437,1.976-4.412,4.412-4.412h12.248c2.437,0,4.412,1.976,4.412,4.412v170.117h101.963V26.677
				c0-2.437,1.976-4.412,4.412-4.412h12.247c2.437,0,4.412,1.976,4.412,4.412v170.117h16.743c2.437,0,4.412,1.976,4.412,4.412
				v48.436c0,2.437-1.976,4.412-4.412,4.412H1135.512z"/>
			<path fill="#FFCC00" d="M1126.048,26.678v174.529h21.155v48.436h-11.691v-37.301H990.765V26.678h12.248v174.529H1113.8V26.678
				H1126.048 M1126.048,17.854H1113.8c-4.873,0-8.824,3.951-8.824,8.824v165.705h-93.139V26.678c0-4.873-3.951-8.824-8.824-8.824
				h-12.248c-4.873,0-8.824,3.951-8.824,8.824v185.664c0,4.873,3.951,8.824,8.824,8.824h135.923v28.477
				c0,4.873,3.951,8.824,8.824,8.824h11.691c4.873,0,8.824-3.951,8.824-8.824v-48.436c0-4.873-3.951-8.824-8.824-8.824h-12.332
				V26.678C1134.872,21.805,1130.921,17.854,1126.048,17.854L1126.048,17.854z"/>
		</g>
		<g>
			<path fill="#FFFFFF" d="M1176.154,216.754c-2.437,0-4.412-1.976-4.412-4.412V26.677c0-2.437,1.976-4.412,4.412-4.412h89.075
				c2.437,0,4.412,1.976,4.412,4.412v11.133c0,2.437-1.976,4.412-4.412,4.412h-72.415v58.539h70.744
				c2.437,0,4.412,1.976,4.412,4.412v11.135c0,2.437-1.976,4.412-4.412,4.412h-70.744v76.074h72.415
				c2.437,0,4.412,1.976,4.412,4.412v11.135c0,2.437-1.976,4.412-4.412,4.412H1176.154z"/>
			<path fill="#FFCC00" d="M1265.229,26.678v11.133h-76.827v67.363h75.157v11.135h-75.157v84.898h76.827v11.135h-89.075V26.678
				H1265.229 M1265.229,17.854h-89.075c-4.873,0-8.824,3.95-8.824,8.824v185.664c0,4.873,3.95,8.824,8.824,8.824h89.075
				c4.873,0,8.824-3.951,8.824-8.824v-11.135c0-4.873-3.95-8.824-8.824-8.824h-68.003v-67.251h66.333
				c4.873,0,8.824-3.951,8.824-8.824v-11.135c0-4.873-3.95-8.824-8.824-8.824h-66.333V46.634h68.003
				c4.873,0,8.824-3.951,8.824-8.824V26.678C1274.053,21.804,1270.102,17.854,1265.229,17.854L1265.229,17.854z"/>
		</g>
		<g>
			<path fill="#FFFFFF" d="M1430.017,216.754c-2.437,0-4.412-1.976-4.412-4.412v-91.343h-103.632v91.343
				c0,2.437-1.976,4.412-4.412,4.412h-12.248c-2.437,0-4.412-1.976-4.412-4.412V26.677c0-2.437,1.976-4.412,4.412-4.412h12.248
				c2.437,0,4.412,1.976,4.412,4.412v74.362h103.632V26.677c0-2.437,1.976-4.412,4.412-4.412h12.249
				c2.437,0,4.412,1.976,4.412,4.412v185.664c0,2.437-1.976,4.412-4.412,4.412H1430.017z"/>
			<path fill="#FFCC00" d="M1442.266,26.678v185.664h-12.248v-95.756h-112.457v95.756h-12.248V26.678h12.248v78.773h112.457V26.678
				H1442.266 M1442.266,17.854h-12.248c-4.873,0-8.824,3.95-8.824,8.824v69.95h-94.809v-69.95c0-4.873-3.95-8.824-8.824-8.824
				h-12.248c-4.873,0-8.824,3.95-8.824,8.824v185.664c0,4.873,3.95,8.824,8.824,8.824h12.248c4.873,0,8.824-3.951,8.824-8.824
				V125.41h94.809v86.932c0,4.873,3.95,8.824,8.824,8.824h12.248c4.873,0,8.824-3.951,8.824-8.824V26.678
				C1451.09,21.804,1447.139,17.854,1442.266,17.854L1442.266,17.854z"/>
		</g>
		<g>
			<path fill="#FFFFFF" d="M1519.376,216.754c-2.437,0-4.412-1.976-4.412-4.412V42.223h-43.743c-2.437,0-4.412-1.976-4.412-4.412
				V26.677c0-2.437,1.976-4.412,4.412-4.412h108.56c2.437,0,4.412,1.976,4.412,4.412v11.133c0,2.437-1.976,4.412-4.412,4.412
				h-43.743v170.119c0,2.437-1.976,4.412-4.412,4.412H1519.376z"/>
			<path fill="#FFCC00" d="M1579.781,26.678v11.133h-48.156v174.531h-12.248V37.811h-48.156V26.678H1579.781 M1579.781,17.854
				H1471.22c-4.873,0-8.824,3.95-8.824,8.824v11.133c0,4.873,3.95,8.824,8.824,8.824h39.333v165.708c0,4.873,3.95,8.824,8.824,8.824
				h12.248c4.873,0,8.824-3.951,8.824-8.824V46.634h39.333c4.873,0,8.824-3.951,8.824-8.824V26.678
				C1588.604,21.804,1584.654,17.854,1579.781,17.854L1579.781,17.854z"/>
		</g>
		<g>
			<path fill="#FFFFFF" d="M1608.733,216.754c-2.437,0-4.412-1.976-4.412-4.412V26.677c0-2.437,1.976-4.412,4.412-4.412h35.908
				c16.566,0,30.862,4.612,41.341,13.338c11.352,9.452,17.352,23.113,17.352,39.506c0,32.442-22.929,53.404-58.413,53.404h-19.527
				v83.828c0,2.437-1.976,4.412-4.412,4.412H1608.733z M1645.476,108.554c22.347,0,36.229-12.708,36.229-33.164
				c0-21.079-13.915-33.167-38.177-33.167h-18.135v66.332H1645.476z"/>
			<path fill="#FFCC00" d="M1644.641,26.678c30.341,0,54.28,16.699,54.28,48.432c0,30.898-21.99,48.992-54.001,48.992h-23.939v88.24
				h-12.248V26.678H1644.641 M1620.981,112.967h24.495c24.217,0,40.641-14.195,40.641-37.576c0-23.105-15.588-37.58-42.589-37.58
				h-22.547V112.967 M1644.641,17.854h-35.908c-4.873,0-8.824,3.95-8.824,8.824v185.664c0,4.873,3.95,8.824,8.824,8.824h12.248
				c4.873,0,8.824-3.951,8.824-8.824v-79.416h15.116c18.134,0,33.641-5.228,44.844-15.118c11.763-10.384,17.98-25.149,17.98-42.698
				c0-17.746-6.549-32.579-18.94-42.896C1677.523,22.819,1662.252,17.854,1644.641,17.854L1644.641,17.854z M1629.804,46.634h13.723
				c12.61,0,33.765,3.736,33.765,28.756c0,18.004-11.894,28.752-31.817,28.752h-15.671V46.634L1629.804,46.634z"/>
		</g>
	</g>
</g>
<g>
	<rect x="-579.62" y="243.502" fill="#7E4633" width="3000" height="42.219"/>
	<rect x="-414.569" y="243.502" fill="#7E4633" width="99.891" height="42.219"/>
	<rect x="-300.003" y="243.502" fill="#7E4633" width="99.891" height="42.219"/>
	<rect x="43.696" y="243.502" fill="#7E4633" width="99.893" height="42.219"/>
	<rect x="-185.437" y="243.502" fill="#7E4633" width="99.894" height="42.219"/>
	<rect x="-70.869" y="243.502" fill="#7E4633" width="99.891" height="42.219"/>
	<rect x="272.832" y="243.502" fill="#7E4633" width="99.892" height="42.219"/>
	<rect x="158.265" y="243.502" fill="#7E4633" width="99.891" height="42.219"/>
	<rect x="501.967" y="243.502" fill="#7E4633" width="99.889" height="42.219"/>
	<rect x="387.4" y="243.502" fill="#7E4633" width="99.891" height="42.219"/>
	<rect x="616.534" y="243.502" fill="#7E4633" width="99.891" height="42.219"/>
	<rect x="731.099" y="243.502" fill="#7E4633" width="99.891" height="42.219"/>
	<rect x="845.667" y="243.502" fill="#7E4633" width="99.89" height="42.219"/>
	<rect x="1189.367" y="243.502" fill="#7E4633" width="99.893" height="42.219"/>
	<rect x="960.233" y="243.502" fill="#7E4633" width="99.892" height="42.219"/>
	<rect x="1074.799" y="243.502" fill="#7E4633" width="99.891" height="42.219"/>
	<rect x="1418.502" y="243.502" fill="#7E4633" width="99.89" height="42.219"/>
	<rect x="1303.934" y="243.502" fill="#7E4633" width="99.891" height="42.219"/>
	<rect x="1535.933" y="243.502" fill="#7E4633" width="99.891" height="42.219"/>
	<rect x="1650.499" y="243.502" fill="#7E4633" width="99.891" height="42.219"/>
	<rect x="1994.199" y="243.502" fill="#7E4633" width="99.893" height="42.219"/>
	<rect x="1765.067" y="243.502" fill="#7E4633" width="99.891" height="42.219"/>
	<rect x="1879.632" y="243.502" fill="#7E4633" width="99.891" height="42.219"/>
	<rect x="2223.335" y="243.502" fill="#7E4633" width="99.891" height="42.219"/>
	<rect x="2108.767" y="243.502" fill="#7E4633" width="99.892" height="42.219"/>
</g>
</svg>
