<?xml version="1.0" encoding="utf-8"?>
<!-- Generator: Adobe Illustrator 17.0.0, SVG Export Plug-In . SVG Version: 6.00 Build 0)  -->
<!DOCTYPE svg PUBLIC "-//W3C//DTD SVG 1.1//EN" "http://www.w3.org/Graphics/SVG/1.1/DTD/svg11.dtd">
<svg version="1.1" id="Слой_1" xmlns="http://www.w3.org/2000/svg" xmlns:xlink="http://www.w3.org/1999/xlink" x="0px" y="0px"
	 width="2109px" height="205.209px" viewBox="0 0 2109 205.209" enable-background="new 0 0 2109 205.209" xml:space="preserve">
<g>
	<g>
		<rect x="532.085" y="110.728" width="20.772" height="34.383"/>
		<polygon points="565.032,145.11 585.804,145.11 585.804,77.779 575.323,68.927 565.032,77.779 		"/>
		<rect x="411.695" y="145.024" width="557.42" height="60.185"/>
		<rect x="544.989" y="129.72" width="119.759" height="37.471"/>
		<rect x="594.398" y="103.066" width="70.351" height="68.308"/>
		<polygon points="471.918,145.11 508.447,145.11 508.447,102.848 489.672,93.996 471.918,102.848 		"/>
		<path d="M613.249,102.048c0,9.01,7.304,16.31,16.311,16.31c9.009,0,16.312-7.3,16.312-16.31c0-9.014-7.304-16.314-16.312-16.314
			C620.553,85.733,613.249,93.034,613.249,102.048z"/>
		<path d="M625.258,105.379c0,2.378,1.926,4.304,4.301,4.304l0,0c2.378,0,4.303-1.926,4.303-4.304V78.007
			c0-2.377-1.925-4.304-4.303-4.304l0,0c-2.375,0-4.301,1.927-4.301,4.304V105.379z"/>
		<path d="M656.145,122.999c0,2.376,1.928,4.302,4.303,4.302l0,0c2.375,0,4.301-1.926,4.301-4.302V95.625
			c0-2.378-1.926-4.304-4.301-4.304l0,0c-2.375,0-4.303,1.926-4.303,4.304V122.999z"/>
		<path d="M594.398,123.756c0,2.378,1.927,4.303,4.302,4.303l0,0c2.378,0,4.303-1.925,4.303-4.303V96.383
			c0-2.376-1.925-4.303-4.303-4.303l0,0c-2.375,0-4.302,1.927-4.302,4.303V123.756z"/>
		<rect x="676.064" y="119.773" width="29.439" height="32.56"/>
		<rect x="712.367" y="97.569" width="51.228" height="64.286"/>
		<polygon points="763.572,97.569 737.971,87.315 712.367,97.569 		"/>
		<rect x="771.951" y="99.634" width="27.629" height="62.126"/>
		<rect x="814.022" y="120.356" width="45.194" height="44.642"/>
		<rect x="826.084" y="99.634" width="21.07" height="22.612"/>
		<path d="M742.159,92.732h-9.281V77.848c0-2.466,2.002-4.471,4.47-4.471h0.298h0.043c2.469,0,4.471,2.005,4.471,4.471V92.732z"/>
		<polygon points="901.501,189.575 963.948,189.575 963.948,122.246 933.163,99.867 901.501,122.246 		"/>
	</g>
	<g>
		<rect x="1435.833" y="110.728" width="20.771" height="34.383"/>
		<polygon points="1468.781,145.11 1489.552,145.11 1489.552,77.779 1478.912,72.468 1468.781,77.779 		"/>
		<rect x="1180.935" y="145.024" width="605.869" height="60.185"/>
		<rect x="1448.737" y="129.72" width="119.76" height="37.471"/>
		<rect x="1498.148" y="97.118" width="49.422" height="47.992"/>
		<polygon points="1401.812,145.11 1438.342,145.11 1438.342,102.848 1419.95,93.996 1401.812,102.848 		"/>
		<rect x="1241.77" y="98.88" width="28.733" height="47.56"/>
		<polygon points="1194.711,146.143 1245.241,146.143 1245.241,87.683 1219.798,75.44 1194.711,87.683 		"/>
		<polygon points="1313.384,182.714 1363.915,182.714 1363.915,124.256 1338.473,112.012 1313.384,124.256 		"/>
		<circle cx="1522.978" cy="96.401" r="11.461"/>
		<path d="M1519.699,98.745c0,1.669,1.352,3.02,3.021,3.02l0,0c1.67,0,3.023-1.351,3.023-3.02V79.514
			c0-1.669-1.353-3.024-3.023-3.024l0,0c-1.669,0-3.021,1.355-3.021,3.024V98.745z"/>
		<rect x="1576.563" y="116.198" width="30.98" height="36.135"/>
		<rect x="1740.615" y="79.578" width="4.64" height="29.534"/>
		<polygon points="1616.912,158.279 1668.141,158.279 1668.141,68.176 1642.436,54.015 1616.912,68.176 		"/>
		<rect x="1678.085" y="128.595" width="51.938" height="33.165"/>
		<rect x="1720.155" y="120.356" width="45.192" height="44.642"/>
		<rect x="1732.216" y="99.634" width="21.072" height="22.612"/>
		<path d="M1646.702,63.339h-9.28V48.452c0-2.464,2-4.465,4.468-4.465h0.299h0.044c2.468,0,4.47,2.001,4.47,4.465V63.339z"/>
	</g>
	<g>
		<rect x="1840.545" y="110.728" width="20.771" height="34.383"/>
		<polygon points="1873.493,145.11 1894.265,145.11 1894.265,77.779 1884.11,70.487 1873.493,77.779 		"/>
		<rect x="1585.646" y="145.024" width="605.868" height="60.185"/>
		<rect x="1853.449" y="129.72" width="119.76" height="37.471"/>
		<rect x="1902.861" y="97.118" width="49.422" height="47.992"/>
		<rect x="1806.524" y="102.848" width="36.53" height="42.263"/>
		<circle cx="1927.689" cy="96.401" r="11.461"/>
		<path d="M1924.411,98.745c0,1.669,1.352,3.02,3.021,3.02l0,0c1.67,0,3.022-1.351,3.022-3.02V79.514
			c0-1.669-1.353-3.024-3.022-3.024l0,0c-1.669,0-3.021,1.355-3.021,3.024V98.745z"/>
		<rect x="1981.276" y="116.198" width="30.979" height="36.135"/>
		<rect x="2145.327" y="79.578" width="4.639" height="29.534"/>
		<polygon points="2021.625,158.279 2072.853,158.279 2072.853,68.176 2047.063,52.244 2021.625,68.176 		"/>
		<rect x="2082.797" y="128.595" width="17.369" height="33.165"/>
		<rect x="2124.869" y="120.356" width="45.191" height="44.642"/>
		<rect x="2136.928" y="99.634" width="21.071" height="22.612"/>
		<path d="M2051.413,63.339h-9.279V48.452c0-2.464,2-4.465,4.468-4.465h0.298h0.043c2.469,0,4.47,2.001,4.47,4.465V63.339z"/>
	</g>
	<g>
		<polygon points="1109.604,153.33 1140.635,153.33 1140.635,81.677 1109.604,52.375 		"/>
		<rect x="955.111" y="112.896" width="26.553" height="34.379"/>
		<polygon points="992.032,143.303 1012.805,143.303 1012.805,75.975 1001.977,68.895 992.032,75.975 		"/>
		<rect x="884.184" y="145.025" width="330.936" height="60.184"/>
		<rect x="969.981" y="127.912" width="130.113" height="37.473"/>
		<rect x="1148.017" y="118.019" width="48.87" height="37.471"/>
		<g>
			<rect x="1029.388" y="89.08" width="44.285" height="60.947"/>
			<polygon points="1029.388,84.44 1073.712,84.44 1073.673,90.382 1029.388,90.382 			"/>
			<rect x="1033.845" y="50.531" width="35.607" height="35.188"/>
			<rect x="1049.617" y="0" width="3.304" height="47.192"/>
			<rect x="1044.026" y="21.86" width="14.066" height="57.608"/>
		</g>
	</g>
	<g>
		<path fill="#CC9933" d="M725.229,120.539c0,1.898-1.542,3.439-3.441,3.439c-1.899,0-3.44-1.541-3.44-3.439
			c0-1.902,1.541-3.443,3.44-3.443C723.687,117.096,725.229,118.637,725.229,120.539z"/>
		<path fill="#CC9933" d="M741.307,120.539c0,1.898-1.541,3.439-3.44,3.439c-1.9,0-3.441-1.541-3.441-3.439
			c0-1.902,1.541-3.443,3.441-3.443C739.766,117.096,741.307,118.637,741.307,120.539z"/>
		<path fill="#CC9933" d="M725.229,158.367c0,1.898-1.542,3.438-3.441,3.438c-1.899,0-3.44-1.54-3.44-3.438
			c0-1.902,1.541-3.443,3.44-3.443C723.687,154.924,725.229,156.465,725.229,158.367z"/>
		<path fill="#CC9933" d="M741.307,158.367c0,1.898-1.541,3.438-3.44,3.438c-1.9,0-3.441-1.54-3.441-3.438
			c0-1.902,1.541-3.443,3.441-3.443C739.766,154.924,741.307,156.465,741.307,158.367z"/>
		<path fill="#CC9933" d="M756.573,120.539c0,1.898-1.539,3.439-3.439,3.439c-1.9,0-3.442-1.541-3.442-3.439
			c0-1.902,1.541-3.443,3.442-3.443C755.034,117.096,756.573,118.637,756.573,120.539z"/>
		<circle fill="#CC9933" cx="721.788" cy="134.091" r="3.441"/>
		<circle fill="#CC9933" cx="753.133" cy="134.091" r="3.44"/>
		<circle fill="#CC9933" cx="753.133" cy="179.766" r="3.44"/>
		<circle fill="#CC9933" cx="753.133" cy="193.318" r="3.44"/>
		<circle fill="#CC9933" cx="844.978" cy="134.608" r="3.44"/>
		<circle fill="#CC9933" cx="828.9" cy="172.437" r="3.44"/>
		<circle fill="#CC9933" cx="828.9" cy="148.161" r="3.44"/>
		<circle fill="#CC9933" cx="844.978" cy="148.161" r="3.44"/>
		<path fill="#CC9933" d="M561.847,141.203c0,1.902-1.539,3.442-3.44,3.442s-3.441-1.54-3.441-3.442
			c0-1.897,1.541-3.438,3.441-3.438S561.847,139.306,561.847,141.203z"/>
		<path fill="#CC9933" d="M577.925,141.203c0,1.902-1.539,3.442-3.44,3.442c-1.899,0-3.439-1.54-3.439-3.442
			c0-1.897,1.54-3.438,3.439-3.438C576.386,137.766,577.925,139.306,577.925,141.203z"/>
		<path fill="#CC9933" d="M486.132,141.203c0,1.902-1.54,3.442-3.44,3.442s-3.441-1.54-3.441-3.442c0-1.897,1.541-3.438,3.441-3.438
			S486.132,139.306,486.132,141.203z"/>
		<path fill="#CC9933" d="M502.21,161.76c0,1.903-1.54,3.444-3.439,3.444c-1.9,0-3.44-1.541-3.44-3.444
			c0-1.898,1.54-3.438,3.44-3.438C500.67,158.322,502.21,159.861,502.21,161.76z"/>
		<circle fill="#CC9933" cx="482.692" cy="125.228" r="3.44"/>
		<circle fill="#CC9933" cx="498.77" cy="125.228" r="3.44"/>
		<path fill="#CC9933" d="M577.925,115.484c0,1.902-1.539,3.441-3.44,3.441c-1.899,0-3.439-1.539-3.439-3.441
			c0-1.897,1.54-3.439,3.439-3.439C576.386,112.045,577.925,113.587,577.925,115.484z"/>
		<circle fill="#CC9933" cx="574.486" cy="101.042" r="3.44"/>
		<path fill="#CC9933" d="M593.193,141.203c0,1.902-1.539,3.442-3.439,3.442c-1.9,0-3.44-1.54-3.44-3.442
			c0-1.897,1.54-3.438,3.44-3.438C591.654,137.766,593.193,139.306,593.193,141.203z"/>
		<path fill="#CC9933" d="M561.847,177.608c0,1.901-1.539,3.441-3.44,3.441s-3.441-1.54-3.441-3.441
			c0-1.897,1.541-3.438,3.441-3.438S561.847,175.711,561.847,177.608z"/>
		<path fill="#CC9933" d="M577.925,177.608c0,1.901-1.539,3.441-3.44,3.441c-1.899,0-3.439-1.54-3.439-3.441
			c0-1.897,1.54-3.438,3.439-3.438C576.386,174.17,577.925,175.711,577.925,177.608z"/>
		<circle fill="#CC9933" cx="589.754" cy="154.756" r="3.44"/>
	</g>
	<g>
		<rect x="78.741" y="110.728" width="20.773" height="34.383"/>
		<rect x="111.689" y="77.779" width="20.771" height="67.331"/>
		<rect x="-166.891" y="145.024" width="596.602" height="60.185"/>
		<rect x="91.646" y="129.72" width="119.761" height="37.471"/>
		<rect x="141.055" y="104.665" width="64.574" height="62.699"/>
		<rect x="18.574" y="102.848" width="36.53" height="42.263"/>
		<path d="M158.357,103.73c0,8.269,6.705,14.971,14.974,14.971c8.269,0,14.972-6.702,14.972-14.971
			c0-8.271-6.704-14.977-14.972-14.977C165.062,88.754,158.357,95.459,158.357,103.73z"/>
		<path d="M169.382,106.789c0,2.182,1.767,3.95,3.949,3.95l0,0c2.182,0,3.948-1.769,3.948-3.95V81.665
			c0-2.184-1.766-3.951-3.948-3.951l0,0c-2.182,0-3.949,1.768-3.949,3.951V106.789z"/>
		<path d="M197.732,122.961c0,2.182,1.767,3.949,3.949,3.949l0,0c2.18,0,3.948-1.768,3.948-3.949V97.834
			c0-2.182-1.768-3.948-3.948-3.948l0,0c-2.182,0-3.949,1.767-3.949,3.948V122.961z"/>
		<path d="M141.205,123.656c0,2.182,1.769,3.948,3.948,3.948l0,0c2.181,0,3.949-1.767,3.949-3.948V98.53
			c0-2.18-1.768-3.949-3.949-3.949l0,0c-2.179,0-3.948,1.77-3.948,3.949V123.656z"/>
		<rect x="222.721" y="119.773" width="29.439" height="32.56"/>
		<rect x="259.024" y="97.569" width="51.228" height="64.286"/>
		<polygon points="310.229,97.569 284.627,87.315 259.024,97.569 		"/>
		<rect x="318.607" y="128.595" width="17.372" height="33.165"/>
		<rect x="360.678" y="120.356" width="45.195" height="44.642"/>
		<rect x="372.74" y="99.634" width="21.071" height="22.612"/>
		<path d="M288.814,92.732h-9.279V77.848c0-2.466,2.001-4.471,4.469-4.471h0.296h0.044c2.469,0,4.47,2.005,4.47,4.471V92.732z"/>
	</g>
	<g>
		<path fill="#CC9933" d="M271.964,120.539c0,1.898-1.539,3.439-3.44,3.439c-1.899,0-3.441-1.541-3.441-3.439
			c0-1.902,1.542-3.443,3.441-3.443C270.425,117.096,271.964,118.637,271.964,120.539z"/>
		<path fill="#CC9933" d="M288.042,120.539c0,1.898-1.539,3.439-3.439,3.439c-1.9,0-3.441-1.541-3.441-3.439
			c0-1.902,1.541-3.443,3.441-3.443C286.503,117.096,288.042,118.637,288.042,120.539z"/>
		<path fill="#CC9933" d="M271.964,158.367c0,1.898-1.539,3.438-3.44,3.438c-1.899,0-3.441-1.54-3.441-3.438
			c0-1.902,1.542-3.443,3.441-3.443C270.425,154.924,271.964,156.465,271.964,158.367z"/>
		<path fill="#CC9933" d="M288.042,158.367c0,1.898-1.539,3.438-3.439,3.438c-1.9,0-3.441-1.54-3.441-3.438
			c0-1.902,1.541-3.443,3.441-3.443C286.503,154.924,288.042,156.465,288.042,158.367z"/>
		<path fill="#CC9933" d="M303.311,120.539c0,1.898-1.539,3.439-3.439,3.439c-1.901,0-3.441-1.541-3.441-3.439
			c0-1.902,1.54-3.443,3.441-3.443C301.771,117.096,303.311,118.637,303.311,120.539z"/>
		<circle fill="#CC9933" cx="268.524" cy="134.091" r="3.441"/>
		<circle fill="#CC9933" cx="299.87" cy="134.091" r="3.44"/>
		<circle fill="#CC9933" cx="299.87" cy="179.766" r="3.44"/>
		<circle fill="#CC9933" cx="391.715" cy="134.608" r="3.44"/>
		<circle fill="#CC9933" cx="375.636" cy="172.437" r="3.44"/>
		<circle fill="#CC9933" cx="375.636" cy="148.161" r="3.44"/>
		<circle fill="#CC9933" cx="391.715" cy="148.161" r="3.44"/>
		<circle fill="#CC9933" cx="156.585" cy="115.117" r="3.44"/>
		<circle fill="#CC9933" cx="156.585" cy="128.669" r="3.44"/>
		<path fill="#CC9933" d="M108.585,141.203c0,1.902-1.541,3.442-3.441,3.442c-1.9,0-3.44-1.54-3.44-3.442
			c0-1.897,1.539-3.438,3.44-3.438C107.044,137.766,108.585,139.306,108.585,141.203z"/>
		<path fill="#CC9933" d="M124.662,141.203c0,1.902-1.539,3.442-3.438,3.442c-1.899,0-3.44-1.54-3.44-3.442
			c0-1.897,1.541-3.438,3.44-3.438C123.123,137.766,124.662,139.306,124.662,141.203z"/>
		<path fill="#CC9933" d="M32.87,141.203c0,1.902-1.542,3.442-3.441,3.442c-1.899,0-3.44-1.54-3.44-3.442
			c0-1.897,1.541-3.438,3.44-3.438C31.328,137.766,32.87,139.306,32.87,141.203z"/>
		<path fill="#CC9933" d="M48.948,161.76c0,1.903-1.541,3.444-3.441,3.444c-1.9,0-3.439-1.541-3.439-3.444
			c0-1.898,1.54-3.438,3.439-3.438C47.407,158.322,48.948,159.861,48.948,161.76z"/>
		<circle fill="#CC9933" cx="29.43" cy="125.228" r="3.44"/>
		<circle fill="#CC9933" cx="45.508" cy="125.228" r="3.44"/>
		<path fill="#CC9933" d="M124.662,115.484c0,1.902-1.539,3.441-3.438,3.441c-1.899,0-3.44-1.539-3.44-3.441
			c0-1.897,1.541-3.439,3.44-3.439C123.123,112.045,124.662,113.587,124.662,115.484z"/>
		<circle fill="#CC9933" cx="121.222" cy="101.042" r="3.439"/>
		<path fill="#CC9933" d="M139.931,141.203c0,1.902-1.54,3.442-3.441,3.442c-1.898,0-3.439-1.54-3.439-3.442
			c0-1.897,1.54-3.438,3.439-3.438C138.391,137.766,139.931,139.306,139.931,141.203z"/>
		<path fill="#CC9933" d="M108.585,177.608c0,1.901-1.541,3.441-3.441,3.441c-1.9,0-3.44-1.54-3.44-3.441
			c0-1.897,1.539-3.438,3.44-3.438C107.044,174.17,108.585,175.711,108.585,177.608z"/>
		<path fill="#CC9933" d="M124.662,177.608c0,1.901-1.539,3.441-3.438,3.441c-1.899,0-3.44-1.54-3.44-3.441
			c0-1.897,1.541-3.438,3.44-3.438C123.123,174.17,124.662,175.711,124.662,177.608z"/>
		<circle fill="#CC9933" cx="136.491" cy="154.756" r="3.44"/>
	</g>
	<g>
		<circle fill="#CC9933" cx="1753.294" cy="134.608" r="3.44"/>
		<circle fill="#CC9933" cx="1737.216" cy="172.437" r="3.441"/>
		<circle fill="#CC9933" cx="1737.216" cy="148.161" r="3.441"/>
		<circle fill="#CC9933" cx="1753.294" cy="148.161" r="3.44"/>
		<path fill="#CC9933" d="M1597.022,132.026c0,1.901-1.54,3.442-3.44,3.442c-1.9,0-3.44-1.541-3.44-3.442
			c0-1.897,1.54-3.438,3.44-3.438C1595.482,128.589,1597.022,130.129,1597.022,132.026z"/>
		<circle fill="#CC9933" cx="1593.582" cy="145.58" r="3.44"/>
		<path fill="#CC9933" d="M1631.071,118.238c0,1.901-1.54,3.442-3.44,3.442c-1.9,0-3.44-1.541-3.44-3.442
			c0-1.898,1.54-3.438,3.44-3.438C1629.531,114.8,1631.071,116.34,1631.071,118.238z"/>
		<path fill="#CC9933" d="M1659.73,118.238c0,1.901-1.54,3.442-3.44,3.442c-1.9,0-3.44-1.541-3.44-3.442
			c0-1.898,1.54-3.438,3.44-3.438C1658.19,114.8,1659.73,116.34,1659.73,118.238z"/>
		<path fill="#CC9933" d="M1631.071,131.789c0,1.904-1.54,3.443-3.44,3.443c-1.9,0-3.44-1.539-3.44-3.443
			c0-1.897,1.54-3.438,3.44-3.438C1629.531,128.352,1631.071,129.892,1631.071,131.789z"/>
		<path fill="#CC9933" d="M1645.566,118.238c0,1.901-1.54,3.442-3.441,3.442c-1.899,0-3.439-1.541-3.439-3.442
			c0-1.898,1.54-3.438,3.439-3.438C1644.027,114.8,1645.566,116.34,1645.566,118.238z"/>
		<path fill="#CC9933" d="M1645.566,131.789c0,1.904-1.54,3.443-3.441,3.443c-1.899,0-3.439-1.539-3.439-3.443
			c0-1.897,1.54-3.438,3.439-3.438C1644.027,128.352,1645.566,129.892,1645.566,131.789z"/>
		<circle fill="#CC9933" cx="1627.631" cy="88.221" r="3.44"/>
		<circle fill="#CC9933" cx="1627.631" cy="101.773" r="3.44"/>
		<circle fill="#CC9933" cx="1642.126" cy="88.221" r="3.44"/>
		<path fill="#CC9933" d="M1645.566,68.196c0,1.903-1.54,3.443-3.441,3.443c-1.899,0-3.439-1.54-3.439-3.443
			c0-1.897,1.54-3.436,3.439-3.436C1644.027,64.76,1645.566,66.299,1645.566,68.196z"/>
		<circle fill="#CC9933" cx="1870.517" cy="165.493" r="3.441"/>
		<circle fill="#CC9933" cx="1899.177" cy="165.493" r="3.44"/>
		<path fill="#CC9933" d="M1873.958,179.045c0,1.902-1.541,3.442-3.441,3.442c-1.9,0-3.441-1.54-3.441-3.442
			c0-1.898,1.541-3.438,3.441-3.438C1872.417,175.607,1873.958,177.146,1873.958,179.045z"/>
		<circle fill="#CC9933" cx="1885.012" cy="165.493" r="3.44"/>
		<path fill="#CC9933" d="M1888.453,115.553c0,1.901-1.541,3.443-3.441,3.443c-1.899,0-3.439-1.542-3.439-3.443
			c0-1.898,1.54-3.438,3.439-3.438C1886.912,112.115,1888.453,113.654,1888.453,115.553z"/>
		<path fill="#CC9933" d="M1888.453,101.403c0,1.9-1.541,3.442-3.441,3.442c-1.899,0-3.439-1.542-3.439-3.442
			c0-1.898,1.54-3.438,3.439-3.438C1886.912,97.965,1888.453,99.505,1888.453,101.403z"/>
		<path fill="#CC9933" d="M1888.453,179.045c0,1.902-1.541,3.442-3.441,3.442c-1.899,0-3.439-1.54-3.439-3.442
			c0-1.898,1.54-3.438,3.439-3.438C1886.912,175.607,1888.453,177.146,1888.453,179.045z"/>
		<circle fill="#CC9933" cx="1821.749" cy="137.247" r="3.44"/>
		<path fill="#CC9933" d="M1825.189,150.799c0,1.902-1.541,3.441-3.44,3.441c-1.901,0-3.44-1.539-3.44-3.441
			c0-1.897,1.539-3.438,3.44-3.438C1823.648,147.36,1825.189,148.901,1825.189,150.799z"/>
		<circle fill="#CC9933" cx="1836.243" cy="137.247" r="3.44"/>
		<path fill="#CC9933" d="M1839.683,117.222c0,1.904-1.539,3.443-3.439,3.443c-1.901,0-3.44-1.539-3.44-3.443
			c0-1.897,1.539-3.437,3.44-3.437C1838.144,113.785,1839.683,115.324,1839.683,117.222z"/>
		<circle fill="#CC9933" cx="1542.141" cy="158.116" r="3.44"/>
		<circle fill="#CC9933" cx="1558.219" cy="158.116" r="3.44"/>
		<path fill="#CC9933" d="M1222.7,141.203c0,1.902-1.541,3.442-3.44,3.442c-1.9,0-3.44-1.54-3.44-3.442
			c0-1.897,1.54-3.438,3.44-3.438C1221.159,137.766,1222.7,139.306,1222.7,141.203z"/>
		<path fill="#CC9933" d="M1238.78,161.76c0,1.903-1.541,3.444-3.441,3.444c-1.899,0-3.44-1.541-3.44-3.444
			c0-1.898,1.541-3.438,3.44-3.438C1237.239,158.322,1238.78,159.861,1238.78,161.76z"/>
		<circle fill="#CC9933" cx="1219.26" cy="125.228" r="3.44"/>
		<circle fill="#CC9933" cx="1235.339" cy="125.228" r="3.441"/>
		<circle fill="#CC9933" cx="1573.487" cy="158.116" r="3.44"/>
		<circle fill="#CC9933" cx="1573.487" cy="171.668" r="3.44"/>
	</g>
</g>
</svg>
