<?xml version="1.0" encoding="utf-8"?>
<!-- Generator: Adobe Illustrator 17.0.0, SVG Export Plug-In . SVG Version: 6.00 Build 0)  -->
<!DOCTYPE svg PUBLIC "-//W3C//DTD SVG 1.1//EN" "http://www.w3.org/Graphics/SVG/1.1/DTD/svg11.dtd">
<svg version="1.1" id="Слой_1" xmlns="http://www.w3.org/2000/svg" xmlns:xlink="http://www.w3.org/1999/xlink" x="0px" y="0px"
	 width="1499.477px" height="581.919px" viewBox="0 0 1499.477 581.919" enable-background="new 0 0 1499.477 581.919"
	 xml:space="preserve">
<g>
	<rect x="25.178" y="346.065" fill="#CC9933" width="113.82" height="341.51"/>
	<rect x="24.059" y="346.065" fill="#FFDB00" width="35.985" height="341.51"/>
	<rect x="101.748" y="346.065" width="30.025" height="21.92"/>
	<rect x="66.04" y="346.065" width="30.028" height="21.92"/>
	<rect x="30.332" y="346.065" width="24.466" height="21.92"/>
	<path fill="#FFFF66" d="M164.178,349.222L164.178,349.222c0-13.42-12.969-24.3-28.971-24.3H28.972
		c-16.001,0-28.972,10.88-28.972,24.3l0,0"/>
	<path fill="#FFFF66" d="M146.179,445.142c0,1.926-1.862,3.488-4.159,3.488H22.485c-2.295,0-4.156-1.562-4.156-3.488l0,0
		c0-1.924,1.86-3.486,4.156-3.486H142.02C144.316,441.655,146.179,443.218,146.179,445.142L146.179,445.142z"/>
</g>
<g>
	<rect x="358.404" y="346.065" fill="#CC9933" width="113.821" height="341.51"/>
	<rect x="357.286" y="346.065" fill="#FFDB00" width="35.984" height="341.51"/>
	<rect x="434.973" y="346.065" width="30.027" height="21.92"/>
	<rect x="399.266" y="346.065" width="30.027" height="21.92"/>
	<rect x="363.558" y="346.065" width="24.466" height="21.92"/>
	<path fill="#FFFF66" d="M497.404,349.222L497.404,349.222c0-13.42-12.972-24.3-28.971-24.3H362.198
		c-16.003,0-28.971,10.88-28.971,24.3l0,0"/>
	<path fill="#FFFF66" d="M479.406,445.142c0,1.926-1.863,3.488-4.16,3.488H355.712c-2.295,0-4.158-1.562-4.158-3.488l0,0
		c0-1.924,1.862-3.486,4.158-3.486h119.534C477.543,441.655,479.406,443.218,479.406,445.142L479.406,445.142z"/>
</g>
<g>
	<rect x="1011.738" y="346.065" fill="#CC9933" width="113.821" height="341.51"/>
	<rect x="1010.62" y="346.065" fill="#FFDB00" width="35.985" height="341.51"/>
	<rect x="1088.309" y="346.065" width="30.026" height="21.92"/>
	<rect x="1052.602" y="346.065" width="30.027" height="21.92"/>
	<rect x="1016.893" y="346.065" width="24.466" height="21.92"/>
	<path fill="#FFFF66" d="M1150.739,349.222L1150.739,349.222c0-13.42-12.971-24.3-28.971-24.3h-106.236
		c-16.002,0-28.969,10.88-28.969,24.3l0,0"/>
	<path fill="#FFFF66" d="M1132.74,445.142c0,1.926-1.863,3.488-4.16,3.488h-119.534c-2.297,0-4.157-1.562-4.157-3.488l0,0
		c0-1.924,1.861-3.486,4.157-3.486h119.534C1130.877,441.655,1132.74,443.218,1132.74,445.142L1132.74,445.142z"/>
</g>
<g>
	<rect x="1360.478" y="346.065" fill="#CC9933" width="113.819" height="341.51"/>
	<rect x="1359.359" y="346.065" fill="#FFDB00" width="35.983" height="341.51"/>
	<rect x="1437.048" y="346.065" width="30.024" height="21.92"/>
	<rect x="1401.34" y="346.065" width="30.026" height="21.92"/>
	<rect x="1365.632" y="346.065" width="24.465" height="21.92"/>
	<path fill="#FFFF66" d="M1499.477,349.222L1499.477,349.222c0-13.42-12.97-24.3-28.971-24.3h-106.235
		c-16.002,0-28.971,10.88-28.971,24.3l0,0"/>
	<path fill="#FFFF66" d="M1481.478,445.142c0,1.926-1.861,3.488-4.158,3.488h-119.534c-2.296,0-4.158-1.562-4.158-3.488l0,0
		c0-1.924,1.862-3.486,4.158-3.486h119.534C1479.617,441.655,1481.478,443.218,1481.478,445.142L1481.478,445.142z"/>
</g>
<g>
	<path fill="#DBDBFF" d="M873.566,559.508l-0.002-136.151c0-8.929-5.171-21.393-11.494-27.698L757.146,291.009
		c-6.322-6.305-16.666-6.305-22.989,0L629.235,395.658c-6.322,6.306-11.493,18.77-11.493,27.698l0.001,136.151"/>
	<path fill="#BDBFFF" d="M745.333,286.279c4.151,0.012,8.301,1.585,11.449,4.729L861.71,395.658
		c6.321,6.306,11.493,18.77,11.493,27.698v136.151h-127.87V286.279z"/>
	<path fill="#DBDBFF" d="M873.566,37.936l-0.002,136.153c0,8.928-5.171,21.39-11.494,27.695L757.146,306.438
		c-6.322,6.306-16.666,6.306-22.989,0L629.235,201.784c-6.322-6.306-11.493-18.768-11.493-27.695l0.001-136.153"/>
	<path fill="#BDBFFF" d="M745.333,312.166c4.151-0.013,8.301-1.586,11.449-4.728L861.71,202.784
		c6.321-6.306,11.493-18.768,11.493-27.695V38.936h-127.87V312.166z"/>
	<path fill="#FFFFFF" d="M662.68,171.482c0,3.052-2.323,5.523-5.187,5.523l0,0c-2.866,0-5.19-2.472-5.19-5.523V29.095
		c0-3.05,2.323-5.523,5.19-5.523l0,0c2.864,0,5.187,2.474,5.187,5.523V171.482z"/>
	<path fill="#FFFFFF" d="M662.68,481.106c0,3.05-2.323,5.523-5.187,5.523l0,0c-2.866,0-5.19-2.474-5.19-5.523v-53.538
		c0-3.051,2.323-5.522,5.19-5.522l0,0c2.864,0,5.187,2.472,5.187,5.522V481.106z"/>
	<g>
		<path fill="#DBDBFF" d="M845.504,174.254c0,6.097-4.646,11.042-10.376,11.042l0,0c-5.732,0-10.377-4.945-10.377-11.042V42.288
			c0-6.102,4.645-11.046,10.377-11.046l0,0c5.73,0,10.376,4.944,10.376,11.046V174.254z"/>
		<path fill="#DBDBFF" d="M845.504,475.987c0,6.097-4.646,11.042-10.376,11.042l0,0c-5.732,0-10.377-4.945-10.377-11.042V430.58
			c0-6.101,4.645-11.046,10.377-11.046l0,0c5.73,0,10.376,4.945,10.376,11.046V475.987z"/>
	</g>
	<g>
		<g>
			<path fill="#CC9933" d="M885.169,26.333c0,6.409-5.194,11.603-11.603,11.603H617.111c-6.408,0-11.604-5.193-11.604-11.603l0,0
				c0-6.409,5.196-11.606,11.604-11.606h256.455C879.975,14.727,885.169,19.924,885.169,26.333L885.169,26.333z"/>
			<rect x="605.507" y="0" fill="#FFDB00" width="279.663" height="26.333"/>
		</g>
		<rect x="644.604" y="0" fill="#FFFF66" width="25.775" height="26.333"/>
	</g>
	<g>
		<path fill="#FFFF66" d="M605.507,557.447c0-6.41,5.196-11.604,11.604-11.604h256.455c6.409,0,11.603,5.193,11.603,11.604l0,0
			c0,6.408-5.194,11.603-11.603,11.603H617.111C610.703,569.05,605.507,563.855,605.507,557.447L605.507,557.447z"/>
		<rect x="605.507" y="557.447" fill="#FFDB00" width="279.663" height="24.99"/>
	</g>
	<rect x="644.604" y="556.16" fill="#FFFF66" width="25.775" height="26.427"/>
</g>
</svg>
