<?xml version="1.0" encoding="utf-8"?>
<!-- Generator: Adobe Illustrator 17.0.0, SVG Export Plug-In . SVG Version: 6.00 Build 0)  -->
<!DOCTYPE svg PUBLIC "-//W3C//DTD SVG 1.1//EN" "http://www.w3.org/Graphics/SVG/1.1/DTD/svg11.dtd">
<svg version="1.1" id="Слой_1" xmlns="http://www.w3.org/2000/svg" xmlns:xlink="http://www.w3.org/1999/xlink" x="0px" y="0px"
	 width="23.693px" height="49.533px" viewBox="0 0 23.693 49.533" enable-background="new 0 0 23.693 49.533" xml:space="preserve">
<g>
	<rect x="13.019" y="37.382" fill="#FFDB00" width="2.073" height="12.151"/>
	<rect x="8.587" y="37.382" fill="#FFDB00" width="2.076" height="12.151"/>
	<path d="M7.418,24.223c0,2.593,2.105,4.697,4.7,4.697l0,0c2.597,0,4.699-2.105,4.699-4.697V4.699C16.817,2.103,14.715,0,12.119,0
		l0,0c-2.595,0-4.7,2.103-4.7,4.699V24.223z"/>
	<path fill="#FFDB00" d="M15.42,4.778c0,0.769,0.618,1.388,1.382,1.388c0.765,0,2.82-1.388,2.82-1.388s-2.055-1.383-2.82-1.383
		C16.038,3.395,15.42,4.013,15.42,4.778z"/>
	<circle cx="11.847" cy="33.444" r="11.847"/>
</g>
</svg>
