<?xml version="1.0" encoding="utf-8"?>
<!-- Generator: Adobe Illustrator 17.0.0, SVG Export Plug-In . SVG Version: 6.00 Build 0)  -->
<!DOCTYPE svg PUBLIC "-//W3C//DTD SVG 1.1//EN" "http://www.w3.org/Graphics/SVG/1.1/DTD/svg11.dtd">
<svg version="1.1" id="Слой_1" xmlns="http://www.w3.org/2000/svg" xmlns:xlink="http://www.w3.org/1999/xlink" x="0px" y="0px"
	 width="74.056px" height="49.533px" viewBox="0 0 74.056 49.533" enable-background="new 0 0 74.056 49.533" xml:space="preserve">
<g>
	<path d="M0,22.384c1.358,1.91,3.031,3.641,5.019,5.107c10.071,7.418,24.25,5.267,31.667-4.806l-0.409-0.302H0z"/>
	<path d="M37.369,22.384c1.359,1.91,3.035,3.641,5.023,5.107c10.072,7.418,24.248,5.267,31.664-4.806l-0.408-0.302H37.369z"/>
	<rect x="33.304" y="37.374" fill="#FFDB00" width="2.072" height="12.159"/>
	<rect x="37.731" y="37.374" fill="#FFDB00" width="2.075" height="12.159"/>
	<path d="M40.974,24.216c0,2.596-2.105,4.695-4.698,4.695l0,0c-2.597,0-4.699-2.1-4.699-4.695V4.694C31.577,2.102,33.679,0,36.276,0
		l0,0c2.593,0,4.698,2.102,4.698,4.694V24.216z"/>
	<path fill="#FFDB00" d="M36.128,6.406c0.767,0,1.39,0.621,1.39,1.386c0,0.764-1.39,2.816-1.39,2.816s-1.382-2.053-1.382-2.816
		C34.746,7.027,35.362,6.406,36.128,6.406z"/>
	<circle cx="36.547" cy="33.441" r="11.847"/>
</g>
</svg>
