<?xml version="1.0" encoding="utf-8"?>
<!-- Generator: Adobe Illustrator 17.0.0, SVG Export Plug-In . SVG Version: 6.00 Build 0)  -->
<!DOCTYPE svg PUBLIC "-//W3C//DTD SVG 1.1//EN" "http://www.w3.org/Graphics/SVG/1.1/DTD/svg11.dtd">
<svg version="1.1" id="Слой_1" xmlns="http://www.w3.org/2000/svg" xmlns:xlink="http://www.w3.org/1999/xlink" x="0px" y="0px"
	 width="76.353px" height="263.615px" viewBox="60.838 0 76.353 263.615" enable-background="new 60.838 0 76.353 263.615"
	 xml:space="preserve">
<path fill="none" stroke="#545454" stroke-width="2" stroke-miterlimit="10" d="M68.442,120.026
	c0,39.291-0.002,125.481-0.002,125.481"/>
<path fill="none" stroke="#545454" stroke-width="2" stroke-miterlimit="10" d="M88.53,0c0,39.291-0.001,171.787-0.001,171.787"/>
<g>
	
		<rect x="63.649" y="189.161" transform="matrix(-0.2577 0.9662 -0.9662 -0.2577 336.3657 171.0604)" fill="#FFFFFF" width="77.651" height="51.148"/>
	
		<rect x="53.532" y="207.149" transform="matrix(-0.2577 0.9662 -0.9662 -0.2577 321.0331 177.4425)" fill="#FF3399" width="77.651" height="9.775"/>
	<g>
		<path fill="#C4C4C4" d="M92.4,263.252c-2.665-0.711-4.825-2.371-6.21-4.524c-1.567-2.433-7.197-10.073-7.197-10.073
			s8.838-3.993,11.543-5.294c2.21-1.062,4.797-1.37,7.353-0.688c5.684,1.516,9.062,7.352,7.546,13.034
			C103.919,261.39,98.084,264.768,92.4,263.252z"/>
	</g>
	<g>
		<path fill="#C4C4C4" d="M102.405,225.739c-2.665-0.711-4.825-2.372-6.21-4.524c-1.567-2.434-7.197-10.074-7.197-10.074
			s8.838-3.993,11.543-5.294c2.21-1.062,4.797-1.37,7.353-0.688c5.684,1.516,9.062,7.352,7.546,13.034
			C113.924,223.876,108.089,227.255,102.405,225.739z"/>
	</g>
	<g>
		<path fill="#C4C4C4" d="M112.411,188.224c-2.665-0.711-4.825-2.372-6.21-4.524c-1.567-2.434-7.197-10.073-7.197-10.073
			s8.838-3.993,11.543-5.294c2.21-1.061,4.797-1.37,7.353-0.688c5.684,1.516,9.062,7.352,7.546,13.034
			C123.93,186.361,118.095,189.74,112.411,188.224z"/>
	</g>
</g>
<polygon fill="#FFE600" points="67.759,118.361 69.858,118.361 74.68,123.807 60.838,123.802 66.111,118.362 "/>
<line fill="none" stroke="#000000" stroke-width="2" stroke-miterlimit="10" x1="65.078" y1="118.361" x2="71.342" y2="118.361"/>
<polygon fill="#FF9900" points="88.53,1 90.629,1 95.451,6.446 81.609,6.441 86.881,1 "/>
<line fill="none" stroke="#000000" stroke-width="2" stroke-miterlimit="10" x1="85.849" y1="1" x2="92.113" y2="1"/>
</svg>
