<?xml version="1.0" encoding="utf-8"?>
<!-- Generator: Adobe Illustrator 17.0.0, SVG Export Plug-In . SVG Version: 6.00 Build 0)  -->
<!DOCTYPE svg PUBLIC "-//W3C//DTD SVG 1.1//EN" "http://www.w3.org/Graphics/SVG/1.1/DTD/svg11.dtd">
<svg version="1.1" id="Слой_1" xmlns="http://www.w3.org/2000/svg" xmlns:xlink="http://www.w3.org/1999/xlink" x="0px" y="0px"
	 width="62.738px" height="90.117px" viewBox="0 0 62.738 90.117" enable-background="new 0 0 62.738 90.117" xml:space="preserve">
<g>
	<rect x="31.506" y="63.005" fill="#813333" width="9.728" height="23.512"/>
	<path d="M41.344,86.517h-9.906v3.341h12.344C43.401,87.948,41.344,86.517,41.344,86.517z"/>
</g>
<g>
	<rect x="20.148" y="63.005" fill="#813333" width="9.73" height="23.512"/>
	<path d="M29.988,86.517h-9.906v3.341h12.344C32.043,87.948,29.988,86.517,29.988,86.517z"/>
</g>
<g>
	<path fill="#663399" d="M14.786,54.45c0-7.668,7.297-14.61,16.303-14.61c9.002,0,16.302,6.942,16.302,14.61"/>
	<path fill="#813333" d="M47.391,55.276c0,7.667-7.3,13.884-16.302,13.884c-9.003,0-16.303-6.217-16.303-13.884"/>
	<rect x="26.663" y="38.969" fill="#FFFFFF" width="8.849" height="19.557"/>
	<g>
		<path fill="#663399" d="M35.512,58.525C35.644,67.05,47.39,65.58,47.39,65.58V54.076c0,0-8.718-11.542-11.878-11.542
			C35.512,67.706,35.512,43.88,35.512,58.525z"/>
	</g>
	<g>
		<path fill="#663399" d="M26.663,58.525c-0.13,8.525-11.877,7.055-11.877,7.055V54.076c0,0,8.716-11.542,11.877-11.542
			C26.663,67.706,26.663,43.88,26.663,58.525z"/>
	</g>
</g>
<g>
	<path fill="#FF8A33" d="M34.482,40.15l-3.299,4.252l-3.301-4.252v-5.804c0-1.642,1.478-2.973,3.301-2.973l0,0
		c1.822,0,3.299,1.331,3.299,2.973V40.15z"/>
	<g>
		<circle fill="#FF8A33" cx="31.525" cy="21.192" r="19.214"/>
		<path fill="#4D3333" d="M31.7,4.792l13.194,0.917C41.273,2.182,36.34,0,30.884,0C19.781,0,10.78,9,10.78,20.104
			c0,3.688,0.247,2.305,3.227,6.063l1.461-0.52c1.813,0.391,4.922,0.488,4.898-1.566c-0.139-12.36,2.45-18.393,10.291-19.289H31.7z"
			/>
		<path fill="#4D3333" d="M32.192,21.044c0,0.517-0.42,0.937-0.933,0.937c-0.52,0-0.937-0.42-0.937-0.937
			c0-0.515,0.417-0.933,0.937-0.933C31.772,20.111,32.192,20.529,32.192,21.044z"/>
		<circle fill="#4D3333" cx="46.43" cy="21.044" r="0.936"/>
		<path fill="#FF8A33" d="M22.455,24.002c0,2.44-1.978,4.418-4.418,4.418H12.37c-2.441,0-4.418-1.979-4.418-4.418l0,0
			c0-2.439,1.977-4.417,4.418-4.417h5.667C20.478,19.585,22.455,21.562,22.455,24.002L22.455,24.002z"/>
		<path fill="#4D3333" d="M44.755,5.67c3.802,4.318-0.286,7.094-4.863,6.512c-3.537-0.448-8.246-2.086-12.109-6.263
			C23.923,1.747,44.755,5.67,44.755,5.67z"/>
		<path fill="#4D3333" d="M20.471,23.273c0,1.097-0.888,1.983-1.981,1.983l0,0c-1.096,0-1.984-0.887-1.984-1.983v-5.166
			c0-1.094,0.888-1.983,1.984-1.983l0,0c1.093,0,1.981,0.89,1.981,1.983V23.273z"/>
		<path fill="#4D3333" d="M53.151,3.786L53.151,3.786c0,4.584-3.717,8.296-8.299,8.296H42.48c-4.583,0-8.298-3.712-8.298-8.296l0,0"
			/>
		<path fill="#FF8A33" d="M47.873,1.911"/>
	</g>
</g>
<g>
	<g>
		<g>
			<g>
				<path fill="#FF8A33" d="M19.272,56.781c0.351,0.12,0.743,0.25,1.065,0.511c0.354,0.214,0.671,0.527,0.962,0.874
					c0.584,0.673,1.015,1.597,1.023,2.6c0.008,1.002-0.459,1.899-1.329,2.527c-0.434,0.306-0.977,0.505-1.58,0.628
					c-0.617,0.071-1.287,0.096-1.996-0.116c-1.406-0.344-2.583-1.346-3.046-2.429c-0.241-0.532-0.314-1.072-0.227-1.576
					c0.082-0.495,0.311-0.926,0.645-1.3c0.696-0.751,1.546-1.147,2.312-1.475C17.856,56.727,18.521,56.596,19.272,56.781z"/>
				<path fill="#663399" d="M17.404,63.858c0,0-0.109-0.03-0.313-0.086c-0.205-0.059-0.501-0.129-0.889-0.284
					c-0.764-0.273-1.886-0.736-3.154-1.653c-1.253-0.91-2.656-2.46-3.367-4.556c-0.716-2.082-0.575-4.519,0.215-6.451
					c0.756-1.977,2.02-3.529,3.326-4.681c1.313-1.159,2.676-1.951,3.863-2.499c1.192-0.535,2.208-0.855,2.918-1.052
					c0.712-0.174,1.119-0.273,1.119-0.273c1.342-0.276,2.612,0.005,3.479,0.619c0.874,0.632,1.358,1.537,1.363,2.555
					c0.005,1.018-0.428,1.959-1.037,2.649c-0.614,0.707-1.384,1.211-2.261,1.385c0,0-0.262,0.065-0.721,0.177
					c-0.452,0.124-1.08,0.329-1.777,0.635c-0.685,0.319-1.423,0.761-2.047,1.314c-0.628,0.546-1.127,1.215-1.345,1.825
					c-0.425,1.265-0.089,1.798,0.676,2.436c0.404,0.284,0.871,0.507,1.239,0.628c0.348,0.141,0.61,0.173,0.599,0.183"/>
			</g>
		</g>
	</g>
</g>
<g>
	<g>
		<g>
			<g>
				<path fill="#FF8A33" d="M45.789,63.85c-0.712,0.219-1.384,0.193-2.005,0.129c-0.606-0.119-1.153-0.318-1.591-0.619
					c-0.878-0.624-1.353-1.518-1.352-2.52s0.431-1.929,1.014-2.606c0.292-0.346,0.608-0.663,0.964-0.879
					c0.326-0.26,0.717-0.396,1.072-0.517c0.757-0.19,1.423-0.068,2.186,0.225c0.768,0.322,1.622,0.715,2.322,1.461
					c0.336,0.372,0.568,0.801,0.652,1.295c0.09,0.503,0.021,1.046-0.218,1.578C48.375,62.487,47.199,63.495,45.789,63.85z"/>
				<path fill="#663399" d="M43.876,56.786c-0.01-0.009,0.249-0.046,0.603-0.188c0.368-0.126,0.842-0.352,1.25-0.643
					c0.775-0.655,1.096-1.21,0.664-2.463c-0.431-1.261-2.036-2.517-3.397-3.106c-0.695-0.303-1.323-0.502-1.772-0.625
					c-0.458-0.109-0.72-0.172-0.72-0.172c-0.873-0.172-1.642-0.67-2.257-1.375c-0.609-0.686-1.046-1.625-1.047-2.643
					s0.475-1.926,1.342-2.562c0.859-0.62,2.123-0.906,3.462-0.64c0,0,0.406,0.097,1.117,0.267c0.709,0.191,1.724,0.506,2.916,1.031
					c1.187,0.544,2.552,1.323,3.868,2.473c1.309,1.144,2.582,2.682,3.349,4.654c0.801,1.926,0.96,4.359,0.26,6.453
					c-0.698,2.105-2.096,3.671-3.348,4.594c-1.268,0.93-2.393,1.406-3.158,1.682c-0.389,0.156-0.687,0.234-0.892,0.291
					c-0.205,0.057-0.314,0.088-0.314,0.088"/>
			</g>
		</g>
	</g>
</g>
<path fill="#994733" d="M36.705,31.374c0,0.406-0.329,0.735-0.735,0.735h-4.871c-0.406,0-0.735-0.329-0.735-0.735l0,0
	c0-0.406,0.329-0.735,0.735-0.735h4.871C36.376,30.639,36.705,30.968,36.705,31.374L36.705,31.374z"/>
<g>
	<rect x="26.402" y="71.924" fill="#CCCCCC" width="11.003" height="18.193"/>
	<rect x="22.069" y="57.958" fill="#CCCCCC" width="19.67" height="5.69"/>
	<rect x="30.273" y="63.648" fill="#CCCCCC" width="3.261" height="9.061"/>
</g>
</svg>
