<?xml version="1.0" encoding="utf-8"?>
<!-- Generator: Adobe Illustrator 17.0.0, SVG Export Plug-In . SVG Version: 6.00 Build 0)  -->
<!DOCTYPE svg PUBLIC "-//W3C//DTD SVG 1.1//EN" "http://www.w3.org/Graphics/SVG/1.1/DTD/svg11.dtd">
<svg version="1.1" id="Слой_1" xmlns="http://www.w3.org/2000/svg" xmlns:xlink="http://www.w3.org/1999/xlink" x="0px" y="0px"
	 width="1649.383px" height="2618.968px" viewBox="0 0 1649.383 2618.968" enable-background="new 0 0 1649.383 2618.968"
	 xml:space="preserve">
<rect x="706.505" y="2440.341" width="238" height="113.211"/>
<g>
	<rect x="565.154" y="2484.12" fill="#CC9999" width="126.468" height="7.654"/>
	<rect x="566.247" y="2547.083" fill="#CC9999" width="125.375" height="7.654"/>
	<rect x="565.154" y="2476.312" fill="#FFFFFF" width="126.468" height="7.656"/>
	<rect x="566.247" y="2539.274" fill="#FFFFFF" width="125.375" height="7.656"/>
	<g>
		<rect x="644.961" y="2443.638" fill="#FFFFFF" width="20.333" height="20.656"/>
		<rect x="661.556" y="2440.341" width="16.987" height="36.123"/>
		<polygon fill="#333366" points="644.57,2476.464 661.556,2476.464 661.556,2440.341 644.57,2461.065 		"/>
		<rect x="665.294" y="2463.397" fill="#FFFFFF" width="9.513" height="4.022"/>
	</g>
	<g>
		<rect x="624.961" y="2443.638" fill="#FFFFFF" width="20.333" height="20.656"/>
		<rect x="641.556" y="2440.341" width="16.987" height="36.123"/>
		<polygon fill="#333366" points="624.57,2476.464 641.556,2476.464 641.556,2440.341 624.57,2461.065 		"/>
		<rect x="645.294" y="2463.397" fill="#FFFFFF" width="9.513" height="4.022"/>
	</g>
	<g>
		<rect x="604.961" y="2443.638" fill="#FFFFFF" width="20.333" height="20.656"/>
		<rect x="621.556" y="2440.341" width="16.987" height="36.123"/>
		<polygon fill="#333366" points="604.57,2476.464 621.556,2476.464 621.556,2440.341 604.57,2461.065 		"/>
		<rect x="625.294" y="2463.397" fill="#FFFFFF" width="9.513" height="4.022"/>
	</g>
	<g>
		<rect x="643.708" y="2507.261" fill="#FFFFFF" width="20.333" height="20.656"/>
		<rect x="660.304" y="2503.966" width="16.987" height="36.123"/>
		<polygon fill="#333366" points="643.318,2540.089 660.304,2540.089 660.304,2503.966 643.318,2524.69 		"/>
		<rect x="664.042" y="2527.022" fill="#FFFFFF" width="9.513" height="4.022"/>
	</g>
	<g>
		<rect x="623.708" y="2507.261" fill="#FFFFFF" width="20.333" height="20.656"/>
		<rect x="640.304" y="2503.966" width="16.987" height="36.123"/>
		<polygon fill="#333366" points="623.318,2540.089 640.304,2540.089 640.304,2503.966 623.318,2524.69 		"/>
		<rect x="644.042" y="2527.022" fill="#FFFFFF" width="9.513" height="4.022"/>
	</g>
	<g>
		<rect x="584.687" y="2507.261" fill="#FFFFFF" width="20.333" height="20.656"/>
		<rect x="601.284" y="2503.966" width="16.986" height="36.123"/>
		<polygon fill="#333366" points="584.296,2540.089 601.284,2540.089 601.284,2503.966 584.296,2524.69 		"/>
		<rect x="605.02" y="2527.022" fill="#FFFFFF" width="9.513" height="4.022"/>
	</g>
	<g>
		<rect x="584.961" y="2443.638" fill="#FFFFFF" width="20.333" height="20.656"/>
		<rect x="601.556" y="2440.341" width="16.987" height="36.123"/>
		<polygon fill="#333366" points="584.57,2476.464 601.556,2476.464 601.556,2440.341 584.57,2461.065 		"/>
		<rect x="605.294" y="2463.397" fill="#FFFFFF" width="9.513" height="4.022"/>
	</g>
</g>
<g>
	<g>
		<rect x="370.499" y="2384.587" fill="#999999" width="158.055" height="194.359"/>
		<rect x="379.04" y="2392.917" fill="#CCCCCC" width="141.757" height="177.223"/>
		<g>
			<g>
				<rect id="SVGID_1_" x="388.383" y="2402.253" fill="#CC99ED" width="122.521" height="167.887"/>
			</g>
			<g>
				<defs>
					<rect id="SVGID_2_" x="388.383" y="2402.253" width="122.521" height="167.887"/>
				</defs>
				<clipPath id="SVGID_4_">
					<use xlink:href="#SVGID_2_"  overflow="visible"/>
				</clipPath>
				<g clip-path="url(#SVGID_4_)">
					<g>
						<rect x="284.038" y="2506.056" fill="#6633CC" width="14.405" height="23.842"/>
						<rect x="306.885" y="2483.208" fill="#6633CC" width="14.404" height="46.689"/>
						<rect x="284.038" y="2529.837" fill="#6633CC" width="243.378" height="41.736"/>
						<rect x="292.986" y="2519.226" fill="#6633CC" width="83.047" height="25.984"/>
						<rect x="327.25" y="2501.853" fill="#6633CC" width="44.779" height="43.477"/>
						<path fill="#6633CC" d="M339.248,2501.204c0,5.732,4.648,10.381,10.383,10.381s10.382-4.648,10.382-10.381
							c0-5.736-4.648-10.387-10.382-10.387S339.248,2495.468,339.248,2501.204z"/>
						<path fill="#6633CC" d="M346.892,2503.323c0,1.514,1.226,2.74,2.738,2.74l0,0c1.513,0,2.737-1.227,2.737-2.74v-17.422
							c0-1.514-1.225-2.738-2.737-2.738l0,0c-1.513,0-2.738,1.225-2.738,2.738V2503.323z"/>
						<path fill="#6633CC" d="M366.552,2514.538c0,1.514,1.226,2.738,2.739,2.738l0,0c1.512,0,2.738-1.225,2.738-2.738v-17.424
							c0-1.514-1.226-2.738-2.738-2.738l0,0c-1.513,0-2.739,1.225-2.739,2.738V2514.538z"/>
						<path fill="#6633CC" d="M327.353,2515.021c0,1.514,1.227,2.738,2.737,2.738l0,0c1.513,0,2.739-1.225,2.739-2.738v-17.424
							c0-1.51-1.227-2.738-2.739-2.738l0,0c-1.511,0-2.737,1.229-2.737,2.738V2515.021z"/>
						<rect x="383.879" y="2512.329" fill="#6633CC" width="20.415" height="22.576"/>
						<rect x="409.054" y="2496.931" fill="#6633CC" width="35.523" height="44.578"/>
						<polygon fill="#6633CC" points="444.561,2496.931 426.808,2489.821 409.054,2496.931 						"/>
						<rect x="450.372" y="2518.444" fill="#6633CC" width="12.046" height="22.998"/>
						<rect x="479.545" y="2512.733" fill="#6633CC" width="31.34" height="30.955"/>
						<rect x="487.91" y="2498.362" fill="#6633CC" width="14.611" height="15.68"/>
						<path fill="#6633CC" d="M429.711,2493.577h-6.434v-10.322c0-1.711,1.387-3.1,3.099-3.1h0.206h0.03c1.712,0,3.1,1.389,3.1,3.1
							v10.322H429.711z"/>
					</g>
				</g>
			</g>
		</g>
		<g>
			<rect x="388.384" y="2406.745" fill="#FFFFFF" width="122.521" height="3.904"/>
			<rect x="388.384" y="2415.376" fill="#FFFFFF" width="122.521" height="3.906"/>
			<rect x="388.384" y="2424.011" fill="#FFFFFF" width="122.521" height="3.902"/>
			<rect x="388.384" y="2432.644" fill="#FFFFFF" width="122.521" height="3.902"/>
			<rect x="388.384" y="2441.274" fill="#FFFFFF" width="122.521" height="3.904"/>
			<rect x="388.384" y="2449.905" fill="#FFFFFF" width="122.521" height="3.906"/>
			<rect x="388.384" y="2458.538" fill="#FFFFFF" width="122.521" height="3.904"/>
			<rect x="388.384" y="2467.173" fill="#FFFFFF" width="122.521" height="3.902"/>
			<rect x="388.384" y="2475.804" fill="#FFFFFF" width="122.521" height="3.904"/>
			<rect x="388.384" y="2484.437" fill="#FFFFFF" width="122.521" height="3.902"/>
			<rect x="388.384" y="2493.067" fill="#FFFFFF" width="122.521" height="3.904"/>
			<rect x="388.384" y="2501.7" fill="#FFFFFF" width="122.521" height="3.902"/>
			<rect x="388.384" y="2510.333" fill="#FFFFFF" width="122.521" height="3.904"/>
			<rect x="388.384" y="2518.966" fill="#FFFFFF" width="122.521" height="3.902"/>
			<rect x="388.384" y="2527.597" fill="#FFFFFF" width="122.521" height="3.904"/>
			<rect x="388.384" y="2536.229" fill="#FFFFFF" width="122.521" height="3.904"/>
			<rect x="388.384" y="2544.86" fill="#FFFFFF" width="122.521" height="3.904"/>
			<rect x="388.384" y="2553.493" fill="#FFFFFF" width="122.521" height="3.904"/>
			<rect x="388.384" y="2562.126" fill="#FFFFFF" width="122.521" height="3.904"/>
		</g>
	</g>
	<rect x="359.591" y="2570.14" fill="#FFFFFF" width="180.187" height="8.693"/>
	<rect x="359.591" y="2578.628" fill="#CC9999" width="180.187" height="6.693"/>
</g>
<g>
	<g>
		<rect x="10.908" y="2384.587" fill="#999999" width="158.055" height="194.359"/>
		<rect x="19.45" y="2392.917" fill="#CCCCCC" width="141.757" height="177.223"/>
		<g>
			<g>
				<rect id="SVGID_3_" x="28.792" y="2402.253" fill="#CC99ED" width="122.521" height="167.887"/>
			</g>
			<g>
				<defs>
					<rect id="SVGID_6_" x="28.792" y="2402.253" width="122.521" height="167.887"/>
				</defs>
				<clipPath id="SVGID_8_">
					<use xlink:href="#SVGID_6_"  overflow="visible"/>
				</clipPath>
				<g clip-path="url(#SVGID_8_)">
					<g>
						<rect x="-75.553" y="2506.056" fill="#6633CC" width="14.405" height="23.842"/>
						<rect x="-52.706" y="2483.208" fill="#6633CC" width="14.404" height="46.689"/>
						<rect x="-75.553" y="2529.837" fill="#6633CC" width="243.378" height="41.736"/>
						<rect x="-66.604" y="2519.226" fill="#6633CC" width="83.047" height="25.984"/>
						<rect x="-32.341" y="2501.853" fill="#6633CC" width="44.779" height="43.477"/>
						<path fill="#6633CC" d="M-20.343,2501.204c0,5.732,4.648,10.381,10.383,10.381c5.734,0,10.382-4.648,10.382-10.381
							c0-5.736-4.648-10.387-10.382-10.387C-15.695,2490.817-20.343,2495.468-20.343,2501.204z"/>
						<path fill="#6633CC" d="M-12.699,2503.323c0,1.514,1.226,2.74,2.738,2.74l0,0c1.513,0,2.737-1.227,2.737-2.74v-17.422
							c0-1.514-1.225-2.738-2.737-2.738l0,0c-1.513,0-2.738,1.225-2.738,2.738V2503.323z"/>
						<path fill="#6633CC" d="M6.961,2514.538c0,1.514,1.226,2.738,2.739,2.738l0,0c1.512,0,2.738-1.225,2.738-2.738v-17.424
							c0-1.514-1.226-2.738-2.738-2.738l0,0c-1.513,0-2.739,1.225-2.739,2.738C6.961,2497.114,6.961,2514.538,6.961,2514.538z"/>
						<path fill="#6633CC" d="M-32.238,2515.021c0,1.514,1.227,2.738,2.737,2.738l0,0c1.513,0,2.739-1.225,2.739-2.738v-17.424
							c0-1.51-1.227-2.738-2.739-2.738l0,0c-1.511,0-2.737,1.229-2.737,2.738V2515.021z"/>
						<rect x="24.289" y="2512.329" fill="#6633CC" width="20.414" height="22.576"/>
						<rect x="49.463" y="2496.931" fill="#6633CC" width="35.523" height="44.578"/>
						<polygon fill="#6633CC" points="84.97,2496.931 67.217,2489.821 49.463,2496.931 						"/>
						<rect x="90.781" y="2518.444" fill="#6633CC" width="12.046" height="22.998"/>
						<rect x="119.955" y="2512.733" fill="#6633CC" width="31.34" height="30.955"/>
						<rect x="128.319" y="2498.362" fill="#6633CC" width="14.611" height="15.68"/>
						<path fill="#6633CC" d="M70.121,2493.577h-6.434v-10.322c0-1.711,1.387-3.1,3.099-3.1h0.205h0.03c1.712,0,3.1,1.389,3.1,3.1
							V2493.577z"/>
					</g>
				</g>
			</g>
		</g>
		<g>
			<rect x="28.793" y="2406.745" fill="#FFFFFF" width="122.521" height="3.904"/>
			<rect x="28.793" y="2415.376" fill="#FFFFFF" width="122.521" height="3.906"/>
			<rect x="28.793" y="2424.011" fill="#FFFFFF" width="122.521" height="3.902"/>
			<rect x="28.793" y="2432.644" fill="#FFFFFF" width="122.521" height="3.902"/>
			<rect x="28.793" y="2441.274" fill="#FFFFFF" width="122.521" height="3.904"/>
			<rect x="28.793" y="2449.905" fill="#FFFFFF" width="122.521" height="3.906"/>
			<rect x="28.793" y="2458.538" fill="#FFFFFF" width="122.521" height="3.904"/>
			<rect x="28.793" y="2467.173" fill="#FFFFFF" width="122.521" height="3.902"/>
			<rect x="28.793" y="2475.804" fill="#FFFFFF" width="122.521" height="3.904"/>
			<rect x="28.793" y="2484.437" fill="#FFFFFF" width="122.521" height="3.902"/>
			<rect x="28.793" y="2493.067" fill="#FFFFFF" width="122.521" height="3.904"/>
			<rect x="28.793" y="2501.7" fill="#FFFFFF" width="122.521" height="3.902"/>
			<rect x="28.793" y="2510.333" fill="#FFFFFF" width="122.521" height="3.904"/>
			<rect x="28.793" y="2518.966" fill="#FFFFFF" width="122.521" height="3.902"/>
			<rect x="28.793" y="2527.597" fill="#FFFFFF" width="122.521" height="3.904"/>
			<rect x="28.793" y="2536.229" fill="#FFFFFF" width="122.521" height="3.904"/>
			<rect x="28.793" y="2544.86" fill="#FFFFFF" width="122.521" height="3.904"/>
			<rect x="28.793" y="2553.493" fill="#FFFFFF" width="122.521" height="3.904"/>
			<rect x="28.793" y="2562.126" fill="#FFFFFF" width="122.521" height="3.904"/>
		</g>
	</g>
	<rect x="0" y="2570.14" fill="#FFFFFF" width="180.186" height="8.693"/>
	<rect x="0" y="2578.628" fill="#CC9999" width="180.186" height="6.693"/>
</g>
<g>
	<g>
		<rect x="1122.424" y="2384.587" fill="#999999" width="158.055" height="194.359"/>
		<rect x="1130.18" y="2392.917" fill="#CCCCCC" width="141.758" height="177.223"/>
		<g>
			<g>
				<rect id="SVGID_5_" x="1140.074" y="2402.253" fill="#CC99ED" width="122.521" height="167.887"/>
			</g>
			<g>
				<defs>
					<rect id="SVGID_9_" x="1140.074" y="2402.253" width="122.521" height="167.887"/>
				</defs>
				<clipPath id="SVGID_10_">
					<use xlink:href="#SVGID_9_"  overflow="visible"/>
				</clipPath>
				<g clip-path="url(#SVGID_10_)">
					<g>
						<rect x="1247.673" y="2506.056" fill="#6633CC" width="14.921" height="23.842"/>
						<rect x="1224.009" y="2483.208" fill="#6633CC" width="14.92" height="46.689"/>
						<rect x="1010.505" y="2529.837" fill="#6633CC" width="252.089" height="41.736"/>
						<rect x="1167.306" y="2519.226" fill="#6633CC" width="86.019" height="25.984"/>
						<rect x="1171.455" y="2501.853" fill="#6633CC" width="46.381" height="43.477"/>
						<path fill="#6633CC" d="M1205.409,2501.204c0,5.732-4.815,10.381-10.755,10.381s-10.754-4.648-10.754-10.381
							c0-5.736,4.814-10.387,10.754-10.387S1205.409,2495.468,1205.409,2501.204z"/>
						<path fill="#6633CC" d="M1197.49,2503.323c0,1.514-1.269,2.74-2.836,2.74l0,0c-1.566,0-2.835-1.227-2.835-2.74v-17.422
							c0-1.514,1.269-2.738,2.835-2.738l0,0c1.567,0,2.836,1.225,2.836,2.738V2503.323z"/>
						<path fill="#6633CC" d="M1177.127,2514.538c0,1.514-1.27,2.738-2.836,2.738l0,0c-1.566,0-2.836-1.225-2.836-2.738v-17.424
							c0-1.514,1.27-2.738,2.836-2.738l0,0c1.566,0,2.836,1.225,2.836,2.738V2514.538z"/>
						<path fill="#6633CC" d="M1217.729,2515.021c0,1.514-1.271,2.738-2.836,2.738l0,0c-1.566,0-2.837-1.225-2.837-2.738v-17.424
							c0-1.51,1.271-2.738,2.837-2.738l0,0c1.565,0,2.836,1.229,2.836,2.738V2515.021z"/>
						<rect x="1138.034" y="2512.329" fill="#6633CC" width="21.145" height="22.576"/>
						<rect x="1096.309" y="2496.931" fill="#6633CC" width="36.794" height="44.578"/>
						<polygon fill="#6633CC" points="1096.326,2496.931 1114.714,2489.821 1133.104,2496.931 						"/>
						<rect x="1077.83" y="2518.444" fill="#6633CC" width="12.477" height="22.998"/>
						<rect x="1027.628" y="2512.733" fill="#6633CC" width="32.461" height="30.955"/>
						<rect x="1036.292" y="2498.362" fill="#6633CC" width="15.133" height="15.68"/>
						<path fill="#6633CC" d="M1111.707,2493.577h6.665v-10.322c0-1.711-1.437-3.1-3.21-3.1h-0.213h-0.031
							c-1.773,0-3.21,1.389-3.21,3.1v10.322H1111.707z"/>
					</g>
				</g>
			</g>
		</g>
		<g>
			<rect x="1140.074" y="2406.745" fill="#FFFFFF" width="122.521" height="3.904"/>
			<rect x="1140.074" y="2415.376" fill="#FFFFFF" width="122.521" height="3.906"/>
			<rect x="1140.074" y="2424.011" fill="#FFFFFF" width="122.521" height="3.902"/>
			<rect x="1140.074" y="2432.644" fill="#FFFFFF" width="122.521" height="3.902"/>
			<rect x="1140.074" y="2441.274" fill="#FFFFFF" width="122.521" height="3.904"/>
			<rect x="1140.074" y="2449.905" fill="#FFFFFF" width="122.521" height="3.906"/>
			<rect x="1140.074" y="2458.538" fill="#FFFFFF" width="122.521" height="3.904"/>
			<rect x="1140.074" y="2467.173" fill="#FFFFFF" width="122.521" height="3.902"/>
			<rect x="1140.074" y="2475.804" fill="#FFFFFF" width="122.521" height="3.904"/>
			<rect x="1140.074" y="2484.437" fill="#FFFFFF" width="122.521" height="3.902"/>
			<rect x="1140.074" y="2493.067" fill="#FFFFFF" width="122.521" height="3.904"/>
			<rect x="1140.074" y="2501.7" fill="#FFFFFF" width="122.521" height="3.902"/>
			<rect x="1140.074" y="2510.333" fill="#FFFFFF" width="122.521" height="3.904"/>
			<rect x="1140.074" y="2518.966" fill="#FFFFFF" width="122.521" height="3.902"/>
			<rect x="1140.074" y="2527.597" fill="#FFFFFF" width="122.521" height="3.904"/>
			<rect x="1140.074" y="2536.229" fill="#FFFFFF" width="122.521" height="3.904"/>
			<rect x="1140.074" y="2544.86" fill="#FFFFFF" width="122.521" height="3.904"/>
			<rect x="1140.074" y="2553.493" fill="#FFFFFF" width="122.521" height="3.904"/>
			<rect x="1140.074" y="2562.126" fill="#FFFFFF" width="122.521" height="3.904"/>
		</g>
	</g>
	<rect x="1111.201" y="2570.14" fill="#FFFFFF" width="180.186" height="8.693"/>
	<rect x="1111.201" y="2578.628" fill="#CC9999" width="180.186" height="6.693"/>
</g>
<g>
	<g>
		<rect x="1480.42" y="2384.587" fill="#999999" width="158.055" height="194.359"/>
		<rect x="1488.176" y="2392.917" fill="#CCCCCC" width="141.758" height="177.223"/>
		<g>
			<g>
				<rect id="SVGID_7_" x="1498.069" y="2402.253" fill="#CC99ED" width="122.521" height="167.887"/>
			</g>
			<g>
				<defs>
					<rect id="SVGID_11_" x="1498.069" y="2402.253" width="122.521" height="167.887"/>
				</defs>
				<clipPath id="SVGID_12_">
					<use xlink:href="#SVGID_11_"  overflow="visible"/>
				</clipPath>
				<g clip-path="url(#SVGID_12_)">
					<g>
						<rect x="1605.669" y="2506.056" fill="#6633CC" width="14.921" height="23.842"/>
						<rect x="1582.005" y="2483.208" fill="#6633CC" width="14.92" height="46.689"/>
						<rect x="1368.501" y="2529.837" fill="#6633CC" width="252.089" height="41.736"/>
						<rect x="1525.301" y="2519.226" fill="#6633CC" width="86.019" height="25.984"/>
						<rect x="1529.45" y="2501.853" fill="#6633CC" width="46.381" height="43.477"/>
						<path fill="#6633CC" d="M1563.404,2501.204c0,5.732-4.815,10.381-10.755,10.381s-10.754-4.648-10.754-10.381
							c0-5.736,4.814-10.387,10.754-10.387S1563.404,2495.468,1563.404,2501.204z"/>
						<path fill="#6633CC" d="M1555.485,2503.323c0,1.514-1.269,2.74-2.836,2.74l0,0c-1.566,0-2.835-1.227-2.835-2.74v-17.422
							c0-1.514,1.269-2.738,2.835-2.738l0,0c1.567,0,2.836,1.225,2.836,2.738V2503.323z"/>
						<path fill="#6633CC" d="M1535.123,2514.538c0,1.514-1.27,2.738-2.836,2.738l0,0c-1.566,0-2.836-1.225-2.836-2.738v-17.424
							c0-1.514,1.27-2.738,2.836-2.738l0,0c1.566,0,2.836,1.225,2.836,2.738V2514.538z"/>
						<path fill="#6633CC" d="M1575.725,2515.021c0,1.514-1.271,2.738-2.836,2.738l0,0c-1.566,0-2.837-1.225-2.837-2.738v-17.424
							c0-1.51,1.271-2.738,2.837-2.738l0,0c1.565,0,2.836,1.229,2.836,2.738V2515.021z"/>
						<rect x="1496.03" y="2512.329" fill="#6633CC" width="21.145" height="22.576"/>
						<rect x="1454.305" y="2496.931" fill="#6633CC" width="36.794" height="44.578"/>
						<polygon fill="#6633CC" points="1454.321,2496.931 1472.71,2489.821 1491.099,2496.931 						"/>
						<rect x="1435.825" y="2518.444" fill="#6633CC" width="12.477" height="22.998"/>
						<rect x="1385.623" y="2512.733" fill="#6633CC" width="32.461" height="30.955"/>
						<rect x="1394.288" y="2498.362" fill="#6633CC" width="15.133" height="15.68"/>
						<path fill="#6633CC" d="M1469.703,2493.577h6.665v-10.322c0-1.711-1.437-3.1-3.21-3.1h-0.213h-0.031
							c-1.773,0-3.21,1.389-3.21,3.1v10.322H1469.703z"/>
					</g>
				</g>
			</g>
		</g>
		<g>
			<rect x="1498.069" y="2406.745" fill="#FFFFFF" width="122.521" height="3.904"/>
			<rect x="1498.069" y="2415.376" fill="#FFFFFF" width="122.521" height="3.906"/>
			<rect x="1498.069" y="2424.011" fill="#FFFFFF" width="122.521" height="3.902"/>
			<rect x="1498.069" y="2432.644" fill="#FFFFFF" width="122.521" height="3.902"/>
			<rect x="1498.069" y="2441.274" fill="#FFFFFF" width="122.521" height="3.904"/>
			<rect x="1498.069" y="2449.905" fill="#FFFFFF" width="122.521" height="3.906"/>
			<rect x="1498.069" y="2458.538" fill="#FFFFFF" width="122.521" height="3.904"/>
			<rect x="1498.069" y="2467.173" fill="#FFFFFF" width="122.521" height="3.902"/>
			<rect x="1498.069" y="2475.804" fill="#FFFFFF" width="122.521" height="3.904"/>
			<rect x="1498.069" y="2484.437" fill="#FFFFFF" width="122.521" height="3.902"/>
			<rect x="1498.069" y="2493.067" fill="#FFFFFF" width="122.521" height="3.904"/>
			<rect x="1498.069" y="2501.7" fill="#FFFFFF" width="122.521" height="3.902"/>
			<rect x="1498.069" y="2510.333" fill="#FFFFFF" width="122.521" height="3.904"/>
			<rect x="1498.069" y="2518.966" fill="#FFFFFF" width="122.521" height="3.902"/>
			<rect x="1498.069" y="2527.597" fill="#FFFFFF" width="122.521" height="3.904"/>
			<rect x="1498.069" y="2536.229" fill="#FFFFFF" width="122.521" height="3.904"/>
			<rect x="1498.069" y="2544.86" fill="#FFFFFF" width="122.521" height="3.904"/>
			<rect x="1498.069" y="2553.493" fill="#FFFFFF" width="122.521" height="3.904"/>
			<rect x="1498.069" y="2562.126" fill="#FFFFFF" width="122.521" height="3.904"/>
		</g>
	</g>
	<rect x="1469.196" y="2570.14" fill="#FFFFFF" width="180.186" height="8.693"/>
	<rect x="1469.196" y="2578.628" fill="#CC9999" width="180.186" height="6.693"/>
</g>
<rect x="1313.419" y="2339.901" fill="#FFF266" width="151.777" height="15.461"/>
<rect x="1313.419" y="2334.747" fill="#FFFFFF" width="151.777" height="10.309"/>
<path fill="#B57666" d="M1313.501,2342.755h-4.656c-2.821,0-5.108-2.287-5.108-5.109l0,0c0-2.82,2.287-5.107,5.108-5.107h4.656"/>
<path fill="#B57666" d="M1465.384,2332.536l4.655,0.002c2.82,0,5.108,2.287,5.108,5.107l0,0c0,2.822-2.287,5.109-5.108,5.109h-4.656
	"/>
<rect x="1311.103" y="0" fill="#CC9999" width="2.142" height="2332.538"/>
<rect x="1465.196" y="0" fill="#CC9999" width="2.142" height="2332.538"/>
<rect x="1313.419" y="2332.538" fill="#B57666" width="152.848" height="4.785"/>
<rect x="189.869" y="2339.901" fill="#FFF266" width="151.777" height="15.461"/>
<rect x="189.869" y="2334.747" fill="#FFFFFF" width="151.777" height="10.309"/>
<path fill="#B57666" d="M189.95,2342.755h-4.655c-2.821,0-5.108-2.287-5.108-5.109l0,0c0-2.82,2.287-5.107,5.108-5.107h4.655"/>
<path fill="#B57666" d="M341.833,2332.536l4.655,0.002c2.82,0,5.108,2.287,5.108,5.107l0,0c0,2.822-2.287,5.109-5.108,5.109h-4.656"
	/>
<rect x="187.552" y="0" fill="#CC9999" width="2.142" height="2332.538"/>
<rect x="341.646" y="0" fill="#CC9999" width="2.142" height="2332.538"/>
<rect x="189.869" y="2332.538" fill="#B57666" width="152.848" height="4.785"/>
<g>
	<polygon fill="#7A7EDE" points="1059.392,2567.563 1039.782,2567.585 1039.778,2559.312 1059.388,2559.292 	"/>
	<path fill="#9999ED" d="M1067.84,2541.88c-0.013-0.016-0.022-0.025-0.035-0.041l0.061-6.402c0.006-0.627,0.425-1.17,1.026-1.348
		c1.474-0.439,2.548-1.805,2.546-3.422l-0.001-1.605c-0.002-1.279-0.548-2.688-1.691-3.029c-1.594-0.473-2.071-1.988-1.895-3.537
		l-0.078-4.637c-0.001-1.148,0.509-2.234,1.389-2.971c0.78-0.652,1.596-1.58,1.595-2.609l-0.004-3.303
		c-0.002-1.969-1.6-3.562-3.568-3.561l-17.665,0.018l-17.665,0.02c-1.969,0-3.562,1.6-3.561,3.568l0.003,3.303
		c0.002,1.029,0.819,1.957,1.6,2.605c0.883,0.736,1.395,1.82,1.396,2.967l-0.056,4.637c0.179,1.551-0.294,3.064-1.888,3.543
		c-1.142,0.342-1.685,1.752-1.684,3.031l0.002,1.607c0.002,1.615,1.078,2.979,2.553,3.414c0.602,0.18,1.021,0.721,1.029,1.348
		l0.074,6.4c-0.014,0.018-0.022,0.027-0.035,0.043c-2.248,0.393-3.956,2.348-3.954,4.707v0.188
		c0.009,7.715,6.268,13.961,13.979,13.951l8.27-0.008l8.27-0.01c7.712-0.006,13.958-6.266,13.95-13.979v-0.188
		C1071.802,2544.22,1070.088,2542.269,1067.84,2541.88z"/>
	<g>
		<path fill="#BDBFFF" d="M1053.41,2512.347l-20.889,0.021c-1.01,0.002-1.83-0.816-1.831-1.826s0.817-1.83,1.827-1.83l20.889-0.021
			c1.01-0.002,1.831,0.816,1.831,1.826C1055.239,2511.526,1054.421,2512.347,1053.41,2512.347z"/>
	</g>
	<g>
		<path fill="#BDBFFF" d="M1055.271,2531.839l-22.723,0.025c-1.011,0.002-1.83-0.816-1.831-1.828
			c-0.001-1.01,0.817-1.828,1.827-1.83l22.723-0.023c1.01-0.002,1.83,0.816,1.831,1.828
			C1057.099,2531.021,1056.282,2531.839,1055.271,2531.839z"/>
	</g>
	<g>
		<path fill="#BDBFFF" d="M1041.447,2548.489l-8.881,0.01c-1.011,0.002-1.83-0.816-1.831-1.826s0.816-1.83,1.827-1.832l8.881-0.008
			c1.01-0.002,1.83,0.816,1.831,1.826S1042.457,2548.489,1041.447,2548.489z"/>
	</g>
	<path fill="#FFFFFF" d="M1068.782,2568.759l-1.096-0.959c-1.932-1.689-4.413-2.619-6.979-2.615l-23.118,0.021
		c-3.077,0.004-6.002,1.348-8.01,3.68l-0.054,0.062c-1.346,1.562-2.087,3.559-2.087,5.621l-0.005,43.58h44.517l-0.223-42.926
		C1071.72,2572.743,1070.648,2570.39,1068.782,2568.759z"/>
	<path fill="#BDBFFF" d="M1063.523,2600.204l-27.737,0.029l-0.038-18.459c-0.004-3,2.424-5.432,5.423-5.434l16.879-0.021
		c2.998,0,5.431,2.428,5.434,5.424L1063.523,2600.204z"/>
	<g>
		<g>
			<path fill="#68B1E1" d="M1044.104,2584.597l-4.52,0.004c-0.703,0-1.273-0.568-1.274-1.271v-0.025
				c-0.001-0.703,0.568-1.273,1.271-1.273l4.519-0.006c0.703,0,1.273,0.568,1.275,1.271v0.025
				C1045.376,2584.024,1044.806,2584.597,1044.104,2584.597z"/>
			<rect x="1040.399" y="2584.647" fill="#FFFFFF" width="2.9" height="6.072"/>
		</g>
		<g>
			<path fill="#F16623" d="M1059.653,2584.579l-4.519,0.006c-0.703,0.002-1.273-0.57-1.274-1.273v-0.025
				c0-0.701,0.568-1.271,1.271-1.273l4.52-0.004c0.703,0,1.273,0.568,1.274,1.271v0.023
				C1060.925,2584.009,1060.356,2584.579,1059.653,2584.579z"/>
			<rect x="1055.948" y="2584.632" fill="#FFFFFF" width="2.9" height="6.072"/>
		</g>
	</g>
</g>
<g>
	<polygon fill="#B57666" points="1008.295,2618.474 986.133,2618.474 982.468,2590.267 1011.042,2590.267 	"/>
	<g>
		<g>
			<defs>
				<polygon id="SVGID_13_" points="1008.295,2618.474 986.133,2618.474 982.468,2590.267 1011.042,2590.267 				"/>
			</defs>
			<clipPath id="SVGID_14_">
				<use xlink:href="#SVGID_13_"  overflow="visible"/>
			</clipPath>
			<g clip-path="url(#SVGID_14_)">
				
					<rect x="1002.905" y="2604.614" transform="matrix(-0.7072 -0.707 0.707 -0.7072 -127.532 5159.9775)" fill="#FFFFFF" width="3.564" height="3.564"/>
				
					<rect x="1006.974" y="2608.666" transform="matrix(-0.707 -0.7072 0.7072 -0.707 -124.1715 5169.4507)" fill="#FFFFFF" width="3.566" height="3.563"/>
				
					<rect x="1011.223" y="2612.791" transform="matrix(-0.7072 -0.707 0.707 -0.7072 -119.1126 5179.8184)" fill="#FFFFFF" width="3.563" height="3.565"/>
				
					<rect x="995.148" y="2604.532" transform="matrix(-0.7073 -0.7069 0.7069 -0.7073 -140.3569 5154.5161)" fill="#FFFFFF" width="3.564" height="3.566"/>
				
					<rect x="999.312" y="2608.625" transform="matrix(-0.707 -0.7072 0.7072 -0.707 -137.2216 5163.9639)" fill="#FFFFFF" width="3.565" height="3.564"/>
				
					<rect x="1003.346" y="2612.658" transform="matrix(-0.707 -0.7072 0.7072 -0.707 -133.1888 5173.7012)" fill="#FFFFFF" width="3.565" height="3.564"/>
				
					<rect x="987.233" y="2604.382" transform="matrix(-0.7073 -0.7069 0.7069 -0.7073 -153.7645 5148.6646)" fill="#FFFFFF" width="3.564" height="3.566"/>
				
					<rect x="991.159" y="2608.367" transform="matrix(-0.7072 -0.707 0.707 -0.7072 -150.2386 5158.0806)" fill="#FFFFFF" width="3.564" height="3.565"/>
				
					<rect x="995.38" y="2612.486" transform="matrix(-0.707 -0.7072 0.7072 -0.707 -146.6653 5167.7729)" fill="#FFFFFF" width="3.565" height="3.564"/>
				
					<rect x="1003.314" y="2620.49" transform="matrix(-0.7073 -0.7069 0.7069 -0.7073 -137.6962 5187.5342)" fill="#FFFFFF" width="3.564" height="3.566"/>
				
					<rect x="983.193" y="2608.193" transform="matrix(-0.7072 -0.707 0.707 -0.7072 -163.7134 5152.1514)" fill="#FFFFFF" width="3.564" height="3.564"/>
				
					<rect x="987.226" y="2612.227" transform="matrix(-0.7072 -0.707 0.707 -0.7072 -159.6818 5161.8887)" fill="#FFFFFF" width="3.564" height="3.564"/>
				
					<rect x="995.328" y="2620.309" transform="matrix(-0.707 -0.7072 0.7072 -0.707 -152.2859 5181.0908)" fill="#FFFFFF" width="3.566" height="3.564"/>
				
					<rect x="999.337" y="2624.331" transform="matrix(-0.7074 -0.7068 0.7068 -0.7074 -146.8357 5191.4424)" fill="#FFFFFF" width="3.565" height="3.566"/>
				
					<rect x="979.311" y="2612.075" transform="matrix(-0.7072 -0.707 0.707 -0.7072 -173.0863 5156.0342)" fill="#FFFFFF" width="3.564" height="3.565"/>
				
					<rect x="987.616" y="2620.25" transform="matrix(-0.707 -0.7072 0.7072 -0.707 -165.4092 5175.5356)" fill="#FFFFFF" width="3.565" height="3.564"/>
				
					<rect x="991.649" y="2624.283" transform="matrix(-0.707 -0.7072 0.7072 -0.707 -161.3769 5185.2725)" fill="#FFFFFF" width="3.565" height="3.564"/>
				
					<rect x="995.536" y="2628.251" transform="matrix(-0.7071 -0.7071 0.7071 -0.7071 -157.1837 5194.9575)" fill="#FFFFFF" width="3.566" height="3.564"/>
			</g>
		</g>
	</g>
</g>
</svg>
