<?xml version="1.0" encoding="utf-8"?>
<!-- Generator: Adobe Illustrator 17.0.0, SVG Export Plug-In . SVG Version: 6.00 Build 0)  -->
<!DOCTYPE svg PUBLIC "-//W3C//DTD SVG 1.1//EN" "http://www.w3.org/Graphics/SVG/1.1/DTD/svg11.dtd">
<svg version="1.1" id="Слой_1" xmlns="http://www.w3.org/2000/svg" xmlns:xlink="http://www.w3.org/1999/xlink" x="0px" y="0px"
	 width="396px" height="457px" viewBox="0 0 396 457" enable-background="new 0 0 396 457" xml:space="preserve">
<g>
	<path fill="#FF3399" d="M155,313l-54.042,36.841c18.035,17.95,39.353,38.142,56.349,54.016L155,313z"/>
	<path fill="#FF3399" d="M50.528,153.163c-9.851,20.183-15.385,42.859-15.385,66.83c0,26.93,6.983,52.227,19.228,74.188L99,229
		L50.528,153.163z"/>
	<path fill="#FF3399" d="M335.601,182.357L279,228l50.631,48.108c6.874-17.37,10.653-36.301,10.653-56.116
		C340.284,207.004,338.655,194.396,335.601,182.357z"/>
	<path fill="#FF3399" d="M234,310l-5.66,83.873c21.711-20.564,47.284-45.157,63.804-62.264L234,310z"/>
	<path fill="#FF3399" d="M194.447,67.579L211,163l70.583-63.285C257.347,80.773,227.24,69.003,194.447,67.579z"/>
	<path fill="#FF3399" d="M151,153l8.314-82.927c-30.92,5.822-58.546,20.964-79.845,42.407L151,153z"/>
</g>
<polygon fill="#FFFFFF" points="143,231 0,396 182,264 187,457 218,261 396,357 238,240 367,104 197,198 179,0 162,191 16,79 "/>
</svg>
