<?xml version="1.0" encoding="utf-8"?>
<!-- Generator: Adobe Illustrator 17.0.0, SVG Export Plug-In . SVG Version: 6.00 Build 0)  -->
<!DOCTYPE svg PUBLIC "-//W3C//DTD SVG 1.1//EN" "http://www.w3.org/Graphics/SVG/1.1/DTD/svg11.dtd">
<svg version="1.1" id="Слой_1" xmlns="http://www.w3.org/2000/svg" xmlns:xlink="http://www.w3.org/1999/xlink" x="0px" y="0px"
	 width="98.95px" height="211.31px" viewBox="0 0 98.95 211.31" enable-background="new 0 0 98.95 211.31" xml:space="preserve">
<path fill="none" stroke="#545454" stroke-width="2" stroke-miterlimit="10" d="M49.727,52.847
	c0,39.291-1.001,125.481-1.001,125.481"/>
<path fill="none" stroke="#545454" stroke-width="2" stroke-miterlimit="10" d="M10.07,44.401c0,39.291-0.002,125.481-0.002,125.481
	"/>
<path fill="none" stroke="#545454" stroke-width="2" stroke-miterlimit="10" d="M88.53,0c0,39.291-0.001,171.787-0.001,171.787"/>
<g>
	<rect x="10.649" y="160.161" fill="#FFFFFF" width="77.651" height="51.148"/>
	<rect x="10.649" y="170.376" fill="#FF3399" width="77.651" height="9.775"/>
	<g>
		<path fill="#C4C4C4" d="M0,188.503c0-2.758,1.048-5.273,2.771-7.166c1.947-2.141,7.878-9.55,7.878-9.55s6.136,7.51,8.09,9.789
			c1.596,1.862,2.56,4.282,2.56,6.927c0,5.883-4.768,10.65-10.649,10.65C4.768,199.153,0,194.386,0,188.503z"/>
	</g>
	<g>
		<path fill="#C4C4C4" d="M38.825,188.503c0-2.758,1.049-5.273,2.771-7.166c1.948-2.141,7.879-9.55,7.879-9.55
			s6.136,7.51,8.09,9.789c1.596,1.862,2.56,4.282,2.56,6.927c0,5.883-4.768,10.65-10.649,10.65
			C43.593,199.153,38.825,194.386,38.825,188.503z"/>
	</g>
	<g>
		<path fill="#C4C4C4" d="M77.651,188.503c0-2.758,1.049-5.273,2.771-7.166c1.948-2.141,7.878-9.55,7.878-9.55
			s6.136,7.51,8.09,9.789c1.595,1.862,2.56,4.282,2.56,6.927c0,5.883-4.768,10.65-10.649,10.65
			C82.42,199.153,77.651,194.386,77.651,188.503z"/>
	</g>
</g>
<polygon fill="#FFE600" points="9.387,42.736 11.486,42.736 16.308,48.182 2.466,48.177 7.739,42.736 "/>
<line fill="none" stroke="#000000" stroke-width="2" stroke-miterlimit="10" x1="6.706" y1="42.736" x2="12.97" y2="42.736"/>
<polygon fill="#FF3399" points="49.227,47.401 51.325,47.401 56.148,52.847 42.305,52.842 47.578,47.401 "/>
<line fill="none" stroke="#000000" stroke-width="2" stroke-miterlimit="10" x1="46.545" y1="47.401" x2="52.809" y2="47.401"/>
<polygon fill="#FF9900" points="88.53,1 90.629,1 95.451,6.446 81.609,6.441 86.881,1 "/>
<line fill="none" stroke="#000000" stroke-width="2" stroke-miterlimit="10" x1="85.849" y1="1" x2="92.113" y2="1"/>
</svg>
