<?xml version="1.0" encoding="utf-8"?>
<!-- Generator: Adobe Illustrator 17.0.0, SVG Export Plug-In . SVG Version: 6.00 Build 0)  -->
<!DOCTYPE svg PUBLIC "-//W3C//DTD SVG 1.1//EN" "http://www.w3.org/Graphics/SVG/1.1/DTD/svg11.dtd">
<svg version="1.1" id="Слой_1" xmlns="http://www.w3.org/2000/svg" xmlns:xlink="http://www.w3.org/1999/xlink" x="0px" y="0px"
	 width="62.738px" height="90.117px" viewBox="0 0 62.738 90.117" enable-background="new 0 0 62.738 90.117" xml:space="preserve">
<g>
	<rect x="31.506" y="63.005" fill="#813333" width="9.728" height="23.512"/>
	<path d="M41.344,86.517h-9.906v3.341h12.344C43.401,87.948,41.344,86.517,41.344,86.517z"/>
</g>
<g>
	<rect x="20.148" y="63.005" fill="#813333" width="9.73" height="23.512"/>
	<path d="M29.988,86.517h-9.906v3.341h12.344C32.043,87.948,29.988,86.517,29.988,86.517z"/>
</g>
<g>
	<path fill="#663399" d="M14.786,54.45c0-7.668,7.297-14.61,16.303-14.61c9.002,0,16.302,6.942,16.302,14.61"/>
	<path fill="#813333" d="M47.391,55.276c0,7.667-7.3,13.884-16.302,13.884c-9.003,0-16.303-6.217-16.303-13.884"/>
	<rect x="26.663" y="38.969" fill="#FFFFFF" width="8.849" height="19.557"/>
	<g>
		<path fill="#663399" d="M35.512,58.525c0.132,8.525,11.878,7.055,11.878,7.055V54.076c0,0-8.718-11.542-11.878-11.542
			C35.512,67.706,35.512,43.88,35.512,58.525z"/>
	</g>
	<g>
		<path fill="#663399" d="M26.663,58.525c-0.13,8.525-11.877,7.055-11.877,7.055V54.076c0,0,8.716-11.542,11.877-11.542
			C26.663,67.706,26.663,43.88,26.663,58.525z"/>
	</g>
</g>
<g>
	<path fill="#FF8A33" d="M34.482,40.15l-3.299,4.252l-3.301-4.252v-5.804c0-1.642,1.478-2.973,3.301-2.973l0,0
		c1.822,0,3.299,1.331,3.299,2.973V40.15z"/>
	<g>
		<circle fill="#FF8A33" cx="31.525" cy="21.192" r="19.214"/>
		<path fill="#4D3333" d="M31.7,4.792l13.194,0.917C41.273,2.182,36.34,0,30.884,0C19.781,0,10.78,9,10.78,20.104
			c0,3.688,0.247,2.305,3.227,6.063l1.461-0.52c1.813,0.391,4.922,0.488,4.898-1.566c-0.139-12.36,2.45-18.393,10.291-19.289H31.7z"
			/>
		<path fill="#4D3333" d="M32.192,21.044c0,0.517-0.42,0.937-0.933,0.937c-0.52,0-0.937-0.42-0.937-0.937
			c0-0.515,0.417-0.933,0.937-0.933C31.772,20.111,32.192,20.529,32.192,21.044z"/>
		<circle fill="#4D3333" cx="46.43" cy="21.044" r="0.936"/>
		<path fill="#FF8A33" d="M22.455,24.002c0,2.44-1.978,4.418-4.418,4.418H12.37c-2.441,0-4.418-1.979-4.418-4.418l0,0
			c0-2.439,1.977-4.417,4.418-4.417h5.667C20.478,19.585,22.455,21.562,22.455,24.002L22.455,24.002z"/>
		<path fill="#4D3333" d="M44.755,5.67c3.802,4.318-0.286,7.094-4.863,6.512c-3.537-0.448-8.246-2.086-12.109-6.263
			C23.923,1.747,44.755,5.67,44.755,5.67z"/>
		<path fill="#4D3333" d="M20.471,23.273c0,1.097-0.888,1.983-1.981,1.983l0,0c-1.096,0-1.984-0.887-1.984-1.983v-5.166
			c0-1.094,0.888-1.983,1.984-1.983l0,0c1.093,0,1.981,0.89,1.981,1.983V23.273z"/>
		<path fill="#4D3333" d="M53.151,3.786L53.151,3.786c0,4.584-3.717,8.296-8.299,8.296H42.48c-4.583,0-8.298-3.712-8.298-8.296l0,0"
			/>
		<path fill="#FF8A33" d="M47.873,1.911"/>
	</g>
</g>
<g>
	<g>
		<g>
			<g>
				<path fill="#FF8A33" d="M24.081,61.691c0.772,0.265,1.501,0.748,2.098,1.476c0.602,0.675,1.062,1.605,1.071,2.607
					c0.009,1.002-0.496,1.896-1.456,2.514c-0.48,0.28-1.073,0.484-1.737,0.568c-0.667,0.047-1.405,0.021-2.15-0.234
					c-1.495-0.458-2.656-1.521-3.092-2.631c-0.476-1.083-0.236-2.179,0.418-2.904c0.683-0.763,1.579-1.117,2.434-1.368
					C22.511,61.511,23.298,61.446,24.081,61.691z"/>
				<path fill="#663399" d="M21.893,68.675c0,0-0.115-0.036-0.331-0.104c-0.217-0.059-0.531-0.184-0.928-0.352
					c-0.798-0.303-1.921-0.889-3.148-1.796c-1.22-0.917-2.499-2.264-3.438-3.965c-0.947-1.693-1.54-3.711-1.653-5.746
					c-0.097-2.035,0.279-4.069,0.991-5.825c0.705-1.763,1.74-3.233,2.773-4.315c1.036-1.082,2.032-1.833,2.756-2.28
					c0.719-0.469,1.154-0.673,1.154-0.673c1.409-0.768,2.914-0.767,3.977-0.379c1.083,0.444,1.748,1.255,1.912,2.257
					c0.164,1.004-0.139,2.013-0.617,2.792c-0.464,0.837-1.101,1.44-1.831,1.851c0,0-0.24,0.107-0.606,0.353
					c-0.384,0.225-0.868,0.613-1.375,1.129c-1.025,1.012-1.868,2.839-1.77,4.705c0.099,1.869,1.098,3.452,2.209,4.239
					c0.56,0.395,1.07,0.698,1.485,0.838c0.386,0.181,0.646,0.233,0.646,0.233"/>
			</g>
		</g>
	</g>
</g>
<g>
	<g>
		<g>
			<g>
				<path fill="#FF8A33" d="M43.906,69.515c-1.586,0.61-3.11,0.368-4.115-0.167c-1.011-0.606-1.542-1.498-1.539-2.499
					c0.003-1.002,0.473-1.936,1.08-2.616c0.595-0.745,1.321-1.232,2.046-1.528c0.735-0.281,1.472-0.253,2.333-0.118
					c0.834,0.141,1.826,0.406,2.583,1.042c0.773,0.65,1.11,1.671,0.733,2.881C46.659,67.693,45.488,68.933,43.906,69.515z"/>
				<path fill="#663399" d="M41.358,62.654c0,0,0.059-0.019,0.169-0.055c0.1-0.047,0.246-0.116,0.432-0.203
					c0.369-0.175,0.849-0.465,1.295-0.914c0.451-0.443,0.873-1.054,1.151-1.85c0.289-0.788,0.367-1.783,0.253-2.788
					c-0.2-2.054-1.436-3.979-2.604-5.063c-1.2-1.087-2.229-1.544-2.229-1.544c-0.793-0.425-1.465-1.032-1.958-1.87
					c-0.502-0.781-0.826-1.788-0.673-2.795c0.153-1.005,0.82-1.817,1.917-2.269c1.074-0.394,2.595-0.397,4.016,0.343
					c0,0,0.443,0.191,1.166,0.643c0.74,0.416,1.733,1.141,2.822,2.13c2.143,1.995,4.422,5.466,4.862,9.541
					c0.237,2.012,0.076,4.132-0.591,6.042c-0.648,1.913-1.763,3.565-2.945,4.719c-1.176,1.174-2.367,1.868-3.194,2.275
					c-0.42,0.193-0.75,0.345-0.976,0.448c-0.228,0.081-0.35,0.123-0.35,0.123"/>
			</g>
		</g>
	</g>
</g>
<path fill="#994733" d="M36.705,31.374c0,0.406-0.329,0.735-0.735,0.735h-4.871c-0.406,0-0.735-0.329-0.735-0.735l0,0
	c0-0.406,0.329-0.735,0.735-0.735h4.871C36.376,30.639,36.705,30.968,36.705,31.374L36.705,31.374z"/>
<path fill="#FFFFFF" d="M6.152,40.561c0.7-0.701,4.125-1.592,4.125-1.592s-0.891,3.426-1.59,4.125c-0.7,0.7-1.835,0.699-2.535,0
	C5.452,42.394,5.452,41.26,6.152,40.561z"/>
<path fill="#FFFFFF" d="M1.791,26.628c0.991-0.001,4.043,1.791,4.043,1.791s-3.052,1.793-4.041,1.792
	c-0.99,0-1.792-0.803-1.793-1.792C0,27.429,0.802,26.627,1.791,26.628z"/>
<path fill="#FFFFFF" d="M60.947,32.003c-0.992,0.001-4.042-1.791-4.042-1.791s3.052-1.793,4.041-1.793
	c0.99,0,1.792,0.803,1.792,1.793C62.738,31.202,61.936,32.004,60.947,32.003z"/>
<path fill="#FFFFFF" d="M52.417,40.769c-0.701-0.7-1.592-4.125-1.592-4.125s3.426,0.891,4.125,1.59c0.7,0.7,0.699,1.835,0,2.535
	C54.25,41.469,53.117,41.469,52.417,40.769z"/>
<rect x="26.402" y="71.924" fill="#CCCCCC" width="11.003" height="18.193"/>
<rect x="22.069" y="65.06" fill="#CCCCCC" width="19.67" height="5.69"/>
<rect x="30.273" y="70.75" fill="#CCCCCC" width="3.261" height="9.061"/>
</svg>
