<?xml version="1.0" encoding="utf-8"?>
<!-- Generator: Adobe Illustrator 17.0.0, SVG Export Plug-In . SVG Version: 6.00 Build 0)  -->
<!DOCTYPE svg PUBLIC "-//W3C//DTD SVG 1.1//EN" "http://www.w3.org/Graphics/SVG/1.1/DTD/svg11.dtd">
<svg version="1.1" id="Слой_1" xmlns="http://www.w3.org/2000/svg" xmlns:xlink="http://www.w3.org/1999/xlink" x="0px" y="0px"
	 width="67.757px" height="89.857px" viewBox="0 0 67.757 89.857" enable-background="new 0 0 67.757 89.857" xml:space="preserve">
<g>
	<rect x="33.723" y="63.004" fill="#813333" width="9.728" height="23.512"/>
	<path d="M43.561,86.516h-9.906v3.342h12.344C45.618,87.947,43.561,86.516,43.561,86.516z"/>
</g>
<g>
	<rect x="22.365" y="63.004" fill="#813333" width="9.73" height="23.512"/>
	<path d="M32.205,86.516h-9.906v3.342h12.344C34.26,87.947,32.205,86.516,32.205,86.516z"/>
</g>
<g>
	<path fill="#663399" d="M17.004,54.449c0-7.668,7.297-14.609,16.302-14.609c9.002,0,16.302,6.941,16.302,14.609"/>
	<path fill="#813333" d="M49.608,55.275c0,7.668-7.3,13.885-16.302,13.885c-9.004,0-16.302-6.217-16.302-13.885"/>
	<rect x="28.88" y="38.969" fill="#FFFFFF" width="8.849" height="19.557"/>
	<g>
		<path fill="#663399" d="M37.729,58.525c0.132,8.525,11.878,7.055,11.878,7.055V54.076c0,0-8.718-11.543-11.878-11.543
			C37.729,67.705,37.729,43.879,37.729,58.525z"/>
	</g>
	<g>
		<path fill="#663399" d="M28.88,58.525c-0.13,8.525-11.876,7.055-11.876,7.055V54.076c0,0,8.716-11.543,11.876-11.543
			C28.88,67.705,28.88,43.879,28.88,58.525z"/>
	</g>
</g>
<g>
	<path fill="#FF8A33" d="M36.699,40.15l-3.299,4.252l-3.301-4.252v-5.805c0-1.641,1.478-2.973,3.301-2.973l0,0
		c1.822,0,3.299,1.332,3.299,2.973V40.15z"/>
	<g>
		<circle fill="#FF8A33" cx="33.742" cy="21.191" r="19.214"/>
		<path fill="#4D3333" d="M33.917,4.791l13.194,0.918C43.49,2.182,38.557,0,33.101,0C21.998,0,12.997,9,12.997,20.104
			c0,3.688,0.247,2.305,3.227,6.062l1.461-0.52c1.813,0.391,4.922,0.488,4.898-1.566c-0.139-12.359,2.45-18.392,10.291-19.289
			H33.917z"/>
		<path fill="#4D3333" d="M34.409,21.043c0,0.518-0.42,0.938-0.933,0.938c-0.52,0-0.937-0.42-0.937-0.938
			c0-0.514,0.417-0.932,0.937-0.932C33.99,20.111,34.409,20.529,34.409,21.043z"/>
		<path fill="#4D3333" d="M49.583,21.043c0,0.518-0.419,0.938-0.936,0.938c-0.517,0-0.936-0.42-0.936-0.938
			c0-0.514,0.419-0.932,0.936-0.932C49.164,20.111,49.583,20.529,49.583,21.043z"/>
		<path fill="#FF8A33" d="M24.673,24.002c0,2.44-1.978,4.418-4.418,4.418h-5.667c-2.441,0-4.418-1.979-4.418-4.418l0,0
			c0-2.439,1.977-4.418,4.418-4.418h5.667C22.695,19.584,24.673,21.562,24.673,24.002L24.673,24.002z"/>
		<path fill="#4D3333" d="M46.972,5.67c3.802,4.318-0.286,7.094-4.863,6.512C38.573,11.732,33.864,10.096,30,5.918
			C26.14,1.746,46.972,5.67,46.972,5.67z"/>
		<path fill="#4D3333" d="M22.688,23.273c0,1.096-0.888,1.982-1.98,1.982l0,0c-1.096,0-1.984-0.887-1.984-1.982v-5.166
			c0-1.094,0.888-1.984,1.984-1.984l0,0c1.093,0,1.98,0.891,1.98,1.984V23.273z"/>
		<path fill="#4D3333" d="M55.368,3.785L55.368,3.785c0,4.584-3.717,8.297-8.299,8.297h-2.372c-4.583,0-8.298-3.713-8.298-8.297l0,0
			"/>
		<path fill="#FF8A33" d="M50.09,1.91"/>
	</g>
</g>
<g>
	<g>
		<g>
			<path fill="#FF8A33" d="M0.581,38.731c-0.629-0.877-0.691-1.976-0.45-2.885c0.256-0.923,0.89-1.701,1.809-2.17
				c0.919-0.47,1.939-0.564,2.819-0.384c0.9,0.172,1.579,0.671,2.088,1.363c0.899,1.421,0.513,3.527-1.076,4.865
				C4.204,40.841,1.759,40.576,0.581,38.731z"/>
			<path fill="#663399" d="M6.893,34.623c0,0,0.148,0.22,0.408,0.604c0.129,0.193,0.286,0.427,0.466,0.695
				c0.191,0.26,0.426,0.539,0.67,0.852c0.942,1.281,2.424,2.808,4.019,4.202c1.6,1.393,3.374,2.585,4.764,3.356
				c1.385,0.784,2.348,1.202,2.348,1.202c1.544,0.72,2.242,2.671,1.741,4.707c-0.495,2.044-2.866,3.138-4.88,2.201
				c0,0-1.229-0.535-2.961-1.515c-1.738-0.967-3.947-2.451-5.953-4.193c-2.003-1.74-3.852-3.672-5.045-5.273
				c-0.307-0.393-0.589-0.754-0.838-1.073c-0.227-0.335-0.425-0.628-0.588-0.869c-0.325-0.483-0.511-0.758-0.511-0.758"/>
		</g>
	</g>
</g>
<g>
	<g>
		<g>
			<path fill="#FF8A33" d="M66.406,52.496c0.858,0.584,1.271,1.561,1.343,2.467c0.063,0.923-0.268,1.836-0.955,2.566
				c-0.688,0.73-1.585,1.155-2.437,1.29c-0.868,0.147-1.636-0.069-2.311-0.515c-1.25-0.969-1.583-2.992-0.59-4.754
				C62.429,51.818,64.733,51.214,66.406,52.496z"/>
			<path fill="#663399" d="M62.013,58.349c0,0-0.202-0.147-0.556-0.403c-0.177-0.129-0.391-0.285-0.637-0.465
				c-0.26-0.158-0.553-0.337-0.873-0.531c-1.253-0.821-3.069-1.681-4.95-2.366c-1.884-0.682-3.858-1.133-5.353-1.33
				c-1.494-0.21-2.491-0.248-2.491-0.248c-1.612-0.097-2.912-1.619-3.181-3.638c-0.276-2.025,1.445-3.851,3.565-3.725
				c0,0,1.28,0.048,3.165,0.314c1.887,0.252,4.372,0.818,6.77,1.682c2.394,0.863,4.711,1.979,6.323,3.021
				c0.409,0.251,0.783,0.481,1.115,0.685c0.316,0.228,0.591,0.427,0.818,0.59c0.453,0.329,0.711,0.517,0.711,0.517"/>
		</g>
	</g>
</g>
<path fill="#994733" d="M39.742,32.109c0,0.406-0.329,0.734-0.735,0.734h-4.871c-0.406,0-0.735-0.328-0.735-0.734l0,0
	c0-0.406,0.329-0.736,0.735-0.736h4.871C39.413,31.373,39.742,31.703,39.742,32.109L39.742,32.109z"/>
<path d="M1.398,40.752c0,1.828,1.482,3.311,3.311,3.311l0,0c1.829,0,3.312-1.482,3.312-3.311V24.65c0-1.828-1.483-3.311-3.312-3.311
	l0,0c-1.828,0-3.311,1.482-3.311,3.311V40.752z"/>
<circle cx="6.093" cy="24.584" r="4.695"/>
<circle cx="6.093" cy="42.73" r="4.695"/>
</svg>
