<?xml version="1.0" encoding="utf-8"?>
<!-- Generator: Adobe Illustrator 17.0.0, SVG Export Plug-In . SVG Version: 6.00 Build 0)  -->
<!DOCTYPE svg PUBLIC "-//W3C//DTD SVG 1.1//EN" "http://www.w3.org/Graphics/SVG/1.1/DTD/svg11.dtd">
<svg version="1.1" id="Слой_1" xmlns="http://www.w3.org/2000/svg" xmlns:xlink="http://www.w3.org/1999/xlink" x="0px" y="0px"
	 width="57.588px" height="89.857px" viewBox="0 0 57.588 89.857" enable-background="new 0 0 57.588 89.857" xml:space="preserve">
<g>
	<rect x="23.554" y="63.004" fill="#813333" width="9.728" height="23.512"/>
	<path d="M33.392,86.516h-9.906v3.342H35.83C35.449,87.947,33.392,86.516,33.392,86.516z"/>
</g>
<g>
	<rect x="12.196" y="63.004" fill="#813333" width="9.73" height="23.512"/>
	<path d="M22.036,86.516h-9.906v3.342h12.344C24.091,87.947,22.036,86.516,22.036,86.516z"/>
</g>
<g>
	<path fill="#663399" d="M6.834,54.449c0-7.668,7.297-14.609,16.302-14.609c9.002,0,16.302,6.941,16.302,14.609"/>
	<path fill="#813333" d="M39.438,55.275c0,7.668-7.3,13.885-16.302,13.885c-9.004,0-16.302-6.217-16.302-13.885"/>
	<rect x="18.711" y="38.969" fill="#FFFFFF" width="8.849" height="19.557"/>
	<g>
		<path fill="#663399" d="M27.56,58.525c0.132,8.525,11.878,7.055,11.878,7.055V54.076c0,0-8.718-11.543-11.878-11.543
			C27.56,67.705,27.56,43.879,27.56,58.525z"/>
	</g>
	<g>
		<path fill="#663399" d="M18.711,58.525c-0.13,8.525-11.877,7.055-11.877,7.055V54.076c0,0,8.716-11.543,11.877-11.543
			C18.711,67.705,18.711,43.879,18.711,58.525z"/>
	</g>
</g>
<g>
	<path fill="#FF8A33" d="M26.53,40.15l-3.299,4.252L19.93,40.15v-5.805c0-1.641,1.478-2.973,3.301-2.973l0,0
		c1.822,0,3.299,1.332,3.299,2.973V40.15z"/>
	<g>
		<circle fill="#FF8A33" cx="23.573" cy="21.191" r="19.214"/>
		<path fill="#4D3333" d="M23.748,4.791l13.194,0.918C33.321,2.182,28.388,0,22.932,0C11.829,0,2.828,9,2.828,20.104
			c0,3.688,0.247,2.305,3.227,6.062l1.461-0.52c1.813,0.391,4.922,0.488,4.898-1.566c-0.139-12.359,2.45-18.392,10.29-19.289H23.748
			z"/>
		<path fill="#4D3333" d="M24.24,21.043c0,0.518-0.42,0.938-0.933,0.938c-0.52,0-0.937-0.42-0.937-0.938
			c0-0.514,0.417-0.932,0.937-0.932C23.82,20.111,24.24,20.529,24.24,21.043z"/>
		<path fill="#4D3333" d="M39.414,21.043c0,0.518-0.419,0.938-0.936,0.938s-0.936-0.42-0.936-0.938c0-0.514,0.419-0.932,0.936-0.932
			S39.414,20.529,39.414,21.043z"/>
		<path fill="#FF8A33" d="M14.503,24.002c0,2.44-1.978,4.418-4.418,4.418H4.418C1.977,28.42,0,26.441,0,24.002l0,0
			c0-2.439,1.977-4.418,4.418-4.418h5.667C12.525,19.584,14.503,21.562,14.503,24.002L14.503,24.002z"/>
		<path fill="#4D3333" d="M36.803,5.67c3.802,4.318-0.286,7.094-4.863,6.512c-3.537-0.449-8.245-2.086-12.109-6.264
			C15.971,1.746,36.803,5.67,36.803,5.67z"/>
		<path fill="#4D3333" d="M12.519,23.273c0,1.096-0.888,1.982-1.981,1.982l0,0c-1.096,0-1.984-0.887-1.984-1.982v-5.166
			c0-1.094,0.888-1.984,1.984-1.984l0,0c1.093,0,1.981,0.891,1.981,1.984V23.273z"/>
		<path fill="#4D3333" d="M45.199,3.785L45.199,3.785c0,4.584-3.717,8.297-8.299,8.297h-2.371c-4.583,0-8.298-3.713-8.298-8.297l0,0
			"/>
		<path fill="#FF8A33" d="M39.921,1.91"/>
	</g>
</g>
<g>
	<g>
		<g>
			<path fill="#FF8A33" d="M56.237,52.496c0.858,0.584,1.271,1.561,1.343,2.467c0.063,0.923-0.268,1.836-0.955,2.566
				c-0.688,0.73-1.585,1.155-2.437,1.29c-0.868,0.147-1.636-0.069-2.311-0.515c-1.25-0.969-1.583-2.992-0.59-4.754
				C52.26,51.818,54.564,51.214,56.237,52.496z"/>
			<path fill="#663399" d="M51.844,58.349c0,0-0.202-0.147-0.556-0.403c-0.177-0.129-0.391-0.285-0.637-0.465
				c-0.26-0.158-0.553-0.337-0.873-0.531c-1.253-0.821-3.069-1.681-4.95-2.366c-1.884-0.682-3.858-1.133-5.353-1.33
				c-1.494-0.21-2.491-0.248-2.491-0.248c-1.612-0.097-2.912-1.619-3.181-3.638c-0.276-2.025,1.445-3.851,3.565-3.725
				c0,0,1.28,0.048,3.165,0.314c1.887,0.252,4.372,0.818,6.77,1.682c2.394,0.863,4.711,1.979,6.323,3.021
				c0.409,0.251,0.783,0.481,1.115,0.685c0.316,0.228,0.591,0.427,0.818,0.59c0.453,0.329,0.711,0.517,0.711,0.517"/>
		</g>
	</g>
</g>
<g>
	<g>
		<g>
			<path fill="#FF8A33" d="M30.923,52.496c0.858,0.584,1.271,1.561,1.343,2.467c0.063,0.923-0.268,1.836-0.955,2.566
				c-0.688,0.73-1.585,1.155-2.437,1.29c-0.868,0.147-1.636-0.069-2.311-0.515c-1.25-0.969-1.583-2.992-0.59-4.754
				C26.946,51.818,29.25,51.214,30.923,52.496z"/>
			<path fill="#663399" d="M26.53,58.349c0,0-0.202-0.147-0.556-0.403c-0.177-0.129-0.391-0.285-0.637-0.465
				c-0.26-0.158-0.553-0.337-0.873-0.531c-1.253-0.821-3.069-1.681-4.95-2.366c-1.884-0.682-3.858-1.133-5.353-1.33
				c-1.494-0.21-2.491-0.248-2.491-0.248c-1.612-0.097-2.912-1.619-3.181-3.638c-0.276-2.025,1.445-3.851,3.565-3.725
				c0,0,1.28,0.048,3.165,0.314c1.887,0.252,4.372,0.818,6.77,1.682c2.394,0.863,4.711,1.979,6.323,3.021
				c0.409,0.251,0.783,0.481,1.115,0.685c0.316,0.228,0.591,0.427,0.818,0.59c0.453,0.329,0.711,0.517,0.711,0.517"/>
		</g>
	</g>
</g>
<path fill="#994733" d="M29.573,32.109c0,0.406-0.329,0.734-0.735,0.734h-4.871c-0.406,0-0.735-0.328-0.735-0.734l0,0
	c0-0.406,0.329-0.736,0.735-0.736h4.871C29.244,31.373,29.573,31.703,29.573,32.109L29.573,32.109z"/>
</svg>
