<?xml version="1.0" encoding="utf-8"?>
<!-- Generator: Adobe Illustrator 17.0.0, SVG Export Plug-In . SVG Version: 6.00 Build 0)  -->
<!DOCTYPE svg PUBLIC "-//W3C//DTD SVG 1.1//EN" "http://www.w3.org/Graphics/SVG/1.1/DTD/svg11.dtd">
<svg version="1.1" id="Слой_1" xmlns="http://www.w3.org/2000/svg" xmlns:xlink="http://www.w3.org/1999/xlink" x="0px" y="0px"
	 width="73.48px" height="89.857px" viewBox="261.443 376.016 73.48 89.857" enable-background="new 261.443 376.016 73.48 89.857"
	 xml:space="preserve">
<g>
	<rect x="300.888" y="439.02" fill="#813333" width="9.728" height="23.512"/>
	<path d="M310.726,462.531h-9.906v3.342h12.344C312.783,463.963,310.726,462.531,310.726,462.531z"/>
</g>
<g>
	<rect x="289.531" y="439.02" fill="#813333" width="9.73" height="23.512"/>
	<path d="M299.37,462.531h-9.906v3.342h12.344C301.425,463.963,299.37,462.531,299.37,462.531z"/>
</g>
<g>
	<path fill="#663399" d="M284.169,430.465c0-7.668,7.297-14.609,16.302-14.609c9.002,0,16.302,6.941,16.302,14.609"/>
	<path fill="#813333" d="M316.773,431.291c0,7.668-7.3,13.885-16.302,13.885c-9.003,0-16.302-6.217-16.302-13.885"/>
	<rect x="296.045" y="414.984" fill="#FFFFFF" width="8.849" height="19.557"/>
	<g>
		<path fill="#663399" d="M304.894,434.541c0.132,8.525,11.878,7.055,11.878,7.055v-11.504c0,0-8.718-11.543-11.878-11.543
			C304.894,443.721,304.894,419.895,304.894,434.541z"/>
	</g>
	<g>
		<path fill="#663399" d="M296.045,434.541c-0.13,8.525-11.877,7.055-11.877,7.055v-11.504c0,0,8.716-11.543,11.877-11.543
			C296.045,443.721,296.045,419.895,296.045,434.541z"/>
	</g>
</g>
<g>
	<path fill="#FF8A33" d="M303.865,416.166l-3.299,4.252l-3.301-4.252v-5.805c0-1.641,1.478-2.973,3.301-2.973l0,0
		c1.822,0,3.299,1.332,3.299,2.973V416.166z"/>
	<g>
		<circle fill="#FF8A33" cx="300.907" cy="397.207" r="19.214"/>
		<path fill="#4D3333" d="M301.082,380.807l13.194,0.918c-3.621-3.527-8.554-5.709-14.01-5.709c-11.103,0-20.104,9-20.104,20.104
			c0,3.688,0.247,2.305,3.227,6.062l1.461-0.52c1.813,0.391,4.922,0.488,4.898-1.566c-0.139-12.359,2.45-18.393,10.291-19.289
			H301.082z"/>
		<path fill="#4D3333" d="M301.575,397.059c0,0.518-0.42,0.938-0.933,0.938c-0.52,0-0.937-0.42-0.937-0.938
			c0-0.514,0.417-0.932,0.937-0.932C301.155,396.127,301.575,396.545,301.575,397.059z"/>
		<path fill="#4D3333" d="M316.748,397.059c0,0.518-0.419,0.938-0.936,0.938s-0.936-0.42-0.936-0.938
			c0-0.514,0.419-0.932,0.936-0.932S316.748,396.545,316.748,397.059z"/>
		<path fill="#FF8A33" d="M291.838,400.018c0,2.44-1.978,4.418-4.418,4.418h-5.667c-2.441,0-4.418-1.979-4.418-4.418l0,0
			c0-2.439,1.977-4.418,4.418-4.418h5.667C289.86,395.6,291.838,397.578,291.838,400.018L291.838,400.018z"/>
		<path fill="#4D3333" d="M314.137,381.686c3.802,4.318-0.286,7.094-4.863,6.512c-3.537-0.449-8.245-2.086-12.109-6.264
			C293.305,377.762,314.137,381.686,314.137,381.686z"/>
		<path fill="#4D3333" d="M289.853,399.289c0,1.096-0.888,1.982-1.98,1.982l0,0c-1.096,0-1.984-0.887-1.984-1.982v-5.166
			c0-1.094,0.888-1.984,1.984-1.984l0,0c1.093,0,1.98,0.891,1.98,1.984V399.289z"/>
		<path fill="#4D3333" d="M322.533,379.801L322.533,379.801c0,4.584-3.717,8.297-8.299,8.297h-2.371
			c-4.583,0-8.298-3.713-8.298-8.297l0,0"/>
		<path fill="#FF8A33" d="M317.255,377.926"/>
	</g>
</g>
<g>
	<g>
		<g>
			<g>
				<path fill="#FF8A33" d="M267.746,414.747c-0.629-0.877-0.691-1.976-0.45-2.885c0.256-0.923,0.89-1.701,1.809-2.17
					c0.919-0.47,1.939-0.564,2.819-0.384c0.9,0.172,1.579,0.671,2.088,1.363c0.899,1.421,0.513,3.527-1.076,4.865
					C271.369,416.856,268.924,416.592,267.746,414.747z"/>
				<path fill="#663399" d="M274.059,410.639c0,0,0.148,0.22,0.408,0.604c0.129,0.193,0.286,0.427,0.466,0.695
					c0.191,0.26,0.426,0.539,0.67,0.852c0.942,1.281,2.424,2.808,4.019,4.202c1.6,1.393,3.374,2.585,4.764,3.356
					c1.385,0.784,2.348,1.202,2.348,1.202c1.544,0.72,2.242,2.671,1.741,4.707c-0.495,2.044-2.866,3.138-4.88,2.201
					c0,0-1.229-0.535-2.961-1.515c-1.738-0.967-3.947-2.451-5.953-4.193c-2.003-1.74-3.852-3.672-5.045-5.273
					c-0.307-0.393-0.589-0.754-0.838-1.073c-0.227-0.335-0.425-0.628-0.588-0.869c-0.325-0.483-0.511-0.758-0.511-0.758"/>
			</g>
		</g>
	</g>
	<g>
		<g>
			<g>
				<path fill="#FF8A33" d="M327.022,407.974c0.493-0.722,1.141-1.272,2.022-1.543c0.87-0.269,1.911-0.294,2.873,0.08
					c0.962,0.375,1.651,1.113,1.953,2.079c0.294,0.954,0.26,2.166-0.405,3.177c-0.31,0.515-0.698,0.95-1.124,1.283
					c-0.444,0.321-0.959,0.516-1.454,0.617c-1.001,0.198-1.988-0.05-2.783-0.708c-0.794-0.659-1.271-1.577-1.447-2.463
					c-0.091-0.447-0.086-0.877-0.025-1.3C326.672,408.759,326.796,408.348,327.022,407.974z"/>
				<path fill="#663399" d="M333.514,411.795c0,0-0.193,0.318-0.531,0.876c-0.312,0.576-0.883,1.308-1.56,2.193
					c-0.64,0.92-1.577,1.813-2.512,2.836c-1.02,0.923-2.102,1.921-3.289,2.76c-2.34,1.734-4.887,3.081-6.845,3.94
					c-0.984,0.418-1.81,0.754-2.401,0.953c-0.585,0.215-0.924,0.326-0.924,0.326c-2.248,0.753-4.576-0.538-4.893-2.619
					c-0.313-2.068,0.74-3.993,2.501-4.582c0,0,0.272-0.089,0.743-0.263c0.477-0.159,1.139-0.431,1.931-0.767
					c1.572-0.691,3.593-1.767,5.386-3.097c0.919-0.643,1.719-1.4,2.492-2.085c0.675-0.767,1.396-1.413,1.845-2.091
					c0.488-0.649,0.922-1.171,1.135-1.595c0.243-0.404,0.382-0.635,0.382-0.635"/>
			</g>
		</g>
	</g>
	<g>
		<g>
			<g>
				<path fill="#FF8A33" d="M267.832,437.23c-0.678,0.552-1.455,0.895-2.377,0.904c-0.91,0.011-1.916-0.261-2.731-0.894
					c-0.815-0.633-1.267-1.537-1.281-2.548c-0.01-0.998,0.367-2.151,1.292-2.931c0.444-0.405,0.939-0.712,1.442-0.91
					c0.517-0.181,1.066-0.222,1.569-0.178c1.016,0.095,1.892,0.613,2.466,1.47s0.77,1.873,0.687,2.773
					c-0.04,0.454-0.167,0.865-0.345,1.253C268.392,436.577,268.156,436.937,267.832,437.23z"/>
				<path fill="#663399" d="M262.695,431.721c0,0,0.276-0.25,0.758-0.688c0.463-0.464,1.218-1.003,2.12-1.659
					c0.875-0.7,2.027-1.29,3.215-2.004c1.24-0.595,2.561-1.244,3.938-1.711c2.736-0.997,5.561-1.564,7.682-1.831
					c1.062-0.12,1.949-0.208,2.573-0.231c0.622-0.039,0.979-0.05,0.979-0.05c2.369-0.083,4.234,1.818,3.946,3.902
					c-0.288,2.072-1.845,3.617-3.701,3.682c0,0-0.286,0.008-0.787,0.041c-0.502,0.017-1.215,0.09-2.069,0.186
					c-1.703,0.215-3.947,0.672-6.044,1.437c-1.064,0.355-2.046,0.853-2.982,1.29c-0.865,0.543-1.74,0.957-2.363,1.48
					c-0.652,0.483-1.217,0.86-1.542,1.206c-0.348,0.318-0.547,0.5-0.547,0.5"/>
			</g>
		</g>
	</g>
	<g>
		<g>
			<g>
				<path fill="#FF8A33" d="M333.572,428.512c0.858,0.584,1.271,1.561,1.343,2.467c0.063,0.923-0.268,1.836-0.955,2.566
					c-0.688,0.73-1.585,1.155-2.437,1.29c-0.868,0.147-1.636-0.069-2.311-0.515c-1.25-0.969-1.583-2.992-0.59-4.754
					C329.594,427.833,331.898,427.229,333.572,428.512z"/>
				<path fill="#663399" d="M329.178,434.364c0,0-0.202-0.147-0.556-0.403c-0.177-0.129-0.391-0.285-0.637-0.465
					c-0.26-0.158-0.553-0.337-0.873-0.531c-1.253-0.821-3.069-1.681-4.95-2.366c-1.884-0.682-3.858-1.133-5.353-1.33
					c-1.494-0.21-2.491-0.248-2.491-0.248c-1.612-0.097-2.912-1.619-3.181-3.638c-0.276-2.025,1.445-3.851,3.565-3.725
					c0,0,1.28,0.048,3.165,0.314c1.887,0.252,4.372,0.818,6.77,1.682c2.394,0.863,4.711,1.979,6.323,3.021
					c0.409,0.251,0.783,0.481,1.115,0.685c0.316,0.228,0.591,0.427,0.818,0.59c0.453,0.329,0.711,0.517,0.711,0.517"/>
			</g>
		</g>
	</g>
</g>
<path fill="#994733" d="M306.908,408.125c0,0.406-0.329,0.734-0.735,0.734h-4.871c-0.406,0-0.735-0.328-0.735-0.734l0,0
	c0-0.406,0.329-0.736,0.735-0.736h4.871C306.578,407.389,306.908,407.719,306.908,408.125L306.908,408.125z"/>
</svg>
