<?xml version="1.0" encoding="utf-8"?>
<!-- Generator: Adobe Illustrator 17.0.0, SVG Export Plug-In . SVG Version: 6.00 Build 0)  -->
<!DOCTYPE svg PUBLIC "-//W3C//DTD SVG 1.1//EN" "http://www.w3.org/Graphics/SVG/1.1/DTD/svg11.dtd">
<svg version="1.1" id="Слой_1" xmlns="http://www.w3.org/2000/svg" xmlns:xlink="http://www.w3.org/1999/xlink" x="0px" y="0px"
	 width="47.597px" height="84.09px" viewBox="0 0 47.597 84.09" enable-background="new 0 0 47.597 84.09" xml:space="preserve">
<g>
	<path fill="#333333" d="M13.906,80.354l9.849-0.139c0.001,0-0.174-6.965,0.372-13.871c0.11-1.729,0.31-3.44,0.447-5.055
		c0.197-1.594,0.366-3.094,0.556-4.35c0.191-1.26,0.352-2.305,0.487-2.996c0.122-0.645,0.192-1.014,0.192-1.014l-9.618-2.121
		c0,0-0.026,0.127-0.075,0.363c-0.042,0.225-0.104,0.555-0.183,0.975c-0.161,0.822-0.339,1.977-0.549,3.359
		c-0.208,1.385-0.391,2.992-0.603,4.717c-0.15,1.725-0.361,3.564-0.479,5.404C13.723,72.988,13.906,80.354,13.906,80.354z"/>
	<path d="M13.795,80.354l10.029-0.141l0.049,3.445L11.382,84.09C11.736,81.955,13.795,80.354,13.795,80.354z"/>
</g>
<g>
	<path fill="#333333" d="M26.986,80.354l9.849-0.139c0.001,0-0.174-6.965,0.372-13.871c0.11-1.729,0.31-3.44,0.447-5.055
		c0.197-1.594,0.366-3.094,0.556-4.35c0.191-1.26,0.352-2.305,0.487-2.996c0.123-0.645,0.192-1.014,0.192-1.014l-9.618-2.121
		c0,0-0.025,0.127-0.074,0.363c-0.043,0.225-0.104,0.555-0.184,0.975c-0.16,0.822-0.339,1.977-0.549,3.359
		c-0.208,1.385-0.391,2.992-0.601,4.717c-0.151,1.725-0.362,3.564-0.48,5.404C26.803,72.988,26.986,80.354,26.986,80.354z"/>
	<path d="M26.875,80.354l10.03-0.141l0.048,3.445L24.462,84.09C24.817,81.955,26.875,80.354,26.875,80.354z"/>
</g>
<g>
	<g>
		<g>
			<path fill="#FF8A33" d="M47.096,60.27c0.078,0.29,0.13,0.579,0.156,0.862c0.003,0.286-0.026,0.566-0.074,0.835
				c-0.098,0.539-0.287,1.034-0.553,1.454c-0.531,0.844-1.365,1.376-2.362,1.481c-0.997,0.105-1.967-0.208-2.719-0.729
				c-0.376-0.262-0.697-0.58-0.94-0.944c-0.122-0.182-0.224-0.375-0.304-0.58c-0.106-0.197-0.191-0.404-0.251-0.622
				c-0.262-0.864-0.016-1.794,0.33-2.58c0.39-0.797,1.079-1.529,2.003-1.918c0.925-0.388,1.926-0.327,2.823,0.161
				C46.142,58.161,46.763,59.113,47.096,60.27z"/>
			<path fill="#666666" d="M39.995,62.041c0,0-0.074-0.27-0.205-0.742c-0.064-0.236-0.141-0.524-0.23-0.853
				c-0.1-0.325-0.262-0.67-0.409-1.06c-0.532-1.584-1.644-3.511-2.988-5.261c-1.354-1.748-3.031-3.255-4.406-4.231
				c-0.698-0.472-1.272-0.881-1.705-1.114c-0.423-0.25-0.665-0.392-0.665-0.392c-1.583-0.883-2.304-2.866-1.732-4.817
				c0.568-1.968,3.143-2.836,5.299-1.636c0,0,0.319,0.187,0.877,0.514c0.567,0.314,1.327,0.839,2.241,1.466
				c1.804,1.285,4.046,3.281,5.886,5.652c1.836,2.362,3.326,5.023,4.063,7.141c0.2,0.524,0.404,0.999,0.544,1.431
				c0.121,0.437,0.227,0.817,0.315,1.131c0.172,0.628,0.27,0.987,0.27,0.987"/>
		</g>
	</g>
</g>
<g>
	<g>
		<g>
			<path fill="#FF8A33" d="M7.21,62.308c-0.06,0.218-0.143,0.426-0.248,0.622c-0.083,0.203-0.181,0.398-0.302,0.579
				c-0.241,0.364-0.56,0.682-0.933,0.945c-0.748,0.523-1.716,0.839-2.714,0.741c-0.998-0.099-1.835-0.625-2.371-1.463
				c-0.268-0.417-0.46-0.91-0.561-1.447C0.03,62.017,0.003,61.738,0,61.452c0.024-0.283,0.074-0.571,0.151-0.861
				c0.328-1.156,0.94-2.112,1.876-2.587c0.895-0.492,1.896-0.56,2.823-0.177c0.927,0.383,1.619,1.112,2.014,1.906
				C7.215,60.517,7.464,61.444,7.21,62.308z"/>
			<path fill="#666666" d="M0.098,60.579c0,0,0.096-0.359,0.264-0.986c0.086-0.313,0.189-0.694,0.309-1.13
				c0.133-0.433,0.338-0.907,0.534-1.432c0.722-2.121,2.2-4.786,4.021-7.159c1.827-2.381,4.06-4.393,5.86-5.687
				c0.911-0.633,1.67-1.164,2.236-1.481c0.557-0.331,0.876-0.52,0.876-0.52c2.152-1.215,4.74-0.362,5.324,1.601
				c0.579,1.949-0.137,3.94-1.721,4.831c0,0-0.242,0.144-0.664,0.397c-0.432,0.237-1.005,0.65-1.702,1.125
				c-1.37,0.987-3.042,2.503-4.387,4.259c-1.337,1.756-2.433,3.688-2.957,5.272c-0.145,0.389-0.302,0.736-0.404,1.059
				C7.6,61.056,7.525,61.344,7.463,61.58c-0.127,0.472-0.2,0.741-0.2,0.741"/>
		</g>
	</g>
</g>
<g>
	<path fill="#666666" d="M40.763,53.678c0-7.666-7.297-14.609-16.301-14.609c-9.002,0-16.302,6.943-16.302,14.609"/>
	<path fill="#333333" d="M8.16,54.506c0,7.666,7.3,13.883,16.302,13.883c9.003,0,16.301-6.217,16.301-13.883"/>
	<rect x="20.038" y="38.197" fill="#FFFFFF" width="8.848" height="19.559"/>
	<g>
		<path fill="#666666" d="M20.038,57.756C19.905,66.279,8.16,64.809,8.16,64.809V53.307c0,0,8.715-11.545,11.878-11.545
			C20.038,66.936,20.038,43.109,20.038,57.756z"/>
	</g>
	<g>
		<path fill="#666666" d="M28.886,57.756c0.13,8.523,11.877,7.053,11.877,7.053V53.307c0,0-8.718-11.545-11.877-11.545
			C28.886,66.936,28.886,43.109,28.886,57.756z"/>
	</g>
</g>
<g>
	<path fill="#FF8A33" d="M21.068,39.379l3.299,4.254l3.3-4.254v-5.805c0-1.641-1.477-2.971-3.3-2.971l0,0
		c-1.821,0-3.299,1.33-3.299,2.971V39.379z"/>
	<g>
		<path fill="#FF8A33" d="M4.812,20.422c0,10.611,8.602,19.213,19.212,19.213c10.611,0,19.216-8.602,19.216-19.213
			S34.635,1.205,24.024,1.205C13.413,1.205,4.812,9.811,4.812,20.422z"/>
		<path fill="#993333" d="M23.85,4.022L13.1,4.613C15.818,2.393,20.061,0,25.515,0c11.104,0,19.256,8.229,19.256,19.334
			c0,3.689-0.247,2.303-3.227,6.062l-1.463-0.518c-1.812,0.389-4.921,0.486-4.896-1.57c0.139-12.359-2.449-18.393-10.291-19.287
			H23.85z"/>
		<path fill="#FF8A33" d="M33.095,23.232c0,2.438,1.977,4.414,4.418,4.414h5.668c2.44,0,4.416-1.977,4.416-4.414l0,0
			c0-2.439-1.976-4.418-4.416-4.418h-5.668C35.071,18.815,33.095,20.793,33.095,23.232L33.095,23.232z"/>
		<path fill="#993333" d="M35.078,22.502c0,1.096,0.889,1.98,1.982,1.98l0,0c1.096,0,1.982-0.885,1.982-1.98v-5.166
			c0-1.096-0.886-1.982-1.982-1.982l0,0c-1.094,0-1.982,0.887-1.982,1.982V22.502z"/>
		<path fill="#FF8A33" d="M7.678,1.141"/>
		<rect x="3.271" y="15.949" fill="#FFFFFF" width="11.698" height="9.447"/>
		<rect x="18.254" y="15.949" fill="#FFFFFF" width="11.698" height="9.447"/>
		<path fill="#4D3333" d="M23.359,22.143c0,0.518,0.418,0.936,0.933,0.936c0.519,0,0.938-0.418,0.938-0.936
			c0-0.514-0.419-0.934-0.938-0.934C23.777,21.209,23.359,21.629,23.359,22.143z"/>
		<path fill="#4D3333" d="M8.185,22.143c0,0.518,0.419,0.936,0.934,0.936c0.516,0,0.936-0.418,0.936-0.936
			c0-0.514-0.42-0.934-0.936-0.934C8.604,21.209,8.185,21.629,8.185,22.143z"/>
	</g>
	<path fill="#993333" d="M27.486,5.135c0,2.834-2.299,5.135-5.134,5.135H8.289c-2.836,0-5.135-2.301-5.135-5.135l0,0
		C3.154,2.299,5.453,0,8.289,0h14.064C25.188,0,27.486,2.299,27.486,5.135L27.486,5.135z"/>
</g>
</svg>
