<?xml version="1.0" encoding="utf-8"?>
<!-- Generator: Adobe Illustrator 17.0.0, SVG Export Plug-In . SVG Version: 6.00 Build 0)  -->
<!DOCTYPE svg PUBLIC "-//W3C//DTD SVG 1.1//EN" "http://www.w3.org/Graphics/SVG/1.1/DTD/svg11.dtd">
<svg version="1.1" id="Слой_1" xmlns="http://www.w3.org/2000/svg" xmlns:xlink="http://www.w3.org/1999/xlink" x="0px" y="0px"
	 width="59.242px" height="84.09px" viewBox="0 0 59.242 84.09" enable-background="new 0 0 59.242 84.09" xml:space="preserve">
<g>
	<g>
		<path fill="#333333" d="M22.9,80.354l9.849-0.139c0,0-0.175-6.965,0.372-13.871c0.11-1.729,0.31-3.44,0.447-5.055
			c0.197-1.594,0.366-3.094,0.556-4.35c0.191-1.26,0.352-2.305,0.487-2.996c0.123-0.645,0.192-1.014,0.192-1.014l-9.618-2.121
			c0,0-0.026,0.127-0.075,0.363c-0.043,0.225-0.104,0.555-0.183,0.975c-0.161,0.822-0.339,1.977-0.549,3.359
			c-0.208,1.385-0.391,2.992-0.602,4.717c-0.151,1.725-0.361,3.565-0.48,5.404C22.717,72.988,22.9,80.354,22.9,80.354z"/>
		<path d="M22.789,80.354l10.03-0.141l0.048,3.445L20.376,84.09C20.73,81.955,22.789,80.354,22.789,80.354z"/>
	</g>
	<g>
		<path fill="#333333" d="M35.491,80.354l9.849-0.139c0,0-0.175-6.965,0.372-13.871c0.11-1.729,0.31-3.44,0.447-5.055
			c0.197-1.594,0.366-3.094,0.556-4.35c0.191-1.26,0.352-2.305,0.487-2.996c0.123-0.645,0.192-1.014,0.192-1.014l-9.618-2.121
			c0,0-0.026,0.127-0.075,0.363c-0.042,0.225-0.104,0.555-0.183,0.975c-0.161,0.822-0.339,1.977-0.549,3.359
			c-0.208,1.385-0.391,2.992-0.602,4.717c-0.151,1.725-0.361,3.565-0.48,5.404C35.307,72.988,35.491,80.354,35.491,80.354z"/>
		<path d="M35.379,80.354l10.03-0.141l0.048,3.445L32.966,84.09C33.321,81.955,35.379,80.354,35.379,80.354z"/>
	</g>
	<g>
		<g>
			<g>
				<g>
					<path fill="#FF8A33" d="M59.184,62.222c-0.002,0.354-0.031,0.7-0.084,1.031c-0.073,0.325-0.17,0.636-0.286,0.926
						c-0.23,0.583-0.539,1.085-0.943,1.464c-0.785,0.772-1.756,1.101-2.74,0.91c-0.984-0.191-1.806-0.828-2.347-1.617
						c-0.258-0.397-0.49-0.834-0.641-1.292c-0.073-0.229-0.125-0.465-0.152-0.706c-0.046-0.238-0.073-0.48-0.07-0.728
						c0.021-0.5,0.084-0.962,0.232-1.405c0.169-0.447,0.358-0.859,0.632-1.245c0.569-0.771,1.299-1.42,2.285-1.664
						c0.959-0.238,2.016,0.041,2.784,0.837c0.391,0.393,0.756,0.907,0.968,1.503C59.053,60.834,59.207,61.517,59.184,62.222z"/>
					<path fill="#666666" d="M51.866,62.212c0,0,0.001-0.076,0.002-0.22c-0.003-0.142,0.017-0.357-0.014-0.616
						c-0.019-0.262-0.041-0.579-0.068-0.943c-0.054-0.355-0.115-0.755-0.182-1.192c-0.204-0.847-0.446-1.833-0.91-2.802
						c-0.454-0.972-1.064-1.952-1.818-2.853c-1.496-1.814-3.574-3.273-5.278-4.162c-0.849-0.451-1.586-0.79-2.114-1.005
						c-0.522-0.226-0.832-0.333-0.832-0.333c-1.973-0.764-3.255-2.688-2.924-4.694c0.324-2.018,2.947-3.197,5.534-2.201
						c0,0,0.393,0.138,1.065,0.426c0.676,0.276,1.629,0.712,2.749,1.307c2.23,1.175,5.142,3.148,7.455,5.932
						c1.156,1.378,2.137,2.938,2.859,4.497c0.733,1.56,1.147,3.113,1.442,4.438c0.104,0.667,0.198,1.279,0.283,1.821
						c0.04,0.541,0.074,1.012,0.103,1.4c0.036,0.39,0.021,0.689,0.023,0.896c-0.001,0.206-0.002,0.315-0.002,0.315"/>
				</g>
			</g>
		</g>
		<g>
			<g>
				<g>
					<path fill="#FF8A33" d="M7.158,59.051c-2.314-0.487-3.688-2.523-3.112-4.433c0.581-1.928,2.543-3.12,4.371-2.72
						c0.926,0.115,1.705,0.63,2.281,1.371c0.568,0.733,0.939,1.6,0.899,2.617c-0.038,0.987-0.533,1.932-1.342,2.501
						C9.456,58.947,8.334,59.212,7.158,59.051z"/>
					<path fill="#666666" d="M8.426,51.844c0,0,0.286,0.036,0.787,0.1c0.499,0.053,1.219,0.186,2.068,0.252
						c1.675,0.036,3.945,0.111,5.946-0.501c2.025-0.534,3.792-1.545,4.937-2.521c0.605-0.451,0.997-0.954,1.317-1.253
						c0.278-0.34,0.437-0.535,0.437-0.535c1.024-1.236,2.945-1.677,4.883-1.025c0.962,0.324,1.631,1.197,1.823,2.242
						c0.2,1.056-0.094,2.324-0.924,3.358c0,0-0.257,0.31-0.705,0.852c-0.231,0.265-0.54,0.562-0.882,0.913
						c-0.335,0.36-0.748,0.727-1.221,1.105c-1.831,1.57-4.704,3.194-7.759,3.988c-3.061,0.883-6.113,0.807-8.343,0.734
						c-1.109-0.08-2.005-0.24-2.645-0.312c-0.636-0.086-0.999-0.135-0.999-0.135"/>
				</g>
			</g>
		</g>
	</g>
	<g>
		<path fill="#666666" d="M50.387,53.678c0-7.666-7.297-14.609-16.301-14.609c-9.002,0-16.302,6.943-16.302,14.609"/>
		<path fill="#333333" d="M17.784,54.506c0,7.666,7.3,13.883,16.302,13.883c9.003,0,16.301-6.217,16.301-13.883"/>
		<rect x="29.662" y="38.197" fill="#FFFFFF" width="8.848" height="19.559"/>
		<g>
			<path fill="#666666" d="M29.662,57.756c-0.133,8.523-11.878,7.053-11.878,7.053V53.307c0,0,8.715-11.545,11.878-11.545
				C29.662,66.936,29.662,43.109,29.662,57.756z"/>
		</g>
		<g>
			<path fill="#666666" d="M38.51,57.756c0.13,8.523,11.877,7.053,11.877,7.053V53.307c0,0-8.718-11.545-11.877-11.545
				C38.51,66.936,38.51,43.109,38.51,57.756z"/>
		</g>
	</g>
	<g>
		<path fill="#FF8A33" d="M30.692,39.379l3.299,4.254l3.3-4.254v-5.805c0-1.641-1.477-2.971-3.3-2.971l0,0
			c-1.821,0-3.299,1.33-3.299,2.971V39.379z"/>
		<g>
			<path fill="#FF8A33" d="M14.436,20.422c0,10.611,8.601,19.213,19.212,19.213c10.611,0,19.216-8.602,19.216-19.213
				S44.259,1.205,33.648,1.205C23.037,1.205,14.436,9.811,14.436,20.422z"/>
			<path fill="#993333" d="M33.474,4.022L22.723,4.613C25.442,2.393,29.685,0,35.139,0c11.105,0,19.256,8.229,19.256,19.334
				c0,3.69-0.247,2.303-3.227,6.062l-1.463-0.518c-1.812,0.389-4.921,0.486-4.896-1.57C44.948,10.949,42.36,4.916,34.518,4.022
				H33.474z"/>
			<path fill="#4D3333" d="M32.983,20.566c0,0.518,0.418,0.936,0.933,0.936c0.519,0,0.938-0.418,0.938-0.936
				c0-0.514-0.419-0.934-0.938-0.934C33.401,19.633,32.983,20.053,32.983,20.566z"/>
			<path fill="#4D3333" d="M17.809,20.566c0,0.518,0.419,0.936,0.935,0.936s0.935-0.418,0.935-0.936c0-0.514-0.42-0.934-0.935-0.934
				S17.809,20.053,17.809,20.566z"/>
			<path fill="#FF8A33" d="M42.719,23.233c0,2.438,1.977,4.414,4.418,4.414h5.668c2.44,0,4.416-1.976,4.416-4.414l0,0
				c0-2.44-1.976-4.418-4.416-4.418h-5.668C44.696,18.815,42.719,20.793,42.719,23.233L42.719,23.233z"/>
			<path fill="#993333" d="M35.513,34.082L35.513,34.082c0-3.174-2.573-5.75-5.752-5.75h-6.286c-3.179,0-5.746,2.576-5.746,5.75l0,0
				"/>
			<path fill="#FF8A33" d="M17.302,1.141"/>
		</g>
	</g>
</g>
<rect x="0" y="45.586" fill="#FFFFFF" width="8.113" height="11.74"/>
</svg>
