<?xml version="1.0" encoding="utf-8"?>
<!-- Generator: Adobe Illustrator 17.0.0, SVG Export Plug-In . SVG Version: 6.00 Build 0)  -->
<!DOCTYPE svg PUBLIC "-//W3C//DTD SVG 1.1//EN" "http://www.w3.org/Graphics/SVG/1.1/DTD/svg11.dtd">
<svg version="1.1" id="Слой_1" xmlns="http://www.w3.org/2000/svg" xmlns:xlink="http://www.w3.org/1999/xlink" x="0px" y="0px"
	 width="103.48px" height="90.819px" viewBox="0 0 103.48 90.819" enable-background="new 0 0 103.48 90.819" xml:space="preserve">
<g>
	<g>
		
			<line fill="none" stroke="#0C0000" stroke-width="11" stroke-linecap="round" stroke-miterlimit="10" x1="10.176" y1="49.932" x2="51.743" y2="49.454"/>
		<ellipse fill="#632121" cx="7.475" cy="48.167" rx="5.216" ry="4.661"/>
	</g>
	<g>
		<g>
			<path fill="none" stroke="#0C0000" stroke-width="9" stroke-miterlimit="10" d="M53.466,90.419c0,0,0-1.527,0-6.348
				c0-7.863,5.877-10.109,5.877-10.109"/>
		</g>
		<path fill="#632121" d="M46.574,90.791L46.574,90.791c0-2.33,1.889-4.219,4.22-4.219h4.963c2.33-0.002,4.219,1.887,4.219,4.219
			l0,0"/>
	</g>
	<g>
		<g>
			<path fill="none" stroke="#0C0000" stroke-width="9" stroke-miterlimit="10" d="M73.108,90.419c0,0,0-1.527,0-6.348
				c0-7.863-5.877-10.109-5.877-10.109"/>
		</g>
		<path fill="#632121" d="M80,90.791L80,90.791c0-2.33-1.889-4.219-4.22-4.219h-4.963c-2.33-0.002-4.219,1.887-4.219,4.219l0,0"/>
	</g>
	<g>
		<polygon fill="#0C0000" points="78.682,54.758 69.169,54.758 69.169,45.245 		"/>
		<polygon fill="#0C0000" points="78.682,59.782 69.169,59.782 69.169,50.27 		"/>
		<polygon fill="#0C0000" points="78.682,64.807 69.169,64.807 69.169,55.295 		"/>
		<polygon fill="#0C0000" points="78.682,69.832 69.169,69.832 69.169,60.321 		"/>
		<polygon fill="#0C0000" points="78.682,74.202 69.169,74.202 69.169,64.688 		"/>
	</g>
	<g>
		<polygon fill="#0C0000" points="47.255,59.655 56.768,59.655 56.768,50.141 		"/>
		<polygon fill="#0C0000" points="47.255,64.678 56.768,64.678 56.768,55.167 		"/>
		<polygon fill="#0C0000" points="47.255,69.704 56.768,69.704 56.768,60.192 		"/>
		<polygon fill="#0C0000" points="47.255,74.729 56.768,74.729 56.768,65.217 		"/>
	</g>
	<path fill="#632121" d="M54.521,71.264c0,4.682,3.794,8.475,8.476,8.477l0,0c4.681,0,8.476-3.795,8.477-8.477l-0.001-11.057
		c0-4.682-3.794-8.475-8.476-8.477l0,0c-4.681,0.002-8.476,3.795-8.476,8.477V71.264z"/>
	<g>
		<path fill="none" stroke="#0C0000" stroke-width="11" stroke-linecap="round" stroke-miterlimit="10" d="M97.98,74.18
			c-0.001-14.988-12.149-27.137-27.137-27.137"/>
		<circle fill="#632121" cx="97.215" cy="77.594" r="4.662"/>
	</g>
	<g>
		<rect x="32.825" y="29.495" fill="#632121" width="7.841" height="7.841"/>
		<rect x="82.36" y="29.495" fill="#632121" width="7.841" height="7.841"/>
		<g>
			<circle fill="#632121" cx="40.667" cy="37.336" r="7.842"/>
			<circle fill="#0C0000" cx="40.667" cy="37.336" r="5.297"/>
		</g>
		<g>
			<circle fill="#632121" cx="61.299" cy="37.508" r="17.373"/>
		</g>
		<path fill="#CC6633" d="M74.425,52.999c0,5.582-4.527,10.109-10.109,10.109H49.077c-5.583,0-10.11-4.527-10.11-10.109v-1.531
			c0-5.584,4.527-10.109,10.11-10.109h15.238c5.582,0,10.109,4.525,10.109,10.109V52.999z"/>
		<g>
			<g>
				<path d="M53.6,36.782c0,0.801-0.647,1.449-1.445,1.449c-0.804,0-1.452-0.648-1.452-1.449c0-0.797,0.648-1.445,1.452-1.445
					C52.952,35.336,53.6,35.985,53.6,36.782z"/>
				<path d="M62.689,36.782c0,0.801-0.647,1.449-1.448,1.449c-0.799,0-1.45-0.648-1.45-1.449c0-0.797,0.651-1.445,1.45-1.445
					C62.042,35.336,62.689,35.985,62.689,36.782z"/>
			</g>
			<rect x="50.683" y="33.336" fill="#0C0000" width="12.286" height="2.703"/>
		</g>
		<rect x="50.602" y="41.112" fill="#0C0000" width="4.654" height="2.553"/>
		<rect x="58.036" y="41.112" fill="#0C0000" width="4.653" height="2.553"/>
		<g>
			<rect x="37.044" y="46.543" fill="#FF3399" width="37.475" height="13.818"/>
			<g>
				<rect x="40.037" y="48.704" fill="#FFFFFF" width="4.598" height="3.15"/>
				<rect x="46.897" y="48.704" fill="#FFFFFF" width="4.599" height="3.15"/>
				<rect x="53.756" y="48.704" fill="#FFFFFF" width="4.599" height="3.15"/>
				<rect x="60.616" y="48.704" fill="#FFFFFF" width="4.598" height="3.15"/>
				<rect x="67.305" y="48.704" fill="#FFFFFF" width="4.599" height="3.15"/>
			</g>
			<g>
				<rect x="40.037" y="55.051" fill="#FFFFFF" width="4.598" height="3.15"/>
				<rect x="46.897" y="55.051" fill="#FFFFFF" width="4.599" height="3.15"/>
				<rect x="53.756" y="55.051" fill="#FFFFFF" width="4.599" height="3.15"/>
				<rect x="60.616" y="55.051" fill="#FFFFFF" width="4.598" height="3.15"/>
				<rect x="67.305" y="55.051" fill="#FFFFFF" width="4.599" height="3.15"/>
			</g>
			<rect x="40.037" y="51.854" fill="#0C0000" width="31.866" height="3.197"/>
		</g>
		<g>
			<circle fill="#632121" cx="82.36" cy="37.338" r="7.842"/>
			<circle fill="#0C0000" cx="82.36" cy="37.338" r="5.297"/>
		</g>
		<polygon fill="#0C0000" points="59.126,24.891 49.613,24.891 49.613,15.379 		"/>
		<polygon fill="#0C0000" points="62.475,24.891 71.987,24.891 71.987,15.379 		"/>
	</g>
	<rect x="10.176" y="1.225" width="2.517" height="89.594"/>
	<rect x="0" y="0" width="2.517" height="18.605"/>
	<rect x="19.607" y="0" width="2.517" height="18.605"/>
	<rect x="0.175" y="17.379" width="21.949" height="2.451"/>
</g>
</svg>
