<?xml version="1.0" encoding="utf-8"?>
<!-- Generator: Adobe Illustrator 17.0.0, SVG Export Plug-In . SVG Version: 6.00 Build 0)  -->
<!DOCTYPE svg PUBLIC "-//W3C//DTD SVG 1.1//EN" "http://www.w3.org/Graphics/SVG/1.1/DTD/svg11.dtd">
<svg version="1.1" id="Слой_1" xmlns="http://www.w3.org/2000/svg" xmlns:xlink="http://www.w3.org/1999/xlink" x="0px" y="0px"
	 width="257.883px" height="257.883px" viewBox="0 0 257.883 257.883" enable-background="new 0 0 257.883 257.883"
	 xml:space="preserve">
<circle fill="#FF9900" cx="128.942" cy="128.941" r="128.942"/>
<polygon fill="#FF6600" points="192.091,239.49 168.809,222.369 166.103,251.143 147.214,229.27 138.174,256.719 124.625,231.191 
	109.703,255.941 102.176,228.037 82.119,248.848 80.99,219.971 56.807,235.795 62.131,207.389 35.034,217.436 46.545,190.926 
	17.89,194.691 35.012,171.408 6.238,168.703 28.112,149.814 0.662,140.773 26.19,127.225 1.439,112.303 29.343,104.775 
	8.533,84.719 37.412,83.59 21.586,59.408 49.992,64.732 39.946,37.635 66.454,49.145 62.689,20.49 85.972,37.611 88.678,8.838 
	107.566,30.713 116.607,3.262 130.156,28.791 145.077,4.039 152.605,31.943 172.661,11.133 173.791,40.012 197.974,24.188 
	192.649,52.592 219.748,42.547 208.236,69.055 236.891,65.289 219.769,88.572 248.542,91.277 226.669,110.166 254.119,119.207 
	228.591,132.756 253.341,147.676 225.438,155.205 246.248,175.262 217.369,176.393 233.194,200.574 204.788,195.25 214.835,222.348 
	188.326,210.836 "/>
</svg>
