<?xml version="1.0" encoding="utf-8"?>
<!-- Generator: Adobe Illustrator 17.0.0, SVG Export Plug-In . SVG Version: 6.00 Build 0)  -->
<!DOCTYPE svg PUBLIC "-//W3C//DTD SVG 1.1//EN" "http://www.w3.org/Graphics/SVG/1.1/DTD/svg11.dtd">
<svg version="1.1" id="Слой_1" xmlns="http://www.w3.org/2000/svg" xmlns:xlink="http://www.w3.org/1999/xlink" x="0px" y="0px"
	 width="2331.8px" height="2406.117px" viewBox="0 0 2331.8 2406.117" enable-background="new 0 0 2331.8 2406.117"
	 xml:space="preserve">
<g>
	<g>
		<rect x="1615.723" y="2158.104" fill="#999999" width="158.055" height="194.359"/>
		<rect x="1623.479" y="2166.434" fill="#CCCCCC" width="141.758" height="177.223"/>
		<g>
			<g>
				<rect id="SVGID_1_" x="1633.373" y="2175.77" fill="#CC99ED" width="122.521" height="167.887"/>
			</g>
			<g>
				<defs>
					<rect id="SVGID_2_" x="1633.373" y="2175.77" width="122.521" height="167.887"/>
				</defs>
				<clipPath id="SVGID_4_">
					<use xlink:href="#SVGID_2_"  overflow="visible"/>
				</clipPath>
				<g clip-path="url(#SVGID_4_)">
					<g>
						<rect x="1845.834" y="2279.572" fill="#6633CC" width="14.405" height="23.842"/>
						<rect x="1822.987" y="2256.725" fill="#6633CC" width="14.404" height="46.689"/>
						<rect x="1616.861" y="2303.354" fill="#6633CC" width="243.378" height="41.736"/>
						<rect x="1768.243" y="2292.742" fill="#6633CC" width="83.047" height="25.984"/>
						<rect x="1772.249" y="2275.369" fill="#6633CC" width="44.778" height="43.477"/>
						<path fill="#6633CC" d="M1805.029,2274.721c0,5.732-4.648,10.381-10.383,10.381s-10.382-4.648-10.382-10.381
							c0-5.736,4.648-10.387,10.382-10.387S1805.029,2268.984,1805.029,2274.721z"/>
						<path fill="#6633CC" d="M1797.385,2276.84c0,1.514-1.226,2.74-2.738,2.74l0,0c-1.513,0-2.737-1.227-2.737-2.74v-17.422
							c0-1.514,1.225-2.738,2.737-2.738l0,0c1.513,0,2.738,1.225,2.738,2.738V2276.84z"/>
						<path fill="#6633CC" d="M1777.725,2288.055c0,1.514-1.226,2.738-2.739,2.738l0,0c-1.512,0-2.738-1.225-2.738-2.738v-17.424
							c0-1.514,1.226-2.738,2.738-2.738l0,0c1.513,0,2.739,1.225,2.739,2.738V2288.055z"/>
						<path fill="#6633CC" d="M1816.924,2288.537c0,1.514-1.227,2.738-2.737,2.738l0,0c-1.513,0-2.739-1.225-2.739-2.738v-17.424
							c0-1.51,1.227-2.738,2.739-2.738l0,0c1.511,0,2.737,1.229,2.737,2.738V2288.537z"/>
						<rect x="1739.983" y="2285.846" fill="#6633CC" width="20.415" height="22.576"/>
						<rect x="1699.7" y="2270.447" fill="#6633CC" width="35.523" height="44.578"/>
						<polygon fill="#6633CC" points="1699.716,2270.447 1717.469,2263.338 1735.223,2270.447 						"/>
						<rect x="1681.859" y="2291.961" fill="#6633CC" width="12.046" height="22.998"/>
						<rect x="1633.391" y="2286.25" fill="#6633CC" width="31.34" height="30.955"/>
						<rect x="1641.756" y="2271.879" fill="#6633CC" width="14.61" height="15.68"/>
						<path fill="#6633CC" d="M1714.565,2267.094H1721v-10.322c0-1.711-1.387-3.1-3.099-3.1h-0.206h-0.03
							c-1.712,0-3.1,1.389-3.1,3.1V2267.094z"/>
					</g>
				</g>
			</g>
		</g>
		<g>
			<rect x="1633.373" y="2180.262" fill="#FFFFFF" width="122.521" height="3.904"/>
			<rect x="1633.373" y="2188.893" fill="#FFFFFF" width="122.521" height="3.906"/>
			<rect x="1633.373" y="2197.527" fill="#FFFFFF" width="122.521" height="3.902"/>
			<rect x="1633.373" y="2206.16" fill="#FFFFFF" width="122.521" height="3.902"/>
			<rect x="1633.373" y="2214.791" fill="#FFFFFF" width="122.521" height="3.904"/>
			<rect x="1633.373" y="2223.422" fill="#FFFFFF" width="122.521" height="3.906"/>
			<rect x="1633.373" y="2232.055" fill="#FFFFFF" width="122.521" height="3.904"/>
			<rect x="1633.373" y="2240.689" fill="#FFFFFF" width="122.521" height="3.902"/>
			<rect x="1633.373" y="2249.32" fill="#FFFFFF" width="122.521" height="3.904"/>
			<rect x="1633.373" y="2257.953" fill="#FFFFFF" width="122.521" height="3.902"/>
			<rect x="1633.373" y="2266.584" fill="#FFFFFF" width="122.521" height="3.904"/>
			<rect x="1633.373" y="2275.217" fill="#FFFFFF" width="122.521" height="3.902"/>
			<rect x="1633.373" y="2283.85" fill="#FFFFFF" width="122.521" height="3.904"/>
			<rect x="1633.373" y="2292.482" fill="#FFFFFF" width="122.521" height="3.902"/>
			<rect x="1633.373" y="2301.113" fill="#FFFFFF" width="122.521" height="3.904"/>
			<rect x="1633.373" y="2309.746" fill="#FFFFFF" width="122.521" height="3.904"/>
			<rect x="1633.373" y="2318.377" fill="#FFFFFF" width="122.521" height="3.904"/>
			<rect x="1633.373" y="2327.01" fill="#FFFFFF" width="122.521" height="3.904"/>
			<rect x="1633.373" y="2335.643" fill="#FFFFFF" width="122.521" height="3.904"/>
		</g>
	</g>
	<rect x="1604.5" y="2343.656" fill="#FFFFFF" width="180.186" height="8.693"/>
	<rect x="1604.5" y="2352.145" fill="#CC9999" width="180.186" height="6.693"/>
</g>
<g>
	<rect x="1994.185" y="2276.133" fill="#CC9999" width="253.276" height="7.654"/>
	<rect x="1996.374" y="2339.096" fill="#CC9999" width="251.087" height="7.654"/>
	<rect x="1994.185" y="2267.662" fill="#FFFFFF" width="253.276" height="7.654"/>
	<rect x="1996.374" y="2330.625" fill="#FFFFFF" width="251.087" height="7.654"/>
	<g>
		<rect x="2200.799" y="2234.834" fill="#FFFFFF" width="20.333" height="20.656"/>
		<rect x="2217.396" y="2231.539" width="16.987" height="36.123"/>
		<polygon fill="#333366" points="2200.409,2267.662 2217.396,2267.662 2217.396,2231.539 2200.409,2252.264 		"/>
		<rect x="2221.132" y="2254.596" fill="#FFFFFF" width="9.513" height="4.022"/>
	</g>
	<g>
		<rect x="2180.799" y="2234.834" fill="#FFFFFF" width="20.333" height="20.656"/>
		<rect x="2197.396" y="2231.539" width="16.987" height="36.123"/>
		<polygon fill="#333366" points="2180.409,2267.662 2197.396,2267.662 2197.396,2231.539 2180.409,2252.264 		"/>
		<rect x="2201.132" y="2254.596" fill="#FFFFFF" width="9.513" height="4.022"/>
	</g>
	<g>
		<rect x="2160.799" y="2234.834" fill="#FFFFFF" width="20.333" height="20.656"/>
		<rect x="2177.396" y="2231.539" width="16.987" height="36.123"/>
		<polygon fill="#333366" points="2160.409,2267.662 2177.396,2267.662 2177.396,2231.539 2160.409,2252.264 		"/>
		<rect x="2181.132" y="2254.596" fill="#FFFFFF" width="9.513" height="4.022"/>
	</g>
	<g>
		<rect x="2199.547" y="2298.459" fill="#FFFFFF" width="20.333" height="20.656"/>
		<rect x="2216.144" y="2295.162" width="16.987" height="36.123"/>
		<polygon fill="#333366" points="2199.157,2331.285 2216.144,2331.285 2216.144,2295.162 2199.157,2315.887 		"/>
		<rect x="2219.88" y="2318.219" fill="#FFFFFF" width="9.513" height="4.022"/>
	</g>
	<g>
		<rect x="2179.547" y="2298.459" fill="#FFFFFF" width="20.333" height="20.656"/>
		<rect x="2196.144" y="2295.162" width="16.987" height="36.123"/>
		<polygon fill="#333366" points="2179.157,2331.285 2196.144,2331.285 2196.144,2295.162 2179.157,2315.887 		"/>
		<rect x="2199.88" y="2318.219" fill="#FFFFFF" width="9.513" height="4.022"/>
	</g>
	<g>
		<rect x="2140.526" y="2298.459" fill="#FFFFFF" width="20.333" height="20.656"/>
		<rect x="2157.123" y="2295.162" width="16.986" height="36.123"/>
		<polygon fill="#333366" points="2140.136,2331.285 2157.123,2331.285 2157.123,2295.162 2140.136,2315.887 		"/>
		<rect x="2160.859" y="2318.219" fill="#FFFFFF" width="9.513" height="4.022"/>
	</g>
	<g>
		<rect x="2016.765" y="2298.459" fill="#FFFFFF" width="20.333" height="20.656"/>
		<rect x="2033.361" y="2295.162" width="16.987" height="36.123"/>
		<polygon fill="#333366" points="2016.374,2331.285 2033.361,2331.285 2033.361,2295.162 2016.374,2315.887 		"/>
		<rect x="2037.098" y="2318.219" fill="#FFFFFF" width="9.513" height="4.022"/>
	</g>
	<g>
		<rect x="1996.765" y="2298.459" fill="#FFFFFF" width="20.333" height="20.656"/>
		<rect x="2013.361" y="2295.162" width="16.987" height="36.123"/>
		<polygon fill="#333366" points="1996.374,2331.285 2013.361,2331.285 2013.361,2295.162 1996.374,2315.887 		"/>
		<rect x="2017.098" y="2318.219" fill="#FFFFFF" width="9.513" height="4.022"/>
	</g>
	<g>
		<rect x="2140.799" y="2234.834" fill="#FFFFFF" width="20.333" height="20.656"/>
		<rect x="2157.396" y="2231.539" width="16.987" height="36.123"/>
		<polygon fill="#333366" points="2140.409,2267.662 2157.396,2267.662 2157.396,2231.539 2140.409,2252.264 		"/>
		<rect x="2161.132" y="2254.596" fill="#FFFFFF" width="9.513" height="4.022"/>
	</g>
</g>
<g>
	<rect x="1465.295" y="2213.789" fill="#CC9999" width="126.468" height="7.656"/>
	<rect x="1465.295" y="2276.752" fill="#CC9999" width="125.376" height="7.656"/>
	<rect x="1465.295" y="2205.982" fill="#FFFFFF" width="126.468" height="7.654"/>
	<rect x="1465.295" y="2268.945" fill="#FFFFFF" width="125.376" height="7.654"/>
	<g>
		<rect x="1491.624" y="2173.307" fill="#FFFFFF" width="20.333" height="20.656"/>
		<rect x="1478.374" y="2170.012" width="16.987" height="36.123"/>
		<polygon fill="#333366" points="1512.348,2206.135 1495.361,2206.135 1495.361,2170.012 1512.348,2190.736 		"/>
		<rect x="1482.111" y="2193.068" fill="#FFFFFF" width="9.513" height="4.022"/>
	</g>
	<g>
		<rect x="1511.624" y="2173.307" fill="#FFFFFF" width="20.333" height="20.656"/>
		<rect x="1498.374" y="2170.012" width="16.987" height="36.123"/>
		<polygon fill="#333366" points="1532.348,2206.135 1515.361,2206.135 1515.361,2170.012 1532.348,2190.736 		"/>
		<rect x="1502.111" y="2193.068" fill="#FFFFFF" width="9.513" height="4.022"/>
	</g>
	<g>
		<rect x="1531.624" y="2173.307" fill="#FFFFFF" width="20.333" height="20.656"/>
		<rect x="1518.374" y="2170.012" width="16.987" height="36.123"/>
		<polygon fill="#333366" points="1552.348,2206.135 1535.361,2206.135 1535.361,2170.012 1552.348,2190.736 		"/>
		<rect x="1522.111" y="2193.068" fill="#FFFFFF" width="9.513" height="4.022"/>
	</g>
	<g>
		<rect x="1492.876" y="2236.932" fill="#FFFFFF" width="20.333" height="20.656"/>
		<rect x="1479.626" y="2233.635" width="16.987" height="36.123"/>
		<polygon fill="#333366" points="1513.6,2269.758 1496.613,2269.758 1496.613,2233.635 1513.6,2254.359 		"/>
		<rect x="1483.363" y="2256.691" fill="#FFFFFF" width="9.513" height="4.022"/>
	</g>
	<g>
		<rect x="1512.876" y="2236.932" fill="#FFFFFF" width="20.333" height="20.656"/>
		<rect x="1499.626" y="2233.635" width="16.987" height="36.123"/>
		<polygon fill="#333366" points="1533.6,2269.758 1516.613,2269.758 1516.613,2233.635 1533.6,2254.359 		"/>
		<rect x="1503.363" y="2256.691" fill="#FFFFFF" width="9.513" height="4.022"/>
	</g>
	<g>
		<rect x="1551.897" y="2236.932" fill="#FFFFFF" width="20.333" height="20.656"/>
		<rect x="1538.647" y="2233.635" width="16.987" height="36.123"/>
		<polygon fill="#333366" points="1572.621,2269.758 1555.634,2269.758 1555.634,2233.635 1572.621,2254.359 		"/>
		<rect x="1542.384" y="2256.691" fill="#FFFFFF" width="9.513" height="4.022"/>
	</g>
	<g>
		<rect x="1551.624" y="2173.307" fill="#FFFFFF" width="20.333" height="20.656"/>
		<rect x="1538.374" y="2170.012" width="16.987" height="36.123"/>
		<polygon fill="#333366" points="1572.348,2206.135 1555.361,2206.135 1555.361,2170.012 1572.348,2190.736 		"/>
		<rect x="1542.111" y="2193.068" fill="#FFFFFF" width="9.513" height="4.022"/>
	</g>
</g>
<g>
	<rect x="218.058" y="2275.693" fill="#D6C83C" width="126.468" height="7.654"/>
	<rect x="219.15" y="2338.656" fill="#D6C83C" width="125.375" height="7.654"/>
	<rect x="218.058" y="2267.885" fill="#FFFFFF" width="126.468" height="7.656"/>
	<rect x="219.15" y="2330.848" fill="#FFFFFF" width="125.375" height="7.656"/>
	<g>
		<rect x="297.864" y="2235.211" fill="#FFFFFF" width="20.333" height="20.656"/>
		<rect x="314.46" y="2231.914" width="16.987" height="36.123"/>
		<polygon fill="#333366" points="297.474,2268.037 314.46,2268.037 314.46,2231.914 297.474,2252.639 		"/>
		<rect x="318.197" y="2254.971" fill="#FFFFFF" width="9.513" height="4.022"/>
	</g>
	<g>
		<rect x="277.864" y="2235.211" fill="#FFFFFF" width="20.333" height="20.656"/>
		<rect x="294.46" y="2231.914" width="16.987" height="36.123"/>
		<polygon fill="#333366" points="277.474,2268.037 294.46,2268.037 294.46,2231.914 277.474,2252.639 		"/>
		<rect x="298.197" y="2254.971" fill="#FFFFFF" width="9.513" height="4.022"/>
	</g>
	<g>
		<rect x="257.864" y="2235.211" fill="#FFFFFF" width="20.333" height="20.656"/>
		<rect x="274.46" y="2231.914" width="16.987" height="36.123"/>
		<polygon fill="#333366" points="257.474,2268.037 274.46,2268.037 274.46,2231.914 257.474,2252.639 		"/>
		<rect x="278.197" y="2254.971" fill="#FFFFFF" width="9.513" height="4.022"/>
	</g>
	<g>
		<rect x="296.612" y="2298.834" fill="#FFFFFF" width="20.333" height="20.656"/>
		<rect x="313.208" y="2295.539" width="16.987" height="36.123"/>
		<polygon fill="#333366" points="296.222,2331.662 313.208,2331.662 313.208,2295.539 296.222,2316.264 		"/>
		<rect x="316.945" y="2318.596" fill="#FFFFFF" width="9.513" height="4.022"/>
	</g>
	<g>
		<rect x="276.612" y="2298.834" fill="#FFFFFF" width="20.333" height="20.656"/>
		<rect x="293.208" y="2295.539" width="16.987" height="36.123"/>
		<polygon fill="#333366" points="276.222,2331.662 293.208,2331.662 293.208,2295.539 276.222,2316.264 		"/>
		<rect x="296.945" y="2318.596" fill="#FFFFFF" width="9.513" height="4.022"/>
	</g>
	<g>
		<rect x="237.591" y="2298.834" fill="#FFFFFF" width="20.333" height="20.656"/>
		<rect x="254.188" y="2295.539" width="16.986" height="36.123"/>
		<polygon fill="#333366" points="237.2,2331.662 254.188,2331.662 254.188,2295.539 237.2,2316.264 		"/>
		<rect x="257.924" y="2318.596" fill="#FFFFFF" width="9.513" height="4.022"/>
	</g>
	<g>
		<rect x="237.864" y="2235.211" fill="#FFFFFF" width="20.333" height="20.656"/>
		<rect x="254.46" y="2231.914" width="16.987" height="36.123"/>
		<polygon fill="#333366" points="237.474,2268.037 254.46,2268.037 254.46,2231.914 237.474,2252.639 		"/>
		<rect x="258.197" y="2254.971" fill="#FFFFFF" width="9.513" height="4.022"/>
	</g>
</g>
<g>
	<rect x="624.143" y="2274.424" fill="#CC9999" width="125.375" height="7.654"/>
	<rect x="624.143" y="2266.615" fill="#FFFFFF" width="125.375" height="7.656"/>
	<g>
		<rect x="651.723" y="2234.602" fill="#FFFFFF" width="20.333" height="20.656"/>
		<rect x="638.473" y="2231.307" width="16.987" height="36.123"/>
		<polygon fill="#333366" points="672.447,2267.43 655.461,2267.43 655.461,2231.307 672.447,2252.031 		"/>
		<rect x="642.211" y="2254.363" fill="#FFFFFF" width="9.513" height="4.022"/>
	</g>
	<g>
		<rect x="671.723" y="2234.602" fill="#FFFFFF" width="20.333" height="20.656"/>
		<rect x="658.473" y="2231.307" width="16.987" height="36.123"/>
		<polygon fill="#333366" points="692.447,2267.43 675.46,2267.43 675.46,2231.307 692.447,2252.031 		"/>
		<rect x="662.211" y="2254.363" fill="#FFFFFF" width="9.513" height="4.022"/>
	</g>
	<g>
		<rect x="710.744" y="2234.602" fill="#FFFFFF" width="20.333" height="20.656"/>
		<rect x="697.494" y="2231.307" width="16.987" height="36.123"/>
		<polygon fill="#333366" points="731.468,2267.43 714.481,2267.43 714.481,2231.307 731.468,2252.031 		"/>
		<rect x="701.232" y="2254.363" fill="#FFFFFF" width="9.513" height="4.022"/>
	</g>
</g>
<g>
	<rect x="31.018" y="2159.062" fill="#999999" width="109.373" height="233.371"/>
	<rect x="39.56" y="2167.395" fill="#CCCCCC" width="93.076" height="225.039"/>
	<rect x="56.943" y="2185.113" fill="#E3E1E4" width="58.308" height="145.174"/>
	<rect x="56.943" y="2347.768" fill="#E3E1E4" width="58.308" height="31.19"/>
	<g>
		<circle fill="#666666" cx="50.257" cy="2339.318" r="6.523"/>
		<rect x="50.257" y="2337.182" fill="#666666" width="23.607" height="4.272"/>
	</g>
</g>
<g>
	<g>
		<rect x="1285.527" y="2158.104" fill="#999999" width="158.055" height="194.359"/>
		<rect x="1294.068" y="2166.434" fill="#CCCCCC" width="141.758" height="177.223"/>
		<g>
			<g>
				<rect id="SVGID_3_" x="1303.412" y="2175.77" fill="#CC99ED" width="122.521" height="167.887"/>
			</g>
			<g>
				<defs>
					<rect id="SVGID_6_" x="1303.412" y="2175.77" width="122.521" height="167.887"/>
				</defs>
				<clipPath id="SVGID_7_">
					<use xlink:href="#SVGID_6_"  overflow="visible"/>
				</clipPath>
				<g clip-path="url(#SVGID_7_)">
					<g>
						<rect x="1199.065" y="2296.389" fill="#6633CC" width="14.405" height="23.842"/>
						<rect x="1221.913" y="2273.541" fill="#6633CC" width="14.404" height="46.689"/>
						<rect x="1199.065" y="2320.17" fill="#6633CC" width="243.378" height="41.736"/>
						<rect x="1208.014" y="2309.559" fill="#6633CC" width="83.047" height="25.984"/>
						<rect x="1242.277" y="2292.186" fill="#6633CC" width="44.779" height="43.477"/>
						<path fill="#6633CC" d="M1254.275,2291.537c0,5.732,4.648,10.381,10.383,10.381s10.382-4.648,10.382-10.381
							c0-5.736-4.648-10.387-10.382-10.387S1254.275,2285.801,1254.275,2291.537z"/>
						<path fill="#6633CC" d="M1261.92,2293.656c0,1.514,1.226,2.74,2.738,2.74l0,0c1.513,0,2.737-1.227,2.737-2.74v-17.422
							c0-1.514-1.225-2.738-2.737-2.738l0,0c-1.513,0-2.738,1.225-2.738,2.738V2293.656z"/>
						<path fill="#6633CC" d="M1281.58,2304.871c0,1.514,1.226,2.738,2.739,2.738l0,0c1.512,0,2.738-1.225,2.738-2.738v-17.424
							c0-1.514-1.226-2.738-2.738-2.738l0,0c-1.513,0-2.739,1.225-2.739,2.738V2304.871z"/>
						<path fill="#6633CC" d="M1242.381,2305.354c0,1.514,1.227,2.738,2.737,2.738l0,0c1.513,0,2.739-1.225,2.739-2.738v-17.424
							c0-1.51-1.227-2.738-2.739-2.738l0,0c-1.511,0-2.737,1.229-2.737,2.738V2305.354z"/>
						<rect x="1298.907" y="2302.662" fill="#6633CC" width="20.415" height="22.576"/>
						<rect x="1324.082" y="2287.264" fill="#6633CC" width="35.523" height="44.578"/>
						<polygon fill="#6633CC" points="1359.589,2287.264 1341.836,2280.154 1324.082,2287.264 						"/>
						<rect x="1365.399" y="2308.777" fill="#6633CC" width="12.046" height="22.998"/>
						<rect x="1394.574" y="2303.066" fill="#6633CC" width="31.34" height="30.955"/>
						<rect x="1402.938" y="2288.695" fill="#6633CC" width="14.61" height="15.68"/>
						<path fill="#6633CC" d="M1344.739,2283.91h-6.434v-10.322c0-1.711,1.387-3.1,3.099-3.1h0.205h0.031c1.712,0,3.1,1.389,3.1,3.1
							L1344.739,2283.91L1344.739,2283.91z"/>
					</g>
				</g>
			</g>
		</g>
		<g>
			<rect x="1303.412" y="2180.262" fill="#FFFFFF" width="122.521" height="3.904"/>
			<rect x="1303.412" y="2188.893" fill="#FFFFFF" width="122.521" height="3.906"/>
			<rect x="1303.412" y="2197.527" fill="#FFFFFF" width="122.521" height="3.902"/>
			<rect x="1303.412" y="2206.16" fill="#FFFFFF" width="122.521" height="3.902"/>
			<rect x="1303.412" y="2214.791" fill="#FFFFFF" width="122.521" height="3.904"/>
			<rect x="1303.412" y="2223.422" fill="#FFFFFF" width="122.521" height="3.906"/>
			<rect x="1303.412" y="2232.055" fill="#FFFFFF" width="122.521" height="3.904"/>
			<rect x="1303.412" y="2240.689" fill="#FFFFFF" width="122.521" height="3.902"/>
			<rect x="1303.412" y="2249.32" fill="#FFFFFF" width="122.521" height="3.904"/>
			<rect x="1303.412" y="2257.953" fill="#FFFFFF" width="122.521" height="3.902"/>
			<rect x="1303.412" y="2266.584" fill="#FFFFFF" width="122.521" height="3.904"/>
			<rect x="1303.412" y="2275.217" fill="#FFFFFF" width="122.521" height="3.902"/>
			<rect x="1303.412" y="2283.85" fill="#FFFFFF" width="122.521" height="3.904"/>
			<rect x="1303.412" y="2292.482" fill="#FFFFFF" width="122.521" height="3.902"/>
			<rect x="1303.412" y="2301.113" fill="#FFFFFF" width="122.521" height="3.904"/>
			<rect x="1303.412" y="2309.746" fill="#FFFFFF" width="122.521" height="3.904"/>
			<rect x="1303.412" y="2318.377" fill="#FFFFFF" width="122.521" height="3.904"/>
			<rect x="1303.412" y="2327.01" fill="#FFFFFF" width="122.521" height="3.904"/>
			<rect x="1303.412" y="2335.643" fill="#FFFFFF" width="122.521" height="3.904"/>
		</g>
	</g>
	<rect x="1274.619" y="2343.656" fill="#FFFFFF" width="180.186" height="8.693"/>
	<rect x="1274.619" y="2352.145" fill="#CC9999" width="180.186" height="6.693"/>
</g>
<g>
	<g>
		<rect x="955.961" y="2158.104" fill="#999999" width="158.055" height="194.359"/>
		<rect x="963.717" y="2166.434" fill="#CCCCCC" width="141.758" height="177.223"/>
		<g>
			<g>
				<rect id="SVGID_5_" x="973.611" y="2175.77" fill="#CC99ED" width="122.521" height="167.887"/>
			</g>
			<g>
				<defs>
					<rect id="SVGID_8_" x="973.611" y="2175.77" width="122.521" height="167.887"/>
				</defs>
				<clipPath id="SVGID_9_">
					<use xlink:href="#SVGID_8_"  overflow="visible"/>
				</clipPath>
				<g clip-path="url(#SVGID_9_)">
					<g>
						<rect x="1081.21" y="2279.572" fill="#6633CC" width="14.921" height="23.842"/>
						<rect x="1057.546" y="2256.725" fill="#6633CC" width="14.92" height="46.689"/>
						<rect x="844.042" y="2303.354" fill="#6633CC" width="252.089" height="41.736"/>
						<rect x="1000.843" y="2292.742" fill="#6633CC" width="86.019" height="25.984"/>
						<rect x="1004.992" y="2275.369" fill="#6633CC" width="46.381" height="43.477"/>
						<path fill="#6633CC" d="M1038.946,2274.721c0,5.732-4.815,10.381-10.755,10.381c-5.939,0-10.754-4.648-10.754-10.381
							c0-5.736,4.815-10.387,10.754-10.387C1034.13,2264.334,1038.946,2268.984,1038.946,2274.721z"/>
						<path fill="#6633CC" d="M1031.027,2276.84c0,1.514-1.269,2.74-2.836,2.74l0,0c-1.566,0-2.835-1.227-2.835-2.74v-17.422
							c0-1.514,1.269-2.738,2.835-2.738l0,0c1.567,0,2.836,1.225,2.836,2.738V2276.84z"/>
						<path fill="#6633CC" d="M1010.664,2288.055c0,1.514-1.27,2.738-2.836,2.738l0,0c-1.566,0-2.836-1.225-2.836-2.738v-17.424
							c0-1.514,1.27-2.738,2.836-2.738l0,0c1.566,0,2.836,1.225,2.836,2.738V2288.055z"/>
						<path fill="#6633CC" d="M1051.266,2288.537c0,1.514-1.271,2.738-2.836,2.738l0,0c-1.566,0-2.837-1.225-2.837-2.738v-17.424
							c0-1.51,1.271-2.738,2.837-2.738l0,0c1.565,0,2.836,1.229,2.836,2.738V2288.537z"/>
						<rect x="971.571" y="2285.846" fill="#6633CC" width="21.145" height="22.576"/>
						<rect x="929.846" y="2270.447" fill="#6633CC" width="36.794" height="44.578"/>
						<polygon fill="#6633CC" points="929.863,2270.447 948.252,2263.338 966.641,2270.447 						"/>
						<rect x="911.367" y="2291.961" fill="#6633CC" width="12.478" height="22.998"/>
						<rect x="861.165" y="2286.25" fill="#6633CC" width="32.461" height="30.955"/>
						<rect x="869.83" y="2271.879" fill="#6633CC" width="15.133" height="15.68"/>
						<path fill="#6633CC" d="M945.244,2267.094h6.664v-10.322c0-1.711-1.437-3.1-3.21-3.1h-0.213h-0.031
							c-1.773,0-3.21,1.389-3.21,3.1L945.244,2267.094L945.244,2267.094z"/>
					</g>
				</g>
			</g>
		</g>
		<g>
			<rect x="973.611" y="2180.262" fill="#FFFFFF" width="122.521" height="3.904"/>
			<rect x="973.611" y="2188.893" fill="#FFFFFF" width="122.521" height="3.906"/>
			<rect x="973.611" y="2197.527" fill="#FFFFFF" width="122.521" height="3.902"/>
			<rect x="973.611" y="2206.16" fill="#FFFFFF" width="122.521" height="3.902"/>
			<rect x="973.611" y="2214.791" fill="#FFFFFF" width="122.521" height="3.904"/>
			<rect x="973.611" y="2223.422" fill="#FFFFFF" width="122.521" height="3.906"/>
			<rect x="973.611" y="2232.055" fill="#FFFFFF" width="122.521" height="3.904"/>
			<rect x="973.611" y="2240.689" fill="#FFFFFF" width="122.521" height="3.902"/>
			<rect x="973.611" y="2249.32" fill="#FFFFFF" width="122.521" height="3.904"/>
			<rect x="973.611" y="2257.953" fill="#FFFFFF" width="122.521" height="3.902"/>
			<rect x="973.611" y="2266.584" fill="#FFFFFF" width="122.521" height="3.904"/>
			<rect x="973.611" y="2275.217" fill="#FFFFFF" width="122.521" height="3.902"/>
			<rect x="973.611" y="2283.85" fill="#FFFFFF" width="122.521" height="3.904"/>
			<rect x="973.611" y="2292.482" fill="#FFFFFF" width="122.521" height="3.902"/>
			<rect x="973.611" y="2301.113" fill="#FFFFFF" width="122.521" height="3.904"/>
			<rect x="973.611" y="2309.746" fill="#FFFFFF" width="122.521" height="3.904"/>
			<rect x="973.611" y="2318.377" fill="#FFFFFF" width="122.521" height="3.904"/>
			<rect x="973.611" y="2327.01" fill="#FFFFFF" width="122.521" height="3.904"/>
			<rect x="973.611" y="2335.643" fill="#FFFFFF" width="122.521" height="3.904"/>
		</g>
	</g>
	<rect x="944.738" y="2343.656" fill="#FFFFFF" width="180.186" height="8.693"/>
	<rect x="944.738" y="2352.145" fill="#CC9999" width="180.186" height="6.693"/>
</g>
<rect x="792.684" y="2113.418" fill="#FFF266" width="151.777" height="15.461"/>
<rect x="792.684" y="2108.264" fill="#FFFFFF" width="151.777" height="10.309"/>
<path fill="#B57666" d="M792.766,2116.271h-4.656c-2.821,0-5.108-2.287-5.108-5.109l0,0c0-2.82,2.287-5.107,5.108-5.107h4.656"/>
<path fill="#B57666" d="M944.648,2106.053l4.655,0.002c2.82,0,5.108,2.287,5.108,5.107l0,0c-0.001,2.822-2.287,5.109-5.108,5.109
	h-4.656"/>
<rect x="790.367" y="0" fill="#CC9999" width="2.142" height="2106.055"/>
<rect x="944.461" y="0" fill="#CC9999" width="2.142" height="2106.055"/>
<rect x="792.684" y="2106.055" fill="#B57666" width="152.848" height="4.785"/>
<rect x="9.682" y="2113.418" fill="#FFF266" width="151.777" height="15.461"/>
<rect x="9.682" y="2108.264" fill="#FFFFFF" width="151.777" height="10.309"/>
<path fill="#B57666" d="M9.764,2116.271H5.108c-2.821,0-5.108-2.287-5.108-5.109l0,0c0-2.82,2.287-5.107,5.108-5.107h4.655"/>
<path fill="#B57666" d="M161.646,2106.053l4.655,0.002c2.82,0,5.108,2.287,5.108,5.107l0,0c-0.001,2.822-2.287,5.109-5.108,5.109
	h-4.656"/>
<rect x="7.365" y="0" fill="#CC9999" width="2.142" height="2106.055"/>
<rect x="161.459" y="0" fill="#CC9999" width="2.142" height="2106.055"/>
<rect x="9.682" y="2106.055" fill="#B57666" width="152.848" height="4.785"/>
<rect x="1123.482" y="2113.418" fill="#FFF266" width="151.777" height="15.461"/>
<rect x="1123.482" y="2108.264" fill="#FFFFFF" width="151.777" height="10.309"/>
<path fill="#B57666" d="M1123.563,2116.271h-4.655c-2.821,0-5.108-2.287-5.108-5.109l0,0c0-2.82,2.287-5.107,5.108-5.107h4.655"/>
<path fill="#B57666" d="M1275.446,2106.053l4.655,0.002c2.82,0,5.108,2.287,5.108,5.107l0,0c0,2.822-2.287,5.109-5.108,5.109h-4.656
	"/>
<rect x="1121.165" y="0" fill="#CC9999" width="2.142" height="2106.055"/>
<rect x="1275.259" y="0" fill="#CC9999" width="2.142" height="2106.055"/>
<rect x="1123.482" y="2106.055" fill="#B57666" width="152.848" height="4.785"/>
<rect x="1450.306" y="2113.418" fill="#FFF266" width="151.777" height="15.461"/>
<rect x="1450.306" y="2108.264" fill="#FFFFFF" width="151.777" height="10.309"/>
<path fill="#B57666" d="M1450.387,2116.271h-4.655c-2.821,0-5.108-2.287-5.108-5.109l0,0c0-2.82,2.287-5.107,5.108-5.107h4.655"/>
<path fill="#B57666" d="M1602.27,2106.053l4.655,0.002c2.82,0,5.108,2.287,5.108,5.107l0,0c0,2.822-2.287,5.109-5.108,5.109h-4.656"
	/>
<rect x="1447.989" y="0" fill="#CC9999" width="2.142" height="2106.055"/>
<rect x="1602.083" y="0" fill="#CC9999" width="2.142" height="2106.055"/>
<rect x="1450.306" y="2106.055" fill="#B57666" width="152.848" height="4.785"/>
<rect x="2170.073" y="2113.418" fill="#FFF266" width="151.777" height="15.461"/>
<rect x="2170.073" y="2108.264" fill="#FFFFFF" width="151.777" height="10.309"/>
<path fill="#B57666" d="M2170.154,2116.271h-4.655c-2.821,0-5.108-2.287-5.108-5.109l0,0c0-2.82,2.287-5.107,5.108-5.107h4.655"/>
<path fill="#B57666" d="M2322.037,2106.053l4.655,0.002c2.82,0,5.108,2.287,5.108,5.107l0,0c0,2.822-2.287,5.109-5.108,5.109h-4.656
	"/>
<rect x="2167.756" y="0" fill="#CC9999" width="2.142" height="2106.055"/>
<rect x="2321.85" y="0" fill="#CC9999" width="2.142" height="2106.055"/>
<rect x="2170.073" y="2106.055" fill="#B57666" width="152.848" height="4.785"/>
<rect x="1809.284" y="2113.418" fill="#FFF266" width="151.777" height="15.461"/>
<rect x="1809.284" y="2108.264" fill="#FFFFFF" width="151.777" height="10.309"/>
<path fill="#B57666" d="M1809.366,2116.271h-4.655c-2.821,0-5.108-2.287-5.108-5.109l0,0c0-2.82,2.287-5.107,5.108-5.107h4.655"/>
<path fill="#B57666" d="M1961.249,2106.053l4.655,0.002c2.82,0,5.108,2.287,5.108,5.107l0,0c0,2.822-2.287,5.109-5.108,5.109h-4.656
	"/>
<rect x="1806.967" y="0" fill="#CC9999" width="2.142" height="2106.055"/>
<rect x="1961.061" y="0" fill="#CC9999" width="2.142" height="2106.055"/>
<rect x="1809.284" y="2106.055" fill="#B57666" width="152.848" height="4.785"/>
<g>
	<polygon fill="#7A7EDE" points="573.836,2341.08 554.226,2341.102 554.222,2332.828 573.832,2332.809 	"/>
	<path fill="#9999ED" d="M582.284,2315.396c-0.013-0.016-0.022-0.025-0.035-0.041l0.061-6.402c0.006-0.627,0.425-1.17,1.026-1.348
		c1.474-0.439,2.548-1.805,2.546-3.422l-0.002-1.605c-0.002-1.279-0.548-2.688-1.69-3.029c-1.594-0.473-2.071-1.988-1.896-3.537
		l-0.078-4.637c-0.001-1.148,0.509-2.234,1.389-2.971c0.779-0.652,1.596-1.58,1.595-2.609l-0.004-3.303
		c-0.002-1.969-1.6-3.562-3.568-3.561l-17.664,0.018l-17.665,0.02c-1.968,0-3.562,1.6-3.561,3.568l0.003,3.303
		c0.002,1.029,0.819,1.957,1.6,2.605c0.882,0.736,1.395,1.82,1.396,2.967l-0.056,4.637c0.179,1.551-0.294,3.064-1.887,3.543
		c-1.142,0.342-1.685,1.752-1.684,3.031l0.002,1.607c0.002,1.615,1.078,2.979,2.553,3.414c0.602,0.18,1.022,0.721,1.029,1.348
		l0.074,6.4c-0.013,0.018-0.022,0.027-0.035,0.043c-2.248,0.393-3.956,2.348-3.954,4.707v0.188
		c0.008,7.715,6.267,13.961,13.979,13.951l8.27-0.008l8.27-0.01c7.712-0.006,13.958-6.266,13.95-13.979v-0.188
		C586.246,2317.736,584.532,2315.785,582.284,2315.396z"/>
	<g>
		<path fill="#BDBFFF" d="M567.854,2285.863l-20.889,0.021c-1.01,0.002-1.83-0.816-1.831-1.826s0.817-1.83,1.827-1.83l20.889-0.021
			c1.01-0.002,1.831,0.816,1.831,1.826C569.683,2285.043,568.865,2285.863,567.854,2285.863z"/>
	</g>
	<g>
		<path fill="#BDBFFF" d="M569.715,2305.355l-22.723,0.025c-1.01,0.002-1.83-0.816-1.831-1.828c0-1.01,0.817-1.828,1.827-1.83
			l22.723-0.023c1.01-0.002,1.83,0.816,1.831,1.828C571.544,2304.537,570.726,2305.355,569.715,2305.355z"/>
	</g>
	<g>
		<path fill="#BDBFFF" d="M555.891,2322.006l-8.88,0.01c-1.011,0.002-1.831-0.816-1.832-1.826c0-1.01,0.817-1.83,1.827-1.832
			l8.881-0.008c1.01-0.002,1.831,0.816,1.832,1.826C557.719,2321.186,556.901,2322.006,555.891,2322.006z"/>
	</g>
	<path fill="#FFFFFF" d="M583.227,2342.275l-1.096-0.959c-1.932-1.689-4.413-2.619-6.979-2.615l-23.118,0.021
		c-3.078,0.004-6.002,1.348-8.01,3.68l-0.053,0.062c-1.346,1.562-2.087,3.559-2.087,5.621l-0.005,43.58h44.517l-0.223-42.926
		C586.165,2346.26,585.092,2343.906,583.227,2342.275z"/>
	<path fill="#BDBFFF" d="M577.967,2373.721l-27.737,0.029l-0.038-18.459c-0.003-3,2.424-5.432,5.423-5.434l16.879-0.021
		c2.998,0,5.431,2.428,5.434,5.424L577.967,2373.721z"/>
	<g>
		<g>
			<path fill="#68B1E1" d="M558.548,2358.113l-4.52,0.004c-0.703,0-1.273-0.568-1.274-1.271v-0.025
				c-0.002-0.703,0.568-1.273,1.271-1.273l4.518-0.006c0.703,0,1.273,0.568,1.275,1.271v0.025
				C559.82,2357.541,559.25,2358.113,558.548,2358.113z"/>
			<rect x="554.843" y="2358.164" fill="#FFFFFF" width="2.9" height="6.072"/>
		</g>
		<g>
			<path fill="#F16623" d="M574.097,2358.096l-4.519,0.006c-0.703,0.002-1.273-0.57-1.274-1.273v-0.025
				c-0.001-0.701,0.568-1.271,1.271-1.273l4.52-0.004c0.703,0,1.273,0.568,1.274,1.271v0.023
				C575.369,2357.525,574.8,2358.096,574.097,2358.096z"/>
			<rect x="570.392" y="2358.148" fill="#FFFFFF" width="2.9" height="6.072"/>
		</g>
	</g>
</g>
<g>
	<rect x="365.125" y="2238.303" fill="#FFFFFF" width="28.442" height="35.648"/>
	<path fill="#9B5945" d="M395.539,2275.924h-32.386v-39.592h32.386V2275.924z M367.097,2271.98h24.499v-31.705h-24.499V2271.98z"/>
</g>
<g>
	<rect x="365.125" y="2301.018" fill="#FFFFFF" width="28.442" height="35.648"/>
	<path fill="#9B5945" d="M395.539,2338.639h-32.386v-39.592h32.386V2338.639z M367.097,2334.693h24.499v-31.703h-24.499V2334.693z"
		/>
</g>
<g>
	<rect x="414.781" y="2268.088" fill="#FFFFFF" width="28.442" height="35.648"/>
	<path fill="#9B5945" d="M445.194,2305.709h-32.386v-39.592h32.386L445.194,2305.709L445.194,2305.709z M416.752,2301.766h24.499
		v-31.705h-24.499V2301.766z"/>
</g>
<g>
	<rect x="1158.321" y="2244.029" fill="#FFFFFF" width="28.442" height="35.648"/>
	<path fill="#9B5945" d="M1188.734,2281.65h-32.386v-39.592h32.386V2281.65z M1160.292,2277.707h24.499v-31.705h-24.499V2277.707z"
		/>
</g>
<g>
	<rect x="1202.803" y="2222.174" fill="#FFFFFF" width="28.442" height="35.648"/>
	<path fill="#9B5945" d="M1233.216,2259.795h-32.386v-39.592h32.386V2259.795z M1204.774,2255.852h24.499v-31.705h-24.499V2255.852z
		"/>
</g>
<g>
	<polygon fill="#B57666" points="649.969,2391.99 627.807,2391.99 624.143,2363.783 652.716,2363.783 	"/>
	<g>
		<g>
			<defs>
				<polygon id="SVGID_10_" points="649.969,2391.99 627.807,2391.99 624.143,2363.783 652.716,2363.783 				"/>
			</defs>
			<clipPath id="SVGID_11_">
				<use xlink:href="#SVGID_10_"  overflow="visible"/>
			</clipPath>
			<g clip-path="url(#SVGID_11_)">
				
					<rect x="644.815" y="2378.251" transform="matrix(-0.7072 -0.707 0.707 -0.7072 -578.8246 4520.3564)" fill="#FFFFFF" width="3.563" height="3.563"/>
				
					<rect x="648.757" y="2382.233" transform="matrix(-0.7071 -0.7071 0.7071 -0.7071 -575.2117 4529.77)" fill="#FFFFFF" width="3.566" height="3.564"/>
				
					<rect x="652.839" y="2386.292" transform="matrix(-0.7072 -0.707 0.707 -0.7072 -570.8121 4539.7583)" fill="#FFFFFF" width="3.564" height="3.565"/>
				
					<rect x="636.779" y="2378.03" transform="matrix(-0.7073 -0.7069 0.7069 -0.7073 -592.0866 4514.4731)" fill="#FFFFFF" width="3.564" height="3.566"/>
				
					<rect x="640.964" y="2382.152" transform="matrix(-0.707 -0.7072 0.7072 -0.707 -588.762 4523.9448)" fill="#FFFFFF" width="3.565" height="3.564"/>
				
					<rect x="644.997" y="2386.184" transform="matrix(-0.707 -0.7072 0.7072 -0.707 -584.7288 4533.6816)" fill="#FFFFFF" width="3.565" height="3.564"/>
				
					<rect x="628.864" y="2377.878" transform="matrix(-0.7073 -0.7069 0.7069 -0.7073 -605.4931 4508.6191)" fill="#FFFFFF" width="3.564" height="3.566"/>
				
					<rect x="632.807" y="2381.86" transform="matrix(-0.7072 -0.707 0.707 -0.7072 -601.8769 4518.0298)" fill="#FFFFFF" width="3.564" height="3.565"/>
				
					<rect x="637.039" y="2386.01" transform="matrix(-0.707 -0.7072 0.7072 -0.707 -598.1902 4527.7559)" fill="#FFFFFF" width="3.565" height="3.564"/>
				
					<rect x="645.086" y="2394.062" transform="matrix(-0.7074 -0.7068 0.7068 -0.7074 -588.9313 4547.8926)" fill="#FFFFFF" width="3.565" height="3.566"/>
				
					<rect x="624.892" y="2381.709" transform="matrix(-0.7072 -0.707 0.707 -0.7072 -615.2816 4512.1753)" fill="#FFFFFF" width="3.564" height="3.564"/>
				
					<rect x="628.924" y="2385.742" transform="matrix(-0.7072 -0.707 0.707 -0.7072 -611.2494 4521.9106)" fill="#FFFFFF" width="3.564" height="3.564"/>
				
					<rect x="637.153" y="2393.903" transform="matrix(-0.7071 -0.7071 0.7071 -0.7071 -603.2728 4541.4863)" fill="#FFFFFF" width="3.566" height="3.564"/>
				
					<rect x="641.033" y="2397.846" transform="matrix(-0.7074 -0.7068 0.7068 -0.7074 -598.5256 4551.4897)" fill="#FFFFFF" width="3.565" height="3.566"/>
				
					<rect x="621.01" y="2385.59" transform="matrix(-0.7072 -0.707 0.707 -0.7072 -624.6537 4516.0562)" fill="#FFFFFF" width="3.564" height="3.565"/>
				
					<rect x="629.319" y="2393.799" transform="matrix(-0.707 -0.7072 0.7072 -0.707 -616.8765 4535.5918)" fill="#FFFFFF" width="3.565" height="3.564"/>
				
					<rect x="633.351" y="2397.832" transform="matrix(-0.707 -0.7072 0.7072 -0.707 -612.8451 4545.3276)" fill="#FFFFFF" width="3.565" height="3.564"/>
				
					<rect x="637.262" y="2401.794" transform="matrix(-0.7071 -0.7071 0.7071 -0.7071 -608.667 4555.0342)" fill="#FFFFFF" width="3.566" height="3.564"/>
			</g>
		</g>
	</g>
</g>
</svg>
