<?xml version="1.0" encoding="utf-8"?>
<!-- Generator: Adobe Illustrator 17.0.0, SVG Export Plug-In . SVG Version: 6.00 Build 0)  -->
<!DOCTYPE svg PUBLIC "-//W3C//DTD SVG 1.1//EN" "http://www.w3.org/Graphics/SVG/1.1/DTD/svg11.dtd">
<svg version="1.1" id="Слой_1" xmlns="http://www.w3.org/2000/svg" xmlns:xlink="http://www.w3.org/1999/xlink" x="0px" y="0px"
	 width="133.354px" height="83.212px" viewBox="231.167 379.23 133.354 83.212"
	 enable-background="new 231.167 379.23 133.354 83.212" xml:space="preserve">
<g>
	<g>
		<g>
			<g>
				<circle cx="321.329" cy="401.328" r="7.938"/>
				<g>
					<circle cx="325.194" cy="413.861" r="7.938"/>
					<ellipse cx="311.197" cy="413.861" rx="16.712" ry="7.939"/>
					<circle cx="296.574" cy="414.279" r="7.938"/>
				</g>
			</g>
			<g>
				<circle fill="#FF8A33" cx="303.52" cy="398.971" r="18.886"/>
				<g>
					<circle fill="#5C3639" cx="305.579" cy="407.197" r="0.919"/>
					<circle fill="#5C3639" cx="291.204" cy="407.197" r="0.919"/>
				</g>
				<path d="M316.895,411.297c0-1.734-0.225-3.418-0.646-5.021c-2.22-8.436-9.901-14.658-19.035-14.658
					c-4.789,0-9.176,1.713-12.588,4.555c1.336-9.57,9.532-16.943,19.47-16.943c10.87,0,19.683,8.812,19.683,19.684
					c0,6.08-2.762,11.516-7.096,15.125C316.808,413.141,316.895,412.23,316.895,411.297z"/>
			</g>
			<path d="M312.597,389.385c5.314,4.266,8.006,10.527,7.768,16.596c-5.873,1.549-12.882-0.471-18.197-4.736
				c-5.317-4.266-9.178-10.652-9.037-14.219C299.004,385.48,307.28,385.121,312.597,389.385z"/>
		</g>
		<g>
			<path fill="#FF8A33" d="M287.559,458.635l9.848,0.223c0,0-0.026-0.371,0.045-0.975c0.068-0.604,0.087-1.502,0.23-2.518
				c0.294-2.027,0.973-4.58,2.157-6.664c0.552-1.076,1.307-1.957,2.016-2.762c0.769-0.738,1.518-1.4,2.237-1.82
				c1.417-0.926,2.425-1.107,1.986-1.01l-2.332-9.57c-0.239,0.068-2.347,0.594-4.932,2.264c-1.318,0.799-2.691,1.949-4.043,3.291
				c-1.283,1.396-2.565,2.99-3.503,4.752c-1.979,3.49-2.929,7.309-3.337,10.115c-0.198,1.406-0.235,2.574-0.316,3.393
				C287.532,458.176,287.559,458.635,287.559,458.635z"/>
			<path d="M287.448,458.631l10.028,0.227l0.036,2.875l-12.479,0.709c0.172-1.117,0.776-2.092,1.337-2.76
				C286.931,459.01,287.448,458.631,287.448,458.631z"/>
		</g>
		<g>
			<path fill="#FF8A33" d="M302.059,458.414l9.85-0.139c0,0-0.175-6.965,0.371-13.871c0.11-1.729,0.31-3.439,0.448-5.055
				c0.196-1.594,0.365-3.094,0.555-4.35c0.191-1.26,0.352-2.305,0.487-2.996c0.123-0.645,0.193-1.014,0.193-1.014l-9.619-2.121
				c0,0-0.025,0.127-0.074,0.363c-0.042,0.225-0.104,0.555-0.184,0.975c-0.16,0.822-0.339,1.977-0.548,3.359
				c-0.209,1.385-0.392,2.992-0.603,4.717c-0.15,1.725-0.361,3.564-0.479,5.404C301.875,451.049,302.06,458.414,302.059,458.414z"/>
			<path d="M301.948,458.414l10.029-0.141l0.049,3.445l-12.492,0.432C299.89,460.016,301.948,458.414,301.948,458.414z"/>
		</g>
		<g>
			<g>
				<g>
					<g>
						<path fill="#FF8A33" d="M331.214,424.399c0.529,0.35,0.992,0.742,1.323,1.218c0.322,0.491,0.542,1.009,0.649,1.517
							c0.217,1.02-0.029,1.989-0.702,2.731c-0.674,0.742-1.622,1.146-2.541,1.252c-0.461,0.051-0.917,0.025-1.346-0.088
							c-0.437-0.104-0.896-0.242-1.291-0.507c-0.776-0.546-1.37-1.276-1.667-2.169c-0.286-0.9-0.31-1.912,0.097-2.817
							c0.416-0.924,1.208-1.56,2.206-1.774C328.937,423.537,330.16,423.674,331.214,424.399z"/>
						<path fill="#CC66FF" d="M327.276,430.568c0,0-0.247-0.16-0.68-0.44c-0.436-0.277-1.126-0.589-1.916-1.013
							c-1.645-0.753-3.929-1.657-6.384-2.207c-2.441-0.576-4.973-0.901-6.882-1.047c-0.955-0.077-1.753-0.111-2.313-0.124
							c-0.559-0.025-0.878-0.021-0.878-0.021c-2.08-0.032-3.812-1.544-4.029-3.565c-0.221-2.031,1.689-3.845,4.116-3.807
							c0,0,5.869-0.016,11.685,1.388c2.91,0.657,5.766,1.756,7.857,2.725c1.03,0.539,1.901,0.956,2.483,1.315
							c0.578,0.37,0.909,0.581,0.909,0.581"/>
					</g>
				</g>
			</g>
			<g>
				<g>
					<g>
						<path fill="#FF8A33" d="M275.478,413.803c-1.321-2.193-0.948-4.743,0.821-5.688c1.769-0.944,4.128-0.185,5.253,1.703
							c1.262,1.746,0.993,4.224-0.503,5.472C279.463,416.609,276.991,415.923,275.478,413.803z"/>
						<path fill="#CC66FF" d="M281.598,409.788c0,0,0.786,1.099,1.964,2.746c0.628,0.776,1.394,1.64,2.205,2.571
							c0.892,0.805,1.774,1.789,2.801,2.489c1.977,1.554,4.159,2.569,5.817,2.975c0.415,0.086,0.796,0.165,1.134,0.235
							c0.337,0.034,0.632,0.064,0.874,0.088c0.242,0.029,0.432,0.048,0.56,0.037c0.128-0.001,0.196-0.002,0.196-0.002
							c0.903,0.043,1.697,0.301,2.451,0.845c0.738,0.512,1.379,1.252,1.797,2.181c0.423,0.927,0.159,2.035-0.639,2.902
							c-0.788,0.84-2.157,1.495-3.668,1.444c0,0-0.115,0-0.331-0.001c-0.217,0.008-0.53-0.012-0.926-0.055
							c-0.396-0.04-0.881-0.08-1.43-0.151c-0.538-0.111-1.146-0.237-1.809-0.373c-2.627-0.634-5.85-2.181-8.497-4.263
							c-1.395-0.986-2.511-2.185-3.646-3.244c-1.012-1.134-1.945-2.208-2.704-3.145c-1.388-1.941-2.314-3.235-2.314-3.235"/>
					</g>
				</g>
			</g>
		</g>
		<g>
			<rect x="294.078" y="423.008" fill="#CC66FF" width="21.386" height="12.809"/>
			<circle fill="#CC66FF" cx="304.098" cy="424.629" r="8.516"/>
		</g>
		
			<rect x="300.661" y="413.991" transform="matrix(-0.7072 -0.707 0.707 -0.7072 224.1582 927.9388)" fill="#FF8A33" width="7.124" height="7.126"/>
		<path d="M276.332,412.801c0,1.828-1.482,3.311-3.31,3.311l0,0c-1.829,0-3.311-1.482-3.311-3.311v-16.102
			c0-1.828,1.482-3.311,3.311-3.311l0,0c1.828,0,3.31,1.483,3.31,3.311V412.801z"/>
		<circle cx="271.637" cy="396.633" r="4.695"/>
		<circle cx="271.637" cy="414.779" r="4.695"/>
	</g>
	<g>
		<rect x="231.167" y="435.816" fill="#B57666" width="133.354" height="5.227"/>
		<rect x="238.54" y="440.334" fill="#993333" width="119.408" height="13.922"/>
		<rect x="238.14" y="440.334" fill="#993333" width="4.438" height="21.602"/>
		<rect x="353.51" y="440.334" fill="#993333" width="4.438" height="21.602"/>
	</g>
	<g>
		<rect x="241.983" y="420.445" width="16.337" height="5.779"/>
		<rect x="241.983" y="417.557" width="3.007" height="5.779"/>
		<rect x="255.312" y="417.557" width="3.008" height="5.779"/>
		<path d="M237.233,436.119c0-7.24,5.87-13.111,13.112-13.111s13.112,5.871,13.112,13.111"/>
		<circle fill="#999999" cx="250.345" cy="428.785" r="5.449"/>
		<circle fill="#FFFFFF" cx="250.345" cy="428.785" r="2.866"/>
	</g>
	<g>
		<g>
			<rect x="312.027" y="433.145" fill="#FFFFFF" width="27.645" height="2.975"/>
			<path fill="#FFFFFF" d="M357.704,435.963h-31.285c-0.558,0-0.913-0.451-0.791-1.01l4.318-19.875
				c0.121-0.557,0.672-1.01,1.23-1.01h31.286c0.557,0,0.911,0.453,0.79,1.01l-4.318,19.875
				C358.812,435.512,358.262,435.963,357.704,435.963z"/>
		</g>
	</g>
</g>
</svg>
