<?xml version="1.0" encoding="utf-8"?>
<!-- Generator: Adobe Illustrator 17.0.0, SVG Export Plug-In . SVG Version: 6.00 Build 0)  -->
<!DOCTYPE svg PUBLIC "-//W3C//DTD SVG 1.1//EN" "http://www.w3.org/Graphics/SVG/1.1/DTD/svg11.dtd">
<svg version="1.1" id="Слой_1" xmlns="http://www.w3.org/2000/svg" xmlns:xlink="http://www.w3.org/1999/xlink" x="0px" y="0px"
	 width="133.354px" height="83.213px" viewBox="0 0 133.354 83.213" enable-background="new 0 0 133.354 83.213"
	 xml:space="preserve">
<g>
	<g>
		<circle cx="55.261" cy="22.1" r="7.938"/>
		<g>
			<circle cx="51.396" cy="34.633" r="7.938"/>
			<ellipse cx="65.393" cy="34.633" rx="16.712" ry="7.939"/>
			<circle cx="80.016" cy="35.051" r="7.938"/>
		</g>
	</g>
	<g>
		<circle fill="#FF8A33" cx="73.07" cy="19.742" r="18.886"/>
		<g>
			<circle fill="#5C3639" cx="71.011" cy="27.969" r="0.919"/>
			<circle fill="#5C3639" cx="85.386" cy="27.969" r="0.919"/>
		</g>
		<path d="M59.695,32.068c0-1.734,0.225-3.418,0.646-5.021c2.22-8.436,9.901-14.658,19.035-14.658c4.789,0,9.176,1.713,12.588,4.555
			C90.629,7.373,82.433,0,72.495,0c-10.87,0-19.683,8.812-19.683,19.684c0,6.08,2.762,11.516,7.096,15.125
			C59.782,33.912,59.695,33.002,59.695,32.068z"/>
	</g>
	<path d="M63.993,10.156c-5.314,4.266-8.006,10.527-7.768,16.596c5.873,1.549,12.882-0.471,18.197-4.736
		c5.317-4.266,9.178-10.652,9.037-14.219C77.586,6.252,69.311,5.893,63.993,10.156z"/>
</g>
<g>
	<path fill="#FF8A33" d="M56.392,79.406l9.848,0.223c0,0-0.026-0.371,0.045-0.975c0.068-0.604,0.087-1.502,0.23-2.518
		c0.294-2.027,0.973-4.58,2.157-6.664c0.552-1.076,1.307-1.957,2.016-2.762c0.769-0.738,1.518-1.4,2.237-1.82
		c1.417-0.926,2.425-1.107,1.986-1.01l-2.332-9.57c-0.239,0.068-2.347,0.594-4.932,2.264c-1.318,0.799-2.691,1.949-4.043,3.291
		c-1.283,1.396-2.564,2.99-3.503,4.752c-1.979,3.49-2.929,7.309-3.337,10.115c-0.198,1.406-0.235,2.574-0.316,3.393
		C56.365,78.947,56.392,79.406,56.392,79.406z"/>
	<path d="M56.28,79.402l10.028,0.227l0.036,2.875l-12.479,0.709c0.172-1.117,0.776-2.092,1.337-2.76
		C55.764,79.781,56.28,79.402,56.28,79.402z"/>
</g>
<g>
	<path fill="#FF8A33" d="M70.892,79.186l9.85-0.139c0,0-0.175-6.965,0.371-13.871c0.11-1.729,0.31-3.439,0.448-5.055
		c0.196-1.594,0.365-3.094,0.555-4.35c0.191-1.26,0.352-2.305,0.487-2.996c0.123-0.645,0.193-1.014,0.193-1.014l-9.619-2.121
		c0,0-0.025,0.127-0.074,0.363c-0.042,0.225-0.104,0.555-0.184,0.975c-0.16,0.822-0.339,1.977-0.548,3.359
		c-0.209,1.385-0.392,2.992-0.603,4.717c-0.15,1.725-0.361,3.564-0.479,5.404C70.708,71.82,70.893,79.186,70.892,79.186z"/>
	<path d="M70.781,79.186l10.029-0.141l0.049,3.445l-12.492,0.432C68.723,80.787,70.781,79.186,70.781,79.186z"/>
</g>
<g>
	<g>
		<g>
			<path fill="#FF8A33" d="M100.046,45.17c0.529,0.35,0.992,0.742,1.323,1.218c0.322,0.491,0.542,1.009,0.649,1.517
				c0.217,1.02-0.029,1.989-0.702,2.731c-0.674,0.742-1.622,1.146-2.541,1.251c-0.461,0.052-0.917,0.025-1.346-0.087
				c-0.437-0.104-0.896-0.242-1.291-0.507c-0.776-0.546-1.37-1.276-1.667-2.169c-0.286-0.9-0.31-1.913,0.097-2.817
				c0.416-0.924,1.208-1.56,2.206-1.774C97.77,44.309,98.993,44.446,100.046,45.17z"/>
			<path fill="#CC66FF" d="M96.109,51.34c0,0-0.247-0.16-0.68-0.44c-0.436-0.277-1.126-0.589-1.916-1.013
				c-1.645-0.753-3.929-1.657-6.384-2.207c-2.441-0.576-4.973-0.901-6.882-1.047c-0.955-0.076-1.753-0.111-2.313-0.124
				c-0.559-0.025-0.878-0.021-0.878-0.021c-2.08-0.032-3.812-1.544-4.029-3.565c-0.221-2.031,1.689-3.845,4.116-3.807
				c0,0,5.869-0.016,11.685,1.388c2.91,0.656,5.766,1.756,7.857,2.725c1.03,0.539,1.901,0.955,2.483,1.314
				c0.578,0.37,0.909,0.581,0.909,0.581"/>
		</g>
	</g>
</g>
<g>
	<g>
		<g>
			<path fill="#FF8A33" d="M56.913,64.495c-0.332,2.171-2.23,3.759-4.226,3.554c-1.995-0.205-3.303-2.421-2.902-4.948
				c0.6-2.529,2.635-4.1,4.602-3.478C56.243,60.213,57.425,62.407,56.913,64.495z"/>
			<path fill="#CC66FF" d="M49.731,63.092c0,0,0.37-1.546,0.925-3.864c0.346-1.153,0.813-2.496,1.318-3.928
				c0.655-1.407,1.233-2.939,2.156-4.376c1.668-2.925,4.072-5.576,6.27-7.156c0.564-0.376,1.081-0.722,1.539-1.028
				c0.48-0.277,0.917-0.493,1.27-0.681c0.353-0.187,0.634-0.328,0.839-0.402c0.2-0.082,0.307-0.125,0.307-0.125
				c1.384-0.619,2.907-0.527,3.96-0.049c1.074,0.503,1.743,1.428,1.706,2.447c-0.041,1.018-0.36,1.943-0.857,2.698
				c-0.498,0.786-1.142,1.329-1.967,1.708c0.005,0.014-0.266,0.067-0.691,0.318c-0.216,0.114-0.479,0.252-0.78,0.411
				c-0.287,0.193-0.611,0.411-0.964,0.649c-1.388,1.002-3.029,2.766-4.277,4.948c-0.687,1.036-1.137,2.276-1.657,3.358
				c-0.404,1.165-0.783,2.256-1.076,3.207c-0.471,1.968-0.786,3.279-0.786,3.279"/>
		</g>
	</g>
</g>
<g>
	<rect x="62.911" y="43.779" fill="#CC66FF" width="21.386" height="12.809"/>
	<circle fill="#CC66FF" cx="72.931" cy="45.4" r="8.516"/>
</g>
<rect x="69.472" y="34.764" transform="matrix(0.7072 0.707 -0.707 0.7072 48.4848 -40.4148)" fill="#FF8A33" width="7.124" height="7.126"/>
<g>
	<path d="M26.407,33.932c1.828,0,3.311,1.482,3.311,3.311l0,0c0,1.829-1.482,3.311-3.311,3.311H10.305
		c-1.828,0-3.311-1.482-3.311-3.311l0,0c0-1.828,1.482-3.311,3.311-3.311H26.407z"/>
	<circle cx="10.239" cy="38.627" r="4.695"/>
	<circle cx="28.385" cy="38.627" r="4.695"/>
</g>
<g>
	<rect x="0" y="56.588" fill="#B57666" width="133.354" height="5.227"/>
	<rect x="7.373" y="61.105" fill="#993333" width="119.408" height="13.922"/>
	<rect x="6.973" y="61.105" fill="#993333" width="4.438" height="21.602"/>
	<rect x="122.343" y="61.105" fill="#993333" width="4.438" height="21.602"/>
</g>
<g>
	<rect x="10.816" y="41.217" width="16.337" height="5.779"/>
	<rect x="10.816" y="38.328" width="3.007" height="5.779"/>
	<rect x="24.145" y="38.328" width="3.008" height="5.779"/>
	<path d="M6.066,56.891c0-7.24,5.87-13.111,13.112-13.111s13.112,5.871,13.112,13.111"/>
	<circle fill="#999999" cx="19.178" cy="49.557" r="5.449"/>
	<circle fill="#FFFFFF" cx="19.178" cy="49.557" r="2.866"/>
</g>
<g>
	<g>
		<rect x="80.859" y="53.916" fill="#FFFFFF" width="27.645" height="2.975"/>
		<path fill="#FFFFFF" d="M126.537,56.734H95.252c-0.558,0-0.913-0.451-0.791-1.01l4.318-19.875c0.121-0.557,0.672-1.01,1.23-1.01
			h31.286c0.557,0,0.911,0.453,0.79,1.01l-4.318,19.875C127.645,56.283,127.095,56.734,126.537,56.734z"/>
	</g>
</g>
</svg>
