<?xml version="1.0" encoding="utf-8"?>
<!-- Generator: Adobe Illustrator 17.0.0, SVG Export Plug-In . SVG Version: 6.00 Build 0)  -->
<!DOCTYPE svg PUBLIC "-//W3C//DTD SVG 1.1//EN" "http://www.w3.org/Graphics/SVG/1.1/DTD/svg11.dtd">
<svg version="1.1" id="Слой_1" xmlns="http://www.w3.org/2000/svg" xmlns:xlink="http://www.w3.org/1999/xlink" x="0px" y="0px"
	 width="101.222px" height="75.414px" viewBox="0 0 101.222 75.414" enable-background="new 0 0 101.222 75.414"
	 xml:space="preserve">
<line fill="none" stroke="#0C0000" stroke-width="11" stroke-linecap="round" stroke-miterlimit="10" x1="7.917" y1="40.089" x2="49.484" y2="39.61"/>
<ellipse fill="#993333" cx="5.216" cy="38.324" rx="5.216" ry="4.661"/>
<path fill="none" stroke="#0C0000" stroke-width="9" stroke-miterlimit="10" d="M51.207,75.041c0,0-0.047-4.835,0-6.35
	c0.134-4.329,7.775-4.329,7.775-4.329"/>
<path fill="none" stroke="#0C0000" stroke-width="9" stroke-miterlimit="10" d="M63.516,64.362c0,0,7.641,0,7.775,4.329
	c0.047,1.515,0,6.35,0,6.35"/>
<path fill="#993333" d="M44.315,75.414L44.315,75.414c0-2.332,1.889-4.221,4.22-4.221h4.962c2.331,0,4.219,1.889,4.219,4.219l0,0"/>
<path fill="#993333" d="M77.742,75.414L77.742,75.414c0-2.332-1.889-4.221-4.22-4.221H68.56c-2.331,0-4.219,1.889-4.219,4.219l0,0"
	/>
<polygon fill="#0C0000" points="76.423,44.917 66.91,44.917 66.91,35.403 "/>
<polygon fill="#0C0000" points="76.423,49.94 66.91,49.94 66.91,40.429 "/>
<polygon fill="#0C0000" points="76.423,54.966 66.91,54.966 66.91,45.454 "/>
<polygon fill="#0C0000" points="76.423,59.991 66.91,59.991 66.91,50.477 "/>
<polygon fill="#0C0000" points="76.423,64.358 66.91,64.358 66.91,54.847 "/>
<polygon fill="#0C0000" points="44.996,49.813 54.509,49.813 54.509,40.3 "/>
<polygon fill="#0C0000" points="44.996,54.837 54.509,54.837 54.509,45.325 "/>
<polygon fill="#0C0000" points="44.996,59.862 54.509,59.862 54.509,50.35 "/>
<polygon fill="#0C0000" points="44.996,64.888 54.509,64.888 54.509,55.374 "/>
<path fill="#993333" d="M52.262,61.421c0,4.682,3.794,8.477,8.476,8.477l0,0c4.68,0,8.475-3.795,8.476-8.475l-0.001-11.057
	c0-4.684-3.794-8.477-8.476-8.477l0,0c-4.681,0-8.476,3.795-8.476,8.477L52.262,61.421L52.262,61.421z"/>
<path fill="none" stroke="#0C0000" stroke-width="11" stroke-linecap="round" stroke-miterlimit="10" d="M95.722,64.339
	c0-14.99-12.149-27.139-27.137-27.139"/>
<circle fill="#993333" cx="94.957" cy="67.753" r="4.661"/>
<circle fill="#993333" cx="38.408" cy="27.495" r="7.842"/>
<circle fill="#0C0000" cx="38.408" cy="27.495" r="5.297"/>
<circle fill="#993333" cx="59.041" cy="27.667" r="17.373"/>
<path fill="#CC6633" d="M72.166,43.155c0,5.582-4.527,10.111-10.11,10.111H46.819c-5.583,0-10.111-4.529-10.111-10.111v-1.529
	c0-5.584,4.527-10.111,10.111-10.111h15.238c5.582,0,10.11,4.527,10.11,10.111L72.166,43.155L72.166,43.155z"/>
<g>
	<path d="M51.341,26.938c0,0.801-0.647,1.451-1.445,1.451c-0.804,0-1.452-0.65-1.452-1.451c0-0.795,0.648-1.445,1.452-1.445
		C50.694,25.493,51.341,26.143,51.341,26.938z"/>
	<path d="M60.431,26.938c0,0.801-0.648,1.451-1.448,1.451c-0.799,0-1.45-0.65-1.45-1.451c0-0.795,0.651-1.445,1.45-1.445
		C59.783,25.493,60.431,26.143,60.431,26.938z"/>
</g>
<rect x="48.424" y="20.79" fill="#0C0000" width="12.286" height="2.703"/>
<rect x="48.343" y="31.268" fill="#0C0000" width="4.654" height="2.553"/>
<rect x="55.777" y="31.268" fill="#0C0000" width="4.654" height="2.553"/>
<circle fill="#993333" cx="80.102" cy="27.495" r="7.842"/>
<circle fill="#0C0000" cx="80.102" cy="27.495" r="5.297"/>
<polygon fill="#0C0000" points="52.679,15.048 62.191,15.048 62.191,5.536 "/>
<rect x="5.635" y="26.435" fill="#FF3300" width="11.536" height="31.498"/>
<rect x="10.434" y="16.964" fill="#231F20" width="1.935" height="9.469"/>
</svg>
