<?xml version="1.0" encoding="utf-8"?>
<!-- Generator: Adobe Illustrator 17.0.0, SVG Export Plug-In . SVG Version: 6.00 Build 0)  -->
<!DOCTYPE svg PUBLIC "-//W3C//DTD SVG 1.1//EN" "http://www.w3.org/Graphics/SVG/1.1/DTD/svg11.dtd">
<svg version="1.1" id="Слой_1" xmlns="http://www.w3.org/2000/svg" xmlns:xlink="http://www.w3.org/1999/xlink" x="0px" y="0px"
	 width="1792.382px" height="205.062px" viewBox="0 0 1792.382 205.062" enable-background="new 0 0 1792.382 205.062"
	 xml:space="preserve">
<rect x="-46.919" y="7.843" fill="#996633" width="1860.837" height="183.983"/>
<rect x="-45.944" y="191.826" fill="#FFFFFF" width="1860.837" height="13.236"/>
<rect x="-47.504" y="0" fill="#CC9933" width="1896.321" height="11.199"/>
<g>
	<rect x="0" y="54.955" fill="#CC9933" width="68.27" height="42.219"/>
	<rect x="78.301" y="54.955" fill="#CC9933" width="68.27" height="42.219"/>
	<rect x="-78.299" y="54.955" fill="#CC9933" width="68.269" height="42.219"/>
	<rect x="156.601" y="54.955" fill="#CC9933" width="68.27" height="42.219"/>
	<rect x="391.501" y="54.955" fill="#CC9933" width="68.271" height="42.219"/>
	<rect x="234.901" y="54.955" fill="#CC9933" width="68.272" height="42.219"/>
	<rect x="313.202" y="54.955" fill="#CC9933" width="68.27" height="42.219"/>
	<rect x="548.104" y="54.955" fill="#CC9933" width="68.271" height="42.219"/>
	<rect x="469.803" y="54.955" fill="#CC9933" width="68.27" height="42.219"/>
	<rect x="704.706" y="54.955" fill="#CC9933" width="68.269" height="42.219"/>
	<rect x="626.405" y="54.955" fill="#CC9933" width="68.271" height="42.219"/>
	<rect x="783.006" y="54.955" fill="#CC9933" width="68.271" height="42.219"/>
	<rect x="861.306" y="54.955" fill="#CC9933" width="68.27" height="42.219"/>
	<rect x="939.607" y="54.955" fill="#CC9933" width="68.27" height="42.219"/>
	<rect x="1174.507" y="54.955" fill="#CC9933" width="68.272" height="42.219"/>
	<rect x="1017.907" y="54.955" fill="#CC9933" width="68.271" height="42.219"/>
	<rect x="1096.207" y="54.955" fill="#CC9933" width="68.27" height="42.219"/>
	<rect x="1331.11" y="54.955" fill="#CC9933" width="68.27" height="42.219"/>
	<rect x="1252.809" y="54.955" fill="#CC9933" width="68.27" height="42.219"/>
	<rect x="43.804" y="106.769" fill="#CC9933" width="68.27" height="42.217"/>
	<rect x="122.105" y="106.769" fill="#CC9933" width="68.271" height="42.217"/>
	<rect x="-34.497" y="106.769" fill="#CC9933" width="68.271" height="42.217"/>
	<rect x="200.405" y="106.769" fill="#CC9933" width="68.27" height="42.217"/>
	<rect x="435.307" y="106.769" fill="#CC9933" width="68.27" height="42.217"/>
	<rect x="278.706" y="106.769" fill="#CC9933" width="68.271" height="42.217"/>
	<rect x="357.006" y="106.769" fill="#CC9933" width="68.27" height="42.217"/>
	<rect x="591.908" y="106.769" fill="#CC9933" width="68.271" height="42.217"/>
	<rect x="513.608" y="106.769" fill="#CC9933" width="68.27" height="42.217"/>
	<rect x="748.509" y="106.769" fill="#CC9933" width="68.271" height="42.217"/>
	<rect x="670.208" y="106.769" fill="#CC9933" width="68.271" height="42.217"/>
	<rect x="826.811" y="106.769" fill="#CC9933" width="68.27" height="42.217"/>
	<rect x="905.11" y="106.769" fill="#CC9933" width="68.271" height="42.217"/>
	<rect x="983.411" y="106.769" fill="#CC9933" width="68.271" height="42.217"/>
	<rect x="1218.312" y="106.769" fill="#CC9933" width="68.271" height="42.217"/>
	<rect x="1061.712" y="106.769" fill="#CC9933" width="68.27" height="42.217"/>
	<rect x="1140.012" y="106.769" fill="#CC9933" width="68.271" height="42.217"/>
	<rect x="1296.613" y="106.769" fill="#CC9933" width="68.271" height="42.217"/>
	<rect x="1411.368" y="54.955" fill="#CC9933" width="68.27" height="42.219"/>
	<rect x="1489.667" y="54.955" fill="#CC9933" width="68.27" height="42.219"/>
	<rect x="1724.568" y="54.955" fill="#CC9933" width="68.271" height="42.219"/>
	<rect x="1567.968" y="54.955" fill="#CC9933" width="68.27" height="42.219"/>
	<rect x="1646.268" y="54.955" fill="#CC9933" width="68.271" height="42.219"/>
	<rect x="1881.171" y="54.955" fill="#CC9933" width="68.27" height="42.219"/>
	<rect x="1802.87" y="54.955" fill="#CC9933" width="68.271" height="42.219"/>
	<rect x="1376.872" y="106.769" fill="#CC9933" width="68.27" height="42.217"/>
	<rect x="1455.171" y="106.769" fill="#CC9933" width="68.271" height="42.217"/>
	<rect x="1533.472" y="106.769" fill="#CC9933" width="68.269" height="42.217"/>
	<rect x="1768.374" y="106.769" fill="#CC9933" width="68.271" height="42.217"/>
	<rect x="1611.773" y="106.769" fill="#CC9933" width="68.271" height="42.217"/>
	<rect x="1690.073" y="106.769" fill="#CC9933" width="68.271" height="42.217"/>
	<rect x="1846.675" y="106.769" fill="#CC9933" width="68.27" height="42.217"/>
</g>
</svg>
