<?xml version="1.0" encoding="utf-8"?>
<!-- Generator: Adobe Illustrator 17.0.0, SVG Export Plug-In . SVG Version: 6.00 Build 0)  -->
<!DOCTYPE svg PUBLIC "-//W3C//DTD SVG 1.1//EN" "http://www.w3.org/Graphics/SVG/1.1/DTD/svg11.dtd">
<svg version="1.1" id="Слой_1" xmlns="http://www.w3.org/2000/svg" xmlns:xlink="http://www.w3.org/1999/xlink" x="0px" y="0px"
	 width="23.694px" height="49.533px" viewBox="0 0 23.694 49.533" enable-background="new 0 0 23.694 49.533" xml:space="preserve">
<g>
	<rect x="8.603" y="37.38" fill="#FFDB00" width="2.072" height="12.153"/>
	<rect x="13.032" y="37.38" fill="#FFDB00" width="2.075" height="12.153"/>
	<path d="M16.276,24.218c0,2.596-2.106,4.699-4.7,4.699l0,0c-2.595,0-4.7-2.104-4.7-4.699V4.698C6.876,2.102,8.981,0,11.576,0l0,0
		c2.594,0,4.7,2.102,4.7,4.698V24.218z"/>
	<path fill="#FFDB00" d="M8.274,4.778c0,0.767-0.618,1.387-1.382,1.387c-0.765,0-2.82-1.387-2.82-1.387s2.055-1.384,2.82-1.384
		C7.656,3.395,8.274,4.012,8.274,4.778z"/>
	<path d="M23.694,33.446c0,6.541-5.304,11.844-11.846,11.844C5.306,45.29,0,39.987,0,33.446c0-6.545,5.306-11.849,11.847-11.849
		C18.39,21.598,23.694,26.901,23.694,33.446z"/>
</g>
</svg>
