<?xml version="1.0" encoding="utf-8"?>
<!-- Generator: Adobe Illustrator 17.0.0, SVG Export Plug-In . SVG Version: 6.00 Build 0)  -->
<!DOCTYPE svg PUBLIC "-//W3C//DTD SVG 1.1//EN" "http://www.w3.org/Graphics/SVG/1.1/DTD/svg11.dtd">
<svg version="1.1" id="Слой_1" xmlns="http://www.w3.org/2000/svg" xmlns:xlink="http://www.w3.org/1999/xlink" x="0px" y="0px"
	 width="316.343px" height="343.746px" viewBox="0 0 316.343 343.746" enable-background="new 0 0 316.343 343.746"
	 xml:space="preserve">
<g>
	<g>
		<polygon fill="#339900" points="229.059,58.473 229.059,29.004 258.002,0.062 287.753,0.062 		"/>
		<polygon fill="#33BA00" points="257.896,5.984 259.618,4.262 283.554,4.262 281.823,5.986 		"/>
		<polygon fill="#33BA00" points="251.766,12.115 253.489,10.393 277.424,10.393 275.694,12.115 		"/>
		<polygon fill="#33BA00" points="245.637,18.244 247.359,16.521 271.294,16.521 269.564,18.246 		"/>
		<polygon fill="#33BA00" points="239.507,24.373 241.23,22.65 265.164,22.65 263.435,24.375 		"/>
		<polygon fill="#33BA00" points="233.377,30.504 235.1,28.781 259.035,28.779 257.305,30.504 		"/>
		<polygon fill="#33BA00" points="231.646,36.84 233.369,35.117 252.906,34.91 251.175,36.633 		"/>
		<polygon fill="#33BA00" points="232.063,42.996 233.786,41.273 246.776,41.039 245.046,42.764 		"/>
		<polygon fill="#33BA00" points="231.57,48.807 233.292,47.084 240.646,47.17 238.917,48.893 		"/>
		<path fill="#339900" d="M258.297,0c-16.164,0-29.266,13.104-29.266,29.266"/>
	</g>
	<g>
		<polygon fill="#33BA00" points="291.517,118.176 291.517,88.707 262.574,59.764 232.823,59.764 		"/>
		<polygon fill="#339900" points="262.68,65.688 260.958,63.965 237.023,63.965 238.753,65.689 		"/>
		<polygon fill="#339900" points="268.81,71.816 267.087,70.094 243.153,70.094 244.882,71.818 		"/>
		<polygon fill="#339900" points="274.94,77.947 273.217,76.225 249.282,76.223 251.012,77.947 		"/>
		<polygon fill="#339900" points="281.069,84.076 279.347,82.354 255.411,82.354 257.141,84.076 		"/>
		<polygon fill="#339900" points="287.199,90.207 285.477,88.484 261.54,88.482 263.271,90.207 		"/>
		<polygon fill="#339900" points="288.93,96.543 287.207,94.822 267.671,94.611 269.4,96.336 		"/>
		<polygon fill="#339900" points="288.513,102.697 286.79,100.975 273.8,100.742 275.53,102.467 		"/>
		<polygon fill="#339900" points="289.007,108.51 287.284,106.787 279.93,106.871 281.66,108.596 		"/>
		<path fill="#33BA00" d="M262.279,59.703c16.164,0,29.266,13.104,29.266,29.266"/>
	</g>
	<g>
		<polygon fill="#339900" points="178.649,117.219 178.65,87.75 207.592,58.807 237.343,58.809 		"/>
		<polygon fill="#33BA00" points="207.486,64.73 209.208,63.008 233.143,63.008 231.414,64.73 		"/>
		<polygon fill="#33BA00" points="201.356,70.861 203.079,69.137 227.014,69.137 225.284,70.861 		"/>
		<polygon fill="#33BA00" points="195.227,76.99 196.95,75.266 220.884,75.266 219.155,76.99 		"/>
		<polygon fill="#33BA00" points="189.097,83.119 190.82,81.396 214.755,81.396 213.025,83.119 		"/>
		<polygon fill="#33BA00" points="182.968,89.248 184.69,87.525 208.626,87.525 206.895,89.25 		"/>
		<polygon fill="#33BA00" points="181.236,95.586 182.96,93.863 202.496,93.656 200.766,95.379 		"/>
		<polygon fill="#33BA00" points="181.653,101.742 183.376,100.018 196.366,99.785 194.636,101.51 		"/>
		<polygon fill="#33BA00" points="181.16,107.553 182.883,105.83 190.237,105.914 188.507,107.639 		"/>
		<path fill="#339900" d="M207.887,58.746c-16.163-0.002-29.266,13.104-29.266,29.266"/>
	</g>
	<g>
		<rect x="227.55" y="224.961" fill="#AE4833" width="15.481" height="4.602"/>
		<rect x="227.55" y="220.361" fill="#CC6633" width="15.481" height="4.6"/>
	</g>
	<g>
		<rect x="227.55" y="215.781" fill="#AE4833" width="15.481" height="4.6"/>
		<rect x="227.55" y="211.182" fill="#CC6633" width="15.481" height="4.6"/>
	</g>
	<g>
		<rect x="227.55" y="206.602" fill="#AE4833" width="15.481" height="4.6"/>
		<rect x="227.55" y="202.002" fill="#CC6633" width="15.481" height="4.6"/>
	</g>
	<g>
		<rect x="227.55" y="197.422" fill="#AE4833" width="15.481" height="4.6"/>
		<rect x="227.55" y="192.822" fill="#CC6633" width="15.481" height="4.6"/>
	</g>
	<g>
		<rect x="227.55" y="261.582" fill="#AE4833" width="15.481" height="4.602"/>
		<rect x="227.55" y="256.982" fill="#CC6633" width="15.481" height="4.6"/>
	</g>
	<g>
		<rect x="227.55" y="252.404" fill="#AE4833" width="15.481" height="4.6"/>
		<rect x="227.55" y="247.803" fill="#CC6633" width="15.481" height="4.602"/>
	</g>
	<g>
		<rect x="227.55" y="243.223" fill="#AE4833" width="15.481" height="4.6"/>
		<rect x="227.55" y="238.623" fill="#CC6633" width="15.481" height="4.6"/>
	</g>
	<g>
		<rect x="227.55" y="234.043" fill="#AE4833" width="15.481" height="4.6"/>
		<rect x="227.55" y="229.443" fill="#CC6633" width="15.481" height="4.6"/>
	</g>
	<g>
		<rect x="227.55" y="188.242" fill="#AE4833" width="15.481" height="4.602"/>
		<rect x="227.55" y="183.643" fill="#CC6633" width="15.481" height="4.6"/>
	</g>
	<g>
		<rect x="227.55" y="179.062" fill="#AE4833" width="15.481" height="4.6"/>
		<rect x="227.55" y="174.463" fill="#CC6633" width="15.481" height="4.6"/>
	</g>
	<g>
		<rect x="227.55" y="169.883" fill="#AE4833" width="15.481" height="4.6"/>
		<rect x="227.55" y="165.281" fill="#CC6633" width="15.481" height="4.602"/>
	</g>
	<g>
		<rect x="227.55" y="160.703" fill="#AE4833" width="15.481" height="4.6"/>
		<rect x="227.55" y="156.104" fill="#CC6633" width="15.481" height="4.6"/>
	</g>
	<g>
		<rect x="227.55" y="151.522" fill="#AE4833" width="15.481" height="4.602"/>
		<rect x="227.55" y="146.922" fill="#CC6633" width="15.481" height="4.6"/>
	</g>
	<g>
		<rect x="227.55" y="142.344" fill="#AE4833" width="15.481" height="4.6"/>
		<rect x="227.55" y="137.742" fill="#CC6633" width="15.481" height="4.602"/>
	</g>
	<g>
		<rect x="227.55" y="133.164" fill="#AE4833" width="15.481" height="4.6"/>
		<rect x="227.55" y="128.562" fill="#CC6633" width="15.481" height="4.602"/>
	</g>
	<g>
		<rect x="227.55" y="123.984" fill="#AE4833" width="15.481" height="4.6"/>
		<rect x="227.55" y="119.383" fill="#CC6633" width="15.481" height="4.602"/>
	</g>
	<g>
		<rect x="227.55" y="114.803" fill="#AE4833" width="15.481" height="4.602"/>
		<rect x="227.55" y="110.203" fill="#CC6633" width="15.481" height="4.6"/>
	</g>
	<g>
		<rect x="227.55" y="105.625" fill="#AE4833" width="15.481" height="4.598"/>
		<rect x="227.55" y="101.023" fill="#CC6633" width="15.481" height="4.602"/>
	</g>
	<g>
		<rect x="227.55" y="96.445" fill="#AE4833" width="15.481" height="4.6"/>
		<rect x="227.55" y="91.844" fill="#CC6633" width="15.481" height="4.602"/>
	</g>
	<g>
		<rect x="227.55" y="87.264" fill="#AE4833" width="15.481" height="4.602"/>
		<rect x="227.55" y="82.664" fill="#CC6633" width="15.481" height="4.6"/>
	</g>
	<g>
		<rect x="227.55" y="78.084" fill="#AE4833" width="15.481" height="4.602"/>
		<rect x="227.55" y="73.484" fill="#CC6633" width="15.481" height="4.6"/>
	</g>
	<g>
		<rect x="227.55" y="68.904" fill="#AE4833" width="15.481" height="4.6"/>
		<rect x="227.55" y="64.303" fill="#CC6633" width="15.481" height="4.602"/>
	</g>
	<g>
		<rect x="227.55" y="59.727" fill="#AE4833" width="15.481" height="4.6"/>
		<rect x="227.55" y="55.125" fill="#CC6633" width="15.481" height="4.602"/>
	</g>
	<path fill="#CC9966" d="M235.291,63.246c0,4.758-3.857,8.617-8.614,8.617c-4.758,0-8.615-3.859-8.615-8.617
		c0-4.756,3.857-8.613,8.615-8.613C231.434,54.633,235.291,58.49,235.291,63.246z"/>
	<path fill="#CC9966" d="M254.674,63.246c0,4.758-3.857,8.617-8.615,8.617c-4.757,0-8.614-3.859-8.614-8.617
		c0-4.756,3.857-8.613,8.614-8.613C250.817,54.633,254.674,58.49,254.674,63.246z"/>
	<circle fill="#CC9966" cx="236.458" cy="80.385" r="8.614"/>
	<g>
		<polygon fill="#33BA00" points="239.482,54.195 218.644,33.357 177.713,33.357 156.676,54.395 		"/>
		<polygon fill="#339900" points="181.977,37.471 179.54,37.471 162.616,54.395 165.058,54.391 		"/>
		<polygon fill="#339900" points="190.645,37.471 188.209,37.471 171.284,54.395 173.726,54.391 		"/>
		<polygon fill="#339900" points="199.314,37.471 196.877,37.471 179.953,54.395 182.395,54.391 		"/>
		<polygon fill="#339900" points="207.982,37.471 205.546,37.471 188.621,54.395 191.063,54.391 		"/>
		<polygon fill="#339900" points="216.65,37.471 214.215,37.471 197.289,54.395 199.732,54.391 		"/>
		<polygon fill="#339900" points="222.355,40.729 219.92,40.729 205.958,54.395 208.4,54.391 		"/>
		<polygon fill="#339900" points="226.413,45.375 223.977,45.375 214.626,54.395 217.069,54.391 		"/>
		<polygon fill="#339900" points="230.872,49.135 228.436,49.135 223.295,54.395 225.737,54.391 		"/>
		<path fill="#33BA00" d="M177.461,33.523c11.429-11.43,29.959-11.428,41.388,0"/>
	</g>
	<g>
		<polygon fill="#339900" points="233.537,54.195 254.375,33.357 295.306,33.357 316.343,54.395 		"/>
		<polygon fill="#33BA00" points="291.043,37.471 293.478,37.471 310.404,54.395 307.961,54.391 		"/>
		<polygon fill="#33BA00" points="282.374,37.471 284.81,37.471 301.735,54.395 299.293,54.391 		"/>
		<polygon fill="#33BA00" points="273.706,37.471 276.142,37.471 293.066,54.395 290.625,54.391 		"/>
		<polygon fill="#33BA00" points="265.037,37.471 267.473,37.471 284.398,54.395 281.956,54.391 		"/>
		<polygon fill="#33BA00" points="256.369,37.471 258.805,37.471 275.73,54.395 273.287,54.391 		"/>
		<polygon fill="#33BA00" points="250.664,40.729 253.1,40.729 267.061,54.395 264.619,54.391 		"/>
		<polygon fill="#33BA00" points="246.606,45.375 249.042,45.375 258.393,54.395 255.95,54.391 		"/>
		<polygon fill="#33BA00" points="242.147,49.135 244.583,49.135 249.724,54.395 247.282,54.391 		"/>
		<path fill="#339900" d="M295.558,33.523c-11.428-11.43-29.96-11.428-41.387,0"/>
	</g>
</g>
</svg>
