<?xml version="1.0" encoding="utf-8"?>
<!-- Generator: Adobe Illustrator 17.0.0, SVG Export Plug-In . SVG Version: 6.00 Build 0)  -->
<!DOCTYPE svg PUBLIC "-//W3C//DTD SVG 1.1//EN" "http://www.w3.org/Graphics/SVG/1.1/DTD/svg11.dtd">
<svg version="1.1" id="Слой_1" xmlns="http://www.w3.org/2000/svg" xmlns:xlink="http://www.w3.org/1999/xlink" x="0px" y="0px"
	 width="1840.761px" height="286.721px" viewBox="-48.285 0 1840.761 286.721" enable-background="new -48.285 0 1840.761 286.721"
	 xml:space="preserve">
<rect x="-48.285" y="7.843" fill="#996633" width="1840.761" height="261.188"/>
<rect x="-48.285" y="0" fill="#CC9933" width="1840.761" height="11.199"/>
<rect x="-48.285" y="0" fill="#CC9933" width="1840.761" height="11.199"/>
<g>
	<rect x="-48.285" y="54.955" fill="#B68233" width="1840.719" height="42.219"/>
	<rect x="52.985" y="54.955" fill="#B68233" width="61.29" height="42.219"/>
	<rect x="123.28" y="54.955" fill="#B68233" width="61.29" height="42.219"/>
	<rect x="334.164" y="54.955" fill="#B68233" width="61.292" height="42.219"/>
	<rect x="193.575" y="54.955" fill="#B68233" width="61.292" height="42.219"/>
	<rect x="263.87" y="54.955" fill="#B68233" width="61.29" height="42.219"/>
	<rect x="474.756" y="54.955" fill="#B68233" width="61.291" height="42.219"/>
	<rect x="404.461" y="54.955" fill="#B68233" width="61.29" height="42.219"/>
	<rect x="615.347" y="54.955" fill="#B68233" width="61.289" height="42.219"/>
	<rect x="545.052" y="54.955" fill="#B68233" width="61.291" height="42.219"/>
	<rect x="685.642" y="54.955" fill="#B68233" width="61.291" height="42.219"/>
	<rect x="755.936" y="54.955" fill="#B68233" width="61.29" height="42.219"/>
	<rect x="826.232" y="54.955" fill="#B68233" width="61.29" height="42.219"/>
	<rect x="1037.117" y="54.955" fill="#B68233" width="61.292" height="42.219"/>
	<rect x="896.527" y="54.955" fill="#B68233" width="61.291" height="42.219"/>
	<rect x="966.821" y="54.955" fill="#B68233" width="61.291" height="42.219"/>
	<rect x="1177.708" y="54.955" fill="#B68233" width="61.29" height="42.219"/>
	<rect x="1107.412" y="54.955" fill="#B68233" width="61.29" height="42.219"/>
	<rect x="22.015" y="106.768" fill="#B68233" width="61.29" height="42.217"/>
	<rect x="92.311" y="106.768" fill="#B68233" width="61.291" height="42.217"/>
	<rect x="-48.285" y="106.768" fill="#B68233" width="1840.761" height="42.217"/>
	<rect x="162.606" y="106.768" fill="#B68233" width="61.29" height="42.217"/>
	<rect x="373.491" y="106.768" fill="#B68233" width="61.29" height="42.217"/>
	<rect x="232.901" y="106.768" fill="#B68233" width="61.292" height="42.217"/>
	<rect x="303.196" y="106.768" fill="#B68233" width="61.29" height="42.217"/>
	<rect x="514.081" y="106.768" fill="#B68233" width="61.291" height="42.217"/>
	<rect x="443.787" y="106.768" fill="#B68233" width="61.29" height="42.217"/>
	<rect x="654.672" y="106.768" fill="#B68233" width="61.291" height="42.217"/>
	<rect x="584.376" y="106.768" fill="#B68233" width="61.291" height="42.217"/>
	<rect x="724.969" y="106.768" fill="#B68233" width="61.29" height="42.217"/>
	<rect x="795.262" y="106.768" fill="#B68233" width="61.291" height="42.217"/>
	<rect x="865.558" y="106.768" fill="#B68233" width="61.291" height="42.217"/>
	<rect x="1076.443" y="106.768" fill="#B68233" width="61.291" height="42.217"/>
	<rect x="935.853" y="106.768" fill="#B68233" width="61.29" height="42.217"/>
	<rect x="1006.148" y="106.768" fill="#B68233" width="61.291" height="42.217"/>
	<rect x="1146.738" y="106.768" fill="#B68233" width="61.29" height="42.217"/>
	<rect x="1249.76" y="54.955" fill="#B68233" width="61.29" height="42.219"/>
	<rect x="1320.055" y="54.955" fill="#B68233" width="61.29" height="42.219"/>
	<rect x="1530.94" y="54.955" fill="#B68233" width="61.292" height="42.219"/>
	<rect x="1390.351" y="54.955" fill="#B68233" width="61.29" height="42.219"/>
	<rect x="1460.645" y="54.955" fill="#B68233" width="61.291" height="42.219"/>
	<rect x="1671.532" y="54.955" fill="#B68233" width="61.29" height="42.219"/>
	<rect x="1601.236" y="54.955" fill="#B68233" width="61.291" height="42.219"/>
	<rect x="1218.792" y="106.768" fill="#B68233" width="61.29" height="42.217"/>
	<rect x="1289.086" y="106.768" fill="#B68233" width="61.291" height="42.217"/>
	<rect x="1359.381" y="106.768" fill="#B68233" width="61.289" height="42.217"/>
	<rect x="1570.267" y="106.768" fill="#B68233" width="61.291" height="42.217"/>
	<rect x="1429.677" y="106.768" fill="#B68233" width="61.291" height="42.217"/>
	<rect x="1499.971" y="106.768" fill="#B68233" width="61.291" height="42.217"/>
	<rect x="1640.563" y="106.768" fill="#B68233" width="61.29" height="42.217"/>
</g>
<g>
	<rect x="-48.285" y="158.246" fill="#B68233" width="1840.761" height="42.219"/>
	<rect x="52.988" y="158.246" fill="#B68233" width="61.292" height="42.219"/>
	<rect x="123.283" y="158.246" fill="#B68233" width="61.292" height="42.219"/>
	<rect x="334.173" y="158.246" fill="#B68233" width="61.293" height="42.219"/>
	<rect x="193.58" y="158.246" fill="#B68233" width="61.294" height="42.219"/>
	<rect x="263.877" y="158.246" fill="#B68233" width="61.292" height="42.219"/>
	<rect x="474.768" y="158.246" fill="#B68233" width="61.292" height="42.219"/>
	<rect x="404.471" y="158.246" fill="#B68233" width="61.292" height="42.219"/>
	<rect x="615.362" y="158.246" fill="#B68233" width="61.29" height="42.219"/>
	<rect x="545.065" y="158.246" fill="#B68233" width="61.292" height="42.219"/>
	<rect x="685.659" y="158.246" fill="#B68233" width="61.292" height="42.219"/>
	<rect x="755.955" y="158.246" fill="#B68233" width="61.292" height="42.219"/>
	<rect x="826.252" y="158.246" fill="#B68233" width="61.291" height="42.219"/>
	<rect x="1037.142" y="158.246" fill="#B68233" width="61.293" height="42.219"/>
	<rect x="896.548" y="158.246" fill="#B68233" width="61.292" height="42.219"/>
	<rect x="966.845" y="158.246" fill="#B68233" width="61.292" height="42.219"/>
	<rect x="1177.736" y="158.246" fill="#B68233" width="61.291" height="42.219"/>
	<rect x="1107.439" y="158.246" fill="#B68233" width="61.292" height="42.219"/>
	<rect x="1249.79" y="158.246" fill="#B68233" width="61.292" height="42.219"/>
	<rect x="1320.087" y="158.246" fill="#B68233" width="61.292" height="42.219"/>
	<rect x="1530.976" y="158.246" fill="#B68233" width="61.293" height="42.219"/>
	<rect x="1390.384" y="158.246" fill="#B68233" width="61.292" height="42.219"/>
	<rect x="1460.68" y="158.246" fill="#B68233" width="61.292" height="42.219"/>
	<rect x="1671.571" y="158.246" fill="#B68233" width="61.292" height="42.219"/>
	<rect x="1601.274" y="158.246" fill="#B68233" width="61.292" height="42.219"/>
</g>
<g>
	<rect x="-48.285" y="244.502" fill="#7E4633" width="1840.761" height="42.219"/>
	<rect x="52.988" y="244.502" fill="#7E4633" width="61.292" height="42.219"/>
	<rect x="123.283" y="244.502" fill="#7E4633" width="61.292" height="42.219"/>
	<rect x="334.173" y="244.502" fill="#7E4633" width="61.293" height="42.219"/>
	<rect x="193.58" y="244.502" fill="#7E4633" width="61.294" height="42.219"/>
	<rect x="263.878" y="244.502" fill="#7E4633" width="61.292" height="42.219"/>
	<rect x="474.768" y="244.502" fill="#7E4633" width="61.292" height="42.219"/>
	<rect x="404.471" y="244.502" fill="#7E4633" width="61.292" height="42.219"/>
	<rect x="615.362" y="244.502" fill="#7E4633" width="61.29" height="42.219"/>
	<rect x="545.065" y="244.502" fill="#7E4633" width="61.292" height="42.219"/>
	<rect x="685.659" y="244.502" fill="#7E4633" width="61.292" height="42.219"/>
	<rect x="755.955" y="244.502" fill="#7E4633" width="61.292" height="42.219"/>
	<rect x="826.252" y="244.502" fill="#7E4633" width="61.291" height="42.219"/>
	<rect x="1037.142" y="244.502" fill="#7E4633" width="61.293" height="42.219"/>
	<rect x="896.548" y="244.502" fill="#7E4633" width="61.292" height="42.219"/>
	<rect x="966.845" y="244.502" fill="#7E4633" width="61.292" height="42.219"/>
	<rect x="1177.736" y="244.502" fill="#7E4633" width="61.291" height="42.219"/>
	<rect x="1107.439" y="244.502" fill="#7E4633" width="61.292" height="42.219"/>
	<rect x="1249.79" y="244.502" fill="#7E4633" width="61.292" height="42.219"/>
	<rect x="1320.087" y="244.502" fill="#7E4633" width="61.292" height="42.219"/>
	<rect x="1530.976" y="244.502" fill="#7E4633" width="61.293" height="42.219"/>
	<rect x="1390.384" y="244.502" fill="#7E4633" width="61.292" height="42.219"/>
	<rect x="1460.68" y="244.502" fill="#7E4633" width="61.292" height="42.219"/>
	<rect x="1671.571" y="244.502" fill="#7E4633" width="61.292" height="42.219"/>
	<rect x="1601.274" y="244.502" fill="#7E4633" width="61.292" height="42.219"/>
</g>
</svg>
