<?xml version="1.0" encoding="utf-8"?>
<!-- Generator: Adobe Illustrator 17.0.0, SVG Export Plug-In . SVG Version: 6.00 Build 0)  -->
<!DOCTYPE svg PUBLIC "-//W3C//DTD SVG 1.1//EN" "http://www.w3.org/Graphics/SVG/1.1/DTD/svg11.dtd">
<svg version="1.1" id="Слой_1" xmlns="http://www.w3.org/2000/svg" xmlns:xlink="http://www.w3.org/1999/xlink" x="0px" y="0px"
	 width="59.053px" height="34.733px" viewBox="0 0 59.053 34.733" enable-background="new 0 0 59.053 34.733" xml:space="preserve">
<g>
	<defs>
		<rect id="SVGID_1_" x="0" y="0" width="59.053" height="34.733"/>
	</defs>
	<clipPath id="SVGID_2_">
		<use xlink:href="#SVGID_1_"  overflow="visible"/>
	</clipPath>
	<g clip-path="url(#SVGID_2_)">
		
			<rect x="30.022" y="-7.051" transform="matrix(0.707 -0.7072 0.7072 0.707 6.894 26.0502)" fill="#814B39" width="9.73" height="23.511"/>
		<path d="M46.715,9.501l-7.005,7.006l2.363,2.361l8.729-8.729C49.184,9.06,46.715,9.501,46.715,9.501z"/>
	</g>
	<g clip-path="url(#SVGID_2_)">
		
			<rect x="13.947" y="-7.033" transform="matrix(0.707 0.7072 -0.7072 0.707 8.8509 -11.9206)" fill="#814B39" width="9.731" height="23.509"/>
		<path d="M14.019,16.552L7.013,9.548L4.65,11.909l8.728,8.73C14.458,19.02,14.019,16.552,14.019,16.552z"/>
	</g>
	<g clip-path="url(#SVGID_2_)">
		<path fill="#6B469C" d="M10.581-11.659c0-7.669,7.298-14.612,16.303-14.612c9.002,0,16.302,6.943,16.302,14.612"/>
		<path fill="#814B39" d="M43.185-10.833c0,7.666-7.3,13.883-16.302,13.883c-9.003,0-16.303-6.217-16.303-13.883"/>
		<rect x="22.458" y="-27.141" fill="#FFFFFF" width="8.849" height="19.556"/>
		<g>
			<path fill="#6B469C" d="M31.307-7.585C31.438,0.939,43.185-0.53,43.185-0.53v-11.505c0,0-8.717-11.54-11.878-11.54
				C31.307,1.598,31.307-22.23,31.307-7.585z"/>
		</g>
		<g>
			<path fill="#6B469C" d="M22.458-7.585C22.327,0.939,10.581-0.53,10.581-0.53v-11.505c0,0,8.718-11.54,11.877-11.54
				C22.458,1.598,22.458-22.23,22.458-7.585z"/>
		</g>
	</g>
	<g clip-path="url(#SVGID_2_)">
		<path fill="#F9A04C" d="M30.278-25.958l-3.299,4.249l-3.303-4.249v-5.806c0-1.641,1.479-2.973,3.303-2.973l0,0
			c1.821,0,3.299,1.332,3.299,2.973V-25.958z"/>
		<g>
			<path fill="#F9A04C" d="M46.533-44.916c0,10.609-8.601,19.21-19.211,19.21c-10.613,0-19.216-8.601-19.216-19.21
				c0-10.613,8.603-19.218,19.216-19.218C37.932-64.134,46.533-55.529,46.533-44.916z"/>
			<path fill="#4C2A2C" d="M27.495-61.319l13.194,0.92c-3.621-3.53-8.554-5.712-14.01-5.712c-11.103,0-20.104,9.002-20.104,20.105
				c0,3.688,0.246,2.305,3.227,6.063l1.461-0.521c1.812,0.39,4.921,0.488,4.897-1.565c-0.138-12.36,2.45-18.395,10.29-19.29H27.495z
				"/>
			<path fill="#4C2A2C" d="M27.987-45.066c0,0.516-0.42,0.935-0.933,0.935c-0.519,0-0.938-0.419-0.938-0.935
				c0-0.516,0.418-0.934,0.938-0.934C27.567-46,27.987-45.582,27.987-45.066z"/>
			<circle fill="#4C2A2C" cx="42.225" cy="-45.066" r="0.935"/>
			<path fill="#F9A04C" d="M18.25-42.108c0,2.439-1.976,4.417-4.42,4.417H8.165c-2.44,0-4.417-1.978-4.417-4.417l0,0
				c0-2.44,1.977-4.417,4.417-4.417h5.666C16.274-46.525,18.25-44.549,18.25-42.108L18.25-42.108z"/>
			<path fill="#4C2A2C" d="M40.549-60.44c3.802,4.319-0.286,7.093-4.862,6.512c-3.536-0.448-8.246-2.086-12.109-6.263
				C19.717-64.364,40.549-60.44,40.549-60.44z"/>
			<path fill="#4C2A2C" d="M16.266-42.838c0,1.097-0.889,1.983-1.982,1.983l0,0c-1.096,0-1.982-0.887-1.982-1.983v-5.166
				c0-1.094,0.887-1.982,1.982-1.982l0,0c1.093,0,1.982,0.888,1.982,1.982V-42.838z"/>
			<path fill="#4C2A2C" d="M48.946-62.325L48.946-62.325c0,4.585-3.717,8.296-8.299,8.296h-2.372c-4.582,0-8.299-3.711-8.299-8.296
				l0,0"/>
			<path fill="#F9A04C" d="M43.667-64.199"/>
		</g>
	</g>
</g>
</svg>
