<?xml version="1.0" encoding="utf-8"?>
<!-- Generator: Adobe Illustrator 17.0.0, SVG Export Plug-In . SVG Version: 6.00 Build 0)  -->
<!DOCTYPE svg PUBLIC "-//W3C//DTD SVG 1.1//EN" "http://www.w3.org/Graphics/SVG/1.1/DTD/svg11.dtd">
<svg version="1.1" id="Слой_1" xmlns="http://www.w3.org/2000/svg" xmlns:xlink="http://www.w3.org/1999/xlink" x="0px" y="0px"
	 width="68.479px" height="89.857px" viewBox="0 0 68.479 89.857" enable-background="new 0 0 68.479 89.857" xml:space="preserve">
<g>
	<g>
		<g>
			<rect x="34.445" y="63.004" fill="#813333" width="9.728" height="23.512"/>
			<path d="M44.283,86.516h-9.906v3.342h12.344C46.34,87.947,44.283,86.516,44.283,86.516z"/>
		</g>
		<g>
			<rect x="23.088" y="63.004" fill="#813333" width="9.73" height="23.512"/>
			<path d="M32.927,86.516h-9.906v3.342h12.344C34.982,87.947,32.927,86.516,32.927,86.516z"/>
		</g>
		<g>
			<path fill="#663399" d="M17.726,54.449c0-7.668,7.297-14.609,16.302-14.609c9.002,0,16.302,6.941,16.302,14.609"/>
			<path fill="#813333" d="M50.33,55.275c0,7.668-7.3,13.885-16.302,13.885c-9.003,0-16.302-6.217-16.302-13.885"/>
			<rect x="29.602" y="38.969" fill="#FFFFFF" width="8.849" height="19.557"/>
			<g>
				<path fill="#663399" d="M38.451,58.525c0.132,8.525,11.879,7.055,11.879,7.055V54.076c0,0-8.718-11.543-11.879-11.543
					C38.451,67.705,38.451,43.879,38.451,58.525z"/>
			</g>
			<g>
				<path fill="#663399" d="M29.602,58.525c-0.13,8.525-11.877,7.055-11.877,7.055V54.076c0,0,8.716-11.543,11.877-11.543
					C29.602,67.705,29.602,43.879,29.602,58.525z"/>
			</g>
		</g>
		<g>
			<path fill="#FF8A33" d="M37.422,40.15l-3.299,4.252l-3.301-4.252v-5.805c0-1.641,1.478-2.973,3.301-2.973l0,0
				c1.822,0,3.299,1.332,3.299,2.973V40.15z"/>
			<g>
				<circle fill="#FF8A33" cx="34.464" cy="21.191" r="19.214"/>
				<path fill="#4D3333" d="M34.639,4.791l13.194,0.918C44.213,2.182,39.279,0,33.823,0C22.72,0,13.719,9,13.719,20.104
					c0,3.687,0.247,2.304,3.227,6.062l1.461-0.519c1.813,0.39,4.922,0.487,4.898-1.567c-0.139-12.359,2.45-18.392,10.291-19.289
					H34.639z"/>
				<path fill="#4D3333" d="M35.132,21.043c0,0.518-0.42,0.938-0.933,0.938c-0.52,0-0.937-0.42-0.937-0.938
					c0-0.514,0.417-0.932,0.937-0.932C34.712,20.111,35.132,20.529,35.132,21.043z"/>
				<path fill="#4D3333" d="M50.305,21.043c0,0.518-0.419,0.938-0.936,0.938c-0.517,0-0.936-0.42-0.936-0.938
					c0-0.514,0.419-0.932,0.936-0.932C49.886,20.111,50.305,20.529,50.305,21.043z"/>
				<path fill="#FF8A33" d="M25.395,24.002c0,2.439-1.978,4.418-4.418,4.418h-5.667c-2.441,0-4.418-1.979-4.418-4.418l0,0
					c0-2.439,1.977-4.418,4.418-4.418h5.667C23.417,19.584,25.395,21.563,25.395,24.002L25.395,24.002z"/>
				<path fill="#4D3333" d="M47.694,5.67c3.802,4.318-0.286,7.094-4.863,6.512c-3.537-0.449-8.245-2.086-12.109-6.264
					C26.862,1.746,47.694,5.67,47.694,5.67z"/>
				<path fill="#4D3333" d="M23.41,23.273c0,1.096-0.888,1.983-1.98,1.983l0,0c-1.096,0-1.984-0.887-1.984-1.983v-5.166
					c0-1.094,0.888-1.984,1.984-1.984l0,0c1.093,0,1.98,0.891,1.98,1.984V23.273z"/>
				<path fill="#4D3333" d="M56.09,3.785L56.09,3.785c0,4.584-3.717,8.297-8.299,8.297H45.42c-4.583,0-8.298-3.713-8.298-8.297l0,0"
					/>
				<path fill="#FF8A33" d="M50.812,1.91"/>
			</g>
		</g>
		<g>
			<g>
				<g>
					<g>
						<path fill="#FF8A33" d="M6.39,59.215c-0.678,0.552-1.455,0.895-2.377,0.904c-0.91,0.011-1.916-0.261-2.731-0.894
							C0.466,58.592,0.014,57.688,0,56.677c-0.01-0.998,0.367-2.151,1.292-2.931c0.444-0.405,0.939-0.712,1.442-0.91
							c0.517-0.181,1.066-0.222,1.569-0.178c1.016,0.095,1.892,0.613,2.466,1.47c0.574,0.857,0.77,1.873,0.687,2.773
							c-0.04,0.454-0.167,0.865-0.345,1.253C6.949,58.562,6.713,58.921,6.39,59.215z"/>
						<path fill="#663399" d="M1.253,53.706c0,0,0.276-0.25,0.758-0.688c0.463-0.464,1.218-1.003,2.12-1.659
							c0.875-0.7,2.027-1.29,3.215-2.004c1.24-0.595,2.561-1.244,3.938-1.711c2.736-0.997,5.561-1.564,7.682-1.831
							c1.062-0.12,1.949-0.208,2.573-0.231c0.622-0.039,0.979-0.05,0.979-0.05c2.369-0.083,4.234,1.818,3.946,3.902
							c-0.288,2.072-1.845,3.617-3.701,3.682c0,0-0.286,0.008-0.787,0.041c-0.502,0.017-1.215,0.09-2.069,0.186
							c-1.703,0.215-3.947,0.672-6.044,1.437c-1.064,0.355-2.046,0.853-2.982,1.29c-0.865,0.543-1.74,0.957-2.363,1.48
							c-0.652,0.483-1.217,0.86-1.542,1.206c-0.348,0.318-0.547,0.5-0.547,0.5"/>
					</g>
				</g>
			</g>
			<g>
				<g>
					<g>
						<path fill="#FF8A33" d="M67.129,52.496c0.858,0.584,1.271,1.561,1.343,2.467c0.063,0.923-0.268,1.836-0.955,2.566
							c-0.688,0.73-1.585,1.155-2.437,1.29c-0.868,0.147-1.636-0.069-2.311-0.515c-1.25-0.969-1.583-2.992-0.59-4.754
							C63.151,51.818,65.456,51.214,67.129,52.496z"/>
						<path fill="#663399" d="M62.735,58.349c0,0-0.202-0.147-0.556-0.403c-0.177-0.129-0.391-0.285-0.637-0.465
							c-0.26-0.158-0.553-0.337-0.873-0.531c-1.253-0.821-3.069-1.681-4.95-2.366c-1.884-0.682-3.858-1.133-5.353-1.33
							c-1.494-0.21-2.491-0.248-2.491-0.248c-1.612-0.097-2.912-1.619-3.181-3.638c-0.276-2.025,1.445-3.851,3.565-3.725
							c0,0,1.28,0.048,3.165,0.314c1.887,0.252,4.372,0.818,6.77,1.682c2.394,0.863,4.711,1.979,6.323,3.021
							c0.409,0.251,0.783,0.481,1.115,0.685c0.316,0.228,0.591,0.427,0.818,0.59c0.453,0.329,0.711,0.517,0.711,0.517"/>
					</g>
				</g>
			</g>
		</g>
		<path fill="#994733" d="M40.465,32.109c0,0.406-0.329,0.734-0.735,0.734h-4.871c-0.406,0-0.735-0.328-0.735-0.734l0,0
			c0-0.406,0.329-0.736,0.735-0.736h4.871C40.136,31.373,40.465,31.703,40.465,32.109L40.465,32.109z"/>
	</g>
</g>
</svg>
